<?xml version="1.0" encoding="utf-8"?>
<!-- Generator: Adobe Illustrator 21.1.0, SVG Export Plug-In . SVG Version: 6.00 Build 0)  -->
<svg version="1.1" id="Layer_1" xmlns="http://www.w3.org/2000/svg" xmlns:xlink="http://www.w3.org/1999/xlink" x="0px" y="0px"
	 viewBox="0 0 310.5 104" style="enable-background:new 0 0 310.5 104;" xml:space="preserve">
<style type="text/css">
	.st0{fill:#ED1C24;}
	.st1{fill:#234E86;}
</style>
<g>
	<path class="st0" d="M63.8,10.6c-4.3-3.8-10.6-5.7-18.9-5.7H29.3c-8.3,0-14.6,1.9-18.9,5.7C6.1,14.4,4,20,4,27.3v30.9
		c0,7.3,2.2,13,6.4,16.8c4.3,3.8,10.6,5.7,18.9,5.7h15.6c8.3,0,14.6-1.9,18.9-5.7c4.3-3.8,6.4-9.4,6.4-16.8v-1.8h-2H52.7h-2v1.8
		c0,8.5-4.1,8.5-5.8,8.5H29.3c-1.7,0-5.8,0-5.8-8.5V27.3c0-8.5,4.1-8.5,5.8-8.5h15.6c1.6,0,5.8,0,5.8,8.5v1.8h2h15.6h2v-1.8
		C70.2,20,68,14.4,63.8,10.6z"/>
	<polygon class="st0" points="79.1,4.9 77.1,4.9 77.1,6.8 77.1,78.8 77.1,80.6 79.1,80.6 94.7,80.6 96.7,80.6 96.7,78.8 96.7,6.8 
		96.7,4.9 94.7,4.9 	"/>
	<path class="st0" d="M164,10.6c-4.3-3.8-10.6-5.7-18.9-5.7h-15.6c-8.3,0-14.6,1.9-18.9,5.7c-4.3,3.8-6.4,9.4-6.4,16.8v30.9
		c0,7.3,2.2,13,6.4,16.8c4.3,3.8,10.6,5.7,18.9,5.7h15.6c8.3,0,14.6-1.9,18.9-5.7c4.3-3.8,6.4-9.4,6.4-16.8V27.3
		C170.4,20,168.2,14.4,164,10.6z M123.7,27.3c0-8.5,4.1-8.5,5.8-8.5h15.6c1.7,0,5.8,0,5.8,8.5v30.9c0,8.5-4.1,8.5-5.8,8.5h-15.6
		c-1.7,0-5.8,0-5.8-8.5V27.3z"/>
</g>
<g>
	<path d="M14.5,84.3L8,97.5h3.5l1.2-2.5h7.1l1.2,2.5h3.6l-6.5-13.2H14.5z M18.6,92.5H14l2.3-4.7L18.6,92.5z"/>
	<path d="M36.8,85.1c-0.9-0.5-2.5-0.8-4.9-0.8h-7.2v13.2H28V93h3.9c2.3,0,3.9-0.3,4.8-0.8c1-0.6,1.6-1.6,1.6-3.1v-1
		C38.3,86.7,37.8,85.6,36.8,85.1z M35,88.2v1c0,0.6-0.1,0.9-0.4,1c-0.2,0.1-1,0.3-3.1,0.3H28v-3.7h3.5c2.1,0,2.8,0.2,3.1,0.3
		C34.8,87.3,35,87.6,35,88.2z"/>
	<path d="M51.2,85.1c-0.9-0.5-2.5-0.8-4.9-0.8H39v13.2h3.3V93h3.9c2.3,0,3.9-0.3,4.8-0.8c1-0.6,1.6-1.6,1.6-3.1v-1
		C52.7,86.7,52.1,85.6,51.2,85.1z M49.3,88.2v1c0,0.6-0.1,0.9-0.4,1c-0.2,0.1-1,0.3-3.1,0.3h-3.5v-3.7h3.5c2.1,0,2.8,0.2,3.1,0.3
		C49.2,87.3,49.3,87.6,49.3,88.2z"/>
	<polygon points="56.8,84.3 53.4,84.3 53.4,97.5 64.9,97.5 64.9,95 56.8,95 	"/>
	<rect x="65.2" y="84.3" width="3.3" height="13.2"/>
	<path d="M84.1,92.2h-3.3v0.6c0,1-0.2,1.6-0.5,1.8c-0.2,0.2-1,0.4-3.1,0.4c-2.5,0-3.2-0.4-3.4-0.5c-0.2-0.2-0.6-0.7-0.6-2.9v-1.6
		c0-2.1,0.4-2.7,0.6-2.9c0.2-0.2,0.9-0.5,3.4-0.5c2.1,0,2.9,0.3,3.1,0.4c0.4,0.2,0.6,0.8,0.6,1.7v0.6h2.7l0.7,0v-0.6
		c0-1.8-0.5-3.1-1.6-3.7c-1-0.6-2.8-0.9-5.6-0.9c-2.9,0-4.7,0.4-5.7,1.2c-1,0.8-1.5,2.4-1.5,4.8v1.6c0,2.4,0.5,4,1.5,4.8
		c1,0.8,2.8,1.2,5.7,1.2c2.9,0,4.7-0.3,5.7-0.9c1-0.7,1.5-1.9,1.5-3.9L84.1,92.2z"/>
	<path d="M90.3,84.3l-6.5,13.2h3.5l1.2-2.5h7.1l1.2,2.5h3.6l-6.5-13.2H90.3z M94.4,92.5h-4.6l2.3-4.7L94.4,92.5z"/>
	<polygon points="99.3,86.8 104.5,86.8 104.5,97.5 107.8,97.5 107.8,86.8 113.1,86.8 113.1,84.3 99.3,84.3 	"/>
	<rect x="113.6" y="84.3" width="3.3" height="13.2"/>
	<path d="M126.1,84.2c-3.2,0-5.2,0.4-6.2,1.3c-1,0.9-1.5,2.7-1.5,5.5c0,2.8,0.5,4.6,1.5,5.5c1,0.9,3,1.3,6.2,1.3
		c3.2,0,5.2-0.4,6.2-1.3c1-0.9,1.5-2.6,1.5-5.5v-0.1c0-2.8-0.5-4.5-1.4-5.4C131.4,84.6,129.3,84.2,126.1,84.2z M126.1,95.1
		c-2.8,0-3.5-0.4-3.7-0.6c-0.2-0.2-0.6-0.9-0.6-3.6c0-2.8,0.4-3.5,0.6-3.6c0.2-0.2,0.9-0.6,3.7-0.6c2.8,0,3.5,0.4,3.7,0.6
		c0.2,0.2,0.6,0.9,0.6,3.6c0,2.7-0.4,3.4-0.6,3.6C129.7,94.7,129,95.1,126.1,95.1z"/>
	<polygon points="147.5,93.8 139.3,84.3 135.3,84.3 135.3,97.5 138.6,97.5 138.6,87.9 146.8,97.5 150.8,97.5 150.8,84.3 147.5,84.3 
			"/>
	<path d="M164.6,90.2c-0.7-0.5-2-0.8-4.1-0.8h-3.3c-1.2,0-1.4-0.2-1.5-0.2c0,0-0.2-0.2-0.2-1.2c0-0.7,0.2-1,0.3-1.1
		c0.1-0.1,0.7-0.2,3.1-0.2c2.3,0,2.9,0.2,3.1,0.3c0.1,0,0.4,0.3,0.4,1.3v0.6h3.3v-0.6c0-1.7-0.5-2.8-1.4-3.4
		c-0.8-0.5-2.5-0.7-5.3-0.7c-3.7,0-4.8,0.4-5.3,0.7c-0.9,0.5-1.4,1.6-1.4,3.2c0,1.6,0.3,2.7,1,3.2c0.7,0.5,1.9,0.8,3.9,0.8h3.3
		c1.3,0,1.6,0.2,1.7,0.2c0,0,0.2,0.2,0.2,1.1c0,1.1-0.3,1.4-0.4,1.4c-0.1,0.1-0.7,0.3-3.3,0.3c-2.5,0-3.1-0.3-3.2-0.3
		c-0.1,0-0.4-0.3-0.4-1.7v-0.6h-3.3v0.6c0,1.9,0.4,3.2,1.4,3.8c0.9,0.5,2.6,0.8,5.5,0.8c2.9,0,4.6-0.2,5.5-0.7
		c0.9-0.6,1.4-1.7,1.4-3.5C165.7,91.8,165.3,90.8,164.6,90.2z"/>
</g>
<g>
	<path class="st1" d="M179.7,14.9V5.7h-2.5V4.6h6.2v1.1h-2.5v9.2H179.7z"/>
	<path class="st1" d="M184.5,9.8c0-0.9,0.1-1.8,0.4-2.6s0.7-1.5,1.2-2c0.5-0.5,1.2-0.8,2-0.8c0.8,0,1.5,0.2,2,0.7
		c0.6,0.5,1,1.1,1.2,1.9c0.3,0.8,0.4,1.6,0.4,2.5c0,0.9-0.1,1.8-0.4,2.6c-0.3,0.8-0.7,1.5-1.2,2c-0.5,0.5-1.2,0.8-2,0.8
		c-0.8,0-1.5-0.2-2-0.7c-0.6-0.5-1-1.1-1.2-1.9S184.5,10.7,184.5,9.8z M190.6,9.7c0-1.1-0.2-2.1-0.5-2.8c-0.5-0.9-1.1-1.4-1.9-1.4
		c-0.6,0-1.1,0.2-1.5,0.7c-0.4,0.4-0.6,1-0.8,1.7s-0.2,1.3-0.2,2c0,0.6,0.1,1.3,0.3,1.9c0.2,0.6,0.4,1.2,0.8,1.6s0.9,0.6,1.4,0.6
		c0.6,0,1.1-0.2,1.4-0.7s0.6-1,0.8-1.6C190.5,11,190.6,10.3,190.6,9.7z"/>
	<path class="st1" d="M193.7,14.9V4.6h3c1,0,1.7,0.2,2.2,0.7c0.3,0.3,0.5,0.6,0.7,1.1c0.1,0.4,0.2,0.9,0.2,1.3
		c0,0.9-0.3,1.6-0.8,2.2c-0.5,0.5-1.2,0.8-2.1,0.8h-2v4.2H193.7z M196.7,9.6c0.6,0,1.1-0.2,1.4-0.5c0.3-0.3,0.5-0.8,0.5-1.4
		c0-0.7-0.2-1.3-0.6-1.6c-0.3-0.3-0.7-0.4-1.2-0.4h-2v4H196.7z"/>
	<path class="st1" d="M207.7,8.3h-1l0-0.2c0-0.1,0-0.3,0-0.4c0-0.8,0.2-1.5,0.6-2.2s1.2-1,2.5-1c2,0,3.1,0.9,3.1,2.6
		c0,0.5-0.1,1-0.2,1.4c-0.2,0.4-0.4,0.7-0.7,0.9s-0.7,0.6-1.4,0.9c-0.7,0.4-1,0.6-1,0.6c-0.6,0.4-1.1,0.7-1.4,1
		c-0.3,0.3-0.4,0.7-0.4,1.3v0.5h5.1v1.1h-6.2v-1.4c0-0.5,0-1,0.1-1.3c0.1-0.4,0.3-0.7,0.7-1c0.3-0.3,0.7-0.6,0.9-0.7
		s0.7-0.4,1.3-0.7c0.6-0.3,1-0.6,1.4-0.9c0.5-0.4,0.8-0.9,0.8-1.5c0-0.6-0.2-1-0.5-1.4c-0.3-0.3-0.8-0.4-1.5-0.4
		c-0.8,0-1.4,0.2-1.7,0.7c-0.2,0.4-0.4,0.8-0.4,1.4c0,0.1,0,0.3,0,0.4C207.7,8.2,207.7,8.3,207.7,8.3L207.7,8.3z"/>
	<path class="st1" d="M221.4,5.6h-4.3l-0.2,2.8c0.1-0.1,0.3-0.3,0.6-0.5c0.3-0.2,0.8-0.3,1.4-0.3c0.2,0,0.5,0,0.8,0.1
		c0.5,0.1,0.9,0.3,1.2,0.6c0.3,0.3,0.6,0.7,0.7,1.2c0.2,0.5,0.2,1,0.2,1.7c0,1.2-0.2,2.1-0.7,2.8c-0.5,0.7-1.3,1-2.4,1
		c-0.9,0-1.5-0.2-2-0.6c-0.5-0.4-0.7-0.8-0.9-1.2c-0.1-0.4-0.2-0.8-0.2-1.1h1.1c0,1.2,0.7,1.8,2,1.9c1.4,0,2.1-1,2.1-2.9
		c0-1.7-0.7-2.6-2.1-2.6c-0.7,0-1.2,0.2-1.5,0.5c-0.3,0.3-0.5,0.6-0.5,0.8h-1l0.4-5.3h5.3V5.6z"/>
</g>
<g>
	<path d="M183,97c0,0.3-0.1,0.5-0.4,0.7c-0.2,0.2-0.5,0.3-0.9,0.3h-4.5c-0.4,0-0.7-0.1-0.9-0.3c-0.2-0.2-0.3-0.4-0.3-0.7V85.1
		c0-0.3,0.1-0.5,0.3-0.7c0.2-0.2,0.5-0.3,0.9-0.3h4.5c0.4,0,0.7,0.1,0.9,0.3c0.2,0.2,0.4,0.4,0.4,0.7v3.2h-1.6v-3.1h-3.9v11.7h3.9
		v-3.4h1.6V97z"/>
	<path d="M192.8,97c0,0.3-0.1,0.5-0.4,0.7c-0.2,0.2-0.5,0.3-0.9,0.3h-4.9c-0.4,0-0.7-0.1-0.9-0.3c-0.2-0.2-0.3-0.4-0.3-0.7V85.1
		c0-0.3,0.1-0.5,0.3-0.7c0.2-0.2,0.5-0.3,0.9-0.3h4.9c0.4,0,0.7,0.1,0.9,0.3c0.2,0.2,0.4,0.4,0.4,0.7V97z M191.3,96.9V85.2H187v11.7
		H191.3z"/>
	<path d="M204,98h-1.5v-8.8c0-0.1,0.1-0.5,0.2-1.1l-2.9,8.6h-0.3l-2.9-8.6c0.1,0.6,0.2,1,0.2,1.1V98h-1.5V84.1h1.4l2.8,9
		c0,0,0,0.2,0,0.4c0-0.1,0-0.2,0-0.4l2.8-9h1.4V98z"/>
	<path d="M213.5,91.5c0,0.3-0.1,0.5-0.4,0.7c-0.2,0.2-0.5,0.3-0.9,0.3h-4.1V98h-1.6V84.1h5.7c0.4,0,0.7,0.1,0.9,0.3
		c0.2,0.2,0.4,0.4,0.4,0.7V91.5z M212,91.4v-6.2h-3.8v6.2H212z"/>
	<path d="M222.8,98h-1.5l-0.6-3.1h-3.5l-0.6,3.1H215v0l3.1-13.9h1.5L222.8,98z M220.4,93.8l-1.5-7.5l-1.5,7.5H220.4z"/>
	<path d="M231.8,98h-1.1l-4.7-10.2V98h-1.5V84.1h1.2l4.6,10v-10h1.5V98z"/>
	<path d="M236,98h-1.6V84.1h1.6V98z"/>
	<path d="M244.4,98h-5.7V84.1h5.7v1.1h-4.1v5.2h3.8v1.1h-3.8v5.4h4.2V98z"/>
	<path d="M253.4,97c0,0.3-0.1,0.5-0.3,0.7c-0.2,0.2-0.5,0.3-0.9,0.3h-4.4c-0.4,0-0.7-0.1-0.9-0.3c-0.2-0.2-0.4-0.4-0.4-0.7v-3.5h1.6
		v3.4h3.8v-3.3L247,89c-0.3-0.3-0.5-0.7-0.5-1.1v-2.8c0-0.3,0.1-0.5,0.4-0.7c0.2-0.2,0.5-0.3,0.9-0.3h4.4c0.4,0,0.7,0.1,0.9,0.3
		c0.2,0.2,0.3,0.4,0.3,0.7v3.2h-1.6v-3.1h-3.8v2.9l4.9,4.6c0.3,0.3,0.5,0.7,0.5,1V97z"/>
	<path d="M264.4,93.3h-4.6v-1.1h4.6V93.3z"/>
	<path d="M277.4,98h-6.9v-0.7l5.4-8.8v-3.3h-3.6v3.1h-1.6v-3.2c0-0.3,0.1-0.5,0.3-0.7c0.2-0.2,0.5-0.3,0.9-0.3h4.2
		c0.4,0,0.7,0.1,0.9,0.3c0.2,0.2,0.3,0.4,0.3,0.7v2.9c0,0.4-0.1,0.8-0.4,1.2l-4.6,7.6h5.1V98z"/>
	<path d="M286.7,97c0,0.3-0.1,0.5-0.4,0.7c-0.2,0.2-0.5,0.3-0.9,0.3h-4.6c-0.4,0-0.7-0.1-0.9-0.3c-0.2-0.2-0.3-0.4-0.3-0.7V85.1
		c0-0.3,0.1-0.5,0.3-0.7c0.2-0.2,0.5-0.3,0.9-0.3h4.6c0.4,0,0.7,0.1,0.9,0.3c0.2,0.2,0.4,0.4,0.4,0.7V97z M285.2,96.9V85.2h-4v11.7
		H285.2z"/>
	<path d="M295.8,98h-6.9v-0.7l5.4-8.8v-3.3h-3.6v3.1H289v-3.2c0-0.3,0.1-0.5,0.3-0.7c0.2-0.2,0.5-0.3,0.9-0.3h4.2
		c0.4,0,0.7,0.1,0.9,0.3c0.2,0.2,0.3,0.4,0.3,0.7v2.9c0,0.4-0.1,0.8-0.4,1.2l-4.6,7.6h5.1V98z"/>
	<path d="M305.1,97c0,0.3-0.1,0.5-0.4,0.7c-0.2,0.2-0.5,0.3-0.9,0.3h-4.6c-0.4,0-0.7-0.1-0.9-0.3c-0.2-0.2-0.3-0.4-0.3-0.7V85.1
		c0-0.3,0.1-0.5,0.3-0.7c0.2-0.2,0.5-0.3,0.9-0.3h4.6c0.4,0,0.7,0.1,0.9,0.3c0.2,0.2,0.4,0.4,0.4,0.7V97z M303.5,96.9V85.2h-4v11.7
		H303.5z"/>
</g>
<g>
	<path class="st1" d="M201,41.7c-0.7,3.4-2,6.2-3.8,8.2c-1.8,2-4.3,3-7.3,3c-2.8,0-5.1-0.9-6.9-2.6c-1.8-1.8-3.2-4-4.1-6.8
		c-0.9-2.8-1.3-5.6-1.3-8.6c0-3.1,0.5-5.9,1.4-8.6c0.9-2.6,2.3-4.8,4.2-6.4c1.9-1.6,4.2-2.4,7-2.4c2,0,3.7,0.5,5.2,1.4
		c1.5,0.9,2.7,2.2,3.6,3.9c0.9,1.7,1.6,3.5,2,5.7l-3.6,0.8c-1.2-5.4-3.7-8.1-7.4-8.1c-3,0-5.1,1.4-6.4,4.3c-1.3,2.9-1.9,6.1-1.9,9.8
		c0,3.4,0.5,6.2,1.4,8.6c0.7,1.6,1.6,2.9,2.7,3.9s2.5,1.5,4,1.5c3.9,0,6.5-2.8,7.8-8.5L201,41.7z"/>
	<path class="st1" d="M217.4,37.9v14.5h-3.8V37.9L203.6,18h4.4l8,15.8l8.1-15.8h3.4L217.4,37.9z"/>
	<path class="st1" d="M231.3,52.4V18h11.4c1.4,0,2.6,0.1,3.5,0.3s1.8,0.6,2.7,1.3c2.1,1.6,3.2,3.8,3.2,6.7c0,2-0.5,3.6-1.4,5
		s-2.2,2.3-3.9,2.8v0.1c1.9,0.4,3.4,1.5,4.5,3.1s1.7,3.5,1.7,5.7c0,3.2-1,5.6-2.9,7.3c-1.1,0.9-2.1,1.5-3.3,1.8
		c-1.1,0.3-2.5,0.4-4.1,0.4H231.3z M241,32.7c2.6,0,4.5-0.4,5.5-1.3c0.6-0.5,1-1.1,1.4-2c0.3-0.8,0.5-1.7,0.5-2.5
		c0-2-0.7-3.5-2.2-4.5c-0.9-0.6-2.3-0.9-4.2-0.9h-6.9v11.2H241z M242.5,48.7c2.2,0,3.8-0.5,4.8-1.4c1.3-0.9,1.9-2.5,1.9-4.6
		c0-2.2-0.7-4-2.1-5.4c-1-0.8-2.7-1.2-5.1-1.2h-6.9v12.6H242.5z"/>
	<path class="st1" d="M278.3,52.4h-19.5V18h19.1v3.7h-15.3v10.9h12.2v3.5h-12.2v12.5h15.7V52.4z"/>
	<path class="st1" d="M301,52.4l-5.6-14.8h-8.4v14.8h-3.8V18h11.3c3,0,5.2,0.7,6.8,2.1c2.2,1.8,3.2,4.4,3.2,7.6
		c0,2.1-0.5,3.9-1.5,5.5c-1,1.6-2.4,2.7-4.1,3.3l5.9,15.9H301z M294.2,34c1.2,0,2.2-0.1,3-0.4s1.5-0.8,2.2-1.5
		c1-1.2,1.5-2.7,1.5-4.5c0-2.1-0.7-3.7-2.1-4.8c-1-0.7-2.4-1.1-4.2-1.1h-7.6V34H294.2z"/>
</g>
<g>
	<path class="st1" d="M178,72.8c0.3,1.1,0.7,1.9,1.3,2.6c0.6,0.7,1.3,1.2,2.1,1.6c0.8,0.3,1.7,0.5,2.7,0.5c1.6,0,2.8-0.4,3.7-1.1
		c0.9-0.8,1.3-1.8,1.3-3.1c0-1.9-1.2-3.2-3.6-3.8l-3.5-1c-1.7-0.4-2.9-1.1-3.7-1.9c-1.1-1.1-1.7-2.6-1.7-4.4c0-2.1,0.7-3.8,2.1-4.9
		c1.4-1.1,3-1.7,5-1.7c1.8,0,3.3,0.5,4.6,1.5c1.3,1,2.2,2.4,2.8,4.3l-2.4,0.7c-0.2-1.3-0.8-2.3-1.8-3s-2.1-1.2-3.3-1.2
		c-1.1,0-2.1,0.3-3,1s-1.4,1.6-1.4,2.8c0,1.2,0.3,2,0.9,2.5c0.6,0.5,1.5,0.9,2.8,1.3l3.1,0.8c1.8,0.6,3.1,1.2,3.8,1.9
		c1.3,1.2,1.9,2.8,1.9,4.7c0,2.2-0.8,4-2.4,5.4c-1.3,1.1-3.1,1.7-5.4,1.7c-4.3,0-7.1-2.2-8.4-6.7L178,72.8z"/>
	<path class="st1" d="M209,79.7h-13.4V56.1h13.1v2.5h-10.5v7.5h8.3v2.4h-8.3v8.6H209V79.7z"/>
	<path class="st1" d="M227.1,72.4c-0.5,2.4-1.4,4.2-2.6,5.6s-2.9,2.1-5,2.1c-1.9,0-3.5-0.6-4.7-1.8s-2.2-2.8-2.8-4.6
		c-0.6-1.9-0.9-3.9-0.9-5.9c0-2.1,0.3-4.1,0.9-5.9c0.6-1.8,1.6-3.3,2.9-4.4c1.3-1.1,2.9-1.7,4.8-1.7c1.3,0,2.5,0.3,3.6,1
		c1,0.6,1.9,1.5,2.5,2.7c0.6,1.1,1.1,2.4,1.4,3.9l-2.4,0.5c-0.8-3.7-2.5-5.6-5.1-5.6c-2,0-3.5,1-4.4,2.9c-0.9,2-1.3,4.2-1.3,6.7
		c0,2.3,0.3,4.3,1,5.9c0.5,1.1,1.1,2,1.9,2.7c0.8,0.7,1.7,1,2.7,1c2.7,0,4.5-1.9,5.4-5.8L227.1,72.4z"/>
	<path class="st1" d="M245.1,56.1v14.9c0,1.4-0.1,2.6-0.3,3.6c-0.2,1-0.6,1.9-1.2,2.7c-1.3,1.8-3.1,2.6-5.6,2.6
		c-2.5,0-4.4-0.7-5.6-2.2c-0.7-0.9-1.1-1.9-1.3-3c-0.2-1.1-0.3-2.3-0.3-3.8V56.1h2.6v14.9c0,2.1,0.3,3.7,0.8,4.6
		c0.7,1.2,2,1.8,4,1.8c1.7,0,3-0.5,3.7-1.6c0.5-0.6,0.7-1.3,0.9-2c0.1-0.7,0.2-1.6,0.2-2.7V56.1H245.1z"/>
	<path class="st1" d="M262.2,79.7l-3.8-10.2h-5.8v10.2H250V56.1h7.8c2,0,3.6,0.5,4.7,1.4c1.5,1.3,2.2,3,2.2,5.2c0,1.4-0.3,2.7-1,3.8
		s-1.6,1.9-2.8,2.3l4.1,10.9H262.2z M257.5,67.1c0.8,0,1.5-0.1,2.1-0.3s1-0.5,1.5-1.1c0.7-0.8,1.1-1.8,1.1-3.1
		c0-1.5-0.5-2.6-1.4-3.3c-0.7-0.5-1.6-0.7-2.9-0.7h-5.2v8.5H257.5z"/>
	<path class="st1" d="M268.7,79.7V56.1h2.6v23.6H268.7z"/>
	<path class="st1" d="M280.1,79.7v-21h-5.9v-2.6h14.4v2.6h-5.9v21H280.1z"/>
	<path class="st1" d="M298.6,69.8v9.9H296v-9.9l-6.9-13.7h3l5.5,10.9l5.6-10.9h2.4L298.6,69.8z"/>
</g>
</svg>
