<svg id="Layer_1" data-name="Layer 1" xmlns="http://www.w3.org/2000/svg" viewBox="0 0 463 500"><defs><style>.cls-1{fill:#6a787d;}.cls-2{fill:#fefefe;}.cls-3{fill:#18313b;}.cls-4{fill:#fa3d2e;}</style></defs><title>clutch-top-cloud-consultants</title><path class="cls-1" d="M.07,124.67c4.13-1.63,7.89-4,11.78-6.09Q92.76,74.92,173.64,31.21q28-15.14,56-30.31c.48-.26.92-.6,1.38-.9h.83c6,3.3,12,6.64,18.05,9.91q61,33,122,66,44.53,24.06,89.09,48.07a3,3,0,0,1,1.85,3q-.07,123.2,0,246.4a3,3,0,0,1-1.81,3q-62.43,33.66-124.82,67.39-51.49,27.82-103,55.67a3.45,3.45,0,0,1-3.78-.05q-56-30.3-112-60.52L1.77,376.33c-.53-.29-1-.77-1.7-.65ZM3.82,250.14q0,60.35,0,120.7c0,1.31.1,2.24,1.51,3q55.66,30,111.26,60.08,56.35,30.45,112.69,60.92a4,4,0,0,0,4.38,0q47.05-25.53,94.17-50.94,64.87-35.05,129.77-70.07a2.65,2.65,0,0,0,1.59-2.74q0-120.91,0-241.83a2.81,2.81,0,0,0-1.72-2.87Q414.73,103.4,372,80.3,302.77,42.87,233.51,5.42a3.68,3.68,0,0,0-4,0q-38.81,21.08-77.67,42-73,39.46-146.09,78.87a3.25,3.25,0,0,0-2,3.36Q3.86,189.89,3.82,250.14Z"/><path class="cls-2" d="M3.82,250.14q0-60.25,0-120.5a3.25,3.25,0,0,1,2-3.36Q78.82,86.91,151.84,47.42q38.85-21,77.67-42a3.68,3.68,0,0,1,4,0Q302.76,42.89,372,80.3q42.7,23.07,85.41,46.12a2.81,2.81,0,0,1,1.72,2.87q-.06,120.91,0,241.83a2.65,2.65,0,0,1-1.59,2.74q-64.9,35-129.77,70.07-47.1,25.45-94.17,50.94a4,4,0,0,1-4.38,0q-56.32-30.51-112.69-60.92Q61,403.86,5.32,373.84c-1.41-.76-1.51-1.69-1.51-3Q3.84,310.49,3.82,250.14Zm8.82,68.8c0,15.77,0,31.54-.1,47.31,0,1.42.9,1.71,1.78,2.18L64.44,395.3q82.34,44.11,164.67,88.26a4.4,4.4,0,0,0,4.76,0q79.91-42.91,159.88-85.72l54.9-29.4c.88-.47,1.79-.76,1.78-2.18-.08-15.77-.08-31.54-.1-47.31,0-.48.06-1,.06-1.45q0-67.31,0-134.62c0-.48,0-1-.06-1.45,0-15.49,0-31,.11-46.48a3.05,3.05,0,0,0-2-3.14q-34.08-18.2-68.12-36.47Q307.1,56.07,233.86,16.79a4.41,4.41,0,0,0-4.76,0q-80,43-160.07,85.81Q41.77,117.21,14.5,131.82c-.91.49-2,.72-2,2.27.08,15.77.08,31.54.1,47.31,0,.48-.06,1-.06,1.45q0,67.31,0,134.62C12.58,318,12.62,318.46,12.64,318.94Z"/><path class="cls-3" d="M450.32,181.41c0,.48.06,1,.06,1.45q0,67.31,0,134.62c0,.48,0,1-.06,1.45H430.7a5.59,5.59,0,0,0-.32,2.74c0,11.74,0,23.49,0,35.23a2.84,2.84,0,0,1-1.74,2.92c-2.72,1.39-5.41,2.85-8.09,4.31q-25,13.71-50,27.44c-12.48,6.84-25,13.63-37.46,20.47Q304,428,274.87,444C262,451.1,249,458.08,236.2,465.31a7.35,7.35,0,0,1-8.19,0C211.48,456,194.84,447,178.22,437.87c-14.06-7.7-28.16-15.34-42.22-23q-29.13-16-58.23-32-21.09-11.56-42.23-23a2.88,2.88,0,0,1-1.74-2.92c.07-11.81,0-23.63,0-35.44,0-.8.28-1.67-.45-2.53H12.64c0-.48-.06-1-.06-1.45q0-67.31,0-134.62c0-.48,0-1,.06-1.45h21.2c0-1.11,0-1.92,0-2.74,0-11.74,0-23.49,0-35.23a2.84,2.84,0,0,1,1.74-2.92c2.72-1.39,5.41-2.85,8.09-4.31q25-13.71,50-27.44c12.48-6.84,25-13.63,37.46-20.47q29.12-16,58.22-32C202.24,49.25,215.19,42.27,228,35a7.35,7.35,0,0,1,8.19,0C252.73,44.3,269.37,53.37,286,62.47c14.06,7.7,28.16,15.35,42.22,23.05q29.13,16,58.23,32,21.09,11.56,42.23,23a2.88,2.88,0,0,1,1.74,2.92c-.07,11.81,0,23.63,0,35.44,0,.8-.28,1.67.45,2.53Zm-414,12.36H427.87c0-16.64,0-33.16,0-49.69a1.57,1.57,0,0,0-1-1.59c-2.21-1.16-4.38-2.4-6.57-3.6q-93.21-51-186.4-102.11a3.23,3.23,0,0,0-3.58,0q-38.3,21.07-76.66,42Q96,110.41,38.24,142a3.24,3.24,0,0,0-1.93,3.37c.07,10.56,0,21.12,0,31.68C36.35,182.55,36.35,188.1,36.35,193.77Zm0,112.78c0,16.61,0,33,0,49.4A2,2,0,0,0,37.6,358c2.59,1.34,5.12,2.79,7.67,4.19q91.93,50.34,183.84,100.73a5.34,5.34,0,0,0,6,0q95.52-52.45,191.15-104.7a2.79,2.79,0,0,0,1.67-2.89c0-15.63,0-31.27,0-46.9v-1.9Zm134.92-74.41c-10.34-12.32-31.77-13.45-43.4-2.4-12,11.45-12.17,31.56-.27,42.69s33.29,10.23,43.28-1.7l-6.13-7c-10.44,10.69-24.34,8.29-30.69,1.69-6.93-7.21-7.41-19.59-1-27.29a18.31,18.31,0,0,1,12.15-6.58c7.51-.93,13.93,1.5,19.21,7Zm145.37,10.37V220.28h-9.91v58.54h9.94c0-6.72,0-13.32,0-19.92,0-6.08,3-9.38,9.08-10.09,4.77-.56,7.75,1.81,8.27,6.6a25.19,25.19,0,0,1,.08,2.71c0,6.32,0,12.65,0,19,0,.59-.24,1.25.22,1.72h9.75c0-8.19.2-16.25-.06-24.3-.27-8.32-5.81-13.9-14.11-14.84A21,21,0,0,0,316.64,242.51Zm-121.34-2.29c0,8.18-.29,16.17.08,24.13.44,9.5,5.91,15.06,15.09,16.1a19.26,19.26,0,0,0,11.4-2.55c3.84,1.93,7.44.56,10.86,1.09V240.29h-9.95c0,7,0,13.85,0,20.72s-5.19,11.21-11.94,10.29a7.06,7.06,0,0,1-6.16-5.16,13.45,13.45,0,0,1-.59-4.31q0-9.79,0-19.59c0-.66.24-1.37-.27-2Zm107.21,5.54a23.69,23.69,0,0,0-20.74-6.61c-7.49,1.07-13.31,4.73-16.53,11.78a20.41,20.41,0,0,0,7.51,25.67c9.21,5.95,22.84,4.43,29.71-3.41l-6.83-6.28c-8,5.33-14.65,5.39-19.44.25a11.21,11.21,0,0,1,6.34-18.74c5-1,9.29.43,13.07,3.81Zm-41,1.94v-7.63h-7.4V226.56H242.68V240.3h-6v7.4h6.2v31.15h11.31V247.7Zm-75.06,31.18v-58.6H175.38v58.6Zm98.79-12.4c4.15,0,7.43-3,7.49-6.8s-3.36-7-7.5-7a7.16,7.16,0,0,0-7.45,6.84C277.72,263.43,281,266.48,285.23,266.48Z"/><path class="cls-1" d="M12.64,318.94H33.37c.73.86.45,1.74.45,2.53,0,11.81,0,23.63,0,35.44a2.88,2.88,0,0,0,1.74,2.92q21.13,11.49,42.23,23,29.13,16,58.23,32c14.06,7.7,28.16,15.35,42.22,23C194.84,447,211.48,456,228,465.31a7.35,7.35,0,0,0,8.19,0C249,458.08,262,451.1,274.87,444q29.11-16,58.22-32c12.48-6.84,25-13.63,37.46-20.47q25-13.7,50-27.44c2.68-1.47,5.37-2.92,8.09-4.31a2.84,2.84,0,0,0,1.74-2.92c-.07-11.74,0-23.49,0-35.23a5.59,5.59,0,0,1,.32-2.74h19.62c0,15.77,0,31.54.1,47.31,0,1.42-.9,1.71-1.78,2.18l-54.9,29.4q-80,42.84-159.88,85.72a4.4,4.4,0,0,1-4.76,0Q146.8,439.37,64.44,395.3L14.32,368.43c-.88-.47-1.79-.76-1.78-2.18C12.62,350.49,12.62,334.71,12.64,318.94Z"/><path class="cls-1" d="M450.32,181.41H430.84c-.73-.87-.45-1.74-.45-2.53,0-11.81,0-23.63,0-35.44a2.88,2.88,0,0,0-1.74-2.92q-21.13-11.49-42.23-23-29.13-16-58.23-32c-14.06-7.7-28.16-15.35-42.22-23.05C269.37,53.37,252.73,44.3,236.2,35A7.35,7.35,0,0,0,228,35c-12.82,7.23-25.77,14.21-38.67,21.29q-29.11,16-58.22,32c-12.48,6.84-25,13.63-37.46,20.47q-25,13.7-50,27.44c-2.68,1.47-5.37,2.92-8.09,4.31a2.84,2.84,0,0,0-1.74,2.92c.07,11.74,0,23.49,0,35.23,0,.82,0,1.63,0,2.74H12.64c0-15.77,0-31.54-.1-47.31,0-1.55,1.05-1.78,2-2.27Q41.76,117.2,69,102.6q80-42.89,160.07-85.81a4.41,4.41,0,0,1,4.76,0Q307.08,56.1,380.35,95.31q34.06,18.24,68.12,36.47a3.05,3.05,0,0,1,2,3.14C450.33,150.42,450.34,165.91,450.32,181.41Z"/><path class="cls-2" d="M36.35,193.77c0-5.67,0-11.22,0-16.76,0-10.56,0-21.12,0-31.68A3.24,3.24,0,0,1,38.24,142Q96,110.44,153.66,78.81q38.34-21,76.66-42a3.23,3.23,0,0,1,3.58,0q93.18,51.09,186.4,102.11c2.19,1.2,4.36,2.45,6.57,3.6a1.57,1.57,0,0,1,1,1.59c0,16.52,0,33,0,49.69Zm194.91-11.61q81.82,0,163.64,0c.82,0,2.37.65,2.33-.78s-1.56-.72-2.41-.72q-163.33,0-326.65,0c-.85,0-2.42-.6-2.43.68,0,1.57,1.64.8,2.5.81Q149.75,182.18,231.26,182.15Zm-13.48-35.61a15.87,15.87,0,0,0,.21,4.34c1,4.18,3.34,6.17,7.58,6.26,4.77.1,7.68-1.86,8.7-6a21.85,21.85,0,0,0,.17-9.09c-.76-4.22-3.3-6.37-7.61-6.47-5.4-.12-8.45,2.51-9,7.88A28.45,28.45,0,0,0,217.77,146.55Zm20.44-50.3a26.27,26.27,0,0,0-.44-4.35c-.78-4-3.21-6.2-7.27-6.37-4.8-.21-7.93,1.72-8.93,5.74a21.57,21.57,0,0,0,0,10.5,6.52,6.52,0,0,0,4.2,4.8c5.86,2.2,11-.68,12.11-6.81C238.08,98.6,238.11,97.41,238.22,96.24Zm27.12,60.52h1.84c2.08,0,4.17.07,6.25,0,3.86-.19,6.15-2.16,7-6a22.91,22.91,0,0,0,0-9.31,6.17,6.17,0,0,0-5.44-5.26c-3.16-.52-6.33-.16-9.58-.25ZM254.39,136c0,4.85,0,9.55,0,14.25,0,3.12-1.27,4.27-4.53,4.34-3.46.07-4.85-1-4.94-4.12-.11-4.09,0-8.18-.08-12.28,0-.73.27-1.53-.31-2.19a5.13,5.13,0,0,0-2.51.19c.13,5.24-.3,10.56.24,15.87.26,2.55,1.95,4.07,4.39,4.69a11.61,11.61,0,0,0,5.16.12c3.38-.67,5.13-2.46,5.39-5.91.18-2.41.09-4.85.1-7.28s0-5.08,0-7.68Zm-6.2-37.17c2.09,0,4,.13,5.8,0,2.64-.22,4.11-1.68,4.68-4.25a10.21,10.21,0,0,0,0-4.53A4.57,4.57,0,0,0,255,86.25c-3.14-.68-6.29-.24-9.49-.29v20.56a4.3,4.3,0,0,0,2.72,0Zm-56.12,53.43a22.7,22.7,0,0,1-1.9,1.43c-3.54,2.12-6.94.7-7.66-3.32a21.41,21.41,0,0,1,.14-8.69c.58-2.48,1.88-3.46,4.43-3.56a7.14,7.14,0,0,1,4.74,1.64,3.92,3.92,0,0,0,1.49-1.83c-4.14-4.38-11.85-2.69-13.48,3a21.23,21.23,0,0,0-.15,10.52c.65,3,2.38,5,5.51,5.5,3.35.52,6.29-.22,8.49-3A4.38,4.38,0,0,0,192.07,152.27Zm17.47-45.66V88.42h6.29c.08-1,.32-1.74-.18-2.37H200.28a4,4,0,0,0,.23,2.48h6.08v18.08ZM200.71,136v20.67h11.21a4.81,4.81,0,0,0,0-2.53h-8.6V136Z"/><path class="cls-2" d="M36.35,306.55H427.87v1.9c0,15.63,0,31.27,0,46.9a2.79,2.79,0,0,1-1.67,2.89q-95.62,52.28-191.15,104.7a5.34,5.34,0,0,1-6,0Q137.24,412.49,45.28,362.2c-2.56-1.4-5.09-2.85-7.67-4.19a2,2,0,0,1-1.28-2.06C36.36,339.55,36.35,323.16,36.35,306.55Zm195.14,13.2q81.51,0,163,0c.93,0,2.7.84,2.7-.8,0-1.33-1.71-.68-2.61-.68q-163.12-.05-326.24,0c-.9,0-2.57-.67-2.6.7s1.65.78,2.52.78Q149.88,319.78,231.49,319.75ZM303,365.44V344.92a4.58,4.58,0,0,0-2.8.28v15.45c-2.86-4.42-5.38-8.88-7.9-13.34-1.63-2.87-1.73-2.92-5.08-2.19v20.32a4.46,4.46,0,0,0,2.7,0V349.69A145.24,145.24,0,0,1,297.8,363C299,365.26,300.38,366.26,303,365.44Zm-127-4.71-.37.14c-2.58-4.56-5.34-9-7.67-13.72-1.21-2.44-2.82-2.61-5-2.12v20.65c1-.11,1.77.16,2.7-.29v-15.6c.92.34,1,1.09,1.36,1.64,2.25,3.91,4.46,7.83,6.68,11.76,1.63,2.88,1.62,2.88,5,2.21V344.81c-1,.13-1.79-.15-2.68.29v15.63Zm-37.61-5.85a25.48,25.48,0,0,0,.36,4.87c.92,4.22,3.37,6.24,7.75,6.3,4.7.07,7.68-2.05,8.57-6.22a22.69,22.69,0,0,0,0-9.49,6.9,6.9,0,0,0-6.22-5.81c-5.78-.84-9.41,1.81-10.29,7.56A27.46,27.46,0,0,0,138.44,354.88ZM226.93,405a23,23,0,0,0-.48-5.38c-.73-3.22-2.69-5-5.69-5.13-3.45-.17-5.82,1.37-6.7,4.69a24.41,24.41,0,0,0-.08,12.37,5.53,5.53,0,0,0,5.71,4.54A5.94,5.94,0,0,0,226,412,19.54,19.54,0,0,0,226.93,405Zm39.5-.24a50.59,50.59,0,0,0-.64-5.18c-.73-3.34-2.66-5-5.7-5.09-3.43-.14-5.61,1.23-6.57,4.55a23.11,23.11,0,0,0-.07,12.75c.79,2.89,2.72,4.22,5.67,4.3a5.91,5.91,0,0,0,6.19-4C266.24,409.88,266.15,407.49,266.44,404.76Zm-60.8-59.7c0,5-.07,10,0,14.87a5.47,5.47,0,0,0,4,5.52,11,11,0,0,0,7.34-.14,5.09,5.09,0,0,0,3.6-4.21c.65-5.36.18-10.75.3-16.24a7.7,7.7,0,0,0-2.77.15,8.78,8.78,0,0,0-.11,1c0,4.44.06,8.88,0,13.32-.07,3.07-1.4,4.14-4.72,4.15s-4.61-1-4.7-4.12c-.11-3.53,0-7.07-.1-10.61,0-1.28.28-2.6-.24-3.83A5.1,5.1,0,0,0,205.63,345.06Zm75.8,20.36c-2.16-6.38-4.35-12.72-6.42-19.09-.41-1.28-1.07-1.51-2.25-1.51s-2,.14-2.47,1.54c-1.37,4.36-2.9,8.66-4.37,13l-2.1,6.19c1.59.09,3,.7,3.62-1.45,1.11-3.61,1.25-3.57,5.07-3.57a7.74,7.74,0,0,0,1.45,0c2.15-.42,3.23.52,3.5,2.61S278.95,366.24,281.44,365.41ZM198,346.24a9.28,9.28,0,0,0-7.69-1.45c-2.6.67-4.26,2.34-4.55,4.55-.33,2.57.79,4.59,3.37,5.87,1.42.71,2.93,1.25,4.37,1.93,1.68.78,2.66,2,2.22,4s-2.13,2.31-3.88,2.34a11.1,11.1,0,0,1-5-1.5c-.46.75-1.15,1.19-1.2,2.14a9.58,9.58,0,0,0,7.44,1.77c3.38-.42,5.19-2,5.65-4.87s-.76-5-3.77-6.45c-1.37-.66-2.81-1.18-4.19-1.83s-2.39-1.73-2-3.45,1.69-2.19,3.29-2.24a10.28,10.28,0,0,1,4.7,1.15A3.79,3.79,0,0,0,198,346.24Zm143.9,0a9.58,9.58,0,0,0-7.33-1.52c-2.86.51-4.72,2.21-5.06,4.53-.4,2.71.78,4.76,3.61,6.11,1.43.69,2.93,1.25,4.36,1.94a3.23,3.23,0,0,1,2,3.92c-.42,1.86-1.91,2.2-3.52,2.27a9.48,9.48,0,0,1-5.34-1.57l-1.32,1.89a8.75,8.75,0,0,0,7.17,2.16c3.32-.34,5.47-2,6-4.59.59-3.13-.68-5.37-4-6.92-1.44-.67-2.95-1.21-4.36-1.95a2.79,2.79,0,0,1-1.58-3.29c.34-1.57,1.51-2,2.92-2.16a10.87,10.87,0,0,1,5.21,1.17Zm-105.42,67c-.18-2,.92-3.11,2.11-4.06,1.9-1.51,4-2.82,5.76-4.44,2.79-2.53,2.69-7,0-9s-8.27-1.35-10.68,1.34a3.74,3.74,0,0,0,1.63,1.6,6.13,6.13,0,0,1,4.35-1.59c1.42,0,2.87.06,3.5,1.65a3.91,3.91,0,0,1-.84,4.25,11.57,11.57,0,0,1-1.72,1.49c-1.55,1.16-3.19,2.22-4.68,3.45-2.43,2-2.91,4.69-2.45,7.66h12.75a3.08,3.08,0,0,0-.07-2.39Zm-39.53-.05a5.58,5.58,0,0,1,2.49-4.22c1.93-1.58,4.21-2.72,5.9-4.59,2.11-2.32,2.18-6.18.17-8.14-2.62-2.56-9-2-11.25,1l1.41,1.57a7.17,7.17,0,0,1,4.94-1.72c3.08.13,4.41,2.54,2.83,5.2a6.9,6.9,0,0,1-2,2.06c-1.41,1-2.84,2-4.24,3-2.83,2.06-3.66,4.86-3.06,8.22h12.67a3.23,3.23,0,0,0-.16-2.43ZM132.24,346.8c-2.8-2.54-5.9-2.79-9.11-1.89-3,.84-4.39,3.24-4.9,6.15a23.76,23.76,0,0,0,.06,8.89c.62,3,2.17,5.27,5.4,5.86,3.42.62,6.42-.12,8.7-2.94a4,4,0,0,0-1.65-1.7c-.56.43-1.08.89-1.66,1.27-3.6,2.37-7.19.93-7.9-3.29a21.65,21.65,0,0,1,.15-8.47c.59-2.57,1.93-3.55,4.55-3.66a8.89,8.89,0,0,1,4.8,1.63Zm192.55.6c-.11-1,.15-1.7-.28-2.44H309.26a3.45,3.45,0,0,0,0,2.35c2,.32,4.11-.21,6.31.34v18c1-.12,1.82.22,2.8-.35V347.4ZM254,365.61v-18.2h6.36c-.22-1,.2-1.77-.29-2.45H244.81a3.13,3.13,0,0,0,.1,2.48h6.18v18.17Zm-25-.1h11.42a2.94,2.94,0,0,0-.25-2.47h-8.38V345a4.2,4.2,0,0,0-2.78,0Z"/><path class="cls-2" d="M171.27,232.14l-6.81,6.37c-5.28-5.52-11.7-7.94-19.21-7a18.31,18.31,0,0,0-12.15,6.58c-6.44,7.71-6,20.09,1,27.29,6.35,6.61,20.25,9,30.69-1.69l6.13,7c-10,11.93-31.24,13-43.28,1.7s-11.78-31.24.27-42.69C139.5,218.69,160.93,219.82,171.27,232.14Z"/><path class="cls-2" d="M316.64,242.51a21,21,0,0,1,13.27-2.84c8.29.94,13.84,6.53,14.11,14.84.26,8,.06,16.11.06,24.3h-9.75c-.45-.47-.21-1.13-.22-1.72,0-6.32,0-12.65,0-19a25.19,25.19,0,0,0-.08-2.71c-.52-4.79-3.5-7.16-8.27-6.6-6,.71-9,4-9.08,10.09,0,6.6,0,13.19,0,19.92h-9.94V220.28h9.91Z"/><path class="cls-2" d="M195.29,240.22h8.51c.51.65.27,1.36.27,2q0,9.79,0,19.59a13.45,13.45,0,0,0,.59,4.31,7.06,7.06,0,0,0,6.16,5.16c6.75.92,11.92-3.52,11.94-10.29s0-13.73,0-20.72h9.95V279c-3.42-.53-7,.84-10.86-1.09a19.26,19.26,0,0,1-11.4,2.55c-9.18-1-14.65-6.6-15.09-16.1C195,256.4,195.29,248.41,195.29,240.22Z"/><path class="cls-2" d="M302.5,245.76l-6.9,6.47c-3.78-3.38-8.09-4.83-13.07-3.81a11.21,11.21,0,0,0-6.34,18.74c4.78,5.14,11.43,5.08,19.44-.25l6.83,6.28c-6.88,7.84-20.5,9.36-29.71,3.41a20.41,20.41,0,0,1-7.51-25.67c3.23-7.05,9-10.71,16.53-11.78A23.69,23.69,0,0,1,302.5,245.76Z"/><path class="cls-2" d="M261.49,247.7h-7.35v31.14H242.84V247.7h-6.2v-7.4h6V226.56h11.41v13.52h7.4Z"/><path class="cls-2" d="M186.44,278.88H175.38v-58.6h11.06Z"/><path class="cls-4" d="M285.23,266.48c-4.25,0-7.5-3.05-7.46-7a7.16,7.16,0,0,1,7.45-6.84c4.14,0,7.56,3.21,7.5,7S289.38,266.48,285.23,266.48Z"/><path class="cls-1" d="M231.26,182.15q-81.51,0-163,0c-.86,0-2.51.76-2.5-.81,0-1.28,1.58-.68,2.43-.68q163.33,0,326.65,0c.84,0,2.37-.62,2.41.72s-1.51.78-2.33.78Q313.08,182.18,231.26,182.15Z"/><path class="cls-3" d="M217.77,146.55a28.45,28.45,0,0,1,0-3.11c.59-5.37,3.65-8,9-7.88,4.3.1,6.85,2.25,7.61,6.47a21.85,21.85,0,0,1-.17,9.09c-1,4.18-3.93,6.15-8.7,6-4.25-.09-6.63-2.08-7.58-6.26A15.87,15.87,0,0,1,217.77,146.55Zm14-.4c-.11-1.42-.12-2.68-.31-3.91-.45-2.84-2.11-4.19-5-4.23s-4.73,1.25-5.27,4a23,23,0,0,0,0,8.91c.48,2.46,1.78,3.55,4.29,3.77,3.62.31,5.72-1.37,6.1-4.95C231.62,148.47,231.65,147.22,231.72,146.15Z"/><path class="cls-3" d="M238.22,96.24c-.11,1.17-.14,2.35-.34,3.51-1.08,6.13-6.25,9-12.11,6.81a6.52,6.52,0,0,1-4.2-4.8,21.57,21.57,0,0,1,0-10.5c1-4,4.13-5.95,8.93-5.74,4.06.18,6.49,2.33,7.27,6.37A26.27,26.27,0,0,1,238.22,96.24Zm-3.11-.1c-.1-1.23-.14-2.55-.34-3.85-.45-2.92-2-4.24-4.94-4.31s-4.84,1.27-5.38,4.1a23.39,23.39,0,0,0,0,8.7,4.16,4.16,0,0,0,2.6,3.49c4,1.53,7.37-.49,7.82-4.72C235,98.45,235,97.34,235.11,96.15Z"/><path class="cls-3" d="M265.34,156.76V135.94c3.25.1,6.42-.27,9.58.25a6.17,6.17,0,0,1,5.44,5.26,22.91,22.91,0,0,1,0,9.31c-.8,3.8-3.1,5.76-7,6-2.08.1-4.17,0-6.25,0Zm3.05-18.26v15.71c1.63,0,3.09.08,4.54,0,2.67-.18,4-1.38,4.53-4a20.28,20.28,0,0,0,.17-6.63c-.44-3.84-1.85-5-5.73-5Z"/><path class="cls-3" d="M254.39,136h2.9c0,2.6,0,5.14,0,7.68s.09,4.86-.1,7.28c-.26,3.44-2,5.24-5.39,5.91a11.61,11.61,0,0,1-5.16-.12c-2.44-.62-4.13-2.14-4.39-4.69-.55-5.31-.12-10.63-.24-15.87a5.13,5.13,0,0,1,2.51-.19c.58.66.3,1.46.31,2.19,0,4.09,0,8.19.08,12.28.09,3.13,1.48,4.2,4.94,4.12,3.27-.07,4.51-1.21,4.53-4.34C254.42,145.57,254.39,140.86,254.39,136Z"/><path class="cls-3" d="M248.19,98.84v7.68a4.3,4.3,0,0,1-2.72,0V86c3.2.05,6.35-.38,9.49.29A4.57,4.57,0,0,1,258.64,90a10.21,10.21,0,0,1,0,4.53c-.57,2.57-2,4-4.68,4.25C252.15,99,250.28,98.84,248.19,98.84Zm.1-2.35c2.52-.67,5.43,1.17,7.08-1.54a4.73,4.73,0,0,0-.2-5.35c-1.83-2.22-4.49-.76-6.89-1.16Z"/><path class="cls-3" d="M192.07,152.27a4.38,4.38,0,0,1,1.62,1.7c-2.2,2.78-5.14,3.53-8.49,3-3.13-.49-4.86-2.54-5.51-5.5a21.23,21.23,0,0,1,.15-10.52c1.63-5.69,9.34-7.37,13.48-3a3.92,3.92,0,0,1-1.49,1.83,7.14,7.14,0,0,0-4.74-1.64c-2.54.09-3.85,1.08-4.43,3.56a21.41,21.41,0,0,0-.14,8.69c.72,4,4.12,5.45,7.66,3.32A22.7,22.7,0,0,0,192.07,152.27Z"/><path class="cls-3" d="M209.54,106.61H206.6V88.53h-6.08a4,4,0,0,1-.23-2.48h15.37c.5.63.26,1.38.18,2.37h-6.29Z"/><path class="cls-3" d="M200.71,136h2.62v18.14h8.6a4.81,4.81,0,0,1,0,2.53H200.71Z"/><path class="cls-1" d="M231.49,319.75q-81.61,0-163.22,0c-.87,0-2.56.73-2.52-.78s1.7-.7,2.6-.7q163.12-.05,326.24,0c.91,0,2.62-.65,2.61.68,0,1.63-1.77.8-2.7.8Q313,319.78,231.49,319.75Z"/><path class="cls-3" d="M303,365.44c-2.64.83-4.05-.18-5.22-2.44a145.24,145.24,0,0,0-7.86-13.31v15.78a4.46,4.46,0,0,1-2.7,0V345.13c3.35-.72,3.46-.68,5.08,2.19,2.52,4.46,5,8.92,7.9,13.34V345.2a4.58,4.58,0,0,1,2.8-.28Z"/><path class="cls-3" d="M176,360.73V345.1c.89-.44,1.72-.16,2.68-.29,0,6.94,0,13.76,0,20.59-3.41.67-3.41.67-5-2.21-2.22-3.92-4.43-7.85-6.68-11.76-.32-.55-.44-1.3-1.36-1.64v15.6c-.93.44-1.75.17-2.7.29V345c2.23-.49,3.84-.32,5,2.12,2.33,4.69,5.09,9.16,7.67,13.72Z"/><path class="cls-3" d="M138.44,354.88a27.46,27.46,0,0,1,.19-2.79c.88-5.75,4.51-8.4,10.29-7.56a6.9,6.9,0,0,1,6.22,5.81,22.69,22.69,0,0,1,0,9.49c-.9,4.16-3.87,6.28-8.57,6.22-4.39-.06-6.83-2.08-7.75-6.3A25.48,25.48,0,0,1,138.44,354.88Zm14.13,0c-.13-1.48-.18-2.52-.33-3.55-.44-3-2.06-4.38-5.07-4.41s-4.77,1.33-5.29,4.21a24.19,24.19,0,0,0,0,8.7,4.12,4.12,0,0,0,2.29,3.27c3.85,1.78,7.63-.3,8.09-4.51C152.44,357.2,152.5,355.81,152.57,354.87Z"/><path class="cls-3" d="M226.94,405a19.57,19.57,0,0,1-.94,7,5.94,5.94,0,0,1-6.3,4.11,5.53,5.53,0,0,1-5.71-4.54,24.41,24.41,0,0,1,.08-12.37c.88-3.32,3.25-4.86,6.7-4.69,3,.14,5,1.91,5.69,5.13A23,23,0,0,1,226.94,405Zm-10.77.7c.16,1.45.27,3.18.58,4.88s1.25,2.95,3.18,3,3.07-1.17,3.49-2.95a24.55,24.55,0,0,0,.09-10.74,3.17,3.17,0,0,0-3.07-2.88c-1.89-.09-2.93,1-3.52,2.64C216.26,401.52,216.46,403.49,216.16,405.69Z"/><path class="cls-3" d="M266.44,404.76c-.29,2.74-.2,5.12-1.12,7.36a5.91,5.91,0,0,1-6.19,4c-3-.08-4.87-1.41-5.67-4.3a23.11,23.11,0,0,1,.07-12.75c1-3.32,3.14-4.69,6.57-4.55,3,.13,5,1.75,5.7,5.09A50.59,50.59,0,0,1,266.44,404.76Zm-3-.26a39.61,39.61,0,0,0-.39-4.13c-.33-1.8-1.13-3.34-3.32-3.37s-3.14,1.34-3.53,3.17a25,25,0,0,0,0,10.54,3.17,3.17,0,0,0,3.09,2.86c1.9.08,3-1,3.5-2.67A23.32,23.32,0,0,0,263.41,404.49Z"/><path class="cls-3" d="M205.63,345.06a5.1,5.1,0,0,1,2.54-.12c.52,1.23.22,2.55.24,3.83.06,3.54,0,7.08.1,10.61.1,3.09,1.36,4.13,4.7,4.12s4.65-1.08,4.72-4.15c.1-4.44,0-8.88,0-13.32a8.78,8.78,0,0,1,.11-1,7.7,7.7,0,0,1,2.77-.15c-.12,5.48.35,10.87-.3,16.24a5.09,5.09,0,0,1-3.6,4.21,11,11,0,0,1-7.34.14,5.47,5.47,0,0,1-4-5.52C205.56,355,205.63,350.09,205.63,345.06Z"/><path class="cls-3" d="M281.44,365.41c-2.49.83-3.67-.09-4-2.31s-1.36-3-3.5-2.61a7.74,7.74,0,0,1-1.45,0c-3.82,0-4,0-5.07,3.57-.66,2.15-2,1.54-3.62,1.45l2.1-6.19c1.47-4.33,3-8.63,4.37-13,.44-1.4,1.24-1.54,2.47-1.54s1.83.23,2.25,1.51C277.08,352.7,279.28,359,281.44,365.41ZM272.63,348,269.36,358h6.53Z"/><path class="cls-3" d="M198,346.24a3.79,3.79,0,0,1-1.31,1.94A10.28,10.28,0,0,0,192,347c-1.59.06-2.91.5-3.29,2.24s.59,2.77,2,3.45,2.82,1.17,4.19,1.83c3,1.46,4.24,3.6,3.77,6.45s-2.27,4.46-5.65,4.87a9.58,9.58,0,0,1-7.44-1.77c.05-.95.74-1.39,1.2-2.14a11.1,11.1,0,0,0,5,1.5c1.75,0,3.4-.25,3.88-2.34s-.54-3.2-2.22-4c-1.44-.67-2.95-1.22-4.37-1.93-2.58-1.28-3.7-3.3-3.37-5.87.28-2.21,2-3.88,4.55-4.55A9.28,9.28,0,0,1,198,346.24Z"/><path class="cls-3" d="M341.89,346.21l-1.31,2a10.87,10.87,0,0,0-5.21-1.17c-1.42.13-2.58.6-2.92,2.16a2.79,2.79,0,0,0,1.58,3.29c1.41.73,2.92,1.27,4.36,1.95,3.3,1.55,4.57,3.78,4,6.92-.49,2.59-2.64,4.25-6,4.59a8.75,8.75,0,0,1-7.17-2.16l1.32-1.89a9.48,9.48,0,0,0,5.34,1.57c1.61-.07,3.09-.4,3.52-2.27a3.23,3.23,0,0,0-2-3.92c-1.43-.69-2.93-1.25-4.36-1.94-2.82-1.36-4-3.4-3.61-6.11.34-2.32,2.2-4,5.06-4.53A9.58,9.58,0,0,1,341.89,346.21Z"/><path class="cls-3" d="M236.47,413.18h9.64a3.08,3.08,0,0,1,.07,2.39H233.43c-.45-3,0-5.65,2.45-7.66,1.49-1.23,3.13-2.29,4.68-3.45a11.57,11.57,0,0,0,1.72-1.49,3.91,3.91,0,0,0,.84-4.25c-.63-1.59-2.08-1.63-3.5-1.65a6.13,6.13,0,0,0-4.35,1.59,3.74,3.74,0,0,1-1.63-1.6c2.41-2.69,7.86-3.36,10.68-1.34s2.81,6.42,0,9c-1.79,1.62-3.86,2.93-5.76,4.44C237.39,410.07,236.29,411.14,236.47,413.18Z"/><path class="cls-3" d="M196.94,413.12h9.68a3.23,3.23,0,0,1,.16,2.43H194.11c-.6-3.37.23-6.16,3.06-8.22,1.4-1,2.82-2,4.24-3a6.9,6.9,0,0,0,2-2.06c1.58-2.66.24-5.07-2.83-5.2a7.17,7.17,0,0,0-4.94,1.72l-1.41-1.57c2.24-3,8.63-3.59,11.25-1,2,2,1.94,5.82-.17,8.14-1.7,1.87-4,3-5.9,4.59A5.58,5.58,0,0,0,196.94,413.12Z"/><path class="cls-3" d="M132.24,346.8l-1.54,1.84a8.89,8.89,0,0,0-4.8-1.63c-2.62.11-4,1.09-4.55,3.66a21.65,21.65,0,0,0-.15,8.47c.71,4.22,4.3,5.66,7.9,3.29.57-.38,1.1-.84,1.66-1.27a4,4,0,0,1,1.65,1.7c-2.29,2.82-5.28,3.56-8.7,2.94-3.23-.59-4.78-2.85-5.4-5.86a23.76,23.76,0,0,1-.06-8.89c.51-2.91,1.88-5.3,4.9-6.15C126.34,344,129.45,344.26,132.24,346.8Z"/><path class="cls-3" d="M324.79,347.4h-6.4v17.91c-1,.57-1.79.23-2.8.35v-18c-2.2-.55-4.28,0-6.31-.34a3.45,3.45,0,0,1,0-2.35h15.26C324.94,345.7,324.68,346.39,324.79,347.4Z"/><path class="cls-3" d="M254,365.61h-2.88V347.44H244.9a3.13,3.13,0,0,1-.1-2.48H260c.49.68.07,1.49.29,2.45H254Z"/><path class="cls-3" d="M228.94,365.5V345.07a4.2,4.2,0,0,1,2.78,0v18h8.38a2.94,2.94,0,0,1,.25,2.47Z"/><path class="cls-2" d="M231.72,146.15c-.07,1.07-.11,2.32-.24,3.56-.39,3.58-2.48,5.26-6.1,4.95-2.51-.22-3.81-1.31-4.29-3.77a23,23,0,0,1,0-8.91c.54-2.73,2.34-4,5.27-4s4.58,1.39,5,4.23C231.61,143.47,231.62,144.73,231.72,146.15Z"/><path class="cls-2" d="M235.11,96.15c-.09,1.2-.14,2.31-.26,3.41-.45,4.22-3.83,6.24-7.82,4.72a4.16,4.16,0,0,1-2.6-3.49,23.39,23.39,0,0,1,0-8.7c.54-2.83,2.35-4.17,5.38-4.1s4.49,1.39,4.94,4.31C235,93.59,235,94.92,235.11,96.15Z"/><path class="cls-2" d="M268.39,138.5h3.51c3.87,0,5.29,1.19,5.73,5a20.28,20.28,0,0,1-.17,6.63c-.57,2.64-1.86,3.84-4.53,4-1.45.1-2.91,0-4.54,0Z"/><path class="cls-2" d="M248.3,96.49v-8c2.4.4,5.06-1.06,6.89,1.16a4.73,4.73,0,0,1,.2,5.35C253.73,97.66,250.82,95.83,248.3,96.49Z"/><path class="cls-2" d="M152.57,354.87c-.07.95-.12,2.33-.28,3.71-.47,4.21-4.24,6.29-8.09,4.51a4.12,4.12,0,0,1-2.29-3.27,24.19,24.19,0,0,1,0-8.7c.52-2.88,2.29-4.24,5.29-4.21s4.63,1.42,5.07,4.41C152.39,352.35,152.43,353.39,152.57,354.87Z"/><path class="cls-2" d="M216.16,405.69c.3-2.2.09-4.17.75-6,.58-1.67,1.62-2.74,3.52-2.64a3.17,3.17,0,0,1,3.07,2.88,24.55,24.55,0,0,1-.09,10.74c-.42,1.77-1.47,3-3.49,2.95s-2.88-1.27-3.18-3S216.33,407.14,216.16,405.69Z"/><path class="cls-2" d="M263.41,404.49a23.32,23.32,0,0,1-.68,6.41c-.54,1.68-1.6,2.75-3.5,2.67a3.17,3.17,0,0,1-3.09-2.86,25,25,0,0,1,0-10.54c.39-1.83,1.39-3.21,3.53-3.17s3,1.57,3.32,3.37A39.61,39.61,0,0,1,263.41,404.49Z"/><path class="cls-2" d="M272.63,348,275.89,358h-6.53Z"/></svg>