<?xml version="1.0" encoding="utf-8"?>
<!-- Generator: Adobe Illustrator 21.1.0, SVG Export Plug-In . SVG Version: 6.00 Build 0)  -->
<svg version="1.1" id="Layer_1" xmlns="http://www.w3.org/2000/svg" xmlns:xlink="http://www.w3.org/1999/xlink" x="0px" y="0px"
	 viewBox="0 0 712 351.3" style="enable-background:new 0 0 712 351.3;" xml:space="preserve">
<style type="text/css">
	.st0{fill:#4D4D4F;}
	.st1{clip-path:url(#SVGID_2_);fill:#005740;}
</style>
<g>
	<path class="st0" d="M52.5,214.1H40.4L20.8,180h-0.3c0.4,6,0.6,10.3,0.6,12.9v21.2h-8.5V169h12.1l19.6,33.8h0.2
		c-0.3-5.9-0.5-10-0.5-12.4V169h8.6V214.1z"/>
	<path class="st0" d="M93.9,196.8c0,5.6-1.5,10-4.4,13.2c-3,3.2-7.1,4.7-12.4,4.7c-3.3,0-6.2-0.7-8.8-2.2c-2.5-1.4-4.5-3.5-5.8-6.2
		c-1.4-2.7-2-5.9-2-9.5c0-5.6,1.5-10,4.4-13.1c2.9-3.1,7.1-4.7,12.4-4.7c3.3,0,6.2,0.7,8.8,2.2c2.5,1.4,4.5,3.5,5.8,6.2
		C93.2,190,93.9,193.1,93.9,196.8z M70.1,196.8c0,3.4,0.6,6,1.7,7.7c1.1,1.7,2.9,2.6,5.5,2.6c2.5,0,4.3-0.9,5.4-2.6
		c1.1-1.7,1.6-4.3,1.6-7.8c0-3.4-0.6-6-1.7-7.7c-1.1-1.7-2.9-2.6-5.5-2.6c-2.5,0-4.3,0.8-5.4,2.5C70.6,190.8,70.1,193.3,70.1,196.8z
		"/>
	<path class="st0" d="M128.5,214.1l-2.7-12.1l-3.6-15.2H122l-6.3,27.3h-10.1l-9.8-34.5h9.4l4,15.3c0.6,2.7,1.3,6.5,1.9,11.3h0.2
		c0.1-1.6,0.4-4,1.1-7.4l0.5-2.6l4.3-16.5h10.4l4,16.5c0.1,0.5,0.2,1.1,0.4,2s0.3,1.8,0.5,2.8c0.2,1,0.3,2,0.4,2.9s0.2,1.7,0.2,2.3
		h0.2c0.2-1.5,0.5-3.5,1-6.1c0.5-2.6,0.8-4.3,1-5.2l4.1-15.3h9.2l-9.9,34.5H128.5z"/>
	<path class="st0" d="M187.5,214.1H178v-37.1h-12.2v-8h34v8h-12.2V214.1z"/>
	<path class="st0" d="M215.9,214.7c-5.6,0-9.9-1.5-13-4.6c-3.1-3.1-4.7-7.4-4.7-13c0-5.8,1.4-10.2,4.3-13.4c2.9-3.2,6.9-4.7,12-4.7
		c4.9,0,8.7,1.4,11.4,4.2s4.1,6.6,4.1,11.5v4.6h-22.2c0.1,2.7,0.9,4.8,2.4,6.3s3.6,2.3,6.2,2.3c2.1,0,4-0.2,5.9-0.6
		c1.9-0.4,3.8-1.1,5.8-2.1v7.3c-1.6,0.8-3.4,1.4-5.3,1.8C220.9,214.5,218.6,214.7,215.9,214.7z M214.6,185.6c-2,0-3.6,0.6-4.7,1.9
		c-1.1,1.3-1.8,3.1-1.9,5.4h13.2c0-2.3-0.6-4.1-1.8-5.4C218.2,186.3,216.6,185.6,214.6,185.6z"/>
	<path class="st0" d="M251.1,214.7c-10.7,0-16.1-5.9-16.1-17.7c0-5.9,1.5-10.3,4.4-13.4c2.9-3.1,7.1-4.6,12.6-4.6
		c4,0,7.6,0.8,10.7,2.3l-2.8,7.3c-1.5-0.6-2.9-1.1-4.1-1.5c-1.3-0.4-2.5-0.6-3.8-0.6c-4.9,0-7.3,3.5-7.3,10.4
		c0,6.7,2.4,10.1,7.3,10.1c1.8,0,3.5-0.2,5-0.7c1.5-0.5,3.1-1.2,4.6-2.3v8c-1.5,1-3.1,1.6-4.6,2
		C255.4,214.5,253.5,214.7,251.1,214.7z"/>
	<path class="st0" d="M301.3,214.1h-9.4v-20.1c0-5-1.8-7.5-5.6-7.5c-2.6,0-4.5,0.9-5.7,2.7c-1.2,1.8-1.8,4.7-1.8,8.7v16.2h-9.4v-48
		h9.4v9.8c0,0.8-0.1,2.5-0.2,5.4l-0.2,2.8h0.5c2.1-3.4,5.4-5.1,10-5.1c4,0,7.1,1.1,9.2,3.3c2.1,2.2,3.1,5.3,3.1,9.4V214.1z"/>
	<path class="st0" d="M308.9,184.2c0-1.7,0.5-3,1.4-3.9c0.9-0.9,2.3-1.3,4-1.3c1.7,0,3,0.5,4,1.4c0.9,0.9,1.4,2.2,1.4,3.9
		c0,1.7-0.5,3-1.4,3.9c-1,0.9-2.3,1.4-3.9,1.4c-1.7,0-3.1-0.5-4-1.4C309.4,187.2,308.9,185.9,308.9,184.2z M308.9,209.7
		c0-1.7,0.5-3,1.4-3.9c0.9-0.9,2.3-1.3,4-1.3c1.7,0,3,0.5,4,1.4c0.9,0.9,1.4,2.2,1.4,3.9c0,1.6-0.5,2.9-1.4,3.8
		c-0.9,0.9-2.3,1.4-3.9,1.4c-1.7,0-3.1-0.5-4-1.4S308.9,211.3,308.9,209.7z"/>
</g>
<g>
	<defs>
		<rect id="SVGID_1_" x="4.3" y="19.6" width="687.4" height="109.4"/>
	</defs>
	<clipPath id="SVGID_2_">
		<use xlink:href="#SVGID_1_"  style="overflow:visible;"/>
	</clipPath>
	<path class="st1" d="M681,71c-5.9,0-10.8-4.8-10.8-10.8c0-5.9,4.8-10.8,10.8-10.8c5.9,0,10.8,4.8,10.8,10.8
		C691.8,66.2,687,71,681,71 M681,50.6c-5.2,0-9.5,4.4-9.5,9.6c0,5.2,4.3,9.6,9.5,9.6c5.2,0,9.5-4.4,9.5-9.6
		C690.5,55,686.3,50.6,681,50.6 M683.9,65.9l-2.9-4.8h-2v4.8h-1.3V54.2h3.8c2,0,3.7,1.5,3.7,3.4c0,1.7-1.1,2.8-2.7,3.2l3,5H683.9z
		 M681.3,55.5H679v4.2h2.3c1.4,0,2.5-0.8,2.5-2.1S682.7,55.5,681.3,55.5"/>
	<path class="st1" d="M527,49.7c-0.4,0-0.5,0.1-3.7,0.2c-3.3,0.1-9.7,0.3-22.4,0.3h-6h-3.6h-6c-12.8,0-19.1-0.1-22.4-0.3
		c-3.2-0.1-3.4-0.2-3.7-0.2c-1.5,0-1.5,1-1.5,3.8V65c0,0.6,0,2.1,1.2,2.1c1.4,0,1.6-0.5,3.8-5.1c1.5-3.2,4.4-7.8,21.2-7.9
		c1.7,0.1,2.5,0.5,2.5,3.2v57.6c0,4.8,0,8.2-6.2,8.6c-2.6,0.2-4.3,0.4-4.3,2.1c0,1.9,1.6,1.9,2.6,1.9c2.4,0,12.4-0.5,14.5-0.5
		c4.1,0,10.5,0.5,14.6,0.5c1,0,2.6,0,2.6-1.9c0-1.9-1.7-2-4.3-2.1c-6.2-0.4-6.2-3.7-6.2-8.8V58.2c0-3.2,0.4-3.9,4-4
		c15.4,0.4,18.2,4.8,19.6,7.9c2.2,4.6,2.5,5.1,3.8,5.1c1.3,0,1.3-1.5,1.3-2.1V53.6C528.5,50.7,528.5,49.7,527,49.7"/>
	<path class="st1" d="M393,107.7c-1.1,0-1.4,0.5-3.6,4.8c-5.4,10.5-13.1,10.5-18.6,10.5c-10.4,0-13-1.4-13-10.2V91.6
		c0-3.7,1-3.7,6.9-3.7c10.2,0,13.6,0.1,16.2,9.7c0.6,2.4,1.4,3,2.3,3c1.5,0,1.5-1.7,1.5-2.5c0-1-0.4-5.3-0.4-6.2
		c0-2.7,0.9-15.5,0.9-17.2c0-1.4-0.6-1.7-1.4-1.7c-0.6,0-1.2,0.3-1.9,1.9c-2.2,6.6-3.3,9.3-17.1,9.3c-7.2,0-7.2-1-7.2-5v-18
		c0-6.2,0.5-7.1,6.7-7.1c17.6,0,20.6,4.7,22.1,7.9c2.2,4.6,2.5,5.1,3.8,5.1c1.2,0,1.2-1.5,1.2-2.1V53.6c0-2.9,0-3.8-1.5-3.8
		c-0.4,0-0.5,0.1-3.7,0.2c-3.3,0.1-9.7,0.3-22.4,0.3H358c-10.5,0-15.9-0.1-18.6-0.3c-2.7-0.1-2.9-0.2-3.1-0.2c-0.9,0-2.5,0-2.5,1.7
		c0,1.9,1.7,2,4.5,2.1c6.2,0.4,6.2,3.7,6.2,8.8v52.3c0,5.1,0,8.4-6.2,8.8c-2.6,0.2-4.5,0.4-4.5,2.1c0,1.9,1.6,1.9,2.6,1.9
		c0.9,0,1.9-0.1,3.9-0.3c2-0.1,5.1-0.2,10.2-0.2h1.5c0.8,0,6.6,0.1,13.6,0.2c7.2,0.1,15.9,0.3,22.2,0.3c3.6,0,4.8-1.4,5-3.7
		c0.4-4.6,1.7-12.5,1.7-14.1C394.5,108.9,394.1,107.7,393,107.7"/>
	<path class="st1" d="M595.3,107.7c-1.1,0-1.4,0.5-3.6,4.8c-5.4,10.5-13.1,10.5-18.6,10.5c-10.4,0-13-1.4-13-10.2V91.6
		c0-3.7,1-3.7,6.9-3.7c10.2,0,13.6,0.1,16.2,9.7c0.6,2.4,1.4,3,2.3,3c1.5,0,1.5-1.7,1.5-2.5c0-1-0.4-5.3-0.4-6.2
		c0-2.7,0.9-15.5,0.9-17.2c0-1.4-0.6-1.7-1.4-1.7c-0.6,0-1.2,0.3-1.9,1.9c-2.2,6.6-3.3,9.3-17.1,9.3c-7.2,0-7.2-1-7.2-5v-18
		c0-6.2,0.5-7.1,6.7-7.1c17.6,0,20.6,4.7,22.1,7.9c2.2,4.6,2.5,5.1,3.8,5.1c1.2,0,1.2-1.5,1.2-2.1V53.6c0-2.9,0-3.8-1.5-3.8
		c-0.4,0-0.5,0.1-3.7,0.2c-3.3,0.1-9.7,0.3-22.4,0.3h-5.9c-10.5,0-15.9-0.1-18.6-0.3c-2.7-0.1-2.9-0.2-3.1-0.2c-0.9,0-2.5,0-2.5,1.7
		c0,1.9,1.7,2,4.5,2.1c6.2,0.4,6.2,3.7,6.2,8.8v52.3c0,5.1,0,8.4-6.2,8.8c-2.6,0.2-4.5,0.4-4.5,2.1c0,1.9,1.6,1.9,2.6,1.9
		c0.9,0,1.9-0.1,3.9-0.3c2-0.1,5.1-0.2,10.2-0.2h1.5c0.8,0,6.6,0.1,13.6,0.2c7.2,0.1,15.9,0.3,22.2,0.3c3.6,0,4.8-1.4,5-3.7
		c0.4-4.6,1.7-12.5,1.7-14.1C596.8,108.9,596.4,107.7,595.3,107.7"/>
	<path class="st1" d="M432.1,79.7c-10.1-4.2-17.5-7.3-17.5-16.3c0-4.9,4-12.1,13.8-12c10.5,0.1,12.8,7.1,14.3,12
		c1.3,3.9,1.8,4.7,3,4.7c1.8,0,1.8-1,1.8-3.8c0-11.1,0-12.3-1.5-13.1c-1.8-0.9-9.2-2.9-16.6-2.9c-16,0-24.9,10.1-24.9,21.7
		c0,13.4,10,18.3,20.2,22.9c9.1,4.2,17.7,9,17.7,18.8c0,10.2-10,13.7-15.3,13.7c-9,0-17.6-7.6-20.1-18.6c-0.3-1.1-0.4-2.4-1.5-2.4
		c-1.5,0-1.6,1.8-1.6,2.3c-0.1,4.6,0.5,10,0.7,11.6c0.3,3.2,0.8,5.7,2.2,6.7c2.3,1.6,8.5,4.1,18.4,4.1c16.8,0,27.2-11.8,27.2-25.8
		C452.4,88.9,439.2,82.7,432.1,79.7"/>
	<path class="st1" d="M134.1,48.2c-24.3,0-42.6,17.4-42.6,40.2c0,24.1,20.3,40.6,42.2,40.6c21.3,0,42.1-17.2,42.1-41.7
		C175.8,65.5,157.5,48.2,134.1,48.2 M134.7,125.5c-16.7,0-28.6-19.4-28.6-39.7c0-17.9,11.2-34.1,26.5-34.1
		c19.7,0,28.5,21.1,28.5,36.1C161.1,106,152,125.5,134.7,125.5"/>
	<path class="st1" d="M83.6,19.6c-0.2,0-0.4,0.2-5.2,0.4c-4.6,0.2-14,0.4-32.6,0.4h-3.9c-17.7,0-24.2-0.2-28.9-0.4
		c-4.5-0.2-4.7-0.4-5-0.4c-1.3,0-3.6,0-3.6,2.5c0,2.5,2.7,2.7,6.4,3c9,0.5,9,5.4,9,12.7v48.3V112c0,6,0,10.1-7.6,10.5
		c-3.2,0.3-5.3,0.5-5.3,2.6c0,2.3,2,2.3,3.2,2.3c2.9,0,15.5-0.6,18.1-0.6c5,0,13.2,0.6,18.3,0.6c1.2,0,3.2,0,3.2-2.3
		c0-2.3-2.1-2.4-5.3-2.6c-7.6-0.5-7.6-4.6-7.6-10.8V86.2v-1.9c0-5.1,0-7.1,2.9-7.9c1.9-0.5,10.2-0.5,15.4-0.5c4.5,0,15.9,0,18.4,9.7
		c0.4,0.9,1.5,5.5,2,6.8c0.3,0.9,1,3,2.9,2.9c2.1-0.1,2.2-2.1,2.2-3.4l-0.7-8.4c-0.4-4.1-0.4-7.2-0.4-8.8c0-2.7,0.5-14.9,0.5-17.4
		c0-1.8-0.5-3-2.1-3.1c-1.6-0.1-2.5,1.4-2.9,2.9c-2.3,9.3-4.8,13.2-19.3,13.2c-2.7,0-13.3,0-16-0.4c-2.3-0.4-2.9-0.5-2.9-10.2V34.6
		c0-8.4,3.1-8.8,9.1-8.8c27.9,0,30.2,3.8,35.5,15.8c0.7,1.5,1.4,3.6,3.3,3.6c2,0,2-2.9,2-3.4v-19C86.6,20.5,86.4,19.6,83.6,19.6"/>
	<path class="st1" d="M248.2,123.7c-3.5-0.5-5.2-3.6-7.7-7.9l-12-21.3c-2.9-5.2-4.3-5.9-6-6.9c4.2-0.9,17-3.8,17-18.3
		c0-4.3-1.9-19.5-23.8-19.5c-3.7,0-20.2,0.5-23.6,0.5c-1.5,0-7.6-0.5-8.8-0.5c-4.1,0-4.6,0-4.6,1.7c0,1.7,1.7,1.9,4.5,2
		c6.1,0.4,6.1,3.7,6.1,8.8v52.5c0,5.2,0,8.4-6.1,8.9c-2.6,0.1-4.5,0.3-4.5,2c0,1.9,1.6,1.7,2.6,1.7c2.2,0,12.3-0.5,14.4-0.5
		c0.5,0,12.5,0.5,14.9,0.5c1,0,2.6,0.1,2.6-1.6c0-1.9-1.7-2-4.5-2.1c-6.2-0.4-6.2-3.7-6.2-8.9V92.5c0-2.1,0.3-2.8,2.4-2.8
		c5.6,0,6.2,0.5,8.9,5.8l15,28.3c1.4,2.6,1.9,3.7,4.1,3.7h16.3c0.9,0,2.1-0.2,2.1-1.5C251.4,124.6,250.8,124.1,248.2,123.7
		 M208.8,86.4c-6.2,0-6.2-0.2-6.2-4.6V61c0-4.8,0.1-7.8,5.8-7.8c15.4,0,17.1,13.3,17.1,17.7C225.5,86.4,213.2,86.4,208.8,86.4"/>
	<path class="st1" d="M325.9,123.7c-3.5-0.5-5.2-3.6-7.7-7.9l-12-21.3c-2.9-5.2-4.3-5.9-6-6.9c4.2-0.9,17-3.8,17-18.3
		c0-4.3-1.9-19.5-23.8-19.5c-3.7,0-20.2,0.5-23.6,0.5c-1.5,0-7.6-0.5-8.8-0.5c-4.1,0-4.6,0-4.6,1.7c0,1.7,1.7,1.9,4.5,2
		c6.1,0.4,6.1,3.7,6.1,8.8v52.5c0,5.2,0,8.4-6.1,8.9c-2.6,0.1-4.5,0.3-4.5,2c0,1.9,1.6,1.7,2.6,1.7c2.2,0,12.3-0.5,14.4-0.5
		c0.5,0,12.5,0.5,14.9,0.5c1,0,2.6,0.1,2.6-1.6c0-1.9-1.7-2-4.5-2.1c-6.2-0.4-6.2-3.7-6.2-8.9V92.5c0-2.1,0.3-2.8,2.4-2.8
		c5.6,0,6.2,0.5,8.9,5.8l15,28.3c1.4,2.6,1.9,3.7,4.1,3.7H327c0.9,0,2.1-0.2,2.1-1.5C329.1,124.6,328.5,124.1,325.9,123.7
		 M286.5,86.4c-6.2,0-6.2-0.2-6.2-4.6V61c0-4.8,0.1-7.8,5.8-7.8c15.4,0,17.1,13.3,17.1,17.7C303.3,86.4,291,86.4,286.5,86.4"/>
	<path class="st1" d="M673.1,123.7c-3.5-0.5-5.2-3.6-7.7-7.9l-12-21.3c-2.9-5.2-4.3-5.9-6-6.9c4.2-0.9,17-3.8,17-18.3
		c0-4.3-1.9-19.5-23.8-19.5c-3.7,0-20.2,0.5-23.6,0.5c-1.5,0-7.6-0.5-8.8-0.5c-4.1,0-4.6,0-4.6,1.7c0,1.7,1.7,1.9,4.5,2
		c6.1,0.4,6.1,3.7,6.1,8.8v52.5c0,5.2,0,8.4-6.1,8.9c-2.6,0.1-4.5,0.3-4.5,2c0,1.9,1.6,1.7,2.6,1.7c2.2,0,12.3-0.5,14.4-0.5
		c0.5,0,12.5,0.5,14.9,0.5c1,0,2.6,0.1,2.6-1.6c0-1.9-1.7-2-4.5-2.1c-6.2-0.4-6.2-3.7-6.2-8.9V92.5c0-2.1,0.3-2.8,2.4-2.8
		c5.6,0,6.2,0.5,8.9,5.8l15,28.3c1.4,2.6,1.9,3.7,4.1,3.7h16.3c0.9,0,2.1-0.2,2.1-1.5C676.3,124.6,675.7,124.1,673.1,123.7
		 M633.7,86.4c-6.2,0-6.2-0.2-6.2-4.6V61c0-4.8,0.1-7.8,5.8-7.8c15.4,0,17.1,13.3,17.1,17.7C650.5,86.4,638.2,86.4,633.7,86.4"/>
</g>
<g>
	<path class="st0" d="M27.4,265.3c0,2.6-0.9,4.6-2.8,6s-4.4,2.2-7.6,2.2c-3.5,0-6.1-0.4-8-1.3v-3.3c1.2,0.5,2.5,0.9,3.9,1.2
		c1.4,0.3,2.8,0.4,4.2,0.4c2.3,0,4-0.4,5.1-1.3c1.1-0.9,1.7-2.1,1.7-3.6c0-1-0.2-1.8-0.6-2.5c-0.4-0.6-1.1-1.2-2-1.8
		c-1-0.5-2.4-1.2-4.4-1.9c-2.7-1-4.7-2.1-5.8-3.5c-1.2-1.3-1.8-3.1-1.8-5.2c0-2.3,0.8-4.1,2.5-5.4s3.9-2,6.7-2c2.9,0,5.6,0.5,8,1.6
		l-1.1,3c-2.4-1-4.8-1.5-7-1.5c-1.8,0-3.2,0.4-4.2,1.2c-1,0.8-1.5,1.8-1.5,3.2c0,1,0.2,1.8,0.6,2.5c0.4,0.6,1,1.2,1.9,1.8
		s2.2,1.1,4.1,1.8c3.1,1.1,5.2,2.3,6.3,3.5S27.4,263.3,27.4,265.3z"/>
	<path class="st0" d="M42,273.4c-3.2,0-5.8-1-7.7-3c-1.9-2-2.8-4.7-2.8-8.2c0-3.5,0.9-6.3,2.6-8.4s4.1-3.1,7-3.1
		c2.8,0,4.9,0.9,6.5,2.7c1.6,1.8,2.4,4.2,2.4,7.2v2.1H34.9c0.1,2.6,0.7,4.5,2,5.9c1.2,1.3,3,2,5.2,2c2.4,0,4.7-0.5,7-1.5v3
		c-1.2,0.5-2.3,0.9-3.3,1.1C44.7,273.3,43.5,273.4,42,273.4z M41.1,253.5c-1.8,0-3.2,0.6-4.2,1.7s-1.7,2.7-1.9,4.8h11.5
		c0-2.1-0.5-3.7-1.4-4.8C44.1,254,42.8,253.5,41.1,253.5z"/>
	<path class="st0" d="M64.9,250.7c1,0,1.8,0.1,2.6,0.2l-0.5,3.1c-0.9-0.2-1.7-0.3-2.4-0.3c-1.8,0-3.3,0.7-4.6,2.2s-1.9,3.2-1.9,5.4
		V273h-3.3v-21.9h2.7l0.4,4.1h0.2c0.8-1.4,1.8-2.5,2.9-3.3S63.6,250.7,64.9,250.7z"/>
	<path class="st0" d="M79,273l-8.3-21.9h3.6l4.7,13c1.1,3,1.7,5,1.9,5.9H81c0.1-0.7,0.6-2.2,1.4-4.4c0.8-2.2,2.5-7.1,5.3-14.5h3.6
		L82.9,273H79z"/>
	<path class="st0" d="M94.4,245.1c0-0.8,0.2-1.3,0.6-1.7c0.4-0.4,0.8-0.5,1.4-0.5c0.5,0,1,0.2,1.4,0.5c0.4,0.4,0.6,0.9,0.6,1.7
		s-0.2,1.3-0.6,1.7c-0.4,0.4-0.8,0.6-1.4,0.6c-0.6,0-1-0.2-1.4-0.6C94.6,246.5,94.4,245.9,94.4,245.1z M98,273h-3.3v-21.9H98V273z"
		/>
	<path class="st0" d="M112.8,273.4c-3.2,0-5.6-1-7.4-2.9c-1.7-2-2.6-4.7-2.6-8.3c0-3.7,0.9-6.5,2.7-8.5s4.3-3,7.6-3
		c1.1,0,2.1,0.1,3.2,0.3c1.1,0.2,1.9,0.5,2.5,0.8l-1,2.8c-0.7-0.3-1.5-0.5-2.4-0.7c-0.9-0.2-1.6-0.3-2.3-0.3c-4.5,0-6.7,2.8-6.7,8.5
		c0,2.7,0.5,4.8,1.6,6.2s2.7,2.2,4.8,2.2c1.8,0,3.7-0.4,5.6-1.2v2.9C116.9,273.1,115,273.4,112.8,273.4z"/>
	<path class="st0" d="M131.8,273.4c-3.2,0-5.8-1-7.7-3c-1.9-2-2.8-4.7-2.8-8.2c0-3.5,0.9-6.3,2.6-8.4s4.1-3.1,7-3.1
		c2.8,0,4.9,0.9,6.5,2.7c1.6,1.8,2.4,4.2,2.4,7.2v2.1h-15.1c0.1,2.6,0.7,4.5,2,5.9c1.2,1.3,3,2,5.2,2c2.4,0,4.7-0.5,7-1.5v3
		c-1.2,0.5-2.3,0.9-3.3,1.1C134.5,273.3,133.2,273.4,131.8,273.4z M130.8,253.5c-1.8,0-3.2,0.6-4.2,1.7s-1.7,2.7-1.9,4.8h11.5
		c0-2.1-0.5-3.7-1.4-4.8C133.9,254,132.6,253.5,130.8,253.5z"/>
	<path class="st0" d="M174.4,252.3c0,3-1,5.2-3,6.8c-2,1.6-4.9,2.4-8.7,2.4h-3.4V273h-3.4v-29.3h7.6
		C170.8,243.8,174.4,246.6,174.4,252.3z M159.3,258.6h3.1c3,0,5.2-0.5,6.5-1.5s2-2.5,2-4.7c0-1.9-0.6-3.4-1.9-4.3
		c-1.3-0.9-3.2-1.4-5.9-1.4h-3.8V258.6z"/>
	<path class="st0" d="M188.6,250.7c1,0,1.8,0.1,2.6,0.2l-0.5,3.1c-0.9-0.2-1.7-0.3-2.4-0.3c-1.8,0-3.3,0.7-4.6,2.2s-1.9,3.2-1.9,5.4
		V273h-3.3v-21.9h2.7l0.4,4.1h0.2c0.8-1.4,1.8-2.5,2.9-3.3S187.2,250.7,188.6,250.7z"/>
	<path class="st0" d="M213.2,262c0,3.6-0.9,6.4-2.7,8.4c-1.8,2-4.3,3-7.5,3c-2,0-3.7-0.5-5.2-1.4c-1.5-0.9-2.7-2.2-3.5-4
		c-0.8-1.7-1.2-3.7-1.2-6c0-3.6,0.9-6.4,2.7-8.4c1.8-2,4.3-3,7.4-3c3.1,0,5.5,1,7.3,3.1C212.3,255.8,213.2,258.6,213.2,262z
		 M196.5,262c0,2.8,0.6,4.9,1.7,6.4c1.1,1.5,2.8,2.2,4.9,2.2c2.2,0,3.8-0.7,5-2.2c1.1-1.5,1.7-3.6,1.7-6.4c0-2.8-0.6-4.9-1.7-6.4
		c-1.1-1.4-2.8-2.2-5-2.2c-2.2,0-3.8,0.7-4.9,2.1C197,257.1,196.5,259.2,196.5,262z"/>
	<path class="st0" d="M222.1,273l-8.3-21.9h3.6l4.7,13c1.1,3,1.7,5,1.9,5.9h0.2c0.1-0.7,0.6-2.2,1.4-4.4c0.8-2.2,2.5-7.1,5.3-14.5
		h3.6L226,273H222.1z"/>
	<path class="st0" d="M237.4,245.1c0-0.8,0.2-1.3,0.6-1.7c0.4-0.4,0.8-0.5,1.4-0.5c0.5,0,1,0.2,1.4,0.5c0.4,0.4,0.6,0.9,0.6,1.7
		s-0.2,1.3-0.6,1.7c-0.4,0.4-0.8,0.6-1.4,0.6c-0.6,0-1-0.2-1.4-0.6C237.6,246.5,237.4,245.9,237.4,245.1z M241,273h-3.3v-21.9h3.3
		V273z"/>
	<path class="st0" d="M262.2,270.1H262c-1.5,2.2-3.8,3.3-6.9,3.3c-2.9,0-5.1-1-6.7-2.9c-1.6-2-2.4-4.8-2.4-8.4s0.8-6.4,2.4-8.4
		c1.6-2,3.8-3,6.7-3c3,0,5.3,1.1,6.8,3.2h0.3l-0.1-1.6l-0.1-1.5v-8.9h3.3V273h-2.7L262.2,270.1z M255.6,270.7c2.3,0,3.9-0.6,4.9-1.9
		s1.5-3.2,1.5-6v-0.7c0-3.1-0.5-5.3-1.6-6.7c-1-1.3-2.7-2-5-2c-1.9,0-3.4,0.8-4.5,2.3c-1,1.5-1.6,3.7-1.6,6.4c0,2.8,0.5,4.9,1.5,6.3
		C252.1,269.9,253.6,270.7,255.6,270.7z"/>
	<path class="st0" d="M281,273.4c-3.2,0-5.8-1-7.7-3c-1.9-2-2.8-4.7-2.8-8.2c0-3.5,0.9-6.3,2.6-8.4s4.1-3.1,7-3.1
		c2.8,0,4.9,0.9,6.5,2.7c1.6,1.8,2.4,4.2,2.4,7.2v2.1h-15.1c0.1,2.6,0.7,4.5,2,5.9c1.2,1.3,3,2,5.2,2c2.4,0,4.7-0.5,7-1.5v3
		c-1.2,0.5-2.3,0.9-3.3,1.1C283.7,273.3,282.5,273.4,281,273.4z M280.1,253.5c-1.8,0-3.2,0.6-4.2,1.7s-1.7,2.7-1.9,4.8h11.5
		c0-2.1-0.5-3.7-1.4-4.8C283.2,254,281.8,253.5,280.1,253.5z"/>
	<path class="st0" d="M304,250.7c1,0,1.8,0.1,2.6,0.2l-0.5,3.1c-0.9-0.2-1.7-0.3-2.4-0.3c-1.8,0-3.3,0.7-4.6,2.2s-1.9,3.2-1.9,5.4
		V273h-3.3v-21.9h2.7l0.4,4.1h0.2c0.8-1.4,1.8-2.5,2.9-3.3S302.6,250.7,304,250.7z"/>
	<path class="st0" d="M325.2,267.1c0,2-0.8,3.6-2.3,4.7c-1.5,1.1-3.7,1.7-6.4,1.7c-2.9,0-5.2-0.5-6.8-1.4V269c1.1,0.5,2.2,1,3.4,1.3
		c1.2,0.3,2.4,0.5,3.5,0.5c1.7,0,3.1-0.3,4-0.8s1.4-1.4,1.4-2.5c0-0.9-0.4-1.6-1.1-2.2c-0.7-0.6-2.2-1.3-4.3-2.2
		c-2-0.8-3.5-1.4-4.4-2s-1.5-1.2-1.9-1.9c-0.4-0.7-0.6-1.6-0.6-2.6c0-1.8,0.7-3.2,2.2-4.2c1.5-1,3.5-1.6,6-1.6
		c2.4,0,4.7,0.5,6.9,1.4l-1.2,2.7c-2.2-0.9-4.2-1.4-6-1.4c-1.6,0-2.8,0.2-3.6,0.7c-0.8,0.5-1.2,1.2-1.2,2c0,0.6,0.1,1.1,0.5,1.5
		c0.3,0.4,0.8,0.8,1.5,1.2c0.7,0.4,1.9,0.9,3.8,1.6c2.6,0.9,4.4,1.9,5.3,2.9C324.7,264.4,325.2,265.6,325.2,267.1z"/>
	<path class="st0" d="M344.3,273h-3.4v-29.3h16.3v3h-12.9v10.7h12.1v3h-12.1V273z"/>
	<path class="st0" d="M379.4,262c0,3.6-0.9,6.4-2.7,8.4c-1.8,2-4.3,3-7.5,3c-2,0-3.7-0.5-5.2-1.4c-1.5-0.9-2.7-2.2-3.5-4
		c-0.8-1.7-1.2-3.7-1.2-6c0-3.6,0.9-6.4,2.7-8.4c1.8-2,4.3-3,7.4-3c3.1,0,5.5,1,7.3,3.1C378.5,255.8,379.4,258.6,379.4,262z
		 M362.7,262c0,2.8,0.6,4.9,1.7,6.4c1.1,1.5,2.8,2.2,4.9,2.2c2.2,0,3.8-0.7,5-2.2c1.1-1.5,1.7-3.6,1.7-6.4c0-2.8-0.6-4.9-1.7-6.4
		c-1.1-1.4-2.8-2.2-5-2.2c-2.2,0-3.8,0.7-4.9,2.1C363.3,257.1,362.7,259.2,362.7,262z"/>
	<path class="st0" d="M394.4,250.7c1,0,1.8,0.1,2.6,0.2l-0.5,3.1c-0.9-0.2-1.7-0.3-2.4-0.3c-1.8,0-3.3,0.7-4.6,2.2s-1.9,3.2-1.9,5.4
		V273h-3.3v-21.9h2.7l0.4,4.1h0.2c0.8-1.4,1.8-2.5,2.9-3.3S393.1,250.7,394.4,250.7z"/>
	<path class="st0" d="M23.4,295.6c-3.2,0-5.8,1.1-7.6,3.2s-2.8,5.1-2.8,8.8c0,3.8,0.9,6.8,2.7,8.9c1.8,2.1,4.4,3.1,7.7,3.1
		c2,0,4.4-0.4,7-1.1v3c-2,0.8-4.5,1.1-7.5,1.1c-4.3,0-7.6-1.3-10-3.9c-2.3-2.6-3.5-6.3-3.5-11.2c0-3,0.6-5.7,1.7-7.9s2.8-4,4.9-5.2
		c2.1-1.2,4.6-1.8,7.5-1.8c3.1,0,5.8,0.6,8.1,1.7l-1.4,2.9C27.8,296.1,25.6,295.6,23.4,295.6z"/>
	<path class="st0" d="M38,300.3v14.2c0,1.8,0.4,3.1,1.2,4c0.8,0.9,2.1,1.3,3.8,1.3c2.3,0,4-0.6,5-1.9c1.1-1.3,1.6-3.3,1.6-6.1v-11.5
		H53v21.9h-2.7l-0.5-2.9h-0.2c-0.7,1.1-1.6,1.9-2.8,2.5c-1.2,0.6-2.6,0.9-4.1,0.9c-2.7,0-4.7-0.6-6-1.9c-1.3-1.3-2-3.3-2-6.1v-14.4
		H38z"/>
	<path class="st0" d="M73.5,316.3c0,2-0.8,3.6-2.3,4.7c-1.5,1.1-3.7,1.7-6.4,1.7c-2.9,0-5.2-0.5-6.8-1.4v-3.1c1.1,0.5,2.2,1,3.4,1.3
		c1.2,0.3,2.4,0.5,3.5,0.5c1.7,0,3.1-0.3,4-0.8s1.4-1.4,1.4-2.5c0-0.9-0.4-1.6-1.1-2.2c-0.7-0.6-2.2-1.3-4.3-2.2
		c-2-0.8-3.5-1.4-4.4-2s-1.5-1.2-1.9-1.9c-0.4-0.7-0.6-1.6-0.6-2.6c0-1.8,0.7-3.2,2.2-4.2c1.5-1,3.5-1.6,6-1.6
		c2.4,0,4.7,0.5,6.9,1.4l-1.2,2.7c-2.2-0.9-4.2-1.4-6-1.4c-1.6,0-2.8,0.2-3.6,0.7c-0.8,0.5-1.2,1.2-1.2,2c0,0.6,0.1,1.1,0.5,1.5
		c0.3,0.4,0.8,0.8,1.5,1.2c0.7,0.4,1.9,0.9,3.8,1.6c2.6,0.9,4.4,1.9,5.3,2.9C73,313.6,73.5,314.8,73.5,316.3z"/>
	<path class="st0" d="M86.2,319.9c0.6,0,1.2,0,1.7-0.1c0.5-0.1,1-0.2,1.3-0.3v2.5c-0.4,0.2-0.9,0.3-1.6,0.4
		c-0.7,0.1-1.3,0.2-1.9,0.2c-4.2,0-6.4-2.2-6.4-6.7v-13.1h-3.1v-1.6l3.1-1.4l1.4-4.7h1.9v5.1h6.4v2.6h-6.4v12.9c0,1.3,0.3,2.3,0.9,3
		C84.3,319.6,85.2,319.9,86.2,319.9z"/>
	<path class="st0" d="M111.2,311.3c0,3.6-0.9,6.4-2.7,8.4c-1.8,2-4.3,3-7.5,3c-2,0-3.7-0.5-5.2-1.4c-1.5-0.9-2.7-2.2-3.5-4
		c-0.8-1.7-1.2-3.7-1.2-6c0-3.6,0.9-6.4,2.7-8.4c1.8-2,4.3-3,7.4-3c3.1,0,5.5,1,7.3,3.1C110.3,305,111.2,307.8,111.2,311.3z
		 M94.5,311.3c0,2.8,0.6,4.9,1.7,6.4c1.1,1.5,2.8,2.2,4.9,2.2c2.2,0,3.8-0.7,5-2.2c1.1-1.5,1.7-3.6,1.7-6.4c0-2.8-0.6-4.9-1.7-6.4
		c-1.1-1.4-2.8-2.2-5-2.2c-2.2,0-3.8,0.7-4.9,2.1C95,306.3,94.5,308.4,94.5,311.3z"/>
	<path class="st0" d="M144.1,322.3V308c0-1.7-0.4-3.1-1.1-3.9c-0.7-0.9-1.9-1.3-3.5-1.3c-2.1,0-3.6,0.6-4.6,1.8
		c-1,1.2-1.5,3-1.5,5.5v12.3h-3.3V308c0-1.7-0.4-3.1-1.1-3.9c-0.7-0.9-1.9-1.3-3.5-1.3c-2.1,0-3.6,0.6-4.6,1.9
		c-1,1.2-1.5,3.3-1.5,6.1v11.5h-3.3v-21.9h2.7l0.5,3h0.2c0.6-1.1,1.5-1.9,2.7-2.5c1.1-0.6,2.4-0.9,3.8-0.9c3.4,0,5.7,1.2,6.7,3.7
		h0.2c0.7-1.1,1.6-2.1,2.8-2.7c1.2-0.7,2.7-1,4.2-1c2.5,0,4.3,0.6,5.6,1.9c1.2,1.3,1.9,3.3,1.9,6.1v14.3H144.1z"/>
	<path class="st0" d="M181.9,314.5c0,2.6-0.9,4.6-2.8,6s-4.4,2.2-7.6,2.2c-3.5,0-6.1-0.4-8-1.3V318c1.2,0.5,2.5,0.9,3.9,1.2
		c1.4,0.3,2.8,0.4,4.2,0.4c2.3,0,4-0.4,5.1-1.3c1.1-0.9,1.7-2.1,1.7-3.6c0-1-0.2-1.8-0.6-2.5c-0.4-0.6-1.1-1.2-2-1.8
		c-1-0.5-2.4-1.2-4.4-1.9c-2.7-1-4.7-2.1-5.8-3.5c-1.2-1.3-1.8-3.1-1.8-5.2c0-2.3,0.8-4.1,2.5-5.4s3.9-2,6.7-2c2.9,0,5.6,0.5,8,1.6
		l-1.1,3c-2.4-1-4.8-1.5-7-1.5c-1.8,0-3.2,0.4-4.2,1.2c-1,0.8-1.5,1.8-1.5,3.2c0,1,0.2,1.8,0.6,2.5c0.4,0.6,1,1.2,1.9,1.8
		s2.2,1.1,4.1,1.8c3.1,1.1,5.2,2.3,6.3,3.5S181.9,312.5,181.9,314.5z"/>
	<path class="st0" d="M206.2,311.3c0,3.6-0.9,6.4-2.7,8.4c-1.8,2-4.3,3-7.5,3c-2,0-3.7-0.5-5.2-1.4c-1.5-0.9-2.7-2.2-3.5-4
		c-0.8-1.7-1.2-3.7-1.2-6c0-3.6,0.9-6.4,2.7-8.4c1.8-2,4.3-3,7.4-3c3.1,0,5.5,1,7.3,3.1C205.3,305,206.2,307.8,206.2,311.3z
		 M189.4,311.3c0,2.8,0.6,4.9,1.7,6.4c1.1,1.5,2.8,2.2,4.9,2.2c2.2,0,3.8-0.7,5-2.2c1.1-1.5,1.7-3.6,1.7-6.4c0-2.8-0.6-4.9-1.7-6.4
		c-1.1-1.4-2.8-2.2-5-2.2c-2.2,0-3.8,0.7-4.9,2.1C190,306.3,189.4,308.4,189.4,311.3z"/>
	<path class="st0" d="M221.1,302.9h-5.6v19.4h-3.3v-19.4h-3.9v-1.5l3.9-1.2V299c0-5.4,2.4-8.1,7.1-8.1c1.2,0,2.5,0.2,4.1,0.7
		l-0.9,2.7c-1.3-0.4-2.4-0.6-3.3-0.6c-1.3,0-2.2,0.4-2.8,1.3c-0.6,0.8-0.9,2.2-0.9,4v1.4h5.6V302.9z"/>
	<path class="st0" d="M233.6,319.9c0.6,0,1.2,0,1.7-0.1c0.5-0.1,1-0.2,1.3-0.3v2.5c-0.4,0.2-0.9,0.3-1.6,0.4
		c-0.7,0.1-1.3,0.2-1.9,0.2c-4.2,0-6.4-2.2-6.4-6.7v-13.1h-3.1v-1.6l3.1-1.4l1.4-4.7h1.9v5.1h6.4v2.6h-6.4v12.9c0,1.3,0.3,2.3,0.9,3
		C231.7,319.6,232.5,319.9,233.6,319.9z"/>
	<path class="st0" d="M260.2,322.3l-4-12.9c-0.3-0.8-0.7-2.6-1.4-5.4h-0.2c-0.5,2.3-1,4.1-1.4,5.4l-4.1,12.8h-3.8l-6-21.9h3.5
		c1.4,5.5,2.5,9.7,3.2,12.6c0.7,2.9,1.2,4.8,1.3,5.8h0.2c0.1-0.8,0.4-1.7,0.7-3c0.3-1.2,0.6-2.2,0.9-2.9l4-12.6h3.6l3.9,12.6
		c0.7,2.3,1.3,4.2,1.5,5.8h0.2c0.1-0.5,0.2-1.2,0.4-2.2c0.2-1,1.6-6.4,4.2-16.2h3.4l-6.1,21.9H260.2z"/>
	<path class="st0" d="M287,322.3l-0.7-3.1h-0.2c-1.1,1.4-2.2,2.3-3.3,2.8c-1.1,0.5-2.4,0.7-4.1,0.7c-2.2,0-3.9-0.6-5.1-1.7
		c-1.2-1.1-1.9-2.7-1.9-4.8c0-4.4,3.5-6.8,10.6-7l3.7-0.1v-1.4c0-1.7-0.4-3-1.1-3.8c-0.7-0.8-1.9-1.2-3.6-1.2
		c-1.8,0-3.9,0.6-6.2,1.7l-1-2.5c1.1-0.6,2.3-1,3.6-1.4c1.3-0.3,2.6-0.5,3.9-0.5c2.6,0,4.6,0.6,5.8,1.7s1.9,3,1.9,5.6v15H287z
		 M279.5,319.9c2.1,0,3.7-0.6,4.9-1.7c1.2-1.1,1.8-2.7,1.8-4.8v-2l-3.3,0.1c-2.6,0.1-4.5,0.5-5.7,1.2c-1.2,0.7-1.8,1.9-1.8,3.4
		c0,1.2,0.4,2.1,1.1,2.7C277.2,319.6,278.2,319.9,279.5,319.9z"/>
	<path class="st0" d="M305.7,299.9c1,0,1.8,0.1,2.6,0.2l-0.5,3.1c-0.9-0.2-1.7-0.3-2.4-0.3c-1.8,0-3.3,0.7-4.6,2.2s-1.9,3.2-1.9,5.4
		v11.8h-3.3v-21.9h2.7l0.4,4.1h0.2c0.8-1.4,1.8-2.5,2.9-3.3S304.3,299.9,305.7,299.9z"/>
	<path class="st0" d="M320.9,322.7c-3.2,0-5.8-1-7.7-3c-1.9-2-2.8-4.7-2.8-8.2c0-3.5,0.9-6.3,2.6-8.4s4.1-3.1,7-3.1
		c2.8,0,4.9,0.9,6.5,2.7c1.6,1.8,2.4,4.2,2.4,7.2v2.1h-15.1c0.1,2.6,0.7,4.5,2,5.9c1.2,1.3,3,2,5.2,2c2.4,0,4.7-0.5,7-1.5v3
		c-1.2,0.5-2.3,0.9-3.3,1.1C323.6,322.5,322.4,322.7,320.9,322.7z M320,302.7c-1.8,0-3.2,0.6-4.2,1.7s-1.7,2.7-1.9,4.8h11.5
		c0-2.1-0.5-3.7-1.4-4.8C323,303.3,321.7,302.7,320,302.7z"/>
	<path class="st0" d="M369.1,307.3c0,4.8-1.3,8.5-3.9,11.1c-2.6,2.6-6.4,3.8-11.3,3.8h-8.1V293h9c4.6,0,8.1,1.3,10.6,3.8
		C367.9,299.3,369.1,302.8,369.1,307.3z M365.5,307.5c0-3.8-1-6.7-2.9-8.6c-1.9-1.9-4.8-2.9-8.5-2.9h-4.9v23.4h4.1
		c4.1,0,7.1-1,9.2-3C364.5,314.3,365.5,311.4,365.5,307.5z"/>
	<path class="st0" d="M384,322.7c-3.2,0-5.8-1-7.7-3c-1.9-2-2.8-4.7-2.8-8.2c0-3.5,0.9-6.3,2.6-8.4s4.1-3.1,7-3.1
		c2.8,0,4.9,0.9,6.5,2.7c1.6,1.8,2.4,4.2,2.4,7.2v2.1h-15.1c0.1,2.6,0.7,4.5,2,5.9c1.2,1.3,3,2,5.2,2c2.4,0,4.7-0.5,7-1.5v3
		c-1.2,0.5-2.3,0.9-3.3,1.1C386.7,322.5,385.5,322.7,384,322.7z M383.1,302.7c-1.8,0-3.2,0.6-4.2,1.7s-1.7,2.7-1.9,4.8h11.5
		c0-2.1-0.5-3.7-1.4-4.8C386.2,303.3,384.8,302.7,383.1,302.7z"/>
	<path class="st0" d="M402.2,322.3l-8.3-21.9h3.6l4.7,13c1.1,3,1.7,5,1.9,5.9h0.2c0.1-0.7,0.6-2.2,1.4-4.4c0.8-2.2,2.5-7.1,5.3-14.5
		h3.6l-8.3,21.9H402.2z"/>
	<path class="st0" d="M426.6,322.7c-3.2,0-5.8-1-7.7-3c-1.9-2-2.8-4.7-2.8-8.2c0-3.5,0.9-6.3,2.6-8.4s4.1-3.1,7-3.1
		c2.8,0,4.9,0.9,6.5,2.7c1.6,1.8,2.4,4.2,2.4,7.2v2.1h-15.1c0.1,2.6,0.7,4.5,2,5.9c1.2,1.3,3,2,5.2,2c2.4,0,4.7-0.5,7-1.5v3
		c-1.2,0.5-2.3,0.9-3.3,1.1C429.3,322.5,428,322.7,426.6,322.7z M425.7,302.7c-1.8,0-3.2,0.6-4.2,1.7s-1.7,2.7-1.9,4.8h11.5
		c0-2.1-0.5-3.7-1.4-4.8C428.7,303.3,427.4,302.7,425.7,302.7z"/>
	<path class="st0" d="M443.1,322.3h-3.3v-31.2h3.3V322.3z"/>
	<path class="st0" d="M468.5,311.3c0,3.6-0.9,6.4-2.7,8.4c-1.8,2-4.3,3-7.5,3c-2,0-3.7-0.5-5.2-1.4c-1.5-0.9-2.7-2.2-3.5-4
		c-0.8-1.7-1.2-3.7-1.2-6c0-3.6,0.9-6.4,2.7-8.4c1.8-2,4.3-3,7.4-3c3.1,0,5.5,1,7.3,3.1C467.6,305,468.5,307.8,468.5,311.3z
		 M451.8,311.3c0,2.8,0.6,4.9,1.7,6.4c1.1,1.5,2.8,2.2,4.9,2.2c2.2,0,3.8-0.7,5-2.2c1.1-1.5,1.7-3.6,1.7-6.4c0-2.8-0.6-4.9-1.7-6.4
		c-1.1-1.4-2.8-2.2-5-2.2c-2.2,0-3.8,0.7-4.9,2.1C452.3,306.3,451.8,308.4,451.8,311.3z"/>
	<path class="st0" d="M484,322.7c-1.4,0-2.7-0.3-3.9-0.8c-1.2-0.5-2.2-1.3-3-2.4h-0.2c0.2,1.3,0.2,2.5,0.2,3.6v9h-3.3v-31.8h2.7
		l0.5,3h0.2c0.9-1.2,1.8-2.1,3-2.6c1.1-0.5,2.4-0.8,3.9-0.8c2.9,0,5.2,1,6.7,3s2.4,4.8,2.4,8.4c0,3.6-0.8,6.4-2.4,8.4
		C489,321.7,486.8,322.7,484,322.7z M483.5,302.7c-2.2,0-3.9,0.6-4.9,1.9c-1,1.2-1.5,3.2-1.5,5.9v0.7c0,3.1,0.5,5.3,1.5,6.6
		c1,1.3,2.7,2,4.9,2c1.9,0,3.4-0.8,4.5-2.3c1.1-1.5,1.6-3.7,1.6-6.3c0-2.7-0.5-4.8-1.6-6.3C486.9,303.5,485.4,302.7,483.5,302.7z"/>
	<path class="st0" d="M526.3,322.3V308c0-1.7-0.4-3.1-1.1-3.9c-0.7-0.9-1.9-1.3-3.5-1.3c-2.1,0-3.6,0.6-4.6,1.8
		c-1,1.2-1.5,3-1.5,5.5v12.3h-3.3V308c0-1.7-0.4-3.1-1.1-3.9c-0.7-0.9-1.9-1.3-3.5-1.3c-2.1,0-3.6,0.6-4.6,1.9
		c-1,1.2-1.5,3.3-1.5,6.1v11.5h-3.3v-21.9h2.7l0.5,3h0.2c0.6-1.1,1.5-1.9,2.7-2.5c1.1-0.6,2.4-0.9,3.8-0.9c3.4,0,5.7,1.2,6.7,3.7
		h0.2c0.7-1.1,1.6-2.1,2.8-2.7c1.2-0.7,2.7-1,4.2-1c2.5,0,4.3,0.6,5.6,1.9c1.2,1.3,1.9,3.3,1.9,6.1v14.3H526.3z"/>
	<path class="st0" d="M545.2,322.7c-3.2,0-5.8-1-7.7-3c-1.9-2-2.8-4.7-2.8-8.2c0-3.5,0.9-6.3,2.6-8.4s4.1-3.1,7-3.1
		c2.8,0,4.9,0.9,6.5,2.7c1.6,1.8,2.4,4.2,2.4,7.2v2.1h-15.1c0.1,2.6,0.7,4.5,2,5.9c1.2,1.3,3,2,5.2,2c2.4,0,4.7-0.5,7-1.5v3
		c-1.2,0.5-2.3,0.9-3.3,1.1C547.9,322.5,546.7,322.7,545.2,322.7z M544.3,302.7c-1.8,0-3.2,0.6-4.2,1.7s-1.7,2.7-1.9,4.8h11.5
		c0-2.1-0.5-3.7-1.4-4.8C547.3,303.3,546,302.7,544.3,302.7z"/>
	<path class="st0" d="M573.4,322.3v-14.2c0-1.8-0.4-3.1-1.2-4c-0.8-0.9-2.1-1.3-3.8-1.3c-2.3,0-4,0.6-5,1.9
		c-1.1,1.2-1.6,3.3-1.6,6.1v11.5h-3.3v-21.9h2.7l0.5,3h0.2c0.7-1.1,1.6-1.9,2.9-2.5c1.2-0.6,2.6-0.9,4.1-0.9c2.6,0,4.6,0.6,6,1.9
		s2,3.3,2,6.1v14.3H573.4z"/>
	<path class="st0" d="M590.1,319.9c0.6,0,1.2,0,1.7-0.1c0.5-0.1,1-0.2,1.3-0.3v2.5c-0.4,0.2-0.9,0.3-1.6,0.4
		c-0.7,0.1-1.3,0.2-1.9,0.2c-4.2,0-6.4-2.2-6.4-6.7v-13.1h-3.1v-1.6l3.1-1.4l1.4-4.7h1.9v5.1h6.4v2.6h-6.4v12.9c0,1.3,0.3,2.3,0.9,3
		C588.1,319.6,589,319.9,590.1,319.9z"/>
	<path class="st0" d="M601.3,317.5l0.3,0.5c-0.3,1.3-0.8,2.9-1.5,4.7c-0.7,1.8-1.3,3.4-2,4.9h-2.5c0.4-1.4,0.8-3.1,1.2-5.1
		s0.7-3.7,0.9-4.9H601.3z"/>
	<path class="st0" d="M636.3,322.3H617v-2.9l7.7-7.7c2.3-2.4,3.9-4.1,4.6-5.1c0.7-1,1.3-2,1.7-3c0.4-1,0.6-2,0.6-3.1
		c0-1.6-0.5-2.8-1.4-3.7c-0.9-0.9-2.3-1.4-3.9-1.4c-1.2,0-2.4,0.2-3.5,0.6c-1.1,0.4-2.3,1.1-3.6,2.2l-1.8-2.3
		c2.7-2.2,5.6-3.4,8.8-3.4c2.8,0,4.9,0.7,6.5,2.1c1.6,1.4,2.3,3.3,2.3,5.7c0,1.9-0.5,3.7-1.6,5.5s-3,4.1-5.8,6.9l-6.4,6.3v0.2h15.1
		V322.3z"/>
	<path class="st0" d="M659,307.6c0,5.1-0.8,8.8-2.4,11.3c-1.6,2.5-4,3.7-7.3,3.7c-3.2,0-5.5-1.3-7.2-3.8c-1.6-2.6-2.5-6.3-2.5-11.2
		c0-5.1,0.8-8.9,2.4-11.4c1.6-2.5,4-3.7,7.3-3.7c3.2,0,5.6,1.3,7.2,3.9C658.2,299,659,302.7,659,307.6z M643,307.6
		c0,4.3,0.5,7.4,1.5,9.3c1,1.9,2.6,2.9,4.8,2.9c2.2,0,3.8-1,4.8-3c1-2,1.5-5.1,1.5-9.3c0-4.2-0.5-7.3-1.5-9.2c-1-2-2.6-2.9-4.8-2.9
		c-2.2,0-3.8,1-4.8,2.9C643.5,300.2,643,303.3,643,307.6z"/>
	<path class="st0" d="M674,322.3h-3.2v-20.9c0-1.7,0.1-3.4,0.2-4.9c-0.3,0.3-0.6,0.6-0.9,0.9c-0.3,0.3-1.9,1.6-4.8,3.9l-1.8-2.3
		l7.8-6h2.8V322.3z"/>
	<path class="st0" d="M691.8,292.6c2.7,0,4.8,0.6,6.3,1.9c1.6,1.2,2.3,3,2.3,5.1c0,1.4-0.4,2.8-1.3,3.9c-0.9,1.2-2.3,2.3-4.3,3.2
		c2.4,1.1,4.1,2.3,5.1,3.6c1,1.2,1.5,2.7,1.5,4.3c0,2.4-0.8,4.4-2.5,5.8c-1.7,1.4-4,2.2-7,2.2c-3.1,0-5.5-0.7-7.2-2.1
		c-1.7-1.4-2.5-3.3-2.5-5.8c0-3.4,2-6,6.1-7.8c-1.8-1-3.2-2.2-4-3.4s-1.2-2.6-1.2-4.1c0-2.1,0.8-3.8,2.4-5.1
		C687,293.2,689.1,292.6,691.8,292.6z M685.4,314.9c0,1.6,0.6,2.9,1.7,3.7c1.1,0.9,2.7,1.3,4.7,1.3c2,0,3.5-0.5,4.6-1.4
		c1.1-0.9,1.7-2.2,1.7-3.8c0-1.3-0.5-2.4-1.6-3.5c-1-1-2.9-2-5.4-2.9c-2,0.9-3.4,1.8-4.3,2.8C685.9,312.2,685.4,313.4,685.4,314.9z
		 M691.7,295.3c-1.7,0-3,0.4-3.9,1.2c-0.9,0.8-1.4,1.9-1.4,3.2c0,1.2,0.4,2.3,1.2,3.2c0.8,0.9,2.2,1.8,4.4,2.6
		c1.9-0.8,3.3-1.7,4.1-2.6c0.8-0.9,1.2-2,1.2-3.2c0-1.3-0.5-2.4-1.5-3.2S693.4,295.3,691.7,295.3z"/>
</g>
</svg>
