<?xml version="1.0" encoding="utf-8"?>
<!-- Generator: Adobe Illustrator 22.0.1, SVG Export Plug-In . SVG Version: 6.00 Build 0)  -->
<svg version="1.1" id="Layer_1" xmlns="http://www.w3.org/2000/svg" xmlns:xlink="http://www.w3.org/1999/xlink" x="0px" y="0px"
	 viewBox="0 0 712.155 170" enable-background="new 0 0 712.155 170" xml:space="preserve">
<g>
	<g>
		<path fill="#737373" d="M260.667,62.597l-4.217,11.729h-0.395c-0.659-2.636-1.977-6.721-4.085-11.597L229.698,6.853h-21.876
			v89.349h14.496V40.984c0-3.426,0-7.38-0.132-12.256c-0.132-2.372-0.395-4.217-0.527-5.667h0.395
			c0.659,3.426,1.45,6.062,2.109,7.643l26.752,65.233h10.147l26.62-65.76c0.527-1.45,1.186-4.481,1.713-6.984h0.395
			c-0.395,6.589-0.527,12.519-0.659,16.078v56.667h15.419V6.589h-21.085L260.667,62.597z M319.046,31.76h15.023v64.047h-15.023
			V31.76z M326.69,4.744c-2.504,0-4.612,0.922-6.326,2.504c-1.713,1.581-2.636,3.69-2.636,6.194c0,2.372,0.922,4.481,2.636,6.062
			c1.713,1.581,3.822,2.372,6.326,2.372s4.744-0.922,6.326-2.372c1.713-1.581,2.636-3.69,2.636-6.062s-0.922-4.481-2.636-6.194
			C331.566,5.667,329.326,4.744,326.69,4.744 M387.442,31.233c-2.767-0.527-5.667-0.922-8.434-0.922
			c-6.853,0-13.047,1.45-18.318,4.481c-5.14,3.031-9.357,7.116-11.992,12.388c-2.767,5.271-4.217,11.465-4.217,18.45
			c0,6.062,1.45,11.597,4.085,16.473s6.326,8.829,11.333,11.465c4.744,2.636,10.279,4.085,16.473,4.085
			c7.116,0,13.31-1.45,18.186-4.217l0.132-0.132V79.465l-0.527,0.527c-2.24,1.581-4.744,3.031-7.248,3.822
			c-2.636,0.922-5.14,1.45-7.116,1.45c-6.062,0-10.806-1.713-14.101-5.535c-3.426-3.69-5.14-8.829-5.14-15.155
			c0-6.589,1.713-11.729,5.271-15.55c3.558-3.822,8.302-5.798,14.101-5.798c4.876,0,9.884,1.581,14.364,4.876l0.527,0.527V33.605
			l-0.132-0.132C392.581,32.682,390.473,31.76,387.442,31.233 M436.992,30.705c-3.69,0-7.116,1.186-10.147,3.558
			c-2.504,2.109-4.217,5.14-5.798,8.698h-0.132V31.76h-15.023v64.047h15.023V63.124c0-5.535,1.186-10.147,3.69-13.574
			c2.504-3.426,5.798-5.14,9.752-5.14c1.45,0,2.767,0.395,4.481,0.527c1.581,0.527,2.767,0.922,3.558,1.45l0.527,0.527V31.891
			l-0.395-0.132C441.605,31.101,439.496,30.705,436.992,30.705 M477.845,30.442c-10.543,0-18.977,3.163-24.907,9.225
			c-6.062,6.062-8.961,14.628-8.961,25.171c0,9.884,3.031,18.054,8.829,23.984c5.798,5.798,13.574,8.829,23.457,8.829
			c10.279,0,18.45-3.163,24.38-9.357c6.062-6.194,8.961-14.628,8.961-24.907c0-10.147-2.767-18.318-8.434-24.116
			C495.767,33.341,487.86,30.442,477.845,30.442 M489.969,79.597c-2.767,3.558-7.116,5.271-12.651,5.271
			c-5.403,0-9.884-1.713-12.915-5.535c-3.163-3.558-4.612-8.829-4.612-15.419c0-6.853,1.581-11.992,4.612-15.682
			c3.163-3.69,7.38-5.535,12.783-5.535c5.271,0,9.488,1.713,12.519,5.271c3.031,3.558,4.612,8.829,4.612,15.55
			C494.054,70.636,492.868,76.039,489.969,79.597 M543.209,58.38c-4.744-1.977-7.775-3.426-9.093-4.744
			c-1.186-1.186-1.713-2.767-1.713-4.876c0-1.713,0.659-3.426,2.372-4.612c1.713-1.186,3.69-1.713,6.589-1.713
			c2.504,0,5.14,0.527,7.775,1.186c2.504,0.659,4.876,1.713,6.721,3.163l0.527,0.527V33.078l-0.395-0.132
			c-1.713-0.659-4.085-1.45-6.853-1.977s-5.271-0.659-7.38-0.659c-7.116,0-13.047,1.713-17.659,5.535
			c-4.612,3.558-6.853,8.434-6.853,14.101c0,3.031,0.527,5.667,1.45,7.907c1.054,2.24,2.504,4.217,4.612,6.062
			c2.109,1.581,5.14,3.426,9.225,5.14c3.426,1.45,6.062,2.636,7.775,3.558c1.581,0.922,2.636,1.977,3.426,2.767
			c0.527,0.922,0.922,2.109,0.922,3.558c0,4.217-3.295,6.326-9.884,6.326c-2.504,0-5.14-0.527-8.302-1.45
			c-3.163-1.054-6.062-2.504-8.434-4.217l-0.527-0.527v14.628l0.395,0.132c2.24,1.054,4.876,1.713,8.039,2.504
			c3.295,0.527,6.062,1.054,8.698,1.054c7.775,0,14.101-1.713,18.581-5.535c4.612-3.69,6.984-8.434,6.984-14.628
			c0-4.217-1.186-8.039-3.69-10.938C553.357,63.519,549.271,60.62,543.209,58.38 M600.008,30.442
			c-10.543,0-18.977,3.163-24.907,9.225s-8.961,14.628-8.961,25.171c0,9.884,3.031,18.054,8.829,23.984
			c5.798,5.798,13.574,8.829,23.457,8.829c10.279,0,18.45-3.163,24.38-9.357c6.062-6.194,8.961-14.628,8.961-24.907
			c0-10.147-2.767-18.318-8.434-24.116C617.93,33.341,610.023,30.442,600.008,30.442 M612,79.597
			c-2.767,3.558-7.116,5.271-12.651,5.271c-5.535,0-9.884-1.713-12.915-5.535c-3.163-3.558-4.612-8.829-4.612-15.419
			c0-6.853,1.581-11.992,4.612-15.682c3.163-3.69,7.38-5.535,12.783-5.535c5.14,0,9.488,1.713,12.519,5.271
			c3.031,3.558,4.612,8.829,4.612,15.55C616.349,70.636,614.899,76.039,612,79.597"/>
		<path fill="#737373" d="M712.155,44.147V31.76H697V12.783l-0.527,0.132l-14.364,4.217l-0.395,0.132V31.76h-22.667v-8.039
			c0-3.69,0.922-6.589,2.504-8.434s4.085-2.767,6.984-2.767c2.109,0,4.217,0.527,6.721,1.45l0.527,0.395V1.318l-0.395-0.132
			C673.279,0.527,670.512,0,666.953,0c-4.481,0-8.434,1.054-11.992,2.767c-3.558,1.977-6.194,4.612-8.171,8.171
			c-1.977,3.426-3.031,7.38-3.031,11.86v8.961h-10.543v12.256h10.543v51.791h15.155V44.147h22.667v32.946
			c0,13.574,6.326,20.295,19.109,20.295c2.109,0,4.217-0.395,6.326-0.659c2.24-0.527,3.822-1.054,4.744-1.45l0.132-0.132V82.76
			l-0.527,0.527c-0.922,0.527-1.713,1.054-3.163,1.45c-1.186,0.395-2.24,0.527-3.031,0.527c-3.031,0-5.14-0.659-6.589-2.372
			c-1.45-1.581-2.108-4.217-2.108-8.171v-30.31L712.155,44.147L712.155,44.147z"/>
	</g>
	<path fill="#F25022" d="M0,0h80.783v80.783H0V0z"/>
	<path fill="#7FBA00" d="M89.217,0H170v80.783H89.217V0z"/>
	<path fill="#00A4EF" d="M0,89.217h80.783V170H0V89.217z"/>
	<path fill="#FFB900" d="M89.217,89.217H170V170H89.217V89.217z"/>
</g>
<g>
	<path fill="#737373" d="M234.837,158.93c-2.504,1.318-5.535,1.977-9.225,1.977c-4.744,0-8.566-1.581-11.333-4.612
		s-4.217-6.984-4.217-11.992c0-5.271,1.581-9.62,4.744-12.915c3.163-3.295,7.248-4.876,12.124-4.876
		c3.163,0,5.798,0.395,7.775,1.318v4.085c-2.372-1.318-5.008-1.977-7.907-1.977c-3.822,0-6.853,1.318-9.225,3.822
		s-3.558,5.93-3.558,10.279c0,4.085,1.054,7.248,3.295,9.62c2.24,2.372,5.14,3.558,8.698,3.558c3.295,0,6.194-0.791,8.698-2.24
		v3.953H234.837z"/>
	<path fill="#737373" d="M244.984,160.38h-3.822v-35.186h3.822V160.38z"/>
	<path fill="#737373" d="M262.512,160.907c-3.558,0-6.326-1.054-8.434-3.295c-2.109-2.24-3.163-5.14-3.163-8.829
		c0-3.953,1.054-7.116,3.295-9.357c2.24-2.24,5.14-3.295,8.829-3.295c3.558,0,6.326,1.054,8.302,3.295s3.031,5.14,3.031,9.093
		c0,3.822-1.054,6.853-3.163,9.093S266.202,160.907,262.512,160.907z M262.775,139.295c-2.504,0-4.349,0.791-5.798,2.504
		c-1.45,1.713-2.109,3.953-2.109,6.853c0,2.767,0.659,5.008,2.109,6.589c1.45,1.581,3.295,2.372,5.798,2.372
		s4.349-0.791,5.667-2.372c1.318-1.581,1.977-3.822,1.977-6.853s-0.659-5.271-1.977-6.853
		C267.124,139.953,265.279,139.295,262.775,139.295z"/>
	<path fill="#737373" d="M299.543,160.38h-3.822v-3.69h-0.132c-1.581,2.899-3.953,4.349-7.38,4.349
		c-5.667,0-8.434-3.426-8.434-10.147v-14.233h3.822v13.574c0,5.008,1.977,7.512,5.798,7.512c1.845,0,3.426-0.659,4.612-2.109
		c1.186-1.45,1.845-3.163,1.845-5.403v-13.705h3.822v23.853H299.543z"/>
	<path fill="#737373" d="M327.481,160.38h-3.822v-4.085h-0.132c-1.713,3.031-4.481,4.612-8.171,4.612
		c-3.031,0-5.403-1.054-7.116-3.163c-1.713-2.109-2.636-5.008-2.636-8.698c0-3.953,1.054-7.116,3.031-9.488s4.612-3.558,7.907-3.558
		c3.295,0,5.667,1.318,7.116,3.822h0.132v-14.628h3.822v35.186H327.481z M323.659,149.574v-3.558c0-1.977-0.659-3.558-1.845-4.876
		s-2.899-1.977-4.876-1.977c-2.372,0-4.085,0.791-5.403,2.504c-1.318,1.713-1.977,4.085-1.977,6.985
		c0,2.767,0.659,4.876,1.977,6.457c1.318,1.581,3.031,2.372,5.14,2.372c2.109,0,3.822-0.791,5.14-2.24
		C323.132,153.791,323.659,151.946,323.659,149.574z"/>
	<path fill="#737373" d="M347.116,159.062v-4.612c0.527,0.527,1.186,0.922,1.845,1.186c0.659,0.264,1.45,0.659,2.372,0.922
		c0.922,0.264,1.581,0.395,2.504,0.527s1.581,0.264,2.24,0.264c2.372,0,4.217-0.395,5.403-1.318
		c1.186-0.922,1.713-2.109,1.713-3.822c0-0.922-0.132-1.713-0.527-2.372c-0.395-0.659-0.922-1.318-1.581-1.845
		c-0.659-0.527-1.581-1.054-2.504-1.581c-0.922-0.527-1.977-1.054-3.031-1.581c-1.186-0.527-2.24-1.186-3.295-1.845
		c-1.054-0.659-1.845-1.318-2.636-1.977c-0.791-0.659-1.318-1.581-1.713-2.504c-0.395-0.922-0.659-1.977-0.659-3.295
		c0-1.45,0.395-2.767,1.054-3.953s1.581-1.977,2.636-2.767c1.054-0.791,2.372-1.318,3.69-1.581c1.318-0.264,2.767-0.527,4.217-0.527
		c3.295,0,5.667,0.395,7.116,1.186v4.349c-1.977-1.318-4.481-1.977-7.512-1.977c-0.791,0-1.713,0.132-2.504,0.264
		c-0.791,0.132-1.581,0.527-2.24,0.922c-0.659,0.395-1.186,0.922-1.581,1.581s-0.659,1.45-0.659,2.372
		c0,0.791,0.132,1.581,0.527,2.24c0.395,0.659,0.791,1.186,1.45,1.713c0.659,0.527,1.318,1.054,2.24,1.45
		c0.922,0.395,1.977,1.054,3.031,1.581c1.186,0.527,2.372,1.186,3.426,1.845c1.054,0.659,1.977,1.318,2.767,2.109
		s1.45,1.713,1.977,2.636c0.527,0.922,0.659,2.109,0.659,3.295c0,1.581-0.264,3.031-0.922,4.217
		c-0.659,1.186-1.45,2.109-2.636,2.767c-1.186,0.659-2.372,1.186-3.822,1.581c-1.45,0.395-2.899,0.527-4.481,0.527
		c-0.527,0-1.186,0-1.977-0.132c-0.791-0.132-1.581-0.264-2.372-0.395c-0.791-0.132-1.581-0.395-2.24-0.659
		C348.434,159.589,347.643,159.326,347.116,159.062z"/>
	<path fill="#737373" d="M383.357,160.907c-3.558,0-6.326-1.054-8.434-3.295c-2.109-2.24-3.163-5.14-3.163-8.829
		c0-3.953,1.054-7.116,3.295-9.357s5.14-3.295,8.829-3.295c3.558,0,6.326,1.054,8.302,3.295c1.977,2.24,3.031,5.14,3.031,9.093
		c0,3.822-1.054,6.853-3.163,9.093C389.946,159.853,386.915,160.907,383.357,160.907z M383.62,139.295
		c-2.504,0-4.349,0.791-5.798,2.504s-2.109,3.953-2.109,6.853c0,2.767,0.659,5.008,2.109,6.589s3.295,2.372,5.798,2.372
		c2.504,0,4.349-0.791,5.667-2.372c1.318-1.581,1.977-3.822,1.977-6.853s-0.659-5.271-1.977-6.853
		C387.969,139.953,385.992,139.295,383.62,139.295z"/>
	<path fill="#737373" d="M404.969,160.38h-3.822v-35.186h3.822V160.38z"/>
	<path fill="#737373" d="M431.853,160.38h-3.822v-3.69h-0.132c-1.581,2.899-3.953,4.349-7.38,4.349
		c-5.667,0-8.434-3.426-8.434-10.147v-14.233h3.822v13.574c0,5.008,1.977,7.512,5.798,7.512c1.845,0,3.426-0.659,4.612-2.109
		c1.186-1.45,1.845-3.163,1.845-5.403v-13.705h3.822v23.853H431.853z"/>
	<path fill="#737373" d="M450.566,160.116c-0.923,0.527-2.109,0.791-3.558,0.791c-4.217,0-6.194-2.372-6.194-6.984v-14.101h-4.085
		v-3.295h4.085v-5.798l3.822-1.186v6.984h5.93v3.295h-5.93v13.31c0,1.581,0.264,2.767,0.791,3.426
		c0.527,0.659,1.45,1.054,2.636,1.054c0.922,0,1.845-0.264,2.504-0.791L450.566,160.116L450.566,160.116z"/>
	<path fill="#737373" d="M457.55,130.597c-0.659,0-1.318-0.264-1.713-0.659c-0.395-0.395-0.659-1.054-0.659-1.713
		c0-0.659,0.264-1.318,0.659-1.713c0.395-0.395,1.054-0.659,1.713-0.659c0.659,0,1.318,0.264,1.713,0.659
		c0.395,0.395,0.791,1.054,0.791,1.713c0,0.659-0.264,1.318-0.791,1.713C458.736,130.333,458.209,130.597,457.55,130.597z
		 M459.395,160.38h-3.822v-23.721h3.822V160.38z"/>
	<path fill="#737373" d="M477.054,160.907c-3.558,0-6.326-1.054-8.434-3.295c-2.109-2.24-3.163-5.14-3.163-8.829
		c0-3.953,1.054-7.116,3.295-9.357s5.14-3.295,8.829-3.295c3.558,0,6.326,1.054,8.302,3.295s3.031,5.14,3.031,9.093
		c0,3.822-1.054,6.853-3.163,9.093C483.643,159.853,480.612,160.907,477.054,160.907z M477.318,139.295
		c-2.504,0-4.349,0.791-5.798,2.504s-2.109,3.953-2.109,6.853c0,2.767,0.659,5.008,2.109,6.589s3.295,2.372,5.798,2.372
		s4.349-0.791,5.667-2.372c1.318-1.581,1.977-3.822,1.977-6.853s-0.659-5.271-1.977-6.853
		C481.667,139.953,479.822,139.295,477.318,139.295z"/>
	<path fill="#737373" d="M514.612,160.38h-3.822v-13.574c0-5.008-1.845-7.512-5.535-7.512c-1.845,0-3.426,0.659-4.744,2.109
		c-1.318,1.45-1.845,3.295-1.845,5.403v13.574h-3.822v-23.721h3.822v3.953h0.132c1.845-3.031,4.349-4.481,7.775-4.481
		c2.636,0,4.612,0.791,5.93,2.504c1.318,1.713,2.109,4.085,2.109,7.248V160.38z"/>
	<path fill="#737373" d="M539.124,147.86v12.519h-3.953v-33.209h9.093c3.558,0,6.326,0.922,8.302,2.636s2.899,4.217,2.899,7.38
		c0,3.163-1.054,5.667-3.295,7.775c-2.24,2.109-5.14,3.031-8.83,3.031h-4.217V147.86z M539.124,130.597v13.574h4.085
		c2.636,0,4.744-0.659,6.194-1.845c1.45-1.186,2.109-2.899,2.109-5.14c0-4.349-2.636-6.589-7.775-6.589H539.124z"/>
	<path fill="#737373" d="M573.651,140.481c-0.659-0.527-1.581-0.791-2.899-0.791c-1.581,0-3.031,0.791-4.085,2.24
		c-1.054,1.45-1.581,3.558-1.581,6.194v12.124h-3.822v-23.721h3.822v4.876h0.132c0.527-1.713,1.318-3.031,2.504-3.953
		c1.186-0.922,2.372-1.45,3.69-1.45c1.054,0,1.713,0.132,2.24,0.264L573.651,140.481L573.651,140.481z"/>
	<path fill="#737373" d="M587.093,160.907c-3.558,0-6.326-1.054-8.434-3.295c-2.109-2.24-3.163-5.14-3.163-8.829
		c0-3.953,1.054-7.116,3.295-9.357c2.24-2.24,5.14-3.295,8.83-3.295c3.558,0,6.326,1.054,8.302,3.295s3.031,5.14,3.031,9.093
		c0,3.822-1.054,6.853-3.163,9.093C593.682,159.853,590.651,160.907,587.093,160.907z M587.357,139.295
		c-2.504,0-4.349,0.791-5.798,2.504c-1.45,1.713-2.109,3.953-2.109,6.853c0,2.767,0.659,5.008,2.109,6.589
		c1.45,1.581,3.295,2.372,5.798,2.372s4.349-0.791,5.667-2.372c1.318-1.581,1.977-3.822,1.977-6.853s-0.659-5.271-1.977-6.853
		C591.705,139.953,589.86,139.295,587.357,139.295z"/>
	<path fill="#737373" d="M623.597,136.659l-9.488,23.721h-3.69l-8.961-23.721h4.217l6.062,17.264
		c0.395,1.318,0.791,2.372,0.791,3.295h0.132c0.132-1.186,0.395-2.24,0.791-3.163l6.326-17.264h3.822V136.659z"/>
	<path fill="#737373" d="M629.659,130.597c-0.659,0-1.318-0.264-1.713-0.659c-0.395-0.395-0.659-1.054-0.659-1.713
		c0-0.659,0.264-1.318,0.659-1.713c0.395-0.395,1.054-0.659,1.713-0.659c0.659,0,1.318,0.264,1.713,0.659
		c0.395,0.395,0.791,1.054,0.791,1.713c0,0.659-0.264,1.318-0.791,1.713C630.845,130.333,630.318,130.597,629.659,130.597z
		 M631.504,160.38h-3.822v-23.721h3.822V160.38z"/>
	<path fill="#737373" d="M659.442,160.38h-3.822v-4.085h-0.132c-1.713,3.031-4.481,4.612-8.171,4.612
		c-3.031,0-5.403-1.054-7.116-3.163c-1.713-2.109-2.636-5.008-2.636-8.698c0-3.953,1.054-7.116,3.031-9.488
		c1.977-2.372,4.612-3.558,7.907-3.558c3.295,0,5.667,1.318,7.116,3.822h0.132v-14.628h3.822v35.186H659.442z M655.62,149.574
		v-3.558c0-1.977-0.659-3.558-1.845-4.876s-2.899-1.977-4.876-1.977c-2.372,0-4.085,0.791-5.403,2.504
		c-1.318,1.713-1.977,4.085-1.977,6.985c0,2.767,0.659,4.876,1.977,6.457c1.318,1.581,3.031,2.372,5.14,2.372
		c2.109,0,3.822-0.791,5.14-2.24C655.093,153.791,655.62,151.946,655.62,149.574z"/>
	<path fill="#737373" d="M686.194,149.442h-16.736c0,2.636,0.791,4.744,2.109,6.062s3.163,2.109,5.667,2.109
		c2.636,0,5.14-0.922,7.38-2.636v3.558c-2.109,1.45-4.876,2.24-8.302,2.24c-3.295,0-5.93-1.054-7.907-3.295
		c-1.977-2.24-2.899-5.14-2.899-9.093c0-3.69,1.054-6.721,3.163-8.961c2.109-2.24,4.744-3.426,7.775-3.426
		c3.031,0,5.535,1.054,7.248,3.031c1.713,1.977,2.504,4.744,2.504,8.302V149.442z M682.372,146.279c0-2.24-0.527-3.953-1.581-5.14
		c-1.054-1.186-2.504-1.845-4.349-1.845c-1.845,0-3.295,0.659-4.612,1.977s-1.977,2.899-2.372,5.008H682.372z"/>
	<path fill="#737373" d="M704.38,140.481c-0.659-0.527-1.581-0.791-2.899-0.791c-1.581,0-3.031,0.791-4.085,2.24
		c-1.054,1.45-1.581,3.558-1.581,6.194v12.124h-3.822v-23.721h3.822v4.876h0.132c0.527-1.713,1.318-3.031,2.504-3.953
		c1.186-0.922,2.372-1.45,3.69-1.45c1.054,0,1.713,0.132,2.24,0.264V140.481z"/>
</g>
</svg>
