<?xml version="1.0" encoding="utf-8"?>
<!-- Generator: Adobe Illustrator 21.1.0, SVG Export Plug-In . SVG Version: 6.00 Build 0)  -->
<svg version="1.1" id="Layer_1" xmlns="http://www.w3.org/2000/svg" xmlns:xlink="http://www.w3.org/1999/xlink" x="0px" y="0px"
	 viewBox="0 0 300 201.3" style="enable-background:new 0 0 300 201.3;" xml:space="preserve">
<style type="text/css">
	.st0{fill:#2294D2;}
	.st1{fill:url(#SVGID_1_);}
	.st2{fill:url(#SVGID_2_);}
	.st3{fill:url(#SVGID_3_);}
	.st4{fill:url(#SVGID_4_);}
	.st5{fill:#828285;}
	.st6{fill:#2394D0;}
	.st7{fill:#2758A5;}
	.st8{fill:#E4262E;}
</style>
<g>
	<g>
		<path class="st0" d="M18.3,45.5V21.3h-2.8v-5.1h8.4v29.2H18.3z"/>
		<path class="st0" d="M38.1,46C31,46,30,35.9,30,30.7c0-5.3,1.3-14.9,8.3-14.9c6.9,0,8.1,9.8,8.1,14.9C46.3,36.1,45.3,46,38.1,46z
			 M40.7,29.7c0-1.8,0-8.7-2.6-8.7c-2.5,0-2.6,6.8-2.6,8.5v3.1c0,1.7,0.1,8.1,2.6,8.1c2.6,0,2.6-6.5,2.6-8.3V29.7z"/>
		<path class="st0" d="M65.9,21.6v6.2h5.3v5.6h-5.3v12.1h-5.8V16.2h11.7v5.4H65.9z"/>
		<path class="st0" d="M83,45.5v-2.2c-0.8,1.4-1.9,2.6-3.6,2.6c-4.5,0-5.3-6.9-5.3-10.3c0-3.4,0.7-10.1,5.3-10.1
			c1.8,0,3,1.2,3.7,2.8v-2.4h5.5v19.6H83z M81.5,30.4c-1.8,0-1.9,4-1.9,5.3c0,1.3,0.1,5.3,2,5.3c1.7,0,1.8-4.1,1.8-5.3
			C83.4,34.5,83.3,30.4,81.5,30.4z"/>
		<path class="st0" d="M101.2,31.2c-0.7-0.7-1.5-1.3-2.6-1.3c-0.8,0-1.4,0.6-1.4,1.4c0,2.4,6.1,1.9,6.1,7.8c0,3.7-2.2,6.8-6.2,6.8
			c-2.3,0-4.2-0.9-6-2.2l2.4-3.9c0.8,0.7,1.6,1.2,2.7,1.2c1,0,1.8-0.6,1.8-1.6c0-2.5-6.4-2.1-6.4-8c0-3.8,3-5.8,6.5-5.8
			c2.1,0,3.6,0.5,5.2,1.7L101.2,31.2z"/>
		<path class="st0" d="M112.4,30.4v15h-5.5v-15H105v-4.6h1.9v-5.6h5.5v5.6h2.2v4.6H112.4z"/>
		<path class="st0" d="M129.6,38.7c0,2.1-0.9,4.3-2.1,5.6c-1.4,1.4-2.8,1.5-4.3,1.5c-1.6,0-3.2-0.3-4.7-1.8c-1.5-1.5-2.7-4-2.7-7.9
			c0-3.4,0.8-6.8,2.8-8.9c1.3-1.3,2.8-1.8,4.5-1.8c2,0,3.3,0.7,4.2,1.6c1.8,1.8,2.5,5,2.5,7.6c0,0.6,0,1.3-0.1,1.9h-8.7
			c0,0.3,0,0.7,0,1.1c0,1.3,0.2,2.8,0.8,3.5c0.3,0.4,0.7,0.5,1.1,0.5c0.4,0,0.8-0.1,1.1-0.4c0.6-0.5,0.8-2.1,0.8-2.7H129.6z
			 M125.1,33.3c0-1.1-0.3-2.7-0.9-3.2c-0.3-0.3-0.7-0.4-1-0.4c-0.5,0-0.9,0.2-1.2,0.5c-0.6,0.6-0.8,2.1-0.8,3.1H125.1z"/>
		<path class="st0" d="M142,31.2c-0.7-0.7-1.5-1.3-2.6-1.3c-0.8,0-1.4,0.6-1.4,1.4c0,2.4,6.1,1.9,6.1,7.8c0,3.7-2.2,6.8-6.2,6.8
			c-2.3,0-4.2-0.9-6-2.2l2.4-3.9c0.8,0.7,1.6,1.2,2.7,1.2c1,0,1.8-0.6,1.8-1.6c0-2.5-6.4-2.1-6.4-8c0-3.8,3-5.8,6.5-5.8
			c2.1,0,3.6,0.5,5.2,1.7L142,31.2z"/>
		<path class="st0" d="M153.2,30.4v15h-5.5v-15h-1.9v-4.6h1.9v-5.6h5.5v5.6h2.2v4.6H153.2z"/>
		<path class="st0" d="M187.1,29.2c0,0.7,0,1.5,0,2.2c0,2.1-0.1,4.2-0.5,6.2c-1,4.5-3.9,8.3-8.9,8.3c-7.9,0-10.4-8.5-10.4-15
			c0-6.7,2.2-15.2,10.4-15.2c4.5,0,7.4,2.8,8.6,6.9l-5.6,2.2c-0.3-1.7-0.7-4-2.9-4c-3.9,0-4.3,7.2-4.3,10c0,2.9,0.1,9.8,4.3,9.8
			c3.2,0,3.5-3.9,3.6-6.3h-3.7v-5.2H187.1z"/>
		<path class="st0" d="M200.5,30.5c-0.3,0-0.5-0.1-0.8-0.1c-3.3,0-3.7,1.8-3.7,4.7v10.4h-5.5V25.9h5.5v2.4c1.2-1.8,2.3-2.8,4.5-3.1
			V30.5z"/>
		<path class="st0" d="M209.5,45.9c-5.6,0-7.5-5.4-7.5-10.2c0-4.7,1.8-10.2,7.5-10.2c5.8,0,7.4,5.3,7.4,10.2
			C216.9,40.5,215.3,45.9,209.5,45.9z M209.5,30.4c-1.8,0-1.9,4-1.9,5.3c0,1.3,0.1,5.3,1.9,5.3c1.7,0,1.8-4.1,1.8-5.3
			S211.2,30.4,209.5,30.4z"/>
		<path class="st0" d="M237.9,45.5h-4.5c-1.1-4.1-2.4-8.1-3-12.3c-0.5,4.2-1.7,8.2-2.7,12.3h-4.6l-5.5-19.6h5.3
			c1,3.8,2,7.6,2.7,11.5l2.6-11.5h4.7c0.9,3.8,1.8,7.6,2.5,11.5c0.8-3.9,1.8-7.7,2.8-11.5h5.2L237.9,45.5z"/>
		<path class="st0" d="M247.7,22.9c-1.9,0-3.5-1.5-3.5-3.5c0-1.9,1.5-3.5,3.5-3.5c1.9,0,3.5,1.5,3.5,3.5
			C251.2,21.4,249.7,22.9,247.7,22.9z M245,45.5V25.9h5.5v19.6H245z"/>
		<path class="st0" d="M262.2,45.5v-12c0-0.9,0-2.5-1.3-2.5c-1.6,0-1.5,2-1.5,3.1v11.4h-5.5V25.9h5.5v3.1c1-1.9,2.4-3.4,4.6-3.4
			c3.4,0,3.6,3.2,3.6,5.8v14.2H262.2z"/>
		<path class="st0" d="M285.3,46.7c0,1.4,0,2.5-0.6,3.7c-1.2,2.9-4,4.1-7,4.1c-4.7,0-6.5-2.8-6.9-6.8h4.8c0.1,1,0.4,2.4,2,2.4
			c2.1,0,2.1-2.7,2.1-4.2V43c-0.9,1.4-1.8,2.8-3.7,2.8c-4.4,0-5.5-6.7-5.5-10c0-3.4,0.7-10.3,5.3-10.3c1.9,0,3,1.2,3.9,2.7v-2.4h5.5
			V46.7z M278.1,30.4c-1.8,0-2,3.9-2,5.2s0.1,5.2,2,5.2c1.7,0,1.9-4,1.9-5.2S279.8,30.4,278.1,30.4z"/>
	</g>
</g>
<g>
	<linearGradient id="SVGID_1_" gradientUnits="userSpaceOnUse" x1="46.1133" y1="43.2534" x2="46.1133" y2="104.2356">
		<stop  offset="0" style="stop-color:#29ABE2"/>
		<stop  offset="1" style="stop-color:#2E3192"/>
	</linearGradient>
	<path class="st1" d="M68.6,100.6c-4.3,1.5-8.9,2.3-13.6,2.3H15V56.4h40c5.3,0,9.9,0.7,13.8,2c5.7,1.9,8.5,5,8.5,9.3v24
		C77.3,95.5,74.4,98.5,68.6,100.6z M67.3,70c0-2.5-3.9-3.7-11.8-3.7H24.9V93H55c2.3,0,4.8-0.4,7.3-1.2c3.4-1,5.1-2.5,5.1-4.2V70z"/>
	<linearGradient id="SVGID_2_" gradientUnits="userSpaceOnUse" x1="117" y1="41.9903" x2="117" y2="102.9746">
		<stop  offset="0" style="stop-color:#29ABE2"/>
		<stop  offset="1" style="stop-color:#2E3192"/>
	</linearGradient>
	<path class="st2" d="M138.2,102.9v-6.8H95.8v6.8h-9.9V72.4c0-5.2,2.5-9.3,7.6-12.2c4.3-2.5,9.2-3.8,14.8-3.8h17
		c5.4,0,10.4,1.3,14.9,3.9c5.4,3.1,8.1,7.1,8.1,12.1v30.5H138.2z M133.4,68.3c-2.7-1.3-5.5-2-8.3-2h-17c-2.4,0-4.9,0.8-7.7,2.3
		c-3.1,1.8-4.7,3.7-4.7,5.9v11.7h42.5V74.5C138.2,71.9,136.6,69.8,133.4,68.3z"/>
	<linearGradient id="SVGID_3_" gradientUnits="userSpaceOnUse" x1="186.4512" y1="41.3288" x2="186.4512" y2="102.3863">
		<stop  offset="0" style="stop-color:#29ABE2"/>
		<stop  offset="1" style="stop-color:#2E3192"/>
	</linearGradient>
	<path class="st3" d="M191.4,66.3v36.6h-9.9V66.3h-26.2v-9.9h62.3v9.9H191.4z"/>
	<linearGradient id="SVGID_4_" gradientUnits="userSpaceOnUse" x1="254.6729" y1="40.1204" x2="254.6729" y2="101.1047">
		<stop  offset="0" style="stop-color:#29ABE2"/>
		<stop  offset="1" style="stop-color:#2E3192"/>
	</linearGradient>
	<path class="st4" d="M275.9,102.9v-6.8h-42.5v6.8h-9.9V72.4c0-5.2,2.5-9.3,7.6-12.2c4.3-2.5,9.2-3.8,14.8-3.8h17
		c5.4,0,10.4,1.3,14.9,3.9c5.4,3.1,8.1,7.1,8.1,12.1v30.5H275.9z M271.1,68.3c-2.7-1.3-5.5-2-8.3-2h-17c-2.4,0-4.9,0.8-7.7,2.3
		c-3.1,1.8-4.7,3.7-4.7,5.9v11.7h42.5V74.5C275.9,71.9,274.3,69.8,271.1,68.3z"/>
</g>
<g>
	<g>
		<path class="st5" d="M31.7,126.3v-4.6H19.4v4.6h-2.9v-10c0-1.5,0.7-2.7,2.2-3.5c1.2-0.7,2.7-1.1,4.3-1.1h4.9c1.6,0,3,0.4,4.3,1.1
			c1.6,0.9,2.3,2.1,2.3,3.5v10H31.7z M30.3,115.1c-0.8-0.4-1.6-0.6-2.4-0.6H23c-0.7,0-1.4,0.2-2.2,0.7c-0.9,0.5-1.4,1.1-1.4,1.7v1.9
			h12.3v-1.9C31.7,116.1,31.3,115.5,30.3,115.1z"/>
		<path class="st5" d="M68.7,125.9c-0.2,0.3-0.5,0.5-0.9,0.5c-0.4,0-0.7-0.1-1-0.4l-12.9-10v10.3H51v-13.2c0-0.4,0.1-0.8,0.3-1.1
			s0.5-0.4,1-0.4c0.3,0,0.7,0.1,1,0.4l12.8,10v-10.3H69v13.2C69,125.2,68.9,125.6,68.7,125.9z"/>
		<path class="st5" d="M100.6,126.3v-4.6H88.3v4.6h-2.9v-10c0-1.5,0.7-2.7,2.2-3.5c1.2-0.7,2.7-1.1,4.3-1.1h4.9c1.6,0,3,0.4,4.3,1.1
			c1.6,0.9,2.3,2.1,2.3,3.5v10H100.6z M99.2,115.1c-0.8-0.4-1.6-0.6-2.4-0.6h-4.9c-0.7,0-1.4,0.2-2.2,0.7c-0.9,0.5-1.4,1.1-1.4,1.7
			v1.9h12.3v-1.9C100.6,116.1,100.1,115.5,99.2,115.1z"/>
		<path class="st5" d="M119.1,126.3v-14.6h2.9v11.8h10.2v2.9H119.1z"/>
		<path class="st5" d="M160.6,125.6c-1.1,0.4-2.5,0.6-4,0.6H148v-2.9h8.7c2.4,0,3.6-0.4,3.6-1.2v-0.5h-8.7c-1.6,0-3-0.2-4.1-0.7
			c-1.6-0.6-2.4-1.6-2.4-3v-6.5h2.9v5.9c0,0.9,1.2,1.3,3.6,1.3h8.7v-7.2h2.9V123C163.1,124.2,162.3,125.1,160.6,125.6z"/>
		<path class="st5" d="M188.8,114.5v11.8h-2.9v-11.8h-7.6v-2.9h18v2.9H188.8z"/>
		<path class="st5" d="M212.2,126.3v-14.6h2.9v14.6H212.2z"/>
		<path class="st5" d="M238.5,126.3c-1.6,0-2.9-0.2-4-0.6c-1.6-0.6-2.5-1.5-2.5-2.7v-8.1c0-1.2,0.8-2.1,2.5-2.7
			c1.1-0.4,2.5-0.6,4-0.6h11.6v2.9h-11.6c-2.3,0-3.5,0.5-3.5,1.6v6.1c0,0.8,1.2,1.3,3.5,1.3h11.6v2.9H238.5z"/>
		<path class="st5" d="M281.8,125.7c-1.1,0.4-2.5,0.6-4,0.6h-11v-2.9h11c2.4,0,3.6-0.4,3.6-1.1v-2.1c0-0.7-1.2-1.1-3.6-1.1h-5.1
			c-3.9,0-5.9-0.9-5.9-2.7v-1.8c0-1.9,2-2.9,5.9-2.9h11v2.9h-11c-0.9,0-1.5,0-1.7,0.1c-0.8,0.1-1.3,0.4-1.3,0.8v0.2
			c0,0.4,0.6,0.7,1.7,0.7c0.1,0,0.1,0,0.2,0c0.1,0,0.2,0,0.4,0h0.6h5.1c1.6,0,3,0.2,4,0.5c1.6,0.5,2.4,1.4,2.4,2.7v3.6
			C284.2,124.2,283.4,125.1,281.8,125.7z"/>
	</g>
</g>
<g>
	<g>
		<path class="st6" d="M51.3,150.7c-0.8,2.9-2.7,5.2-5.7,6.9c-3,1.7-6.8,2.5-11.5,2.5c-3.7,0-6.9-0.6-9.8-1.7
			c-2.9-1.1-5.1-2.7-6.8-4.8c-1.6-2.1-2.5-4.5-2.5-7.4c0-2.8,0.8-5.2,2.3-7.3c1.5-2.1,3.7-3.7,6.4-4.9c2.7-1.1,5.8-1.7,9.2-1.7
			c2.4,0,4.5,0.3,6.4,0.9c1.9,0.6,3.4,1.4,4.6,2.5v-2.9h6.5v9.6h-5.5c-1-1.5-2.3-2.7-3.8-3.5c-1.5-0.8-3.4-1.2-5.7-1.2
			c-3.2,0-5.7,0.8-7.5,2.3c-1.8,1.5-2.7,3.6-2.7,6.1c0,2.6,0.9,4.6,2.6,6.2s4,2.3,6.9,2.3c4.8,0,7.8-2,9-6.1L51.3,150.7z"/>
		<path class="st6" d="M61.5,158.9c-1.9-0.8-3.5-2-4.5-3.5c-1.1-1.5-1.6-3.2-1.6-5.2c0-1.9,0.5-3.6,1.6-5.1c1.1-1.5,2.6-2.6,4.5-3.4
			c1.9-0.8,4.2-1.2,6.7-1.2s4.8,0.4,6.7,1.2c1.9,0.8,3.5,2,4.5,3.4c1.1,1.5,1.6,3.2,1.6,5.1c0,2-0.5,3.7-1.6,5.2
			c-1.1,1.5-2.6,2.6-4.5,3.5c-1.9,0.8-4.2,1.2-6.7,1.2S63.5,159.8,61.5,158.9z M71.8,153.8c0.9-0.8,1.3-2,1.3-3.4
			c0-1.4-0.4-2.5-1.3-3.4c-0.9-0.8-2.1-1.2-3.6-1.2c-1.5,0-2.7,0.4-3.6,1.2c-0.9,0.8-1.3,1.9-1.3,3.4c0,1.5,0.4,2.6,1.3,3.4
			c0.9,0.8,2.1,1.2,3.6,1.2C69.8,155,71,154.6,71.8,153.8z"/>
		<path class="st6" d="M128.8,155.6v4.1h-14v-4.1h2.5v-7.4c0-0.9-0.3-1.6-0.8-2.2c-0.6-0.5-1.3-0.8-2.3-0.8c-1.3,0-2.8,0.4-4.2,1.1
			c0,0.2,0.1,0.4,0.1,0.7v8.5h2.9v4.1H99v-4.1h2.5v-7.4c0-0.9-0.3-1.6-0.8-2.2c-0.5-0.5-1.3-0.8-2.3-0.8c-1.1,0-2.3,0.3-3.6,0.8v9.5
			h2.5v4.1H83.1v-4.1h3v-10.5h-2.9v-4h10.9l0.1,1.6c2.6-1.4,5.2-2.1,8-2.1c1.5,0,2.9,0.2,4,0.7c1.1,0.5,2,1.2,2.6,2
			c3-1.9,6.1-2.8,9.1-2.8c2.5,0,4.4,0.6,5.8,1.8c1.4,1.2,2.1,2.7,2.1,4.7v8.5H128.8z"/>
		<path class="st6" d="M156.1,143.2c1.9,1.7,2.8,4.1,2.8,7c0,2-0.5,3.7-1.4,5.2c-0.9,1.5-2.2,2.7-3.8,3.5c-1.6,0.8-3.5,1.2-5.5,1.2
			c-1.3,0-2.6-0.1-3.7-0.4c-1.1-0.3-2.1-0.7-2.9-1.2v4.8h3.7v4.1H130v-4.1h2.9v-18.2H130v-4h10.8l0.2,1.5c2.2-1.3,4.6-2,7.3-2
			C151.6,140.6,154.2,141.5,156.1,143.2z M148.7,153.8c0.9-0.8,1.4-2,1.4-3.4c0-1.4-0.5-2.5-1.4-3.4s-2.1-1.3-3.6-1.3
			c-1.3,0-2.5,0.3-3.6,0.9v7.6c1,0.5,2.1,0.7,3.4,0.7C146.5,155,147.8,154.6,148.7,153.8z"/>
		<path class="st6" d="M187.2,155.6v4.1h-9.8l-0.6-1.6c-2.1,1.4-4.5,2.1-7.3,2.1c-2.4,0-4.2-0.5-5.6-1.5c-1.4-1-2.1-2.3-2.1-4
			c0-2,0.9-3.4,2.6-4.4c1.7-0.9,3.9-1.4,6.6-1.4c1.8,0,3.5,0.2,5.1,0.6v-0.9c0-2.3-1.5-3.5-4.4-3.5c-2.1,0-4.6,0.5-7.6,1.6l-1.9-3.9
			c3.8-1.4,7.6-2.1,11.6-2.1c3.4,0,6,0.7,7.9,2c1.9,1.3,2.8,3.2,2.8,5.6v7.4H187.2z M170.2,155.9c0.5,0.4,1.3,0.6,2.2,0.6
			c1.3,0,2.6-0.4,3.6-1.1v-3.1c-1-0.3-2.1-0.4-3.1-0.4c-1,0-1.8,0.2-2.5,0.6c-0.7,0.4-1,1-1,1.8C169.4,155,169.7,155.5,170.2,155.9z
			"/>
		<path class="st6" d="M218.8,155.6v4.1h-14v-4.1h2.4v-7.4c0-0.9-0.3-1.6-0.8-2.2c-0.5-0.5-1.3-0.8-2.3-0.8c-1.2,0-2.4,0.3-3.7,0.9
			v9.4h2.5v4.1h-14.1v-4.1h3v-10.5h-3v-4h11l0.1,1.7c2.6-1.4,5.3-2.1,8-2.1c2.5,0,4.4,0.6,5.8,1.8c1.4,1.2,2.1,2.7,2.1,4.7v8.5
			H218.8z"/>
		<path class="st6" d="M220.2,155.6h3v-10.5h-3v-4h11.6v14.5h2.9v4.1h-14.6V155.6z M223.2,136.6c-0.9-0.7-1.4-1.6-1.4-2.8
			c0-1.1,0.5-2.1,1.4-2.8c0.9-0.7,2.1-1.1,3.6-1.1s2.7,0.3,3.6,1c0.9,0.7,1.4,1.6,1.4,2.8c0,1.1-0.4,2.1-1.3,2.8
			c-0.9,0.7-2.1,1.1-3.6,1.1S224.1,137.3,223.2,136.6z"/>
		<path class="st6" d="M260.6,151.4h-16c0.3,1.2,1.1,2.1,2.2,2.7c1.1,0.6,2.5,0.9,4.1,0.9c2.7,0,5-0.7,7.2-2l2.4,4.1
			c-1.3,1-2.9,1.7-4.8,2.3c-1.8,0.5-3.8,0.8-5.9,0.8c-4,0-7.3-0.9-9.7-2.6c-2.4-1.7-3.6-4.1-3.6-7.2c0-1.9,0.5-3.6,1.6-5.1
			c1.1-1.5,2.6-2.6,4.5-3.5c1.9-0.8,4.1-1.2,6.5-1.2c3.6,0,6.4,0.9,8.4,2.6c2,1.8,3.1,4.1,3.1,7V151.4z M252.7,148.5
			c0-1.1-0.3-1.9-1-2.6c-0.7-0.6-1.6-0.9-2.9-0.9c-1.2,0-2.2,0.3-2.9,0.9c-0.7,0.6-1.2,1.5-1.4,2.6H252.7z"/>
		<path class="st6" d="M283.7,150c1.3,1,2,2.4,2,4.2c0,1.9-0.8,3.3-2.4,4.3c-1.6,1-3.6,1.6-6.1,1.6c-1.5,0-2.9-0.2-4.2-0.5
			c-1.3-0.3-2.4-0.7-3.3-1.3v1.3h-5.4v-6.1h5l0.2,1.7c1.6,0.8,3.3,1.3,5.3,1.3c0.9,0,1.7-0.1,2.2-0.4c0.6-0.3,0.8-0.7,0.8-1.2
			c0-0.6-0.3-1-0.9-1.3c-0.6-0.3-1.6-0.6-3.1-0.9l-2.1-0.3c-2.7-0.5-4.7-1.2-5.8-2.1c-1.2-0.9-1.7-2.2-1.7-3.9
			c0-1.8,0.8-3.2,2.3-4.3c1.6-1.1,3.7-1.6,6.3-1.6c2.5,0,4.5,0.4,6.2,1.3V141h5.4v5.9h-5l-0.3-1.9c-0.6-0.2-1.3-0.5-2.1-0.6
			c-0.8-0.2-1.5-0.3-2.2-0.3c-0.8,0-1.5,0.1-2.1,0.4c-0.5,0.3-0.8,0.7-0.8,1.2c0,0.5,0.2,0.9,0.7,1.1c0.5,0.2,1.2,0.5,2.1,0.7
			l2.4,0.4C280.3,148.3,282.3,149,283.7,150z"/>
	</g>
</g>
<g>
	<g>
		<path class="st7" d="M199.6,166l0.1,5.9h-0.5c-0.3-1.5-0.9-2.7-1.9-3.6c-1-0.9-2.1-1.4-3.2-1.4c-0.9,0-1.6,0.2-2.1,0.7
			c-0.5,0.5-0.8,1-0.8,1.7c0,0.4,0.1,0.7,0.3,1.1c0.3,0.4,0.7,0.8,1.2,1.2c0.4,0.3,1.4,0.8,2.9,1.5c2.1,1,3.5,2,4.2,2.9
			c0.7,0.9,1.1,2,1.1,3.1c0,1.5-0.6,2.8-1.7,3.8c-1.2,1.1-2.6,1.6-4.4,1.6c-0.6,0-1.1-0.1-1.6-0.2c-0.5-0.1-1.1-0.3-1.9-0.6
			c-0.4-0.2-0.8-0.3-1-0.3c-0.2,0-0.5,0.1-0.7,0.3c-0.3,0.2-0.5,0.4-0.6,0.8h-0.5v-6.7h0.5c0.4,1.9,1.1,3.3,2.2,4.3
			c1.1,1,2.3,1.5,3.6,1.5c1,0,1.8-0.3,2.3-0.8c0.6-0.5,0.9-1.2,0.9-1.9c0-0.4-0.1-0.8-0.3-1.2s-0.6-0.8-1-1.1
			c-0.5-0.4-1.3-0.8-2.4-1.4c-1.6-0.8-2.8-1.5-3.5-2c-0.7-0.6-1.3-1.2-1.6-1.9c-0.4-0.7-0.6-1.5-0.6-2.3c0-1.4,0.5-2.6,1.6-3.6
			c1-1,2.4-1.5,3.9-1.5c0.6,0,1.1,0.1,1.7,0.2c0.4,0.1,0.9,0.3,1.5,0.6s1,0.4,1.2,0.4c0.2,0,0.4-0.1,0.5-0.2c0.1-0.1,0.3-0.5,0.4-1
			H199.6z"/>
		<path class="st8" d="M209.8,176.1v5c0,1,0.1,1.6,0.2,1.8c0.1,0.2,0.3,0.4,0.6,0.6c0.3,0.1,0.9,0.2,1.7,0.2v0.5h-9.1v-0.5
			c0.8,0,1.4-0.1,1.7-0.2c0.3-0.2,0.5-0.4,0.6-0.6c0.1-0.2,0.2-0.9,0.2-1.8v-11.6c0-1-0.1-1.6-0.2-1.8c-0.1-0.3-0.3-0.4-0.6-0.6
			c-0.3-0.1-0.9-0.2-1.7-0.2v-0.5h8.3c2.2,0,3.7,0.1,4.7,0.4c1,0.3,1.8,0.8,2.4,1.7c0.6,0.8,0.9,1.7,0.9,2.8c0,1.3-0.5,2.4-1.4,3.3
			c-0.6,0.5-1.5,1-2.5,1.2l4.3,6c0.6,0.8,1,1.3,1.2,1.5c0.4,0.3,0.8,0.4,1.2,0.4v0.5h-5.6l-5.7-8.1H209.8z M209.8,167.3v7.8h0.7
			c1.2,0,2.1-0.1,2.7-0.3c0.6-0.2,1.1-0.6,1.4-1.2c0.3-0.6,0.5-1.3,0.5-2.3c0-1.4-0.3-2.4-1-3c-0.6-0.6-1.7-1-3.1-1H209.8z"/>
		<path class="st7" d="M242.5,180.8l-1.3,3.4h-10.5v-0.5c3.1-2.8,5.3-5.1,6.5-6.9c1.3-1.8,1.9-3.4,1.9-4.9c0-1.1-0.3-2.1-1-2.8
			c-0.7-0.7-1.5-1.1-2.5-1.1c-0.9,0-1.7,0.3-2.4,0.8c-0.7,0.5-1.2,1.3-1.5,2.3h-0.5c0.2-1.6,0.8-2.9,1.7-3.7c0.9-0.9,2-1.3,3.4-1.3
			c1.4,0,2.7,0.5,3.6,1.4c1,0.9,1.5,2,1.5,3.3c0,0.9-0.2,1.8-0.6,2.7c-0.6,1.4-1.7,2.9-3.2,4.5c-2.2,2.4-3.5,3.8-4.1,4.3h4.7
			c0.9,0,1.6,0,2-0.1c0.4-0.1,0.7-0.2,1-0.4c0.3-0.2,0.6-0.5,0.8-0.9H242.5z"/>
		<path class="st7" d="M245.3,175.4c0-2,0.3-3.8,0.9-5.3c0.6-1.5,1.4-2.6,2.4-3.3c0.8-0.6,1.6-0.9,2.4-0.9c1.4,0,2.6,0.7,3.7,2.1
			c1.4,1.7,2,4.1,2,7c0,2.1-0.3,3.8-0.9,5.3c-0.6,1.4-1.4,2.5-2.3,3.2c-0.9,0.7-1.8,1-2.7,1c-1.7,0-3.1-1-4.2-3
			C245.8,179.8,245.3,177.8,245.3,175.4z M247.9,175.7c0,2.5,0.3,4.5,0.9,6c0.5,1.3,1.2,2,2.2,2c0.5,0,1-0.2,1.5-0.6
			c0.5-0.4,0.9-1.1,1.2-2.1c0.4-1.5,0.6-3.6,0.6-6.4c0-2-0.2-3.7-0.6-5.1c-0.3-1-0.7-1.7-1.2-2.1c-0.4-0.3-0.8-0.4-1.3-0.4
			c-0.6,0-1.1,0.3-1.6,0.8c-0.6,0.7-1.1,1.9-1.3,3.4C248,172.7,247.9,174.2,247.9,175.7z"/>
		<path class="st7" d="M261.6,168.1l4.3-2.1h0.4v15.1c0,1,0,1.6,0.1,1.9c0.1,0.2,0.3,0.4,0.5,0.6c0.3,0.1,0.8,0.2,1.6,0.2v0.5H262
			v-0.5c0.8,0,1.4-0.1,1.6-0.2c0.2-0.1,0.4-0.3,0.5-0.5c0.1-0.2,0.1-0.9,0.1-1.9v-9.6c0-1.3,0-2.1-0.1-2.5c-0.1-0.3-0.2-0.5-0.3-0.6
			c-0.2-0.1-0.4-0.2-0.6-0.2c-0.3,0-0.8,0.1-1.4,0.4L261.6,168.1z"/>
		<path class="st7" d="M277.8,175.2c-1.4-1.2-2.3-2.1-2.7-2.8c-0.4-0.7-0.6-1.4-0.6-2.2c0-1.2,0.4-2.2,1.3-3
			c0.9-0.8,2.1-1.3,3.6-1.3c1.4,0,2.6,0.4,3.5,1.2s1.3,1.7,1.3,2.7c0,0.7-0.2,1.3-0.7,2c-0.5,0.7-1.5,1.5-3,2.4
			c1.5,1.2,2.6,2.1,3.1,2.8c0.7,0.9,1,1.8,1,2.8c0,1.3-0.5,2.3-1.4,3.2c-1,0.9-2.2,1.3-3.8,1.3c-1.7,0-3-0.5-4-1.6
			c-0.8-0.9-1.1-1.8-1.1-2.8c0-0.8,0.3-1.6,0.8-2.3C275.6,177,276.5,176.2,277.8,175.2z M278.4,175.7c-0.7,0.6-1.3,1.3-1.6,2
			c-0.4,0.7-0.5,1.5-0.5,2.3c0,1.1,0.3,2,0.9,2.7c0.6,0.7,1.4,1,2.4,1c0.9,0,1.7-0.3,2.3-0.8c0.6-0.5,0.9-1.2,0.9-1.9
			c0-0.6-0.2-1.2-0.5-1.7C281.6,178.5,280.3,177.2,278.4,175.7z M279.9,173.8c1.1-0.9,1.7-1.7,2-2.2c0.3-0.5,0.4-1.2,0.4-1.9
			c0-0.9-0.3-1.6-0.8-2.2c-0.5-0.5-1.2-0.8-2.1-0.8c-0.9,0-1.6,0.3-2.2,0.8c-0.6,0.5-0.8,1.1-0.8,1.8c0,0.5,0.1,0.9,0.3,1.4
			c0.2,0.5,0.6,0.9,1,1.3L279.9,173.8z"/>
	</g>
</g>
</svg>
