<svg xmlns="http://www.w3.org/2000/svg" viewBox="0 0 287.78 198.52"><defs><style>.cls-1{fill:#03b6eb;}.cls-2{fill:#a3e1f6;}.cls-3{fill:#56c9f0;}.cls-4{fill:#a7e2f7;}.cls-5{fill:#53c8f0;}.cls-6{fill:#59caf0;}.cls-7{fill:#aae3f7;}.cls-8{fill:#383f44;}.cls-9{fill:#fefefe;}.cls-10{fill:#394146;}.cls-11{fill:#3a4247;}</style></defs><title>top-app-development-companies</title><g id="Layer_2" data-name="Layer 2"><g id="Layer_1-2" data-name="Layer 1"><path class="cls-1" d="M0,179.94V18.58c.12-.2,0-.41.06-.62s0-.37,0-.55a15,15,0,0,1,2-7.25,19.47,19.47,0,0,1,7-7.49A15.67,15.67,0,0,1,17.4.06H18c.21,0,.43.06.63-.06H269.26c.2.12.41,0,.62.06h.55a15.28,15.28,0,0,1,8,2.44,19.46,19.46,0,0,1,7.7,8.43,15.21,15.21,0,0,1,1.62,6.93V180.65a15.88,15.88,0,0,1-2.45,8.45,19.6,19.6,0,0,1-8.52,7.78,15,15,0,0,1-6.82,1.59H17.87a16.7,16.7,0,0,1-9.94-3.4A19.31,19.31,0,0,1,1.84,188a14.36,14.36,0,0,1-1.78-6.83q0-.28,0-.55C0,180.36.12,180.14,0,179.94Z"/><path class="cls-2" d="M18.92,198.43a.43.43,0,0,0,0,.09H17.74a.23.23,0,0,0,0-.11Z"/><path class="cls-3" d="M18.58,0c-.18.18-.4.1-.61.1q-.06,0,0-.07l0,0Z"/><path class="cls-4" d="M18,0a.94.94,0,0,1,0,.1h-.59a.62.62,0,0,0,0-.1Z"/><path class="cls-5" d="M.1,18c0,.21.07.43-.1.61V18C0,17.92.06,17.92.1,18Z"/><path class="cls-6" d="M0,179.94c.18.18.11.4.1.61q-.06.09-.1,0Z"/><path class="cls-7" d="M0,180.54H.1q0,.3,0,.59H0Z"/><path class="cls-4" d="M.1,18H0v-.6H.1Z"/><path class="cls-8" d="M143.88,3h124.5a16.42,16.42,0,0,1,16.21,13.64,17.67,17.67,0,0,1,.24,3q0,79.61,0,159.21a16.5,16.5,0,0,1-16.63,16.67H19.62A16.41,16.41,0,0,1,3.28,182.25a14.5,14.5,0,0,1-.3-3Q3,99.24,3,19.19A16.41,16.41,0,0,1,17.66,3.07C18.37,3,19.09,3,19.8,3Z"/><path class="cls-9" d="M171.1,170.33a5.35,5.35,0,0,1-2.66,1.63,5.94,5.94,0,0,1-6.46-2.74,7.91,7.91,0,0,1,0-8.68c2.78-4.51,9.68-4.1,12.16.64a12.13,12.13,0,0,1,1.23,4.5,22.32,22.32,0,0,1-.56,8.61,7.32,7.32,0,0,1-5.48,5.47,7.7,7.7,0,0,1-4.06-.08,5.8,5.8,0,0,1-4-4.93c-.05-.28.1-.34.32-.36,1.12-.12,2.25-.23,3.37-.38.45-.06.41.24.47.5a2.22,2.22,0,0,0,1.55,1.86,2.51,2.51,0,0,0,2.58-.64,3.54,3.54,0,0,0,.9-1.45A16,16,0,0,0,171.1,170.33Z"/><path class="cls-9" d="M142.79,168.68a20.84,20.84,0,0,1-1,6.79,6.5,6.5,0,0,1-9.38,3.74,6.3,6.3,0,0,1-3.21-4.1,24.9,24.9,0,0,1,0-12.64,8,8,0,0,1,.53-1.39c1.22-2.62,3.37-3.81,6.54-3.65a6.22,6.22,0,0,1,5.55,4.51A21,21,0,0,1,142.79,168.68Z"/><path class="cls-9" d="M118,175.66h2.87c1.69,0,3.37,0,5.06,0,.37,0,.52.07.51.48,0,1,0,2,0,3,0,.35-.11.43-.44.43q-7,0-14,0c-.35,0-.41-.09-.36-.43a11.26,11.26,0,0,1,2.88-5.82c1.41-1.62,3-3.06,4.54-4.54a20.36,20.36,0,0,0,2-2.08,4.43,4.43,0,0,0,1-3.71,2.47,2.47,0,0,0-2.23-2.07,2.82,2.82,0,0,0-3,1.31,4.56,4.56,0,0,0-.45,1.65c0,.25-.11.34-.37.31-1.2-.13-2.41-.25-3.61-.35-.37,0-.26-.27-.24-.47a6.25,6.25,0,0,1,5.48-5.84,10.72,10.72,0,0,1,3.73,0c4,.79,6,4.44,4.66,8.41a12.72,12.72,0,0,1-3.68,5.18L119,174.33A6,6,0,0,0,118,175.66Z"/><path class="cls-9" d="M186.48,83.3c0,.65,0,1.3,0,1.95,0,2.52,0,5,0,7.56,0,.42-.06.62-.54.57-.66-.07-1.56.28-1.93-.13s-.1-1.24-.1-1.89c0-3.63,0-7.26,0-10.89,0-.43.09-.58.55-.56,1,0,2.06,0,3.09,0,.41,0,.53.15.63.5.73,2.79,1.48,5.58,2.33,8.38.22-.83.45-1.66.67-2.49.52-2,1-4,1.56-6,.07-.29.17-.43.51-.42,1.11,0,2.22,0,3.33,0,.33,0,.44.09.44.43q0,6.31,0,12.62c0,.35-.12.44-.44.42a16.34,16.34,0,0,0-1.67,0c-.4,0-.49-.11-.49-.5,0-3.05,0-6.11,0-9.16a.82.82,0,0,0-.09-.43c-.16.6-.32,1.2-.47,1.8-.64,2.59-1.29,5.19-1.91,7.78-.1.41-.27.54-.68.51a6.14,6.14,0,0,0-1.37,0c-.64.09-.82-.19-1-.77-.72-3.06-1.49-6.11-2.25-9.17a1,1,0,0,0-.06-.15Z"/><path class="cls-9" d="M124.39,114.62c.25-.17.22-.44.28-.66q1-3.87,2-7.75c.09-.35.21-.49.59-.48,1.09,0,2.18,0,3.27,0,.34,0,.43.11.43.44q0,6.31,0,12.62c0,.36-.14.43-.45.42a16.16,16.16,0,0,0-1.67,0c-.41,0-.49-.13-.49-.5,0-3,0-6,0-8.93a1.7,1.7,0,0,0-.09-.66c-.24.93-.48,1.86-.71,2.79-.56,2.27-1.13,4.53-1.67,6.8-.09.37-.22.52-.62.5a13,13,0,0,0-1.67,0c-.39,0-.54-.1-.63-.49-.76-3.14-1.54-6.27-2.32-9.4,0-.07,0-.16-.14-.21,0,1.14,0,2.27,0,3.4,0,2.06,0,4.13,0,6.19,0,.37-.07.53-.49.51a17.09,17.09,0,0,0-1.73,0c-.28,0-.37-.08-.37-.37q0-6.37,0-12.74c0-.29.09-.37.37-.37,1.13,0,2.26,0,3.39,0,.42,0,.43.26.49.51q1.09,4.07,2.17,8.15Z"/><path class="cls-1" d="M138,148.78c.2-.62.39-1.23.59-1.85.48-1.49,1-3,1.46-4.46a.62.62,0,0,0-.27-.83c-1.64-1.16-3.25-2.34-4.87-3.52l-.53-.4c.2-.22.43-.12.63-.12,2,0,4,0,6.07,0a.63.63,0,0,0,.72-.52c.56-1.78,1.14-3.55,1.72-5.32l.39-1.18,1,3.22c.36,1.09.73,2.18,1.06,3.28a.62.62,0,0,0,.72.51c2,0,4,0,6.07,0h.58c0,.26-.17.29-.29.38-1.65,1.21-3.29,2.42-5,3.59a.76.76,0,0,0-.35,1c.65,1.89,1.25,3.8,1.87,5.7.05.17.1.33.17.56a1.35,1.35,0,0,1-.63-.36c-1.64-1.18-3.28-2.37-4.91-3.57a.54.54,0,0,0-.77,0c-1.63,1.2-3.27,2.39-4.91,3.58l-.51.36Z"/><path class="cls-9" d="M151.36,163.72a14.65,14.65,0,0,1-5.46,3.14c0-1.23,0-2.4,0-3.56,0-.35.25-.36.45-.44a12.79,12.79,0,0,0,4.32-3,6.56,6.56,0,0,0,1.34-2.09c.09-.22.18-.36.46-.35.93,0,1.86,0,2.8,0,.28,0,.39.07.38.37s0,.83,0,1.25q0,10,0,19.94c0,.5-.12.64-.62.62-1,0-2.06,0-3.09,0-.47,0-.58-.11-.58-.58,0-4.84,0-9.68,0-14.52Z"/><path class="cls-9" d="M89.87,29.25A3,3,0,0,1,92,32.37a3.52,3.52,0,0,1-2.13,3.48,11.09,11.09,0,0,1-5.14.68,17.32,17.32,0,0,1-2.78-.28c-.3-.06-.38-.17-.38-.46q0-6,0-12c0-.23,0-.4.31-.45a17.73,17.73,0,0,1,6.68,0,3.32,3.32,0,0,1,2.68,4.18A3.23,3.23,0,0,1,89.87,29.25Z"/><path class="cls-9" d="M159.82,110.72c0,2.64,0,5.27,0,7.91,0,.45-.08.64-.57.59a10.21,10.21,0,0,0-1.55,0c-.37,0-.48-.09-.47-.46,0-1.13,0-2.26,0-3.39,0-3,0-6,0-8.93,0-.51.08-.76.66-.69s1.5-.23,2,.12.75,1.09,1.1,1.66l4.27,7c.18-.15.1-.34.1-.49,0-2.56,0-5.12,0-7.68,0-.42.06-.62.54-.56.66.08,1.53-.27,1.94.14s.1,1.25.1,1.9c0,3.61,0,7.22,0,10.83,0,.51-.14.64-.63.61-.71,0-1.56.21-2.1-.1s-.8-1.14-1.18-1.74l-4.16-6.7Z"/><path class="cls-9" d="M214,84.69c0,2.83,0,5.46,0,8.1,0,.47-.12.62-.58.58a10.56,10.56,0,0,0-1.55,0c-.38,0-.46-.12-.46-.47q0-6.25,0-12.5c0-.38.08-.53.49-.5.73,0,1.59-.2,2.16.11s.81,1.12,1.18,1.73l4.23,6.9c.19-.15.1-.34.1-.5,0-2.56,0-5.12,0-7.68,0-.44.09-.6.55-.56a8.38,8.38,0,0,0,1.49,0c.46,0,.56.12.56.56,0,3.41,0,6.83,0,10.24,0,.73,0,1.47,0,2.2,0,.35-.07.5-.45.48a6.66,6.66,0,0,1-2.23-.08c-.63-.28-.86-1.18-1.25-1.81-1.32-2.12-2.63-4.24-3.95-6.36Z"/><path class="cls-9" d="M136.81,60.53a6.61,6.61,0,0,1,2-5.13c1.81-1.7,4-1.85,6.3-1.38a5.91,5.91,0,0,1,4.67,5.28,9.28,9.28,0,0,1-.45,4.68,5.59,5.59,0,0,1-4.47,3.66A6.87,6.87,0,0,1,139,66.37C137.31,64.94,136.79,63,136.81,60.53Z"/><path class="cls-9" d="M156.93,86.37a6.61,6.61,0,0,1,2-5.14c1.81-1.69,4-1.84,6.3-1.37a5.91,5.91,0,0,1,4.67,5.28,9.28,9.28,0,0,1-.45,4.68A5.59,5.59,0,0,1,165,93.47a6.87,6.87,0,0,1-5.84-1.26C157.44,90.78,156.92,88.83,156.93,86.37Z"/><path class="cls-9" d="M103.1,112.22a6.62,6.62,0,0,1,2-5.14c1.82-1.69,4-1.84,6.3-1.37A5.91,5.91,0,0,1,116.1,111a9.29,9.29,0,0,1-.45,4.68,5.6,5.6,0,0,1-4.48,3.65,6.87,6.87,0,0,1-5.84-1.27C103.6,116.62,103.09,114.67,103.1,112.22Z"/><path class="cls-9" d="M96.48,86.62q0-3.12,0-6.25c0-.23-.08-.48.32-.47,2,0,4,0,6.07.05a4.7,4.7,0,0,1,4.45,3.51,9.69,9.69,0,0,1,0,6.36,4.9,4.9,0,0,1-4.84,3.53c-1.86,0-3.73,0-5.59,0-.42,0-.42-.2-.42-.51C96.48,90.79,96.48,88.71,96.48,86.62Z"/><path class="cls-9" d="M196.09,109.78a3.48,3.48,0,0,0-.42,0c-.56.07-1,.07-1.13-.69a1.22,1.22,0,0,0-.55-.75,3.6,3.6,0,0,0-3.56.08,1,1,0,0,0,.26,1.7,9.5,9.5,0,0,0,2.31.74,15.19,15.19,0,0,1,2.49.76,3.64,3.64,0,0,1,2.41,3.55,3.71,3.71,0,0,1-2.36,3.73,7.6,7.6,0,0,1-6,0,4.47,4.47,0,0,1-2.62-3.78c0-.25,0-.36.28-.38.67-.05,1.34-.11,2-.19.29,0,.36.11.44.35a3,3,0,0,0,4.43,1.82,1.62,1.62,0,0,0,1-1.48c0-.72-.53-1.09-1.15-1.27-1-.3-2.07-.55-3.09-.85a5.39,5.39,0,0,1-2.45-1.28,3.54,3.54,0,0,1,.88-5.69,6.87,6.87,0,0,1,6.09,0,3.7,3.7,0,0,1,2.08,3.19c0,.31-.07.38-.35.38s-.71,0-1.07.06Z"/><path class="cls-1" d="M203.58,170.2c-6.94,0-13.89,0-20.83,0-.62,0-.77-.17-.75-.76,0-1.25,0-1.26,1.26-1.26h41.07c1,0,.84-.05.85.87,0,1.13,0,1.13-1.12,1.13Z"/><path class="cls-1" d="M84.19,170.2H63.42c-.77,0-.77,0-.78-.75,0-1.25,0-1.25,1.23-1.25h41.07c.94,0,.8-.06.8.78,0,1.22,0,1.22-1.2,1.22Z"/><path class="cls-9" d="M180.48,119.21c-1.55,0-3.09,0-4.64,0-.4,0-.5-.11-.5-.5q0-6.25,0-12.5c0-.41.15-.48.51-.48q4.49,0,9,0c.4,0,.58.07.54.51a8.21,8.21,0,0,0,0,1.31c0,.38-.12.46-.47.46-2.08,0-4.17,0-6.25,0-.44,0-.59.09-.56.55a13.75,13.75,0,0,1,0,1.9c0,.47.14.55.57.54,1.88,0,3.77,0,5.65,0,.47,0,.58.14.54.57s.22,1.27-.1,1.6-1.05.1-1.6.1c-1.53,0-3.06,0-4.58,0-.35,0-.49.07-.47.45q0,1.4,0,2.8c0,.38.11.46.47.46,2.16,0,4.32,0,6.49,0,.45,0,.65.08.6.57a6.54,6.54,0,0,0,0,1.25c0,.38-.11.46-.47.46C183.61,119.2,182,119.21,180.48,119.21Z"/><path class="cls-9" d="M134.14,86.63c0-2,0-4,0-6.07,0-.49.07-.67.63-.67,2.94,0,5.87,0,8.81,0,.44,0,.65.08.6.57a6.85,6.85,0,0,0,0,1.25c0,.38-.11.46-.47.46-2.08,0-4.17,0-6.25,0-.44,0-.59.09-.56.55a16.48,16.48,0,0,1,0,2c0,.41.14.49.51.48,1.9,0,3.81,0,5.71,0,.46,0,.58.13.54.57s.22,1.27-.1,1.61-1.05.1-1.6.1c-1.53,0-3.06,0-4.58,0-.35,0-.49.07-.47.45q0,1.4,0,2.8c0,.38.11.46.47.46,2.16,0,4.32,0,6.49,0,.44,0,.65.08.6.57a8,8,0,0,0,0,1.31c0,.32-.11.4-.41.4-3.15,0-6.31,0-9.46,0-.41,0-.43-.18-.43-.5C134.15,90.8,134.14,88.71,134.14,86.63Z"/><path class="cls-9" d="M199.29,86.66c0-2.06,0-4.13,0-6.19,0-.42.07-.58.54-.57,3,0,6,0,9,0,.37,0,.54.07.51.48-.05.57.23,1.31-.1,1.67s-1.08.11-1.65.11q-2.53,0-5.06,0c-.36,0-.48.09-.47.46,0,.69,0,1.39,0,2.08,0,.39.13.45.48.45,1.9,0,3.81,0,5.71,0,.41,0,.63,0,.57.53s.24,1.32-.13,1.64-1.06.09-1.61.09c-1.51,0-3,0-4.52,0-.37,0-.52.08-.5.48,0,.91,0,1.83,0,2.74,0,.4.13.49.5.49,2.16,0,4.32,0,6.49,0,.43,0,.61.08.57.55s.17,1.27-.11,1.61-1,.11-1.59.11c-2.7,0-5.4,0-8.09,0-.42,0-.53-.11-.53-.53C199.3,90.78,199.29,88.72,199.29,86.66Z"/><path class="cls-9" d="M109.73,86.65c0-2.08,0-4.17,0-6.25,0-.38.1-.5.49-.5q4.52,0,9,0c.39,0,.53.11.5.5a7.22,7.22,0,0,0,0,1.19c0,.45-.09.61-.57.6-2,0-4.09,0-6.13,0-.48,0-.6.14-.58.59a18.4,18.4,0,0,1,0,1.9c0,.38.09.5.49.5,1.9,0,3.81,0,5.71,0,.43,0,.6.08.56.55s.18,1.29-.1,1.61-1.08.11-1.65.11c-1.51,0-3,0-4.52,0-.4,0-.5.11-.49.5,0,.87,0,1.75,0,2.62,0,.45.09.6.57.6,2.14,0,4.29,0,6.43,0,.45,0,.6.11.55.56s.22,1.26-.1,1.61-1.05.1-1.6.1c-2.66,0-5.32,0-8,0-.56,0-.64-.17-.64-.67C109.75,90.69,109.73,88.67,109.73,86.65Z"/><path class="cls-9" d="M177.07,36.39c-1.57,0-1.57,0-2.09-1.47s-.49-1.39-2-1.39c-1,0-2,0-3,0a.72.72,0,0,0-.86.64c-.17.61-.42,1.19-.6,1.8-.09.31-.22.46-.57.44-.73,0-1.47,0-2.2,0-.39,0-.49-.08-.35-.46,1.48-4.11,3-8.21,4.84-12.18a.78.78,0,0,1,.88-.57,10.22,10.22,0,0,0,1.72,0c.43,0,.61.15.78.52,1.85,4,3.4,8.06,4.86,12.18.17.48,0,.54-.4.51S177.42,36.39,177.07,36.39Z"/><path class="cls-9" d="M142.62,119.21l1.77-4.47c1.13-2.83,2.26-5.65,3.37-8.49.14-.36.28-.54.71-.51.75.05,1.67-.22,2.2.13s.62,1.27.9,1.95l4.49,11,.16.41h-2.81c-.26,0-.27-.19-.33-.35-.32-.79-.63-1.58-.92-2.38a.49.49,0,0,0-.55-.38c-1.49,0-3,0-4.46,0a.52.52,0,0,0-.58.43c-.27.78-.59,1.55-.87,2.33-.07.2-.13.35-.39.35C144.43,119.2,143.56,119.21,142.62,119.21Z"/><path class="cls-9" d="M66.47,93.37c-.87,0-1.72,0-2.57,0a.46.46,0,0,1-.51-.36c-.29-.78-.61-1.55-.89-2.33a.53.53,0,0,0-.59-.43c-1.49,0-3,0-4.46,0a.48.48,0,0,0-.56.38c-.26.77-.57,1.52-.83,2.28a.55.55,0,0,1-.64.45,16.65,16.65,0,0,0-2,0c-.52,0-.47-.16-.32-.53q2.16-5.4,4.3-10.8l.07-.16c.28-.65.33-1.63.86-1.88a6.51,6.51,0,0,1,2.4-.11.36.36,0,0,1,.39.27L66.5,93.24S66.49,93.28,66.47,93.37Z"/><path class="cls-9" d="M178.8,33.29c0-2,0-4,0-6.07,0-.42.12-.59.53-.67a15.21,15.21,0,0,1,4.06-.41,4.72,4.72,0,0,1,4.76,4.79,7.54,7.54,0,0,1-.24,2.42,4.23,4.23,0,0,1-5.5,3.05c-.72-.2-.72-.2-.72.57s0,1.63,0,2.44c0,.37-.07.54-.48.51a14.61,14.61,0,0,0-1.84,0c-.44,0-.57-.09-.57-.55C178.82,37.33,178.8,35.31,178.8,33.29Z"/><path class="cls-9" d="M191.84,36.18c0,1.13,0,2.18,0,3.23,0,.4-.11.51-.5.49a17.78,17.78,0,0,0-1.9,0c-.42,0-.48-.14-.48-.51q0-6.13,0-12.26c0-.24,0-.47.3-.54a12.49,12.49,0,0,1,5.24-.32,4.59,4.59,0,0,1,3.75,4.47,7,7,0,0,1-.48,3.32,4.22,4.22,0,0,1-5.25,2.32Z"/><path class="cls-9" d="M151.65,60.79q0-3.12,0-6.25c0-.22-.09-.49.31-.48,2.24.06,4.48-.12,6.72.1a3.51,3.51,0,0,1,3.2,2.89,4.11,4.11,0,0,1-2.47,5.05,7.31,7.31,0,0,1-2.41.3c-.71,0-1.43,0-2.14,0-.38,0-.46.11-.46.47,0,1.39,0,2.78,0,4.16,0,.37-.07.54-.49.51a12.52,12.52,0,0,0-1.72,0c-.44,0-.57-.1-.57-.55C151.67,64.92,151.65,62.86,151.65,60.79Z"/><path class="cls-9" d="M133.19,112.46q0-3.09,0-6.19c0-.23-.11-.54.33-.52,2.24.06,4.48-.12,6.72.11a3.53,3.53,0,0,1,3.2,3,4.11,4.11,0,0,1-2.51,5,7.29,7.29,0,0,1-2.35.29c-.71,0-1.43,0-2.14,0-.38,0-.51.09-.5.49,0,1.37,0,2.74,0,4.11,0,.46-.14.58-.57.55a10.93,10.93,0,0,0-1.66,0c-.48,0-.55-.15-.54-.57C133.2,116.59,133.19,114.52,133.19,112.46Z"/><path class="cls-9" d="M171.78,86.6c0-2,0-4.09,0-6.13,0-.41.05-.6.54-.58,2.16.07,4.32-.11,6.48.11A3.54,3.54,0,0,1,182,83a4.15,4.15,0,0,1-2.2,4.85,5.27,5.27,0,0,1-2,.39c-.93,0-1.86,0-2.8,0-.4,0-.49.12-.49.5,0,1.37,0,2.74,0,4.11,0,.41-.09.56-.52.53a13.68,13.68,0,0,0-1.72,0c-.42,0-.53-.1-.53-.52C171.79,90.77,171.78,88.69,171.78,86.6Z"/><path class="cls-9" d="M67.57,86.61c0-2.06,0-4.13,0-6.19,0-.41.11-.54.53-.53,2.16.07,4.32-.12,6.48.1a3.53,3.53,0,0,1,3.26,3,4.1,4.1,0,0,1-2.46,5,6.75,6.75,0,0,1-2.23.31c-.77,0-1.55,0-2.32,0-.38,0-.51.09-.5.49,0,1.35,0,2.7,0,4,0,.52-.15.65-.63.6a7.55,7.55,0,0,0-1.43,0c-.56.06-.74-.09-.73-.69C67.6,90.66,67.57,88.64,67.57,86.61Z"/><path class="cls-9" d="M79.72,86.64q0-3.12,0-6.25c0-.22-.09-.49.31-.48,2.24.06,4.48-.12,6.72.1A3.51,3.51,0,0,1,90,82.9a4.11,4.11,0,0,1-2.48,5.05,7.31,7.31,0,0,1-2.41.3c-.71,0-1.43,0-2.14,0-.38,0-.46.11-.46.47,0,1.39,0,2.78,0,4.16,0,.37-.07.53-.49.51a12.5,12.5,0,0,0-1.72,0c-.44,0-.57-.1-.56-.55C79.74,90.76,79.72,88.7,79.72,86.64Z"/><path class="cls-9" d="M96.12,105.51a5.12,5.12,0,0,1,5.32,3.71c.13.38,0,.52-.34.57-.63.09-1.25.2-1.87.33-.29.06-.4,0-.51-.31a2.69,2.69,0,0,0-2.59-1.9,3,3,0,0,0-3,1.83,7.61,7.61,0,0,0,0,5.52A2.89,2.89,0,0,0,96.07,117,2.86,2.86,0,0,0,98.7,115c.29-.78.29-.78,1.09-.53l1.07.34c.77.24.77.24.51,1-.92,2.57-2.69,3.7-5.72,3.68a5.73,5.73,0,0,1-5.38-4,9.21,9.21,0,0,1,0-6A5.76,5.76,0,0,1,96.12,105.51Z"/><path class="cls-9" d="M120.57,79.91c.84,0,1.67,0,2.51,0,.36,0,.46.15.56.44q1.52,4.49,3.06,9c0,.13.1.25.19.46l2.21-6.7c.31-.94.62-1.88.93-2.82.06-.2.11-.36.38-.36.86,0,1.73,0,2.66,0-.64,1.8-1.25,3.53-1.86,5.26-.91,2.55-1.83,5.1-2.73,7.66a.68.68,0,0,1-.8.55c-.65,0-1.31,0-2,0a.48.48,0,0,1-.56-.37q-2.29-6.49-4.61-13S120.55,80,120.57,79.91Z"/><path class="cls-1" d="M160.63,134.58c.53,1.61,1.06,3.18,1.55,4.77a.67.67,0,0,0,.79.57c1.64,0,3.29,0,5.11,0l-1.16.86c-1,.74-2,1.49-3,2.2a.61.61,0,0,0-.26.84c.53,1.57,1,3.16,1.56,4.78a.7.7,0,0,1-.48-.23c-1.25-.91-2.51-1.81-3.75-2.73a.5.5,0,0,0-.72,0c-1.21.9-2.44,1.78-3.66,2.66l-.61.42.86-2.66c.24-.75.47-1.52.74-2.26a.6.6,0,0,0-.27-.83c-1.2-.84-2.38-1.71-3.57-2.58l-.48-.38a.72.72,0,0,1,.53-.09c1.49,0,3,0,4.46,0a.68.68,0,0,0,.78-.59c.4-1.35.85-2.68,1.29-4A1.66,1.66,0,0,1,160.63,134.58Z"/><path class="cls-1" d="M131.83,148.72c-1.5-1.09-2.85-2.05-4.18-3a.61.61,0,0,0-.87,0c-1.33,1-2.68,2-4,3-.12-.29,0-.5.11-.71.44-1.38.88-2.76,1.35-4.12a.6.6,0,0,0-.26-.83c-1.36-1-2.7-1.95-4-2.93.16-.21.35-.12.51-.12,1.51,0,3,0,4.52,0a.61.61,0,0,0,.7-.52c.49-1.58,1-3.16,1.59-4.92.15.42.25.68.33.94.44,1.34.88,2.67,1.29,4a.58.58,0,0,0,.67.49c1.66,0,3.32,0,5,0,0,.25-.16.29-.27.37-1.17.86-2.32,1.74-3.52,2.54a.86.86,0,0,0-.38,1.21c.48,1.34.9,2.71,1.34,4.06C131.7,148.24,131.74,148.39,131.83,148.72Z"/><path class="cls-9" d="M132.52,33.7c.12.7.22,1.35.34,2,0,.23,0,.37-.24.44a8.4,8.4,0,0,1-5.81,0,4.22,4.22,0,0,1-2.61-3.37,6.32,6.32,0,0,1,.59-4.32c1.64-2.94,6.11-3.24,7.88-.52a6.47,6.47,0,0,1,.79,4.07c0,.37-.3.3-.52.3h-5.35c-.6,0-.66.1-.38.64a2.17,2.17,0,0,0,1.59,1.13A7.35,7.35,0,0,0,132.52,33.7Z"/><path class="cls-9" d="M101.37,31.22c0,1.45,0,2.9,0,4.35,0,.22.07.46-.29.54a13.57,13.57,0,0,1-5.19.39,3.32,3.32,0,0,1-3.07-3.2,62,62,0,0,1-.12-6.66c0-.23.1-.31.32-.31.73,0,1.47,0,2.2,0,.38,0,.35.22.35.46,0,1.55,0,3.1,0,4.64a7.63,7.63,0,0,0,.12,1.42c.19,1,.63,1.29,1.62,1.3h.24c.95,0,.95,0,.95-1,0-2.1,0-4.21,0-6.31,0-.42.12-.55.53-.53a14.87,14.87,0,0,0,1.78,0c.44,0,.58.09.57.55C101.35,28.33,101.37,29.77,101.37,31.22Z"/><path class="cls-9" d="M114.7,31.5c0-1.47,0-2.93,0-4.4a.44.44,0,0,1,.41-.52,15.27,15.27,0,0,1,4.89-.39,3.46,3.46,0,0,1,3.27,3.2,29.65,29.65,0,0,1,.1,3.68c0,1,0,1.9,0,2.86,0,.37-.11.49-.47.47-.61,0-1.23,0-1.84,0-.43,0-.58-.09-.57-.55,0-1.57,0-3.13,0-4.7a9.13,9.13,0,0,0-.1-1.24,1.36,1.36,0,0,0-1.52-1.33c-1.3,0-1.3,0-1.3,1.23,0,2,0,4,0,6,0,.48-.14.61-.6.58a17.07,17.07,0,0,0-1.78,0c-.38,0-.51-.09-.5-.5C114.71,34.43,114.7,33,114.7,31.5Z"/><path class="cls-9" d="M230.44,87.78c0,1.69,0,3.37,0,5.06,0,.48-.15.56-.57.53a12.05,12.05,0,0,0-1.66,0c-.45,0-.56-.11-.55-.55,0-3.33,0-6.66,0-10,0-.57-.17-.69-.69-.67-1,0-1.9,0-2.86,0-.41,0-.51-.13-.48-.51a8,8,0,0,0,0-1.25c0-.42.1-.53.52-.53,2.58,0,5.16,0,7.73,0,.69,0,1.39,0,2.08,0,.32,0,.47.07.45.42,0,.59.23,1.34-.1,1.73s-1.08.09-1.65.11a14,14,0,0,1-1.72,0c-.48,0-.54.15-.54.57C230.45,84.41,230.44,86.1,230.44,87.78Z"/><path class="cls-9" d="M132.43,62c0,1.71,0,3.41,0,5.12,0,.36-.09.48-.46.46a16.07,16.07,0,0,0-1.84,0c-.42,0-.48-.14-.48-.51,0-3.35,0-6.7,0-10.06,0-.51-.1-.68-.64-.66-1,.05-2,0-3,0-.3,0-.43-.07-.41-.4a14.56,14.56,0,0,0,0-1.49c0-.33.12-.39.41-.39q5,0,9.94,0c.34,0,.45.1.43.44a10,10,0,0,0,0,1.31c0,.41-.09.55-.52.54-1,0-2,0-3,0-.36,0-.47.08-.46.46C132.44,58.5,132.43,60.23,132.43,62Z"/><path class="cls-9" d="M137.08,36.64a9.58,9.58,0,0,1-2.92-.45c-.31-.1-.47-.2-.36-.58a14.81,14.81,0,0,0,.32-1.57c0-.28.14-.34.43-.24a7.32,7.32,0,0,0,2.91.49,4.37,4.37,0,0,0,.53-.05.65.65,0,0,0,.6-.49.64.64,0,0,0-.39-.73c-.44-.23-.89-.42-1.34-.62s-.77-.31-1.14-.49A2.89,2.89,0,0,1,134,28.8a2.85,2.85,0,0,1,2.23-2.49,8.16,8.16,0,0,1,4.51.19c.2.06.32.15.23.38a1.32,1.32,0,0,0-.05.17c-.12.54-.09,1.23-.41,1.58s-1-.15-1.49-.17a6.84,6.84,0,0,0-1.48,0c-.33.06-.62.19-.69.56a.69.69,0,0,0,.46.76c.39.2.79.36,1.19.53s.88.36,1.3.58a2.8,2.8,0,0,1,1.67,3,2.75,2.75,0,0,1-2.21,2.49A8.44,8.44,0,0,1,137.08,36.64Z"/><path class="cls-9" d="M201.85,36.64a9.59,9.59,0,0,1-2.92-.45c-.32-.1-.46-.22-.34-.59a9,9,0,0,0,.3-1.45c.05-.42.22-.45.58-.31a6.88,6.88,0,0,0,2.85.45,2.25,2.25,0,0,0,.7-.13c.48-.19.51-.75.06-1.09a6.38,6.38,0,0,0-1.39-.66c-.36-.16-.74-.29-1.09-.46a2.91,2.91,0,0,1-1.8-3.22,3,3,0,0,1,2.46-2.5,8.7,8.7,0,0,1,4.23.24c.25.07.34.18.26.47-.14.47-.23,1-.32,1.45-.06.32-.16.46-.54.32a5.36,5.36,0,0,0-2.4-.28c-.39,0-.77.13-.85.59s.23.66.57.81c.72.33,1.46.6,2.17.95a2.89,2.89,0,0,1,1.79,3.58,2.55,2.55,0,0,1-1.63,1.83A6.91,6.91,0,0,1,201.85,36.64Z"/><path class="cls-9" d="M145,36.67a10.44,10.44,0,0,1-3-.47c-.3-.09-.47-.19-.35-.58.18-.59.08-1.39.45-1.74s1,.24,1.61.31a7.49,7.49,0,0,0,2.07.07c.3,0,.59-.14.66-.5A.66.66,0,0,0,146,33c-.79-.37-1.6-.69-2.38-1.07a3,3,0,0,1,.79-5.71,8.56,8.56,0,0,1,4.11.25c.26.07.36.19.29.47q-.2.78-.35,1.56c-.06.3-.19.32-.45.22a5.78,5.78,0,0,0-2.34-.31c-.42,0-.88.08-1,.6s.3.7.67.87c.76.34,1.55.62,2.28,1a2.86,2.86,0,0,1,1.55,3.58c-.39,1.37-1.5,1.81-2.73,2A14.75,14.75,0,0,1,145,36.67Z"/><path class="cls-9" d="M105.47,36.63a9.39,9.39,0,0,1-2.87-.41c-.38-.12-.58-.22-.44-.68s.08-1.35.43-1.68,1,.24,1.56.31a7.13,7.13,0,0,0,2.13.08c.3,0,.59-.14.66-.5a.68.68,0,0,0-.44-.76c-.42-.22-.86-.4-1.29-.59s-.66-.26-1-.41a3,3,0,0,1,.64-5.76,8.79,8.79,0,0,1,4.17.25c.27.07.34.21.27.47-.13.5-.24,1-.34,1.51-.06.3-.15.38-.47.27a5.73,5.73,0,0,0-2.4-.3c-.41,0-.83.12-.91.61s.27.67.63.84a19.16,19.16,0,0,1,2.84,1.33,2.9,2.9,0,0,1-.4,4.93,5.73,5.73,0,0,1-2.19.49C105.86,36.64,105.66,36.63,105.47,36.63Z"/><path class="cls-9" d="M146.36,86.64c0-2.08,0-4.16,0-6.25,0-.39.1-.51.49-.49a15.38,15.38,0,0,0,1.78,0c.4,0,.49.12.48.5,0,3.37,0,6.74,0,10.11,0,.5.12.62.62.61,1.88,0,3.77,0,5.65,0,.41,0,.56.1.53.52a6.82,6.82,0,0,0,0,1.25c0,.44-.14.51-.54.51q-4.25,0-8.51,0c-.4,0-.49-.11-.49-.49C146.37,90.8,146.36,88.72,146.36,86.64Z"/><path class="cls-9" d="M159.7,30.13a7,7,0,0,1-2.94,5.73,4.82,4.82,0,0,1-3.76.65,2.78,2.78,0,0,1-2.2-2.1,7.61,7.61,0,0,1,2.37-7.14,4.89,4.89,0,0,1,4.2-.93C158.87,26.65,159.72,27.95,159.7,30.13Z"/><path class="cls-9" d="M157.61,39.72a8.78,8.78,0,0,0,1.82-3.45q1.26-5.32,2.54-10.63c0-.13.07-.27.1-.4.84-3.43,3.33-4,6.09-3.42.47.11.59.31.3.72a1.32,1.32,0,0,0-.19.37c-.14.47-.38.48-.86.38-1.89-.39-3.09.08-3.57,2.1-.26,1.07-.28,1.07.82,1.07.6,0,1.19,0,1.79,0,.29,0,.43,0,.35.39C166.57,28,166.58,28,165.4,28c-.58,0-1.15,0-1.73,0-.33,0-.47.08-.55.43-.6,2.6-1.24,5.2-1.87,7.8a7.91,7.91,0,0,1-1.42,3.1,1.2,1.2,0,0,1-1.41.55A7.73,7.73,0,0,0,157.61,39.72Z"/><path class="cls-9" d="M170.39,112.48c0-2.08,0-4.16,0-6.24,0-.38.09-.52.49-.5a13,13,0,0,0,1.72,0c.45,0,.56.11.56.56,0,3.77,0,7.53,0,11.3,0,.53.24,1.23-.11,1.53s-1,.08-1.49.09c-1.13,0-1.13,0-1.13-1.14Q170.39,115.27,170.39,112.48Z"/><path class="cls-9" d="M113.4,31.36c0,1.51,0,3,0,4.52,0,.38-.08.53-.49.51-.63,0-1.27,0-1.9,0-.34,0-.49-.06-.49-.45q0-4.58,0-9.17c0-.33.08-.46.43-.45.67,0,1.35,0,2,0,.36,0,.43.13.42.45C113.39,28.31,113.4,29.83,113.4,31.36Z"/><path class="cls-9" d="M111.91,25.15a1.59,1.59,0,0,1-1.65-1.7,1.71,1.71,0,0,1,3.42,0A1.61,1.61,0,0,1,111.91,25.15Z"/><path class="cls-10" d="M164.93,164.85a6.88,6.88,0,0,1,.35-2.25,2.49,2.49,0,0,1,4.12-1,4.69,4.69,0,0,1,1.33,3.85,4.15,4.15,0,0,1-.54,2.11,2.67,2.67,0,0,1-4.7-.06A5.76,5.76,0,0,1,164.93,164.85Z"/><path class="cls-10" d="M138.26,168.67a22.28,22.28,0,0,1-.35,5.44,4.41,4.41,0,0,1-.47,1.27,2,2,0,0,1-1.85,1.08,2,2,0,0,1-1.82-1.13,7.39,7.39,0,0,1-.73-2.92,42.44,42.44,0,0,1,.1-8.19,6.18,6.18,0,0,1,.6-2.16,2,2,0,0,1,1.86-1.16,2,2,0,0,1,1.85,1.16,8.76,8.76,0,0,1,.79,3.69C138.3,166.73,138.26,167.7,138.26,168.67Z"/><path class="cls-10" d="M84.55,32.31c0-.53-.21-1.24.05-1.55s1-.1,1.59-.12a4.63,4.63,0,0,1,1.75.24A1.54,1.54,0,0,1,88,33.74a7.39,7.39,0,0,1-3.22.29c-.24,0-.28-.16-.28-.36,0-.46,0-.91,0-1.37Z"/><path class="cls-10" d="M84.5,26.9c0-1.44,0-1.43,1.47-1.44a4.79,4.79,0,0,1,1.53.17,1.24,1.24,0,0,1,1,1.21,1.27,1.27,0,0,1-.94,1.29,9.17,9.17,0,0,1-2.77.21c-.23,0-.24-.14-.24-.31C84.5,27.66,84.5,27.28,84.5,26.9Z"/><path class="cls-10" d="M139.64,60.7a10.25,10.25,0,0,1,.17-1.57,3.47,3.47,0,0,1,3.43-2.89A3.39,3.39,0,0,1,146.85,59a7,7,0,0,1-.09,3.81,3.41,3.41,0,0,1-3.4,2.53,3.51,3.51,0,0,1-3.43-2.53A7.27,7.27,0,0,1,139.64,60.7Z"/><path class="cls-10" d="M159.76,86.58a9.55,9.55,0,0,1,.18-1.65,3.47,3.47,0,0,1,3.4-2.85A3.39,3.39,0,0,1,167,84.84a7.32,7.32,0,0,1,0,3.59,3.47,3.47,0,0,1-3.58,2.77,3.56,3.56,0,0,1-3.44-2.91A8.77,8.77,0,0,1,159.76,86.58Z"/><path class="cls-10" d="M105.93,112.44a9.79,9.79,0,0,1,.17-1.65,3.48,3.48,0,0,1,3.39-2.87,3.4,3.4,0,0,1,3.65,2.74,7.26,7.26,0,0,1,0,3.7,3.46,3.46,0,0,1-3.6,2.68,3.57,3.57,0,0,1-3.39-2.89A8.62,8.62,0,0,1,105.93,112.44Z"/><path class="cls-10" d="M99.22,86.64c0-1.33,0-2.65,0-4,0-.39.11-.52.5-.49.75,0,1.51,0,2.25.08a2.74,2.74,0,0,1,2.87,2.67,10.33,10.33,0,0,1-.06,3.89A2.53,2.53,0,0,1,102,91.07c-.79,0-1.58,0-2.38,0-.34,0-.44-.09-.43-.43C99.24,89.33,99.22,88,99.22,86.64Z"/><path class="cls-10" d="M171.94,26.24c.4,1,.77,2,1.12,2.91.21.55.4,1.12.61,1.67.09.24,0,.32-.22.32h-3c-.4,0-.34-.18-.24-.45C170.8,29.25,171.34,27.81,171.94,26.24Z"/><path class="cls-10" d="M151.12,113.83h-3.54l1.74-4.68Z"/><path class="cls-10" d="M57.9,88l1.74-4.67L61.44,88Z"/><path class="cls-10" d="M181.68,31.2c0-.71,0-1.43,0-2.14,0-.29.1-.41.39-.46a2.44,2.44,0,0,1,3.13,2.58,5.12,5.12,0,0,1-.11,1.42,2.12,2.12,0,0,1-3.21,1.25c-.22-.14-.19-.32-.19-.51C181.68,32.62,181.68,31.91,181.68,31.2Z"/><path class="cls-10" d="M195.36,31.4l0,.58a2.08,2.08,0,0,1-3.11,2,.52.52,0,0,1-.39-.56c0-1.42,0-2.85,0-4.28,0-.36.13-.47.47-.5C194.34,28.38,195.45,29.45,195.36,31.4Z"/><path class="cls-10" d="M155.87,56.33a12.86,12.86,0,0,1,1.72.11,1.8,1.8,0,0,1,.09,3.56,18.55,18.55,0,0,1-3,.14c-.24,0-.31-.09-.3-.32,0-1.05,0-2.1,0-3.16,0-.31.14-.36.39-.35S155.51,56.33,155.87,56.33Z"/><path class="cls-10" d="M135.95,109.89c0-.5,0-1,0-1.49,0-.32.1-.41.41-.4.91,0,1.83,0,2.73.11a1.76,1.76,0,0,1,1.61,1.76,1.78,1.78,0,0,1-1.6,1.83,24,24,0,0,1-2.79.12c-.31,0-.36-.13-.35-.39C136,110.92,135.95,110.41,135.95,109.89Z"/><path class="cls-10" d="M174.53,84c0-.5,0-1,0-1.49,0-.25,0-.41.35-.39.93,0,1.86,0,2.79.11A1.76,1.76,0,0,1,179.28,84a1.78,1.78,0,0,1-1.61,1.83,24,24,0,0,1-2.79.12c-.31,0-.36-.13-.35-.39C174.54,85.08,174.53,84.57,174.53,84Z"/><path class="cls-10" d="M70.33,84.09q0-.45,0-.89c0-1,0-1.06,1-1a17.75,17.75,0,0,1,2.14.1,1.81,1.81,0,0,1,.08,3.57,20,20,0,0,1-2.91.14c-.27,0-.33-.11-.33-.35C70.34,85.12,70.33,84.6,70.33,84.09Z"/><path class="cls-10" d="M83.93,82.17a13.2,13.2,0,0,1,1.72.11,1.8,1.8,0,0,1,0,3.57,20.66,20.66,0,0,1-2.91.13c-.29,0-.31-.14-.31-.37,0-1,0-2,0-3,0-.36.13-.44.45-.42S83.59,82.17,83.93,82.17Z"/><path class="cls-11" d="M128.89,30.34h-1.54c-.24,0-.3-.09-.27-.32a1.82,1.82,0,0,1,1.75-1.56,1.7,1.7,0,0,1,1.82,1.37c.08.36.07.56-.39.52S129.35,30.34,128.89,30.34Z"/><path class="cls-10" d="M157.91,29.95a6.21,6.21,0,0,1-2,4.52,2.5,2.5,0,0,1-.88.49c-1.42.46-2.51-.16-2.6-1.6a6,6,0,0,1,1.72-4.82,2.54,2.54,0,0,1,.41-.34A2.34,2.34,0,0,1,157,28C157.82,28.36,157.85,29.16,157.91,29.95Z"/><path class="cls-1" d="M44.93,165.24c-.32-.44-.62-.83-.9-1.23a18.91,18.91,0,0,1-3.44-7.26,7.54,7.54,0,0,1,3-7.93,11.7,11.7,0,0,1,2.4-1.42.44.44,0,0,1,.65.17,39.41,39.41,0,0,1,5.18,9.73c1.47,4.58.08,8.3-3.89,11a11.81,11.81,0,0,1-7.61,2.21,14.72,14.72,0,0,1-7.14-2.57,34.18,34.18,0,0,1-9.57-9.74c-.28-.42-.08-.53.25-.68a12.66,12.66,0,0,1,9.24-.37,24.53,24.53,0,0,1,8.14,4.94q1.67,1.39,3.24,2.89A.62.62,0,0,0,44.93,165.24Z"/><path class="cls-1" d="M243.44,164.83a52.24,52.24,0,0,1,6.89-5.57,16.26,16.26,0,0,1,7.16-2.72,12.26,12.26,0,0,1,6.51,1c.29.14.46.23.22.6-3,4.41-6.52,8.26-11.3,10.77-3.7,1.94-7.53,2.33-11.36.4A12.14,12.14,0,0,1,237,165.6a8.84,8.84,0,0,1-1-8.34,37.26,37.26,0,0,1,4.7-9c.75-1.12.75-1.13,2-.46a8.46,8.46,0,0,1,4.52,5.33,9.14,9.14,0,0,1-.42,5.32,24.09,24.09,0,0,1-3.45,6.22,1.12,1.12,0,0,1-.17.35A.47.47,0,0,1,243.44,164.83Z"/><path class="cls-1" d="M255.08,149.32a38.4,38.4,0,0,1,6.76-7.48,13.25,13.25,0,0,1,8.61-3.08,11.06,11.06,0,0,1,3.28.53c.25.08.44.15.29.49-2.14,4.73-4.85,9-9.22,12a11.43,11.43,0,0,1-12,.93,10.57,10.57,0,0,1-5-4.19,9.89,9.89,0,0,1-.9-7,38,38,0,0,1,3-9c.1-.21.18-.37.48-.28,3.23,1,5.79,2.68,6.74,6.14a11.64,11.64,0,0,1-.36,6.22,25.68,25.68,0,0,1-1.85,4.57s0,.1,0,.14S255,149.34,255.08,149.32Z"/><path class="cls-1" d="M32.76,149.09a22.23,22.23,0,0,1-2.28-6.85c-.59-4.56,1.33-7.83,5.62-9.53,1.53-.61,1.53-.61,2.19.87A33.38,33.38,0,0,1,41,142.47a9,9,0,0,1-4.8,9.65A13.4,13.4,0,0,1,30.13,154a12.33,12.33,0,0,1-8.36-3.06A28.19,28.19,0,0,1,15,142.26c-.41-.75-.76-1.52-1.12-2.29-.21-.46-.08-.61.36-.73a12.48,12.48,0,0,1,10.71,1.86,32.2,32.2,0,0,1,7.36,7.63l.35.48s.08.08.12,0A.12.12,0,0,0,32.76,149.09Z"/><path class="cls-1" d="M263.77,132.18a37.06,37.06,0,0,1,4.31-6.9,12.16,12.16,0,0,1,9.77-4.84,10.89,10.89,0,0,1,1.89.18c.26,0,.41.12.33.42-1.21,4.77-3,9.26-6.73,12.68a10.71,10.71,0,0,1-10.84,2.43,15.2,15.2,0,0,1-3-1.08,9.18,9.18,0,0,1-5.13-8.2,33.68,33.68,0,0,1,1.28-9.81c.06-.23.15-.39.44-.34,3.32.56,6.09,2,7.58,5.16a11.7,11.7,0,0,1,.71,6.13,32.87,32.87,0,0,1-.79,4,.53.53,0,0,0,0,.25A.61.61,0,0,1,263.77,132.18Z"/><path class="cls-1" d="M24.18,132.06a23.47,23.47,0,0,1-.92-6.15c.07-6,4.1-8.48,8.36-9.18.21,0,.37,0,.44.25,1,3.8,1.77,7.64,1.09,11.57-.65,3.72-3.06,6-6.52,7.2a12.59,12.59,0,0,1-7.12.66,12.18,12.18,0,0,1-7.11-5,28.06,28.06,0,0,1-4.63-10.28c-.1-.39,0-.52.42-.58a11.58,11.58,0,0,1,9.45,2.58,24.82,24.82,0,0,1,5.58,7.42c.31.55.58,1.13.87,1.69a1.09,1.09,0,0,1,.3.52v0l0-.1C24.2,132.54,24.26,132.28,24.18,132.06Z"/><path class="cls-1" d="M19.07,114.89a21.54,21.54,0,0,1,.21-5.75,9.16,9.16,0,0,1,9.15-7.94c.84,0,.88,0,.93.8a29,29,0,0,1-.78,9.91,10,10,0,0,1-8.27,7,15.45,15.45,0,0,1-4.55.18,10.25,10.25,0,0,1-7.51-5.48,22.18,22.18,0,0,1-2.64-8.22c-.11-.85-.21-1.69-.3-2.54s0-.82.69-.81a10.72,10.72,0,0,1,9,4.36,26,26,0,0,1,3.71,8c.08.26.17.53.26.79.17.1.13.29.19.44v.05c0,.07,0,.06,0,0s0-.11,0-.16S19.15,115.08,19.07,114.89Z"/><path class="cls-1" d="M268.76,115.49a28.51,28.51,0,0,1,4-9,10.79,10.79,0,0,1,9.08-4.47c.57,0,.73.19.68.77a26.06,26.06,0,0,1-2.73,10.45c-1.65,3.1-4.07,5.33-7.65,5.8a12.44,12.44,0,0,1-10.32-2.86,9.68,9.68,0,0,1-2.89-5.48,31.34,31.34,0,0,1-.44-9.05c0-.24.05-.45.36-.43,3.38.13,6.3,1.19,8.26,4.14a12.15,12.15,0,0,1,1.7,5.87,21.89,21.89,0,0,1-.14,4.21c0,.07,0,.15,0,.22S268.7,115.51,268.76,115.49Z"/><path class="cls-1" d="M270.68,98.36a30.37,30.37,0,0,1,1.57-7.73,9.72,9.72,0,0,1,8.58-6.71c.25,0,.53-.15.59.27.59,4.23.53,8.42-1.31,12.36a8.82,8.82,0,0,1-8,5.26,13.06,13.06,0,0,1-6.94-1.26c-2.82-1.47-4.31-4-5.29-6.83a38.21,38.21,0,0,1-1.55-7c-.08-.57.07-.75.65-.78,5-.32,8.54,1.88,10.31,6.36a20.52,20.52,0,0,1,1.3,6.08c.13.14,0,.33.11.51s.07-.07,0,0,0,0,0,0A.83.83,0,0,1,270.68,98.36Z"/><path class="cls-1" d="M17.26,98.72a16.22,16.22,0,0,1,2.57-8.84c2.28-3.28,5.58-4.23,9.39-3.9.38,0,.33.28.29.51-.27,1.66-.47,3.33-.91,5a19.27,19.27,0,0,1-2.41,5.92,9.81,9.81,0,0,1-7.1,4.31,13,13,0,0,1-5.84-.27,9,9,0,0,1-5.89-5.55,21.63,21.63,0,0,1-1.23-9.48c0-.65.14-1.3.2-2,0-.39.16-.57.64-.52a9.8,9.8,0,0,1,8.62,6.83,31.61,31.61,0,0,1,1.56,8c.11.18,0,.38.05.54C17.24,99.09,17.15,98.9,17.26,98.72Z"/><path class="cls-1" d="M18.43,81.68a38,38,0,0,1,1.8-4.39,11.11,11.11,0,0,1,4.92-5.24A10.49,10.49,0,0,1,32,71.33c.31.06.47.17.36.51-1.08,3.33-2.24,6.63-4.46,9.4a10.47,10.47,0,0,1-9.69,3.94,11.67,11.67,0,0,1-4.3-1.05,8.19,8.19,0,0,1-4.49-6.6,23.17,23.17,0,0,1,1.13-10.37c.13-.43.38-.36.68-.29a8.68,8.68,0,0,1,7,7.1,23.74,23.74,0,0,1,.3,6.46C18.48,80.85,18.45,81.26,18.43,81.68Z"/><path class="cls-1" d="M269.4,81.81a33.15,33.15,0,0,1,0-6.65c.49-4.35,3-7.33,7.12-8.28.45-.1.66-.06.81.43a24.21,24.21,0,0,1,1.23,8.9,9.28,9.28,0,0,1-2.67,6.55,7.88,7.88,0,0,1-2.93,1.77,13.31,13.31,0,0,1-7.21.42,10.76,10.76,0,0,1-6.94-5.3,36.09,36.09,0,0,1-3.3-7.68c-.13-.41-.08-.59.39-.67,4.24-.77,7.78.31,10.4,3.86a18.54,18.54,0,0,1,3,6.74.86.86,0,0,1,.1.67C269.51,82.29,269.35,82,269.4,81.81Z"/><path class="cls-1" d="M22.72,65.95a17.68,17.68,0,0,1,4.85-6.75,9.73,9.73,0,0,1,9.53-1.67c.24.08.52.11.32.51a27.69,27.69,0,0,1-5.93,8.77A10.47,10.47,0,0,1,22,69.42a10.5,10.5,0,0,1-4.54-1.81,7.36,7.36,0,0,1-2.86-6.13,21.34,21.34,0,0,1,2.06-8.79c.19-.44.41-.86.58-1.3s.29-.4.63-.3a7.93,7.93,0,0,1,5.64,6.7,23.12,23.12,0,0,1-.8,7.65c0,.1,0,.19-.06.29s0,.21,0,.32A.71.71,0,0,0,22.72,65.95Z"/><path class="cls-1" d="M265.22,65.85a28.6,28.6,0,0,1-1-7,7.94,7.94,0,0,1,5.53-7.66c.43-.15.65-.12.86.33a23.91,23.91,0,0,1,2.59,9.45c.09,3.2-.95,6.13-4.53,7.65a11.45,11.45,0,0,1-10.06-.1,13.21,13.21,0,0,1-4.37-3.88,34,34,0,0,1-3.84-6.41c-.18-.39-.11-.53.29-.67,4.11-1.43,8.39-.09,11.37,3.55a21.75,21.75,0,0,1,3,4.91c.18.17.2.43.3.57A1.29,1.29,0,0,1,265.22,65.85Z"/><path class="cls-1" d="M258.78,51.21a30.89,30.89,0,0,1-1.86-6,7.37,7.37,0,0,1,4-8.33c.45-.22.71-.22,1,.25a23.76,23.76,0,0,1,3.86,9.07,6.93,6.93,0,0,1-4.56,8.06,11.07,11.07,0,0,1-8.29.29,14.47,14.47,0,0,1-5.23-3.74,41.15,41.15,0,0,1-4.19-5.32c-.26-.38-.23-.54.21-.72a9.65,9.65,0,0,1,9.67.94,19.54,19.54,0,0,1,5.23,5.63C258.8,51.39,258.83,51.33,258.78,51.21Z"/><path class="cls-1" d="M29.15,51.31a18.93,18.93,0,0,1,5.53-5.82A9.6,9.6,0,0,1,44,44.74c.42.17.54.32.24.75a35.73,35.73,0,0,1-5.35,6.44,11.48,11.48,0,0,1-6.09,3.15,11.14,11.14,0,0,1-8.2-1.9c-2.44-1.7-3.1-4.2-2.63-7a23.38,23.38,0,0,1,4-9.15c.24-.37.46-.31.79-.17a7.32,7.32,0,0,1,4.21,8.07A29.63,29.63,0,0,1,29,51.19c0,.08,0,.16,0,.24Z"/><path class="cls-1" d="M37.51,37.87a20.34,20.34,0,0,1,5.71-4.71,9.34,9.34,0,0,1,9.12,0c.64.34.65.36.16.91A29.6,29.6,0,0,1,45,40.58a10.39,10.39,0,0,1-11.23-.32,6.08,6.08,0,0,1-2.79-7,19.47,19.47,0,0,1,3.8-7.34c.46-.6,1-1.15,1.43-1.75.28-.37.51-.37.88-.14a6.63,6.63,0,0,1,2.94,7.69,22.84,22.84,0,0,1-2.34,5.45l-.34.62c0,.14-.06.29-.18.37h0A1,1,0,0,1,37.51,37.87Z"/><path class="cls-1" d="M250.57,38a23.15,23.15,0,0,1-2.93-6.73,6.56,6.56,0,0,1,3-7.25c.38-.24.61-.26.93.11a25.5,25.5,0,0,1,4.79,7.61,8.35,8.35,0,0,1,.6,4.14,6.47,6.47,0,0,1-4,5c-4.08,2-7.9,1.44-11.54-1.1A35.86,35.86,0,0,1,235.23,34c-.37-.42-.25-.59.17-.82a9.43,9.43,0,0,1,9.63.22,21,21,0,0,1,5.42,4.68s.06,0,.09,0A.08.08,0,0,0,250.57,38Z"/></g></g></svg>