<?xml version="1.0" encoding="utf-8"?>
<!-- Generator: Adobe Illustrator 22.0.1, SVG Export Plug-In . SVG Version: 6.00 Build 0)  -->
<svg version="1.1" id="Layer_1" xmlns="http://www.w3.org/2000/svg" xmlns:xlink="http://www.w3.org/1999/xlink" x="0px" y="0px"
	 viewBox="0 0 497.3 200" style="enable-background:new 0 0 497.3 200;" xml:space="preserve">
<style type="text/css">
	.st0{fill:#151410;}
	.st1{fill:#BD2126;}
	.st2{fill:#28265B;}
</style>
<path class="st0" d="M19.5,34.8h-5.2l-1-4.2H6.7l-1,4.2H0.5v-0.1l6.8-22.1h5.5L19.5,34.8z M12.5,27.8l-2.5-10l-2.6,10H12.5z"/>
<path class="st0" d="M60.6,34.8h-5.2l-1.1-4.2h-6.5l-1.1,4.2h-5.2v-0.1l6.7-22.1h5.5L60.6,34.8z M53.6,27.8l-2.5-10l-2.6,10H53.6z"
	/>
<path class="st0" d="M39.2,24.8c0,1.4-1.1,2-3.2,2h-8.4v8h-5.2V12.8H36c2.1,0,3.2,0.7,3.2,2V24.8z M34,15.6h-6.4V24H34V15.6z"/>
<path class="st0" d="M80.6,32.8c0,1.3-1.1,2-3.2,2H66.6c-2.1,0-3.1-0.7-3.1-2v-18c0-1.4,1-2,3.1-2h10.9c2.1,0,3.2,0.7,3.2,2V20h-5.2
	v-4.4h-6.8V32h6.8v-4.6h5.2V32.8z"/>
<rect x="114.9" y="0.2" class="st1" width="5.5" height="33.8"/>
<path class="st1" d="M143.6,31c0,2.1-1.1,3.1-3.4,3.1h-12c-2.2,0-3.3-1-3.3-3.1V3.3c0-2.1,1.1-3.1,3.3-3.1h12c2.2,0,3.4,1,3.4,3.1
	V31z M138.1,4.6h-7.6v25.2h7.6V4.6z"/>
<path class="st0" d="M160.2,35.7c-3.9,0-6.9-1.2-8.8-3.5c-2-2.3-2.9-5.8-2.9-10.5c0-3,0.5-5.6,1.4-7.8c1-2.2,2.4-3.8,4.2-4.9
	c1.9-1.1,4.1-1.7,6.6-1.7c4,0,7,1.2,9,3.5c2,2.3,3,5.8,3,10.3c0,2.6-0.3,4.8-0.9,6.6c-0.6,1.8-1.4,3.3-2.5,4.5
	c-1.1,1.2-2.4,2-3.9,2.6C163.8,35.4,162,35.7,160.2,35.7 M154.7,21.2c0,4.1,0.5,7.1,1.4,9.1c1,2,2.4,3,4.4,3c1,0,1.9-0.3,2.6-0.8
	c0.7-0.6,1.3-1.3,1.7-2.3c0.4-1,0.8-2.2,1-3.6c0.2-1.4,0.3-2.9,0.3-4.5c0-2.7-0.2-4.9-0.6-6.8c-0.4-1.8-1.1-3.2-1.9-4.1
	c-0.8-0.9-1.9-1.4-3.2-1.4c-1.9,0-3.4,0.9-4.3,2.8C155.2,14.4,154.7,17.3,154.7,21.2"/>
<path class="st0" d="M176,15.3h7.8v11.3c0,1.3,0,2.3,0.1,3c0.1,0.7,0.2,1.3,0.5,1.7c0.2,0.4,0.5,0.7,0.8,0.9
	c0.3,0.2,0.7,0.3,1.3,0.3c0.5,0,1-0.2,1.6-0.5c0.5-0.3,1-0.7,1.4-1.3c0.4-0.6,0.6-1.2,0.6-1.8v-7.8c0-1,0-1.7-0.1-2.2
	c0-0.5-0.1-0.9-0.2-1.1c-0.1-0.3-0.3-0.5-0.5-0.7c-0.2-0.2-0.6-0.3-1.2-0.5v-1.3h7.8v14.2c0,1,0,1.8,0.1,2.3c0,0.5,0.1,0.9,0.2,1.1
	c0.1,0.3,0.3,0.5,0.6,0.7c0.3,0.2,0.7,0.3,1.3,0.5v1.4l-5.4,0.2h-2.4l0.2-2.9l-0.2-0.1c-1.2,1.2-2.3,2-3.3,2.4c-1,0.5-2,0.7-2.9,0.7
	c-1.4,0-2.5-0.3-3.4-0.8c-0.8-0.5-1.5-1.3-1.8-2.4c-0.4-1-0.6-2.4-0.6-4v-7.4c0-0.8,0-1.3,0-1.7c0-0.4,0-0.7-0.1-0.9
	c0-0.2-0.1-0.4-0.2-0.6c-0.1-0.2-0.2-0.3-0.3-0.5c-0.1-0.2-0.3-0.3-0.5-0.4c-0.2-0.1-0.5-0.2-0.9-0.3V15.3z"/>
<path class="st0" d="M214.6,33c-1.2,1-2.2,1.7-3.2,2.1c-1,0.4-2,0.6-3,0.6c-2,0-3.5-0.5-4.4-1.6c-1-1.1-1.5-2.7-1.5-4.9V17.8h-2.5
	v-1.4c0.8-0.1,1.4-0.3,1.8-0.6c0.4-0.3,0.7-0.6,0.9-1.1c0.2-0.5,0.4-1,0.5-1.8c0.1-0.7,0.2-1.6,0.3-2.7h4.8v5.1h5.7v2.5h-5.7V27
	c0,1.5,0.1,2.7,0.2,3.4c0.1,0.7,0.4,1.3,0.7,1.6c0.3,0.3,0.8,0.5,1.2,0.5c0.4,0,0.7,0,1-0.1c0.3-0.1,0.6-0.2,0.9-0.4
	c0.3-0.2,0.7-0.4,1-0.8L214.6,33z"/>
<path class="st0" d="M223.3,29.9c0,1.3,0,2.2,0.1,2.7c0.1,0.5,0.2,0.9,0.5,1.2c0.2,0.3,0.7,0.5,1.4,0.7v1.3h-9.8v-1.3
	c0.4-0.1,0.7-0.2,0.9-0.3c0.2-0.1,0.4-0.3,0.5-0.4c0.1-0.2,0.2-0.4,0.3-0.6c0.1-0.3,0.2-0.6,0.2-1.1c0-0.5,0-1.1,0-2V14
	c0-1.2,0-2,0-2.6c0-0.6-0.1-1-0.1-1.4c-0.1-0.4-0.2-0.7-0.3-0.9c-0.1-0.2-0.3-0.4-0.6-0.5c-0.3-0.1-0.7-0.3-1.2-0.4V6.9l5.5-0.3h2.5
	V29.9z"/>
<path class="st0" d="M238.2,35.7c-2,0-3.7-0.3-5.1-1c-1.4-0.7-2.5-1.8-3.3-3.3c-0.8-1.5-1.2-3.5-1.2-5.9c0-1.8,0.2-3.4,0.7-4.7
	c0.5-1.3,1.2-2.4,2.1-3.3c0.9-0.9,1.9-1.5,3.2-1.9c1.2-0.4,2.5-0.6,4-0.6c3.2,0,5.7,0.9,7.3,2.6c1.6,1.7,2.5,4.2,2.5,7.6
	c0,2.3-0.4,4.3-1.2,5.9c-0.8,1.6-2,2.8-3.5,3.5C242,35.3,240.2,35.7,238.2,35.7 M234.7,25c0,2.9,0.3,5,0.9,6.4
	c0.6,1.4,1.6,2.1,2.9,2.1c0.7,0,1.3-0.2,1.8-0.5c0.5-0.4,0.9-0.9,1.1-1.6c0.3-0.7,0.5-1.5,0.6-2.5c0.1-1,0.2-2,0.2-3.3
	c0-2.9-0.3-5.1-1-6.5c-0.6-1.4-1.6-2.2-2.8-2.2c-0.9,0-1.6,0.3-2.2,0.9c-0.5,0.6-0.9,1.5-1.2,2.6C234.8,21.7,234.7,23.2,234.7,25"/>
<path class="st0" d="M261.5,35.7c-2,0-3.6-0.3-5.1-1c-1.4-0.7-2.5-1.8-3.3-3.3c-0.8-1.5-1.2-3.5-1.2-5.9c0-1.8,0.2-3.4,0.7-4.7
	c0.5-1.3,1.2-2.4,2.1-3.3c0.9-0.9,1.9-1.5,3.2-1.9c1.2-0.4,2.5-0.6,4-0.6c3.2,0,5.7,0.9,7.3,2.6c1.6,1.7,2.5,4.2,2.5,7.6
	c0,2.3-0.4,4.3-1.2,5.9c-0.8,1.6-2,2.8-3.5,3.5C265.3,35.3,263.6,35.7,261.5,35.7 M258,25c0,2.9,0.3,5,1,6.4
	c0.6,1.4,1.6,2.1,2.9,2.1c0.7,0,1.3-0.2,1.8-0.5c0.5-0.4,0.9-0.9,1.1-1.6c0.3-0.7,0.5-1.5,0.6-2.5c0.1-1,0.2-2,0.2-3.3
	c0-2.9-0.3-5.1-1-6.5c-0.6-1.4-1.6-2.2-2.8-2.2c-0.9,0-1.6,0.3-2.2,0.9c-0.5,0.6-0.9,1.5-1.2,2.6C258.1,21.7,258,23.2,258,25"/>
<path class="st0" d="M289.2,22.9l5.2,7.8c0.8,1.1,1.3,1.9,1.7,2.4c0.4,0.4,0.7,0.7,0.9,0.9c0.3,0.2,0.6,0.3,1,0.4v1.3h-9.8v-1.3
	c0.6-0.1,0.9-0.4,0.9-1c0-0.4-0.1-0.8-0.4-1.2c-0.2-0.5-0.7-1.2-1.4-2.2l-1.5-2.4c-0.3-0.5-0.6-0.9-0.8-1.1
	c-0.2-0.2-0.4-0.4-0.6-0.5c-0.2-0.1-0.5-0.2-0.9-0.2h-1v4.1c0,1.3,0,2.2,0.1,2.7c0.1,0.5,0.3,0.9,0.5,1.2c0.2,0.3,0.7,0.5,1.4,0.7
	v1.3h-9.8v-1.3c0.4-0.1,0.7-0.2,0.9-0.3c0.2-0.1,0.4-0.3,0.5-0.4c0.1-0.2,0.2-0.4,0.3-0.6c0.1-0.3,0.1-0.6,0.2-1.1c0-0.5,0-1.1,0-2
	V14c0-1.2,0-2,0-2.6c0-0.5-0.1-1-0.1-1.4c-0.1-0.4-0.2-0.7-0.3-0.9c-0.1-0.2-0.3-0.4-0.6-0.5c-0.3-0.1-0.7-0.3-1.2-0.4V6.9l5.6-0.3
	h2.5v17.1h0.7c0.5,0,0.8,0,1.1-0.1c0.3-0.1,0.5-0.2,0.8-0.5c0.3-0.2,0.7-0.6,1.3-1.1c0.6-0.5,1.1-1,1.4-1.5c0.3-0.4,0.5-0.8,0.6-1.1
	c0.1-0.3,0.2-0.6,0.2-0.9c0-0.9-0.6-1.5-1.7-1.6v-1.3h10v1.3c-0.5,0.1-1.1,0.3-1.7,0.7c-0.6,0.4-1.6,1.3-3,2.6L289.2,22.9z"/>
<path class="st1" d="M110.4,31c0,2.1-1.1,3.1-3.4,3.1H95.5c-2.2,0-3.3-1-3.3-3.1V3.3c0-2.1,1.1-3.1,3.3-3.1h11.5
	c2.3,0,3.4,1,3.4,3.1v7.9h-5.5V4.6h-7.2v25.1h7.2v-7.1h5.5V31z"/>
<g>
	<path class="st2" d="M23.8,81.7c0,4.7-3.8,8.6-8.5,8.6H1.7V58.9h12.5c4.6,0,8.2,3.7,8.2,8.2c0,3-1.6,5.6-4,6.8
		C21.5,75.2,23.8,78.1,23.8,81.7z M4.1,61.2v12h10.1c3.2,0,5.9-2.7,5.9-6c0-3.3-2.6-6-5.9-6H4.1z M21.4,81.7c0-3.5-2.8-6.3-6.2-6.3
		H4.1V88h11.1C18.6,88,21.4,85.2,21.4,81.7z"/>
	<path class="st2" d="M28.9,79.8V58.9h2.4v20.9c0,5.1,3.2,8.7,9.1,8.7c6,0,9.1-3.6,9.1-8.7V58.9h2.4v20.9c0,6.6-4.6,11-11.5,11
		C33.5,90.8,28.9,86.4,28.9,79.8z"/>
	<path class="st2" d="M57.4,83.4l2.1-1.2c1.1,3.8,4.3,6.3,9.4,6.3c5.2,0,7.9-2.7,7.9-6.3c0-3.8-3.3-5.2-8.1-6.7
		c-5.2-1.7-9.9-3.2-9.9-8.6c0-5.1,4.2-8.4,9.5-8.4c5.1,0,8.5,3,10.1,6.6l-2,1.1c-1.2-2.8-3.6-5.4-8.1-5.4c-4.3,0-7.1,2.6-7.1,6
		c0,3.8,3.2,4.9,7.7,6.4c5.6,1.8,10.4,3.6,10.4,9c0,5.2-4.1,8.6-10.3,8.6C63,90.8,58.8,87.8,57.4,83.4z"/>
	<path class="st2" d="M87.1,58.9v31.3h-2.4V58.9H87.1z"/>
	<path class="st2" d="M117.9,58.9v31.3h-2.1L97.3,63.3v26.9h-2.4V58.9h2.1l18.5,26.9V58.9H117.9z"/>
	<path class="st2" d="M143.7,88v2.2h-18V58.9h17.8v2.2H128v12.2h14.3v2.2H128V88H143.7z"/>
	<path class="st2" d="M147.7,83.4l2.1-1.2c1.1,3.8,4.3,6.3,9.4,6.3c5.2,0,7.9-2.7,7.9-6.3c0-3.8-3.3-5.2-8.1-6.7
		c-5.2-1.7-9.9-3.2-9.9-8.6c0-5.1,4.2-8.4,9.5-8.4c5.1,0,8.5,3,10.1,6.6l-2,1.1c-1.2-2.8-3.6-5.4-8.1-5.4c-4.3,0-7.1,2.6-7.1,6
		c0,3.8,3.2,4.9,7.7,6.4c5.6,1.8,10.4,3.6,10.4,9c0,5.2-4.1,8.6-10.3,8.6C153.3,90.8,149.1,87.8,147.7,83.4z"/>
	<path class="st2" d="M172.2,83.4l2.1-1.2c1.1,3.8,4.3,6.3,9.4,6.3c5.2,0,7.9-2.7,7.9-6.3c0-3.8-3.3-5.2-8.1-6.7
		c-5.2-1.7-9.9-3.2-9.9-8.6c0-5.1,4.2-8.4,9.5-8.4c5.1,0,8.5,3,10.1,6.6l-2,1.1c-1.2-2.8-3.6-5.4-8.1-5.4c-4.3,0-7.1,2.6-7.1,6
		c0,3.8,3.2,4.9,7.7,6.4c5.6,1.8,10.4,3.6,10.4,9c0,5.2-4.1,8.6-10.3,8.6C177.8,90.8,173.7,87.8,172.2,83.4z"/>
	<path class="st2" d="M214.2,58.9v31.3h-2.4V58.9H214.2z"/>
	<path class="st2" d="M244.9,58.9v31.3h-2.1l-18.5-26.9v26.9H222V58.9h2.1l18.5,26.9V58.9H244.9z"/>
	<path class="st2" d="M272,61.2h-9.8v29.1h-2.4V61.2h-9.8v-2.2H272V61.2z"/>
	<path class="st2" d="M295,88v2.2h-18V58.9h17.8v2.2h-15.4v12.2h14.3v2.2h-14.3V88H295z"/>
	<path class="st2" d="M317.9,88v2.2h-17.1V58.9h2.4V88H317.9z"/>
	<path class="st2" d="M340,88v2.2h-17.1V58.9h2.4V88H340z"/>
	<path class="st2" d="M347.3,58.9v31.3h-2.4V58.9H347.3z"/>
	<path class="st2" d="M384.9,76.9c0,7.6-5.8,13.9-15.1,13.9c-9.7,0-16.5-7.2-16.5-16.2c0-9,6.8-16.2,16.3-16.2
		c5.8,0,10.9,3,13.5,7.6l-2.1,1.3c-2.1-3.9-6.4-6.5-11.4-6.5c-8.2,0-13.9,6.2-13.9,13.9c0,7.7,5.7,13.9,14.1,13.9
		c7.6,0,12.2-4.7,12.7-10.6h-13.3v-2.2h15.7V76.9z"/>
	<path class="st2" d="M408.9,88v2.2h-18V58.9h17.8v2.2h-15.4v12.2h14.3v2.2h-14.3V88H408.9z"/>
	<path class="st2" d="M437.7,58.9v31.3h-2.1l-18.5-26.9v26.9h-2.4V58.9h2.1l18.5,26.9V58.9H437.7z"/>
	<path class="st2" d="M443.8,74.6c0-9,6.8-16.2,16.3-16.2c5.8,0,10.8,3,13.4,7.5l-2.1,1.2c-2.1-3.8-6.4-6.4-11.3-6.4
		c-8.2,0-13.9,6.2-13.9,13.9c0,7.7,5.7,13.9,13.9,13.9c5,0,9.4-2.6,11.4-6.6l2.1,1.2c-2.6,4.6-7.7,7.7-13.5,7.7
		C450.5,90.8,443.8,83.6,443.8,74.6z"/>
	<path class="st2" d="M497.2,88v2.2h-18V58.9H497v2.2h-15.4v12.2h14.3v2.2h-14.3V88H497.2z"/>
	<path class="st2" d="M0.5,145.3c0-3.8,1-7,3-9.7s5.8-5.5,11.3-8.4l-3.1-3.4c-1.8-1.9-3.2-3.9-4-5.7s-1.3-3.8-1.3-5.8
		c0-3.9,1.3-7,3.9-9.3s6.1-3.5,10.5-3.5c4.2,0,7.6,1.1,10.1,3.3c2.5,2.2,3.7,5.3,3.7,9.2c0,2.9-1,5.5-2.9,7.9
		c-1.9,2.4-5.4,5.1-10.4,8l18.6,18.8c1.7-2,3.1-4.1,4.3-6.5c1.2-2.3,2.2-5.1,3.1-8.3h3.9c-1.7,6.7-4.6,12.6-8.6,17.5l10.9,11H48
		l-7.9-8.1c-2.5,2.5-4.8,4.3-6.7,5.4c-2,1.1-4.1,2-6.5,2.6s-5,0.9-8,0.9c-5.7,0-10.2-1.4-13.5-4.2S0.5,150.4,0.5,145.3z M19.2,157.7
		c3.5,0,6.7-0.6,9.6-1.8s5.8-3.2,8.6-6l-19.9-19.9c-3.7,2-6.4,3.7-8.1,5s-2.9,2.9-3.6,4.5c-0.8,1.6-1.1,3.5-1.1,5.7
		c0,3.9,1.3,7,3.8,9.2S14.7,157.7,19.2,157.7z M10.8,112.2c0,2.2,0.5,4.2,1.6,6c1.1,1.8,3.2,4.2,6.2,7.2c4.4-2.3,7.4-4.5,9.1-6.5
		c1.7-2,2.5-4.3,2.5-6.9c0-2.6-0.8-4.7-2.5-6.3c-1.7-1.6-4-2.4-6.9-2.4c-3.1,0-5.6,0.8-7.4,2.4C11.7,107.2,10.8,109.4,10.8,112.2z"
		/>
	<path class="st2" d="M119.2,145.6H89.6l-5.7,15h-4.7l22.9-58.9h4.7l22.8,58.9h-4.7L119.2,145.6z M117.6,141.3l-13.1-34.3
		l-13.1,34.3H117.6z"/>
	<path class="st2" d="M181.4,101.6v58.9h-4l-34.8-50.7v50.7h-4.5v-58.9h3.9l34.8,50.7v-50.7H181.4z"/>
	<path class="st2" d="M230,145.6h-29.5l-5.7,15H190l22.9-58.9h4.7l22.8,58.9h-4.7L230,145.6z M228.4,141.3l-13.1-34.3l-13.1,34.3
		H228.4z"/>
	<path class="st2" d="M281.3,156.3v4.2H249v-58.9h4.5v54.7H281.3z"/>
	<path class="st2" d="M302.4,136.3v24.2h-4.5v-24.2l-21.5-34.7h5l18.7,30.4l18.6-30.4h5L302.4,136.3z"/>
	<path class="st2" d="M368.2,105.8h-18.5v54.7h-4.5v-54.7h-18.5v-4.2h41.6V105.8z"/>
	<path class="st2" d="M382,101.6v58.9h-4.5v-58.9H382z"/>
	<path class="st2" d="M393.3,131.1c0-16.8,12.7-30.4,30.6-30.4c10.9,0,20.4,5.6,25.2,14.1l-4,2.3c-3.9-7.2-12-12.1-21.3-12.1
		c-15.5,0-26.2,11.6-26.2,26.1c0,14.5,10.7,26.1,26.2,26.1c9.3,0,17.6-5,21.5-12.4l4,2.3c-4.8,8.7-14.4,14.4-25.4,14.4
		C406,161.5,393.3,147.9,393.3,131.1z"/>
	<path class="st2" d="M456.3,147.6l3.9-2.3c2,7.1,8,11.9,17.7,11.9c9.8,0,14.8-5.1,14.8-11.8c0-7.1-6.2-9.8-15.2-12.6
		c-9.8-3.2-18.7-6-18.7-16.2c0-9.7,7.8-15.8,17.8-15.8c9.7,0,16.1,5.6,18.9,12.4l-3.8,2.1c-2.2-5.3-6.7-10.2-15.1-10.2
		c-8.2,0-13.3,4.8-13.3,11.4c0,7.1,6,9.3,14.4,12c10.4,3.4,19.5,6.7,19.5,16.9c0,9.8-7.7,16.2-19.4,16.2
		C466.8,161.5,459,155.9,456.3,147.6z"/>
	<path class="st2" d="M-0.1,193.8l1.7-1c0.9,3.1,3.5,5.3,7.8,5.3c4.4,0,6.6-2.2,6.6-5.2c0-3.1-2.8-4.3-6.8-5.6
		c-4.4-1.4-8.3-2.7-8.3-7.2c0-4.3,3.5-7,7.9-7c4.3,0,7.1,2.5,8.4,5.5l-1.7,0.9c-1-2.3-3-4.5-6.7-4.5c-3.6,0-5.9,2.1-5.9,5
		c0,3.1,2.7,4.1,6.4,5.3c4.6,1.5,8.7,3,8.7,7.5c0,4.3-3.4,7.2-8.6,7.2C4.6,200,1.1,197.5-0.1,193.8z"/>
	<path class="st2" d="M21.2,186.5c0-7.5,5.9-13.5,13.5-13.5c7.5,0,13.5,6,13.5,13.5c0,7.5-5.9,13.5-13.5,13.5
		C27.2,200,21.2,194,21.2,186.5z M46.2,186.5c0-6.4-5-11.6-11.5-11.6c-6.5,0-11.5,5.2-11.5,11.6c0,6.4,5,11.6,11.5,11.6
		C41.2,198.1,46.2,192.9,46.2,186.5z"/>
	<path class="st2" d="M67.5,197.7v1.9H53.2v-26.1h2v24.3H67.5z"/>
	<path class="st2" d="M70.9,190.9v-17.4h2v17.4c0,4.3,2.7,7.2,7.6,7.2c5,0,7.6-3,7.6-7.2v-17.4h2v17.4c0,5.5-3.8,9.1-9.6,9.1
		C74.7,200,70.9,196.4,70.9,190.9z"/>
	<path class="st2" d="M112.2,175.3H104v24.3h-2v-24.3h-8.2v-1.9h18.4V175.3z"/>
	<path class="st2" d="M118.3,173.5v26.1h-2v-26.1H118.3z"/>
	<path class="st2" d="M123.3,186.5c0-7.5,5.9-13.5,13.5-13.5c7.5,0,13.5,6,13.5,13.5c0,7.5-5.9,13.5-13.5,13.5
		C129.3,200,123.3,194,123.3,186.5z M148.3,186.5c0-6.4-5-11.6-11.5-11.6c-6.5,0-11.5,5.2-11.5,11.6c0,6.4,5,11.6,11.5,11.6
		C143.3,198.1,148.3,192.9,148.3,186.5z"/>
	<path class="st2" d="M174.5,173.5v26.1h-1.8l-15.4-22.5v22.5h-2v-26.1h1.7l15.5,22.5v-22.5H174.5z"/>
	<path class="st2" d="M208,181.6c0,4.6-3.4,8.1-8.1,8.1h-6.9v10h-2v-26.1h8.9C204.5,173.5,208,176.9,208,181.6z M206,181.6
		c0-3.6-2.6-6.2-6.2-6.2h-6.9v12.4h6.9C203.4,187.8,206,185.1,206,181.6z"/>
	<path class="st2" d="M223.1,188.9h-8.3v10.7h-2v-26.1h10.3c4.3,0,7.7,3.5,7.7,7.7c0,3.5-2.4,6.5-5.7,7.4l6.5,11h-2.3L223.1,188.9z
		 M214.8,187h8.3c3.2,0,5.7-2.6,5.7-5.8c0-3.2-2.6-5.9-5.7-5.9h-8.3V187z"/>
	<path class="st2" d="M234.3,186.5c0-7.5,5.9-13.5,13.5-13.5c7.5,0,13.5,6,13.5,13.5c0,7.5-5.9,13.5-13.5,13.5
		C240.2,200,234.3,194,234.3,186.5z M259.2,186.5c0-6.4-5-11.6-11.5-11.6c-6.5,0-11.5,5.2-11.5,11.6c0,6.4,5,11.6,11.5,11.6
		C254.2,198.1,259.2,192.9,259.2,186.5z"/>
	<path class="st2" d="M262.4,173.5h2.2l8.6,23.6l8.7-23.6h2.1l-9.7,26.1h-2.1L262.4,173.5z"/>
	<path class="st2" d="M289.7,173.5v26.1h-2v-26.1H289.7z"/>
	<path class="st2" d="M318.3,186.5c0,7.2-5.1,13.1-12.3,13.1h-9.8v-26.1h9.8C313.2,173.5,318.3,179.3,318.3,186.5z M316.4,186.5
		c0-6.2-4.2-11.2-10.4-11.2h-7.8v22.4h7.8C312.2,197.7,316.4,192.7,316.4,186.5z"/>
	<path class="st2" d="M338.4,197.7v1.9h-15v-26.1h14.9v1.9h-12.9v10.2h11.9v1.9h-11.9v10.4H338.4z"/>
	<path class="st2" d="M353.5,188.9h-8.3v10.7h-2v-26.1h10.3c4.3,0,7.7,3.5,7.7,7.7c0,3.5-2.4,6.5-5.7,7.4l6.5,11h-2.3L353.5,188.9z
		 M345.2,187h8.3c3.2,0,5.7-2.6,5.7-5.8c0-3.2-2.6-5.9-5.7-5.9h-8.3V187z"/>
	<path class="st2" d="M364.2,193.8l1.7-1c0.9,3.1,3.5,5.3,7.8,5.3c4.4,0,6.6-2.2,6.6-5.2c0-3.1-2.8-4.3-6.8-5.6
		c-4.4-1.4-8.3-2.7-8.3-7.2c0-4.3,3.5-7,7.9-7c4.3,0,7.1,2.5,8.4,5.5l-1.7,0.9c-1-2.3-3-4.5-6.7-4.5c-3.6,0-5.9,2.1-5.9,5
		c0,3.1,2.7,4.1,6.4,5.3c4.6,1.5,8.7,3,8.7,7.5c0,4.3-3.4,7.2-8.6,7.2C368.9,200,365.4,197.5,364.2,193.8z"/>
	<path class="st2" d="M397.2,187.2h13.4v1.8h-13.4V187.2z"/>
	<path class="st2" d="M425.4,197.8l9.6-9.9c2.3-2.3,4.2-4.8,4.2-7.4c0-3.6-2.6-5.6-5.7-5.6c-2.8,0-5,1.3-6.2,4l-1.7-1
		c1.6-3.2,4.5-4.9,7.9-4.9c4,0,7.8,2.7,7.8,7.5c0,3.2-2.2,6.1-4.9,8.8l-8.1,8.3h13.6v1.9h-16.4V197.8z"/>
	<path class="st2" d="M445.1,186.5c0-8.1,3.5-13.5,9.8-13.5c6.3,0,9.8,5.4,9.8,13.5c0,8.1-3.5,13.5-9.8,13.5
		C448.6,200,445.1,194.6,445.1,186.5z M462.7,186.5c0-7.3-2.9-11.6-7.8-11.6c-4.9,0-7.8,4.3-7.8,11.6c0,7.3,2.9,11.6,7.8,11.6
		C459.8,198.1,462.7,193.8,462.7,186.5z"/>
	<path class="st2" d="M475.2,173.5v26.1h-2v-24l-6,1.9l-0.5-1.7l6.8-2.4H475.2z"/>
	<path class="st2" d="M495.6,186.9l-8.7,12.7h-2.2l6.7-9.7c-0.9,0.3-1.9,0.4-2.9,0.4c-5.1,0-8.8-3.5-8.8-8.6c0-5.1,3.7-8.6,8.8-8.6
		c5.1,0,8.8,3.5,8.8,8.6C497.2,183.7,496.6,185.4,495.6,186.9z M488.4,188.4c4.1,0,6.8-2.8,6.8-6.7c0-3.9-2.7-6.7-6.8-6.7
		c-4.1,0-6.8,2.8-6.8,6.7C481.7,185.6,484.3,188.4,488.4,188.4z"/>
</g>
<g>
	<path class="st2" d="M376.6,2.9h-10.4v30.6h-2.5V2.9h-10.4V0.5h23.3V2.9z"/>
	<path class="st2" d="M378,17c0-9.4,7.5-17,17-17c9.5,0,17,7.6,17,17c0,9.4-7.5,17-17,17C385.5,34,378,26.4,378,17z M409.5,17
		c0-8.1-6.4-14.6-14.5-14.6c-8.1,0-14.5,6.5-14.5,14.6c0,8.1,6.4,14.6,14.5,14.6C403.1,31.6,409.5,25.1,409.5,17z"/>
	<path class="st2" d="M439.8,10.7c0,5.8-4.3,10.2-10.3,10.2h-8.7v12.6h-2.5V0.5h11.2C435.4,0.5,439.8,4.9,439.8,10.7z M437.3,10.7
		c0-4.6-3.2-7.9-7.8-7.9h-8.7v15.7h8.7C434,18.5,437.3,15.2,437.3,10.7z"/>
	<path class="st2" d="M466,0.5v32.9h-2.5V3.2l-7.6,2.4l-0.6-2.2l8.6-3H466z"/>
	<path class="st2" d="M472.6,17c0-10.2,4.4-17,12.3-17c7.9,0,12.3,6.8,12.3,17c0,10.2-4.4,17-12.3,17C477,34,472.6,27.2,472.6,17z
		 M494.7,17c0-9.2-3.7-14.6-9.8-14.6c-6.1,0-9.8,5.4-9.8,14.6c0,9.2,3.7,14.6,9.8,14.6C491,31.6,494.7,26.2,494.7,17z"/>
</g>
</svg>
