<svg height="48" viewBox="0 0 44 48" width="44" xmlns="http://www.w3.org/2000/svg"><g fill="none" fill-rule="evenodd" stroke-linecap="round" stroke-linejoin="round" stroke-width="2" transform="translate(1 1)"><g stroke="#008ccf"><path d="m20 36-4 4h12c4.418 0 8-3.582 8-8v-10"/><path d="m16 40 4 4"/><path d="m2 26 4 4 4-4"/><path d="m6 12v18"/></g><g stroke="#cfd4d8"><path d="m6 12c-3.314 0-6-2.686-6-6s2.686-6 6-6 6 2.686 6 6-2.686 6-6 6z"/><path d="m12 40c0 3.314-2.686 6-6 6s-6-2.686-6-6 2.686-6 6-6 6 2.686 6 6z"/><path d="m42 16c0 3.314-2.686 6-6 6s-6-2.686-6-6 2.686-6 6-6 6 2.686 6 6z"/></g></g></svg>