<svg height="75" viewBox="0 0 75 75" width="75" xmlns="http://www.w3.org/2000/svg"><g fill="none" fill-rule="evenodd" stroke="#008ccf" stroke-linecap="round" stroke-linejoin="round" transform="translate(1 1)"><path d="m60.25 30.25c0 16.568-13.432 30-30 30s-30-13.432-30-30 13.432-30 30-30 30 13.432 30 30zm12.5 42.5-21.25-21.25z" stroke-width="2.5"/><path d="m18.5 31.5-2-2v13h4v-13zm7-8-2 2v17h4v-17zm7-2-2 3v18h4v-19z" fill="#008ccf" fill-rule="nonzero"/><path d="m41.5 14.5-6 6-3-3-4 5-3-3-7 8-3-3"/><path d="m40 20-2.5 2.5v20h4v-20.999z" fill="#008ccf"/><path d="m43.5 12.5v4l-4-4h3.5"/></g></svg>