<svg height="44" viewBox="0 0 66 44" width="66" xmlns="http://www.w3.org/2000/svg"><g fill="none" fill-rule="evenodd" stroke-linecap="round" stroke-linejoin="round" stroke-width="2" transform="translate(1 1)"><path d="m8.83994 41.9h30.5844c6.2744 0 11.3608-5.0908 11.3608-11.3674 0-6.1182-4.8334-11.0924-10.8812-11.3454-1.584-7.0202-7.8408-12.2672-15.3362-12.2672-8.6878 0-15.7278 7.0488-15.7278 15.7432 0 .594.0374 1.1792.1056 1.7578l-.1056-.011c-4.8268 0-8.7406 3.916-8.7406 8.745s3.9138 8.745 8.7406 8.745z" stroke="#008ccf"/><path d="m54.5049 35.10134c5.3328-.935 9.394-5.566 9.394-11.1694 0-6.1182-4.8334-11.0924-10.8812-11.3432-1.584-7.0202-7.8408-12.2694-15.3362-12.2694-3.2714 0-6.3074 1.001-8.822 2.7104" stroke="#cfd4d8"/></g></svg>