<svg height="45" viewBox="0 0 50 45" width="50" xmlns="http://www.w3.org/2000/svg"><g fill="none" fill-rule="evenodd" transform="translate(2 1)"><g stroke="#008ccf" stroke-linecap="round" stroke-linejoin="round" stroke-width="2.045455" transform="translate(0 20)"><path d="m0 18.4821429h6.13636364s3.63068181-11.14678576 4.09090906-16.42857147c-1.61999997-1.54017857-10.2272727-2.05357143-10.2272727-2.05357143z"/><path d="m32.7272727 13.3482143 7.8361364-1.9673214c2.5915909-.6489286 5.2875.5934821 6.4820454 2.9941071l-11.25 5.1339286c-8.523409 3.5075-9.2372727 3.59375-13.2954545 2.0535714l-15.34090909-5.1339286"/><path d="m10.2272727 4.10714286 18.4090909 4.10714285c2.7306819.68589286 4.0909091 1.98374999 4.0909091 4.80946429v.3244643l-2.7531818.69c-.8815909.2217857-1.8.244375-2.6918182.0657143l-8.8731818-1.7825"/></g><path d="m45.333 19.667c.0000001 2.3818897-1.2707229 4.5828466-3.3334999 5.7737915-2.0627771 1.1909449-4.6042231 1.1909449-6.6670002 0-2.062777-1.1909449-3.3335-3.3919018-3.3334999-5.7737915.0000001-3.6820823 2.9849177-6.6669998 6.667-6.6669998s6.6669999 2.9849175 6.667 6.6669998z" stroke="#008ccf" stroke-linecap="round" stroke-linejoin="round" stroke-width="2"/><rect fill="#008ccf" height="5" rx="1" width="2" x="24" y="4"/><rect fill="#008ccf" height="5" rx="1" width="2" x="38" y="17"/><path d="m31.333 6.667c.0000001 2.38188972-1.270723 4.5828466-3.3335 5.7737915s-4.604223 1.1909449-6.667 0-3.3335001-3.39190178-3.3335-5.7737915c0-3.68208243 2.9849176-6.667 6.667-6.667s6.667 2.98491757 6.667 6.667z" stroke="#008ccf" stroke-linecap="round" stroke-linejoin="round" stroke-width="2"/></g></svg>