<svg height="52" viewBox="0 0 43 52" width="43" xmlns="http://www.w3.org/2000/svg"><g fill="none" fill-rule="evenodd" stroke-width="2"><g stroke="#008ccf" transform="translate(1 4.108582)"><path d="m15.844 43.2670171-12.154-.0000171c-.78061375.0026562-1.53028159-.3050329-2.08394748-.8553228-.5536659-.5502899-.86593435-1.2980618-.86805252-2.0786772v-16.133c.00238297-.7804419.31476819-1.5279569.86840532-2.0780307.55363712-.5500737 1.3031537-.8576257 2.08359468-.8549693h12.15z"/><path d="m15.85 5.133c-4.076 0-7.731 3.284-7.731 7.334v8.8h-4.429v-8.8c0-6.48 5.638-11.734 12.16-11.734z"/><path d="m15.5 25.6669829c-.780441-.0026393-1.5299576.3049127-2.0835947.8549864-.5536371.5500738-.8660223 1.2975888-.8684053 2.0780307.002585 1.1618753.6914663 2.2124585 1.756 2.678l-1.756 4.655h2.952z"/></g><g stroke="#cfd4d8" transform="translate(16 1.108582)"><path d="m25.107 25h-10.4c0 4.402-.687 8.516-1.871 12.069h8.804-8.804c-2.395 7.195-6.85 12.048-11.969 12.067 13.389-.015 24.24-10.814 24.24-24.136zm-12.897-13.793h7.696-7.696c1.567 3.912 2.496 8.66 2.496 13.793h10.4c.001-13.32-10.849-24.122-24.239-24.136 4.698.016 8.843 4.106 11.343 10.343z"/><path d="m.867 49.136c5.118-.019 9.573-4.872 11.968-12.067h-11.968zm0-48.271v10.343h11.343c-2.499-6.238-6.644-10.328-11.343-10.343zm0 36.204h11.968c1.184-3.553 1.87-7.667 1.87-12.069h-13.837v12.069z"/><path d="m.867 11.207v13.793h13.839c0-5.133-.928-9.881-2.495-13.793z"/></g></g></svg>