<svg height="48" viewBox="0 0 48 48" width="48" xmlns="http://www.w3.org/2000/svg"><g fill="none" fill-rule="evenodd" stroke-width="2" transform="translate(1 1.015676)"><g stroke="#008ccf"><path d="m19.9333333 40.6333333h25.3v-24.5333333l-12.2666666-12.26666667h-7.6666667"/><path d="m44.85 16.1h-11.8833333v-12.26666667"/><path d="m23.767 23.767h15.333m-15.333 4.6h15.333m-15.333 4.6h15.333"/></g><path d="m15.878 1.868-12.38 3.829c-1.62069786.48732003-2.73017095 1.97962228-2.73 3.672v27.074c0 1.598.99 3.029 2.486 3.59l10.286 4.527c1.187.444 2.443.673 3.708.673h.003c1.0583393-.0005521 1.9160001-.8586605 1.916-1.917v-25.682c0-.825.528-1.558 1.31-1.819l3.513-.964c.7821046-.2607529 1.309724-.9925731 1.31-1.817v-10.35c0-1.06-.858-1.917-1.916-1.917-2.542 0-5.07.371-7.506 1.101z" stroke="#cfd4d8"/></g></svg>