<svg height="45" viewBox="0 0 52 45" width="52" xmlns="http://www.w3.org/2000/svg"><g fill="none" fill-rule="evenodd" stroke-width="1.724138" transform="translate(1 1)"><path d="m0 25.6079167c0-6.5941667 6.94655172-11.94125 15.5172414-11.94125 8.5706896 0 15.5172414 5.3470833 15.5172414 11.94125 0 6.5941666-6.9465518 11.94125-15.5172414 11.94125-1.8310345 0-3.5793104-.2588125-5.2103448-.7063959l-6.85862074 4.1572292 2.8362069-5.81175c-3.80689655-2.1772708-6.28448276-5.6511667-6.28448276-9.5803333z" stroke="#008ccf"/><path d="m33.9336207 30.1478125c1.7774342-.1888247 3.5242125-.5962664 5.2-1.2129167l7.4172414 3.5234375-3.7844828-5.3129166c4.3913793-2.7692084 7.2327586-7.1066667 7.2327586-11.997625 0-8.36570837-8.2775862-15.1477917-18.487931-15.1477917-8.1431035 0-15.0344828 4.32208333-17.5 10.3132083" stroke="#cfd4d8"/></g></svg>