<svg height="80" viewBox="0 0 313 80" width="313" xmlns="http://www.w3.org/2000/svg"><g fill="none" fill-rule="evenodd"><path d="m87.606 36.53-.454-.04c-5.145-.456-9.115-4.713-9.115-9.823 0-5.445 4.487-9.865 10.03-9.865.352 0 .703.018 1.05.054l1.282.13-.2-1.273c-.1-.62-.14-1.25-.14-1.886.001-7.08 5.841-12.827 13.041-12.827 5.71 0 10.708 3.646 12.42 8.91l.34 1.05 1.01-.442c1.44-.63 3-.958 4.61-.958 6.285 0 11.37 5.01 11.37 11.18 0 .34-.015.68-.046 1.015l-.118 1.297 1.283-.22c.4-.07.81-.104 1.22-.104 3.88 0 7.02 3.094 7.02 6.902s-3.14 6.9-7.02 6.9h-47.579z" stroke="#fff" stroke-width="2"/><path d="m51.358 79.012c-6.546 0-11.852-5.306-11.852-11.852 0-6.545 5.306-11.85 11.852-11.85.7 0 1.384.06 2.05.175-.05-.546-.075-1.1-.075-1.658 0-10.09 8.18-18.27 18.272-18.27 2.636 0 5.142.557 7.406 1.562 2.68-8.36 10.51-14.41 19.76-14.41 11.46 0 20.74 9.28 20.74 20.74 0 1.03-.07 2.05-.22 3.05.56-.06 1.13-.09 1.71-.09 9 0 16.3 7.29 16.3 16.29 0 8.5-6.51 15.48-14.81 16.23v.071h-71.131z" fill="#15232b"/><path d="m121.687 78.012.692-.062c7.84-.707 13.9-7.304 13.9-15.234 0-8.448-6.85-15.296-15.3-15.296-.54 0-1.07.027-1.6.082l-1.28.134.19-1.274c.14-.956.21-1.926.21-2.905 0-10.903-8.84-19.74-19.74-19.74-8.65 0-16.21 5.605-18.81 13.707l-.34 1.06-1.02-.45c-2.19-.97-4.56-1.478-7-1.478-9.54 0-17.27 7.732-17.27 17.27 0 .527.02 1.05.07 1.57l.12 1.298-1.29-.224c-.62-.107-1.25-.16-1.88-.16-6 0-10.86 4.857-10.86 10.85 0 5.994 4.86 10.852 10.85 10.852h70.33z" stroke="#fff" stroke-width="2"/><path d="m0 77.025h92.84v1.975h-92.84zm19.753-14.815h66.173v1.975h-66.173zm17.777-14.815h32.594v1.975h-32.594zm146.8-14.435h-4.368l-16.592-25.4v25.4h-4.37v-32.96h4.37l16.637 25.512v-25.512h4.324v32.96zm25.92-8.603h-13.808l-3.102 8.603h-4.482l12.587-32.96h3.803l12.608 32.96h-4.46zm-12.495-3.576h11.205l-5.614-15.41-5.59 15.42zm47.31-17.2h-10.593v29.38h-4.324v-29.381h-10.57v-3.58h25.488v3.577zm9.554 29.39h-4.35v-32.971h4.34v32.96zm18.85-5.77 9.421-27.201h4.754l-12.224 32.96h-3.848l-12.198-32.96h4.73l9.37 27.187zm37.21-9.46h-14.279v11.68h16.6v3.56h-20.94v-32.981h20.714v3.577h-16.367v10.593h14.284v3.555zm-125.09 49.7c-.26 3.51-1.55 6.28-3.89 8.29-2.34 2.02-5.42 3.03-9.24 3.03-4.19 0-7.48-1.41-9.87-4.22-2.4-2.82-3.6-6.68-3.6-11.6v-1.99c0-3.14.55-5.9 1.65-8.29s2.68-4.22 4.74-5.5c2.05-1.27 4.44-1.91 7.16-1.91 3.76 0 6.79 1.01 9.09 3.03 2.3 2.01 3.63 4.84 3.99 8.49h-6.72c-.17-2.11-.75-3.64-1.76-4.59s-2.55-1.42-4.61-1.42c-2.24 0-3.91.81-5.03 2.41-1.11 1.61-1.68 4.1-1.71 7.47v2.46c0 3.53.54 6.1 1.61 7.73s2.75 2.44 5.05 2.44c2.07 0 3.62-.47 4.65-1.42 1.02-.95 1.61-2.41 1.76-4.4h6.72zm14.32 5.47h14.27v5.4h-21v-32.631h6.72v27.224zm46.68-10.17c0 3.21-.57 6.03-1.7 8.45-1.14 2.42-2.76 4.29-4.88 5.6-2.12 1.32-4.54 1.98-7.27 1.98-2.71 0-5.12-.65-7.24-1.95s-3.76-3.15-4.93-5.56c-1.16-2.41-1.75-5.19-1.77-8.32v-1.641c0-3.212.58-6.04 1.74-8.48 1.16-2.444 2.79-4.318 4.91-5.626 2.11-1.307 4.53-1.96 7.25-1.96s5.13.653 7.25 1.96c2.11 1.308 3.74 3.182 4.9 5.625 1.16 2.44 1.73 5.26 1.73 8.45v1.45zm-6.81-1.48c0-3.42-.62-6.02-1.84-7.79-1.23-1.78-2.97-2.66-5.24-2.66-2.26 0-4 .88-5.22 2.63-1.23 1.76-1.85 4.33-1.86 7.72v1.59c0 3.33.61 5.92 1.83 7.76s2.98 2.76 5.28 2.76c2.26 0 3.99-.882 5.2-2.652s1.82-4.35 1.84-7.74v-1.59zm39.58-15.57v21.49c0 3.57-1.12 6.4-3.35 8.47-2.24 2.08-5.29 3.12-9.16 3.12-3.81 0-6.84-1.01-9.08-3.02-2.24-2.02-3.38-4.79-3.42-8.31v-21.761h6.72v21.533c0 2.136.51 3.693 1.54 4.672 1.02.978 2.44 1.467 4.25 1.467 3.78 0 5.7-1.986 5.76-5.96v-21.712h6.74zm8.7 32.63v-32.641h10.03c2.87 0 5.43.646 7.69 1.938s4.03 3.13 5.3 5.512c1.27 2.383 1.9 5.09 1.9 8.123v1.5c0 3.033-.63 5.73-1.87 8.09-1.25 2.36-3.01 4.19-5.28 5.49s-4.84 1.956-7.69 1.97h-10.1zm6.72-27.18v21.78h3.25c2.63 0 4.63-.86 6.02-2.57 1.39-1.72 2.1-4.17 2.13-7.37v-1.73c0-3.31-.69-5.83-2.06-7.54s-3.39-2.56-6.03-2.56h-3.32z" fill="#fff"/></g></svg>