<svg height="75" viewBox="0 0 75 75" width="75" xmlns="http://www.w3.org/2000/svg" xmlns:xlink="http://www.w3.org/1999/xlink"><linearGradient id="a" x1="50%" x2="50%" y1="37.544%" y2="100%"><stop offset="0" stop-color="#008ccf" stop-opacity="0"/><stop offset="1" stop-color="#008ccf"/></linearGradient><g fill="none" fill-rule="evenodd" transform="translate(1 1)"><g stroke="#008ccf" stroke-linecap="round" stroke-linejoin="round" stroke-width="2.5"><path d="m66.5 52.75h-60c-3.45177969 0-6.25-2.7982203-6.25-6.25v-40c0-3.45177969 2.79822031-6.25 6.25-6.25h60c3.4517797 0 6.25 2.79822031 6.25 6.25v38.75c0 3.453-2.797 7.5-6.25 7.5z"/><path d="m60.25 72.75h-45v-3.75c0-3.4517797 2.7982203-6.25 6.25-6.25h32.5c3.4517797 0 6.25 2.7982203 6.25 6.25z" fill="url(#a)"/><path d="m.25 42.75h72.5zm0-35h72.5zm27.5 55h20v-10h-20zm16.25-15c0 .6903559-.5596441 1.25-1.25 1.25s-1.25-.5596441-1.25-1.25.5596441-1.25 1.25-1.25 1.25.5596441 1.25 1.25z"/></g><path d="m25.25 28.82 21.893-12.163c.193-.107.401-.157.607-.157v-3.75h7.5v7.5h-7.5v-1.07l-21.893 12.163c-.1856106.1032992-.3945809.1573492-.607.157v3.75h-7.5v-7.5h7.5z" fill="#008ccf"/></g></svg>