<?xml version="1.0" encoding="utf-8"?>
<!-- Generator: Adobe Illustrator 19.1.1, SVG Export Plug-In . SVG Version: 6.00 Build 0)  -->
<svg version="1.1" id="Layer_1" xmlns:sketch="http://www.bohemiancoding.com/sketch/ns"
	 xmlns="http://www.w3.org/2000/svg" xmlns:xlink="http://www.w3.org/1999/xlink" x="0px" y="0px" viewBox="-57 59 84 84"
	 style="enable-background:new -57 59 84 84;" xml:space="preserve">
<style type="text/css">
	.st0{fill:#EEEEEE;}
	.st1{fill:#FFFFFF;}
	.st2{fill:none;stroke:#F2EDED;}
	.st3{fill:#005EB8;}
</style>
<g sketch:type="MSShapeGroup">
	<g id="path-1">
		<path class="st0" d="M-16,140.8c-21.4,0-38.8-17.4-38.8-38.8v-2c0-21.4,17.3-38.7,38.7-38.7h2c21.4,0,38.8,17.4,38.8,38.8v2
			c0,21.4-17.4,38.8-38.8,38.8L-16,140.8L-16,140.8z"/>
		<path class="st1" d="M-14,62.3c20.8,0,37.8,16.9,37.8,37.8v2c0,20.8-16.9,37.8-37.8,37.8h-2c-20.8-0.1-37.8-17.1-37.8-37.9v-2
			c0-20.8,16.9-37.7,37.7-37.7H-14 M-14,60.3h-2c-21.9,0-39.8,17.7-39.8,39.7v2c0,22,17.8,39.8,39.8,39.8h2
			c21.9,0,39.7-17.8,39.7-39.8v-2C25.8,77.9,8,60.3-14,60.3L-14,60.3z"/>
	</g>
</g>
<g>
	<path id="path-1_1_" class="st2" d="M-16,60.3h2c22,0,39.8,17.7,39.8,39.7v2c0,22-17.8,39.8-39.8,39.8h-2
		c-21.9,0-39.8-17.8-39.8-39.8v-2C-55.8,77.9-37.9,60.3-16,60.3z"/>
</g>
<g>
	<path class="st3" d="M-10,118.1h-17.5c-1.5,0-2.7-1.2-2.7-2.7V86.6c0-1.5,1.2-2.7,2.7-2.7H-10c1.5,0,2.7,1.2,2.7,2.7v28.8
		C-7.3,116.9-8.5,118.1-10,118.1z"/>
	<path class="st0" d="M-11.1,112.7h-15.3c-0.8,0-1.5-0.7-1.5-1.5v-23c0-0.8,0.7-1.5,1.5-1.5h15.3c0.8,0,1.5,0.7,1.5,1.5v23
		C-9.6,112.1-10.3,112.7-11.1,112.7z"/>
	<circle class="st0" cx="-18.3" cy="115.1" r="1.1"/>
	<rect x="-25.9" y="90.2" class="st3" width="14.5" height="4.2"/>
	<rect x="-25.9" y="97.8" class="st3" width="14.5" height="4.2"/>
	<rect x="-25.9" y="105.3" class="st3" width="13.9" height="4.2"/>
	<g>
		<circle class="st0" cx="-4.7" cy="100.1" r="7.1"/>
		<g>
			<path class="st3" d="M-8.1,111.4c-1,0-1.9-0.8-1.9-1.9v-0.3c-0.5-0.2-0.9-0.3-1.3-0.5l-0.2,0.2c-0.3,0.3-0.8,0.6-1.3,0.6
				c-0.5,0-1-0.2-1.3-0.6l-1.8-1.8c-0.4-0.4-0.5-0.9-0.5-1.3c0-0.5,0.2-1,0.5-1.3l0.2-0.2c-0.2-0.5-0.4-0.9-0.6-1.3h-0.3
				c-1,0-1.9-0.8-1.9-1.9v-2.6c0-1,0.8-1.9,1.9-1.9h0.3c0.2-0.5,0.3-0.9,0.5-1.3l-0.2-0.2c-0.4-0.4-0.5-0.9-0.5-1.3
				c0-0.5,0.2-1,0.5-1.3l1.9-1.9c0.3-0.3,0.8-0.6,1.3-0.6c0.5,0,1,0.2,1.3,0.6l0.2,0.2c0.5-0.2,0.9-0.4,1.3-0.6v-0.3
				c0-1,0.8-1.9,1.9-1.9h2.6c1,0,1.9,0.8,1.9,1.9v0.3c0.5,0.2,0.9,0.3,1.3,0.6l0.2-0.2c0.3-0.3,0.8-0.5,1.3-0.5c0.5,0,1,0.2,1.3,0.5
				l1.9,1.9c0.4,0.4,0.5,0.9,0.5,1.3c0,0.5-0.2,1-0.5,1.3l-0.2,0.2c0.2,0.5,0.4,0.9,0.6,1.3H3c1.1,0,1.9,0.8,1.9,1.9v2.6
				c0,1-0.8,1.9-1.9,1.9H2.8c-0.2,0.5-0.3,0.9-0.6,1.3l0.2,0.2c0.4,0.4,0.5,0.9,0.5,1.3c0,0.5-0.2,1-0.5,1.3l-1.9,1.9
				c-0.3,0.3-0.8,0.5-1.3,0.5s-1-0.2-1.3-0.5l-0.2-0.2c-0.5,0.2-0.9,0.4-1.3,0.6v0.3c0,1-0.8,1.9-1.9,1.9H-8.1z M-6.7,95.6
				c-2.3,0-4.1,1.8-4.1,4.1c0,2.3,1.8,4.1,4.1,4.1s4.1-1.8,4.1-4.1C-2.6,97.5-4.5,95.6-6.7,95.6z"/>
			<path class="st0" d="M-5.5,88.7c0.6,0,1.1,0.5,1.1,1.1v0.8c0.8,0.2,1.5,0.5,2.2,0.9l0.6-0.6c0.2-0.2,0.5-0.3,0.8-0.3
				c0.3,0,0.6,0.1,0.8,0.3l1.9,1.9c0.2,0.2,0.3,0.5,0.3,0.8c0,0.3-0.1,0.6-0.3,0.8l-0.6,0.6c0.4,0.7,0.7,1.5,0.9,2.2H3
				c0.6,0,1.1,0.5,1.1,1.1v2.6c0,0.6-0.5,1.1-1.1,1.1H2.2c-0.2,0.8-0.5,1.5-0.9,2.2l0.6,0.6c0.2,0.2,0.3,0.5,0.3,0.8
				c0,0.3-0.1,0.6-0.3,0.8L0,108.4c-0.2,0.2-0.5,0.3-0.8,0.3c-0.3,0-0.6-0.1-0.8-0.3l-0.6-0.6c-0.7,0.4-1.5,0.7-2.2,0.9v0.8
				c0,0.6-0.5,1.1-1.1,1.1h-2.6c-0.6,0-1.1-0.5-1.1-1.1v-0.8c-0.8-0.2-1.5-0.5-2.2-0.9l-0.6,0.6c-0.2,0.2-0.5,0.3-0.8,0.3
				s-0.6-0.1-0.8-0.3l-1.9-1.9c-0.2-0.2-0.3-0.5-0.3-0.8c0-0.3,0.1-0.6,0.3-0.8l0.6-0.6c-0.4-0.7-0.7-1.5-0.9-2.2h-0.8
				c-0.6,0-1.1-0.5-1.1-1.1v-2.6c0-0.6,0.5-1.1,1.1-1.1h0.8c0.2-0.8,0.5-1.5,0.9-2.2l-0.6-0.6c-0.2-0.2-0.3-0.5-0.3-0.8
				c0-0.3,0.1-0.6,0.3-0.8l1.9-1.9c0.2-0.2,0.5-0.3,0.8-0.3s0.6,0.1,0.8,0.3l0.6,0.6c0.7-0.4,1.5-0.7,2.2-0.9v-0.8
				c0-0.6,0.5-1.1,1.1-1.1H-5.5 M-6.7,104.6c2.7,0,4.8-2.2,4.8-4.8c0-2.7-2.2-4.8-4.8-4.8c-2.7,0-4.8,2.2-4.8,4.8
				C-11.6,102.4-9.4,104.6-6.7,104.6 M-5.5,87.2h-2.6c-1.4,0-2.5,1-2.6,2.4c-0.2,0.1-0.3,0.1-0.5,0.2c-0.5-0.4-1-0.6-1.6-0.6
				c-0.7,0-1.4,0.3-1.9,0.8l-1.8,1.8c-0.5,0.5-0.8,1.2-0.8,1.9c0,0.6,0.2,1.1,0.6,1.6c-0.1,0.1-0.1,0.3-0.2,0.5
				c-1.3,0.1-2.4,1.3-2.4,2.6v2.6c0,1.4,1,2.5,2.4,2.6c0.1,0.2,0.1,0.3,0.2,0.5c-0.4,0.5-0.6,1-0.6,1.7c0,0.6,0.2,1.2,0.7,1.8l0,0.1
				l0,0l1.8,1.8c0.5,0.5,1.2,0.8,1.9,0.8c0.6,0,1.2-0.2,1.6-0.6c0.1,0.1,0.3,0.1,0.5,0.2c0.1,1.3,1.3,2.4,2.6,2.4h2.6
				c1.4,0,2.5-1,2.6-2.4c0.2-0.1,0.3-0.1,0.5-0.2c0.5,0.4,1,0.6,1.6,0.6c0.7,0,1.4-0.3,1.9-0.8l1.9-1.9c0.5-0.5,0.8-1.2,0.8-1.9
				c0-0.6-0.2-1.1-0.6-1.6c0.1-0.1,0.1-0.3,0.2-0.5c1.3-0.1,2.4-1.3,2.4-2.6v-2.6c0-1.4-1-2.5-2.4-2.6c-0.1-0.2-0.1-0.3-0.2-0.5
				c0.4-0.5,0.6-1,0.6-1.7c0-0.6-0.2-1.2-0.7-1.8l0-0.1l0,0L1.1,90c-0.5-0.5-1.2-0.8-1.9-0.8c-0.6,0-1.2,0.2-1.6,0.6
				c-0.1-0.1-0.3-0.1-0.5-0.2C-3,88.3-4.1,87.2-5.5,87.2L-5.5,87.2z M-6.7,103.1c-1.8,0-3.3-1.5-3.3-3.3c0-1.8,1.5-3.3,3.3-3.3
				s3.3,1.5,3.3,3.3C-3.4,101.6-4.9,103.1-6.7,103.1L-6.7,103.1z"/>
		</g>
	</g>
</g>
</svg>
