<?xml version="1.0" encoding="utf-8"?>
<!-- Generator: Adobe Illustrator 19.1.1, SVG Export Plug-In . SVG Version: 6.00 Build 0)  -->
<svg version="1.1" id="Layer_1" xmlns:sketch="http://www.bohemiancoding.com/sketch/ns"
	 xmlns="http://www.w3.org/2000/svg" xmlns:xlink="http://www.w3.org/1999/xlink" x="0px" y="0px" viewBox="-57 59 84 84"
	 style="enable-background:new -57 59 84 84;" xml:space="preserve">
<style type="text/css">
	.st0{fill:#EEEEEE;}
	.st1{fill:#FFFFFF;}
	.st2{fill:none;stroke:#F2EDED;}
	.st3{fill:#005EB8;}
	.st4{fill:none;stroke:#EEEEEE;stroke-miterlimit:10;}
</style>
<g sketch:type="MSShapeGroup">
	<g id="path-1">
		<path class="st0" d="M-16,140.8c-21.4,0-38.8-17.4-38.8-38.8v-2c0-21.4,17.3-38.7,38.7-38.7h2c21.4,0,38.8,17.4,38.8,38.8v2
			c0,21.4-17.4,38.8-38.8,38.8L-16,140.8L-16,140.8z"/>
		<path class="st1" d="M-14,62.3c20.8,0,37.8,16.9,37.8,37.8v2c0,20.8-16.9,37.8-37.8,37.8h-2c-20.8-0.1-37.8-17.1-37.8-37.9v-2
			c0-20.8,16.9-37.7,37.7-37.7H-14 M-14,60.3h-2c-21.9,0-39.8,17.7-39.8,39.7v2c0,22,17.8,39.8,39.8,39.8h2
			c21.9,0,39.7-17.8,39.7-39.8v-2C25.8,77.9,8,60.3-14,60.3L-14,60.3z"/>
	</g>
</g>
<g>
	<path id="path-1_1_" class="st2" d="M-16,60.3h2c22,0,39.8,17.7,39.8,39.7v2c0,22-17.8,39.8-39.8,39.8h-2
		c-21.9,0-39.8-17.8-39.8-39.8v-2C-55.8,77.9-37.9,60.3-16,60.3z"/>
</g>
<g>
	<g>
		<path class="st3" d="M-10.2,107c0,0-0.1,0-0.1,0v-1.9c0-2.3-1.8-4.1-4.1-4.1h-6.7v-3.7c1.2-0.4,2.1-1.6,2.1-3
			c0-1.7-1.4-3.1-3.1-3.1c-1.7,0-3.1,1.4-3.1,3.1c0,1.4,0.9,2.6,2.2,3v3.7h-7c-2.3,0-4.1,1.8-4.1,4.1v1.9c-0.1,0-0.1,0-0.2,0
			c-2,0-3.6,1.6-3.6,3.6s1.6,3.6,3.6,3.6c0.1,0,0.1,0,0.2,0v1.7c0,2.3,1.8,4.1,4.1,4.1h15.6c2.3,0,4.1-1.8,4.1-4.1v-1.7
			c0,0,0.1,0,0.1,0c2,0,3.6-1.6,3.6-3.6S-8.2,107-10.2,107z M-30.5,108c0-1.6,1.3-2.8,2.8-2.8c1.6,0,2.8,1.3,2.8,2.8
			c0,1.6-1.3,2.8-2.8,2.8C-29.2,110.9-30.5,109.6-30.5,108z M-18.2,115.8h-8.1c-0.4,0-0.7-0.4-0.7-0.8s0.3-0.7,0.7-0.7h8.1
			c0.4,0,0.7,0.4,0.7,0.7S-17.8,115.8-18.2,115.8z M-16.9,110.9c-1.6,0-2.8-1.3-2.8-2.8c0-1.6,1.3-2.8,2.8-2.8
			c1.6,0,2.8,1.3,2.8,2.8C-14,109.6-15.3,110.9-16.9,110.9z"/>
		<g>
			<path class="st3" d="M6.4,96.6h-17c-0.8,0-1.5-0.7-1.5-1.5V83.6c0-0.8,0.7-1.5,1.5-1.5h17c0.8,0,1.5,0.7,1.5,1.5v11.6
				C7.9,96,7.2,96.6,6.4,96.6z"/>
			<polyline class="st3" points="-10.9,92.1 -14.6,99.2 -8.6,96.1 			"/>
			<g>
				<circle class="st0" cx="-6.7" cy="89.4" r="1.6"/>
				<circle class="st0" cx="-1.9" cy="89.4" r="1.6"/>
				<circle class="st0" cx="2.9" cy="89.4" r="1.6"/>
			</g>
		</g>
	</g>
	<line class="st4" x1="-34.6" y1="106.1" x2="-34.6" y2="118.8"/>
	<line class="st4" x1="-9.8" y1="105.7" x2="-9.8" y2="118.5"/>
	<line class="st4" x1="-17.2" y1="100.5" x2="-30" y2="100.5"/>
</g>
</svg>
