<?xml version="1.0" encoding="utf-8"?>
<!-- Generator: Adobe Illustrator 19.1.1, SVG Export Plug-In . SVG Version: 6.00 Build 0)  -->
<svg version="1.1" id="Layer_1" xmlns:sketch="http://www.bohemiancoding.com/sketch/ns"
	 xmlns="http://www.w3.org/2000/svg" xmlns:xlink="http://www.w3.org/1999/xlink" x="0px" y="0px" viewBox="-57 59 84 84"
	 style="enable-background:new -57 59 84 84;" xml:space="preserve">
<style type="text/css">
	.st0{fill:#EEEEEE;}
	.st1{fill:#FFFFFF;}
	.st2{fill:none;stroke:#F2EDED;}
	.st3{fill:#005EB8;}
</style>
<g sketch:type="MSShapeGroup">
	<g id="path-1">
		<path class="st0" d="M-16,140.8c-21.4,0-38.8-17.4-38.8-38.8v-2c0-21.4,17.3-38.7,38.7-38.7h2c21.4,0,38.8,17.4,38.8,38.8v2
			c0,21.4-17.4,38.8-38.8,38.8L-16,140.8L-16,140.8z"/>
		<path class="st1" d="M-14,62.2c20.8,0,37.8,16.9,37.8,37.8v2c0,20.8-16.9,37.8-37.8,37.8h-2c-20.8-0.1-37.8-17.1-37.8-37.9v-2
			c0-20.8,16.9-37.7,37.7-37.7L-14,62.2 M-14,60.2h-2c-21.9,0-39.8,17.7-39.8,39.7v2c0,22,17.8,39.8,39.8,39.8h2
			c21.9,0,39.7-17.8,39.7-39.8v-2C25.8,77.8,8,60.2-14,60.2L-14,60.2z"/>
	</g>
</g>
<g>
	<path id="path-1_1_" class="st2" d="M-16,60.2h2c22,0,39.8,17.7,39.8,39.7v2c0,22-17.8,39.8-39.8,39.8h-2
		c-21.9,0-39.8-17.8-39.8-39.8v-2C-55.8,77.8-37.9,60.2-16,60.2z"/>
</g>
<g>
	<g>
		<g>
			<path class="st3" d="M-8.7,117.9h-1.4l-1-2.2h-7.5l-1,2.2H-21c-0.6,0-1,0.5-1,1c0,0.6,0.5,1,1,1h12.5c0.6,0,1-0.5,1-1
				C-7.7,118.4-8.2,117.9-8.7,117.9z"/>
		</g>
	</g>
	<g>
		<g>
			<path class="st3" d="M-10.8,90.8c-1.7,0-3.1,1.4-3.1,3.1v7.5c0.3-0.1,0.7-0.2,1-0.2h5.2V90.8H-10.8z"/>
		</g>
	</g>
	<g>
		<g>
			<path class="st3" d="M-19.2,90.8h-3.1v10.5h5.2c0.4,0,0.7,0.1,1,0.2v-7.5C-16,92.1-17.4,90.8-19.2,90.8z"/>
		</g>
	</g>
	<g>
		<g>
			<path class="st3" d="M-32.8,109.5v1c0,1.7,1.4,3.1,3.1,3.1h29.3c1.7,0,3.1-1.4,3.1-3.1v-1H-32.8z"/>
		</g>
	</g>
	<g>
		<g>
			<path class="st3" d="M-0.3,84.4h-29.3c-1.7,0-3.1,1.4-3.1,3.1v19.9H2.8V87.5C2.8,85.8,1.4,84.4-0.3,84.4z"/>
		</g>
	</g>
</g>
<g>
	<circle class="st0" cx="-22.5" cy="93.3" r="2.1"/>
	<path class="st0" d="M-20.1,96.2h-4.6c-0.7,0-1.2,0.5-1.2,1.2V98v1.8v1.7h7v-1.7V98v-0.6C-19,96.8-19.5,96.2-20.1,96.2z"/>
</g>
<g>
	<circle class="st0" cx="-7.4" cy="93.2" r="2.1"/>
	<path class="st0" d="M-5.1,96.1h-4.6c-0.7,0-1.2,0.5-1.2,1.2v0.6v1.8v1.7h7v-1.7v-1.8v-0.6C-3.9,96.7-4.4,96.1-5.1,96.1z"/>
</g>
<g>
	<g>
		<path class="st0" d="M-15,97c-1.6,0-2.9-1.3-2.9-2.9s1.3-2.9,2.9-2.9c1.6,0,2.9,1.3,2.9,2.9S-13.4,97-15,97z"/>
		<path class="st3" d="M-15,91.7c1.3,0,2.4,1.1,2.4,2.4s-1.1,2.4-2.4,2.4s-2.4-1.1-2.4-2.4S-16.3,91.7-15,91.7 M-15,90.7
			c-1.9,0-3.4,1.5-3.4,3.4s1.5,3.4,3.4,3.4s3.4-1.5,3.4-3.4S-13.1,90.7-15,90.7L-15,90.7z"/>
	</g>
	<g>
		<path class="st0" d="M-19.5,103.9v-5.1c0-1,0.8-1.9,1.9-1.9h5.3c1,0,1.9,0.8,1.9,1.9v5.1H-19.5z"/>
		<path class="st3" d="M-12.4,97.5c0.7,0,1.4,0.6,1.4,1.4v0.6v2v1.9h-8v-1.9v-2v-0.6c0-0.7,0.6-1.4,1.4-1.4H-12.4 M-12.4,96.5h-5.3
			c-1.3,0-2.4,1.1-2.4,2.4v0.6v2v1.9v1h1h8h1v-1v-1.9v-2v-0.6C-10,97.5-11.1,96.5-12.4,96.5L-12.4,96.5z"/>
	</g>
</g>
</svg>
