<?xml version="1.0" encoding="utf-8"?>
<!-- Generator: Adobe Illustrator 22.0.1, SVG Export Plug-In . SVG Version: 6.00 Build 0)  -->
<svg version="1.1" id="Layer_1" xmlns="http://www.w3.org/2000/svg" xmlns:xlink="http://www.w3.org/1999/xlink" x="0px" y="0px"
	 viewBox="0 0 960 310" style="enable-background:new 0 0 960 310;" xml:space="preserve">
<style type="text/css">
	
		.st0{fill:none;stroke:#CBEAFB;stroke-width:2;stroke-linecap:round;stroke-linejoin:round;stroke-miterlimit:10;stroke-dasharray:4;}
	.st1{fill:#00A1E0;}
	.st2{fill:#088EB7;}
	.st3{fill:#3084B2;}
	.st4{fill:#E8E8E8;}
	.st5{fill:#CCCCCC;}
	.st6{fill:#F3AF31;}
	.st7{fill:#E36C5A;}
	.st8{fill:#86B7BA;}
	.st9{fill:#1C4746;}
	.st10{opacity:0.5;}
	.st11{fill:#95C8EC;}
	.st12{fill:#1A89C6;}
	.st13{fill:#71BE71;}
	.st14{fill:#F9B75F;}
	.st15{fill:#546E7A;}
	.st16{fill:#64BCE8;}
	.st17{fill:#3F535C;}
	.st18{fill:#FFFFFF;}
	.st19{clip-path:url(#SVGID_2_);fill:#222B54;}
	.st20{fill:#EA8E21;}
	.st21{fill:#25475C;}
	.st22{fill:#314A51;}
	.st23{fill:none;stroke:#F9B75F;stroke-width:2;stroke-linecap:round;stroke-linejoin:round;stroke-miterlimit:10;}
	.st24{fill:#CACCCC;}
	.st25{fill:#DEE0E0;}
	.st26{fill:#E4F2FB;}
	.st27{fill:#F4F4F4;}
	.st28{fill:#E09D4C;}
	.st29{fill:#D37611;}
	.st30{fill:#B8B8AD;}
	.st31{fill:#F9F6EF;}
	.st32{fill:#B8B9A9;}
	.st33{fill:#5AC0ED;}
	.st34{fill:#EBE9DA;}
	.st35{fill:#EBE9DC;}
	.st36{fill:#0F9BD7;}
	.st37{opacity:0.5;clip-path:url(#SVGID_4_);}
	.st38{fill:#F4AE7A;}
	.st39{fill:#151011;}
	.st40{fill:#404040;}
	.st41{clip-path:url(#SVGID_6_);}
	.st42{fill:#FFD4A7;}
	.st43{fill:none;stroke:#718589;stroke-width:3.1275;stroke-linecap:round;stroke-linejoin:round;stroke-miterlimit:10;}
	.st44{fill:#6B3A05;}
	.st45{fill:#EABA8F;}
	.st46{fill:#694E41;}
	.st47{fill:#944936;}
	.st48{fill:#FDFCF7;}
	.st49{fill:#718589;}
	.st50{fill:none;stroke:#718589;stroke-width:3.1275;stroke-miterlimit:10;}
	.st51{fill:#71BE71;stroke:#FFFFFF;stroke-width:0.6596;stroke-miterlimit:10;}
	.st52{fill:none;stroke:#FFFFFF;stroke-width:2.6386;stroke-linecap:round;stroke-linejoin:round;stroke-miterlimit:10;}
	.st53{fill:none;stroke:#E8E8E8;stroke-width:1.1814;stroke-linecap:round;stroke-linejoin:round;stroke-miterlimit:10;}
	.st54{fill:none;stroke:#95C8EC;stroke-width:1.1063;stroke-linecap:round;stroke-linejoin:round;stroke-miterlimit:10;}
	.st55{fill:none;stroke:#95C8EC;stroke-width:1.1814;stroke-linecap:round;stroke-linejoin:round;stroke-miterlimit:10;}
	.st56{fill:#FC6142;}
</style>
<g>
	<g>
		<polyline class="st0" points="61.7,137.5 133.2,137.5 133.2,82.2 		"/>
		<polyline class="st0" points="133.2,82.2 133.2,37.2 2.3,37.2 2.3,137.5 61.7,137.5 		"/>
		<polyline class="st0" points="223.4,76.4 256.1,76.4 256.1,2.5 189.8,2.5 189.8,40 		"/>
		<polyline class="st0" points="223.4,76.4 189.8,76.4 189.8,40 		"/>
		<polyline class="st0" points="167.6,218.6 167.6,250.8 234.8,250.8 234.8,218.6 		"/>
		<polyline class="st0" points="167.6,218.6 167.6,183.5 234.8,183.5 234.8,218.6 		"/>
		<polyline class="st0" points="907.7,82.9 938,82.9 938,10.1 876.9,10.1 876.9,45.7 		"/>
		<polyline class="st0" points="876.9,45.7 876.9,82.9 907.7,82.9 		"/>
		<polyline class="st0" points="882.8,120.2 848.3,120.2 848.3,183.2 882.8,183.2 		"/>
		<polyline class="st0" points="882.8,120.2 917.4,120.2 917.4,183.2 882.8,183.2 		"/>
		<polyline class="st0" points="703.5,174.6 703.5,206.6 735.5,206.6 		"/>
		<polyline class="st0" points="735.5,206.6 767.6,206.6 767.6,142.5 703.5,142.5 703.5,174.6 		"/>
		<polyline class="st0" points="797.7,267.4 797.7,296.8 890.7,296.8 890.7,238.1 844.2,238.1 		"/>
		<polyline class="st0" points="844.2,238.1 797.7,238.1 797.7,267.4 		"/>
		<polyline class="st0" points="61.7,214 27,214 27,286.9 98.1,286.9 98.1,253 		"/>
		<polyline class="st0" points="61.7,214 98.1,214 98.1,253 		"/>
		<polyline class="st0" points="167.6,218.6 133.2,218.6 133.2,253 98.1,253 		"/>
		<polyline class="st0" points="844.2,238.1 844.2,211 882.8,211 882.8,183.2 		"/>
		<line class="st0" x1="61.7" y1="137.5" x2="61.7" y2="214"/>
		<polyline class="st0" points="133.2,82.2 163.5,82.2 163.5,40 189.8,40 		"/>
		<polyline class="st0" points="735.5,206.6 735.5,267.4 797.7,267.4 		"/>
		<polyline class="st0" points="882.8,120.2 882.8,101.8 907.7,101.8 907.7,82.9 		"/>
		<line class="st0" x1="234.8" y1="218.6" x2="288" y2="218.6"/>
		<polyline class="st0" points="223.4,76.4 223.4,139 288,139 668,139 668,174.6 703.5,174.6 		"/>
		<line class="st0" x1="668" y1="45.7" x2="876.9" y2="45.7"/>
	</g>
</g>
<g>
	<path class="st1" d="M736.2,101.4l-5.2-7.2l-9.6-13.5l-3.5-4.7c-1.8-2.5-4.4-3.9-7.2-3.9h-37.8v10.4h36.9l5.2,7.2l9.6,13.5l3.5,4.7
		c1.7,2.5,4.4,3.9,7.2,3.9h21.2v-10.4H736.2L736.2,101.4z"/>
	<rect x="755.8" y="101.4" class="st2" width="3.9" height="10.4"/>
	<path class="st1" d="M758.4,103.1v15.2l10.6-11.7l-10.6-11.7V103.1z"/>
	<path class="st3" d="M714.9,89.7l9.6,13.5l6.4-9l-9.5-13.5L714.9,89.7z"/>
	<path class="st4" d="M735.4,72.1c-2.8,0-5.6,1.4-7.2,3.9L710,101.5h-37v10.4h37.8c2.8,0,5.6-1.4,7.2-3.9l18.1-25.4h21V72.1H735.4
		L735.4,72.1z"/>
	<rect x="755.8" y="72.1" class="st5" width="3.9" height="10.4"/>
	<path class="st4" d="M758.4,88.9L769,77.2l-10.6-11.7V88.9z"/>
</g>
<g>
	<path class="st6" d="M631.6,148.1c-1.3-0.4-2.8,0.1-3.2,1.6c-0.1,0.4-0.1,1-0.1,1.5l-5.2,3.5c-0.1-0.1-0.4-0.3-0.5-0.3
		c-0.4-0.1-1-0.1-1.5-0.1l-2.1-3.1c0.1-0.1,0.1-0.3,0.3-0.4l0,0c0,0,0,0,0-0.1l0,0l0,0c0,0,0,0,0-0.1v-0.1c0,0,0,0,0-0.1v-0.1l0,0
		l0,0v-0.1c0,0,0,0,0-0.1v-0.5c0,0,0,0,0-0.1v-0.1c0,0,0,0,0-0.1V149v-0.1c0,0,0,0,0-0.1c0,0,0,0,0-0.1c0,0,0,0,0-0.1c0,0,0,0,0-0.1
		c0,0,0,0,0-0.1c0,0,0,0,0-0.1c0,0,0-0.1-0.1-0.1c0,0,0,0,0-0.1c0,0,0,0-0.1-0.1l0,0c0,0,0,0-0.1-0.1l0,0c0,0,0,0-0.1-0.1
		c0,0,0,0-0.1,0c0,0,0,0-0.1,0h-0.1c0,0,0,0-0.1,0h-0.3l0,0l0,0h-0.1c0,0,0,0-0.1,0h-0.1h-0.1l0,0l0,0h-0.1H617h-0.1h-0.1
		c0,0,0,0-0.1,0h-0.1l0,0h-0.1l0,0h-0.1l0,0c0,0-0.1,0-0.1,0.1l0,0c0,0-0.1,0-0.1,0.1l0,0c0,0-0.1,0-0.1,0.1l0,0c0,0,0,0-0.1,0.1
		l0,0c0,0,0,0-0.1,0.1l0,0c0,0,0,0.1-0.1,0.1l0,0c0,0,0,0.1-0.1,0.1l0,0v0.1l0,0l0,0c0,0,0,0,0,0.1c0,0,0,0,0,0.1c0,0,0,0.1,0,0.3
		l0,0v0.1c0,0.4,0,1.1,0.3,1.5l-5.4,4.5c-0.1-0.1-0.4-0.1-0.8-0.1c-0.4,0-1.1,0-1.5,0.3l-5.1-4.5c0.1-0.1,0.1-0.4,0.1-0.8
		c0.1-1.5-0.8-2.7-2.3-2.8s-2.7,0.8-2.8,2.3c-0.1,0.5,0.1,1.5,0.4,1.9l-3.6,5.6l0,0h-0.1c-1.5-0.1-2.7,0.8-2.8,2.3
		c0,0.1,0,0.1,0,0.3l-6.4,2.3c0-0.1-0.1-0.1-0.1-0.3c-0.3-0.3-0.8-0.5-1.3-0.5l-1.3-6.8c0.1-0.1,0.4-0.3,0.5-0.4c1-1.1,1-2.7,0-3.6
		c-1-1-2.7-1-3.6,0c-0.3,0.3-0.5,0.8-0.5,1.3l-7,0.3c-0.1-0.1-0.3-0.4-0.4-0.5c-1-1-2.7-1-3.6,0c-1,1-1,2.7,0,3.6c1,1,2.7,1,3.6,0
		c0.3-0.3,0.5-0.8,0.5-1.3l7-0.3c0.1,0.1,0.3,0.4,0.4,0.5c0.3,0.3,0.8,0.5,1.3,0.5l1.3,6.8c-0.1,0.1-0.4,0.3-0.5,0.4
		c-1,1-1,2.7,0,3.6c1,1,2.7,1,3.6,0c0.4-0.4,0.8-1.1,0.8-1.7l6.4-2.3c0,0.1,0.1,0.1,0.1,0.1l0,0l0,0l0.1,0.1l0,0c0,0,0,0,0.1,0
		c0,0,0.1,0,0.1,0.1l0,0c1,0.5,2.4,0.4,3.1-0.4c1-1,1-2.4,0.1-3.2l3.6-5.6c0.1,0,0.1,0,0.3,0c0.4,0,1.1,0,1.5-0.3l5.1,4.5
		c-0.1,0.1-0.1,0.4-0.1,0.8c-0.1,1.5,0.8,2.7,2.3,2.8s2.7-0.8,2.8-2.3c0-0.4,0-1.1-0.3-1.5l5.4-4.5h0.1c0.1,0,0.4,0.1,0.5,0.1
		s0.3,0,0.4,0l0,0h0.1l0,0h0.1l0,0l2.1,3.1c-0.1,0.1-0.3,0.4-0.3,0.5c-0.4,1.3,0.1,2.8,1.6,3.2c1.3,0.4,2.8-0.1,3.2-1.6
		c0.1-0.4,0.1-1,0.1-1.5l5.2-3.5c0.1,0.1,0.4,0.3,0.5,0.3c1.3,0.4,2.8-0.1,3.2-1.6C633.6,150.1,633,148.6,631.6,148.1z M569.1,153.2
		c-0.3,0.3-1,0.3-1.3,0s-0.3-1,0-1.3s1-0.3,1.3,0C569.4,152.5,569.4,152.9,569.1,153.2z M581,152.2c-0.3,0.3-1,0.3-1.3,0
		c-0.2-0.3-0.3-1,0-1.3s1-0.3,1.3,0S581.3,151.7,581,152.2z M582.8,163.6c-0.3,0.3-1,0.3-1.3,0s-0.3-1,0-1.3s1-0.3,1.3,0
		C583.3,162.7,583.3,163.3,582.8,163.6z M592.5,159.9c-0.3-0.3-0.3-1,0-1.3s0.8-0.3,1.1-0.1l0,0l0,0c0.1,0.1,0.3,0.4,0.3,0.8
		c0,0.4-0.4,0.8-1,0.8C592.8,160,592.7,160,592.5,159.9L592.5,159.9z M600.4,149.7c0,0.4-0.4,0.8-1,0.8s-0.8-0.4-0.8-1
		c0-0.4,0.4-0.8,1-0.8S600.4,149,600.4,149.7z M608.9,157.6c0,0.4-0.4,0.8-1,0.8c-0.4,0-0.8-0.4-0.8-1c0-0.4,0.4-0.8,1-0.8
		C608.7,156.7,609,157,608.9,157.6z M617.6,149.5C617.6,149.5,617.6,149.7,617.6,149.5C617.6,149.7,617.6,149.7,617.6,149.5
		c0,0.1,0,0.1,0,0.3l0,0c0,0,0,0,0,0.1l0,0c0,0,0,0-0.1,0l0,0c0,0,0,0-0.1,0l0,0c0,0,0,0-0.1,0l0,0c0,0,0,0-0.1,0l0,0c0,0,0,0-0.1,0
		l0,0c0,0,0,0-0.1,0c0,0,0,0-0.1,0l0,0c0,0,0,0-0.1,0l0,0l0,0l0,0l0,0l0,0c0,0,0,0,0-0.1l0,0c0,0,0,0,0-0.1l0,0c0,0,0,0,0-0.1l0,0
		c0,0,0,0,0-0.1l0,0c0,0,0,0,0-0.1l0,0c0,0,0,0,0-0.1l0,0c0,0,0,0,0-0.1l0,0l0,0l0,0c0,0,0,0,0.1,0l0,0c0,0,0,0,0.1,0l0,0
		c0,0,0,0,0.1,0c0,0,0,0,0.1,0c0,0,0,0,0.1,0c0,0,0,0,0.1,0c0,0,0,0,0.1,0l0,0c0,0,0,0,0.1,0l0,0l0,0l0,0l0,0c0,0,0,0,0,0.1l0,0
		c0,0,0,0,0,0.1l0,0C617.6,149,617.6,149,617.6,149.5L617.6,149.5C617.6,149.3,617.6,149.5,617.6,149.5L617.6,149.5z M622.1,157
		c-0.1,0.4-0.5,0.5-1.1,0.4c-0.4-0.1-0.5-0.5-0.4-1.1c0.1-0.4,0.5-0.5,1.1-0.4C622.1,156,622.3,156.5,622.1,157z M631.5,150.9
		c-0.1,0.4-0.5,0.5-1.1,0.4c-0.4-0.1-0.5-0.5-0.4-1.1c0.1-0.4,0.5-0.5,1.1-0.4C631.5,149.9,631.6,150.4,631.5,150.9z"/>
	<polygon class="st7" points="562.5,168.7 562.5,165.2 564.4,165.2 564.4,163.6 562.5,163.6 562.5,160.1 564.4,160.1 564.4,158.4 
		562.5,158.4 562.5,155 564.4,155 564.4,153.2 562.5,153.2 562.5,153.2 562.5,149.9 564.4,149.9 564.4,149.8 564.4,148.2 
		564.4,148.1 562.5,148.1 562.5,144.7 564.4,144.7 564.4,143 562.5,143 562.5,139.4 564.4,139.4 564.4,137.8 562.5,137.8 
		562.5,134.3 564.4,134.3 564.4,132.5 562.5,132.5 562.5,129.9 562.5,122.3 560.8,122.3 560.8,129.9 560.8,153.2 560.8,170.4 
		637.9,170.4 637.9,168.7 	"/>
	<path class="st8" d="M633.2,136.6c-1.1-1-2.7-1-3.6,0.1c-0.3,0.3-0.5,0.8-0.5,1.5l-6.3,1.3c-0.1-0.1-0.3-0.4-0.4-0.5
		c-0.3-0.3-0.8-0.5-1.5-0.5l-0.5-3.6c0.1-0.1,0.4-0.3,0.5-0.4c1-1.1,1-2.7-0.1-3.6c-1.1-1-2.7-1-3.6,0.1c-0.4,0.4-0.5,1.1-0.5,1.7
		l-6.4,2.4c-0.1-0.3-0.4-0.4-0.8-0.5l0,0h-0.1l0,0h-0.1c0,0,0,0-0.1,0c0,0,0,0-0.1,0h-0.4l0,0h-0.1l0,0l0,0c-0.5,0-1.5,0.3-1.9,0.8
		c-1,1-1,2.5,0,3.6l-3,5.9c-0.1,0-0.1,0-0.3,0c-0.4,0-1,0.1-1.5,0.4l-5.5-4c0-0.3,0.1-0.4,0.1-0.8c0-1.5-1.1-2.5-2.5-2.5
		s-2.5,1.1-2.5,2.5c0,0.4,0.1,1,0.4,1.5l-4.7,5.2l0,0c-0.1,0-0.4-0.1-0.8-0.1c-1,0-1.9,0.4-2.3,1.5c-0.1,0.3-0.3,0.8-0.3,1.3
		s0.3,1.3,0.8,1.7l-3,5.9c-0.1,0-0.1,0-0.3,0c-0.4,0-1,0.1-1.5,0.4l-3-2.3c0-0.3,0.1-0.4,0.1-0.8c0-1.5-1.1-2.5-2.5-2.5
		s-2.5,1.1-2.5,2.5c0,0.4,0.1,1,0.4,1.5l-2.3,3c-0.3,0-0.4-0.1-0.8-0.1c-1.5,0-2.5,1.1-2.5,2.5c0,1.5,1.1,2.5,2.5,2.5
		s2.5-1.1,2.5-2.5c0-0.4-0.1-1-0.4-1.5l2.3-3c0.3,0,0.4,0.1,0.8,0.1s1-0.1,1.5-0.4l3,2.3c0,0.3-0.1,0.4-0.1,0.8
		c0,1.5,1.1,2.5,2.5,2.5s2.5-1.1,2.5-2.5c0-0.5-0.3-1.3-0.8-1.7l3-5.9l0,0c0.1,0,0.1,0,0.3,0c1,0,1.9-0.4,2.3-1.5
		c0.1-0.3,0.3-0.8,0.3-1.3s-0.1-1-0.4-1.5l4.7-5.2c0.3,0,0.4,0.1,0.8,0.1c0.4,0,1-0.1,1.5-0.4l5.5,4c0,0.3-0.1,0.4-0.1,0.8
		c0,1.5,1.1,2.5,2.5,2.5s2.5-1.1,2.5-2.5c0-0.5-0.3-1.3-0.8-1.7l3-5.9h0.1c0,0,0,0,0.1,0c1.5,0,2.5-1.1,2.5-2.5l0,0l6.4-2.4
		c0,0.1,0.1,0.1,0.1,0.3c0.3,0.3,0.8,0.5,1.5,0.5l0.5,3.6c-0.1,0.1-0.4,0.3-0.5,0.4c-1,1.1-1,2.7,0.1,3.6c1.1,0.9,2.7,1,3.6-0.1
		c0.3-0.3,0.5-0.8,0.5-1.5l6.3-1.3c0.1,0.1,0.3,0.4,0.4,0.5c1.1,1,2.7,1,3.6-0.1C634.3,139.3,634.3,137.6,633.2,136.6z M568.7,162
		c-0.4,0-0.8-0.3-0.8-0.8c0-0.4,0.3-0.8,0.8-0.8c0.4,0,0.8,0.3,0.8,0.8C569.5,161.3,569.1,162,568.7,162z M573.8,155
		c-0.4,0-0.8-0.3-0.8-0.8c0-0.4,0.3-0.8,0.8-0.8c0.4,0,0.8,0.3,0.8,0.8C574.6,154.6,574.3,155,573.8,155z M580.9,160.1
		c-0.4,0-0.8-0.3-0.8-0.8c0-0.4,0.3-0.8,0.8-0.8s0.8,0.3,0.8,0.8C581.6,159.7,581.3,160.1,580.9,160.1z M585.8,149.8
		c-0.4,0-0.8-0.3-0.8-0.8c0-0.1,0-0.3,0.1-0.4c0.1-0.1,0.4-0.3,0.8-0.3c0.4,0,0.8,0.3,0.8,0.8c0,0.1,0,0.3-0.1,0.4
		C586.5,149.7,586.1,149.8,585.8,149.8z M593.6,140.7c-0.4,0-0.8-0.3-0.8-0.8c0-0.4,0.3-0.8,0.8-0.8c0.4,0,0.8,0.3,0.8,0.8
		C594.3,140.3,594,140.7,593.6,140.7z M603.1,147.5c-0.4,0-0.8-0.3-0.8-0.8s0.3-0.8,0.8-0.8c0.4,0,0.8,0.3,0.8,0.8
		C603.9,147.3,603.5,147.5,603.1,147.5z M608.1,137.4C608.1,137.4,607.9,137.4,608.1,137.4C607.9,137.4,607.9,137.4,608.1,137.4
		L608.1,137.4c-0.4-0.1-0.5-0.4-0.5-0.8s0.3-0.8,0.8-0.8l0,0h0.1l0,0l0,0h0.1l0,0c0,0,0.1,0,0.1,0.1c0.3,0.3,0.3,1,0,1.3
		C608.6,137.1,608.5,137.4,608.1,137.4L608.1,137.4z M618.4,132.9c-0.3-0.3-0.3-0.8,0-1.3c0.3-0.3,0.8-0.3,1.3,0
		c0.3,0.3,0.3,1,0,1.3C619.3,133.2,618.8,133.2,618.4,132.9z M621.2,141.4c-0.3,0.3-1,0.3-1.3,0s-0.3-0.8,0-1.3
		c0.3-0.3,0.8-0.3,1.3,0C621.5,140.4,621.5,141.1,621.2,141.4z M632.1,139.1c-0.3,0.3-0.8,0.3-1.3,0c-0.3-0.3-0.3-1,0-1.3
		s0.8-0.3,1.3,0C632.4,138.2,632.4,138.8,632.1,139.1z"/>
	<rect x="575.8" y="126.7" class="st7" width="0.5" height="42.5"/>
	<g>
		<rect x="594.5" y="126.7" class="st7" width="0.5" height="42.5"/>
	</g>
	<g>
		<rect x="613.3" y="126.7" class="st7" width="0.5" height="42.5"/>
	</g>
	<g>
		<rect x="632.3" y="126.7" class="st7" width="0.5" height="42.5"/>
	</g>
	<g>
		<path class="st9" d="M629,145L629,145C629,145,628.8,145,629,145c-0.3-0.4-0.4-0.5-0.5-0.5c-0.3-0.1-0.4-0.3-0.8-0.3l-0.3-3.9
			c0.1-0.1,0.4-0.1,0.5-0.4c1.1-1,1.3-2.5,0.3-3.6s-2.5-1.3-3.6-0.3c-0.4,0.3-0.5,0.8-0.8,1.3l-6.4,0.5c-0.1-0.1-0.1-0.4-0.4-0.5
			c-0.3-0.3-0.8-0.5-1.1-0.8l0,0h-0.1h-0.1l0,0h-0.1c-1.5-0.1-2.7,0.8-2.8,2.3c0,0.4,0,1.1,0.3,1.5l-5.4,4.5
			c-0.1-0.1-0.4-0.1-0.8-0.1s-1.1,0-1.5,0.3l-5.1-4.5c0.1-0.1,0.1-0.4,0.1-0.8c0.1-1.5-0.8-2.7-2.3-2.8s-2.7,0.8-2.8,2.3
			c-0.1,0.5,0.1,1.5,0.4,1.9l-3.6,5.6H592c0,0,0,0-0.1,0c-1.5-0.1-2.7,0.8-2.8,2.3l0,0l-6.5,1.6c0-0.1-0.1-0.1-0.1-0.3
			c-0.3-0.4-0.8-0.5-1.3-0.8l-0.3-3.9c0.1-0.1,0.4-0.1,0.5-0.4c1.1-1,1.3-2.5,0.3-3.6c-0.9-1.1-2.5-1.3-3.6-0.3
			c-0.4,0.3-0.5,0.8-0.8,1.3l-6.4,0.5c-0.1-0.1-0.1-0.4-0.4-0.5c-1-1.1-2.5-1.3-3.6-0.3s-1.3,2.5-0.3,3.6s2.5,1.3,3.6,0.3
			c0.4-0.3,0.5-0.8,0.8-1.3l6.4-0.5c0.1,0.1,0.1,0.4,0.4,0.5c0.3,0.4,0.8,0.5,1.3,0.8l0.3,3.9c-0.1,0.1-0.4,0.1-0.5,0.4
			c-1.1,1-1.3,2.5-0.3,3.6s2.5,1.3,3.6,0.3c0.4-0.4,0.8-1.1,1-1.7l6.5-1.6c0.1,0.3,0.4,0.5,0.8,0.8l0,0c0,0,0.1,0,0.1,0.1l0,0h0.1
			c0,0,0,0,0.1,0c0,0,0,0,0.1,0h0.1l0,0h0.1l0,0l0,0c0.5,0,1.5-0.1,2.1-0.5c1.1-1,1.3-2.5,0.3-3.5l3.6-5.6c0.1,0,0.1,0,0.3,0
			c0.4,0,1.1,0,1.5-0.3l5.1,4.5c-0.1,0.1-0.1,0.4-0.1,0.8c-0.1,1.5,0.8,2.7,2.3,2.8s2.7-0.8,2.8-2.3c0-0.4,0-1.1-0.3-1.5l5.4-4.5
			c1,0.4,2.1,0.3,2.8-0.3c0.4-0.3,0.5-0.8,0.8-1.3l6.4-0.5c0.1,0.1,0.1,0.4,0.4,0.5c0.3,0.4,0.8,0.5,1.3,0.8l0.3,3.9
			c-0.1,0.1-0.4,0.1-0.5,0.4c-1.1,1-1.3,2.5-0.3,3.6s2.5,1.3,3.6,0.3c0.1-0.1,0.3-0.3,0.4-0.4C629.5,146.6,629.2,145.7,629,145z
			 M569.1,144.6c-0.3,0.3-1,0.3-1.3-0.1c-0.3-0.3-0.3-1,0.1-1.3c0.3-0.3,1-0.3,1.3,0.1C569.5,143.5,569.4,144.2,569.1,144.6z
			 M579,143.4c-0.3-0.3-0.3-1,0.1-1.3c0.3-0.3,1-0.3,1.3,0.1c0.3,0.3,0.3,1-0.1,1.3C579.8,143.9,579.3,143.7,579,143.4z
			 M580.9,152.2c-0.3,0.3-1,0.3-1.3-0.1c-0.3-0.3-0.3-1,0.1-1.3c0.3-0.3,1-0.3,1.3,0.1S581.1,151.7,580.9,152.2z M591.3,149.7
			C591.2,149.5,591.2,149.5,591.3,149.7C591.2,149.7,591.2,149.7,591.3,149.7L591.3,149.7H591l0,0c0,0-0.1,0-0.1-0.1
			c-0.3-0.3-0.3-1,0.1-1.3c0.1-0.1,0.4-0.3,0.8-0.1l0,0l0,0c0,0,0,0,0.1,0l0,0c0.3,0.1,0.4,0.4,0.4,0.8
			C592.3,149.3,591.9,149.7,591.3,149.7L591.3,149.7z M598.7,139c0,0.4-0.4,0.8-1,0.8c-0.4,0-0.8-0.4-0.8-1c0-0.4,0.4-0.8,1-0.8
			C598.3,138.2,598.7,138.6,598.7,139z M607.1,147.1c0,0.4-0.4,0.8-1,0.8c-0.4,0-0.8-0.4-0.8-1c0-0.4,0.4-0.8,1-0.8
			C607,146.1,607.3,146.6,607.1,147.1z M614.4,139.3c-0.3-0.3-0.3-1,0.1-1.3c0.1-0.1,0.4-0.3,0.8-0.1c0.4,0.1,0.5,0.4,0.5,1
			s-0.4,0.8-1,0.8l0,0C614.6,139.5,614.5,139.4,614.4,139.3z M625.5,138.4c-0.3-0.3-0.3-1,0.1-1.3c0.3-0.3,1-0.3,1.3,0.1
			c0.3,0.3,0.3,1-0.1,1.3S625.7,138.8,625.5,138.4z M627.5,147.1c-0.3,0.3-1,0.3-1.3-0.1c-0.3-0.3-0.3-1,0.1-1.3
			c0.3-0.3,1-0.3,1.3,0.1C627.7,146.2,627.7,146.8,627.5,147.1z"/>
		<path class="st7" d="M628.8,145C628.8,145,628.8,144.9,628.8,145c-0.3-0.3-0.4-0.4-0.5-0.5C628.3,144.3,628.6,144.7,628.8,145z"/>
	</g>
</g>
<g class="st10">
	<path class="st11" d="M156.6,280.9l0.9-1.5c0,0,3.9-0.9,3.9-1.1l0.4-2.9c0-0.2-3.5-2.1-3.5-2.1l-0.4-1.7c0,0,2.1-3.4,1.9-3.6
		l-1.9-2.4c-0.2-0.2-3.9,1-3.9,1l-1.6-0.9c0,0-1-3.9-1.2-3.9l-2.9-0.4c-0.2,0-2,3.4-2,3.4l-1.7,0.4c0,0-3.4-2.1-3.6-2l-2.4,1.8
		c-0.2,0.2,1,3.9,1,3.9l-0.9,1.5c0,0-3.8,1-3.9,1.1l-0.4,2.9c0,0.2,3.5,2.1,3.5,2.1l0.4,1.8c0,0-2.1,3.4-1.9,3.6l1.9,2.4
		c0.2,0.2,3.9-1,3.9-1l1.6,0.9c0,0,1,3.9,1.2,3.9l3,0.4c0.2,0,2-3.4,2-3.4l1.7-0.4c0,0,3.4,2.1,3.6,2l2.4-1.8
		C157.9,284.6,156.6,280.9,156.6,280.9z M150.9,278.3c-1.9,1.4-4.6,1-6-0.9c-1.5-1.9-1.1-4.7,0.8-6.1c1.9-1.4,4.6-1,6,0.9
		C153.2,274.1,152.8,276.8,150.9,278.3z"/>
	<path class="st11" d="M191.5,153.9l1.1-1.8c0,0,4.8-1.1,4.8-1.4l0.5-3.6c0-0.3-4.4-2.7-4.4-2.7l-0.5-2.1c0,0,2.6-4.2,2.4-4.4
		L193,135c-0.2-0.2-4.8,1.2-4.8,1.2l-2-1.1c0,0-1.2-4.8-1.5-4.8l-3.6-0.5c-0.3,0-2.5,4.2-2.5,4.2l-2.1,0.5c0,0-4.2-2.7-4.4-2.5
		l-2.9,2.2c-0.2,0.2,1.3,4.8,1.3,4.8l-1.1,1.8c0,0-4.7,1.2-4.8,1.4l-0.5,3.6c0,0.3,4.4,2.7,4.4,2.7l0.5,2.2c0,0-2.6,4.2-2.4,4.4
		l2.3,2.9c0.2,0.2,4.8-1.2,4.8-1.2l2,1.1c0,0,1.2,4.8,1.5,4.8l3.7,0.5c0.3,0,2.5-4.2,2.5-4.2l2.1-0.5c0,0,4.2,2.7,4.4,2.5l2.9-2.2
		C192.9,158.6,191.5,153.9,191.5,153.9z M184.3,150.8c-2.3,1.8-5.7,1.3-7.5-1.1c-1.8-2.3-1.4-5.9,1-7.6c2.3-1.8,5.7-1.3,7.5,1.1
		S186.6,149,184.3,150.8z"/>
	<path class="st11" d="M829.4,118.1l0.8-1.2l3.1-0.8l0.3-2.4c0-0.2-2.8-1.7-2.8-1.7l-0.4-1.4c0,0,1.7-2.7,1.5-2.9l-1.4-2
		c-0.1-0.1-3.1,0.8-3.1,0.8l-1.2-0.8c0,0-0.8-3.1-0.9-3.1l-2.3-0.3c-0.2,0-1.5,2.8-1.5,2.8l-1.4,0.3c0,0-2.7-1.7-2.9-1.5l-1.8,1.4
		c-0.1,0.1,0.8,3.1,0.8,3.1l-0.8,1.2l-3.1,0.8l-0.3,2.4c0,0.2,2.8,1.7,2.8,1.7l0.3,1.4c0,0-1.7,2.7-1.5,2.9l1.4,2
		c0.1,0.1,3.1-0.8,3.1-0.8l1.2,0.8c0,0,0.8,3.1,0.9,3.1l2.4,0.4c0.2,0,1.5-2.8,1.5-2.8l1.4-0.3c0,0,2.7,1.7,2.9,1.5l1.8-1.4
		C830.3,121.1,829.4,118.1,829.4,118.1z M824.7,116c-1.5,1.1-3.7,0.8-4.9-0.8c-1.1-1.5-0.9-3.7,0.6-4.9c1.5-1.1,3.7-0.8,4.9,0.8
		C826.5,112.7,826.2,114.9,824.7,116z"/>
	<path class="st4" d="M130.1,282.7l0.5-0.9c0,0,2.3-0.5,2.3-0.7l0.2-1.7c0-0.2-2.1-1.3-2.1-1.3l-0.2-1c0,0,1.2-1.9,1.1-2.1l-1-1.4
		c-0.1-0.1-2.3,0.6-2.3,0.6l-0.9-0.5c0,0-0.6-2.3-0.7-2.3l-1.7-0.2c-0.2,0-1.2,2-1.2,2l-1,0.2c0,0-2-1.3-2.1-1.2l-1.4,1
		c-0.1,0.1,0.6,2.3,0.6,2.3l-0.4,1c0,0-2.3,0.5-2.3,0.7l-0.2,1.7c0,0.2,2.1,1.3,2.1,1.3l0.2,1c0,0-1.2,1.9-1.1,2.1l1,1.4
		c0.1,0.1,2.3-0.6,2.3-0.6l0.9,0.5c0,0,0.6,2.3,0.7,2.3l1.7,0.2c0.2,0,1.2-2,1.2-2l1-0.2c0,0,2,1.3,2.1,1.2l1.4-1
		C130.8,285,130.1,282.7,130.1,282.7z M126.7,281.2c-1.1,0.8-2.7,0.6-3.6-0.5s-0.7-2.7,0.4-3.6c1.1-0.8,2.7-0.6,3.6,0.5
		C128.1,278.8,127.8,280.4,126.7,281.2z"/>
	<path class="st4" d="M174.1,119.6l0.7-1.1c0,0,2.9-0.7,2.8-0.8l0.3-2.1c0-0.2-2.6-1.6-2.6-1.6l-0.3-1.3c0,0,1.5-2.4,1.4-2.6
		l-1.3-1.8c-0.1-0.1-2.9,0.7-2.9,0.7l-1.1-0.7c0,0-0.7-2.9-0.8-2.9l-2-0.3c-0.2,0-1.5,2.5-1.5,2.5l-1.3,0.3c0,0-2.5-1.6-2.7-1.5
		l-1.8,1.3c-0.1,0.1,0.7,2.9,0.7,2.9l-0.7,1.1c0,0-2.9,0.7-2.8,0.8l-0.3,2.1c0,0.2,2.6,1.6,2.6,1.6l0.3,1.3c0,0-1.5,2.4-1.4,2.6
		l1.3,1.8c0.1,0.1,2.9-0.7,2.9-0.7l1.1,0.7c0,0,0.7,2.9,0.8,2.9l2.1,0.3c0.2,0,1.5-2.5,1.5-2.5l1.3-0.3c0,0,2.5,1.6,2.7,1.5l1.8-1.3
		C175,122.4,174.1,119.6,174.1,119.6z M169.9,117.7c-1.4,1-3.3,0.7-4.4-0.7c-1.1-1.4-0.8-3.4,0.5-4.4s3.3-0.7,4.4,0.7
		C171.6,114.7,171.2,116.6,169.9,117.7z"/>
	<path class="st4" d="M686.8,24l0.7-1.1c0,0,2.9-0.7,2.9-0.8l0.3-2.2c0-0.1-2.6-1.6-2.6-1.6l-0.3-1.4c0,0,1.5-2.6,1.5-2.7l-1.4-1.8
		c-0.1-0.1-3,0.8-3,0.8l-1.1-0.7l-0.8-3l-2.2-0.3c-0.1,0-1.5,2.6-1.5,2.6l-1.4,0.3c0,0-2.6-1.6-2.7-1.5l-1.8,1.4
		c-0.1,0.1,0.8,3,0.8,3l-0.7,1.1c0,0-2.9,0.7-2.9,0.8l-0.3,2.2c0,0.1,2.6,1.6,2.6,1.6l0.3,1.4c0,0-1.5,2.6-1.5,2.7l1.4,1.8
		c0.1,0.1,3-0.8,3-0.8l1.1,0.7l0.8,3l2.2,0.3c0.1,0,1.5-2.6,1.5-2.6l1.4-0.3c0,0,2.6,1.6,2.7,1.5l1.8-1.2
		C687.8,26.9,686.8,24,686.8,24z M682.5,22.1c-1.4,1.1-3.4,0.8-4.6-0.7c-1.1-1.5-0.8-3.5,0.5-4.6s3.4-0.8,4.6,0.7
		C684.1,19,683.9,21.1,682.5,22.1z"/>
	<path class="st4" d="M822,151.8l1.2-2c0,0,5.2-1.2,5.2-1.5l0.5-4c0-0.2-4.7-3-4.7-3l-0.5-2.5c0,0,2.7-4.7,2.7-4.9l-2.5-3.2
		c-0.2-0.2-5.4,1.5-5.4,1.5l-2-1.2l-1.5-5.4l-4-0.5c-0.2,0-2.7,4.7-2.7,4.7l-2.5,0.5c0,0-4.7-3-4.9-2.7l-3.2,2.5
		c-0.2,0.2,1.5,5.4,1.5,5.4l-1.2,2c0,0-5.2,1.2-5.2,1.5l-0.5,4c0,0.2,4.7,3,4.7,3l0.5,2.5c0,0-2.7,4.7-2.7,4.9l2.5,3.2
		c0.2,0.2,5.4-1.5,5.4-1.5l2,1.2l1.5,5.4l4,0.5c0.2,0,2.7-4.7,2.7-4.7l2.5-0.5c0,0,4.7,3,4.9,2.7l3.2-2.2
		C823.5,157,822,151.8,822,151.8z M814.1,148.3c-2.5,2-6.2,1.5-8.4-1.2s-1.5-6.4,1-8.4s6.2-1.5,8.4,1.2S816.6,146.3,814.1,148.3z"/>
	<path class="st4" d="M174.8,288.2l0.5-0.9c0,0,2.3-0.5,2.3-0.7l0.2-1.7c0-0.2-2.1-1.3-2.1-1.3l-0.2-1c0,0,1.2-1.9,1.1-2.1l-1-1.4
		c-0.1-0.1-2.3,0.6-2.3,0.6l-0.9-0.5c0,0-0.6-2.3-0.7-2.3l-1.7-0.2c-0.2,0-1.2,2-1.2,2l-1,0.2c0,0-2-1.3-2.1-1.2l-1.4,1
		c-0.1,0.1,0.6,2.3,0.6,2.3l-0.5,0.9c0,0-2.3,0.5-2.3,0.7l-0.2,1.7c0,0.2,2.1,1.3,2.1,1.3l0.2,1c0,0-1.2,1.9-1.1,2.1l1,1.4
		c0.1,0.1,2.3-0.6,2.3-0.6l0.9,0.5c0,0,0.6,2.3,0.7,2.3l1.7,0.2c0.2,0,1.2-2,1.2-2l1-0.2c0,0,2,1.3,2.1,1.2l1.4-1
		C175.6,290.4,174.8,288.2,174.8,288.2z M171.4,286.7c-1.1,0.8-2.7,0.6-3.6-0.5c-0.9-1.1-0.7-2.7,0.4-3.6c1.1-0.8,2.7-0.6,3.6,0.5
		C172.8,284.2,172.6,285.9,171.4,286.7z"/>
	<path class="st4" d="M947.1,283.6l1-1.6c0,0,4.2-1,4.1-1.2l0.4-3.1c0-0.3-3.8-2.3-3.8-2.3l-0.4-1.9c0,0,2.2-3.5,2-3.8l-1.9-2.6
		c-0.1-0.1-4.2,1.1-4.2,1.1l-1.6-1c0,0-1.1-4.2-1.2-4.2l-3.1-0.4c-0.3,0-2.2,3.7-2.2,3.7l-1.9,0.4c0,0-3.7-2.3-3.9-2.2l-2.6,1.9
		c-0.1,0.1,1.1,4.2,1.1,4.2l-1,1.6c0,0-4.2,1-4.1,1.2l-0.4,3.1c0,0.3,3.8,2.3,3.8,2.3l0.4,1.9c0,0-2.2,3.5-2,3.8l1.9,2.6
		c0.1,0.1,4.2-1.1,4.2-1.1l1.6,1c0,0,1.1,4.2,1.2,4.2l3.1,0.4c0.3,0,2.2-3.7,2.2-3.7l1.9-0.4c0,0,3.7,2.3,3.9,2.2l2.6-1.9
		C948.5,287.7,947.1,283.6,947.1,283.6z M941,280.9c-2,1.5-4.9,1.1-6.5-1s-1.2-5,0.8-6.5s4.9-1.1,6.5,1
		C943.3,276.4,942.9,279.4,941,280.9z"/>
</g>
<g>
	<path class="st12" d="M68.5,237.9v7.7c-0.9-0.2-1.7-0.4-2.4-0.9c-0.6-0.4-1.3-0.6-2.1-0.4c-1.4,0.2-2.6,1.4-2.8,2.9
		c-0.2,2.1,1.3,3.7,3.3,3.7c0.6,0,1-0.1,1.4-0.3c0.9-0.4,1.8-0.7,2.7-0.9v7.7h7.7c-0.2-0.9-0.6-1.8-0.9-2.7
		c-0.2-0.4-0.3-0.9-0.3-1.4c0-2,1.7-3.6,3.7-3.3c1.5,0.2,2.6,1.3,2.9,2.8c0.1,0.8,0,1.5-0.4,2.1c-0.4,0.8-0.7,1.7-0.9,2.4h7.7v-19.5
		L68.5,237.9L68.5,237.9z"/>
	<path class="st1" d="M44.9,249.9l7-3.1c0.2,0.9,0.3,1.7,0.2,2.6c-0.1,0.7,0.1,1.5,0.6,2.1c0.8,1.2,2.4,1.8,3.7,1.3
		c2-0.6,2.9-2.8,2.1-4.5c-0.2-0.5-0.5-0.9-0.9-1.2c-0.7-0.6-1.3-1.3-1.9-2.1l7-3.1l-3.1-7c-0.8,0.6-1.5,1.2-2.1,1.9
		c-0.3,0.4-0.7,0.6-1.2,0.9c-1.8,0.8-3.9-0.2-4.5-2.1c-0.4-1.4,0.2-2.9,1.3-3.7c0.7-0.4,1.4-0.6,2.1-0.6c0.9,0.1,1.7,0,2.6-0.2
		l-3.1-7L37,231.8L44.9,249.9z"/>
	<path class="st13" d="M88,257.4h-7.7c0.2-0.9,0.4-1.7,0.9-2.4c0.4-0.6,0.6-1.3,0.4-2.1c-0.2-1.4-1.4-2.6-2.9-2.8
		c-2.1-0.2-3.7,1.3-3.7,3.3c0,0.6,0.1,1,0.3,1.4c0.4,0.9,0.7,1.8,0.9,2.7h-7.7v7.7c0.9-0.2,1.8-0.6,2.7-0.9c0.4-0.2,0.9-0.3,1.4-0.3
		c2,0,3.6,1.7,3.3,3.7c-0.2,1.5-1.3,2.6-2.8,2.9c-0.8,0.1-1.5,0-2.1-0.4c-0.8-0.4-1.7-0.7-2.4-0.9v7.7h19.5L88,257.4L88,257.4z"/>
	<path class="st14" d="M68.5,276.8v-7.7c0.9,0.2,1.7,0.4,2.4,0.9c0.6,0.4,1.3,0.6,2.1,0.4c1.4-0.2,2.6-1.4,2.8-2.9
		c0.2-2.1-1.3-3.7-3.3-3.7c-0.6,0-1,0.1-1.4,0.3c-0.9,0.4-1.8,0.7-2.7,0.9v-7.7h-7.7c0.2,0.9,0.6,1.8,0.9,2.7
		c0.2,0.4,0.3,0.9,0.3,1.4c0,2-1.7,3.6-3.7,3.3c-1.5-0.2-2.6-1.3-2.9-2.8c-0.1-0.8,0-1.5,0.4-2.1c0.4-0.8,0.7-1.7,0.9-2.4h-7.7v19.5
		L68.5,276.8L68.5,276.8z"/>
</g>
<g>
	<g>
		<g>
			<g>
				<path class="st15" d="M673.9,55.6c0-13.4-11.1-24.4-24.4-24.4H310.1c-13.3,0-24.2,10.9-24.2,24.2v227.1h387.9V55.6H673.9
					L673.9,55.6z"/>
			</g>
		</g>
		<path class="st16" d="M628.9,45.7H330.7c-29.9,0-30.4,1.6-30.4,20.8h359.6C659.7,46.6,659,45.7,628.9,45.7z"/>
		<g>
			<g>
				<path class="st17" d="M247.7,282.5c0.1,11.9,6.7,27.6,14.6,27.6h435.3c7.9,0,14.5-15.8,14.6-27.6H247.7z"/>
			</g>
		</g>
		<path class="st15" d="M522.3,297.9c0,2.1-1.7,3.6-3.6,3.6h-77.5c-2.1,0-3.6-1.7-3.6-3.6l0,0c0-2.1,1.7-3.6,3.6-3.6h77.5
			C520.6,293.9,522.3,295.6,522.3,297.9L522.3,297.9z"/>
	</g>
	<path class="st17" d="M649.8,45.5H559H400.1h-90.8c-5.9,0-10.9,5-10.9,10.9v201.9c0,5.9,5,10.9,10.9,10.9h90.8H559h90.8
		c5.9,0,10.9-5,10.9-10.9V56.6C660.5,50.5,655.8,45.5,649.8,45.5z"/>
	<path class="st18" d="M307.7,269.1h344.4c5.2,0,9.4-4.3,9.4-9.4V54.1c0-5.2-4.3-9.4-9.4-9.4H307.7c-5.2,0-9.4,4.3-9.4,9.4v205.8
		C298.4,265.1,302.5,269.1,307.7,269.1z"/>
	<g>
		<g>
			<g>
				<g>
					<g>
						<defs>
							<path id="SVGID_1_" d="M307.6,269.1H652c5.2,0,9.4-4.3,9.4-9.4V54.1c0-5.2-4.3-9.4-9.4-9.4H307.6c-5.2,0-9.4,4.3-9.4,9.4
								v205.8C298.3,265.1,302.3,269.1,307.6,269.1z"/>
						</defs>
						<clipPath id="SVGID_2_">
							<use xlink:href="#SVGID_1_"  style="overflow:visible;"/>
						</clipPath>
						<rect x="298.2" y="41.2" class="st19" width="26.8" height="229.1"/>
					</g>
				</g>
			</g>
		</g>
	</g>
	<path class="st4" d="M324.8,44.7h327.4c5.1,0,9.2,4.1,9.2,9.2v31.3H324.8V44.7z"/>
</g>
<g>
	<path class="st14" d="M222.7,24c-7.4,0.1-13.1,6.3-13,13.6c0.1,3.6,2,6.5,3.7,9.3c4.2,5.9,2,9.3,4.2,9.3l5.7-0.1L229,56
		c2.3,0-0.1-3.3,3.7-9.5c1.7-2.7,3.5-5.8,3.3-9.3C236.2,29.6,230,23.8,222.7,24z"/>
	<path class="st20" d="M232.9,28.2c0,0.2,0,0.4,0,0.6c0.2,10.6-7,19.8-16.9,22.2c1,3.3,0.4,5.1,2.1,4.9l5.7-0.1l5.7-0.1
		c2.3,0-0.1-3.3,3.7-9.5c1.7-2.7,3.5-5.8,3.3-9.3C236.3,33.6,235,30.5,232.9,28.2z"/>
	<path class="st15" d="M216.7,42.4c-0.1-0.1-0.4-0.2-0.6-0.1c-0.1,0.1-0.2,0.4-0.1,0.6c0.1,0.1,0.1,0.1,0.2,0.2l4.7,13.3
		c0.1,0.1,0.2,0.2,0.4,0.2s0.1,0,0.1,0c0.2-0.1,0.4-0.4,0.2-0.5l-4.4-12.3c1,0.5,2.2,0.7,3.2,0.4c0.2-0.1,0.4-0.1,0.6-0.2
		c0.5,0.4,1,0.5,1.7,0.5s1.5-0.2,2.1-0.7c0.4,0.1,0.6,0.4,1,0.4c1.1,0.4,2.2,0.1,3.1-0.2l-3.7,12.5c-0.1,0.2,0.1,0.4,0.2,0.5
		c0.1,0,0.1,0,0.1,0c0.1,0,0.4-0.1,0.4-0.2l4.2-13.6c0-0.1,0.1-0.1,0.1-0.1c0.1-0.1,0.1-0.4-0.1-0.6c-0.1-0.1-0.4-0.1-0.6,0.1
		c-0.7,1-2,1.4-3.5,1c-0.1-0.1-0.4-0.1-0.7-0.2c0.2-0.4,0.4-0.7,0.4-1.4c0-0.9-0.4-1.5-0.9-1.7c-0.4-0.1-0.6-0.1-0.9,0.1
		c-0.4,0.4-0.6,1-0.6,1.9c0,0.5,0.4,1,0.7,1.4c-0.6,0.5-1.7,0.6-2.5,0.1c0.2-0.4,0.4-0.9,0.5-1.5c0-0.7-0.2-1.5-0.7-1.7
		c-0.4-0.1-0.6-0.1-0.9,0c-0.5,0.2-0.7,1-0.7,1.7c0,0.6,0.2,1,0.6,1.5c-0.1,0-0.1,0.1-0.1,0.1C219.2,43.8,217.4,43.1,216.7,42.4z
		 M224.7,40.6L224.7,40.6L224.7,40.6c0.1,0.1,0.4,0.4,0.4,1.1c0,0.2-0.1,0.6-0.2,0.7c-0.2-0.2-0.4-0.5-0.4-0.7
		C224.3,41.1,224.6,40.7,224.7,40.6z M221.1,40.7L221.1,40.7L221.1,40.7c0.1,0.1,0.4,0.4,0.4,1c0,0.4-0.1,0.7-0.4,1
		c-0.2-0.2-0.4-0.6-0.4-1C220.9,41.1,221,40.9,221.1,40.7z"/>
	<g>
		<path class="st21" d="M229,43.8l-3.7,12h0.9L230,43c0-0.1,0.1-0.1,0.1-0.1c0.1-0.1,0.1-0.4-0.1-0.6c-0.1-0.1-0.4-0.1-0.6,0.1
			c-0.5,0.6-1,1-1.7,1.1c-0.2,0.4-0.5,0.6-0.7,0.7C227.9,44.2,228.5,44.1,229,43.8z"/>
		<path class="st21" d="M221.6,55.8l-2.2-6.1c-0.2,0.1-0.5,0.1-0.7,0.4l2,5.8L221.6,55.8z"/>
	</g>
	<g>
		<path class="st22" d="M228.2,55.7l-9.3,0.2c-0.6,0-1,1-1,1.5c0,0.6,0.4,1.5,1,1.5l3.1-0.1l-3.5,0.7c-0.5,0.1-0.7,0.5-0.6,1
			c0.1,0.4,0.5,0.6,1,0.6c0.1,0,0.1-0.1,0.4-0.1l9.3-3.2c0.5-0.1,0.7-0.7,0.6-1.2C229,56.1,228.7,55.7,228.2,55.7z"/>
		<path class="st22" d="M228.3,62.6l-3.1,0.1l3.3-1.7c0.5-0.1,0.7-0.9,0.6-1.5c-0.1-0.5-0.7-0.9-1.2-0.7l-9.3,3.2
			c-0.5,0.1-0.7,0.7-0.6,1.2s0.5,1,1,1h0.7l1.5,2.3l4.7-0.1l1.5-2.3h0.9c0.6,0,1-0.4,1-0.7C229.3,62.9,228.9,62.6,228.3,62.6z"/>
	</g>
	<g>
		<line class="st23" x1="222.9" y1="21" x2="222.9" y2="12.8"/>
		<line class="st23" x1="239.3" y1="19.5" x2="233.8" y2="25.1"/>
		<line class="st23" x1="246.1" y1="35.9" x2="239" y2="35.9"/>
		<line class="st23" x1="212.1" y1="25.1" x2="206.5" y2="19.5"/>
		<line class="st23" x1="206.8" y1="35.9" x2="199.8" y2="35.9"/>
		<line class="st23" x1="201.4" y1="27.3" x2="208.4" y2="30.1"/>
		<line class="st23" x1="217" y1="22.1" x2="213.8" y2="14.6"/>
		<line class="st23" x1="228.5" y1="21.9" x2="231.5" y2="14.4"/>
		<line class="st23" x1="244.2" y1="26.8" x2="237.4" y2="29.7"/>
		<line class="st23" x1="238.3" y1="42" x2="244.4" y2="44.5"/>
		<line class="st23" x1="207.8" y1="42.4" x2="201.6" y2="45.1"/>
	</g>
</g>
<g id="XMLID_2_">
	<g id="XMLID_561_">
		<g id="XMLID_563_">
			<g id="XMLID_61_">
				<polygon class="st24" points="927.9,41.1 886.9,41.1 907.5,57 				"/>
			</g>
		</g>
		<g id="XMLID_559_">
			<g id="XMLID_849_">
				<polygon class="st25" points="886.9,41.1 927.9,41.1 907.3,20.1 				"/>
			</g>
		</g>
	</g>
	<path class="st26" d="M925,62.5l-34,0.4c-0.7,0-1.3-0.6-1.3-1.3l-0.4-33.1c0-0.7,0.6-1.3,1.3-1.3l34-0.4c0.7,0,1.3,0.6,1.3,1.3
		l0.4,33.1C926.3,61.7,925.8,62.3,925,62.5z"/>
	<g id="XMLID_562_">
		<g id="XMLID_60_">
			<polygon class="st27" points="886.9,41.1 886.8,73 907.5,57 			"/>
		</g>
	</g>
	<g id="XMLID_564_">
		<g id="XMLID_66_">
			<polygon class="st25" points="886.8,73 928,72.9 907.5,57 			"/>
		</g>
	</g>
	<g id="XMLID_565_">
		<g id="XMLID_67_">
			<polygon class="st27" points="907.5,57 928,72.9 927.9,41.1 			"/>
		</g>
	</g>
	<g id="XMLID_568_">
		<g id="XMLID_569_">
			<g id="XMLID_180_">
				<g id="XMLID_71_">
					<path class="st1" d="M907.3,47.4c-2.8,0-5-2.2-5-5s2.2-5,5-5s5,2.2,5,5C912.4,45,910.2,47.4,907.3,47.4z M907.5,39
						c-1.9,0-3.4,1.5-3.4,3.4s1.5,3.4,3.4,3.4s3.4-1.5,3.4-3.4S909.3,39,907.5,39z"/>
				</g>
			</g>
		</g>
		<g id="XMLID_570_">
			<g id="XMLID_70_">
				<g id="XMLID_72_">
					<path class="st1" d="M907.5,51c-4.9,0-8.7-4-8.7-8.6c0-4.9,4-8.7,8.6-8.7c4.9,0,8.7,4,8.7,8.6c0,2.2-1.8,6.1-3.8,6
						c-0.9,0-1.4-1-1.4-2.4v-7.3h1.6v7.3c0,0.3,0.1,0.6,0.1,0.8c0.8-0.4,2-2.7,2-4.3c0-4-3.1-7.2-7.1-7.2s-7.2,3.1-7.2,7.1
						s3.1,7.2,7.1,7.2c1.2,0,2.3-0.3,3.3-0.9l0.8,1.4C910.3,50.7,908.8,51,907.5,51z"/>
				</g>
			</g>
		</g>
	</g>
</g>
<g>
	<g>
		<path class="st4" d="M728.8,186.1l16.7-16.7c3.4,1.6,7.3,1.3,9.9-1.3c2.4-2.4,2.8-6,1.5-9.3l-3.4,3.4c-1.5,1.5-4.1,1.5-5.7,0
			c-1.5-1.5-1.5-4.1,0-5.7l3.4-3.4c-3.3-1.4-6.9-0.9-9.3,1.5c-2.5,2.5-2.9,6.5-1.3,9.9l-16.7,16.7c-2.8-1.1-6.1-0.4-8.4,1.8
			c-3.1,3.1-3.1,8.2,0,11.3s8.2,3.1,11.3,0C729.2,192.2,729.9,188.9,728.8,186.1z M718,192.1c-1.8-1.8-1.8-4.8,0-6.7
			c1.8-1.8,4.8-1.8,6.7,0c1.8,1.8,1.8,4.8,0,6.7C722.8,193.9,719.8,193.9,718,192.1z"/>
		<path class="st5" d="M724.7,192.1c-1.8,1.8-4.8,1.8-6.7,0l-2.3,2.3c3.1,3.1,8.2,3.1,11.3,0c2.2-2.2,2.9-5.5,1.8-8.4l16.7-16.7
			c3.4,1.6,7.3,1.3,9.9-1.3c2.4-2.4,2.8-6,1.5-9.3l-3.4,3.4c-1.5,1.5-4.1,1.5-5.7,0l-23.3,23.3C726.5,187.3,726.5,190.3,724.7,192.1
			z"/>
	</g>
	<g>
		<path class="st14" d="M743.9,175.3l-7.7,7.7c-0.8,0.8-2,0.8-2.8,0l0,0c-0.8-0.8-0.8-2,0-2.8l7.7-7.7c0.8-0.8,2-0.8,2.8,0l0,0
			C744.5,173.3,744.5,174.5,743.9,175.3z"/>
		<path class="st28" d="M756.1,195.4L756.1,195.4c-1.9,1.9-5.1,1.9-7.1,0l-12.6-12.6l7.1-7.1l12.6,12.6
			C758.1,190.1,758.1,193.3,756.1,195.4z"/>
		<path class="st4" d="M722.7,157.3l-5.6-3.3l-2-1.2c-1-0.6-2,0.6-1.5,1.5l1.2,2l3.3,5.6l1.4-1.4l16.9,16.8l1.8-1.8l-16.9-16.9
			L722.7,157.3z"/>
		<path class="st29" d="M756.1,195.4c1.9-1.9,1.9-5.1,0-7.1l-12.6-12.6l-3.5,3.5L756.1,195.4z"/>
		<path class="st20" d="M741,172.5l-3.9,3.9l2.8,2.8l3.9-3.9c0.8-0.8,0.8-2,0-2.8C743.1,171.7,741.8,171.7,741,172.5z"/>
		<path class="st5" d="M738.1,175.5l-16.9-16.9l1.4-1.4l-5.6-3.3l-2-1.2c-0.6-0.3-1-0.1-1.3,0.2l23.5,23.5L738.1,175.5z"/>
	</g>
</g>
<g>
	<path class="st30" d="M364.3,1c-0.2,0-3.9,0-3.9,0l-3,1.4l-1.7,2.5l-0.4,3.4l1.3,3.4l3.1,1.8l4.5,0.3c0,0,1.9-3.9,1.9-4.6
		C366.1,8.6,364.3,1,364.3,1z"/>
	<path class="st12" d="M429.7,12.8h-68.1c-3,0-5.5-2.4-5.5-5.5s2.4-5.5,5.5-5.5h68.1V0h-68.1c-4,0-7.3,3.2-7.3,7.3s3.2,7.3,7.3,7.3
		h68.1V12.8z"/>
	<path class="st31" d="M362.6,12.8h66.8c-2.4,0-4.3-2.4-4.3-5.5s2-5.5,4.3-5.5h-66.8c-2.4,0-4.3,2.4-4.3,5.5S360.2,12.8,362.6,12.8z
		"/>
	<path class="st32" d="M410.9,30.1c0.2,0,4.5,0,4.5,0l3.5-1.7l1.9-2.9l0.4-3.9l-1.6-3.9l-3.5-2l-5.1-0.3c0,0-2.2,4.5-2.2,5.2
		S410.9,30.1,410.9,30.1z"/>
	<path class="st33" d="M360.7,16.7H414c3.4,0,6.2,2.8,6.2,6.2s-2.8,6.2-6.2,6.2h-53.3v2.1H414c4.6,0,8.2-3.8,8.2-8.2
		s-3.8-8.2-8.2-8.2h-53.3V16.7L360.7,16.7z"/>
	<path class="st31" d="M412.9,16.7h-51.6c2.7,0,4.9,2.8,4.9,6.2s-2.2,6.2-4.9,6.2h51.6c2.7,0,4.9-2.8,4.9-6.2S415.6,16.7,412.9,16.7
		z"/>
	<path class="st34" d="M425.1,7.4h-66.8c0,3,2,5.4,4.3,5.4h66.8C427,12.8,425.1,10.4,425.1,7.4z"/>
	<path class="st35" d="M361.2,29.1h51.6c2.7,0,4.9-2.8,4.9-6.2h-51.6C366.1,26.3,363.9,29.1,361.2,29.1z"/>
	<polygon class="st14" points="391.5,22.9 405.5,22.9 405.5,35.7 398.5,33.4 391.5,35.7 	"/>
	<polygon class="st20" points="398.5,33.4 405.5,35.7 405.5,22.9 398.5,22.9 	"/>
</g>
<g>
	<path class="st36" d="M356.5,52.3c1.6-1.6,3.6-2.5,6-2.5c3.1,0,5.9,1.7,7.4,4.4c1.3-0.5,2.7-0.8,4.1-0.8c5.6,0,10.2,4.7,10.2,10.3
		S379.8,74,374,74c-0.7,0-1.5,0-2-0.1c-1.3,2.3-3.6,3.9-6.5,3.9c-1.1,0-2.3-0.3-3.2-0.7c-1.3,3.1-4.4,5.2-7.9,5.2
		c-3.6,0-6.8-2.3-8-5.6c-0.5,0.1-1.1,0.1-1.7,0.1c-4.4,0-7.9-3.5-7.9-8c0-3,1.6-5.5,4-7c-0.4-1.1-0.7-2.4-0.7-3.6
		c0-5.1,4.1-9.2,9.2-9.2C352.1,48.7,354.7,50.2,356.5,52.3"/>
	<path class="st18" d="M343.6,66.1L343.6,66.1c0.1,0.1,0.1,0.3,0.3,0.3c0.4,0.3,1,0.3,1.5,0.3c1,0,1.6-0.5,1.6-1.5l0,0
		c0-0.7-0.7-1-1.3-1.3h-0.1c-0.4-0.1-0.8-0.3-0.8-0.5l0,0c0-0.3,0.3-0.4,0.5-0.4c0.4,0,0.8,0.1,1.3,0.3h0.1c0,0,0.1-0.4,0.1-0.5
		v-0.1c-0.4-0.3-0.8-0.4-1.5-0.4h-0.1c-0.8,0-1.6,0.5-1.6,1.3l0,0c0,0.8,0.7,1.1,1.3,1.3h0.1c0.4,0.1,0.8,0.3,0.8,0.5l0,0
		c0,0.3-0.3,0.5-0.7,0.5c-0.1,0-0.7,0-1.3-0.4c0,0-0.1,0-0.1-0.1h-0.1L343.6,66.1L343.6,66.1z"/>
	<path class="st18" d="M357.9,66.1L357.9,66.1c0.1,0.1,0.1,0.3,0.3,0.3c0.4,0.3,1,0.3,1.5,0.3c1,0,1.6-0.5,1.6-1.5l0,0
		c0-0.7-0.7-1-1.3-1.3h-0.1c-0.4-0.1-0.8-0.3-0.8-0.5l0,0c0-0.3,0.3-0.4,0.5-0.4c0.4,0,0.8,0.1,1.3,0.3h0.1c0,0,0.1-0.4,0.1-0.5
		v-0.1c-0.4-0.3-0.8-0.4-1.5-0.4h-0.1c-0.8,0-1.6,0.5-1.6,1.3l0,0c0,0.8,0.7,1.1,1.3,1.3h0.1c0.4,0.1,0.8,0.3,0.8,0.5l0,0
		c0,0.3-0.3,0.5-0.7,0.5c-0.1,0-0.7,0-1.3-0.4c0,0-0.1,0-0.1-0.1h-0.1L357.9,66.1L357.9,66.1z"/>
	<path class="st18" d="M368.5,63.5c-0.1-0.3-0.1-0.5-0.4-0.7c-0.1-0.1-0.4-0.4-0.5-0.4c-0.3-0.1-0.5-0.1-0.8-0.1s-0.5,0-0.8,0.1
		s-0.4,0.3-0.5,0.4c-0.1,0.1-0.3,0.4-0.4,0.7S365,64,365,64.3s0,0.5,0.1,0.8s0.1,0.5,0.4,0.7c0.1,0.1,0.4,0.4,0.5,0.4
		c0.3,0.1,0.5,0.1,0.8,0.1s0.5,0,0.8-0.1s0.4-0.3,0.5-0.4s0.3-0.4,0.4-0.7c0.1-0.3,0.1-0.5,0.1-0.8
		C368.5,64.1,368.5,63.8,368.5,63.5 M367.7,64.4c0,0.4-0.1,0.8-0.3,1.1c-0.1,0.3-0.4,0.4-0.8,0.4s-0.5-0.1-0.8-0.4
		c-0.1-0.3-0.3-0.5-0.3-1.1c0-0.4,0.1-0.8,0.3-1.1c0.1-0.3,0.4-0.4,0.8-0.4s0.5,0.1,0.8,0.4C367.6,63.5,367.7,64,367.7,64.4"/>
	<path class="st18" d="M375.2,65.7C375.2,65.6,375.1,65.6,375.2,65.7c-0.3,0-0.3,0-0.4,0s-0.3,0-0.4,0c-0.4,0-0.7-0.1-1-0.3
		c-0.3-0.3-0.3-0.5-0.3-1.1c0-0.4,0.1-0.8,0.3-1.1c0.1-0.3,0.5-0.4,0.8-0.4s0.5,0,0.8,0.1c0,0,0,0,0.1,0c0.1-0.1,0.1-0.3,0.1-0.5
		v-0.1c-0.1,0-0.4-0.1-0.5-0.1s-0.4,0-0.5,0c-0.3,0-0.7,0-0.8,0.1c-0.3,0.1-0.4,0.3-0.7,0.4c-0.1,0.1-0.3,0.4-0.4,0.7
		s-0.1,0.5-0.1,0.8c0,0.7,0.1,1.3,0.5,1.6c0.4,0.4,0.8,0.5,1.6,0.5c0.4,0,0.8-0.1,1.1-0.1c0,0,0,0,0-0.1L375.2,65.7z"/>
	<path class="st18" d="M379.2,63.3c0-0.3-0.3-0.5-0.3-0.7c-0.1-0.1-0.3-0.3-0.5-0.4c-0.3-0.1-0.4-0.1-0.8-0.1c-0.3,0-0.7,0-0.8,0.1
		c-0.3,0.1-0.4,0.3-0.5,0.4c-0.1,0.1-0.3,0.4-0.4,0.7s-0.1,0.5-0.1,0.8c0,0.3,0,0.5,0.1,0.8s0.3,0.5,0.4,0.7
		c0.1,0.1,0.4,0.3,0.7,0.4s0.5,0.1,1,0.1c0.8,0,1.3-0.1,1.5-0.3c0,0,0,0,0-0.1l-0.1-0.5c0-0.1-0.1,0-0.1,0c-0.1,0.1-0.4,0.1-1.1,0.1
		c-0.4,0-0.7-0.1-1-0.3c-0.1-0.1-0.3-0.5-0.3-0.8h2.7c0,0,0.1,0,0.1-0.1C379.4,64.5,379.6,64,379.2,63.3 M376.6,64
		c0-0.3,0.1-0.4,0.3-0.7c0.1-0.3,0.4-0.4,0.8-0.4s0.5,0.1,0.7,0.4c0.1,0.1,0.1,0.4,0.1,0.7H376.6z"/>
	<path class="st18" d="M357.2,63.3c0-0.3-0.3-0.5-0.3-0.7c-0.1-0.1-0.3-0.3-0.5-0.4c-0.3-0.1-0.4-0.1-0.8-0.1c-0.3,0-0.7,0-0.8,0.1
		c-0.3,0.1-0.4,0.3-0.5,0.4c-0.1,0.1-0.3,0.4-0.4,0.7s-0.1,0.5-0.1,0.8c0,0.3,0,0.5,0.1,0.8s0.3,0.5,0.4,0.7s0.4,0.3,0.7,0.4
		s0.5,0.1,1,0.1c0.8,0,1.3-0.1,1.5-0.3c0,0,0,0,0-0.1l-0.1-0.5c0-0.1-0.1,0-0.1,0c-0.1,0.1-0.4,0.1-1.1,0.1c-0.4,0-0.7-0.1-1-0.3
		c-0.1-0.1-0.3-0.5-0.3-0.8h2.7c0,0,0.1,0,0.1-0.1C357.3,64.5,357.3,64,357.2,63.3 M354.5,64c0-0.3,0.1-0.4,0.3-0.7
		c0.1-0.3,0.4-0.4,0.8-0.4s0.5,0.1,0.7,0.4c0.1,0.1,0.1,0.4,0.1,0.7H354.5z"/>
	<path class="st18" d="M349.5,63.8c-0.1,0-0.3,0-0.4,0c-0.3,0-0.4,0-0.7,0.1c-0.3,0-0.4,0.1-0.5,0.3c-0.1,0.1-0.3,0.3-0.4,0.4
		s-0.1,0.4-0.1,0.5c0,0.3,0,0.4,0.1,0.5s0.1,0.3,0.4,0.4c0.1,0.1,0.3,0.1,0.5,0.3c0.3,0,0.4,0.1,0.7,0.1s0.5,0,0.8,0
		s0.5-0.1,0.7-0.1c0.1,0,0.1,0,0.1,0v-0.1v-2.5c0-0.5-0.1-1-0.4-1.3S349.6,62,349,62c-0.1,0-0.5,0-0.7,0c0,0-0.5,0.1-0.8,0.3
		c0,0,0,0,0,0.1l0.1,0.5h0.1l0,0c0.5-0.3,1.1-0.3,1.1-0.3c0.3,0,0.5,0,0.7,0.1c0.1,0.1,0.3,0.3,0.3,0.7v0.1
		C349.8,63.8,349.5,63.8,349.5,63.8 M348.6,65.7c-0.1-0.1-0.1-0.1-0.1-0.1c0-0.1-0.1-0.1-0.1-0.4s0.1-0.4,0.3-0.5
		c0,0,0.3-0.1,0.8-0.1c0.4,0,0.7,0,0.7,0v1.3c0,0-0.3,0.1-0.7,0.1C348.7,65.9,348.6,65.7,348.6,65.7"/>
	<path class="st18" d="M371.9,62.4C371.9,62.4,371.7,62.2,371.9,62.4c-0.1-0.1-0.3-0.1-0.5-0.1c-0.3,0-0.5,0-0.7,0.1
		s-0.4,0.1-0.4,0.3v-0.3c0,0,0-0.1-0.1-0.1h-0.7c0,0-0.1,0-0.1,0.1v4.1c0,0,0,0.1,0.1,0.1h0.7c0,0,0.1,0,0.1-0.1v-2.1
		c0-0.3,0-0.5,0.1-0.7c0-0.1,0.1-0.3,0.3-0.4c0.1-0.1,0.3-0.1,0.3-0.1c0.1,0,0.3,0,0.4,0s0.3,0,0.3,0s0.1,0,0.1-0.1
		C371.7,62.8,371.7,62.5,371.9,62.4"/>
	<path class="st18" d="M365.2,60.5c-0.1,0-0.1,0-0.3,0c-0.1,0-0.3,0-0.4,0c-0.5,0-0.8,0.1-1.1,0.4c-0.3,0.3-0.4,0.7-0.5,1.3v0.1
		h-0.5c0,0-0.1,0-0.1,0.1l-0.1,0.5c0,0,0,0.1,0.1,0.1h0.5l-0.5,3.4c0,0.3-0.1,0.5-0.1,0.7s-0.1,0.3-0.1,0.4s-0.1,0.1-0.3,0.1
		c-0.1,0-0.1,0-0.3,0c0,0-0.1,0-0.3,0h-0.1H361l-0.1,0.5v0.1c0.1,0,0.1,0,0.3,0.1c0.1,0,0.3,0,0.4,0c0.3,0,0.4,0,0.7-0.1
		c0.1,0,0.4-0.1,0.5-0.4c0.1-0.1,0.3-0.4,0.4-0.5c0.1-0.3,0.1-0.5,0.3-1l0.5-3.5h0.8c0,0,0.1,0,0.1-0.1l0.1-0.5c0,0,0-0.1-0.1-0.1
		H364c0,0,0-0.3,0.1-0.5c0-0.1,0.1-0.3,0.1-0.3s0.1-0.1,0.3-0.1c0.1,0,0.1,0,0.3,0c0.2,0,0.1,0,0.3,0c0.1,0,0.1,0,0.1,0
		c0.1,0,0.1,0,0.1,0L365.2,60.5L365.2,60.5"/>
	<path class="st18" d="M352.8,66.5C352.8,66.5,352.7,66.5,352.8,66.5l-0.8,0.1c0,0-0.1,0-0.1-0.1v-5.9c0,0,0-0.1,0.1-0.1h0.7
		c0,0,0.1,0,0.1,0.1L352.8,66.5L352.8,66.5z"/>
</g>
<g>
	<g>
		<g>
			<defs>
				<rect id="SVGID_3_" x="327.8" y="85.2" width="169.7" height="185.5"/>
			</defs>
			<clipPath id="SVGID_4_">
				<use xlink:href="#SVGID_3_"  style="overflow:visible;"/>
			</clipPath>
			<g class="st37">
				<polygon class="st20" points="412.3,241.5 373.6,241.5 373.6,236.8 411,236.8 437.1,217.5 474.9,218.8 503.5,199.9 520.7,179.3 
					547.7,179.3 572.9,165 593.5,184.8 626.3,161.2 628.8,165 593.1,190.6 572.1,170.9 549,184 522.8,184 506.4,203.7 506.4,203.7 
					476.2,223.5 438.8,222.1 				"/>
				<polygon class="st13" points="503.5,231.4 468.6,231.4 450.1,212.9 426.6,212.9 410.2,230.6 373.6,230.6 373.6,226 408.1,226 
					424.5,208.2 452.2,208.2 470.7,226.8 501.8,226.8 517.8,213.4 532.6,192.7 557.8,193.5 575,203.7 616.2,184.4 617.9,188.5 
					574.6,209.1 556.6,198.2 535,197.4 521.5,216.7 				"/>
				<polygon class="st38" points="546,228.9 458.1,175.9 422.4,175.9 392.6,222.1 371.5,222.1 371.5,217.5 390.1,217.5 419.9,171.3 
					459.4,171.3 545.2,222.9 627.1,130.2 630.5,133.1 				"/>
				<polygon class="st12" points="412.7,210.4 371.9,210.4 371.9,205.7 410.6,205.7 435.4,182.3 486.6,182.3 500.1,159.1 522,159.1 
					542.1,165.4 557.4,150.3 586,150.3 612.9,111.5 616.6,114.2 588.5,155 559.1,155 543.5,170.9 521.5,163.7 502.7,163.7 
					489.2,186.9 437.1,186.9 				"/>
				<rect x="403.4" y="101.6" class="st20" width="2.5" height="150.5"/>
				<rect x="470.2" y="101.6" class="st13" width="2.5" height="150.5"/>
				<rect x="603.6" y="101.6" class="st6" width="2.5" height="150.5"/>
				<rect x="537.1" y="101.6" class="st12" width="2.5" height="150.5"/>
				<g>
					<g>
						<g>
							<g>
								<g>
									<g>
										<rect x="403.9" y="250.7" class="st7" width="2.1" height="2.9"/>
									</g>
								</g>
							</g>
						</g>
					</g>
				</g>
				<g>
					<g>
						<g>
							<g>
								<g>
									<g>
										<rect x="444.2" y="250.7" class="st8" width="2.1" height="2.9"/>
									</g>
								</g>
							</g>
						</g>
					</g>
				</g>
				<g>
					<g>
						<g>
							<g>
								<g>
									<g>
										<rect x="484.5" y="250.7" class="st39" width="2.1" height="2.9"/>
									</g>
								</g>
							</g>
						</g>
					</g>
				</g>
				<g>
					<g>
						<g>
							<g>
								<g>
									<g>
										<rect x="525.3" y="250.7" class="st7" width="2.1" height="2.9"/>
									</g>
								</g>
							</g>
						</g>
					</g>
				</g>
				<g>
					<g>
						<g>
							<g>
								<g>
									<g>
										<rect x="565.7" y="250.7" class="st6" width="2.1" height="2.9"/>
									</g>
								</g>
							</g>
						</g>
					</g>
				</g>
				<g>
					<g>
						<g>
							<g>
								<g>
									<g>
										<rect x="606.1" y="250.7" class="st8" width="2.1" height="2.9"/>
									</g>
								</g>
							</g>
						</g>
					</g>
				</g>
				<g>
					<g>
						<g>
							<g>
								<g>
									<polygon class="st12" points="637.7,254.1 369.1,254.1 369.1,102.4 374.1,102.4 374.1,249 637.7,249 									"/>
								</g>
							</g>
						</g>
					</g>
				</g>
				<g>
					<path class="st40" d="M341.8,106l0.8,0.9l0.7-0.5c0.1-0.1,0.3-0.3,0.4-0.4c0,0.3,0,0.7,0,0.9v3h1.6v-5.5H344L341.8,106z"/>
					<path class="st40" d="M348.5,110.1c0.7,0,1.3-0.3,1.6-0.7c0.3-0.4,0.5-1.3,0.5-2.2s-0.1-1.7-0.5-2.2c-0.3-0.5-0.8-0.7-1.6-0.7
						s-1.3,0.3-1.6,0.7c-0.3,0.4-0.5,1.3-0.5,2.2s0.1,1.7,0.5,2.2C347.3,109.8,347.8,110.1,348.5,110.1z M348.1,105.9
						c0.1-0.3,0.3-0.4,0.4-0.4s0.3,0.1,0.4,0.4s0.1,0.7,0.1,1.3s0,1.1-0.1,1.3c-0.1,0.3-0.3,0.4-0.4,0.4s-0.3-0.1-0.4-0.4
						s-0.1-0.7-0.1-1.4C348.1,106.6,348.1,106.2,348.1,105.9z"/>
					<path class="st40" d="M353.2,110.1c0.7,0,1.3-0.3,1.6-0.7c0.3-0.4,0.5-1.3,0.5-2.2s-0.1-1.7-0.5-2.2c-0.3-0.5-0.8-0.7-1.6-0.7
						s-1.3,0.3-1.6,0.7c-0.3,0.4-0.5,1.3-0.5,2.2s0.1,1.7,0.5,2.2C351.9,109.8,352.4,110.1,353.2,110.1z M352.8,105.9
						c0.1-0.3,0.3-0.4,0.4-0.4s0.3,0.1,0.4,0.4s0.1,0.7,0.1,1.3s0,1.1-0.1,1.3c-0.1,0.3-0.3,0.4-0.4,0.4s-0.3-0.1-0.4-0.4
						s-0.1-0.7-0.1-1.4C352.7,106.6,352.7,106.2,352.8,105.9z"/>
					<polygon class="st40" points="358.2,110 361.3,104.5 360.3,104.5 357,110 					"/>
					<path class="st40" d="M357,108c0.4,0,0.8-0.1,1.1-0.4c0.3-0.3,0.4-0.7,0.4-1.3s-0.1-0.9-0.4-1.3c-0.3-0.3-0.5-0.4-1.1-0.4
						c-0.4,0-0.8,0.1-1.1,0.4s-0.4,0.7-0.4,1.3s0.1,0.9,0.4,1.3C356.2,107.6,356.6,108,357,108z M356.8,105.5c0-0.1,0.1-0.1,0.3-0.1
						c0.1,0,0.1,0,0.3,0.1c0,0.1,0.1,0.3,0.1,0.7c0,0.3,0,0.5-0.1,0.7c0,0.1-0.1,0.1-0.3,0.1c-0.1,0-0.1,0-0.3-0.1
						c0-0.1-0.1-0.3-0.1-0.7C356.8,105.9,356.8,105.6,356.8,105.5z"/>
					<path class="st40" d="M360,108.4c0,0.5,0.1,0.9,0.4,1.3c0.3,0.3,0.5,0.4,1.1,0.4c0.4,0,0.8-0.1,1.1-0.4
						c0.3-0.3,0.4-0.7,0.4-1.3s-0.1-0.9-0.4-1.3c-0.3-0.3-0.7-0.4-1.1-0.4s-0.8,0.1-1.1,0.4C360,107.4,360,107.9,360,108.4z
						 M361.1,107.6c0-0.1,0.1-0.1,0.3-0.1c0.1,0,0.1,0.1,0.3,0.3c0,0.1,0,0.4,0,0.5c0,0.3,0,0.4,0,0.5s-0.1,0.3-0.3,0.3
						c-0.1,0-0.1,0-0.3-0.1c0-0.1-0.1-0.3-0.1-0.7C361.1,108.1,361.1,107.9,361.1,107.6z"/>
					<polygon class="st40" points="346.5,139.3 348.9,139.3 346.9,143.7 348.6,143.7 350.6,139 350.6,138.1 346.5,138.1 					"/>
					<path class="st40" d="M352.7,142.7c-0.1,0-0.4,0-0.7-0.1c-0.3-0.1-0.5-0.1-0.7-0.3v1.3c0.4,0.1,0.9,0.3,1.7,0.3
						c0.8,0,1.4-0.1,1.7-0.5c0.4-0.3,0.5-0.8,0.5-1.4c0-0.4-0.1-0.7-0.3-0.9c-0.1-0.3-0.4-0.5-0.5-0.7c-0.3-0.1-0.5-0.3-0.8-0.3
						c-0.1,0-0.1,0-0.3,0c-0.2,0-0.3,0-0.4,0l0.1-0.7h2V138h-3.2l-0.3,3l0.5,0.3c0.3-0.1,0.5-0.1,0.8-0.1s0.5,0,0.7,0.1
						c0.1,0.1,0.3,0.3,0.3,0.5c0,0.3-0.1,0.4-0.3,0.5C353.2,142.5,352.9,142.7,352.7,142.7z"/>
					<path class="st40" d="M357,141.5c0.4,0,0.8-0.1,1.1-0.4c0.3-0.3,0.4-0.7,0.4-1.3c0-0.5-0.1-0.9-0.4-1.3
						c-0.3-0.3-0.5-0.4-1.1-0.4c-0.4,0-0.8,0.1-1.1,0.4c-0.3,0.3-0.4,0.7-0.4,1.3c0,0.5,0.1,0.9,0.4,1.3
						C356.2,141.4,356.6,141.5,357,141.5z M356.8,139.1c0-0.1,0.1-0.1,0.3-0.1c0.1,0,0.1,0,0.3,0.1c0,0.1,0.1,0.3,0.1,0.7
						c0,0.3,0,0.5-0.1,0.7c0,0.1-0.1,0.1-0.3,0.1c-0.1,0-0.1,0-0.3-0.1c0-0.1-0.1-0.3-0.1-0.7C356.8,139.4,356.8,139.3,356.8,139.1z
						"/>
					<polygon class="st40" points="360.3,138.1 357,143.7 358.2,143.7 361.3,138.1 					"/>
					<path class="st40" d="M362.5,140.7c-0.3-0.3-0.7-0.4-1.1-0.4s-0.8,0.1-1.1,0.4c-0.3,0.3-0.4,0.7-0.4,1.3c0,0.5,0.1,0.9,0.4,1.3
						c0.3,0.3,0.5,0.4,1.1,0.4c0.4,0,0.8-0.1,1.1-0.4c0.3-0.3,0.4-0.7,0.4-1.3S362.8,141,362.5,140.7z M361.6,142.7
						c0,0.1-0.1,0.3-0.3,0.3c-0.1,0-0.1,0-0.3-0.1c0-0.1-0.1-0.3-0.1-0.7c0-0.3,0-0.5,0.1-0.7c0-0.1,0.1-0.1,0.3-0.1
						c0.1,0,0.1,0.1,0.3,0.3c0,0.1,0,0.4,0,0.5S361.6,142.5,361.6,142.7z"/>
					<path class="st40" d="M348.1,179.2c-0.1,0-0.4,0-0.7-0.1c-0.3,0-0.5-0.1-0.7-0.3v1.3c0.4,0.1,0.9,0.3,1.7,0.3
						c0.8,0,1.4-0.1,1.7-0.5c0.4-0.3,0.5-0.8,0.5-1.4c0-0.4-0.1-0.7-0.3-0.9c-0.1-0.3-0.4-0.5-0.5-0.7c-0.3-0.1-0.5-0.3-0.8-0.3
						c-0.1,0-0.1,0-0.3,0c-0.1,0-0.3,0-0.4,0l0.1-0.7h2v-1.3h-3.2l-0.3,3l0.5,0.3c0.3-0.1,0.5-0.1,0.8-0.1s0.5,0,0.7,0.1
						c0.1,0.1,0.3,0.3,0.3,0.5s-0.1,0.4-0.3,0.5C348.6,179.2,348.3,179.2,348.1,179.2z"/>
					<path class="st40" d="M353.2,180.3c0.7,0,1.3-0.3,1.6-0.7s0.5-1.3,0.5-2.2s-0.1-1.7-0.5-2.2c-0.3-0.5-0.8-0.7-1.6-0.7
						s-1.3,0.3-1.6,0.7c-0.3,0.4-0.5,1.3-0.5,2.2s0.1,1.7,0.5,2.2C351.9,180.1,352.4,180.3,353.2,180.3z M352.8,176
						c0.1-0.3,0.3-0.4,0.4-0.4s0.3,0.1,0.4,0.4s0.1,0.7,0.1,1.3c0,0.7,0,1.1-0.1,1.3c-0.1,0.3-0.3,0.4-0.4,0.4s-0.3-0.1-0.4-0.4
						c-0.1-0.3-0.1-0.7-0.1-1.4C352.7,176.8,352.7,176.3,352.8,176z"/>
					<path class="st40" d="M362.5,177.3c-0.3-0.3-0.7-0.4-1.1-0.4s-0.8,0.1-1.1,0.4c-0.3,0.3-0.4,0.7-0.4,1.3c0,0.5,0.1,0.9,0.4,1.3
						c0.3,0.3,0.5,0.4,1.1,0.4c0.4,0,0.8-0.1,1.1-0.4c0.3-0.3,0.4-0.7,0.4-1.3S362.8,177.6,362.5,177.3z M361.6,179.3
						c0,0.1-0.1,0.3-0.3,0.3c-0.1,0-0.1,0-0.3-0.1c0-0.1-0.1-0.3-0.1-0.7c0-0.3,0-0.5,0.1-0.7c0-0.1,0.1-0.1,0.3-0.1
						c0.1,0,0.1,0.1,0.3,0.3c0,0.1,0,0.4,0,0.5C361.6,178.8,361.6,179,361.6,179.3z"/>
					<polygon class="st40" points="360.3,174.7 357,180.2 358.2,180.2 361.3,174.7 					"/>
					<path class="st40" d="M357,178.1c0.4,0,0.8-0.1,1.1-0.4c0.3-0.3,0.4-0.7,0.4-1.4c0-0.5-0.1-0.9-0.4-1.3
						c-0.3-0.3-0.5-0.4-1.1-0.4c-0.4,0-0.8,0.1-1.1,0.4c-0.3,0.3-0.4,0.7-0.4,1.3c0,0.5,0.1,0.9,0.4,1.3
						C356.2,177.9,356.6,178.1,357,178.1z M356.8,175.6c0-0.1,0.1-0.1,0.3-0.1c0.1,0,0.1,0,0.3,0.1c0,0.1,0.1,0.3,0.1,0.7
						c0,0.3,0,0.5-0.1,0.7c0,0.1-0.1,0.1-0.3,0.1c-0.1,0-0.1,0-0.3-0.1c0-0.1-0.1-0.3-0.1-0.7C356.8,176,356.8,175.8,356.8,175.6z"
						/>
					<path class="st40" d="M348.3,212.1c0.7-0.5,0.9-0.9,1.3-1.1c0.1-0.1,0.3-0.4,0.4-0.5s0.1-0.4,0.3-0.5c0.2-0.1,0.1-0.4,0.1-0.5
						c0-0.3-0.1-0.5-0.3-0.8c-0.1-0.3-0.4-0.4-0.7-0.5c-0.3-0.1-0.5-0.1-0.9-0.1c-0.3,0-0.5,0-0.8,0.1c-0.3,0-0.4,0.1-0.7,0.3
						c-0.3,0.1-0.4,0.3-0.7,0.5l0.8,0.9c0.3-0.1,0.4-0.4,0.5-0.4c0.1-0.1,0.4-0.1,0.5-0.1s0.3,0,0.4,0.1s0.1,0.1,0.1,0.4
						c0,0.1,0,0.3-0.1,0.3c0,0.1-0.1,0.3-0.3,0.4c-0.1,0.1-0.4,0.4-0.8,0.8l-1.4,1.4v0.9h4.2v-1.3L348.3,212.1L348.3,212.1z"/>
					<path class="st40" d="M352.7,212.4c-0.1,0-0.4,0-0.7-0.1c-0.3,0-0.5-0.1-0.7-0.3v1.3c0.4,0.1,0.9,0.3,1.7,0.3
						c0.8,0,1.4-0.1,1.7-0.5c0.4-0.3,0.5-0.8,0.5-1.4c0-0.4-0.1-0.7-0.3-0.9c-0.1-0.3-0.4-0.5-0.5-0.7c-0.3-0.1-0.5-0.3-0.8-0.3
						c-0.1,0-0.1,0-0.3,0c-0.2,0-0.3,0-0.4,0l0.1-0.7h2v-1.3h-3.2l-0.3,3l0.5,0.3c0.3-0.1,0.5-0.1,0.8-0.1s0.5,0,0.7,0.1
						c0.1,0.1,0.3,0.3,0.3,0.5s-0.1,0.4-0.3,0.5C353.2,212.3,352.9,212.4,352.7,212.4z"/>
					<path class="st40" d="M361.3,213.6c0.4,0,0.8-0.1,1.1-0.4s0.4-0.7,0.4-1.3c0-0.5-0.1-0.9-0.4-1.3c-0.3-0.3-0.7-0.4-1.1-0.4
						s-0.8,0.1-1.1,0.4c-0.3,0.3-0.4,0.7-0.4,1.3c0,0.5,0.1,0.9,0.4,1.3C360.5,213.4,360.9,213.6,361.3,213.6z M361.1,211.2
						c0-0.1,0.1-0.1,0.3-0.1c0.1,0,0.1,0.1,0.3,0.3c0,0.1,0,0.4,0,0.5c0,0.3,0,0.4,0,0.5s-0.1,0.3-0.3,0.3c-0.1,0-0.1,0-0.3-0.1
						c0-0.1-0.1-0.3-0.1-0.7C361.1,211.5,361.1,211.3,361.1,211.2z"/>
					<polygon class="st40" points="360.3,207.8 357,213.6 358.2,213.6 361.3,207.8 					"/>
					<path class="st40" d="M357,211.3c0.4,0,0.8-0.1,1.1-0.4c0.3-0.3,0.4-0.7,0.4-1.4c0-0.5-0.1-0.9-0.4-1.3
						c-0.3-0.3-0.5-0.4-1.1-0.4c-0.4,0-0.8,0.1-1.1,0.4s-0.4,0.7-0.4,1.3c0,0.5,0.1,0.9,0.4,1.3C356.2,211.2,356.6,211.3,357,211.3z
						 M356.8,209c0-0.1,0.1-0.1,0.3-0.1c0.1,0,0.1,0,0.3,0.1c0,0.1,0.1,0.3,0.1,0.7c0,0.3,0,0.5-0.1,0.7c0,0.1-0.1,0.1-0.3,0.1
						c-0.1,0-0.1,0-0.3-0.1c0-0.1-0.1-0.3-0.1-0.7C356.8,209.2,356.8,209.1,356.8,209z"/>
					<path class="st40" d="M353.2,244.3c-0.7,0-1.3,0.3-1.6,0.7c-0.3,0.4-0.5,1.3-0.5,2.2s0.1,1.7,0.5,2.2c0.3,0.5,0.8,0.7,1.6,0.7
						s1.3-0.3,1.6-0.7c0.3-0.4,0.5-1.3,0.5-2.2s-0.1-1.7-0.5-2.2C354.3,244.6,353.9,244.3,353.2,244.3z M353.6,248.6
						c-0.1,0.3-0.3,0.4-0.4,0.4s-0.3-0.1-0.4-0.4s-0.1-0.7-0.1-1.4s0-1.1,0.1-1.4c0.1-0.3,0.3-0.4,0.4-0.4s0.3,0.1,0.4,0.4
						c0.1,0.3,0.1,0.7,0.1,1.3C353.7,248,353.6,248.4,353.6,248.6z"/>
					<polygon class="st40" points="360.3,244.4 357,250.1 358.2,250.1 361.3,244.4 					"/>
					<path class="st40" d="M362.5,247.1c-0.3-0.3-0.7-0.4-1.1-0.4s-0.8,0.1-1.1,0.4c-0.3,0.3-0.4,0.7-0.4,1.3c0,0.5,0.1,0.9,0.4,1.3
						c0.3,0.3,0.5,0.4,1.1,0.4c0.4,0,0.8-0.1,1.1-0.4s0.4-0.7,0.4-1.3S362.8,247.3,362.5,247.1z M361.6,249c0,0.1-0.1,0.3-0.3,0.3
						c-0.1,0-0.1,0-0.3-0.1c0-0.1-0.1-0.3-0.1-0.7c0-0.3,0-0.5,0.1-0.7c0-0.1,0.1-0.1,0.3-0.1c0.1,0,0.1,0.1,0.3,0.3
						c0,0.1,0,0.4,0,0.5S361.6,248.8,361.6,249z"/>
					<path class="st40" d="M358.6,246.1c0-0.5-0.1-0.9-0.4-1.3c-0.3-0.3-0.5-0.4-1.1-0.4c-0.4,0-0.8,0.1-1.1,0.4
						c-0.3,0.3-0.4,0.7-0.4,1.3c0,0.5,0.1,0.9,0.4,1.3c0.3,0.3,0.5,0.4,1.1,0.4c0.4,0,0.8-0.1,1.1-0.4
						C358.4,247.1,358.6,246.7,358.6,246.1z M357.3,246.8c0,0.1-0.1,0.1-0.3,0.1c-0.1,0-0.1,0-0.3-0.1c0-0.1-0.1-0.3-0.1-0.7
						c0-0.3,0-0.5,0.1-0.7c0-0.1,0.1-0.1,0.3-0.1c0.1,0,0.1,0,0.3,0.1c0,0.1,0.1,0.3,0.1,0.7C357.3,246.4,357.3,246.7,357.3,246.8z"
						/>
				</g>
			</g>
		</g>
	</g>
</g>
<g class="st10">
	<path class="st12" d="M627.1,134.2c1.3,2.7,2,5.7,2,9c0,11.9-9.6,21.5-21.5,21.5c-4.6,0-8.8-1.5-12.3-3.9l-12,17.2
		c6.9,4.8,15.2,7.6,24.3,7.6c23.5,0,42.4-19,42.4-42.4c0-6.4-1.4-12.4-3.9-17.7L627.1,134.2z"/>
	<path class="st20" d="M646.2,125.5c-2.1-4.6-5-8.8-8.5-12.2l-14.8,14.8c1.8,1.8,3.2,3.9,4.3,6.2L646.2,125.5z"/>
	<path class="st38" d="M637.7,113.2c-7.7-7.7-18.2-12.4-30-12.4v21c5.9,0,11.3,2.4,15.1,6.3L637.7,113.2z"/>
	<path class="st13" d="M595.5,160.8c-5.5-3.9-9.2-10.3-9.2-17.6c0-11.9,9.6-21.5,21.5-21.5v-21c-23.5,0-42.4,19-42.4,42.4
		c0,14.4,7.2,27.1,18.1,34.8L595.5,160.8z"/>
</g>
<g>
	<path class="st11" d="M220.2,197.9c-5.8-5.8-15.2-5.8-20.9,0c-5.8,5.8-5.8,15.2,0,20.9c5.8,5.8,15.2,5.8,20.9,0
		C226,213.1,226,203.7,220.2,197.9z M201.5,216.6c-4.6-4.6-4.6-12,0-16.5c4.6-4.6,12-4.6,16.5,0c4.6,4.6,4.6,12,0,16.5
		S206,221.2,201.5,216.6z"/>
	
		<rect x="195.4" y="218.6" transform="matrix(0.7071 -0.7071 0.7071 0.7071 -97.4359 204.5388)" class="st11" width="5.6" height="2.6"/>
	
		<rect x="176" y="226.7" transform="matrix(0.7071 -0.7071 0.7071 0.7071 -107.0959 200.5562)" class="st3" width="25.1" height="5.8"/>
	
		<rect x="179.3" y="234.9" transform="matrix(0.7071 -0.7071 0.7071 0.7071 -115.396 197.0806)" class="st4" width="1.8" height="5.8"/>
	
		<rect x="195.8" y="218.4" transform="matrix(0.7071 -0.7071 0.7071 0.7071 -98.908 203.9024)" class="st4" width="1.8" height="5.8"/>
</g>
<g id="Layer_2_1_">
	<g>
		<g>
			<g>
				<defs>
					<rect id="SVGID_5_" x="327.8" y="44.5" width="346.6" height="224.7"/>
				</defs>
				<clipPath id="SVGID_6_">
					<use xlink:href="#SVGID_5_"  style="overflow:visible;"/>
				</clipPath>
				<g class="st41">
					<path class="st42" d="M464.4,203.5l3.2-3.2l56.9,0.7l3.9,2.4c0,0-4.3,26-4.4,26.5c-0.2,0.5-20.1,27.2-20.1,27.2l-17.8,4.4
						c0,0-10.8-25.9-10.7-26.1L464.4,203.5z"/>
					<polygon class="st14" points="449.3,216.1 454.1,213.1 496.3,242.8 538.5,213.1 543.1,216.1 558.4,262.7 496.3,308.2 
						418.3,248.4 					"/>
					<polygon class="st20" points="500.8,292.4 491.9,292.4 491.9,237.6 496.3,238 500.8,237.6 					"/>
					<circle class="st14" cx="496.3" cy="249.6" r="2.3"/>
					<circle class="st14" cx="496.3" cy="273.1" r="2.3"/>
					<polygon class="st20" points="496.3,238 521.1,258 536.7,216.6 519.5,213.1 					"/>
					<polygon class="st14" points="496.3,238 528.3,203.5 538.5,213.1 518.7,250.2 					"/>
					<polygon class="st20" points="496.3,238 471.6,258 456.1,216.6 473.3,213.1 					"/>
					<polygon class="st14" points="496.3,238 464.4,203.5 454.1,213.1 474,250.2 					"/>
					<path class="st1" d="M594.6,237.6c0,0-21.7-12.3-51.6-21.5c-11.5,49.7-46.7,69.4-46.7,69.4H496c0,0-35.3-19.7-46.7-69.4
						c-29.9,9.2-51.6,21.5-51.6,21.5s-13.2,19.8-15.5,31.8c23.7,27.8,61,52,113.8,52.1l0,0c0.1,0,0.1,0,0.2,0s0.1,0,0.2,0l0,0
						c52.9-0.1,90.2-24.2,113.8-52.1C607.9,257.4,594.6,237.6,594.6,237.6z"/>
					<path class="st2" d="M552.3,219.1c-2.9-1-6-2-9.2-3c-11.5,49.7-46.7,69.4-46.7,69.4H496c0,0-35.3-19.7-46.7-69.4
						c-3.1,0.9-6.3,2-9.2,3c0,0,9.1,52.3,56,79.2l0,0l0,0l0,0l0,0C543.2,271.4,552.3,219.1,552.3,219.1z"/>
					<path class="st2" d="M409.1,294.2l-11.4-56.7c0,0-13.2,19.8-15.5,31.8C389.8,278.2,398.7,286.8,409.1,294.2z"/>
					<path class="st2" d="M610.3,269.4c-2.3-12-15.5-31.8-15.5-31.8L585,293C594.6,285.8,603.1,277.8,610.3,269.4z"/>
					<g>
						<path class="st43" d="M547.4,134.3c3.3-31.2-9.7-41.1-9.7-41.1l-79.6-1.3c-2,0.4-3.1,1.3-3.1,1.3s-13,9.9-9.7,41.1H547.4z"/>
					</g>
					<path class="st44" d="M540,98.4C540,98.4,540,98.3,540,98.4c-13.2-36-62.2-32.4-82.4-15.5c4.4,0.8,6.4,4.8,6.4,4.8l0,0
						c-8.5,4.9-15.4,12.9-15.4,26.1c0,34.6,4,10.9,8,56.5s39.7,42.8,39.7,42.8s35.8,2.7,39.7-42.8s8-21.9,8-56.5
						C544.1,107.6,542.5,102.6,540,98.4z"/>
					<path class="st42" d="M522.2,112.7c-7.6,0-10.3,3.3-25.9,3.3s-18.2-3.3-25.9-3.3s-12.8,3.1-12.8,36.6s14.3,32.7,14.3,32.7
						s0.8-7.2,7.2-7.2c6.4,0,17.2,0,17.2,0s10.9,0,17.2,0c6.3,0,7.2,7.2,7.2,7.2s14.3,0.6,14.3-32.7S529.8,112.7,522.2,112.7z"/>
					<path class="st45" d="M457.7,149.2c0,33.4,14.3,32.7,14.3,32.7s0.8-7.2,7.2-7.2c4.9,0,12.6,0,15.7,0c-6.9-2.6-12-4.5-4.3-16.6
						s5.7-42.2,5.7-42.2c-15.5,0-18.2-3.3-25.9-3.3C463,112.7,457.7,115.8,457.7,149.2z"/>
					<path class="st44" d="M516.8,134.4c5.4,0,10.1,1.8,12.6,4.3c0-0.3,0.1-0.5,0.1-0.8c0-4.7-5.7-8.4-12.7-8.4s-12.7,3.8-12.7,8.4
						c0,0.3,0,0.6,0.1,0.8C506.6,136,511.4,134.4,516.8,134.4z"/>
					<circle class="st46" cx="516" cy="147.3" r="3.9"/>
					<g>
						<path class="st46" d="M508.2,149c-0.2-1,0-2.2,0.6-3.1c0.5-0.9,1.4-1.8,2.3-2.3c1.9-1.3,4.1-1.8,6.3-1.8s4.4,0.5,6.3,1.8
							c0.9,0.6,1.8,1.4,2.3,2.3c0.5,0.9,0.8,2.1,0.6,3.1c-0.5-2.1-2.1-3.2-3.8-4.1c-1.7-0.7-3.5-1-5.4-1s-3.8,0.3-5.4,1
							C510.3,145.7,508.7,147,508.2,149z"/>
					</g>
					<path class="st44" d="M476.8,134.4c-5.4,0-10.1,1.8-12.6,4.3c0-0.3-0.1-0.5-0.1-0.8c0-4.7,5.7-8.4,12.7-8.4s12.7,3.8,12.7,8.4
						c0,0.3,0,0.6-0.1,0.8C486.9,136,482.2,134.4,476.8,134.4z"/>
					<circle class="st46" cx="477.7" cy="147.3" r="3.9"/>
					<g>
						<path class="st46" d="M485.5,149c-0.5-2.1-2.1-3.2-3.8-4.1c-1.7-0.7-3.5-1-5.4-1s-3.8,0.3-5.4,1c-1.7,0.7-3.2,2-3.8,4.1
							c-0.2-1,0-2.2,0.6-3.1c0.5-0.9,1.4-1.8,2.3-2.3c1.9-1.3,4.1-1.8,6.3-1.8s4.4,0.5,6.3,1.8c0.9,0.6,1.8,1.4,2.3,2.3
							S485.7,147.9,485.5,149z"/>
					</g>
					<path class="st42" d="M512.8,177.8c0,0,4.3,11.3-4.7,16.6s-10.2-1.3-7.7-5.1C503.1,185.5,512.8,177.8,512.8,177.8z"/>
					<path class="st42" d="M479.7,177.8c0,0-4.3,11.3,4.7,16.6s10.2-1.3,7.7-5.1C489.5,185.5,479.7,177.8,479.7,177.8z"/>
					<path class="st47" d="M496.3,180.9c-6.2,0-11.9-1.1-16.5-3c0.1,7.9,7.4,14.4,16.5,14.4s16.4-6.5,16.5-14.4
						C508.3,179.7,502.6,180.9,496.3,180.9z"/>
					<path class="st48" d="M480.4,178c2.5,5.4,8.8,9.3,16.1,9.3c7.3,0,13.6-3.9,16.1-9.3c-4.5,1.8-10,2.8-16.1,2.8
						C490.4,180.9,484.8,179.8,480.4,178z"/>
					<path class="st49" d="M510.9,211.2H501c-2.7,0-4.9-2.2-4.9-4.9v-2.1c0-2.7,2.2-5,4.9-5h9.9c2.7,0,5,2.2,5,5v2.1
						C515.9,209,513.6,211.2,510.9,211.2z"/>
					<path class="st50" d="M513.8,205.2c0,0,27.6-2.5,32.3-33.4"/>
					<path class="st2" d="M551.5,144.3L551.5,144.3l0.4-3.2c0.4-3.4-2.1-6.7-5.5-7.1c-3.4-0.4-6.7,2.1-7.1,5.5l-3.4,27.9
						c-0.4,3.4,2.1,6.7,5.5,7.1c3.4,0.4,6.7-2.1,7.1-5.5l0.4-3.8c2.4,0.2,4.8-4.2,5.5-10C555.2,149.5,553.9,144.6,551.5,144.3z"/>
					<path class="st2" d="M441.2,144.3L441.2,144.3l-0.4-3.2c-0.4-3.4,2.1-6.7,5.5-7.1c3.4-0.4,6.7,2.1,7.1,5.5l3.4,27.9
						c0.4,3.4-2.1,6.7-5.5,7.1c-3.4,0.4-6.7-2.1-7.1-5.5l-0.4-3.8c-2.4,0.2-4.8-4.2-5.5-10C437.4,149.5,438.8,144.6,441.2,144.3z"/>
				</g>
			</g>
		</g>
	</g>
</g>
<g>
	<path class="st4" d="M84.7,54.1H22.1c-1.7,0-3.1,1.4-3.1,3.1v23.5c0,1.7,1.4,3.1,3.1,3.1h36.6l8.4,4.7v-4.7h17.7
		c1.7,0,3.1-1.4,3.1-3.1V57.1C87.7,55.4,86.4,54.1,84.7,54.1z"/>
	<path class="st11" d="M51.1,93.2h62.6c1.7,0,3.1,1.4,3.1,3.1v23.5c0,1.7-1.4,3.1-3.1,3.1H77.1l-8.4,4.7v-4.7H51.1
		c-1.7,0-3.1-1.4-3.1-3.1V96.3C48,94.6,49.4,93.2,51.1,93.2z"/>
	<circle class="st15" cx="33.5" cy="68.7" r="9.2"/>
	<circle class="st51" cx="62.6" cy="107.9" r="9.2"/>
	<circle class="st15" cx="57" cy="68.7" r="1.9"/>
	<circle class="st15" cx="63.6" cy="68.7" r="1.9"/>
	<circle class="st15" cx="70.2" cy="68.7" r="1.9"/>
	<circle class="st18" cx="87.7" cy="107.9" r="1.9"/>
	<circle class="st18" cx="94.3" cy="107.9" r="1.9"/>
	<circle class="st18" cx="100.9" cy="107.9" r="1.9"/>
	<g>
		<path class="st18" d="M35.7,64.6c-0.5-0.4-1.2-0.7-2.1-0.7c-1,0-2,0.3-3,0.8c-0.1,0.1-0.2,0.2-0.1,0.3l0.7,1.3
			c0,0.1,0.1,0.1,0.1,0.1c0.1,0,0.1,0,0.2,0c0.7-0.4,1.4-0.6,1.9-0.6c0.3,0,0.5,0.1,0.7,0.2c0.1,0.1,0.2,0.2,0.2,0.4
			c0,0.2,0,0.3-0.2,0.5c-0.1,0.1-0.3,0.3-0.8,0.7c-0.5,0.3-0.8,0.7-1,1S32,69.3,32,69.7v0.4c0,0.1,0.1,0.3,0.3,0.3h1.6
			c0.1,0,0.3-0.1,0.3-0.3v-0.4c0-0.2,0-0.3,0.1-0.4c0-0.1,0.2-0.2,0.7-0.6c0.6-0.4,1-0.8,1.2-1.2c0.2-0.4,0.3-0.8,0.3-1.3
			C36.5,65.6,36.2,65,35.7,64.6z"/>
		<path class="st18" d="M33.2,71c-0.4,0-0.7,0.1-1,0.3c-0.2,0.2-0.3,0.5-0.3,0.9s0.1,0.7,0.4,0.9c0.2,0.2,0.6,0.3,1,0.3
			s0.7-0.1,0.9-0.3c0.2-0.2,0.4-0.5,0.4-0.9s-0.1-0.7-0.4-0.9S33.6,71,33.2,71z"/>
	</g>
	<polyline class="st52" points="66.6,105.2 61.2,110.6 58.5,107.9 	"/>
	<line class="st53" x1="16.8" y1="51.9" x2="14.5" y2="49.6"/>
	<line class="st53" x1="15.5" y1="55" x2="12.3" y2="55"/>
	<line class="st53" x1="19.9" y1="50.6" x2="19.9" y2="47.3"/>
	<line class="st54" x1="118.9" y1="90.3" x2="121.1" y2="88.2"/>
	<line class="st55" x1="116" y1="89.9" x2="116" y2="86.7"/>
	<line class="st54" x1="120.2" y1="93.2" x2="123.2" y2="93.2"/>
</g>
<g>
	<path class="st1" d="M869.9,265.3c-0.4,0-0.8,0-1.2,0.1c0.1-0.8,0.2-1.5,0.2-2.3c0-8.3-6.7-15-15-15c-6.8,0-12.5,4.5-14.3,10.6
		c-1.8-1.2-3.9-1.8-6.1-1.8c-6.2,0-11.2,5-11.2,11.2c0,0.5,0.1,1.1,0.1,1.6c-1.5-1-3.3-1.6-5.2-1.6c-5.2,0-9.4,4.2-9.4,9.4
		s4.2,9.4,9.4,9.4h52.7c6,0,10.8-4.8,10.8-10.8S875.8,265.3,869.9,265.3z"/>
</g>
<g>
	<path class="st56" d="M881,131.2c0.8-1.4,2.8-1.4,3.6,0l11.2,19.4L907,170c0.8,1.4-0.2,3.1-1.8,3.1h-22.4h-22.4
		c-1.6,0-2.6-1.7-1.8-3.1l11.2-19.4L881,131.2z"/>
	<polygon class="st18" points="864.8,168.6 882.8,137.4 900.8,168.6 	"/>
	<circle class="st56" cx="882.8" cy="163.4" r="2.1"/>
	<path class="st56" d="M885,146.8c0-1.2-1-2.1-2.1-2.1s-2.1,1-2.1,2.1c0,0.1,0,0.2,0,0.4l1,10.9c0,0.6,0.5,1.1,1.1,1.1
		s1.1-0.5,1.1-1.1l1-10.9C884.9,147.1,885,147,885,146.8z"/>
</g>
</svg>
