<?xml version="1.0" encoding="utf-8"?>
<!-- Generator: Adobe Illustrator 19.1.1, SVG Export Plug-In . SVG Version: 6.00 Build 0)  -->
<svg version="1.1" id="Layer_1" xmlns:sketch="http://www.bohemiancoding.com/sketch/ns"
	 xmlns="http://www.w3.org/2000/svg" xmlns:xlink="http://www.w3.org/1999/xlink" x="0px" y="0px" viewBox="-57 59 84 84"
	 style="enable-background:new -57 59 84 84;" xml:space="preserve">
<style type="text/css">
	.st0{fill:#EEEEEE;}
	.st1{fill:#FFFFFF;}
	.st2{fill:none;stroke:#F2EDED;}
	.st3{fill:#005EB8;}
</style>
<g sketch:type="MSShapeGroup">
	<g id="path-1">
		<path class="st0" d="M-16,140.8c-21.4,0-38.8-17.4-38.8-38.8v-2c0-21.4,17.3-38.7,38.7-38.7h2c21.4,0,38.8,17.4,38.8,38.8v2
			c0,21.4-17.4,38.8-38.8,38.8L-16,140.8L-16,140.8z"/>
		<path class="st1" d="M-14,62.2c20.8,0,37.8,16.9,37.8,37.8v2c0,20.8-16.9,37.8-37.8,37.8h-2c-20.8-0.1-37.8-17.1-37.8-37.9v-2
			c0-20.8,16.9-37.7,37.7-37.7L-14,62.2 M-14,60.2h-2c-21.9,0-39.8,17.7-39.8,39.7v2c0,22,17.8,39.8,39.8,39.8h2
			c21.9,0,39.7-17.8,39.7-39.8v-2C25.8,77.8,8,60.2-14,60.2L-14,60.2z"/>
	</g>
</g>
<g>
	<path id="path-1_1_" class="st2" d="M-16,60.2h2c22,0,39.8,17.7,39.8,39.7v2c0,22-17.8,39.8-39.8,39.8h-2
		c-21.9,0-39.8-17.8-39.8-39.8v-2C-55.8,77.8-37.9,60.2-16,60.2z"/>
</g>
<rect x="-17.7" y="90.7" class="st0" width="16.6" height="1.8"/>
<rect x="-17.7" y="95.1" class="st0" width="16.6" height="1.8"/>
<rect x="-17.7" y="99.6" class="st0" width="16.6" height="1.8"/>
<g>
	<path class="st3" d="M-27.2,90.6c0.4,0.3,1,0.2,1.3-0.2c2.6-3.5,6.6-5.4,11-5.4s8.3,2,11,5.4c0.2,0.2,0.4,0.4,0.7,0.4
		c0.2,0,0.4-0.1,0.5-0.2c0.4-0.3,0.5-0.9,0.2-1.3c-3-3.9-7.5-6.1-12.4-6.1s-9.4,2.2-12.4,6.1C-27.7,89.8-27.6,90.3-27.2,90.6z"/>
	<path class="st3" d="M-5.5,95.4c0,1.5,1.3,2.8,2.8,2.8s2.8-1.3,2.8-2.8c0-1.5-1.3-2.8-2.8-2.8S-5.5,93.9-5.5,95.4L-5.5,95.4z"/>
	<path class="st3" d="M0.2,99.1c0,0-0.7-0.2-0.7-0.2c-0.3-0.1-0.5,0-0.7,0.1l-1.4,1.1L-4.1,99c-0.2-0.2-0.5-0.2-0.7-0.1
		c0,0-0.7,0.2-0.7,0.2c-1.1,0.4-1.9,1.4-1.9,2.6v4.2c0,0.2,0,0.3,0.1,0.5l1.4,2.2v5.7c0,0.5,0.4,0.8,0.8,0.8h4.7
		c0.5,0,0.8-0.4,0.8-0.8v-5.7l1.4-2.2c0.1-0.1,0.1-0.3,0.1-0.5v-4.2C2.1,100.6,1.3,99.5,0.2,99.1L0.2,99.1z"/>
	<path class="st3" d="M-27.3,98.2c1.5,0,2.8-1.3,2.8-2.8c0-1.5-1.3-2.8-2.8-2.8c-1.5,0-2.8,1.3-2.8,2.8
		C-30.1,97-28.8,98.2-27.3,98.2z"/>
	<path class="st3" d="M-24.4,99.1c0,0-0.7-0.2-0.7-0.2c-0.3-0.1-0.5,0-0.7,0.1l-1.4,1.1l-1.4-1.1c-0.2-0.2-0.5-0.2-0.7-0.1
		c0,0-0.7,0.2-0.7,0.2c-1.1,0.4-1.9,1.4-1.9,2.6v4.2c0,0.2,0,0.3,0.1,0.5l1.4,2.2v5.7c0,0.5,0.4,0.8,0.8,0.8h4.7
		c0.5,0,0.8-0.4,0.8-0.8v-5.7l1.4-2.2c0.1-0.1,0.1-0.3,0.1-0.5v-4.2C-22.5,100.6-23.3,99.5-24.4,99.1z"/>
	<path class="st3" d="M-11.4,91.5c0-2-1.6-3.6-3.6-3.6s-3.6,1.6-3.6,3.6c0,2,1.6,3.6,3.6,3.6S-11.4,93.5-11.4,91.5z"/>
	<path class="st3" d="M-11,96.8L-11,96.8l-1-0.3c-0.2,0-0.3,0-0.4,0.2l-2.2,5.9c-0.1,0.3-0.6,0.3-0.7,0l-2.2-5.9
		c0-0.1-0.2-0.2-0.3-0.2c0,0-1.1,0.3-1.1,0.3c-1.3,0.4-2.2,1.7-2.2,3v6.3c0,0.1,0,0.1,0.1,0.2l2.3,3.4v8.7c0,0.2,0.1,0.3,0.3,0.3h7
		c0.2,0,0.3-0.1,0.3-0.3v-8.7l2.3-3.4c0-0.1,0.1-0.1,0.1-0.2v-6.3C-8.9,98.5-9.7,97.3-11,96.8L-11,96.8z"/>
	<path class="st3" d="M-14.2,96.7c-0.1-0.1-0.2-0.1-0.4-0.1h-1c-0.1,0-0.3,0-0.4,0.1c-0.1,0.2-0.2,0.4-0.1,0.5l0.5,0.8l-0.2,2.1
		l0.5,1.3c0,0.1,0.2,0.1,0.3,0l0.5-1.3l-0.2-2.1l0.5-0.8C-14,97.1-14,96.9-14.2,96.7z"/>
</g>
</svg>
