<?xml version="1.0" encoding="utf-8"?>
<!-- Generator: Adobe Illustrator 19.1.1, SVG Export Plug-In . SVG Version: 6.00 Build 0)  -->
<svg version="1.1" id="Layer_1" xmlns:sketch="http://www.bohemiancoding.com/sketch/ns"
	 xmlns="http://www.w3.org/2000/svg" xmlns:xlink="http://www.w3.org/1999/xlink" x="0px" y="0px" viewBox="-57 59 84 84"
	 style="enable-background:new -57 59 84 84;" xml:space="preserve">
<style type="text/css">
	.st0{fill:#EEEEEE;}
	.st1{fill:#FFFFFF;}
	.st2{fill:none;stroke:#F2EDED;}
	.st3{fill:#005EB8;}
</style>
<g sketch:type="MSShapeGroup">
	<g id="path-1">
		<path class="st0" d="M-16,140.8c-21.4,0-38.8-17.4-38.8-38.8v-2c0-21.4,17.3-38.7,38.7-38.7h2c21.4,0,38.8,17.4,38.8,38.8v2
			c0,21.4-17.4,38.8-38.8,38.8L-16,140.8L-16,140.8z"/>
		<path class="st1" d="M-14,62.3c20.8,0,37.8,16.9,37.8,37.8v2c0,20.8-16.9,37.8-37.8,37.8h-2c-20.8-0.1-37.8-17.1-37.8-37.9v-2
			c0-20.8,16.9-37.7,37.7-37.7H-14 M-14,60.3h-2c-21.9,0-39.8,17.7-39.8,39.7v2c0,22,17.8,39.8,39.8,39.8h2
			c21.9,0,39.7-17.8,39.7-39.8v-2C25.8,77.9,8,60.3-14,60.3L-14,60.3z"/>
	</g>
</g>
<g>
	<path id="path-1_1_" class="st2" d="M-16,60.3h2c22,0,39.8,17.7,39.8,39.7v2c0,22-17.8,39.8-39.8,39.8h-2
		c-21.9,0-39.8-17.8-39.8-39.8v-2C-55.8,77.9-37.9,60.3-16,60.3z"/>
</g>
<g>
	<g>
		<g>
			<path class="st3" d="M-8.7,118h-1.4l-1-2.2h-7.5l-1,2.2h-1.4c-0.6,0-1,0.5-1,1c0,0.6,0.5,1,1,1h12.5c0.6,0,1-0.5,1-1
				C-7.7,118.5-8.2,118-8.7,118z"/>
		</g>
	</g>
	<g>
		<g>
			<path class="st3" d="M-10.8,90.8c-1.7,0-3.1,1.4-3.1,3.1v7.5c0.3-0.1,0.7-0.2,1-0.2h5.2V90.8H-10.8z"/>
		</g>
	</g>
	<g>
		<g>
			<path class="st3" d="M-19.2,90.8h-3.1v10.5h5.2c0.4,0,0.7,0.1,1,0.2v-7.5C-16,92.2-17.4,90.8-19.2,90.8z"/>
		</g>
	</g>
	<g>
		<g>
			<path class="st3" d="M-32.8,109.6v1c0,1.7,1.4,3.1,3.1,3.1h29.3c1.7,0,3.1-1.4,3.1-3.1v-1H-32.8z"/>
		</g>
	</g>
	<g>
		<g>
			<path class="st3" d="M-0.3,84.5h-29.3c-1.7,0-3.1,1.4-3.1,3.1v19.9H2.8V87.6C2.8,85.9,1.4,84.5-0.3,84.5z M-5.6,102.3
				c0,0.6-0.5,1-1,1h-6.3c-0.6,0-1,0.5-1,1c0,0.6-0.5,1-1,1c-0.6,0-1-0.5-1-1c0-0.6-0.5-1-1-1h-6.3c-0.6,0-1-0.5-1-1V89.7
				c0-0.6,0.5-1,1-1h4.2c1.7,0,3.2,0.8,4.2,2.1c1-1.3,2.5-2.1,4.2-2.1h4.2c0.6,0,1,0.5,1,1V102.3z"/>
		</g>
	</g>
</g>
</svg>
