<?xml version="1.0" encoding="utf-8"?>
<!-- Generator: Adobe Illustrator 19.1.1, SVG Export Plug-In . SVG Version: 6.00 Build 0)  -->
<svg version="1.1" id="Layer_1" xmlns:sketch="http://www.bohemiancoding.com/sketch/ns"
	 xmlns="http://www.w3.org/2000/svg" xmlns:xlink="http://www.w3.org/1999/xlink" x="0px" y="0px" viewBox="-57 59 84 84"
	 style="enable-background:new -57 59 84 84;" xml:space="preserve">
<style type="text/css">
	.st0{fill:#EEEEEE;}
	.st1{fill:#FFFFFF;}
	.st2{fill:none;stroke:#F2EDED;}
	.st3{fill:#005EB8;}
	.st4{fill:none;stroke:#005EB8;stroke-width:4;stroke-miterlimit:10;}
</style>
<g sketch:type="MSShapeGroup">
	<g id="path-1">
		<path class="st0" d="M-16,140.8c-21.4,0-38.8-17.4-38.8-38.8v-2c0-21.4,17.4-38.8,38.8-38.8h2c21.4,0,38.8,17.4,38.8,38.8v2
			c0,21.4-17.4,38.8-38.8,38.8H-16z"/>
		<path class="st1" d="M-14,62.3c20.8,0,37.8,16.9,37.8,37.8v2c0,20.8-16.9,37.8-37.8,37.8h-2c-20.8,0-37.8-16.9-37.8-37.8v-2
			c0-20.8,16.9-37.8,37.8-37.8H-14 M-14,60.3h-2c-22,0-39.8,17.8-39.8,39.8v2c0,22,17.8,39.8,39.8,39.8h2c22,0,39.8-17.8,39.8-39.8
			v-2C25.8,78.1,8,60.3-14,60.3L-14,60.3z"/>
	</g>
</g>
<g>
	<path id="path-1_1_" class="st2" d="M-16,60.3h2c22,0,39.8,17.8,39.8,39.8v2c0,22-17.8,39.8-39.8,39.8h-2
		c-22,0-39.8-17.8-39.8-39.8v-2C-55.7,78.1-37.9,60.3-16,60.3z"/>
</g>
<g>
	<circle class="st3" cx="-15" cy="101" r="9.7"/>
	<g>
		<g>
			<line class="st4" x1="-15" y1="77.4" x2="-15" y2="84.7"/>
			<g>
				<polygon class="st3" points="-10.8,84.1 -19.2,84.1 -15,88.3 				"/>
			</g>
		</g>
	</g>
	<g>
		<g>
			<line class="st4" x1="-15" y1="124.6" x2="-15" y2="117.3"/>
			<g>
				<polygon class="st3" points="-19.2,117.9 -10.8,117.9 -15,113.7 				"/>
			</g>
		</g>
	</g>
	<g>
		<g>
			<line class="st4" x1="8.6" y1="101" x2="1.3" y2="101"/>
			<g>
				<polygon class="st3" points="1.9,105.2 1.9,96.8 -2.3,101 				"/>
			</g>
		</g>
	</g>
	<g>
		<g>
			<line class="st4" x1="-38.6" y1="101" x2="-31.3" y2="101"/>
			<g>
				<polygon class="st3" points="-31.9,96.8 -31.9,105.2 -27.7,101 				"/>
			</g>
		</g>
	</g>
	<g>
		<g>
			<line class="st4" x1="1.7" y1="84.3" x2="-3.5" y2="89.5"/>
			<g>
				<polygon class="st3" points="-0.1,92 -6,86.1 -6,92 				"/>
			</g>
		</g>
	</g>
	<g>
		<g>
			<line class="st4" x1="-31.7" y1="117.7" x2="-26.5" y2="112.5"/>
			<g>
				<polygon class="st3" points="-29.9,110 -24,115.9 -24,110 				"/>
			</g>
		</g>
	</g>
	<g>
		<g>
			<line class="st4" x1="1.7" y1="117.7" x2="-3.5" y2="112.5"/>
			<g>
				<polygon class="st3" points="-6,115.9 -0.1,110 -6,110 				"/>
			</g>
		</g>
	</g>
	<g>
		<g>
			<line class="st4" x1="-31.7" y1="84.3" x2="-26.5" y2="89.5"/>
			<g>
				<polygon class="st3" points="-24,86.1 -29.9,92 -24,92 				"/>
			</g>
		</g>
	</g>
</g>
</svg>
