<?xml version="1.0" encoding="utf-8"?>
<!-- Generator: Adobe Illustrator 19.1.1, SVG Export Plug-In . SVG Version: 6.00 Build 0)  -->
<svg version="1.1" id="Layer_1" xmlns:sketch="http://www.bohemiancoding.com/sketch/ns"
	 xmlns="http://www.w3.org/2000/svg" xmlns:xlink="http://www.w3.org/1999/xlink" x="0px" y="0px" viewBox="-57 59 84 84"
	 style="enable-background:new -57 59 84 84;" xml:space="preserve">
<style type="text/css">
	.st0{fill:#EEEEEE;}
	.st1{fill:#FFFFFF;}
	.st2{fill:#005EB8;}
	.st3{fill:none;stroke:#F2EDED;}
	.st4{fill:#005EB8;stroke:#005EB8;stroke-miterlimit:10;}
</style>
<g sketch:type="MSShapeGroup">
	<g id="path-1">
		<path class="st0" d="M-16,140.8c-21.4,0-38.8-17.4-38.8-38.8v-2c0-21.4,17.4-38.8,38.8-38.8h2c21.4,0,38.8,17.4,38.8,38.8v2
			c0,21.4-17.4,38.8-38.8,38.8H-16z"/>
		<path class="st1" d="M-14,62.3c20.8,0,37.8,16.9,37.8,37.8v2c0,20.8-16.9,37.8-37.8,37.8h-2c-20.8,0-37.8-16.9-37.8-37.8v-2
			c0-20.8,16.9-37.8,37.8-37.8H-14 M-14,60.3h-2c-22,0-39.8,17.8-39.8,39.8v2c0,22,17.8,39.8,39.8,39.8h2c22,0,39.8-17.8,39.8-39.8
			v-2C25.8,78.1,8,60.3-14,60.3L-14,60.3z"/>
	</g>
</g>
<circle class="st2" cx="-13.8" cy="101" r="11.9"/>
<g>
	<path id="path-1_1_" class="st3" d="M-16,60.3h2c22,0,39.8,17.8,39.8,39.8v2c0,22-17.8,39.8-39.8,39.8h-2
		c-22,0-39.8-17.8-39.8-39.8v-2C-55.7,78.1-37.9,60.3-16,60.3z"/>
</g>
<path class="st4" d="M-15,101"/>
<g>
	<g>
		<g>
			<g>
				<path class="st4" d="M-14.5,122.6c-11.6-0.4-20.6-9.7-20.6-21.3c0-1.5,0.1-2.9,0.4-4.3l2,0.4c-0.3,1.3-0.4,2.6-0.4,3.9
					c0,10.5,8.2,18.9,18.6,19.3L-14.5,122.6z"/>
			</g>
			<g>
				<polygon class="st2" points="-30.4,100.4 -32,92.1 -38.4,97.7 				"/>
			</g>
		</g>
	</g>
	<g>
		<g>
			<g>
				<path class="st4" d="M-6.3,121.3l-0.7-1.9c7.5-2.8,12.5-10.1,12.5-18.1c0-3.1-0.8-6.2-2.2-9l1.8-1c1.6,3,2.5,6.5,2.5,9.9
					C7.5,110.2,1.9,118.2-6.3,121.3z"/>
			</g>
			<g>
				<polygon class="st2" points="-5.8,115.8 -11.9,121.6 -3.8,124 				"/>
			</g>
		</g>
	</g>
	<g>
		<g>
			<g>
				<path class="st4" d="M-30,90.7l-1.7-1.1c4-6,10.6-9.6,17.8-9.6c5.2,0,10.3,1.9,14.2,5.4L-1,86.9C-4.5,83.8-9.1,82-13.8,82
					C-20.3,82-26.4,85.3-30,90.7z"/>
			</g>
			<g>
				<polygon class="st2" points="-5.4,87.4 2.6,90.1 1,81.8 				"/>
			</g>
		</g>
	</g>
</g>
<g>
	<path class="st0" d="M-15,102.5c0.1,0.7,0.2,1.2,0.3,1.6c0.2,0.3,0.4,0.5,0.9,0.5c0.4,0,0.7-0.2,0.9-0.5c0.2-0.4,0.3-0.9,0.3-1.5
		l0.5-5.6c0.1-0.5,0.1-1,0.1-1.5c0-0.9-0.1-1.5-0.3-2c-0.2-0.5-0.7-0.7-1.3-0.7c-0.5,0-1,0.2-1.3,0.5c-0.3,0.4-0.5,0.8-0.5,1.5
		c0,0.5,0,1.2,0.1,2.3L-15,102.5z"/>
	<path class="st0" d="M-13.8,106.4c-0.4,0-0.7,0.1-1,0.4c-0.3,0.3-0.4,0.6-0.4,1c0,0.5,0.1,0.8,0.4,1.1c0.3,0.3,0.6,0.4,1,0.4
		c0.4,0,0.7-0.1,1-0.4c0.3-0.3,0.4-0.6,0.4-1.1c0-0.4-0.1-0.7-0.4-1C-13,106.6-13.4,106.4-13.8,106.4z"/>
</g>
</svg>
