<?xml version="1.0" encoding="utf-8"?>
<!-- Generator: Adobe Illustrator 16.2.0, SVG Export Plug-In . SVG Version: 6.00 Build 0)  -->
<!DOCTYPE svg PUBLIC "-//W3C//DTD SVG 1.1//EN" "http://www.w3.org/Graphics/SVG/1.1/DTD/svg11.dtd">
<svg version="1.1" id="Layer_1" xmlns:sketch="http://www.bohemiancoding.com/sketch/ns"
	 xmlns="http://www.w3.org/2000/svg" xmlns:xlink="http://www.w3.org/1999/xlink" x="0px" y="0px" width="84px" height="84px"
	 viewBox="0 0 84 84" enable-background="new 0 0 84 84" xml:space="preserve">
<g sketch:type="MSShapeGroup">
	<g id="path-1">
		<path fill="#EEEEEE" d="M41.007,81.75c-21.37,0-38.756-17.386-38.756-38.756v-1.988c0-21.37,17.386-38.756,38.756-38.756h1.988
			c21.37,0,38.756,17.386,38.756,38.756v1.988c0,21.37-17.386,38.756-38.756,38.756H41.007z"/>
		<path fill="#FFFFFF" d="M42.995,3.25c20.817,0,37.756,16.938,37.756,37.756v1.988c0,20.818-16.938,37.756-37.756,37.756h-1.988
			c-20.819,0-37.756-16.938-37.756-37.756v-1.988c0-20.819,16.938-37.756,37.756-37.756H42.995 M42.995,1.25h-1.988
			c-21.956,0-39.756,17.8-39.756,39.756v1.988c0,21.957,17.8,39.756,39.756,39.756h1.988c21.957,0,39.756-17.799,39.756-39.756
			v-1.988C82.751,19.05,64.952,1.25,42.995,1.25L42.995,1.25z"/>
	</g>
</g>
<g>
	<path id="path-1_1_" fill="none" stroke="#F2EDED" d="M41.007,1.25h1.988c21.957,0,39.756,17.8,39.756,39.756v1.988
		c0,21.957-17.799,39.756-39.756,39.756h-1.988c-21.956,0-39.756-17.799-39.756-39.756v-1.988C1.251,19.05,19.051,1.25,41.007,1.25z
		"/>
</g>
<g>
	<path fill="#005EB8" d="M57.438,47.756H46.459c-2.06,0-3.729,1.671-3.729,3.729v5.801c0,2.059,1.67,3.729,3.729,3.729h10.979
		c2.06,0,3.729-1.671,3.729-3.729v-5.801C61.167,49.427,59.498,47.756,57.438,47.756z M56.921,57.092h-9.945v-1.623h9.945V57.092z
		 M56.921,53.517h-9.945v-1.623h9.945V53.517z"/>
	<path fill="#005EB8" d="M57.438,22.985H46.459c-2.06,0-3.729,1.67-3.729,3.729v5.8c0,2.059,1.67,3.729,3.729,3.729h10.979
		c2.06,0,3.729-1.67,3.729-3.729v-5.8C61.167,24.655,59.498,22.985,57.438,22.985z M56.921,32.321h-9.945v-1.623h9.945V32.321z
		 M56.921,28.746h-9.945v-1.624h9.945V28.746z"/>
	<path fill="#005EB8" d="M33.709,35.37H22.73c-2.059,0-3.729,1.67-3.729,3.73v5.8c0,2.059,1.67,3.729,3.729,3.729h10.979
		c2.06,0,3.729-1.671,3.729-3.729v-5.8C37.438,37.041,35.77,35.37,33.709,35.37z M33.192,44.707h-9.945v-1.624h9.945V44.707z
		 M33.192,41.131h-9.945v-1.623h9.945V41.131z"/>
	<g>
		<g>
			<path fill="none" stroke="#005EB8" stroke-width="2.5" stroke-miterlimit="10" d="M28.219,36.333v-3.718c0-1.65,1.35-3,3-3h6.765
				"/>
			<g>
				<polygon fill="#005EB8" points="37.374,25.059 37.374,34.17 41.928,29.614 				"/>
			</g>
		</g>
	</g>
	<g>
		<g>
			<path fill="none" stroke="#005EB8" stroke-width="2.5" stroke-miterlimit="10" d="M28.219,47.958v3.718c0,1.65,1.35,3,3,3h6.765"
				/>
			<g>
				<polygon fill="#005EB8" points="37.374,50.12 37.374,59.231 41.928,54.676 				"/>
			</g>
		</g>
	</g>
	<g>
		<g>
			<line fill="none" stroke="#005EB8" stroke-width="2.5" stroke-miterlimit="10" x1="51.948" y1="35.37" x2="51.948" y2="42.856"/>
			<g>
				<polygon fill="#005EB8" points="56.504,42.245 47.393,42.245 51.948,46.8 				"/>
			</g>
		</g>
	</g>
</g>
</svg>
