<?xml version="1.0" encoding="utf-8"?>
<!-- Generator: Adobe Illustrator 19.1.1, SVG Export Plug-In . SVG Version: 6.00 Build 0)  -->
<svg version="1.1" id="Layer_1" xmlns:sketch="http://www.bohemiancoding.com/sketch/ns"
	 xmlns="http://www.w3.org/2000/svg" xmlns:xlink="http://www.w3.org/1999/xlink" x="0px" y="0px" viewBox="-57 59 84 84"
	 style="enable-background:new -57 59 84 84;" xml:space="preserve">
<style type="text/css">
	.st0{fill:#EEEEEE;stroke:#FFFFFF;stroke-width:4;}
	.st1{fill:none;stroke:#F2EDED;}
	.st2{fill:#005EB8;}
	.st3{fill:#EEEEEE;}
	.st4{fill:none;stroke:#EEEEEE;stroke-width:2;stroke-miterlimit:10;}
</style>
<g id="Rectangle-290">
	<g sketch:type="MSShapeGroup">
		<path id="path-1" class="st0" d="M-16,60h2c22.1,0,40,17.9,40,40v2c0,22.1-17.9,40-40,40h-2c-22.1,0-40-17.9-40-40v-2
			C-56,77.9-38.1,60-16,60z"/>
	</g>
	<g>
		<path id="path-1_1_" class="st1" d="M-16,60h2c22.1,0,40,17.9,40,40v2c0,22.1-17.9,40-40,40h-2c-22.1,0-40-17.9-40-40v-2
			C-56,77.9-38.1,60-16,60z"/>
	</g>
</g>
<g>
	<path class="st2" d="M1.4,89.2l-8.4-8.4c-0.1-0.1-0.3-0.2-0.5-0.2h-21.9c-1.2,0-2.2,1-2.2,2.2v37.9c0,1.2,1,2.2,2.2,2.2h28.9
		c1.2,0,2.2-1,2.2-2.2V89.7C1.6,89.5,1.5,89.3,1.4,89.2L1.4,89.2z"/>
	<path class="st3" d="M-19.1,101.1c3.3,0,6-2.5,6.3-5.7c0.3-0.1,0.5-0.3,0.5-0.7c0-3.7-3-6.8-6.8-6.8c-0.3,0-0.6,0.2-0.7,0.5
		c-3.2,0.3-5.7,3-5.7,6.3C-25.4,98.2-22.5,101.1-19.1,101.1L-19.1,101.1z M-18.3,89.3c2.5,0.3,4.4,2.3,4.7,4.7h-4.7V89.3z"/>
	<path class="st3" d="M-25.1,105.2c0,0.6,0.4,1,1,1h18.1c0.6,0,1-0.4,1-1s-0.4-1-1-1h-18.1C-24.6,104.2-25.1,104.6-25.1,105.2
		L-25.1,105.2z"/>
	<path class="st3" d="M-5.9,108.6h-18.1c-0.6,0-1,0.4-1,1c0,0.6,0.4,1,1,1H-6c0.6,0,1-0.4,1-1C-4.9,109-5.4,108.6-5.9,108.6
		L-5.9,108.6z"/>
	<path class="st3" d="M-5.9,113h-18.1c-0.6,0-1,0.4-1,1c0,0.6,0.4,1,1,1H-6c0.6,0,1-0.4,1-1C-4.9,113.5-5.4,113-5.9,113L-5.9,113z"
		/>
	<path class="st0" d="M-5.9,115.4"/>
	<path class="st4" d="M-8.4,79.2v10.2c0,0.6,0.5,1.1,1.1,1.1H2.9"/>
</g>
</svg>
