<svg xmlns="http://www.w3.org/2000/svg" viewBox="0 0 821.67 581.26"><defs><style>.cls-1,.cls-10,.cls-11,.cls-17,.cls-2,.cls-3,.cls-4,.cls-5,.cls-6,.cls-7,.cls-8,.cls-9{fill:none;}.cls-1{stroke:#dcdcdc;}.cls-1,.cls-10,.cls-11,.cls-2,.cls-3,.cls-4,.cls-5,.cls-6,.cls-7,.cls-8,.cls-9{stroke-miterlimit:10;stroke-width:1.26px;}.cls-2{stroke:#e0e0e0;}.cls-3{stroke:#e8e8e8;}.cls-4{stroke:#f4f4f4;}.cls-5{stroke:#fff;}.cls-6{stroke:#ddd;}.cls-7{stroke:#dfdfdf;}.cls-8{stroke:#e2e2e2;}.cls-9{stroke:#e6e6e6;}.cls-10{stroke:#ebebeb;}.cls-11{stroke:#f1f1f1;}.cls-12{fill:#242f3d;}.cls-13{fill:#fff;}.cls-14{fill:#252f3e;}.cls-15{fill:#f90;}.cls-16{fill:#535b64;}</style></defs><title>aws-select-consulting-partner-horizontal-placement</title><g id="Layer_2" data-name="Layer 2"><g id="Layer_2-2" data-name="Layer 2"><polygon class="cls-1" points="113.88 8.21 707.78 8.21 707.78 580.63 113.88 580.63 113.88 8.21"/><polygon class="cls-2" points="112.62 6.95 709.05 6.95 709.05 580.63 112.62 580.63 112.62 6.95"/><polygon class="cls-3" points="111.36 5.69 710.31 5.69 710.31 580.63 111.36 580.63 111.36 5.69"/><polygon class="cls-4" points="110.09 4.42 711.57 4.42 711.57 580.63 110.09 580.63 110.09 4.42"/><path class="cls-5" d="M108.83,3.16h604V580.63h-604V3.16ZM107.57,1.9H714.1V580.63H107.57V1.9ZM106.3.63H715.36v580H106.3V.63Z"/><line class="cls-1" x1="113.88" y1="573.05" x2="707.78" y2="573.05"/><line class="cls-6" x1="113.88" y1="574.31" x2="707.78" y2="574.31"/><line class="cls-7" x1="113.88" y1="575.58" x2="707.78" y2="575.58"/><line class="cls-8" x1="113.88" y1="576.84" x2="707.78" y2="576.84"/><line class="cls-9" x1="113.88" y1="578.1" x2="707.78" y2="578.1"/><line class="cls-10" x1="113.88" y1="579.37" x2="707.78" y2="579.37"/><line class="cls-11" x1="113.88" y1="580.63" x2="707.78" y2="580.63"/><polygon class="cls-12" points="113.88 0.63 707.78 0.63 707.78 17.06 113.88 17.06 113.88 0.63"/><polygon class="cls-13" points="113.88 17.06 707.78 17.06 707.78 571.79 113.88 571.79 113.88 17.06"/><path class="cls-14" d="M292.81,132.3a18.41,18.41,0,0,0,6.19,2.15,30.17,30.17,0,0,0,8.34.88,28.22,28.22,0,0,0,7.58-1,22.72,22.72,0,0,0,6.07-3,12.2,12.2,0,0,0,3.92-4.8,14.51,14.51,0,0,0,1.39-6.32,12.71,12.71,0,0,0-2.53-7.58c-1.64-2.15-4.42-3.92-8.34-5.18l-7.58-2.53c-2.78-.88-4.93-1.9-6.07-3a5.33,5.33,0,0,1-1.64-3.92,5.18,5.18,0,0,1,2.53-4.8,14.12,14.12,0,0,1,7.2-1.64,25.93,25.93,0,0,1,10.49,2.15,7.33,7.33,0,0,0,2.15.76c.88,0,1.26-.51,1.26-1.77V90.47a2.47,2.47,0,0,0-.51-1.77,4.56,4.56,0,0,0-1.64-1.39,5.36,5.36,0,0,0-2.27-.88c-.88-.38-1.9-.51-3-.88a26.44,26.44,0,0,0-3.54-.51,12.48,12.48,0,0,0-3.66-.38,27.69,27.69,0,0,0-6.7.88,23.82,23.82,0,0,0-5.69,2.78,16.44,16.44,0,0,0-3.92,4.42,11.64,11.64,0,0,0-1.39,6.07,13,13,0,0,0,2.65,7.83c1.77,2.53,4.55,4.3,8.72,5.43l7.83,2.53c2.65.88,4.42,1.77,5.43,2.78a4.94,4.94,0,0,1,1.39,3.66,5.91,5.91,0,0,1-2.78,5.18c-1.9,1.26-4.42,1.77-8,1.77a21.13,21.13,0,0,1-6.32-.76,26,26,0,0,1-6.07-1.9c-.51-.13-1-.38-1.39-.51a3.14,3.14,0,0,0-1-.13c-.88,0-1.26.51-1.26,1.77v2.65a4.36,4.36,0,0,0,.38,1.64,4.3,4.3,0,0,0,1.77,1.52Z"/><path class="cls-14" d="M201.33,106.14a29.33,29.33,0,0,0-5.69-.38c-5.43,0-9.86,1.39-13.27,4.3s-4.93,6.57-4.93,11.12,1.26,7.83,3.92,10.49,6.19,3.92,10.74,3.92A20.36,20.36,0,0,0,208,128.13a14.73,14.73,0,0,0,1.64,3.16c.63.88,1.26,1.77,1.9,2.53a2.22,2.22,0,0,0,1.64.76,2.35,2.35,0,0,0,1.39-.51L218,131.8a1.86,1.86,0,0,0,1-1.64,2.82,2.82,0,0,0-.38-1.26,21,21,0,0,1-1.77-3.92,16.91,16.91,0,0,1-.51-4.8V102.48c0-5.81-1.39-10.24-4.42-13.27s-7.58-4.42-14.15-4.42a36.15,36.15,0,0,0-8.47,1,29.6,29.6,0,0,0-6.7,2.53,3.47,3.47,0,0,0-1.39,1c-.38.38-.38,1.14-.38,2V94c0,1,.38,1.77,1,1.77a2.85,2.85,0,0,0,.88-.13q.57-.19,1.9-.76a34,34,0,0,1,5.81-1.77,23,23,0,0,1,5.81-.76c4.3,0,7.08.88,8.85,2.53s2.53,4.55,2.53,8.72v3.92a63.52,63.52,0,0,0-6.32-1.39Zm6.19,9.6a15.58,15.58,0,0,1-.51,4.55,8,8,0,0,1-1.77,3.41,11,11,0,0,1-5.18,3.41,15.47,15.47,0,0,1-5.69,1,8.29,8.29,0,0,1-5.69-1.9q-1.9-1.9-1.9-5.69a7.5,7.5,0,0,1,2.65-6.19c1.77-1.39,4.42-2.15,8-2.15a37.07,37.07,0,0,1,5.18.38,28.51,28.51,0,0,1,4.93.88v2.27Z"/><path class="cls-14" d="M234.81,131.42a11.7,11.7,0,0,0,1,2.15c.38.38,1,.51,2.15.51h4.55a3.16,3.16,0,0,0,2.15-.51,4.22,4.22,0,0,0,1-2.15L254,96.54l8.47,34.88a3.14,3.14,0,0,0,1,2.15,3.38,3.38,0,0,0,2.15.51h4.55a3.62,3.62,0,0,0,2.15-.51,3.4,3.4,0,0,0,1-2.15l13.14-41.7a11.69,11.69,0,0,0,.38-1.26c0-.38.13-.51.13-.88,0-.88-.38-1.26-1.26-1.26h-4.93a3.16,3.16,0,0,0-2.15.51,4.21,4.21,0,0,0-1,2.15l-9.35,36.27-8.72-36.39a3.14,3.14,0,0,0-1-2.15,3.38,3.38,0,0,0-2.15-.51H252a3.16,3.16,0,0,0-2.15.51,4.22,4.22,0,0,0-1,2.15l-8.47,35.76-9-35.76a11.7,11.7,0,0,0-1-2.15c-.38-.38-1-.51-2.15-.51h-5.31c-.88,0-1.26.38-1.26,1.26a7.7,7.7,0,0,0,.51,2.15l12.64,41.83Z"/><path class="cls-15" d="M314.92,157.7a159,159,0,0,1-61.16,12.51c-29.19,0-57.49-8-80.37-21.36-1.9-1.26-3.54.88-1.77,2.53A119.21,119.21,0,0,0,252,182c22.11,0,47.89-6.95,65.83-20.22,2.53-2.15.13-5.31-2.91-4Z"/><path class="cls-15" d="M303.81,150.24c-1.64,1-1.26,2.65.38,2.53,5.69-.76,18.58-2.27,20.72.76,2.27,2.78-2.53,14.91-4.55,20.34-.76,1.64.76,2.27,2.27,1,9.6-8,12-24.77,10.11-27-2-2.78-18.83-4.68-28.94,2.4Z"/><path class="cls-14" d="M375.2,122.95a.67.67,0,0,1-.76-.76V93a.67.67,0,0,1,.76-.76h.88c.51,0,.76.13.76.76l.13,1.77a15.7,15.7,0,0,1,3.92-2.27,10.3,10.3,0,0,1,3.92-.76,8,8,0,0,1,6.57,3,12.38,12.38,0,0,1,2.53,8.09,13.5,13.5,0,0,1-2.53,8.47,8.3,8.3,0,0,1-6.95,3.16,10.49,10.49,0,0,1-7.2-3v10.61a.67.67,0,0,1-.76.76H375.2ZM384,112.34a6.53,6.53,0,0,0,5.31-2.27c1.26-1.64,1.77-3.92,1.77-6.95,0-6.07-2.27-9-6.95-9a11.2,11.2,0,0,0-7.08,2.78v12.51a16,16,0,0,0,3.41,2.27,17.35,17.35,0,0,0,3.54.63Z"/><path class="cls-14" d="M404.26,114.48a6.48,6.48,0,0,1-4.8-1.77,5.57,5.57,0,0,1-1.77-4.55,6.22,6.22,0,0,1,2.15-4.93,8.43,8.43,0,0,1,5.81-1.77,23.36,23.36,0,0,1,6.19,1V98.94c0-1.77-.38-3-1.26-3.66s-2.15-1-4-1a22.58,22.58,0,0,0-6.19,1c-.13,0-.51.13-.76.13s-.38-.13-.38-.51V94a.76.76,0,0,1,.13-.51l.38-.38a19.24,19.24,0,0,1,7.2-1.39c2.53,0,4.42.51,5.69,1.64s1.77,2.65,1.77,4.8v15.16a.67.67,0,0,1-.76.76h-.88a.67.67,0,0,1-.76-.76l-.13-1.77a11.23,11.23,0,0,1-7.58,2.91Zm.38-2.15a7.79,7.79,0,0,0,3.54-.76,22.06,22.06,0,0,0,3.92-1.9v-5.31a21.28,21.28,0,0,0-5.69-.76c-4,0-6.07,1.64-6.07,4.55a4.61,4.61,0,0,0,1,3,4.51,4.51,0,0,0,3.29,1.14Z"/><path class="cls-14" d="M421.83,114.1a.67.67,0,0,1-.76-.76V93a.67.67,0,0,1,.76-.76h.88c.51,0,.76.13.76.76l.13,2.53A8,8,0,0,1,426.75,93a8.07,8.07,0,0,1,3.54-.76h1a.67.67,0,0,1,.76.76v1.14c0,.13,0,.13-.13.38s-.13.13-.38.13h-1.64a6.63,6.63,0,0,0-3.54.76,14.55,14.55,0,0,0-3,2.27v15.8a.67.67,0,0,1-.76.76l-.76-.13Z"/><path class="cls-14" d="M443.31,114.36a4.83,4.83,0,0,1-5.31-5.31V94.64h-3.41a.67.67,0,0,1-.76-.76v-.38A.76.76,0,0,1,434,93c0-.13.13-.13.51-.13L438,92.5l.38-5.69c0-.13.13-.38.13-.51s.13-.13.51-.13h.76a.67.67,0,0,1,.76.76v5.69h6.19a.67.67,0,0,1,.76.76v.76a.67.67,0,0,1-.76.76h-6.19v14.28a3.06,3.06,0,0,0,.76,2.53,3.56,3.56,0,0,0,2.53.76,10.26,10.26,0,0,0,2.15-.13c.38,0,.51-.13.76-.13h.38c.38,0,.51.13.51.51v.76c0,.51-.13.76-.51.88a18.9,18.9,0,0,0-3.79,0Z"/><path class="cls-14" d="M452.91,114.1a.67.67,0,0,1-.76-.76V93a.67.67,0,0,1,.76-.76h.88c.51,0,.76.13.76.76l.13,1.77a14.7,14.7,0,0,1,4.42-2.27,15.23,15.23,0,0,1,4.42-.88,6.34,6.34,0,0,1,4.8,1.64A6.78,6.78,0,0,1,470,98.18v15a.67.67,0,0,1-.76.76h-1.26a.67.67,0,0,1-.76-.76V99.45a6.77,6.77,0,0,0-1-4,4.22,4.22,0,0,0-3.41-1.26,14.34,14.34,0,0,0-8.34,2.78V113.6a.67.67,0,0,1-.76.76h-.88v-.25Z"/><path class="cls-14" d="M485.77,114.61c-3.41,0-6.07-.88-7.58-2.78q-2.65-2.84-2.65-8.72,0-5.31,2.65-8.34a9.71,9.71,0,0,1,7.2-3A8,8,0,0,1,491.45,94c1.39,1.39,2.15,3.54,2.15,6.32a17,17,0,0,1-.13,2.65.82.82,0,0,1-.76.76H478.18a10.58,10.58,0,0,0,1.9,6.7c1.14,1.39,3.41,2.15,6.07,2.15a17,17,0,0,0,5.81-1,2.71,2.71,0,0,1,.76-.13c.13,0,.13,0,.38.13,0,.13.13.13.13.38v.76c0,.51-.13.76-.51.88a30.73,30.73,0,0,1-6.95,1Zm5.31-12.89v-1.39a6.52,6.52,0,0,0-1.39-4.55,6.11,6.11,0,0,0-4.42-1.64q-6.82,0-7.2,7.58Z"/><path class="cls-14" d="M499.41,114.1a.67.67,0,0,1-.76-.76V93a.67.67,0,0,1,.76-.76h.88c.51,0,.76.13.76.76l.13,2.53A8,8,0,0,1,504.34,93a8.07,8.07,0,0,1,3.54-.76h1a.67.67,0,0,1,.76.76v1.14c0,.13,0,.13-.13.38s-.13.13-.38.13H507.5a6.63,6.63,0,0,0-3.54.76,14.55,14.55,0,0,0-3,2.27v15.8a.67.67,0,0,1-.76.76l-.76-.13Z"/><path class="cls-14" d="M375.2,161.74a.67.67,0,0,1-.76-.76V140.77a.67.67,0,0,1,.76-.76h.88c.51,0,.76.13.76.76l.13,1.77a14.7,14.7,0,0,1,4.42-2.27,15.23,15.23,0,0,1,4.42-.88,6.34,6.34,0,0,1,4.8,1.64,6.78,6.78,0,0,1,1.64,4.93v15a.67.67,0,0,1-.76.76h-1.26a.67.67,0,0,1-.76-.76V147a6.77,6.77,0,0,0-1-4,4.22,4.22,0,0,0-3.41-1.26,14.34,14.34,0,0,0-8.34,2.78v16.68a.67.67,0,0,1-.76.76h-.88v-.13Z"/><path class="cls-14" d="M408.18,162.37c-3.41,0-6.07-.88-7.58-2.78q-2.65-2.84-2.65-8.72,0-5.31,2.65-8.34a9.71,9.71,0,0,1,7.2-3,8,8,0,0,1,6.07,2.27c1.39,1.39,2.15,3.54,2.15,6.32a17,17,0,0,1-.13,2.65.82.82,0,0,1-.76.76H400.6a10.58,10.58,0,0,0,1.9,6.7c1.26,1.39,3.41,2.15,6.07,2.15a17,17,0,0,0,5.81-1,2.71,2.71,0,0,1,.76-.13c.13,0,.13,0,.38.13,0,.13.13.13.13.38v.76c0,.51-.13.76-.51.88a30.73,30.73,0,0,1-6.95,1Zm5.31-13V148a6.52,6.52,0,0,0-1.39-4.55,6.11,6.11,0,0,0-4.42-1.64q-6.82,0-7.2,7.58Z"/><path class="cls-14" d="M428,162.12a4.83,4.83,0,0,1-5.31-5.31V142.28H419.3a.67.67,0,0,1-.76-.76v-.38a.76.76,0,0,1,.13-.51c0-.13.13-.13.51-.13l3.54-.38.38-5.69c0-.13.13-.38.13-.51s.13-.13.51-.13h.76a.67.67,0,0,1,.76.76v5.69h6.19a.67.67,0,0,1,.76.76v.88a.67.67,0,0,1-.76.76h-6.19v14.28a3.06,3.06,0,0,0,.76,2.53,3.21,3.21,0,0,0,2.53.76,10.26,10.26,0,0,0,2.15-.13c.38,0,.51-.13.76-.13h.38c.38,0,.51.13.51.51v.76c0,.51-.13.76-.51.88a19,19,0,0,0-3.79,0Z"/><path class="cls-14" d="M441.92,161.74a.85.85,0,0,1-.88-.51l-6.7-20a1.88,1.88,0,0,1-.13-.76c0-.25.13-.38.51-.38h1.39c.38,0,.51.13.76.51l5.81,18.2,5.18-18.2c.13-.38.38-.51.88-.51h1.64a.85.85,0,0,1,.88.51l5.18,18.2,6.07-18.45a.69.69,0,0,1,.76-.51h1.26c.38,0,.51.13.51.38a2.22,2.22,0,0,1-.13.76l-7.08,20c-.13.38-.38.51-.88.51h-1.39a.85.85,0,0,1-.88-.51l-5.18-18.2L444.32,161c-.13.38-.38.51-.88.51h-1.26v.25Z"/><path class="cls-14" d="M477.55,162.37a9.44,9.44,0,0,1-7.46-3c-1.77-1.9-2.65-4.8-2.65-8.47a12.81,12.81,0,0,1,2.65-8.47,9.88,9.88,0,0,1,7.46-3,9.44,9.44,0,0,1,7.46,3c1.77,1.9,2.65,4.8,2.65,8.47a12.81,12.81,0,0,1-2.65,8.47,9.62,9.62,0,0,1-7.46,3Zm0-2.27c4.93,0,7.46-3,7.46-9.22s-2.53-9.22-7.46-9.22-7.46,3-7.46,9.22,2.4,9.22,7.46,9.22Z"/><path class="cls-14" d="M493.73,161.74A.67.67,0,0,1,493,161V140.77a.67.67,0,0,1,.76-.76h.88c.51,0,.76.13.76.76l.13,2.53a8,8,0,0,1,3.16-2.53,8.07,8.07,0,0,1,3.54-.76h1a.67.67,0,0,1,.76.76v1c0,.13,0,.13-.13.38s-.13.13-.38.13h-1.64a6.63,6.63,0,0,0-3.54.76,14.55,14.55,0,0,0-3,2.27v15.8a.67.67,0,0,1-.76.76h-.88v-.13Z"/><path class="cls-14" d="M508.51,161.74a.67.67,0,0,1-.76-.76V130.53a.67.67,0,0,1,.76-.76h1.26a.67.67,0,0,1,.76.76v19.21l10.24-9.22a1.27,1.27,0,0,1,1-.38h1.64c.38,0,.51.13.51.38s-.13.38-.51.76l-10.49,9.22L524.31,161c.13.13.38.38.38.51,0,.38-.13.38-.51.38h-1.77a1,1,0,0,1-.88-.38l-11-10.24v9.86a.67.67,0,0,1-.76.76h-1.26Z"/><path class="cls-16" d="M179.47,298a11.82,11.82,0,0,1-5.18-3.29,7.7,7.7,0,0,1-1.64-4.93,7.32,7.32,0,0,1,2.78-6.07,11.79,11.79,0,0,1,7.58-2.27,20.43,20.43,0,0,1,7.71,1.52v4.55a27.06,27.06,0,0,0-7.33-1.26c-3.16,0-4.8,1-4.8,3a2.57,2.57,0,0,0,.76,1.9,9.09,9.09,0,0,0,3.16,1.52l3,1.14a12.74,12.74,0,0,1,5.31,3.16,7.35,7.35,0,0,1,1.64,4.8,8,8,0,0,1-3,6.57c-2,1.64-4.68,2.4-8.21,2.4a27.63,27.63,0,0,1-4.55-.38,15.94,15.94,0,0,1-3.92-1.14v-4.68a42.75,42.75,0,0,0,4.3,1,25.52,25.52,0,0,0,4.17.38,6.05,6.05,0,0,0,3.66-.88,2.81,2.81,0,0,0,1.26-2.53,2.67,2.67,0,0,0-.76-2,11.52,11.52,0,0,0-3.16-1.64l-2.78-.88Zm22.24,3.41a5.38,5.38,0,0,0,1.64,3.92,7.54,7.54,0,0,0,4.55,1.14,26,26,0,0,0,6.32-1v3.92a10.79,10.79,0,0,1-3.41,1.14,20.91,20.91,0,0,1-4,.38c-3.41,0-6.07-.88-7.83-2.78s-2.65-4.55-2.65-8.21a11.77,11.77,0,0,1,2.65-8.09,9.8,9.8,0,0,1,7.46-2.91,8.77,8.77,0,0,1,6.19,2.15,8.88,8.88,0,0,1,2.15,6.32,11.56,11.56,0,0,1-.13,2c-.13.76-.13,1.39-.25,1.9H201.7ZM206,293a4.2,4.2,0,0,0-3.16,1.14,5.27,5.27,0,0,0-1.26,3.41h8v-.63c0-2.65-1.14-3.92-3.54-3.92Zm22.24,16.81a9,9,0,0,1-3.66.63c-3.66,0-5.43-2-5.43-6.07V280.27h5.94V303.9a2.87,2.87,0,0,0,.38,1.64,1.68,1.68,0,0,0,1.26.51,7.25,7.25,0,0,0,1.52-.13v3.92Zm8.47-8.47a5.38,5.38,0,0,0,1.64,3.92,7.54,7.54,0,0,0,4.55,1.14,26,26,0,0,0,6.32-1v3.92a10.79,10.79,0,0,1-3.41,1.14,20.91,20.91,0,0,1-4,.38c-3.41,0-6.07-.88-7.83-2.78s-2.65-4.55-2.65-8.21a11.77,11.77,0,0,1,2.65-8.09,9.8,9.8,0,0,1,7.46-2.91,8.77,8.77,0,0,1,6.19,2.15,8.88,8.88,0,0,1,2.15,6.32,11.56,11.56,0,0,1-.13,2c-.13.76-.13,1.39-.25,1.9H236.71Zm4.42-8.34a4.2,4.2,0,0,0-3.16,1.14,5.27,5.27,0,0,0-1.26,3.41h8v-.63c-.13-2.65-1.26-3.92-3.54-3.92Zm27.93,16.3a12.93,12.93,0,0,1-2.65,1,13.49,13.49,0,0,1-3.16.38c-3.29,0-5.81-.88-7.58-2.78s-2.65-4.55-2.65-8,.88-6.07,2.78-8a10.29,10.29,0,0,1,7.58-2.91,11.12,11.12,0,0,1,5.43,1.26v3.92a14.37,14.37,0,0,0-4.42-.63,5.71,5.71,0,0,0-4.17,1.39,6.74,6.74,0,0,0-1.26,4.55v.63a6.74,6.74,0,0,0,1.26,4.55,5.1,5.1,0,0,0,4,1.39,16.24,16.24,0,0,0,4.55-.76v3.92Zm16.43.38a14.88,14.88,0,0,1-4.93.88c-2.27,0-4-.51-5.05-1.64s-1.64-2.78-1.64-5.05v-10H270.7v-3.66l3.29-.63.88-5.69h4.8v5.56h5.56v4.42h-5.56v9.73a2.62,2.62,0,0,0,.63,1.9,3.16,3.16,0,0,0,2.15.51,27.18,27.18,0,0,0,2.91-.25v3.92Z"/><path class="cls-16" d="M204.48,399.68c-9.22,0-16-2.53-20.85-7.71s-7.08-12.76-7.08-22.75,2.4-17.56,7.33-22.75,11.88-7.83,21-7.83a40.67,40.67,0,0,1,12.26,1.9,1.16,1.16,0,0,1,.76.51,2.52,2.52,0,0,1,.25,1.14v1.9c0,.76-.38,1.14-1,1.14a13.14,13.14,0,0,1-2.53-.51,21.43,21.43,0,0,0-4.42-.76,33.05,33.05,0,0,0-4.68-.38c-7.83,0-13.65,2-17.56,6.19s-5.81,10.24-5.81,18.45v2.15q0,24.64,22.75,24.64a41.18,41.18,0,0,0,11-1.52,11.92,11.92,0,0,1,2-.38c.63,0,1,.38,1,1.14v1.9a2.52,2.52,0,0,1-.25,1.14,1.16,1.16,0,0,1-.76.51,51.94,51.94,0,0,1-13.39,1.9Zm42,.25c-6.32,0-11.25-2-14.66-6.07s-5.18-9.73-5.18-16.93,1.77-12.76,5.18-16.81,8.47-6.07,14.66-6.07,11.25,2,14.66,6.07,5.31,9.6,5.31,16.81-1.77,12.89-5.31,16.93-8.34,6.07-14.66,6.07Zm0-4.42c9.86,0,14.91-6.19,14.91-18.45s-4.93-18.32-14.91-18.32-14.91,6.07-14.91,18.32,5.05,18.45,14.91,18.45Zm32.35,3.16c-.88,0-1.26-.38-1.26-1.26V356.72c0-.88.38-1.26,1.26-1.26h1.77a1.33,1.33,0,0,1,1.52,1.26l.38,3.66a37.23,37.23,0,0,1,8.85-4.68,25.49,25.49,0,0,1,9-1.64c4.17,0,7.33,1.14,9.6,3.29s3.29,5.43,3.29,9.73v30.33c0,.88-.38,1.26-1.26,1.26h-2.27c-.88,0-1.26-.38-1.26-1.26V369.36c0-3.66-.76-6.44-2.15-8.09s-3.66-2.53-6.82-2.53a30.1,30.1,0,0,0-16.81,5.43v33.23c0,.88-.38,1.26-1.26,1.26Zm58.51,1.26a41.54,41.54,0,0,1-6.82-.63,29.58,29.58,0,0,1-6.19-1.9,1.76,1.76,0,0,1-1-1.77v-1.52c0-.76.38-1,1-1a2.22,2.22,0,0,1,.76.13c.38.13,1.26.38,2.4.76a33.17,33.17,0,0,0,10.11,1.52c3.54,0,6.19-.76,8-2.15s2.78-3.41,2.78-6.19a5.07,5.07,0,0,0-1.64-3.92A16.47,16.47,0,0,0,341,380.1l-7.83-2.91c-6.19-2.27-9.22-6.07-9.22-11.25a10.6,10.6,0,0,1,4-8.59c2.65-2.27,6.19-3.29,10.49-3.29a31.72,31.72,0,0,1,11.25,2.15,1.76,1.76,0,0,1,1,1.77v1.26c0,.76-.25,1.14-.88,1.14a10.84,10.84,0,0,1-2.15-.38,35.7,35.7,0,0,0-9.48-1.52c-3,0-5.43.63-7.08,1.9a6.35,6.35,0,0,0-2.4,5.43,6.11,6.11,0,0,0,1.64,4.55,23,23,0,0,0,6.57,3.41l6.82,2.53a15.37,15.37,0,0,1,6.95,4.42,10.15,10.15,0,0,1,2.15,6.44,11,11,0,0,1-4.3,9.22c-2.53,2.4-6.44,3.54-11.25,3.54Zm37.66,0c-4.17,0-7.33-1.14-9.48-3.29s-3.29-5.56-3.29-9.86V356.72c0-.88.38-1.26,1.26-1.26h2.27c.88,0,1.26.38,1.26,1.26v28.05c0,3.79.76,6.57,2.15,8.21s3.66,2.53,6.82,2.53a22.65,22.65,0,0,0,7.83-1.26,40.62,40.62,0,0,0,8-4.17V356.85c0-.88.38-1.26,1.26-1.26h2.27c.88,0,1.26.38,1.26,1.26v40.56c0,.88-.38,1.26-1.26,1.26h-1.77a1.33,1.33,0,0,1-1.52-1.26l-.38-3.41a27.21,27.21,0,0,1-16.68,5.94Zm42.46-1a7.24,7.24,0,0,1-5.43-2,7.93,7.93,0,0,1-1.9-5.69v-55c0-.88.38-1.26,1.26-1.26h2.27c.88,0,1.26.38,1.26,1.26v54.84a2.84,2.84,0,0,0,3.41,3.41,3.5,3.5,0,0,0,1.14-.13c.38,0,.76-.13,1-.13a1.13,1.13,0,0,1,1.26,1.26v1.64a1.16,1.16,0,0,1-1.14,1.26,7.52,7.52,0,0,1-3.16.51Zm27.55.25c-3.41,0-5.94-.88-7.71-2.65s-2.65-4.42-2.65-7.83V359.88h-6.82c-.88,0-1.26-.38-1.26-1.26v-.88a2,2,0,0,1,.25-1c.13-.25.51-.38,1-.38l6.95-.63.63-11.37a1.24,1.24,0,0,1,.38-1,1.07,1.07,0,0,1,.88-.25h1.52c.88,0,1.26.38,1.26,1.26v11.25H451.9c.88,0,1.26.38,1.26,1.26v1.77c0,.88-.38,1.26-1.26,1.26H439.39v28.56q0,3.6,1.52,4.93c1,1,2.65,1.52,5.05,1.52a23.08,23.08,0,0,0,4.42-.38,9.33,9.33,0,0,1,1.52-.25,2.47,2.47,0,0,1,.88-.13.93.93,0,0,1,1,1v1.26c0,1-.38,1.64-1,1.77a30.17,30.17,0,0,1-7.83,1Zm19.46-.51c-.88,0-1.26-.38-1.26-1.26V356.72c0-.88.38-1.26,1.26-1.26h2.27c.88,0,1.26.38,1.26,1.26v40.69c0,.88-.38,1.26-1.26,1.26Zm1.14-52.44a3.62,3.62,0,0,1-2.65-1,4.33,4.33,0,0,1,0-5.56,4,4,0,0,1,5.31,0,3.93,3.93,0,0,1,1,2.78,4.16,4.16,0,0,1-1,2.78,3.62,3.62,0,0,1-2.65,1ZM483,398.67c-.88,0-1.26-.38-1.26-1.26V356.72c0-.88.38-1.26,1.26-1.26h1.77a1.33,1.33,0,0,1,1.52,1.26l.38,3.66a37.23,37.23,0,0,1,8.85-4.68,25.49,25.49,0,0,1,9-1.64c4.17,0,7.33,1.14,9.6,3.29s3.29,5.43,3.29,9.73v30.33c0,.88-.38,1.26-1.26,1.26h-2.27c-.88,0-1.26-.38-1.26-1.26V369.36c0-3.66-.76-6.44-2.15-8.09s-3.66-2.53-6.82-2.53a30.1,30.1,0,0,0-16.81,5.43v33.23c0,.88-.38,1.26-1.26,1.26Zm62.8,18.7a32.81,32.81,0,0,1-7.08-.76,26.28,26.28,0,0,1-6.07-2,1.76,1.76,0,0,1-1-1.77v-1.26c0-.76.38-1.14,1-1.14a.76.76,0,0,1,.51.13,2.91,2.91,0,0,1,1.14.38,38.49,38.49,0,0,0,11.12,2c5.31,0,9.22-1.26,11.75-3.92s3.79-6.82,3.79-12.51v-4.17a24.89,24.89,0,0,1-7.08,4.17,20,20,0,0,1-7.33,1.52,16.65,16.65,0,0,1-13.27-5.94q-4.93-5.88-4.93-15.54c0-6.95,1.64-12.38,4.93-16.43s7.83-6.07,13.52-6.07a20.48,20.48,0,0,1,14.28,5.69l.38-3.16a1.33,1.33,0,0,1,1.52-1.26h1.77c.88,0,1.26.38,1.26,1.26v39.93c0,6.7-1.77,11.88-5.18,15.42s-8.59,5.43-15,5.43Zm1.9-23.76c4.3,0,8.72-1.77,13.27-5.43V364.3a27.55,27.55,0,0,0-6.82-4.3,18.43,18.43,0,0,0-6.95-1.39c-4.55,0-8.09,1.52-10.36,4.42s-3.54,7.33-3.54,13.27c0,5.56,1.26,9.86,3.66,12.89s6.07,4.42,10.74,4.42Z"/><path class="cls-16" d="M179.59,487.12c-.88,0-1.26-.38-1.26-1.26v-57c0-.88.38-1.26,1.26-1.26H198.8c5.43,0,9.73,1.64,13,4.8s4.8,7.46,4.8,12.89-1.64,9.6-4.8,12.76-7.58,4.8-13,4.8H183.26v23c0,.88-.38,1.26-1.26,1.26Zm19.08-28.81c8.47,0,12.76-4.3,12.76-13s-4.3-13.14-12.76-13.14H183.26v26.16h15.42Zm39,29.82a13.21,13.21,0,0,1-9.48-3.41,12.38,12.38,0,0,1-3.54-9.1c0-4.17,1.39-7.46,4.3-9.86s6.82-3.66,11.75-3.66a40.07,40.07,0,0,1,12.26,2v-7.2c0-3.54-.88-5.94-2.53-7.46s-4.42-2.27-8.21-2.27a42,42,0,0,0-12.51,2.15,7.27,7.27,0,0,1-1.26.25c-.51,0-.88-.38-.88-1.14v-1.39a2,2,0,0,1,.25-1,1.61,1.61,0,0,1,.88-.63,39.39,39.39,0,0,1,14.41-2.65c5.05,0,8.72,1,11.25,3.16s3.66,5.31,3.66,9.6v30.33c0,.88-.38,1.26-1.26,1.26H255c-.88,0-1.26-.38-1.39-1.26l-.38-3.66c-5.05,3.92-10.24,5.94-15.54,5.94Zm.63-4.55a21.51,21.51,0,0,0,7.08-1.26,39.44,39.44,0,0,0,7.71-3.79V467.79A43.55,43.55,0,0,0,242,466.27c-8,0-12,3-12,9.22a8.24,8.24,0,0,0,2.15,6.07c1.26,1.39,3.41,2,6.19,2Zm34.12,3.54c-.88,0-1.26-.38-1.26-1.26V445.17c0-.88.38-1.26,1.26-1.26h1.64a1.33,1.33,0,0,1,1.52,1.26l.38,5.05a18.83,18.83,0,0,1,6.44-5.05,16.14,16.14,0,0,1,7.08-1.52,12.28,12.28,0,0,1,2.27.13c.88,0,1.26.51,1.26,1.39v2.15a1,1,0,0,1-.25.63c-.13.25-.38.25-.63.25h-3a15.21,15.21,0,0,0-6.95,1.52,17.91,17.91,0,0,0-5.81,4.68V486c0,.88-.38,1.26-1.26,1.26h-2.65Zm41.57.51c-3.41,0-5.94-.88-7.71-2.65s-2.65-4.42-2.65-7.83V448.33h-6.82c-.88,0-1.26-.38-1.26-1.26v-.88a2,2,0,0,1,.25-1c.13-.25.51-.38,1-.38l6.95-.63.63-11.37a1.24,1.24,0,0,1,.38-1,1.07,1.07,0,0,1,.88-.25h1.52c.88,0,1.26.38,1.26,1.26V444H321c.88,0,1.26.38,1.26,1.26v1.77c0,.88-.38,1.26-1.26,1.26H308.48v28.56q0,3.6,1.52,4.93c1,1,2.65,1.52,5.05,1.52a23.08,23.08,0,0,0,4.42-.38,9.33,9.33,0,0,1,1.52-.25,2.47,2.47,0,0,1,.88-.13.93.93,0,0,1,1,1v1.26c0,1-.25,1.64-1,1.77a29.45,29.45,0,0,1-7.83,1Zm19.08-.51c-.88,0-1.26-.38-1.26-1.26V445.17c0-.88.38-1.26,1.26-1.26h1.77a1.33,1.33,0,0,1,1.52,1.26l.38,3.66a37.23,37.23,0,0,1,8.85-4.68,25.49,25.49,0,0,1,9-1.64c4.17,0,7.33,1.14,9.6,3.29s3.29,5.43,3.29,9.73v30.33c0,.88-.38,1.26-1.26,1.26H364c-.88,0-1.26-.38-1.26-1.26V457.81c0-3.66-.76-6.44-2.15-8.09s-3.66-2.53-6.82-2.53a30.1,30.1,0,0,0-16.81,5.43v33.23c0,.88-.38,1.26-1.26,1.26ZM399,488.39c-6.82,0-11.88-1.9-15.42-5.81s-5.18-9.6-5.18-17.19c0-7.2,1.77-12.76,5.18-16.81s8.34-5.94,14.53-5.94c5.18,0,9.22,1.52,12,4.42s4.17,7.2,4.17,12.76a26.22,26.22,0,0,1-.38,5.18,1.33,1.33,0,0,1-1.52,1.26H383.29c0,6.07,1.39,10.49,3.92,13.27s6.57,4.3,12,4.3A32.89,32.89,0,0,0,411,481.69a6.2,6.2,0,0,1,1.52-.38c.25,0,.38.13.63.25a1.35,1.35,0,0,1,.25.76v1.26c0,.88-.25,1.52-1,1.77a29,29,0,0,1-13.39,3Zm10.61-26c0-.76.13-1.77.13-2.91,0-4.17-1-7.2-3-9.35s-4.93-3.16-8.85-3.16c-9.1,0-13.9,5.18-14.41,15.42h26.16Zm16.93,24.77c-.88,0-1.26-.38-1.26-1.26V445.17c0-.88.38-1.26,1.26-1.26h1.64a1.33,1.33,0,0,1,1.52,1.26l.38,5.05a18.83,18.83,0,0,1,6.44-5.05,16.14,16.14,0,0,1,7.08-1.52,12.28,12.28,0,0,1,2.27.13c.88,0,1.26.51,1.26,1.39v2.15a1,1,0,0,1-.25.63c-.13.25-.38.25-.63.25h-3a15.21,15.21,0,0,0-6.95,1.52,17.91,17.91,0,0,0-5.81,4.68V486c0,.88-.38,1.26-1.26,1.26H426.5Z"/><rect class="cls-17" y="0.63" width="821.67" height="580"/></g></g></svg>