<svg xmlns="http://www.w3.org/2000/svg" viewBox="0 0 821.67 580"><defs><style>.cls-1{fill:none;}.cls-2{fill:#6a787d;}.cls-3{fill:#fefefe;}.cls-4{fill:#18313b;}.cls-5{fill:#fa3d2e;}.cls-6{fill:#17313b;}</style></defs><title>clutch-top-it-services-firms-horizontal-placement</title><g id="Layer_2" data-name="Layer 2"><g id="Layer_2-2" data-name="Layer 2"><rect class="cls-1" width="821.67" height="580"/><g id="Layer_2-3" data-name="Layer 2"><g id="Layer_2-2-2" data-name="Layer 2-2"><g id="Layer_2-3-2" data-name="Layer 2-3"><g id="Layer_1-2" data-name="Layer 1-2"><path class="cls-2" d="M142.35,144.6c4.79-1.89,9.1-4.64,13.67-7.08Q249.88,86.89,343.71,36.21q32.52-17.59,65-35.2c.56-.3,1.07-.7,1.6-1h1c7,3.83,13.91,7.73,20.94,11.5L573.8,88.07q51.65,27.9,103.37,55.76a3.48,3.48,0,0,1,2.15,3.48q-.08,142.93,0,285.86a3.48,3.48,0,0,1-2.09,3.48q-72.45,39-144.84,78.18L412.8,579.39a4,4,0,0,1-4.38-.06q-65-35.15-129.94-70.21L144.31,436.56c-.65-.33-1.16-.89-2-.75Zm4.35,145.62v140c0,1.52.11,2.58,1.75,3.48Q213,468.47,277.52,503.41l130.73,70.68a4.64,4.64,0,0,0,5.06,0q54.61-29.6,109.22-59.1l150.64-81.36a3,3,0,0,0,1.85-3.18V149.9a3.27,3.27,0,0,0-2-3.33q-49.55-26.68-99.15-53.46L413.16,6.25a4.27,4.27,0,0,0-4.64,0Q363.48,30.7,318.42,55q-84.7,45.79-169.5,91.47a3.77,3.77,0,0,0-2.33,3.9q.13,69.92.07,139.84Z"/><path class="cls-3" d="M146.67,290.18V150.36a3.77,3.77,0,0,1,2.33-3.9Q233.7,100.79,318.39,55L408.49,6.25a4.27,4.27,0,0,1,4.64,0Q493.47,49.73,573.8,93.12l99.1,53.51a3.27,3.27,0,0,1,2,3.33q-.07,140.28,0,280.56a3,3,0,0,1-1.85,3.18Q597.78,474.29,522.49,515q-54.61,29.52-109.22,59.09a4.64,4.64,0,0,1-5.06,0q-65.37-35.38-130.74-70.66-64.45-34.92-129-69.78c-1.64-.88-1.75-1.93-1.75-3.48Q146.67,360.18,146.67,290.18Zm10.25,79.75c0,18.29,0,36.59-.11,54.88,0,1.65,1,2,2,2.53L217,458.5,408.06,561a5.06,5.06,0,0,0,5.52,0q92.71-49.78,185.48-99.45l63.71-34.11c1-.55,2.08-.88,2-2.53-.09-18.29-.09-36.59-.11-54.88,0-.56.07-1.16.07-1.68V212.17a13.33,13.33,0,0,0-.07-1.68c0-18,0-36,.13-53.92a3.54,3.54,0,0,0-2.33-3.64q-39.52-21.16-79-42.35L413.64,19.45a5.15,5.15,0,0,0-5.52,0Q315.27,69.32,222.38,119L159.1,152.88c-1,.57-2.33.84-2.33,2.63.09,18.29.09,36.59.11,54.88,0,.56-.07,1.16-.07,1.68v156.2C156.86,368.91,156.91,369.42,156.93,369.93Z"/><path class="cls-4" d="M664.69,210.43c0,.56.07,1.16.07,1.68V368.28a13.33,13.33,0,0,1-.07,1.68H641.93a6.48,6.48,0,0,0-.37,3.18V414a3.3,3.3,0,0,1-2,3.39c-3.16,1.62-6.27,3.31-9.38,5l-58,31.84c-14.48,7.94-29,15.81-43.48,23.74L461.1,515.05c-14.93,8.24-30,16.33-44.87,24.73a8.52,8.52,0,0,1-9.51,0C387.51,529,368.25,518.54,349,507.94q-24.45-13.4-49-26.69l-67.56-37.12q-24.43-13.4-49-26.68a3.34,3.34,0,0,1-2-3.39c.08-13.7,0-27.42,0-41.12,0-.93.32-1.93-.53-2.93h-24c0-.56-.07-1.16-.07-1.68V212.16a13.32,13.32,0,0,1,.07-1.68h24.59V166.43a3.3,3.3,0,0,1,2-3.39c3.16-1.62,6.27-3.31,9.38-5l58-31.83c14.48-7.94,29-15.81,43.48-23.74L362,65.35c15-8.24,30-16.33,44.84-24.77a8.52,8.52,0,0,1,9.51,0c19.21,10.79,38.5,21.32,57.78,31.86q24.45,13.4,49,26.75l67.53,37.13q24.45,13.41,49,26.69a3.34,3.34,0,0,1,2,3.39c-.08,13.7,0,27.42,0,41.12,0,.93-.32,1.93.53,2.93ZM184.34,224.77h454.3V167.13a1.82,1.82,0,0,0-1.16-1.85c-2.58-1.34-5.06-2.79-7.61-4.18Q521.76,101.94,413.64,42.63a3.74,3.74,0,0,0-4.15,0q-44.39,24.45-89,48.73l-133.9,73.36a3.76,3.76,0,0,0-2.23,3.91c.08,12.23,0,24.5,0,36.75v19.4Zm0,130.85v57.31a2.33,2.33,0,0,0,1.49,2.38c3,1.56,5.94,3.22,8.9,4.85Q301.4,478.55,408.06,537a6.2,6.2,0,0,0,7,0q110.86-60.91,221.75-121.47a3.22,3.22,0,0,0,1.93-3.36V355.56ZM340.87,269.3c-12-14.29-36.86-15.6-50.35-2.79-13.91,13.28-14.16,36.62-.31,49.55s38.61,11.86,50.19-2L333.32,306c-12.14,12.4-28.23,9.62-35.61,1.93-8-8.36-8.6-22.73-1.16-31.66a21.24,21.24,0,0,1,14.1-7.63c8.72-1.08,16.18,1.74,22.25,8.09Zm168.65,12V255.51H498.07v67.9H509.6V300.32c0-7.08,3.48-10.88,10.54-11.7,5.53-.65,9,2.09,9.6,7.66a29.24,29.24,0,0,1,.09,3.14v22c0,.68-.27,1.45.25,2H541.4c0-9.51.23-18.85-.07-28.19-.31-9.65-6.73-16.13-16.37-17.19a24.36,24.36,0,0,0-15.35,3.27Zm-140.77-2.66c0,9.5-.33,18.76.09,28,.51,11,6.86,17.47,17.5,18.66a22.34,22.34,0,0,0,13.28-2.92c4.45,2.23,8.63.65,12.6,1.28v-44.9H400.68v24c0,8-6.07,13-13.85,11.93a8.19,8.19,0,0,1-7.15-6,15.6,15.6,0,0,1-.68-5V281c0-.77.27-1.59-.31-2.33Zm124.38,6.43a27.49,27.49,0,0,0-24.06-7.68c-8.69,1.24-15.44,5.49-19.21,13.67a23.68,23.68,0,0,0,8.72,29.78c10.68,6.91,26.49,5.15,34.46-4l-7.92-7.3c-9.28,6.19-17,6.26-22.52.29A13,13,0,0,1,470,288.18c5.79-1.16,10.78.51,15.17,4.42Zm-47.53,2.26v-8.87H437V262.8H423.76v15.94h-7v8.59H424v36.14h13.15V287.33Zm-87,36.16v-68H345.75v68Zm114.61-14.39c4.81,0,8.63-3.48,8.69-7.89s-3.9-8.09-8.7-8.09a8.31,8.31,0,0,0-8.65,7.94c0,4.5,3.77,8.09,8.68,8.09Z"/><path class="cls-2" d="M156.93,369.93h24c.85,1,.53,2,.53,2.93V414a3.34,3.34,0,0,0,2,3.39q24.51,13.33,49,26.69l67.56,37.12q24.45,13.4,49,26.69c19.21,10.64,38.57,21.08,57.73,31.87a8.52,8.52,0,0,0,9.51,0c14.86-8.36,29.94-16.48,44.87-24.73l67.56-37.12c14.48-7.94,29-15.81,43.48-23.74q29-15.9,58-31.83c3.1-1.71,6.23-3.39,9.38-5a3.3,3.3,0,0,0,2-3.39c-.08-13.62,0-27.25,0-40.86a6.48,6.48,0,0,1,.37-3.18h22.76c0,18.29,0,36.59.11,54.88,0,1.65-1,2-2,2.53L599.12,461.4Q506.26,511.1,413.6,560.84a5.06,5.06,0,0,1-5.52,0L217,458.57,158.87,427.4c-1-.55-2.08-.88-2-2.53Q156.94,397.43,156.93,369.93Z"/><path class="cls-2" d="M664.69,210.43H642.1c-.85-1-.53-2-.53-2.93V166.37a3.34,3.34,0,0,0-2-3.39q-24.51-13.32-49-26.66L523,99.2q-24.41-13.44-49-26.77c-19.21-10.56-38.57-21.08-57.74-31.86a8.52,8.52,0,0,0-9.51,0c-14.88,8.36-29.89,16.48-44.87,24.69l-67.58,37.12c-14.48,7.94-29,15.81-43.48,23.74q-29,15.9-58,31.83c-3.1,1.71-6.23,3.39-9.38,5a3.3,3.3,0,0,0-2,3.39c.08,13.62,0,27.25,0,40.86v3.17H156.93c0-18.29,0-36.59-.11-54.88,0-1.8,1.21-2,2.33-2.63L222.33,119,408,19.45a5.15,5.15,0,0,1,5.52,0q84.95,45.61,170,91.09l79,42.31a3.54,3.54,0,0,1,2.33,3.64C664.71,174.47,664.71,192.44,664.69,210.43Z"/><path class="cls-3" d="M184.43,224.76v-56.2a3.76,3.76,0,0,1,2.19-3.86q67-36.62,133.9-73.31l88.93-48.72a3.74,3.74,0,0,1,4.15,0q108.11,59.27,216.26,118.46c2.54,1.39,5.06,2.84,7.61,4.18a1.82,1.82,0,0,1,1.16,1.85V224.8Zm226.13-13.47H600.39c1,0,2.75.75,2.7-.91s-1.81-.84-2.79-.84h-379c-1,0-2.8-.7-2.82.79,0,1.82,1.93.93,2.9.94h189.1Z"/><path class="cls-3" d="M184.42,355.61H638.65v56.63a3.22,3.22,0,0,1-1.93,3.36Q525.78,476.27,414.95,537a6.2,6.2,0,0,1-7,0Q301.48,478.5,194.79,420.16c-3-1.62-5.91-3.31-8.9-4.85a2.33,2.33,0,0,1-1.49-2.39C184.44,393.88,184.42,374.87,184.42,355.61Zm226.39,15.33h189.1c1.08,0,3.13,1,3.13-.93,0-1.55-2-.79-3-.79q-189.24-.06-378.48,0c-1,0-3-.78-3,.81s1.93.91,2.92.91H410.81Z"/><path class="cls-3" d="M341,269.28l-7.9,7.39c-6.13-6.43-13.57-9.21-22.25-8.09a21.24,21.24,0,0,0-14.1,7.63c-7.47,8.95-7,23.26,1.16,31.66,7.37,7.68,23.49,10.45,35.61-1.93l7.08,8.09c-11.58,13.84-36.24,15.09-50.19,2s-13.67-36.24.31-49.55C304.1,253.63,329,255,341,269.28Z"/><path class="cls-3" d="M509.6,281.31A24.36,24.36,0,0,1,525,278c9.62,1.09,16.09,7.57,16.37,17.19.3,9.28.07,18.66.07,28.19H530.12c-.53-.55-.24-1.28-.25-2v-22a29.24,29.24,0,0,0-.09-3.14c-.61-5.56-4-8.31-9.6-7.66-7,.82-10.45,4.64-10.54,11.7v23.13H498.11v-67.9h11.5Z"/><path class="cls-3" d="M368.86,278.65h9.85c.6.75.31,1.58.31,2.33V303.7a15.6,15.6,0,0,0,.68,5,8.19,8.19,0,0,0,7.15,6c7.83,1.07,13.82-4,13.85-11.93s0-15.93,0-24h11.55v44.94c-4-.65-8.09,1-12.6-1.28a22.34,22.34,0,0,1-13.23,3c-10.65-1.16-17-7.66-17.5-18.66C368.48,297.42,368.86,288.16,368.86,278.65Z"/><path class="cls-3" d="M493.2,285.08l-8,7.51c-4.38-3.92-9.38-5.6-15.17-4.42a13,13,0,0,0-7.35,21.74c5.55,6,13.26,5.9,22.52-.29l7.92,7.28c-8,9.1-23.8,10.85-34.46,4a23.68,23.68,0,0,1-8.7-29.81c3.74-8.18,10.45-12.43,19.21-13.67A27.49,27.49,0,0,1,493.2,285.08Z"/><path class="cls-3" d="M445.62,287.33h-8.52v36.08H423.95V287.33h-7.19v-8.59h7V262.8H437v15.68h8.59Z"/><path class="cls-3" d="M358.56,323.5H345.73v-68h12.83Z"/><path class="cls-5" d="M473.17,309.12c-4.92,0-8.7-3.54-8.66-8.09a8.31,8.31,0,0,1,8.65-7.94c4.8,0,8.77,3.72,8.7,8.09A8.38,8.38,0,0,1,473.17,309.12Z"/><path class="cls-2" d="M410.55,211.28H221.45c-1,0-2.91.88-2.9-.94,0-1.49,1.83-.79,2.82-.79h379c1,0,2.75-.72,2.79.84s-1.75.91-2.7.91Q505.48,211.32,410.55,211.28Z"/><path class="cls-2" d="M410.82,370.94H221.51c-1,0-3,.85-2.92-.91s2-.81,3-.81q189.24-.06,378.48,0c1,0,3-.75,3,.79,0,1.89-2,.93-3.13.93Z"/><polygon class="cls-6" points="395.04 101.26 376.16 101.26 376.16 104.2 383.97 104.2 383.97 125.42 387.2 125.42 387.2 104.2 395.04 104.2 395.04 101.26"/><path class="cls-6" d="M418.4,114.57v-2.45a14.85,14.85,0,0,0-.65-4.55,10.29,10.29,0,0,0-1.93-3.54,8.66,8.66,0,0,0-3-2.3,10,10,0,0,0-7.86,0,8.58,8.58,0,0,0-3,2.3,10.58,10.58,0,0,0-1.93,3.54,14.5,14.5,0,0,0-.68,4.56v2.45a14.43,14.43,0,0,0,.68,4.55,10.35,10.35,0,0,0,1.93,3.53,8.79,8.79,0,0,0,3,2.28,10,10,0,0,0,7.86,0,8.53,8.53,0,0,0,3-2.29,10.36,10.36,0,0,0,1.93-3.53A14.8,14.8,0,0,0,418.4,114.57Zm-9.54,8.18a6.13,6.13,0,0,1-2.64-.56,5.53,5.53,0,0,1-2-1.58,7.54,7.54,0,0,1-1.28-2.58,12.27,12.27,0,0,1-.46-3.5v-2.49a12.43,12.43,0,0,1,.46-3.48,7.47,7.47,0,0,1,1.32-2.59,5.58,5.58,0,0,1,2-1.58,6.07,6.07,0,0,1,2.64-.56,6.18,6.18,0,0,1,2.68.56,5.48,5.48,0,0,1,2,1.58,7.42,7.42,0,0,1,1.25,2.58,12.62,12.62,0,0,1,.44,3.48v2.49a12.91,12.91,0,0,1-.43,3.5,7.5,7.5,0,0,1-1.24,2.58,5.32,5.32,0,0,1-2,1.56,6.24,6.24,0,0,1-2.73.56Z"/><path class="cls-6" d="M441.74,111.8a8.31,8.31,0,0,0,.54-3,8.15,8.15,0,0,0-.54-3,6.43,6.43,0,0,0-1.63-2.4,7.47,7.47,0,0,0-2.64-1.55,10.75,10.75,0,0,0-3.53-.54h-8.46v24.16h3.22V116.1h5.18a11.78,11.78,0,0,0,3.53-.49,7.16,7.16,0,0,0,2.65-1.46A6.18,6.18,0,0,0,441.74,111.8Zm-7.8,1.38H428.7v-9h5.17a6.82,6.82,0,0,1,2.4.37,4.21,4.21,0,0,1,1.56,1,3.86,3.86,0,0,1,.88,1.43,5.46,5.46,0,0,1,.29,1.79,5.3,5.3,0,0,1-.29,1.78,3.6,3.6,0,0,1-.84,1.38,4.11,4.11,0,0,1-1.55.92,7.37,7.37,0,0,1-2.42.32Z"/><rect class="cls-6" x="242.65" y="157.89" width="3.22" height="24.16"/><polygon class="cls-6" points="252.18 160.82 260 160.82 260 182.04 263.22 182.04 263.22 160.82 271.07 160.82 271.07 157.89 252.18 157.89 252.18 160.82"/><path class="cls-6" d="M303.3,171a10.17,10.17,0,0,0-2.58-1.51,27.67,27.67,0,0,0-3.31-1.12,20.23,20.23,0,0,1-2.81-.93,7.58,7.58,0,0,1-1.75-1,2.9,2.9,0,0,1-.85-1,3.1,3.1,0,0,1,1-3.69,4.82,4.82,0,0,1,1.59-.8,7.73,7.73,0,0,1,2.3-.31,6.86,6.86,0,0,1,2.3.35,4.77,4.77,0,0,1,1.64,1,3.89,3.89,0,0,1,1,1.42,4.73,4.73,0,0,1,.34,1.82v.65h3.22v-.65a7.19,7.19,0,0,0-.61-2.93A7.08,7.08,0,0,0,303,159.8a8.09,8.09,0,0,0-2.68-1.59,10.11,10.11,0,0,0-3.48-.58,11.22,11.22,0,0,0-3.29.47,8.36,8.36,0,0,0-2.64,1.28,6.22,6.22,0,0,0-1.77,2.08,5.79,5.79,0,0,0-.65,2.7,5.67,5.67,0,0,0,.6,2.66,6.23,6.23,0,0,0,1.66,2,10.42,10.42,0,0,0,2.54,1.36,28.57,28.57,0,0,0,3.19,1.09,25.28,25.28,0,0,1,2.91,1,7.14,7.14,0,0,1,1.76,1,2.89,2.89,0,0,1,.86,1.09,3.67,3.67,0,0,1,.25,1.43,3,3,0,0,1-.34,1.47,3.27,3.27,0,0,1-1,1.14,5.2,5.2,0,0,1-1.67.77,9.31,9.31,0,0,1-4.47,0,6,6,0,0,1-1.93-.8,4.25,4.25,0,0,1-1.33-1.41,4,4,0,0,1-.51-2.11v-.65h-3.22v.65a7.08,7.08,0,0,0,.39,2.42,6.76,6.76,0,0,0,1,1.93,6.88,6.88,0,0,0,1.58,1.45,9.29,9.29,0,0,0,1.93,1,11.55,11.55,0,0,0,2.09.56,13.08,13.08,0,0,0,2.15.18,12.23,12.23,0,0,0,3.32-.43,8.32,8.32,0,0,0,2.7-1.28,6.22,6.22,0,0,0,1.82-2.09,5.92,5.92,0,0,0,.65-2.86,6.26,6.26,0,0,0-.57-2.72A6.17,6.17,0,0,0,303.3,171Z"/><polygon class="cls-6" points="315.39 171.08 326.09 171.08 326.09 168.16 315.39 168.16 315.39 160.82 327.62 160.82 327.62 157.89 312.18 157.89 312.18 182.04 327.7 182.04 327.7 179.12 315.39 179.12 315.39 171.08"/><path class="cls-6" d="M347.34,171.13a7.08,7.08,0,0,0,1.65-1.52,6.84,6.84,0,0,0,1.07-2,7.08,7.08,0,0,0,.38-2.34,7.92,7.92,0,0,0-.6-3.14,6.33,6.33,0,0,0-1.73-2.35,7.53,7.53,0,0,0-2.68-1.43,11.72,11.72,0,0,0-3.42-.47h-8.09V182h3.22v-9.51h5.63l5.53,9.52h3v-1l-5.41-9.2A7.65,7.65,0,0,0,347.34,171.13Zm-10.11-10.29h4.84a7.43,7.43,0,0,1,2.3.32,4.5,4.5,0,0,1,1.6.88,3.51,3.51,0,0,1,1,1.36,5.06,5.06,0,0,1,.32,1.88,4.7,4.7,0,0,1-.29,1.66,3.78,3.78,0,0,1-.87,1.36,4.32,4.32,0,0,1-1.48,1,5.63,5.63,0,0,1-2.11.36H337.2Z"/><polygon class="cls-6" points="365.32 177.05 358.44 157.89 354.95 157.89 363.94 182.04 366.69 182.04 375.69 157.89 372.18 157.89 365.32 177.05"/><rect class="cls-6" x="381.55" y="157.89" width="3.22" height="24.16"/><path class="cls-6" d="M407.23,174.19a6.39,6.39,0,0,1-1.71,4,5.87,5.87,0,0,1-4.14,1.28,5.47,5.47,0,0,1-2.58-.58,5.37,5.37,0,0,1-1.87-1.61,7.73,7.73,0,0,1-1.18-2.54,12.47,12.47,0,0,1-.41-3.31V168.5a12.14,12.14,0,0,1,.43-3.37,7.43,7.43,0,0,1,1.23-2.51,5.49,5.49,0,0,1,1.93-1.57,5.79,5.79,0,0,1,2.58-.56,7.13,7.13,0,0,1,2.37.35,4.63,4.63,0,0,1,1.66,1,4.68,4.68,0,0,1,1.08,1.61,8.89,8.89,0,0,1,.59,2.31l.07.57h3.22l-.07-.71a10.54,10.54,0,0,0-.86-3.36,8,8,0,0,0-1.83-2.58A7.65,7.65,0,0,0,405,158.1a10.74,10.74,0,0,0-3.5-.54,9.22,9.22,0,0,0-3.9.81,8.53,8.53,0,0,0-3,2.27,10.17,10.17,0,0,0-1.87,3.48,14.46,14.46,0,0,0-.65,4.42v2.87a14.38,14.38,0,0,0,.65,4.41,10.36,10.36,0,0,0,1.86,3.48,8.41,8.41,0,0,0,2.94,2.28,9,9,0,0,0,3.81.8,11,11,0,0,0,3.58-.55,8,8,0,0,0,2.77-1.6,7.73,7.73,0,0,0,1.84-2.58,10.85,10.85,0,0,0,.87-3.33l.08-.72h-3.22Z"/><polygon class="cls-6" points="420.48 171.08 431.18 171.08 431.18 168.16 420.48 168.16 420.48 160.82 432.7 160.82 432.7 157.89 417.25 157.89 417.25 182.04 432.78 182.04 432.78 179.12 420.48 179.12 420.48 171.08"/><path class="cls-6" d="M453,171a10.19,10.19,0,0,0-2.58-1.51,27.59,27.59,0,0,0-3.31-1.12,20.23,20.23,0,0,1-2.81-.93,7.56,7.56,0,0,1-1.75-1,2.89,2.89,0,0,1-.85-1,3.1,3.1,0,0,1,1-3.69,4.84,4.84,0,0,1,1.59-.8,7.73,7.73,0,0,1,2.3-.31,6.86,6.86,0,0,1,2.3.35,4.77,4.77,0,0,1,1.64,1,3.86,3.86,0,0,1,1,1.42,4.73,4.73,0,0,1,.34,1.82v.65H455v-.65a7.19,7.19,0,0,0-.58-2.94,7.08,7.08,0,0,0-1.73-2.39,8.15,8.15,0,0,0-2.68-1.59,10.11,10.11,0,0,0-3.48-.58,11.22,11.22,0,0,0-3.29.47,8.36,8.36,0,0,0-2.64,1.28,6.22,6.22,0,0,0-1.77,2.08,5.79,5.79,0,0,0-.65,2.7,5.65,5.65,0,0,0,.6,2.66,6.22,6.22,0,0,0,1.66,2,10.42,10.42,0,0,0,2.51,1.44,28.56,28.56,0,0,0,3.19,1.09,25.28,25.28,0,0,1,2.91,1,7.08,7.08,0,0,1,1.76,1,2.87,2.87,0,0,1,.86,1.09,3.66,3.66,0,0,1,.25,1.43,3,3,0,0,1-.34,1.47,3.33,3.33,0,0,1-1,1.14,5.21,5.21,0,0,1-1.67.77,9.33,9.33,0,0,1-4.47,0,6,6,0,0,1-1.93-.8,4.26,4.26,0,0,1-1.33-1.41,4,4,0,0,1-.51-2.11v-.65h-3.22V175a7.08,7.08,0,0,0,.39,2.42,6.8,6.8,0,0,0,1,1.93,6.88,6.88,0,0,0,1.58,1.45,9.28,9.28,0,0,0,1.93,1,11.54,11.54,0,0,0,2.09.56,13.05,13.05,0,0,0,2.15.18,12.23,12.23,0,0,0,3.32-.43,8.32,8.32,0,0,0,2.7-1.28,6.2,6.2,0,0,0,1.82-2.09,5.91,5.91,0,0,0,.65-2.8,6.26,6.26,0,0,0-.57-2.72A6.17,6.17,0,0,0,453,171Z"/><polygon class="cls-6" points="473.94 182.04 477.15 182.04 477.15 171.37 487.82 171.37 487.82 168.43 477.15 168.43 477.15 160.82 489.4 160.82 489.4 157.89 473.94 157.89 473.94 182.04"/><rect class="cls-6" x="495.8" y="157.89" width="3.22" height="24.16"/><path class="cls-6" d="M520.49,171.13a7.08,7.08,0,0,0,1.65-1.52,6.84,6.84,0,0,0,1.07-2,7.14,7.14,0,0,0,.38-2.34,7.92,7.92,0,0,0-.6-3.14,6.32,6.32,0,0,0-1.73-2.35,7.54,7.54,0,0,0-2.68-1.43,11.73,11.73,0,0,0-3.42-.47h-8.09V182h3.22v-9.51h5.63l5.53,9.52h3.1v-1l-5.41-9.2A7.67,7.67,0,0,0,520.49,171.13Zm-10.11-10.29h4.84a7.42,7.42,0,0,1,2.3.32,4.5,4.5,0,0,1,1.6.88,3.57,3.57,0,0,1,1,1.36,5.06,5.06,0,0,1,.32,1.88,4.7,4.7,0,0,1-.29,1.66,3.86,3.86,0,0,1-.87,1.36,4.31,4.31,0,0,1-1.48,1,5.64,5.64,0,0,1-2.11.36h-5.28Z"/><polygon class="cls-6" points="542.61 177.05 534.6 157.89 530.96 157.89 530.96 182.04 534.18 182.04 534.18 171.41 534.07 164.61 541.44 182.04 543.79 182.04 551.18 164.53 551.07 171.41 551.07 182.04 554.29 182.04 554.29 157.89 550.64 157.89 542.61 177.05"/><path class="cls-6" d="M577.86,173a6.17,6.17,0,0,0-1.65-2.08,10.19,10.19,0,0,0-2.58-1.51,27.59,27.59,0,0,0-3.31-1.12,20.22,20.22,0,0,1-2.81-.93,7.56,7.56,0,0,1-1.75-1,2.89,2.89,0,0,1-.85-1,3.1,3.1,0,0,1,1-3.69,4.84,4.84,0,0,1,1.59-.8,7.73,7.73,0,0,1,2.3-.31,6.86,6.86,0,0,1,2.3.35,4.77,4.77,0,0,1,1.64,1,3.86,3.86,0,0,1,1,1.42,4.73,4.73,0,0,1,.34,1.82v.65h3.22v-.65a7.19,7.19,0,0,0-.61-2.93,7.08,7.08,0,0,0-1.73-2.39,8.15,8.15,0,0,0-2.68-1.59,10.11,10.11,0,0,0-3.48-.58,11.22,11.22,0,0,0-3.29.47,8.36,8.36,0,0,0-2.64,1.28,6.22,6.22,0,0,0-1.77,2.08,5.79,5.79,0,0,0-.65,2.7,5.65,5.65,0,0,0,.6,2.66,6.22,6.22,0,0,0,1.66,2,10.42,10.42,0,0,0,2.51,1.44,28.56,28.56,0,0,0,3.19,1.09,25.28,25.28,0,0,1,2.91,1,7.08,7.08,0,0,1,1.76,1,2.87,2.87,0,0,1,.86,1.09,3.66,3.66,0,0,1,.25,1.43,3,3,0,0,1-.34,1.47,3.33,3.33,0,0,1-1,1.14,5.21,5.21,0,0,1-1.67.77,9.33,9.33,0,0,1-4.47,0,6,6,0,0,1-1.93-.8,4.26,4.26,0,0,1-1.33-1.41,4,4,0,0,1-.51-2.11v-.65h-3.22V175a7.08,7.08,0,0,0,.39,2.42,6.8,6.8,0,0,0,1,1.93,6.88,6.88,0,0,0,1.58,1.45,9.28,9.28,0,0,0,1.93,1,11.54,11.54,0,0,0,2.09.56,13.05,13.05,0,0,0,2.15.18,12.23,12.23,0,0,0,3.32-.43,8.32,8.32,0,0,0,2.7-1.28,6.2,6.2,0,0,0,1.82-2.09,5.91,5.91,0,0,0,.65-2.8A6.26,6.26,0,0,0,577.86,173Z"/><path class="cls-4" d="M418.82,438.77h11.12a3.57,3.57,0,0,1,.08,2.77H415.27c-.53-3.48,0-6.55,2.84-8.89,1.73-1.43,3.63-2.66,5.43-4a13.42,13.42,0,0,0,2-1.73,4.5,4.5,0,0,0,1-4.92c-.74-1.85-2.42-1.89-4-1.93a7.08,7.08,0,0,0-5.06,1.85,4.34,4.34,0,0,1-1.89-1.85c2.79-3.12,9.1-3.9,12.39-1.56s3.27,7.44,0,10.45c-2.08,1.88-4.5,3.4-6.68,5.15C419.88,435.16,418.61,436.41,418.82,438.77Z"/><path class="cls-4" d="M373,438.69h11.22a3.74,3.74,0,0,1,.18,2.82H369.68c-.7-3.91.26-7.15,3.55-9.54l4.91-3.48a8,8,0,0,0,2.33-2.39c1.83-3.08.27-5.89-3.29-6.07a8.32,8.32,0,0,0-5.76,2l-1.64-1.82c2.58-3.48,10-4.17,13-1.16,2.33,2.33,2.26,6.76-.2,9.45-2,2.16-4.64,3.48-6.85,5.33A6.47,6.47,0,0,0,373,438.69Z"/><path class="cls-4" d="M452.85,423c-.81-3.86-3.13-5.75-6.61-5.91-4-.16-6.43,1.43-7.61,5.28a26.81,26.81,0,0,0-.08,14.8c.93,3.36,3.09,4.89,6.57,5a6.86,6.86,0,0,0,7.19-4.64c1.07-2.58,1-5.36,1.28-8.53A58.66,58.66,0,0,0,452.85,423Zm-3.56,13.15c-.65,1.93-1.85,3.22-4,3.09a3.68,3.68,0,0,1-3.58-3.32,29,29,0,0,1,0-12.23c.46-2.12,1.62-3.72,4-3.68s3.48,1.82,3.86,3.91a46,46,0,0,1,.49,4.78,27,27,0,0,1-.77,7.38Z"/><path class="cls-4" d="M407.21,423.07c-.8-3.74-3.12-5.79-6.6-6-4-.2-6.76,1.59-7.78,5.44a28.31,28.31,0,0,0-.09,14.35,6.43,6.43,0,0,0,6.62,5.27,6.9,6.9,0,0,0,7.31-4.77,22.7,22.7,0,0,0,1.09-8.09A26.68,26.68,0,0,0,407.21,423.07Zm-3.53,12.75h0c-.49,2-1.71,3.48-4,3.43s-3.34-1.48-3.69-3.48-.48-4-.65-5.72c.32-2.38.15-4.5.74-6.52a1.76,1.76,0,0,1,.14-.49c.05-.16.16-.4.24-.6v-.05a4.87,4.87,0,0,1,.24-.44c.08-.14.06-.12.1-.18a3.62,3.62,0,0,1,3.48-1.79,3.68,3.68,0,0,1,3.56,3.34,28.48,28.48,0,0,1-.11,12.46Z"/></g></g></g></g></g></g></svg>