<?xml version="1.0" encoding="utf-8"?>
<!-- Generator: Adobe Illustrator 22.0.1, SVG Export Plug-In . SVG Version: 6.00 Build 0)  -->
<svg version="1.1" id="Layer_1" xmlns="http://www.w3.org/2000/svg" xmlns:xlink="http://www.w3.org/1999/xlink" x="0px" y="0px"
	 viewBox="0 0 410.358 170" enable-background="new 0 0 410.358 170" xml:space="preserve">
<g>
	<rect x="0" y="0" fill="#00558B" width="386.026" height="170"/>
	<path fill="#FFFFFF" d="M184.95,73.826c-2.309,0-4.181,1.872-4.181,4.181c0,2.309,1.872,4.181,4.181,4.181
		c2.309,0,4.181-1.872,4.181-4.181l0,0l0,0C189.131,75.698,187.259,73.826,184.95,73.826 M184.95,81.648
		c-2.009,0.082-3.704-1.481-3.786-3.49c-0.082-2.009,1.481-3.704,3.49-3.786c1.983-0.081,3.665,1.442,3.783,3.423
		c0,0,0,0.096,0,0.154c0.054,1.951-1.479,3.578-3.429,3.641l0,0"/>
	<path fill="#FFFFFF" d="M187.166,76.928c0-0.809-0.424-1.233-1.657-1.233h-2.042v4.72h0.597v-2.138h1.079l1.349,2.138h0.694
		l-1.387-2.138c0.809,0,1.445-0.366,1.445-1.291 M184.95,77.833h-0.867v-1.657h1.349c0.597,0,1.175,0,1.175,0.809
		c0,0.809-0.963,0.867-1.657,0.867"/>
	<path fill="#FFFFFF" d="M96.502,20.094c-2.959-2.705-6.735-4.345-10.731-4.662H51.092v4.662H96.502"/>
	<path fill="#FFFFFF" d="M51.092,28.841h50.245c-0.069-1.616-0.462-3.201-1.156-4.662H51.092V28.841z"/>
	<path fill="#FFFFFF" d="M101.761,32.983h-14.43v4.604h13.775c0.454-1.511,0.668-3.085,0.636-4.662"/>
	<rect x="60.205" y="32.906" fill="#FFFFFF" width="13.505" height="4.662"/>
	<path fill="#FFFFFF" d="M60.205,46.103h35.006c1.542-1.299,2.846-2.857,3.853-4.604H60.205V46.103z"/>
	<path fill="#FFFFFF" d="M99.353,54.849c-1.185-1.689-2.591-3.212-4.181-4.527H60.205v4.604h39.09"/>
	<path fill="#FFFFFF" d="M60.205,63.577h13.717v-4.604H60.205V63.577z"/>
	<path fill="#FFFFFF" d="M87.543,58.972v4.662h14.565c-0.011-1.593-0.305-3.172-0.867-4.662L87.543,58.972z"/>
	<path fill="#FFFFFF" d="M51.092,72.111h48.684c0.967-1.362,1.576-2.946,1.772-4.604H51.092V72.111z"/>
	<path fill="#FFFFFF" d="M51.092,80.896h33.888c4.358,0.036,8.562-1.614,11.733-4.604H51.092V80.896z"/>
	<polyline fill="#FFFFFF" points="168.613,32.906 146.746,32.906 145.07,37.587 168.613,37.587 168.613,32.906 	"/>
	<polygon fill="#FFFFFF" points="105.614,28.841 134.686,28.841 133.068,24.178 105.614,24.178 	"/>
	<rect x="155.32" y="50.226" fill="#FFFFFF" width="13.293" height="4.604"/>
	<polygon fill="#FFFFFF" points="114.515,37.587 137.788,37.587 136.189,32.906 114.515,32.906 	"/>
	<rect x="155.32" y="58.914" fill="#FFFFFF" width="13.236" height="4.604"/>
	<rect x="155.32" y="67.488" fill="#FFFFFF" width="22.194" height="4.604"/>
	<polygon fill="#FFFFFF" points="141.275,80.839 141.853,80.839 143.529,76.234 139.657,76.234 	"/>
	<rect x="105.614" y="76.234" fill="#FFFFFF" width="22.194" height="4.662"/>
	<polyline fill="#FFFFFF" points="131.623,20.094 129.966,15.432 105.614,15.432 105.614,20.094 131.623,20.094 	"/>
	<polygon fill="#FFFFFF" points="138.154,72.111 144.974,72.111 146.534,67.488 136.555,67.488 	"/>
	<polyline fill="#FFFFFF" points="140.851,46.103 139.175,41.498 114.515,41.498 114.515,46.103 127.808,46.103 127.808,42.558 
		129.041,46.103 140.851,46.103 	"/>
	<rect x="114.515" y="58.914" fill="#FFFFFF" width="13.293" height="4.604"/>
	<rect x="114.515" y="50.226" fill="#FFFFFF" width="13.293" height="4.604"/>
	<rect x="105.614" y="67.488" fill="#FFFFFF" width="22.194" height="4.604"/>
	<rect x="155.32" y="76.234" fill="#FFFFFF" width="22.194" height="4.662"/>
	<polygon fill="#FFFFFF" points="148.191,28.841 177.514,28.841 177.514,24.178 149.79,24.178 	"/>
	<polygon fill="#FFFFFF" points="151.235,20.094 177.514,20.094 177.514,15.432 152.911,15.432 	"/>
	<path fill="#FFFFFF" d="M135.206,63.577h12.754l1.657-4.662h-16.068l1.657,4.604"/>
	<path fill="#FFFFFF" d="M132.259,54.849h18.765c0,0,1.561-4.527,1.618-4.527h-22.155l1.657,4.662"/>
	<path fill="#FFFFFF" d="M168.613,46.103v-4.604h-24.93l-1.561,4.604h12.002l1.194-3.487v3.545L168.613,46.103z"/>
	<polyline fill="#FFFFFF" points="15.451,76.234 15.451,80.896 47.027,80.896 46.97,76.234 15.451,76.234 	"/>
	<rect x="24.294" y="41.498" fill="#FFFFFF" width="13.563" height="4.604"/>
	<rect x="24.294" y="32.906" fill="#FFFFFF" width="13.563" height="4.604"/>
	<rect x="24.294" y="50.226" fill="#FFFFFF" width="13.563" height="4.604"/>
	<rect x="15.432" y="24.178" fill="#FFFFFF" width="31.519" height="4.604"/>
	<rect x="15.432" y="15.432" fill="#FFFFFF" width="31.519" height="4.662"/>
	<rect x="24.294" y="58.914" fill="#FFFFFF" width="13.563" height="4.604"/>
	<path fill="#FFFFFF" d="M46.97,67.488H15.412v4.604H46.97V67.488"/>
	<g>
		<defs>
			<rect id="SVGID_1_" x="235.85" y="0" width="150.176" height="133.492"/>
		</defs>
		<clipPath id="SVGID_2_">
			<use xlink:href="#SVGID_1_"  overflow="visible"/>
		</clipPath>
		<g clip-path="url(#SVGID_2_)">
			<polygon fill="#96CA4F" points="316.631,132.779 276.134,109.448 276.134,62.652 306.979,44.85 307.749,46.18 277.695,63.557 
				277.695,108.543 316.631,130.987 355.586,108.543 355.586,63.095 357.146,63.095 357.146,109.448 			"/>
			<polygon fill="#96CA4F" points="316.631,122.106 285.363,104.073 285.363,68.008 307.036,55.504 307.807,56.853 286.923,68.913 
				286.923,103.187 316.631,120.314 346.704,102.956 347.475,104.304 			"/>
			<polygon fill="#96CA4F" points="347.86,92.803 346.319,92.803 346.319,68.913 325.474,56.853 326.244,55.504 347.86,68.008 			
				"/>
			
				<rect x="375.459" y="97.56" transform="matrix(0.4998 -0.8661 0.8661 0.4998 83.8382 386.1169)" fill="#96CA4F" width="1.561" height="45.814"/>
			<polygon fill="#96CA4F" points="395.658,121.894 364.814,104.073 364.814,68.008 386.43,55.504 387.22,56.853 366.375,68.913 
				366.375,103.187 396.429,120.545 			"/>
			<rect x="315.86" y="-5.683" fill="#96CA4F" width="1.561" height="45.891"/>
			<polygon fill="#96CA4F" points="356.376,64 325.474,46.18 326.244,44.85 356.376,62.209 386.43,44.85 387.22,46.18 			"/>
			<rect x="325.088" y="-1.137" fill="#96CA4F" width="1.561" height="35.969"/>
			<polygon fill="#96CA4F" points="356.376,53.385 334.644,40.824 335.415,39.475 356.376,51.593 377.375,39.417 378.146,40.766 			
				"/>
			<polygon fill="#58B6E7" points="316.631,40.997 276.134,17.609 276.134,-5.683 277.695,-5.683 277.695,16.703 316.631,39.206 
				355.586,16.703 355.586,-5.683 357.146,-5.683 357.146,17.609 			"/>
			<polygon fill="#58B6E7" points="326.244,24.795 325.474,23.446 346.319,11.386 346.319,-5.683 347.86,-5.683 347.86,12.291 			
				"/>
			<polygon fill="#58B6E7" points="316.245,30.093 285.363,12.291 285.363,-5.683 286.923,-5.683 286.923,11.386 317.035,28.764 			
				"/>
			<polygon fill="#58B6E7" points="395.658,30.093 364.814,12.291 364.814,-5.683 366.375,-5.683 366.375,11.386 396.429,28.764 			
				"/>
			<path fill="#58B6E7" d="M276.905,109.891l-40.458-23.35V39.649l40.458-23.35l40.458,23.35v46.893L276.905,109.891z
				 M237.969,85.655l38.936,22.464l39.051-22.464V40.554L276.905,18.11l-38.936,22.444V85.655z"/>
			<polygon fill="#58B6E7" points="276.52,98.891 245.675,81.089 245.675,44.966 276.905,26.933 308.192,44.947 308.192,81.089 
				286.576,93.573 285.806,92.244 306.651,80.184 306.651,45.852 276.905,28.725 247.236,45.852 247.236,80.184 277.31,97.542 			
				"/>
			<path fill="#58B6E7" d="M356.414,109.891l-40.458-23.388V39.649l40.458-23.35l40.458,23.35v46.854L356.414,109.891z
				 M317.421,85.597l38.994,22.522l38.897-22.502V40.554L356.414,18.11l-38.994,22.444V85.597z"/>
			<polygon fill="#58B6E7" points="365.932,93.573 365.142,92.244 386.43,79.952 387.201,81.301 			"/>
			<polygon fill="#58B6E7" points="355.99,98.891 325.088,81.089 325.088,44.966 356.376,26.933 387.22,44.735 386.43,46.083 
				356.376,28.725 326.649,45.852 326.649,80.184 356.761,97.542 			"/>
			<rect x="315.86" y="-5.683" fill="#96CA4F" width="1.561" height="40.111"/>
			<rect x="325.088" y="-5.683" fill="#96CA4F" width="1.561" height="35.121"/>
			<rect x="364.814" y="68.47" fill="#96CA4F" width="1.561" height="27.723"/>
			<rect x="276.134" y="63.095" fill="#96CA4F" width="1.561" height="38.878"/>
			<rect x="285.363" y="68.47" fill="#96CA4F" width="1.561" height="27.723"/>
		</g>
	</g>
	<path fill="#00558B" d="M393.192,160.83h-3.333v-1.079h7.937v1.079h-3.333v9.113h-1.233L393.192,160.83z M399.569,159.712h2.1
		l3.333,8.303l3.217-8.303h2.139v10.249h-1.349v-9.132l0,0l-3.641,9.055h-0.79l-3.583-9.055l0,0v9.055h-1.349L399.569,159.712z"/>
	<path fill="#00558B" d="M393.192,160.83h-3.333v-1.079h7.937v1.079h-3.333v9.113h-1.233L393.192,160.83z M399.569,159.712h2.1
		l3.333,8.303l3.217-8.303h2.139v10.249h-1.349v-9.132l0,0l-3.641,9.055h-0.79l-3.583-9.055l0,0v9.055h-1.349L399.569,159.712z"/>
	<rect x="355.586" y="63.095" fill="#96CA4F" width="1.561" height="38.127"/>
	<path fill="#FFFFFF" d="M23.369,99.719c2.22-0.118,4.408,0.566,6.165,1.927c1.562,1.328,2.417,3.308,2.312,5.356h-2.948
		c-0.084-2.723-2.359-4.862-5.081-4.778c-0.002,0-0.003,0-0.005,0h-0.597c-1.362-0.091-2.715,0.267-3.853,1.021
		c-0.897,0.683-1.402,1.763-1.349,2.89c0.01,0.817,0.384,1.588,1.021,2.1c1.987,1.033,4.15,1.686,6.377,1.927
		c1.979,0.346,3.839,1.18,5.414,2.427c1.282,1.066,1.994,2.669,1.927,4.335c0.072,2.026-0.922,3.941-2.62,5.048
		c-1.874,1.231-4.077,1.869-6.319,1.83c-2.514,0.136-4.992-0.644-6.974-2.196c-1.701-1.474-2.631-3.647-2.524-5.895h2.89
		c-0.04,1.584,0.675,3.093,1.927,4.065c1.399,1.007,3.095,1.515,4.816,1.445c1.509,0.091,3.009-0.285,4.296-1.079
		c0.998-0.709,1.565-1.879,1.503-3.102c0.027-1.086-0.523-2.105-1.445-2.678c-1.547-0.854-3.239-1.416-4.99-1.657
		c-2.381-0.277-4.661-1.123-6.647-2.466c-1.077-0.985-1.662-2.395-1.599-3.853c-0.049-1.881,0.794-3.674,2.273-4.836
		C19.076,100.258,21.208,99.611,23.369,99.719z"/>
	<path fill="#FFFFFF" d="M38.223,100.258v3.333h-2.736v-3.333H38.223z M38.223,106.578V123.3h-2.736v-16.607L38.223,106.578z"/>
	<path fill="#FFFFFF" d="M44.561,100.258v23.119h-2.736v-23.119H44.561z"/>
	<path fill="#FFFFFF" d="M49.436,106.578l4.662,13.891l0,0l4.566-13.891h2.832L55.485,123.3h-2.948l-6.049-16.723H49.436z"/>
	<path fill="#FFFFFF" d="M69.587,106.192c2.082-0.044,4.065,0.89,5.356,2.524c1.359,1.942,2.036,4.279,1.927,6.647v0.328H64.655
		c-0.066,1.417,0.433,2.803,1.387,3.853c1.021,1.007,2.422,1.532,3.853,1.445c2.059,0.242,3.94-1.188,4.258-3.237h2.678
		c-0.242,1.665-1.102,3.178-2.408,4.238c-1.366,0.999-3.029,1.509-4.72,1.445c-2.284,0.145-4.498-0.815-5.953-2.582
		c-1.399-1.769-2.141-3.968-2.1-6.223c-0.089-2.261,0.698-4.47,2.196-6.165C65.325,106.889,67.43,106.056,69.587,106.192z
		 M74.192,113.263c-0.042-1.265-0.558-2.469-1.445-3.371c-0.889-0.896-2.11-1.384-3.371-1.349c-1.203-0.022-2.363,0.443-3.217,1.291
		c-0.897,0.925-1.431,2.143-1.503,3.429H74.192z"/>
	<path fill="#FFFFFF" d="M88.622,106.192v2.89c-1.683-0.16-3.351,0.424-4.566,1.599c-1.106,1.475-1.621,3.309-1.445,5.144v7.552
		h-2.736v-16.684h2.582v3.487l0,0c0.937-2.362,3.239-3.896,5.78-3.853L88.622,106.192z"/>
	<path fill="#FFFFFF" d="M25.411,130.274c2.082-0.268,4.18,0.355,5.78,1.715c0.971,1.052,1.525,2.422,1.561,3.853
		c0.131,2.27-1.238,4.359-3.371,5.144l0,0c1.29,0.22,2.456,0.906,3.275,1.927c0.774,1.086,1.148,2.407,1.06,3.738
		c0.061,1.776-0.64,3.494-1.927,4.72c-1.302,1.268-3.057,1.961-4.874,1.927H15.605v-23.022H25.411z M25.045,140.138
		c1.243,0.083,2.481-0.22,3.545-0.867c0.833-0.677,1.274-1.725,1.175-2.794c0.076-1.017-0.297-2.017-1.021-2.736
		c-1.083-0.738-2.399-1.053-3.699-0.886h-6.396v7.282L25.045,140.138z M26.548,150.869c1.104,0.046,2.183-0.341,3.005-1.079
		c0.8-0.79,1.227-1.882,1.175-3.005c0-2.569-1.785-3.853-5.356-3.853h-6.724v7.706L26.548,150.869z"/>
	<path fill="#FFFFFF" d="M39.244,136.613v11.309c-0.03,0.874,0.297,1.723,0.905,2.35c0.663,0.627,1.555,0.954,2.466,0.905
		c1.351,0.086,2.673-0.421,3.622-1.387c0.861-1.034,1.301-2.355,1.233-3.699v-9.479h2.736v16.626h-2.543v-2.736l0,0
		c-1.022,1.958-3.071,3.161-5.279,3.102c-2.947,0.25-5.539-1.936-5.79-4.884c-0.029-0.337-0.025-0.676,0.01-1.012v-11.097H39.244z"
		/>
	<path fill="#FFFFFF" d="M59.396,136.227c1.761-0.137,3.516,0.317,4.99,1.291c1.096,0.986,1.737,2.38,1.772,3.853h-2.736
		c0.02-0.774-0.296-1.519-0.867-2.042c-0.803-0.493-1.736-0.735-2.678-0.694c-0.938-0.007-1.861,0.232-2.678,0.694
		c-0.846,0.493-1.132,1.578-0.64,2.424c0.154,0.265,0.375,0.485,0.64,0.64c0.778,0.467,1.632,0.793,2.524,0.963l2.582,0.597
		c1.323,0.237,2.571,0.785,3.641,1.599c0.858,0.762,1.314,1.88,1.233,3.025c0.053,1.528-0.673,2.979-1.927,3.853
		c-1.585,1.038-3.467,1.525-5.356,1.387c-1.769,0.084-3.518-0.402-4.99-1.387c-1.255-1.045-1.964-2.606-1.927-4.238h2.736
		c0.013,0.911,0.447,1.764,1.175,2.312c0.969,0.636,2.118,0.94,3.275,0.867c2.684,0,4.027-0.822,4.027-2.466
		c0.017-0.705-0.353-1.362-0.963-1.715c-1.316-0.662-2.726-1.117-4.181-1.349c-1.579-0.216-3.085-0.804-4.393-1.715
		c-0.895-0.735-1.395-1.848-1.349-3.005c-0.04-1.345,0.578-2.625,1.657-3.429C56.241,136.731,57.798,136.216,59.396,136.227z"/>
	<path fill="#FFFFFF" d="M72.323,130.274v3.333h-2.736v-3.333H72.323z M72.323,136.593v16.626h-2.736v-16.607L72.323,136.593z"/>
	<path fill="#FFFFFF" d="M84.017,136.227c3.853,0,5.78,1.984,5.78,5.953v11.039h-2.774v-11.309c0.024-0.854-0.287-1.684-0.867-2.312
		c-0.677-0.642-1.593-0.97-2.524-0.905c-1.359-0.099-2.693,0.409-3.641,1.387c-0.882,1.026-1.343,2.347-1.291,3.699v9.498h-2.736
		v-16.626h2.678v2.736l0,0C79.685,137.395,81.77,136.169,84.017,136.227z"/>
	<path fill="#FFFFFF" d="M100.181,136.227c2.082-0.044,4.065,0.89,5.356,2.524c1.359,1.942,2.036,4.279,1.927,6.647v0.328H94.748
		c-0.066,1.417,0.433,2.803,1.387,3.853c1.021,1.007,2.422,1.532,3.853,1.445c2.086,0.263,3.997-1.194,4.296-3.275h2.678
		c-0.242,1.665-1.102,3.178-2.408,4.238c-1.366,0.999-3.029,1.509-4.72,1.445c-2.284,0.145-4.498-0.815-5.953-2.582
		c-1.282-1.778-1.926-3.937-1.83-6.126c-0.089-2.261,0.698-4.47,2.196-6.165C95.759,136.906,97.949,136.045,100.181,136.227z
		 M104.786,143.356c-0.042-1.265-0.558-2.469-1.445-3.371c-0.889-0.896-2.11-1.384-3.371-1.349
		c-1.203-0.022-2.363,0.443-3.217,1.291c-0.897,0.925-1.431,2.143-1.503,3.429H104.786z"/>
	<path fill="#FFFFFF" d="M115.863,136.227c1.761-0.137,3.516,0.317,4.99,1.291c1.096,0.986,1.737,2.38,1.772,3.853h-2.755
		c-0.055-0.826-0.489-1.58-1.175-2.042c-0.803-0.493-1.736-0.735-2.678-0.694c-0.892-0.038-1.779,0.147-2.582,0.539
		c-0.846,0.493-1.132,1.578-0.64,2.424c0.154,0.265,0.375,0.485,0.64,0.64c0.778,0.467,1.632,0.793,2.524,0.963l2.582,0.597
		c1.323,0.237,2.571,0.785,3.641,1.599c0.852,0.758,1.307,1.867,1.233,3.005c0.053,1.528-0.673,2.979-1.927,3.853
		c-1.585,1.038-3.467,1.525-5.356,1.387c-1.788,0.097-3.56-0.39-5.048-1.387c-1.255-1.045-1.964-2.606-1.927-4.238h2.736
		c-0.029,0.982,0.433,1.914,1.233,2.485c0.969,0.636,2.118,0.94,3.275,0.867c2.684,0,4.027-0.822,4.027-2.466
		c0.017-0.705-0.353-1.362-0.963-1.715c-1.316-0.662-2.726-1.117-4.181-1.349c-1.579-0.216-3.085-0.804-4.393-1.715
		c-0.895-0.735-1.395-1.848-1.349-3.005c-0.027-1.355,0.614-2.638,1.715-3.429C112.582,136.694,114.207,136.177,115.863,136.227z"/>
	<path fill="#FFFFFF" d="M131.989,136.227c1.761-0.137,3.516,0.317,4.99,1.291c1.096,0.986,1.737,2.38,1.772,3.853h-2.736
		c-0.068-0.801-0.492-1.53-1.156-1.984c-0.803-0.493-1.736-0.735-2.678-0.694c-0.892-0.038-1.779,0.147-2.582,0.539
		c-0.846,0.493-1.132,1.578-0.64,2.424c0.154,0.265,0.375,0.485,0.64,0.64c0.778,0.467,1.632,0.793,2.524,0.963l2.582,0.597
		c1.323,0.237,2.571,0.785,3.641,1.599c0.852,0.758,1.307,1.867,1.233,3.005c0.053,1.528-0.673,2.979-1.927,3.853
		c-1.585,1.038-3.467,1.525-5.356,1.387c-1.788,0.097-3.56-0.39-5.048-1.387c-1.255-1.045-1.964-2.606-1.927-4.238h2.736
		c-0.019,0.955,0.427,1.86,1.194,2.427c0.969,0.636,2.118,0.94,3.275,0.867c2.684,0,4.027-0.822,4.027-2.466
		c0.017-0.705-0.353-1.362-0.963-1.715c-1.316-0.662-2.726-1.117-4.181-1.349c-1.579-0.216-3.085-0.804-4.393-1.715
		c-0.895-0.735-1.395-1.848-1.349-3.005c-0.027-1.355,0.614-2.638,1.715-3.429C128.708,136.694,130.332,136.177,131.989,136.227z"/>
	<path fill="#FFFFFF" d="M160.463,130.274c1.821-0.082,3.604,0.531,4.99,1.715c1.349,1.336,2.052,3.192,1.927,5.086
		c0.128,1.855-0.513,3.68-1.772,5.048c-1.332,1.241-3.115,1.882-4.932,1.772h-7.398v9.382h-3.005v-23.003H160.463z M159.596,141.256
		c1.226,0.063,2.437-0.298,3.429-1.021c0.901-0.815,1.366-2.007,1.252-3.217c0-2.826-1.625-4.238-4.874-4.238h-6.126v8.419
		L159.596,141.256z"/>
	<path fill="#FFFFFF" d="M176.338,136.227c4.149,0,6.223,1.483,6.223,4.45v9.44c0,0.604,0.289,0.905,0.867,0.905
		c0.286,0.055,0.581,0.055,0.867,0v2.138c-0.596,0.301-1.259,0.447-1.927,0.424c-1.541,0-2.312-0.861-2.312-2.582
		c-1.432,1.697-3.56,2.647-5.78,2.582c-1.481,0.129-2.959-0.281-4.161-1.156c-1.001-0.872-1.536-2.163-1.445-3.487
		c-0.061-1.336,0.467-2.632,1.445-3.545c2.033-1.207,4.341-1.87,6.704-1.927c0.836-0.082,1.641-0.359,2.35-0.809
		c0.421-0.317,0.659-0.822,0.636-1.349c0-1.824-1.233-2.736-3.699-2.736c-1.075-0.083-2.149,0.18-3.063,0.751
		c-0.719,0.591-1.13,1.477-1.117,2.408h-2.678C169.608,138.064,171.971,136.227,176.338,136.227z M171.464,148.769
		c-0.037,0.717,0.289,1.404,0.867,1.83c0.694,0.46,1.519,0.683,2.35,0.636c1.301,0.061,2.584-0.319,3.641-1.079
		c0.883-0.583,1.423-1.562,1.445-2.62v-2.813c-0.578,0.382-1.238,0.62-1.927,0.694l-2.794,0.424
		c-0.963,0.074-1.888,0.407-2.678,0.963C171.788,147.29,171.456,148.012,171.464,148.769z"/>
	<path fill="#FFFFFF" d="M195.527,136.227v3.16c-1.683-0.16-3.351,0.424-4.566,1.599c-1.083,1.449-1.597,3.245-1.445,5.048v7.456
		h-2.639v-16.626h2.582v3.487l0,0c0.937-2.362,3.239-3.896,5.78-3.853L195.527,136.227z"/>
	<path fill="#FFFFFF" d="M203.137,131.623v4.99h3.333v2.331h-3.333v10.403c-0.046,0.381,0.05,0.765,0.27,1.079
		c0.456,0.202,0.947,0.313,1.445,0.328h1.561v2.408h-2.196c-1.032,0.103-2.07-0.141-2.948-0.694
		c-0.676-0.743-1.005-1.737-0.905-2.736v-10.789h-2.832v-2.331h2.832v-4.99H203.137z"/>
	<path fill="#FFFFFF" d="M217.143,136.227c3.853,0,5.78,1.984,5.78,5.953v11.039h-2.736v-11.309
		c0.024-0.854-0.287-1.684-0.867-2.312c-0.677-0.642-1.593-0.97-2.524-0.905c-1.34-0.082-2.648,0.425-3.583,1.387
		c-0.882,1.026-1.343,2.347-1.291,3.699v9.498h-2.736v-16.626h2.582v2.736l0,0C212.81,137.395,214.895,136.169,217.143,136.227z"/>
	<path fill="#FFFFFF" d="M233.114,136.227c2.082-0.044,4.065,0.89,5.356,2.524c1.359,1.942,2.036,4.279,1.927,6.647v0.328h-12.272
		c-0.066,1.417,0.433,2.803,1.387,3.853c1.021,1.007,2.422,1.532,3.853,1.445c2.086,0.263,3.997-1.194,4.296-3.275h2.678
		c-0.242,1.665-1.102,3.178-2.408,4.238c-1.366,0.999-3.029,1.509-4.72,1.445c-2.254,0.124-4.434-0.826-5.876-2.562
		c-1.312-1.761-1.99-3.913-1.927-6.107c-0.089-2.261,0.697-4.47,2.196-6.165C229.012,137.048,231.021,136.184,233.114,136.227z
		 M237.776,143.356c-0.042-1.265-0.558-2.469-1.445-3.371c-0.889-0.896-2.11-1.384-3.371-1.349
		c-1.203-0.022-2.363,0.443-3.217,1.291c-0.897,0.925-1.431,2.143-1.503,3.429H237.776z"/>
	<path fill="#FFFFFF" d="M252.149,136.227v3.16c-1.683-0.16-3.351,0.424-4.566,1.599c-1.083,1.449-1.597,3.245-1.445,5.048v7.456
		h-2.736v-16.626h2.582v3.487l0,0c0.937-2.362,3.239-3.896,5.78-3.853L252.149,136.227z"/>
</g>
</svg>
