<svg xmlns="http://www.w3.org/2000/svg" viewBox="0 0 633.5 215.97"><defs><style>.cls-1{fill:#080808;}.cls-2{fill:#777471;}.cls-3{fill:#e34c22;}.cls-4{fill:#6dbb29;}.cls-5{fill:#599dd5;}.cls-6{fill:#f3bf00;}.cls-7{fill:#7f6d1f;}</style></defs><title>microsoft-gold-partner</title><g id="Layer_2" data-name="Layer 2"><g id="Layer_1-2" data-name="Layer 1"><path class="cls-1" d="M63.55,118.42H56.3V76.62q0-4.95.61-12.07h-.17a38.88,38.88,0,0,1-1.87,6L33.62,118.42H30.06L8.81,70.93a35.85,35.85,0,0,1-1.87-6.38H6.77q.35,3.73.35,12.15v41.72h-7V56.17H9.75l19,43.41A55.15,55.15,0,0,1,31.62,107h.3q2.17-6,3-7.64L54.4,56.17h9.15v62.25"/><path class="cls-1" d="M83.8,118.42H76.69V74H83.8v44.45M85,58a4.4,4.4,0,0,1-1.39,3.32,4.82,4.82,0,0,1-6.59,0A4.43,4.43,0,0,1,75.68,58,4.49,4.49,0,0,1,77,54.77a4.42,4.42,0,0,1,3.3-1.34,4.54,4.54,0,0,1,3.34,1.35A4.44,4.44,0,0,1,85,58"/><path class="cls-1" d="M125.91,116.38a23.08,23.08,0,0,1-12.19,3.13,21.37,21.37,0,0,1-10.91-2.8,19.29,19.29,0,0,1-7.53-7.92,24.35,24.35,0,0,1-2.69-11.5q0-11,6.31-17.71t16.81-6.68A22.51,22.51,0,0,1,126,75.16v7.29A18.21,18.21,0,0,0,115.41,79a14.21,14.21,0,0,0-11.21,4.93q-4.32,4.93-4.32,12.74T104,109a14.12,14.12,0,0,0,11,4.51,18,18,0,0,0,10.93-3.82v6.77"/><path class="cls-1" d="M157.6,81.17a8.89,8.89,0,0,0-5.42-1.43q-4.73,0-7.68,4.45t-2.95,11.57v22.66h-7.11V74h7.11v9.16h.17a15.68,15.68,0,0,1,4.55-7.27,10.48,10.48,0,0,1,7.07-2.67,11.62,11.62,0,0,1,4.25.61v7.38"/><path class="cls-1" d="M195,96.28q0-8.38-3.71-12.85T180.72,79q-6.85,0-10.84,4.58t-4,12.91q0,8,4,12.48t10.82,4.49q6.94,0,10.63-4.43T195,96.31M202.3,96q0,10.59-6,17t-16.1,6.5q-9.85,0-15.72-6.27T158.6,96.71q0-11,6-17.43t16.61-6.4q9.89,0,15.49,6.19t5.6,17"/><path class="cls-1" d="M235.36,106.52a11.5,11.5,0,0,1-4.45,9.38q-4.45,3.6-11.82,3.6a21.89,21.89,0,0,1-11-2.69v-7.64a17.9,17.9,0,0,0,11.54,4.25q8.46,0,8.46-6.21a5.44,5.44,0,0,0-1.65-4.1q-1.65-1.58-7.5-4.28-5.9-2.52-8.33-5.4a12.39,12.39,0,0,1,2-16.86,17,17,0,0,1,11.23-3.69A21.3,21.3,0,0,1,233.3,75v7.16a16.61,16.61,0,0,0-10-3.16,8.73,8.73,0,0,0-5.66,1.74,5.49,5.49,0,0,0-2.15,4.47,6,6,0,0,0,1.65,4.54q1.65,1.59,6.81,3.75,6.33,2.69,8.89,5.64a10.93,10.93,0,0,1,2.56,7.42"/><path class="cls-1" d="M276.6,96.28q0-8.38-3.71-12.85T262.3,79q-6.85,0-10.84,4.58t-4,12.91q0,8,4,12.48a13.78,13.78,0,0,0,10.84,4.46q6.94,0,10.63-4.43t3.69-12.72m7.29-.26q0,10.59-6,17t-16.11,6.45q-9.85,0-15.72-6.27T240.2,96.68q0-11,6-17.43t16.61-6.4q9.89,0,15.49,6.19t5.6,17"/><path class="cls-1" d="M313,58.86a9.47,9.47,0,0,0-4.73-1.17q-7.46,0-7.46,9.42V74H311.3v6H300.84v38.42h-7.11V80h-7.55V74h7.55V66.76q0-6.77,4-10.94a13.44,13.44,0,0,1,10.15-4.17,13.93,13.93,0,0,1,5.16.78v6.42"/><path class="cls-1" d="M338.87,118a13.61,13.61,0,0,1-6.68,1.43q-11.63,0-11.62-13.11V80h-7.63V74h7.63V63.11l7.11-2.3V74h11.19v6H327.68v25.09q0,4.47,1.52,6.36t5.07,1.89a7.56,7.56,0,0,0,4.6-1.43V118"/><path class="cls-1" d="M396,75.14q0-12.37-14.58-12.37h-8.54V88.3h7.63q7.5,0,11.49-3.41t4-9.75m7.63-.39a18.6,18.6,0,0,1-6.22,14.56q-6.22,5.56-16.33,5.53h-8.2v23.57h-7.29V56.17h17.09q10,0,15.46,4.88t5.49,13.7"/><path class="cls-1" d="M433.62,95.93l-10.76,1.52q-5.51.78-7.72,2.63t-2.21,6a6.66,6.66,0,0,0,2.39,5.36,9.13,9.13,0,0,0,6.11,2,11.38,11.38,0,0,0,8.74-3.73,13.22,13.22,0,0,0,3.45-9.33V96m7.11,22.49h-7.11v-6.95h-.17q-4.64,8-13.66,8-6.42,0-10.28-3.49a12,12,0,0,1-3.86-9.4q0-12.41,14.66-14.5l13.32-1.87q0-11.29-9.15-11.29A22,22,0,0,0,410,84.37V77.08a21.72,21.72,0,0,1,6.68-2.84,30.73,30.73,0,0,1,8.42-1.37q15.66,0,15.66,16.63v28.91"/><path class="cls-1" d="M475.08,81.17a8.89,8.89,0,0,0-5.42-1.43q-4.73,0-7.68,4.45t-3,11.57v22.66h-7.11V74H459v9.16h.17a15.68,15.68,0,0,1,4.56-7.27,10.47,10.47,0,0,1,7.07-2.67,11.62,11.62,0,0,1,4.25.61v7.38"/><path class="cls-1" d="M508.23,118a13.62,13.62,0,0,1-6.68,1.43q-11.63,0-11.62-13.11V80H482.3V74h7.63V63.11l7.11-2.3V74h11.19v6H497v25.09q0,4.47,1.52,6.36t5.08,1.89a7.56,7.56,0,0,0,4.6-1.43V118"/><path class="cls-1" d="M555,118.42h-7.11V93.07Q547.93,79,537.61,79a11.29,11.29,0,0,0-8.79,4,14.68,14.68,0,0,0-3.52,10.11v25.35h-7.11V74h7.11v7.38h.17q5-8.47,14.58-8.46,7.33,0,11.17,4.78t3.84,13.54v27.22"/><path class="cls-1" d="M594.3,91.94q-.09-6.16-3-9.57A10.07,10.07,0,0,0,583.17,79a11.46,11.46,0,0,0-8.46,3.56,16.63,16.63,0,0,0-4.43,9.42h24m7.29,6H570.22q.17,7.51,4,11.48t10.52,4a21.76,21.76,0,0,0,13.75-4.86v6.64q-5.81,4.3-15.44,4.3t-14.84-6.14q-5.33-6.14-5.33-17a27,27,0,0,1,2.66-12,20.4,20.4,0,0,1,7.35-8.44,18.92,18.92,0,0,1,10.41-3q8.63,0,13.47,5.62t4.84,15.74V98"/><path class="cls-1" d="M632.93,81.17a8.89,8.89,0,0,0-5.42-1.43q-4.73,0-7.67,4.45t-3,11.57v22.66h-7.11V74h7.11v9.16H617a15.68,15.68,0,0,1,4.55-7.27,10.49,10.49,0,0,1,7.07-2.67,11.59,11.59,0,0,1,4.25.61v7.38"/><path class="cls-2" d="M485.69,195.29l-1.39,3.83h-.08a37,37,0,0,0-1.3-3.79l-7.33-18.4h-7.16v29.25h4.72v-18c0-1.11,0-2.45-.07-4,0-.78-.11-1.4-.13-1.87h.1c.24,1.1.49,1.94.67,2.5l8.79,21.34h3.3l8.72-21.53a18.82,18.82,0,0,0,.6-2.31h.1c-.11,2.13-.21,4.08-.22,5.25v18.59h5V176.93H493.2l-7.51,18.35"/><polyline class="cls-2" points="504.83 206.18 509.76 206.18 509.76 190.36 509.76 185.22 504.83 185.22 504.83 198.06 504.83 206.18"/><path class="cls-2" d="M507.3,176.31a3,3,0,0,0-2.1.82,2.72,2.72,0,0,0-.88,2.06,2.65,2.65,0,0,0,.87,2,3.18,3.18,0,0,0,4.23,0,2.62,2.62,0,0,0,.88-2,2.77,2.77,0,0,0-.86-2,2.93,2.93,0,0,0-2.14-.85"/><path class="cls-2" d="M527.2,185a13.65,13.65,0,0,0-2.75-.3,12.15,12.15,0,0,0-6,1.44,9.71,9.71,0,0,0-4,4.07,13,13,0,0,0-1.36,6,11.12,11.12,0,0,0,1.32,5.4,9.26,9.26,0,0,0,3.69,3.73,11,11,0,0,0,5.39,1.31,11.78,11.78,0,0,0,5.94-1.39h.06v-4.52l-.21.15a9.26,9.26,0,0,1-2.41,1.26,7.28,7.28,0,0,1-2.36.46,6.06,6.06,0,0,1-4.61-1.8,7,7,0,0,1-1.7-5,7.26,7.26,0,0,1,1.77-5.12,6,6,0,0,1,4.62-1.91,7.91,7.91,0,0,1,4.69,1.63l.21.15V185.8h-.07a8.14,8.14,0,0,0-2.28-.77"/><path class="cls-2" d="M543.43,184.85a5,5,0,0,0-3.29,1.18,6.69,6.69,0,0,0-1.9,2.81h0v-3.63H533.3v21h4.93V195.46a7.47,7.47,0,0,1,1.23-4.45,3.77,3.77,0,0,1,3.19-1.68,5.8,5.8,0,0,1,1.48.22,3.77,3.77,0,0,1,1.15.46l.21.15v-5h-.08a5.09,5.09,0,0,0-1.93-.29"/><path class="cls-2" d="M560.73,200.85a5,5,0,0,1-4.14,1.75,5.28,5.28,0,0,1-4.24-1.78,7.58,7.58,0,0,1-1.53-5,7.88,7.88,0,0,1,1.53-5.17,5.2,5.2,0,0,1,4.2-1.81,5.13,5.13,0,0,1,4.09,1.73,7.73,7.73,0,0,1,1.49,5.13,8.24,8.24,0,0,1-1.41,5.19m-3.92-16.14a10.94,10.94,0,0,0-8.15,3,11.29,11.29,0,0,0-2.94,8.22,10.7,10.7,0,0,0,2.87,7.84,10.43,10.43,0,0,0,7.72,2.9,10.64,10.64,0,0,0,8-3.05,11.26,11.26,0,0,0,2.94-8.14,11,11,0,0,0-2.76-7.9,10.17,10.17,0,0,0-7.67-2.88"/><path class="cls-2" d="M578.17,193.88a10.69,10.69,0,0,1-3-1.54,2.15,2.15,0,0,1-.6-1.61,1.8,1.8,0,0,1,.76-1.49,3.38,3.38,0,0,1,2.12-.6A8.7,8.7,0,0,1,580,189a8.12,8.12,0,0,1,2.2,1l.21.14v-4.56h-.08a10.94,10.94,0,0,0-2.24-.62,13.73,13.73,0,0,0-2.46-.25,9,9,0,0,0-5.78,1.79,5.7,5.7,0,0,0-2.25,4.65,6.47,6.47,0,0,0,.49,2.6,5.18,5.18,0,0,0,1.49,1.95,12.92,12.92,0,0,0,3,1.7,22.57,22.57,0,0,1,2.52,1.18,3.5,3.5,0,0,1,1.11.91,2,2,0,0,1,.31,1.19c0,1.41-1,2.09-3.22,2.09a8.84,8.84,0,0,1-2.73-.5,10.25,10.25,0,0,1-2.79-1.42l-.21-.15v4.81h.07a12.42,12.42,0,0,0,2.65.82,14.16,14.16,0,0,0,2.82.33,9.57,9.57,0,0,0,6.1-1.8,5.82,5.82,0,0,0,2.27-4.76,5.48,5.48,0,0,0-1.22-3.6,10.49,10.49,0,0,0-4.15-2.65"/><path class="cls-2" d="M600.71,200.85a5,5,0,0,1-4.14,1.75,5.29,5.29,0,0,1-4.24-1.78,7.58,7.58,0,0,1-1.53-5,7.88,7.88,0,0,1,1.53-5.17,5.2,5.2,0,0,1,4.2-1.81,5.12,5.12,0,0,1,4.09,1.73,7.71,7.71,0,0,1,1.49,5.13,8.24,8.24,0,0,1-1.41,5.19m-3.92-16.14a10.94,10.94,0,0,0-8.15,3,11.31,11.31,0,0,0-2.94,8.22,10.69,10.69,0,0,0,2.88,7.84,10.42,10.42,0,0,0,7.72,2.9,10.64,10.64,0,0,0,8-3.05,11.26,11.26,0,0,0,2.94-8.14,11,11,0,0,0-2.76-7.9,10.17,10.17,0,0,0-7.67-2.88"/><path class="cls-2" d="M633.49,189.24v-4h-5V179h-.19l-4.69,1.44h-.09v4.74h-7.39v-2.64a4.18,4.18,0,0,1,.82-2.8,2.87,2.87,0,0,1,2.28-.94,5.31,5.31,0,0,1,2.17.49l.18.08v-4.24h-.09a8.44,8.44,0,0,0-2.77-.37,8.13,8.13,0,0,0-3.93.94,6.71,6.71,0,0,0-2.7,2.67,8,8,0,0,0-1,3.91v2.9H607.7v4h3.47v16.94h5V189.24h7.39V200c0,4.43,2.09,6.68,6.21,6.68a10.14,10.14,0,0,0,2.12-.24,5.79,5.79,0,0,0,1.54-.49h.07v-4.06l-.2.13a3.43,3.43,0,0,1-1,.44,3.81,3.81,0,0,1-1,.17,2.68,2.68,0,0,1-2.13-.77,4.17,4.17,0,0,1-.68-2.69v-9.9h5"/><polyline class="cls-3" points="428.24 190.35 405.06 190.35 405.06 167.16 428.24 167.16 428.24 190.35"/><polyline class="cls-4" points="453.83 190.35 430.65 190.35 430.65 167.16 453.83 167.16 453.83 190.35"/><polyline class="cls-5" points="428.24 215.97 405.06 215.97 405.06 192.78 428.24 192.78 428.24 215.97"/><polyline class="cls-6" points="453.83 215.97 430.65 215.97 430.65 192.78 453.83 192.78 453.83 215.97"/><path class="cls-7" d="M25.3,30.78a20.65,20.65,0,0,1-10.41,2.67,15.25,15.25,0,0,1-7.78-2,13.28,13.28,0,0,1-5.26-5.58A17.61,17.61,0,0,1,0,17.73,16.28,16.28,0,0,1,4.54,5.9a15.47,15.47,0,0,1,11.6-4.67,19.68,19.68,0,0,1,8.52,1.65v4a16.25,16.25,0,0,0-8.94-2.41A11.64,11.64,0,0,0,9.59,6.11a11.24,11.24,0,0,0-4.25,4.63A14.44,14.44,0,0,0,3.81,17.4q0,5.88,3.09,9.28a10.82,10.82,0,0,0,8.43,3.4,12.91,12.91,0,0,0,6.31-1.48V20H14.89V16.7H25.3V30.78"/><path class="cls-7" d="M49.73,21.84q0-4.19-1.85-6.42a6.5,6.5,0,0,0-5.3-2.24,6.82,6.82,0,0,0-5.42,2.29,9.52,9.52,0,0,0-2,6.46,9,9,0,0,0,2,6.24,6.89,6.89,0,0,0,5.41,2.25,6.52,6.52,0,0,0,5.31-2.21,9.69,9.69,0,0,0,1.84-6.36m3.64-.13a12,12,0,0,1-3,8.52,10.49,10.49,0,0,1-8.06,3.21,10.26,10.26,0,0,1-7.86-3.14A11.59,11.59,0,0,1,31.5,22q0-5.51,3-8.71a10.86,10.86,0,0,1,8.31-3.2,9.91,9.91,0,0,1,7.74,3.09q2.8,3.09,2.8,8.48"/><polyline class="cls-7" points="63.55 32.91 59.99 32.91 59.99 0 63.55 0 63.55 32.91"/><path class="cls-7" d="M87.08,22.86V19.58A6.19,6.19,0,0,0,85.25,15a6.08,6.08,0,0,0-4.46-1.82,6.17,6.17,0,0,0-5.1,2.38,10.33,10.33,0,0,0-1.89,6.59,9.42,9.42,0,0,0,1.78,6,5.81,5.81,0,0,0,4.79,2.22,6.15,6.15,0,0,0,4.81-2.13,7.87,7.87,0,0,0,1.89-5.43m3.56,10H87.07V29.13H87a8.92,8.92,0,0,1-14.34,1.29,12.32,12.32,0,0,1-2.49-8.09,13.45,13.45,0,0,1,2.77-8.86,9.12,9.12,0,0,1,7.38-3.33A7.15,7.15,0,0,1,87,13.74H87V0h3.56V32.9"/></g></g></svg>