<?xml version="1.0" encoding="utf-8"?>
<!-- Generator: Adobe Illustrator 22.0.1, SVG Export Plug-In . SVG Version: 6.00 Build 0)  -->
<svg version="1.1" id="design" xmlns="http://www.w3.org/2000/svg" xmlns:xlink="http://www.w3.org/1999/xlink" x="0px" y="0px"
	 viewBox="0 0 1103.226 170" enable-background="new 0 0 1103.226 170" xml:space="preserve">
<g>
	<g id="XMLID_29_">
		<rect id="XMLID_22_" y="0.303" fill="#EC2325" width="743.92" height="167.549"/>
		<path fill="#FFFFFF" d="M633.803,111.225c-12.381,0-22.813-8.36-26.036-19.719h68.812l9.438-14.752h-78.315
			c3.252-11.397,13.674-19.663,26.102-19.663h47.302l9.428-14.846h-57.855c-23.074,0-41.782,18.736-41.782,41.81
			c0,23.15,18.707,41.904,41.782,41.904h49.674l9.447-14.733H633.803z M436.937,125.958c-23.112,0-41.791-18.754-41.791-41.904
			c0-23.074,18.679-41.81,41.791-41.81h57.809l-9.494,14.846h-47.218c-14.977,0-27.095,12.09-27.095,26.964
			c0,15.015,12.118,27.171,27.095,27.171h58.081l-9.504,14.733H436.937z M131.296,111.225c14.949,0,27.133-12.156,27.133-27.171
			c0-14.874-12.184-26.964-27.133-26.964H84.847c-14.93,0-27.095,12.09-27.095,26.964c0,15.015,12.165,27.171,27.095,27.171H131.296
			z M83.769,125.958c-23.112,0-41.866-18.754-41.866-41.904c0-23.074,18.754-41.81,41.866-41.81h48.68
			c23.112,0,41.782,18.736,41.782,41.81c0,23.15-18.67,41.932-41.782,41.932L83.769,125.958z M253.249,98.891
			c15.699,0,28.295-12.737,28.295-28.323c0-15.605-12.596-28.324-28.295-28.324h-70.405v83.714h16.064V57.09h53.263
			c7.414,0,13.524,5.989,13.524,13.477s-6.111,13.486-13.524,13.486h-45.353l48.024,41.904h23.431L245.92,98.891H253.249z
			 M519.489,111.225V42.244h-16.055v75.738c0,2.053,0.769,4.04,2.315,5.558c1.621,1.547,3.693,2.418,5.914,2.418h73.339
			l9.541-14.733H519.489z M322.454,96.407h43.01l-22.709-36.515l-41.679,66.066l-18.96,0.028l50.676-79.411
			c2.24-3.159,5.867-5.192,9.963-5.192c3.946,0,7.62,1.95,9.71,5.099l50.957,79.505l-19.082-0.028l-8.866-14.78h-43.534
			L322.454,96.407"/>
		<path fill="#FFFFFF" d="M706.405,50.407c0.647,0,1.321-0.075,1.724-0.703c0.169-0.244,0.244-0.515,0.244-0.909
			c0-0.553-0.3-1.069-0.75-1.228c-0.459-0.235-0.956-0.235-1.968-0.235h-0.637v3.074H706.405z M705.655,45.655
			c1.509,0,2.071,0,2.718,0.244c1.912,0.656,2.118,2.343,2.118,2.943c0,0.112-0.047,0.487-0.112,0.862
			c-0.094,0.44-0.384,1.265-1.284,1.828c-0.122,0.056-0.206,0.141-0.487,0.263l2.446,4.34h-2.399l-2.09-4.049h-1.547v4.049h-1.968
			V45.655H705.655z M706.564,60.604c5.164,0,9.41-4.227,9.41-9.372c0-5.23-4.246-9.41-9.41-9.41c-5.286,0-9.429,4.18-9.429,9.41
			C697.136,56.378,701.278,60.604,706.564,60.604 M699.151,51.129c0-4.011,3.29-7.366,7.413-7.366c4.077,0,7.404,3.355,7.404,7.366
			c0,4.199-3.328,7.489-7.404,7.489C702.44,58.617,699.151,55.328,699.151,51.129"/>
		<path fill="#050303" d="M800.141,133.936h5.408c4.339,0,12.418,0,12.418-9.559c0-8.51-7.207-8.51-11.022-8.51h-6.804V133.936z
			 M786.861,105.697h19.363c9.054,0,16.617,0.6,21.838,6.861c3.299,3.992,3.814,8.519,3.814,11.734
			c0,7.292-3.037,13.468-7.995,16.692c-4.602,2.952-10.947,2.952-14.246,2.952h-9.129v24.424h-13.646V105.697"/>
		<path fill="#050303" d="M850.486,154.795c0,2.952,2.006,6.261,6.251,6.261c2.372,0,4.283-1.134,5.483-2.522
			c2.268-2.784,2.437-6.176,2.437-10.872C856.4,146.979,850.486,149.575,850.486,154.795 M866.307,168.347
			c-0.422-2.69-0.422-4.686-0.422-5.998c-4.864,7.048-10.713,7.048-13.112,7.048c-6.373,0-9.222-1.828-10.965-3.477
			c-2.615-2.615-3.833-6.176-3.833-9.653c0-3.477,1.218-9.907,9.307-13.637c5.389-2.437,13.121-2.437,17.376-2.437
			c0-2.877-0.085-4.265-0.6-5.821c-1.125-3.214-4.536-3.655-5.736-3.655c-1.837,0-3.739,0.787-4.873,2.437
			c-0.956,1.471-0.956,2.868-0.956,3.908h-12.587c0.065-2.343,0.347-7.039,4.939-10.338c3.993-2.877,9.129-3.562,13.299-3.562
			c3.664,0,11.303,0.609,15.642,5.642c2.961,3.562,3.046,8.782,3.046,10.788l0.094,17.63c0,3.739,0.253,7.479,1.031,11.124H866.307"
			/>
		<path id="XMLID_6_" fill="#050303" d="M890.066,135.246c0-2.09-0.347-8.435-0.609-10.956h12.081l0.253,8.426
			c1.659-3.73,4.508-9.035,14.958-8.519v11.566c-13.037-1.218-13.834,5.473-13.834,10.956v21.64h-12.849V135.246"/>
		<path id="XMLID_5_" fill="#050303" d="M956.643,167.747c-4.18,1.125-7.901,1.387-9.991,1.387
			c-12.953,0-12.953-8.163-12.953-11.828v-24.068h-8.426v-8.51h8.426v-8.604l12.775-4.695v13.299h10.422v8.51h-10.422v19.822
			c0.094,4.002,0.094,6.514,5.83,6.514c1.903,0,2.784-0.085,4.339-0.263V167.747"/>
		<path id="XMLID_4_" fill="#050303" d="M968.304,132.285c0-0.178,0-4.948-0.272-7.994h12.334l0.365,6.608
			c1.219-2.006,4.695-7.648,14.255-7.648c8.594,0,12.25,5.211,13.374,8.257c0.956,2.69,1.218,4.948,1.218,13.112v23.74h-13.131
			v-27.293c0-1.837,0-3.393-0.675-4.789c-0.966-1.903-2.952-3.73-6.261-3.73c-2.774,0-5.314,1.303-6.692,3.393
			c-0.796,1.125-1.574,3.29-1.574,6.692v25.728h-12.943V132.285"/>
		<path fill="#050303" d="M1051.399,141.583c0-2.006-0.169-9.822-7.648-9.822c-5.651,0-7.994,4.686-8.247,9.822H1051.399z
			 M1035.063,149.662c0,2.877,0,11.734,8.941,11.734c3.224,0,6.439-1.218,7.657-6.083h11.725c-0.178,2.09-0.6,5.821-4.171,9.56
			c-3.215,3.393-8.951,5.127-15.371,5.127c-3.74,0-10.872-0.694-15.483-5.473c-3.993-4.171-5.642-10.085-5.642-17.124
			c0-7.123,1.734-15.642,9.129-20.769c3.393-2.259,7.554-3.655,12.344-3.655c6.251,0,13.721,2.437,17.713,10.61
			c2.962,5.989,2.784,12.428,2.615,16.073H1035.063"/>
		<path id="XMLID_1_" fill="#050303" d="M1076.534,135.246c0-2.09-0.338-8.435-0.6-10.956h12.072l0.253,8.426
			c1.659-3.73,4.527-9.035,14.968-8.519v11.566c-13.046-1.218-13.834,5.473-13.834,10.956v21.64h-12.858V135.246"/>
	</g>
	<g>
		<path d="M800.382,45.754c1.361,6,5.668,8.631,12.584,8.631c6.897,0,9.847-2.724,9.847-7.099c0-4.863-2.882-6.974-13.1-9.351
			c-16.262-3.818-20.284-9.733-20.284-17.801c0-10.416,7.792-17.488,21.937-17.488c15.866,0,22.188,8.529,23.044,17.271h-13.019
			c-0.624-3.678-2.657-7.672-10.36-7.672c-5.245,0-8.41,2.166-8.41,6.409c0,4.157,2.538,5.841,12.193,8.08
			c17.38,4.094,21.191,10.561,21.191,18.986c0,10.912-8.256,18.397-24.053,18.397c-15.168,0-23.157-7.468-24.589-18.363H800.382z"/>
		<path d="M848.563,0h12.421v11.077h-12.421V0z M848.563,18.406h12.421V63.27h-12.421V18.406z"/>
		<path d="M875.617,63.27V0h12.421v63.27H875.617z"/>
		<path d="M911.265,18.406c4.274,15.194,7.831,28.486,8.716,33.882h0.086c1.258-7.404,5.654-20.93,9.561-33.882h12.377
			L926.157,63.27h-13.061l-15.199-44.864H911.265z"/>
		<path d="M960.705,43.494c0.01,5.611,2.821,11.096,9.006,11.096c5.172,0,6.648-2.077,7.828-4.791h12.432
			c-1.591,5.492-6.491,14.51-20.586,14.51c-14.776,0-21.187-11.05-21.187-22.82c0-14.075,7.221-24.124,21.631-24.124
			c15.408,0,20.648,11.146,20.648,22.346c0,1.519,0,2.503-0.164,3.782H960.705z M978.033,35.865
			c-0.086-5.223-2.172-9.619-8.225-9.619c-5.952,0-8.346,4.105-8.842,9.619H978.033z"/>
		<path d="M1002.644,30.575c0-4.457-0.01-8.417-0.086-12.169h12.181c0.164,1.005,0.327,5.457,0.327,7.876
			c1.98-5.128,6.764-8.875,14.394-8.916v11.853c-9.013-0.233-14.394,2.192-14.394,14.491v19.56h-12.421V30.575z"/>
	</g>
</g>
</svg>
