<svg xmlns="http://www.w3.org/2000/svg" viewBox="0 0 821.67 580"><defs><style>.cls-1{fill:none;}.cls-2{fill:#293f41;}.cls-3{fill:#fff;}.cls-4{fill:#82b6a1;}.cls-5{fill:#f3a371;}</style></defs><title>servicenow-premier-partner-horizontal-placement</title><g id="Layer_2" data-name="Layer 2"><g id="Layer_1-2" data-name="Layer 1"><g id="Layer_2-2" data-name="Layer 2"><g id="Layer_2-2-2" data-name="Layer 2-2"><rect class="cls-1" width="821.67" height="580"/></g></g><path class="cls-2" d="M143.37,580H678.3a22.53,22.53,0,0,0,22.53-22.53V22.53A22.54,22.54,0,0,0,678.3,0H143.37a22.53,22.53,0,0,0-22.53,22.53V557.47A22.53,22.53,0,0,0,143.37,580Z"/><path class="cls-3" d="M256,88.26a11.55,11.55,0,0,0-7.14,2.53V88.41h-6.55v25.44h6.84V97.63a7.84,7.84,0,0,1,6.1-3.12A7.2,7.2,0,0,1,258,95V88.41a7.75,7.75,0,0,0-1.93-.15m-59.22,17.86a10.34,10.34,0,0,0,7,2.53c1.79,0,3.27-.89,3.27-2.08,0-3.87-12.2-2.53-12.2-10.71,0-4.91,4.76-7.89,9.67-7.89a16,16,0,0,1,8.63,2.53l-3.12,4.91a8.92,8.92,0,0,0-4.91-1.79c-1.93,0-3.42.74-3.42,2.08,0,3.27,12.2,1.93,12.2,10.86,0,4.91-4.76,7.89-10.12,7.89A16.93,16.93,0,0,1,193.69,111Zm42.7-5.21c0-7.14-4.91-12.94-11.9-12.94-7.59,0-12.35,6.25-12.35,13.24,0,8,5.66,13.24,13.24,13.24a13.87,13.87,0,0,0,10.41-4.61L235.05,106a9,9,0,0,1-6.4,3,6.69,6.69,0,0,1-6.84-6.1h17.56c0-.6.15-1.19.15-1.94m-17.41-3a5.46,5.46,0,0,1,5.36-4.46,5.15,5.15,0,0,1,5.06,4.46Zm52.08,6.1,7-15.62h7l-11.61,25.44h-4.76L260.2,88.4h7.14ZM294,76.5a4.45,4.45,0,0,1,4.46,4.32A4.47,4.47,0,1,1,294,76.5m-3.42,11.9h6.84v25.44h-6.84Zm34.82,20.24a13.84,13.84,0,0,1-25-7.59c0-7.44,6-13.24,13.69-13.24a14,14,0,0,1,10.71,5.06L320,97.18a7.26,7.26,0,0,0-5.8-3,6.86,6.86,0,0,0-6.84,7,6.72,6.72,0,0,0,7,7,7.34,7.34,0,0,0,6.1-3.42Zm24.7,1.19a13.63,13.63,0,0,1-10.41,4.61c-7.59,0-13.24-5.21-13.24-13.24,0-7.14,4.76-13.24,12.35-13.24,7,0,11.9,6,11.9,12.94a7.89,7.89,0,0,1-.15,1.93H333a6.69,6.69,0,0,0,6.84,6.1,9,9,0,0,0,6.4-3Zm-6.4-11.9a5,5,0,0,0-5.06-4.46,5.34,5.34,0,0,0-5.36,4.46Zm9.67,15.92V88.41h6.55v2.08A10.73,10.73,0,0,1,367,88a11.32,11.32,0,0,1,8.78,4.17c1.64,1.93,2.68,4.61,2.68,8.93V114h-6.84V100.46c0-2.53-.59-3.87-1.49-4.76a5.39,5.39,0,0,0-3.87-1.49,7.84,7.84,0,0,0-6.1,3.12v16.52Z"/><path class="cls-4" d="M395.91,88A14.89,14.89,0,0,0,381,102.69a15.53,15.53,0,0,0,4.61,11,2.94,2.94,0,0,0,3.87.15,10,10,0,0,1,6.4-2.08,10.3,10.3,0,0,1,6.4,2.08,3,3,0,0,0,3.87-.3A14.84,14.84,0,0,0,395.91,88m-.15,22.32a7.28,7.28,0,0,1-7.44-7.44,7.19,7.19,0,0,1,7.44-7.44,7.44,7.44,0,0,1,0,14.88"/><path class="cls-3" d="M424,113.85H419L408.85,88.41h6.84L421.2,103l5.5-14.58h5.66L437.71,103l5.5-14.58h6.84l-10.12,25.44h-5.06l-5.36-14.43Z"/><path class="cls-3" d="M446.35,110.72v.45h-.89v2.68h-.59v-2.68H444v-.45Zm2.08,1.93,1.19-1.93h.45v3.12h-.59v-1.79l-.89,1.34h-.45l-.74-1.34v1.79h-.59v-3.12h.45Z"/><path class="cls-3" d="M216.33,151h-23v58.5h12V190h11a19.5,19.5,0,0,0,0-39Zm0,28h-11V162h11a8.5,8.5,0,1,1,0,17Z"/><path class="cls-5" d="M205.89,434.41H192.83v34.83h7.23V457.9h5.83a11.74,11.74,0,1,0,0-23.49Zm-1,16.86h-4.83V441h4.83a5.12,5.12,0,1,1,0,10.24Z"/><path class="cls-3" d="M273.83,168v4.45a19.63,19.63,0,0,0-13.5-5.45c-11.32,0-20.5,9.85-20.5,22s9.18,22,20.5,22a19.63,19.63,0,0,0,13.5-5.45v4h10.5V168Zm-11.5,32a11.67,11.67,0,1,1,11.5-11.67A11.59,11.59,0,0,1,262.33,200Z"/><path class="cls-3" d="M306.83,175s-.21.81-.5,2v-9h-10.5v41.5h10.5V190.24c1-13.51,13.5-11.24,13.5-11.24V167C308.83,167,306.83,175,306.83,175Z"/><path class="cls-3" d="M474.67,175s-.21.81-.5,2v-9h-10.5v41.5h10.5V190.24c1-13.51,13.5-11.24,13.5-11.24V167C476.67,167,474.67,175,474.67,175Z"/><path class="cls-3" d="M352.89,178.28V168h-9.55V156l-10.5,4v8h-7.41v10.31h7.41v18.8c0,6,1.24,12.94,14.69,12.94a24.35,24.35,0,0,0,5.36-.51v-9.79a24.45,24.45,0,0,1-3.79.3c-2.08,0-5.77,0-5.77-6.51V178.28Z"/><path class="cls-3" d="M386.6,166.66c-10.15,0-12.73,5.65-12.73,5.65V168h-10.5v41.5h10.5V185.59a9.06,9.06,0,0,1,9.26-8.87c5.43,0,8.3,4.15,8.3,7.08v25.7h10.85V185.33C402.27,174.29,396.75,166.66,386.6,166.66Z"/><path class="cls-3" d="M454.5,188.52c0-2.08-1.49-21.79-20.94-21.79S411.2,182,411.2,189.8c0,10.85,7.92,21.13,22.28,21.13,11.54,0,17.07-6.48,18.79-9l-8.77-5.19s-2.2,4.18-9.41,4.18-10.52-3.67-11.5-7.66h31.32A25.59,25.59,0,0,0,454.5,188.52Zm-32-3.77c.13-1,1.85-8.33,10.63-8.33s10.28,8.33,10.28,8.33Z"/><path class="cls-5" d="M229.87,448.16v-4h-7.45v25.06h7.45V456.8c2.13-6.08,7.53-4.53,7.53-4.53v-8.45C232.78,443,229.87,448.16,229.87,448.16Z"/><path class="cls-5" d="M368.45,448.16v-4H361v25.06h7.45V456.8c2.13-6.08,7.53-4.53,7.53-4.53v-8.45C371.36,443,368.45,448.16,368.45,448.16Z"/><path class="cls-5" d="M266.53,456.72c0-7.16-5.17-13.19-12.77-13.19s-13.31,4.47-13.31,13.72,7.85,12.67,14.27,12.67,10.43-5.11,10.43-5.11l-5.94-3.57a7.06,7.06,0,0,1-4.82,1.92c-3,0-5.41-1.67-6-3.52l17.74,0A27.48,27.48,0,0,0,266.53,456.72Zm-18.27-2.66c0-.85,1.36-3.79,5.49-3.79a5.29,5.29,0,0,1,5.13,3.79Z"/><path class="cls-5" d="M355.35,456.72c0-7.16-5.17-13.19-12.77-13.19s-13.31,4.47-13.31,13.72,7.85,12.67,14.27,12.67S354,464.81,354,464.81L348,461.24a7.06,7.06,0,0,1-4.82,1.92c-3,0-5.41-1.67-6-3.52l17.74,0A27.7,27.7,0,0,0,355.35,456.72Zm-18.27-2.66c0-.85,1.36-3.79,5.49-3.79a5.29,5.29,0,0,1,5.13,3.79Z"/><path class="cls-5" d="M300.27,443.52c-4.37,0-7.15,1.95-7.66,3.1-.51-1.15-2.2-3.1-6.19-3.1-5.78,0-7,3.38-7,3.38v-2.72h-7.45v25.06h7.45V454.47c.86-3.51,2.87-4.05,4.12-4.05a3.51,3.51,0,0,1,3.48,3.73v15.1h7.47V454.72c0-3.67,2.62-4.21,4-4.21a3.48,3.48,0,0,1,3.54,3.35v15.38h7.53v-15.8C309.53,446.65,304.64,443.52,300.27,443.52Z"/><rect class="cls-5" x="315.95" y="444.18" width="7.45" height="25.06"/><path class="cls-5" d="M319.67,442.15a4.49,4.49,0,1,0-4.49-4.49A4.49,4.49,0,0,0,319.67,442.15Z"/></g></g></svg>