<svg xmlns="http://www.w3.org/2000/svg" width="99" height="69" viewBox="0 0 99 69">
    <path fill="#039BE5" fill-rule="nonzero" d="M41.174 7.523a17.365 17.365 0 0 1 12.533-5.37 17.53 17.53 0 0 1 15.264 9.017A21.173 21.173 0 0 1 77.6 9.343c8.163.044 15.599 4.687 19.197 11.988a21.376 21.376 0 0 1-2.214 22.466 21.557 21.557 0 0 1-21.172 8.038c-4.033 7.2-13.009 10.007-20.448 6.395-2.865 6.677-9.524 10.941-16.81 10.765-7.286-.177-13.728-4.759-16.264-11.567a16.476 16.476 0 0 1-3.397.322C8.989 57.646 2.474 52.576.557 45.348c-1.918-7.227 1.231-14.843 7.702-18.627-3.838-8.878-.432-19.214 7.94-24.097 8.373-4.883 19.085-2.782 24.975 4.899zM14.327 35.778c-.059.164 0 .197.04.223.183.125.372.239.567.342a6.047 6.047 0 0 0 2.962.657c2.032 0 3.298-1.077 3.298-2.806v-.033c0-1.604-1.425-2.182-2.757-2.629l-.172-.052c-1.009-.33-1.873-.605-1.873-1.269v-.033c0-.565.508-.98 1.32-.98a5.861 5.861 0 0 1 2.578.658s.198.125.27-.066l.416-1.104a.19.19 0 0 0-.098-.23 5.775 5.775 0 0 0-2.91-.775h-.204c-1.86 0-3.153 1.117-3.153 2.72v.034c0 1.689 1.431 2.234 2.77 2.629l.218.065c.976.296 1.82.559 1.82 1.242v.033c0 .658-.547 1.091-1.43 1.091a4.802 4.802 0 0 1-2.64-.749l-.336-.21a.165.165 0 0 0-.27.092l-.416 1.15zm29.717 0c-.06.164 0 .197.04.223.182.125.371.239.567.342a6.047 6.047 0 0 0 2.961.657c2.032 0 3.298-1.077 3.298-2.806v-.033c0-1.604-1.424-2.182-2.757-2.629l-.171-.052c-1.01-.33-1.874-.605-1.874-1.269v-.033c0-.565.508-.98 1.32-.98a5.861 5.861 0 0 1 2.579.658s.198.125.27-.066l.416-1.104a.19.19 0 0 0-.1-.23 5.768 5.768 0 0 0-2.908-.775h-.205c-1.86 0-3.153 1.117-3.153 2.72v.034c0 1.689 1.432 2.234 2.77 2.629l.218.065c.977.296 1.821.559 1.821 1.242v.033c0 .658-.547 1.091-1.431 1.091a4.808 4.808 0 0 1-2.639-.749l-.336-.21a.172.172 0 0 0-.264.092l-.422 1.15zm21.979-5.205a4.057 4.057 0 0 0-.772-1.466c-.36-.423-.811-.76-1.32-.986a4.719 4.719 0 0 0-3.634 0 3.7 3.7 0 0 0-1.32.986c-.355.43-.618.93-.771 1.466a6.7 6.7 0 0 0 0 3.628c.154.536.416 1.035.772 1.465.359.423.81.758 1.319.98 1.163.47 2.465.47 3.628 0 .509-.223.96-.557 1.32-.98.355-.43.617-.93.771-1.465a6.7 6.7 0 0 0 0-3.628h.007zm-1.702 1.814c.045.8-.143 1.597-.541 2.293-.365.544-.995.85-1.65.802a1.803 1.803 0 0 1-1.642-.802 5.162 5.162 0 0 1 0-4.6 2.1 2.1 0 0 1 3.298 0c.4.694.588 1.488.541 2.287l-.006.02zm15.613 2.832a.158.158 0 0 0-.217-.098 3.85 3.85 0 0 1-.785.223 5.958 5.958 0 0 1-.93.066 2.591 2.591 0 0 1-1.94-.723 3.226 3.226 0 0 1-.725-2.307 3.573 3.573 0 0 1 .66-2.222 2.22 2.22 0 0 1 1.84-.828c.605-.01 1.209.077 1.787.257 0 0 .132.059.198-.119.152-.414.257-.703.416-1.15a.15.15 0 0 0-.106-.197 6.616 6.616 0 0 0-1.128-.283 8.659 8.659 0 0 0-1.273-.085 4.632 4.632 0 0 0-1.887.361c-.5.231-.944.565-1.306.98a4.156 4.156 0 0 0-.824 1.465 5.778 5.778 0 0 0-.277 1.821 4.84 4.84 0 0 0 1.101 3.359 4.29 4.29 0 0 0 3.345 1.255c.82 0 1.632-.144 2.4-.427a.151.151 0 0 0 .067-.204l-.416-1.144zm8.668-4.962a3.552 3.552 0 0 0-.732-1.314 3.35 3.35 0 0 0-1.089-.829 4.189 4.189 0 0 0-1.642-.328 4.506 4.506 0 0 0-1.893.368c-.51.233-.96.577-1.32 1.005-.359.427-.628.92-.791 1.453a6.393 6.393 0 0 0-.25 1.82c-.008.62.078 1.235.256 1.828a3.666 3.666 0 0 0 2.276 2.405 5.777 5.777 0 0 0 2.084.335 5.988 5.988 0 0 0 2.89-.571c.066-.04.125-.099.046-.276l-.376-1.045a.165.165 0 0 0-.218-.099 5.545 5.545 0 0 1-2.355.42 2.354 2.354 0 0 1-1.945-.646 2.335 2.335 0 0 1-.693-1.923h5.732a.171.171 0 0 0 .165-.151 6.104 6.104 0 0 0-.172-2.459l.027.007zm-5.706 1.203c.055-.477.212-.937.462-1.348a1.83 1.83 0 0 1 1.636-.828 1.783 1.783 0 0 1 1.61.828c.238.41.37.874.382 1.348h-4.09zm-40.224-1.203a3.552 3.552 0 0 0-.732-1.314 3.336 3.336 0 0 0-1.089-.829 4.195 4.195 0 0 0-1.642-.328 4.506 4.506 0 0 0-1.894.368c-.509.233-.96.577-1.319 1.005a4.136 4.136 0 0 0-.778 1.486 6.393 6.393 0 0 0-.25 1.82c-.008.619.078 1.235.256 1.828a3.666 3.666 0 0 0 2.276 2.405 5.777 5.777 0 0 0 2.085.335 5.988 5.988 0 0 0 2.889-.571c.066-.04.125-.1.046-.277l-.376-1.045a.165.165 0 0 0-.218-.098 5.546 5.546 0 0 1-2.348.361 2.354 2.354 0 0 1-1.945-.647 2.335 2.335 0 0 1-.693-1.923h5.732a.171.171 0 0 0 .165-.15 6.104 6.104 0 0 0-.172-2.459l.007.033zM36.94 31.46c.055-.477.212-.937.461-1.348.359-.55.986-.865 1.643-.828a1.783 1.783 0 0 1 1.61.828c.238.41.37.874.382 1.348H36.94zm-10.086-.283h-.897c-.477 0-.952.061-1.412.184a3.713 3.713 0 0 0-1.194.552 2.672 2.672 0 0 0-1.141 2.261c-.014.453.076.902.264 1.315.17.355.426.662.745.894.35.246.748.418 1.168.506a6.877 6.877 0 0 0 1.517.157c.583 0 1.166-.048 1.741-.144.561-.099 1.254-.237 1.445-.283l.402-.098a.178.178 0 0 0 .132-.184v-5.272a3.2 3.2 0 0 0-.91-2.523 3.915 3.915 0 0 0-2.639-.79c-.515.005-1.029.051-1.537.139a5.527 5.527 0 0 0-1.767.657.177.177 0 0 0-.053.23l.409 1.085a.145.145 0 0 0 .191.092l.092-.046a5.849 5.849 0 0 1 2.5-.579c.5-.033.998.096 1.419.368.31.244.468.599.468 1.36v.244a18.671 18.671 0 0 0-.943-.112v-.013zm-2.283 4.03a1.1 1.1 0 0 1-.33-.343 1.356 1.356 0 0 1-.17-.775c-.033-.432.161-.85.514-1.104a2.573 2.573 0 0 1 1.662-.414 11.65 11.65 0 0 1 1.557.131v2.63c-.512.101-1.03.17-1.55.203a2.587 2.587 0 0 1-1.683-.335v.006zm48.536-6.974a.158.158 0 0 0-.086-.204 5.222 5.222 0 0 0-.963-.164 2.859 2.859 0 0 0-1.477.236 2.565 2.565 0 0 0-.963.73v-.717a.164.164 0 0 0-.165-.17h-1.471a.165.165 0 0 0-.165.17v8.545a.17.17 0 0 0 .171.17h1.504a.171.171 0 0 0 .172-.17V32.38a4.978 4.978 0 0 1 .191-1.499c.1-.315.271-.603.501-.84.2-.198.444-.345.713-.428.248-.073.506-.11.765-.112.222.003.443.03.66.08.112 0 .171-.06.21-.159.1-.263.377-1.045.43-1.202l-.027.013zm-14.142-3.95a4.565 4.565 0 0 0-1.346-.191 3.305 3.305 0 0 0-2.428.868 4.718 4.718 0 0 0-1.154 2.556l-.072.388h-1.32a.191.191 0 0 0-.191.164l-.211 1.19c0 .112.033.184.185.184h1.266l-1.32 7.151a8.896 8.896 0 0 1-.263 1.44c-.09.29-.226.566-.402.814a1.068 1.068 0 0 1-.528.408 2.17 2.17 0 0 1-1.121.046 1.362 1.362 0 0 1-.31-.099.159.159 0 0 0-.212.092l-.422 1.164a.17.17 0 0 0 .086.23c.17.06.344.111.521.15.275.061.556.088.838.08.477.008.952-.066 1.405-.217.41-.154.775-.407 1.062-.736.32-.375.564-.808.719-1.275.225-.624.393-1.266.501-1.92l1.32-7.282h1.886c.096.001.178-.07.191-.164l.211-1.19c0-.112-.033-.184-.184-.184h-1.834c.062-.446.164-.886.303-1.314a1.65 1.65 0 0 1 .403-.612c.134-.135.3-.236.481-.295.2-.06.406-.089.614-.086.157 0 .314.016.468.046l.297.072c.185.06.21 0 .25-.085l.436-1.203a.15.15 0 0 0-.106-.197l-.02.007zm-25.62 12.356l.006-12.192a.164.164 0 0 0-.165-.17h-1.524a.165.165 0 0 0-.164.17v12.192a.164.164 0 0 0 .164.17h1.518a.165.165 0 0 0 .165-.17z"/>
</svg>
