<svg id="Layer_1" data-name="Layer 1" xmlns="http://www.w3.org/2000/svg" viewBox="0 0 170 25.2"><defs><style>.cls-1{fill:#293f41;}.cls-2{fill:#82b6a1;}</style></defs><title>servicenow-logo</title><path class="cls-1" d="M41.39,8.21a7.66,7.66,0,0,0-4.74,1.68V8.31H32.31V25.19h4.54V14.43a5.2,5.2,0,0,1,4-2.07,4.78,4.78,0,0,1,1.78.3V8.31a5.21,5.21,0,0,0-1.28-.1" transform="translate(-0.05 -0.42)"/><path class="cls-1" d="M2.12,20.05a6.86,6.86,0,0,0,4.64,1.68c1.18,0,2.17-.59,2.17-1.38,0-2.57-8.09-1.68-8.09-7.1C.84,10,4,8,7.25,8A10.63,10.63,0,0,1,13,9.69L10.9,13a5.91,5.91,0,0,0-3.26-1.18c-1.28,0-2.27.49-2.27,1.38,0,2.17,8.09,1.28,8.09,7.2,0,3.26-3.16,5.23-6.71,5.23A11.23,11.23,0,0,1,0,23.31Z" transform="translate(-0.05 -0.42)"/><path class="cls-1" d="M30.44,16.6c0-4.74-3.26-8.58-7.89-8.58-5,0-8.19,4.14-8.19,8.78a8.39,8.39,0,0,0,8.78,8.78A9.19,9.19,0,0,0,30,22.52L27.48,20a6,6,0,0,1-4.24,2,4.44,4.44,0,0,1-4.54-4H30.34c0-.39.1-.79.1-1.28m-11.54-2a3.62,3.62,0,0,1,3.55-3,3.42,3.42,0,0,1,3.35,3Z" transform="translate(-0.05 -0.42)"/><polygon class="cls-1" points="53.38 18.25 58.02 7.89 62.65 7.89 54.96 24.77 51.8 24.77 44.1 7.89 48.84 7.89 53.38 18.25"/><path class="cls-1" d="M66.55.42a3,3,0,0,1,3,2.86,3,3,0,0,1-5.92,0,2.89,2.89,0,0,1,3-2.86" transform="translate(-0.05 -0.42)"/><rect class="cls-1" x="64.23" y="7.89" width="4.54" height="16.87"/><path class="cls-1" d="M87.37,21.73a9,9,0,1,1-7.5-13.81A9.25,9.25,0,0,1,87,11.27l-3.16,2.86a4.81,4.81,0,0,0-3.85-2,4.55,4.55,0,0,0-4.54,4.64,4.46,4.46,0,0,0,4.64,4.64,4.87,4.87,0,0,0,4-2.27Z" transform="translate(-0.05 -0.42)"/><path class="cls-1" d="M103.75,22.52a9,9,0,0,1-6.91,3.06,8.39,8.39,0,0,1-8.78-8.78c0-4.74,3.16-8.78,8.19-8.78,4.64,0,7.89,3.95,7.89,8.58a5.21,5.21,0,0,1-.1,1.28H92.4a4.44,4.44,0,0,0,4.54,4,6,6,0,0,0,4.24-2ZM99.5,14.63a3.34,3.34,0,0,0-3.35-3,3.54,3.54,0,0,0-3.55,3Z" transform="translate(-0.05 -0.42)"/><path class="cls-1" d="M105.92,25.19V8.31h4.34V9.69A7.12,7.12,0,0,1,115,8a7.5,7.5,0,0,1,5.82,2.76c1.09,1.28,1.78,3.06,1.78,5.92v8.58h-4.54v-9a4.13,4.13,0,0,0-1-3.16,3.57,3.57,0,0,0-2.57-1,5.2,5.2,0,0,0-4,2.07v11Z" transform="translate(-0.05 -0.42)"/><path class="cls-2" d="M134.14,8a9.87,9.87,0,0,0-9.87,9.77,10.29,10.29,0,0,0,3.06,7.3,2,2,0,0,0,2.57.1,6.64,6.64,0,0,1,4.24-1.38,6.84,6.84,0,0,1,4.24,1.38,2,2,0,0,0,2.57-.2,9.84,9.84,0,0,0-6.81-17m-.1,14.8a4.83,4.83,0,0,1-4.93-4.93A4.77,4.77,0,0,1,134,13,4.82,4.82,0,0,1,139,17.88,4.82,4.82,0,0,1,134,22.82" transform="translate(-0.05 -0.42)"/><polygon class="cls-1" points="152.73 24.77 149.38 24.77 142.67 7.89 147.21 7.89 150.86 17.56 154.51 7.89 158.26 7.89 161.81 17.56 165.46 7.89 170 7.89 163.29 24.77 159.94 24.77 156.38 15.19 152.73 24.77"/></svg>