<?xml version="1.0" encoding="UTF-8"?>
<svg width="90px" height="90px" viewBox="0 0 90 90" version="1.1" xmlns="http://www.w3.org/2000/svg" xmlns:xlink="http://www.w3.org/1999/xlink">
    <!-- Generator: Sketch 54.1 (76490) - https://sketchapp.com -->
    <title>icon_2_8</title>
    <desc>Created with Sketch.</desc>
    <g id="Main-page" stroke="none" stroke-width="1" fill="none" fill-rule="evenodd">
        <g id="ScnSoft-COM-HomePage-1440_illustrations" transform="translate(-1125.000000, -6547.000000)" fill-rule="nonzero">
            <g id="Industry" transform="translate(135.000000, 6166.000000)">
                <g id="8" transform="translate(919.000000, 381.000000)">
                    <g id="icon_2_8" transform="translate(71.000000, 0.000000)">
                        <rect id="Rectangle" fill="#FFFFFF" x="0" y="0" width="90" height="90"></rect>
                        <g id="Group-35" transform="translate(9.000000, 11.000000)">
                            <g id="Group-34" transform="translate(0.622642, 0.739623)">
                                <path d="M70.5898868,48.0718302 L70.6000755,48.0718302 L70.6000755,43.2106982 L61.5615849,40.8729623 L41.522151,29.3031509 C38.1491321,27.3554151 33.0451698,27.1431509 30.123283,28.8310755 L9.59762264,40.6810755 L0.015735849,42.9503207 L0.015735849,47.7491887 C0.00894339622,47.8561698 0.0117735849,47.964849 0.015735849,48.0718302 L0.015735849,48.1465472 L0.0196981132,48.1465472 C0.114792453,49.3776792 1.04875472,50.6540943 2.79554718,51.6622076 L29.0840377,66.8405094 C32.4587547,68.7882453 37.5615849,69.0005094 40.4840377,67.313717 L68.6302641,51.0622075 C70.008566,50.2674906 70.6453584,49.1908868 70.5898868,48.0718302" id="Fill-2" fill="#BFC3C7"></path>
                                <path d="M68.6303208,45.9409245 L40.4840943,62.192434 C37.5622075,63.8786604 32.4593774,63.6663963 29.0840944,61.7192265 L2.79616981,46.5420567 C-0.579113208,44.5931887 -0.944773584,41.6475283 1.97711321,39.9601698 L30.1239057,23.7097925 C33.0457924,22.0224339 38.1486226,22.234132 41.5222075,24.1818679 L67.8118302,39.3601698 C71.1865472,41.3073396 71.5522076,44.2546982 68.6303208,45.9409245" id="Fill-4" fill="#E9E8E7"></path>
                                <path d="M53.1190189,19.6024528 L19.311849,0.322641509 C18.8493962,0.0594339623 18.3903396,0.0583018867 18.0541133,0.320377359 L16.265434,1.39018868 L16.6288302,1.90811321 L16.9441132,2.62981133 L17.2605282,2.80698114 L17.5622264,3.2354717 L17.5622264,29.3954718 C17.5622264,30.5433962 18.276,31.8843396 19.1533585,32.384717 L50.690151,50.37 L52.3809057,52.7750943 L54.0739246,51.7607547 C54.4746793,51.5603773 54.710717,51.0616981 54.710717,50.3971698 L54.710717,22.5922641 C54.710717,21.4443396 53.9963774,20.1033962 53.1190189,19.6024528" id="Fill-6" fill="#0B1B2B"></path>
                                <path d="M27.4355661,43.4285661 L34.290283,39.5376227 C34.9548114,39.1583773 36.0693396,39.2019623 36.8295283,39.6349811 L40.9995283,42.0140377 L42.9817924,42.8993208 L42.9817924,43.8055471 L42.9682076,43.8055471 C42.9234906,44.0404528 42.7582075,44.2476226 42.4899057,44.4010189 L34.0440566,49.1998868 C33.7406603,49.3730943 33.3433018,49.458 32.9283962,49.458 C32.4348114,49.458 31.9174528,49.3374339 31.5042453,49.1025282 L26.0148113,45.9717736 C25.6151886,45.7442265 25.3808491,45.4419622 25.3536792,45.0995094 C25.3531133,45.0706415 25.3525472,45.0429057 25.3536792,45.0259245 L25.3536792,44.2900755 L27.4355661,43.4285661 Z" id="Fill-8" fill="#0B1B2B"></path>
                                <path d="M42.410717,43.5667359 L33.9643018,48.3656037 C33.3541133,48.7137169 32.2882641,48.6701321 31.5841132,48.2682453 L26.0946792,45.1374906 C25.3899622,44.7356038 25.3135472,44.1276792 25.9237359,43.780132 L34.3701509,38.9806982 C34.9797736,38.633151 36.0456227,38.6767359 36.7503396,39.0786227 L42.2392076,42.2093773 C42.9439245,42.6112641 43.0203397,43.2186227 42.410717,43.5667359" id="Fill-10" fill="#123155"></path>
                                <path d="M26.1421132,43.8403585 L29.5173962,41.9226227 L37.3304151,46.3914905 L33.8555094,48.3652642 C33.2458867,48.7133774 32.1800377,48.6697924 31.4753207,48.2679057 L27.0211698,45.8401698 C26.5960755,45.5973396 25.8523019,44.9746982 25.6932453,44.4986604 C25.5885283,44.1862075 25.9004151,43.9784717 26.1421132,43.8403585" id="Fill-12" fill="#CECDCC"></path>
                                <path d="M42.331132,43.427434 L33.884717,48.2263019 C33.3203774,48.5489434 32.3230189,48.5053584 31.6635849,48.1289433 L26.174151,44.9981887 C25.8554717,44.8164905 25.6720755,44.5878113 25.6720755,44.3698867 C25.6720755,44.1530943 25.8520755,44.0053584 26.0032076,43.9193208 L34.4490566,39.1204529 C35.0150944,38.7978114 36.0113207,38.8413962 36.6707547,39.2178113 L42.1596226,42.3485661 C42.4788679,42.5302641 42.6622641,42.7589434 42.6622641,42.9768679 C42.6622641,43.1936604 42.4822641,43.3413962 42.331132,43.427434 M32.9281132,48.7629057 C33.3430188,48.7629057 33.7403773,48.6774339 34.0437736,48.5047925 L42.4896227,43.7059246 C42.8077359,43.5247925 42.9820754,43.2655471 42.9820754,42.977434 C42.9820754,42.6412075 42.7409434,42.3106415 42.3192453,42.0700755 L36.8292453,38.9393208 C36.0690566,38.506868 34.9550943,38.463283 34.2905661,38.8419623 L25.8447169,43.6413963 C25.5266038,43.8219622 25.3516981,44.0812075 25.3516981,44.369888 C25.3516981,44.7061132 25.5939623,45.0361133 26.0150944,45.2766793 L31.5045283,48.4074339 C31.9177359,48.6429057 32.4350943,48.7629057 32.9281132,48.7629057" id="Fill-14" fill="#0B1B2B"></path>
                                <path d="M16.4940566,1.24658491 C16.8212264,1.0575283 17.2304717,1.08413207 17.6476415,1.32243396 L51.4542453,20.6011133 C52.3316038,21.1014905 53.0453773,22.443 53.0453773,23.5914906 L53.0453773,51.3969623 C53.0453773,52.0184717 52.7946227,52.2958302 52.5834905,52.4175283 C52.4465095,52.4973397 52.2840567,52.5363962 52.1034906,52.5363962 C51.8170755,52.5363962 51.4859433,52.4367735 51.1429245,52.2409245 L17.4885849,33.3839434 C16.6112265,32.883566 15.8974528,31.5420566 15.8974528,30.3941321 L15.8974528,2.58922642 C15.8974528,1.95639623 16.1148113,1.46733962 16.4940566,1.24658491" id="Fill-16" fill="#123155"></path>
                                <path d="M52.9647736,48.0248491 L15.8972264,26.8861698 L15.8972264,30.5325849 C15.8972264,31.6040944 16.6613774,32.9127736 17.601,33.4482453 L51.1828867,52.5995661 C51.4636415,52.7591886 51.7376038,52.8401321 51.9872264,52.8401321 C52.1723208,52.8401321 52.3432642,52.7965471 52.4955282,52.7082453 C52.850434,52.5022075 53.045717,52.0856038 53.045717,51.534283 L53.045717,48.0712641 L52.9647736,48.0248491 Z" id="Fill-18" fill="#CECDCC"></path>
                                <path d="M50.7675282,22.0313208 L18.3346982,3.5354717 C18.1535661,3.43188679 17.973,3.42283019 17.8246981,3.50886793 C17.657717,3.60566038 17.5620567,3.81113208 17.5620567,4.07207547 L17.5620567,25.3098113 C17.5620567,25.755283 17.8314906,26.2584905 18.1756416,26.4543396 L50.6090377,44.9507547 C50.7080943,45.0073585 50.8065849,45.0350943 50.8999811,45.0350943 C50.9775283,45.0350943 51.0516792,45.015283 51.1190378,44.9767925 C51.2854528,44.88 51.3811133,44.6750943 51.3811133,44.4135849 L51.3811133,23.175283 C51.3811133,22.7303774 51.1116792,22.2277359 50.7675282,22.0313208" id="Fill-20" fill="#E9E8E7"></path>
                                <path d="M39.359434,18.0358867 C39.3464151,16.9604151 39.1935849,15.8396603 38.9156603,14.7172076 L40.8673585,13.432868 L39.9379245,11.2773962 L39.0118868,9.12588679 L36.6650943,9.47739623 C36.0401887,8.49418867 35.3275471,7.59701886 34.5498114,6.82154717 L34.6245283,3.70437736 L33.0577358,2.73418867 L31.5339623,1.79003773 L30.195283,2.39513207 L30.7239623,3.81984906 L30.9401887,3.79098113 L30.7669811,4.37286793 C29.9813207,4.1204151 29.2324528,4.04230189 28.544151,4.12607547 L27.0418868,1.43343396 L26.8749057,1.5358868 L26.9009434,1.43343396 L25.7032075,2.03796226 L25.7626416,2.21626416 L24.8943397,2.74833962 L25.8022642,5.65211321 C25.3715094,6.17513207 25.0233962,6.82154717 24.7726416,7.57664151 L22.9069812,6.67833962 L21.5671698,7.28343396 L22.77,8.21513208 L22.7626415,8.29947169 L22.621132,9.88607547 L24.3611321,11.6277736 C24.4324529,12.5617358 24.6016981,13.5143774 24.8564151,14.4568302 L23.6281132,15.4824906 L24.3520754,17.1998491 L25.0777359,18.9206038 L26.7169811,18.8589056 C27.2213208,19.7124906 27.7952831,20.5179623 28.4281132,21.2475849 L28.4439623,23.6719246 L29.488868,24.5538113 L28.9092453,24.9579622 L29.6779245,26.4483396 L31.0177359,25.8438113 L31.7116981,23.9436226 C32.4526415,24.3336226 33.1845283,24.5798491 33.885283,24.6783397 L34.9743397,26.6770189 L34.8056604,26.6600377 L35.0269811,26.7743773 L35.384151,27.429849 L36.0656604,27.3070189 L36.5915094,27.5775849 L37.9313208,26.9730566 L37.0143396,23.9832453 C37.4094339,23.7058867 37.7637736,23.3447547 38.0739623,22.9117359 L39.5926415,24.324 L40.9313208,23.7194717 L41.3298113,22.0134339 L41.7390566,20.2643774 L39.359434,18.0358867 Z M35.2081133,17.4913584 C34.7518868,19.9824906 32.6598114,20.5802265 30.5937735,18.9602265 C28.6030189,17.4007925 27.2790566,14.2745661 27.5790567,11.8564528 C27.8886793,9.35569812 29.8250943,8.42456604 31.9681133,9.90532075 C34.2,11.4477736 35.6807547,14.9090944 35.2081133,17.4913584 L35.2081133,17.4913584 Z" id="Fill-22" fill="#123155"></path>
                                <path d="M38.0205849,18.6412076 C38.0075661,17.5651698 37.8553019,16.4449812 37.5762453,15.3225283 L39.5279434,14.0376226 L38.5990754,11.8821509 L37.6724717,9.73007547 L35.3256792,10.0821509 C34.7013396,9.09894339 33.988132,8.20120755 33.2103963,7.42686792 L33.2851132,4.30969811 L31.7183207,3.33837735 L30.1951133,2.39479245 L29.4286981,4.97705661 C28.6424717,4.72573585 27.8936038,4.64762264 27.2053018,4.73026415 L25.7030378,2.03762264 L24.611151,2.70724528 L23.5554906,3.3525283 L24.4628491,6.25743396 C24.0320943,6.77932075 23.6851132,7.42630189 23.4337924,8.18196227 L21.568132,7.28366037 L21.4232264,8.90422641 L21.282283,10.4913962 L23.021717,12.2325283 C23.0930378,13.1664906 23.262849,14.118566 23.5175661,15.0610189 L22.2886981,16.0872453 L23.0126603,17.8046038 L23.7388868,19.5253584 L25.377566,19.4636604 C25.8819057,20.3172453 26.455868,21.122717 27.0892642,21.8517736 L27.1045472,24.2761132 L28.3758679,25.3504529 L29.6777547,26.448566 L30.372283,24.5483774 C31.1132264,24.9383773 31.8456792,25.1846038 32.5458679,25.2836604 L34.0458679,28.0340378 L35.2968114,27.8093208 L36.5924717,27.5772453 L35.6749245,24.5885661 C36.238132,24.1923397 36.7220943,23.6381887 37.1053018,22.9317736 L39.5919057,24.3236604 L39.9903962,22.6181886 L40.4007736,20.8691321 L38.0205849,18.6412076 Z M29.2543584,19.5655472 C27.2636038,18.0055472 25.9396415,14.8793207 26.2396416,12.4617736 C26.5492642,9.96045283 28.4856792,9.02932075 30.6292641,10.5106415 C32.8605849,12.0525283 34.3413396,15.513849 33.8686982,18.0961132 C33.4124717,20.5872453 31.3203963,21.1844151 29.2543584,19.5655472 L29.2543584,19.5655472 Z" id="Fill-24" fill="#2161AC"></path>
                                <path d="M51.9564906,17.0094339 C51.9485661,16.3669811 51.8574339,15.6973585 51.6910189,15.0260377 L52.8570566,14.2590567 L52.3023396,12.9701886 L51.7481887,11.6841509 L50.3455472,11.8941509 C49.9719623,11.3060377 49.5463019,10.770566 49.0810189,10.3069811 L49.1263019,8.4435849 L48.1895095,7.86396226 L47.2787547,7.29962265 L46.4783774,7.66075472 L46.7947925,8.51207547 L46.923849,8.49509434 L46.8208302,8.84320754 C46.3504528,8.69264151 45.9032831,8.64566038 45.4912075,8.69547169 L44.5934717,7.08622641 L44.493283,7.14679245 L44.5096981,7.08622641 L43.7930943,7.44735849 L43.8293208,7.55433962 L43.3102641,7.8718868 L43.8525283,9.60792453 C43.5949811,9.92037736 43.3872453,10.3064151 43.2378113,10.7586793 L42.122151,10.2215094 L41.3212076,10.5826415 L42.0395094,11.1396226 L42.0361132,11.190566 L41.9512076,12.1386792 L42.9904529,13.1796226 C43.0334717,13.7377359 43.1353585,14.3077359 43.2876226,14.8703774 L42.5523397,15.4839623 L42.9853585,16.5101887 L43.4195095,17.5392453 L44.3993207,17.5018868 C44.7004529,18.0118868 45.0440378,18.4935849 45.4221509,18.929434 L45.4317736,20.3784906 L46.0917735,20.9360377 L45.7096981,21.1471698 L46.1687547,22.0386793 L46.9691321,21.6769811 L47.3846037,20.5409434 C47.8278113,20.774151 48.2653585,20.9213208 48.6842264,20.9807547 L49.3351698,22.1750943 L49.2344151,22.1643396 L49.3668679,22.2333962 L49.5802642,22.6245282 L49.9872453,22.5509433 L50.3019622,22.7128302 L51.1023397,22.3516981 L50.5538491,20.564717 C50.7898868,20.3983019 51.0021509,20.1832075 51.1878113,19.9239623 L52.0957359,20.7684905 L52.8961132,20.4067925 L53.133849,19.3873585 L53.3789434,18.3418867 L51.9564906,17.0094339 Z M49.4744151,16.6845282 C49.2021509,18.1737735 47.9517736,18.5309434 46.7166793,17.5624528 C45.5274339,16.6301887 44.7349811,14.7616982 44.9149811,13.3166038 C45.1000755,11.8211321 46.2576226,11.265283 47.5385661,12.15 C48.872151,13.0715095 49.756868,15.1403774 49.4744151,16.6845282 L49.4744151,16.6845282 Z" id="Fill-26" fill="#123155"></path>
                                <path d="M51.1561133,17.3714718 C51.1476227,16.7278868 51.0570566,16.0588302 50.8906416,15.3875094 L52.0566792,14.6205283 L51.5013962,13.3310943 L50.9478114,12.0456226 L49.5457358,12.2556226 C49.1715849,11.6680755 48.7459246,11.1314717 48.2806416,10.6690189 L48.3259245,8.80505661 L47.389132,8.22486793 L46.4778113,7.66109434 L46.0204528,9.20411321 C45.5500755,9.05411321 45.1034717,9.00769811 44.6908302,9.0569434 L43.7936603,7.44769812 L43.1404528,7.84732076 L42.5098868,8.23279245 L43.052151,9.96996226 C42.7946037,10.2818491 42.5868679,10.6678868 42.4368679,11.1201509 L41.3217735,10.5824151 L41.2351698,11.5514717 L41.1508302,12.500717 L42.1900754,13.5405283 C42.2330944,14.0997736 42.3349811,14.6686415 42.4878114,15.231849 L41.7530943,15.844868 L42.1849812,16.8716604 L42.619132,17.9001509 L43.5989434,17.8633585 C43.9006415,18.3739245 44.2436603,18.8544906 44.6217736,19.2914717 L44.6313963,20.7399623 L45.3904528,21.381283 L46.1687547,22.0384529 L46.5842264,20.9024151 C47.0268679,21.1350567 47.4649811,21.2827924 47.883849,21.3416604 L48.7798867,22.9854339 L49.5276227,22.8518491 L50.3019622,22.7131698 L49.7534718,20.9267547 C50.0902641,20.6895849 50.3800754,20.3590189 50.6087547,19.9361886 L52.0951698,20.7688302 L52.3334717,19.7488302 L52.5785661,18.7033585 L51.1561133,17.3714718 Z M45.9163018,17.9244905 C44.7270566,16.9916603 43.9346038,15.1226038 44.1146038,13.6780754 C44.2996982,12.1826038 45.4566793,11.6261887 46.7381886,12.5120377 C48.0717735,13.4335472 48.9564905,15.501849 48.6740377,17.046 C48.4017736,18.5346792 47.1513963,18.8918491 45.9163018,17.9244905 L45.9163018,17.9244905 Z" id="Fill-28" fill="#ADADAD"></path>
                                <path d="M47.6747547,30.6727925 C47.6685283,30.2114717 47.6028679,29.7309056 47.484,29.2492075 L48.3211698,28.6984529 L47.9221132,27.7735472 L47.5247547,26.8509056 L46.5183396,27.0020377 C46.2500378,26.5797735 45.9443773,26.194868 45.6109811,25.8620377 L45.6426792,24.5250566 L44.9713585,24.1084529 L44.3175849,23.7043018 L43.7436226,23.9629811 L43.9694717,24.574868 L44.0623018,24.5624151 L43.988151,24.8120378 C43.6519246,24.7039245 43.3304151,24.6705283 43.0355094,24.7061886 L42.3907925,23.5509057 L42.3189057,23.5950566 L42.3302264,23.5509057 L41.8156982,23.810151 L41.8417358,23.8871321 L41.469849,24.1146792 L41.858717,25.3605282 C41.6736226,25.5852453 41.5253208,25.8620377 41.4177736,26.1863774 L40.6162642,25.8014717 L40.0423019,26.0607169 L40.5579623,26.4603397 L40.5545661,26.496 L40.494,27.1769433 L41.2400377,27.9241132 C41.2711698,28.325434 41.3430566,28.7324151 41.4528679,29.137132 L40.9258868,29.5775095 L41.2366415,30.3144906 L41.5479623,31.0526038 L42.2509811,31.026 C42.4672075,31.3922264 42.7134339,31.7375095 42.9851321,32.0505283 L42.9924906,33.0903396 L43.4175849,33.4497736 L43.1917358,33.6422264 L43.5217359,34.281283 L44.0956981,34.0220377 L44.3934339,33.2075094 C44.7121133,33.3739246 45.0256981,33.4797736 45.3256982,33.5222265 L45.7932453,34.3797736 L45.7207925,34.3724151 L45.8158868,34.4210944 L45.969283,34.7024151 L46.2613585,34.6503397 L46.4866415,34.7658114 L47.0611698,34.5065661 L46.6683396,33.2239245 C46.8375849,33.1050567 46.9898491,32.9499622 47.1228679,32.764868 L47.7743774,33.3705282 L48.3483397,33.111283 L48.5198491,32.3793962 L48.6953208,31.6282641 L47.6747547,30.6727925 Z M45.893434,30.4395849 C45.6975849,31.5088302 44.8004151,31.7641132 43.914,31.0695849 C43.0604151,30.4005282 42.4921132,29.0590188 42.6206038,28.0220377 C42.7536226,26.9493962 43.584566,26.5497736 44.5032453,27.186 C45.4609812,27.8471321 46.0960754,29.331283 45.893434,30.4395849 L45.893434,30.4395849 Z" id="Fill-30" fill="#123155"></path>
                                <path d="M47.0998868,30.9326037 C47.0936604,30.4707169 47.029132,29.990151 46.9091321,29.5084529 L47.7468679,28.9582641 L47.3478114,28.0333585 L46.9510188,27.110151 L45.9440378,27.261283 C45.6763019,26.8395849 45.3706415,26.4541132 45.0361133,26.121849 L45.0689433,24.7848679 L44.3964906,24.3682641 L43.7432831,23.9629811 L43.4144151,25.071849 C43.0770567,24.9626038 42.7561132,24.9297736 42.4606415,24.9654339 L41.8159246,23.8107169 L41.3478113,24.097132 L40.8949811,24.3744906 L41.2844151,25.6203396 C41.0987547,25.8444905 40.9504528,26.121849 40.8429057,26.4461887 L40.0425283,26.060151 L39.9802641,26.7558114 L39.9196981,27.4361887 L40.6663019,28.1833584 C40.6963018,28.5841133 40.7693208,28.9922264 40.8791321,29.3969434 L40.3510189,29.8367547 L40.6623397,30.5737358 L40.9736604,31.3124151 L41.6766793,31.2852453 C41.8929057,31.6520378 42.1391321,31.9967547 42.4108302,32.3097736 L42.4176227,33.350151 L42.962151,33.8103396 L43.5213962,34.2818491 L43.8191321,33.4667547 C44.1372453,33.6337358 44.4508302,33.7390188 44.7519623,33.7814717 L45.3944151,34.9616604 L45.9315849,34.8654339 L46.487434,34.7658114 L46.0940377,33.4837359 C46.3346038,33.3139245 46.5434717,33.0761886 46.7081887,32.7733584 L47.7740377,33.3705282 L47.9455471,32.6392075 L48.1210188,31.8880755 L47.0998868,30.9326037 Z M43.339132,31.3288302 C42.4861132,30.6603396 41.9172453,29.3188302 42.0457359,28.2812831 C42.1798868,27.2092076 43.0096981,26.8090188 43.9295094,27.4446792 C44.8861132,28.1058114 45.5217736,29.5905282 45.319132,30.6988302 C45.123849,31.7675094 44.2261133,32.0239246 43.339132,31.3288302 L43.339132,31.3288302 Z" id="Fill-32" fill="#CECDCC"></path>
                            </g>
                        </g>
                    </g>
                </g>
            </g>
        </g>
    </g>
</svg>