<?xml version="1.0" encoding="UTF-8"?>
<svg width="90px" height="90px" viewBox="0 0 90 90" version="1.1" xmlns="http://www.w3.org/2000/svg" xmlns:xlink="http://www.w3.org/1999/xlink">
    <!-- Generator: Sketch 54.1 (76490) - https://sketchapp.com -->
    <title>icon_2_5</title>
    <desc>Created with Sketch.</desc>
    <g id="Main-page" stroke="none" stroke-width="1" fill="none" fill-rule="evenodd">
        <g id="ScnSoft-COM-HomePage-1440_illustrations" transform="translate(-826.000000, -6363.000000)" fill-rule="nonzero">
            <g id="Industry" transform="translate(135.000000, 6166.000000)">
                <g id="3" transform="translate(669.000000, 197.000000)">
                    <g id="icon_2_5" transform="translate(22.000000, 0.000000)">
                        <rect id="Rectangle" fill="#FFFFFF" x="0" y="0" width="90" height="90"></rect>
                        <g id="Group-81" transform="translate(9.000000, 23.000000)">
                            <g id="Group-80" transform="translate(0.622642, 0.626416)">
                                <path d="M70.589717,36.1850377 L70.5999056,36.1850377 L70.5999056,31.3239056 L61.5614151,28.9861698 L41.5219811,17.4163585 C38.1489623,15.4686226 33.045566,15.2563585 30.1236792,16.944283 L9.59745282,28.7942831 L0.0161320755,31.0635283 L0.0161320755,35.8623962 C0.00933962264,35.9693774 0.0116037736,36.0780566 0.0161320755,36.1850377 L0.0161320755,36.2597547 L0.0195283018,36.2597547 C0.114622642,37.4908868 1.04858491,38.7673019 2.79594339,39.7754151 L29.083868,54.953717 C32.459151,56.9014528 37.5619811,57.113717 40.4838679,55.4269245 L68.6300944,39.1754151 C70.0083962,38.3806981 70.6457547,37.3040943 70.589717,36.1850377" id="Fill-2" fill="#BFC3C7"></path>
                                <path d="M68.6307169,34.0541321 L40.4839246,50.3056416 C37.5620377,51.9918679 32.4592075,51.7796038 29.0844905,49.8324339 L2.796,34.6552641 C-0.578716982,32.7063963 -0.944943396,29.7607359 1.97694339,28.0733774 L30.1237358,11.823 C33.0456226,10.1356415 38.1484529,10.3473396 41.5220377,12.2950755 L67.8116604,27.4733774 C71.1863774,29.4205472 71.5526038,32.3679056 68.6307169,34.0541321" id="Fill-4" fill="#E9E8E7"></path>
                                <polygon id="Fill-6" fill="#ADADAD" points="15.9941886 17.1420566 33.9262641 6.72186793 33.9104151 12.2916792 15.9789056 22.7124339"></polygon>
                                <polygon id="Fill-8" fill="#ADADAD" points="24.1370378 21.8433963 42.0691132 11.4232075 42.0532641 16.9930189 24.1217547 27.4137736"></polygon>
                                <polygon id="Fill-10" fill="#ADADAD" points="32.2799433 26.5447359 50.2120189 16.1239811 50.1667358 32.0296415 32.2352265 42.4509623"></polygon>
                                <path d="M32.2799433,26.5447359 L32.2352265,42.4509623 C24.0367359,37.7171887 15.8399434,32.9851133 7.64428302,28.2530377 L7.67258491,18.0643585 L15.9944718,17.142283 L15.9786226,22.7120944 L24.1369245,21.8432264 L24.1216415,27.4136037 L32.2799433,26.5447359 Z" id="Fill-12" fill="#2161AC"></path>
                                <path d="M20.7994528,34.193434 L20.8158679,28.2868302 L20.7994528,34.193434 L22.5768113,35.2190943 L20.7994528,34.193434 Z M14.9868113,24.9183396 L14.9868113,24.9183396 L14.9703962,30.8249434 L14.9868113,24.9183396 Z M10.9198302,28.2653208 L9.327,27.3455095 L9.3434151,21.6596604 L10.9351132,22.5794717 L10.9198302,28.2653208 Z M12.8381321,29.3730566 L11.3024717,28.4866415 L11.3183207,22.8002264 L12.8539811,23.6866415 L12.8381321,29.3730566 Z M14.7637925,30.4841886 L13.2202075,29.5938113 L13.2371887,23.9079623 L14.7796415,24.7983396 L14.7637925,30.4841886 Z M16.7488867,31.6309811 L15.161151,30.714566 L15.177,25.028717 L16.7647359,25.944566 L16.7488867,31.6309811 Z M18.6666227,32.738151 L17.1315283,31.8511698 L17.1473774,26.1653207 L18.6830378,27.0523018 L18.6666227,32.738151 Z M20.5928491,33.8504151 L19.0498302,32.9589057 L19.0656792,27.2730567 L20.6086981,28.164 L20.5928491,33.8504151 Z M22.5779433,34.9989057 L20.9902076,34.0824906 L21.0060566,28.3966415 L22.5937925,29.3130566 L22.5779433,34.9989057 Z M22.9764339,29.5343774 L24.5143585,30.4219246 L24.4985094,36.1083397 L22.9600189,35.2196604 L22.9764339,29.5343774 Z M26.4219057,37.2183396 L24.8783207,36.3273962 L24.8941698,30.6415472 L26.4377547,31.5324905 L26.4219057,37.2183396 Z M28.406434,38.364 L26.8192642,37.4475849 L26.8351132,31.7617358 L28.4228491,32.6781509 L28.406434,38.364 Z M30.327566,39.4734339 L28.7890754,38.5853207 L28.8054905,32.8994717 L30.3434151,33.7875849 L30.327566,39.4734339 Z M32.2554906,40.5862641 L30.7102076,39.6941887 L30.7260566,34.0083396 L32.2719057,34.9004151 L32.2554906,40.5862641 Z M9.14190566,21.084566 L8.95115094,21.1949434 L8.93303774,27.578151 C16.7771886,32.1064528 24.612849,36.6341887 32.457,41.1624905 L32.6477547,41.0509812 L32.665868,34.6683397 C24.8239812,30.1411698 16.9832264,25.6117359 9.14190566,21.084566 L9.14190566,21.084566 Z" id="Fill-14" fill="#E2E9EE"></path>
                                <polygon id="Fill-16" fill="#ADADAD" points="15.9814529 16.1288491 33.9135283 5.70809434 33.9101321 6.8865849 15.9780567 17.3073397"></polygon>
                                <polygon id="Fill-18" fill="#CECDCC" points="7.66007547 17.050868 25.592151 6.63011321 33.9134718 5.70803774 15.9813962 16.1287925"></polygon>
                                <polygon id="Fill-20" fill="#2161AC" points="15.9814529 16.1288491 15.9780567 17.3073397 7.65673584 18.2294151 7.66013207 17.0509245"></polygon>
                                <polygon id="Fill-22" fill="#ADADAD" points="24.1243584 20.8301887 42.0564339 10.409434 42.0530377 11.5879245 24.1209622 22.0086792"></polygon>
                                <polygon id="Fill-24" fill="#CECDCC" points="15.966 21.6991133 33.8975095 11.2783585 42.0563773 10.4094906 24.1243019 20.8302453"></polygon>
                                <polygon id="Fill-26" fill="#2161AC" points="24.1243584 20.8301887 24.1209622 22.0086792 15.9620944 22.8775472 15.9660566 21.6990566"></polygon>
                                <polygon id="Fill-28" fill="#CECDCC" points="24.108849 26.4004528 42.0403585 15.9796981 50.1992265 15.1108302 32.267151 25.5315849"></polygon>
                                <polygon id="Fill-30" fill="#5D3839" points="32.2672076 25.5314717 50.199283 15.110717 50.1958868 16.2892075 32.2638114 26.7099623"></polygon>
                                <polygon id="Fill-32" fill="#2161AC" points="25.919717 18.0723963 34.5195283 23.0371132 34.500849 24.5110755 25.9010378 25.3612642"></polygon>
                                <polygon id="Fill-34" fill="#123155" points="34.5197547 23.0373962 48.609 14.8496603 48.5903208 19.5947547 34.5010755 27.7824906"></polygon>
                                <polygon id="Fill-36" fill="#A2AAB1" points="25.920283 17.1691698 40.0095283 8.98143396 40.0089623 9.1574717 25.919717 17.3452076"></polygon>
                                <polygon id="Fill-38" fill="#B5BEC5" points="25.919717 17.3449246 40.0089623 9.15718868 48.6087736 14.1224718 34.5195283 22.3102075"></polygon>
                                <polygon id="Fill-40" fill="#123155" points="34.5208868 21.9053208 48.6106982 13.7175849 48.609 14.8496603 34.5197547 23.0373962"></polygon>
                                <polygon id="Fill-42" fill="#CECDCC" points="25.9208491 16.9397547 40.0100944 8.75201887 48.6104718 13.7178679 34.5206604 21.9050378"></polygon>
                                <polygon id="Fill-44" fill="#2161AC" points="34.5208868 21.9053208 34.5197547 23.0373962 25.9199434 18.0726792 25.9205094 17.169283 25.9210755 16.9400377"></polygon>
                                <polygon id="Fill-46" fill="#2161AC" points="24.108849 26.4004528 32.267151 25.5315849 32.2637547 26.7100754 24.1054528 27.5789434"></polygon>
                                <path d="M39.8744717,1.0680566 C38.8040944,0.428433962 37.0454151,0.410886792 35.9450378,1.02843396 C34.8435283,1.64598114 34.8186226,2.66484906 35.8884339,3.30390566 C36.9588113,3.9435283 38.7180566,3.96164151 39.8178679,3.34409433 C40.9193774,2.72654717 40.9442831,1.70711321 39.8744717,1.0680566" id="Fill-48" fill="#123155"></path>
                                <path d="M42.4973773,14.8630189 C42.4973773,14.8516982 42.4962453,14.8420755 42.4968114,14.8307547 C42.4985094,14.7809434 42.4979434,14.7322642 42.4951132,14.6824528 C42.4945472,14.6716982 42.4956793,14.6615094 42.4945472,14.6507547 C42.4939811,14.6445283 42.492849,14.638868 42.4922831,14.6326415 C42.4866226,14.5737735 42.4798302,14.5160378 42.4673774,14.4571698 L40.7992641,1.90811321 C40.7992641,1.91150943 40.7992641,1.91490566 40.7998302,1.91773585 C40.7992641,1.91207547 40.7986982,1.90584905 40.7975661,1.90018868 C40.7930377,1.88094339 40.7890755,1.86169811 40.7856793,1.84301887 C40.797,1.89792453 40.8020944,1.95339623 40.8037924,2.00886792 C40.8049245,2.02415094 40.8054906,2.03943397 40.8054906,2.05471698 C40.8049245,2.11132075 40.8015283,2.16792453 40.7913396,2.22396227 C40.7907735,2.22679246 40.7902076,2.2290566 40.7896415,2.23188679 C40.7800189,2.28509434 40.7641698,2.33886793 40.7449246,2.39264151 C40.7398302,2.40849057 40.7336037,2.42377358 40.7268113,2.43962265 C40.7092641,2.48377359 40.6877547,2.52679245 40.6639812,2.56981132 C40.6566226,2.58396227 40.6498302,2.59698113 40.6419057,2.61056604 C40.6085094,2.66716981 40.5700188,2.72264151 40.5258679,2.77641509 C40.511717,2.79339623 40.4941698,2.80867924 40.4805849,2.82452831 C40.4437924,2.86584906 40.407566,2.90603773 40.3645472,2.94509434 C40.3571886,2.95301886 40.3475661,2.96037735 40.3390755,2.96773584 C40.2909623,3.01132075 40.2388867,3.05320755 40.182849,3.09396226 C40.1692641,3.10471698 40.1551132,3.11490566 40.1409622,3.12509434 C40.0719056,3.17320754 40.0000189,3.22018867 39.9207736,3.26433963 C39.8539812,3.30169811 39.7837925,3.33679245 39.7124717,3.36962264 C39.6892642,3.38037736 39.6649246,3.39 39.641151,3.40075472 C39.5919057,3.42226416 39.5415283,3.44320754 39.4905849,3.46245283 C39.462283,3.47320755 39.4339811,3.48339623 39.4051132,3.4935849 C39.3558679,3.51056604 39.3054906,3.52754717 39.2545472,3.54283019 C39.2256792,3.5518868 39.1962453,3.56037736 39.1673773,3.56886792 C39.1345471,3.57792453 39.101151,3.58641509 39.0677547,3.59490567 C38.9636038,3.62150943 38.8566226,3.64471698 38.7485095,3.66396227 C38.7298302,3.66735849 38.7122831,3.67188679 38.6930377,3.67415095 C38.6171887,3.68716981 38.5407735,3.69622642 38.4632265,3.70584905 C38.4434151,3.70811321 38.4241698,3.71150943 38.4049246,3.71320754 C38.3766227,3.71660377 38.3488867,3.71773585 38.3211509,3.71943396 C38.2577547,3.72509434 38.1937924,3.73075471 38.1309623,3.7335849 C38.1066227,3.73471698 38.081717,3.73471698 38.0568113,3.73584906 C37.9934151,3.7381132 37.9288868,3.73924529 37.8643585,3.73924529 C37.8354906,3.73867925 37.8066226,3.7381132 37.7771887,3.73698113 C37.7188867,3.73584906 37.6600189,3.7335849 37.602283,3.73018868 C37.5717169,3.72849057 37.5405849,3.72622641 37.5100188,3.72396226 C37.452849,3.71943396 37.3945472,3.71433963 37.3373774,3.70811321 C37.3090755,3.70471698 37.2807735,3.70188679 37.2530377,3.69792453 C37.1839811,3.68943396 37.1166227,3.67867925 37.0486981,3.66735849 C37.0334151,3.6645283 37.0175661,3.66226415 37.001717,3.65943397 C36.9196415,3.64471698 36.8375661,3.62660377 36.7560566,3.60735849 C36.731717,3.60113207 36.7079433,3.59433962 36.6836037,3.58754718 C36.627566,3.57283018 36.5709623,3.55754717 36.5166226,3.54056603 C36.4815283,3.53037736 36.447,3.51792453 36.4130378,3.50660377 C36.3677547,3.49075472 36.3236037,3.47603774 36.2805849,3.45962264 C36.2341698,3.44150943 36.1883208,3.42169811 36.1436037,3.40245283 C36.1090755,3.38773585 36.0734151,3.37301887 36.0400189,3.35716982 C35.9517169,3.31528302 35.8656792,3.27113208 35.7841698,3.22245283 C35.7394528,3.19528302 35.7003962,3.1664151 35.6590755,3.13867925 C35.6251132,3.11490566 35.5883207,3.09283019 35.5566226,3.06905661 C35.5192641,3.04075472 35.4881321,3.01132075 35.4547359,2.98188679 C35.426434,2.95754718 35.3947359,2.93377359 35.3686981,2.90830189 C35.338132,2.87773584 35.3126604,2.84660378 35.2849245,2.8154717 C35.262283,2.79 35.2368113,2.76509434 35.2164339,2.73905661 C35.1915283,2.70622642 35.172283,2.67339623 35.1502075,2.64056603 C35.1332265,2.6145283 35.1134151,2.5890566 35.0992642,2.56301887 C35.0800188,2.52905661 35.067,2.49396227 35.052283,2.46 C35.0403962,2.43396226 35.0256793,2.40792453 35.0166226,2.38132075 C35.0036038,2.34509433 34.9962453,2.30716981 34.9877547,2.27037736 C34.9820943,2.24603774 34.9730378,2.22226415 34.9690755,2.19735849 C34.962849,2.15660377 34.962283,2.11528302 34.961151,2.0745283 C34.9605849,2.0535849 34.9566227,2.03264151 34.9571886,2.01169812 C34.9588868,1.95 34.9662453,1.88773584 34.9798302,1.82660377 L34.9668113,1.88377358 C34.9605849,1.91603773 34.9588868,1.94886792 34.9549245,1.98113207 C34.9588868,1.95113208 34.9594528,1.92169812 34.9651133,1.89169811 C34.3939811,4.61773585 33.822283,11.7050943 33.2505849,14.431132 C33.087,15.21 33.5120944,16.0245283 34.5298302,16.6330189 C34.5332264,16.6352831 34.5371887,16.6369811 34.5405849,16.6398114 C34.6373774,16.6969812 34.7392642,16.7501886 34.8422831,16.8022642 C34.8677547,16.814151 34.8932264,16.8271698 34.9192642,16.8390566 C34.947,16.8532075 34.9747358,16.8673585 35.0030377,16.8798113 C35.0398302,16.8973584 35.0800188,16.9103773 35.1179434,16.9267924 C35.1892642,16.9573585 35.2611509,16.9873584 35.3347358,17.0150944 C35.3596415,17.024151 35.3822831,17.0354717 35.4071886,17.0445282 C35.4502075,17.0603774 35.4949245,17.0728302 35.5379433,17.0875472 C35.5939811,17.1062265 35.6494528,17.1249057 35.7066226,17.1418868 C35.7303963,17.1498113 35.7530377,17.1583019 35.7768113,17.1650943 C35.8334151,17.1820755 35.892283,17.1956604 35.9500189,17.2109434 C35.9964339,17.2233962 36.042283,17.2358491 36.0898302,17.2471698 C36.1039811,17.2511321 36.1186982,17.2556604 36.1339811,17.2584905 C36.2324717,17.2822641 36.3326603,17.3020755 36.4334151,17.3207547 C36.4486981,17.3241509 36.4634151,17.3275471 36.4792641,17.3298113 C36.4809623,17.3303774 36.4832265,17.3309433 36.4854906,17.3315094 C36.6015282,17.3524528 36.7186981,17.3711321 36.837,17.3864151 C36.8500189,17.3881133 36.8636037,17.3892453 36.8766226,17.3909434 C36.9168114,17.3960378 36.956434,17.3988679 36.9966226,17.4033962 C37.061717,17.4107547 37.1268113,17.4192453 37.1919056,17.4249057 C37.2224717,17.4271698 37.2530377,17.4283019 37.2830377,17.430566 C37.332283,17.4345283 37.3815283,17.4373584 37.4313397,17.4401887 C37.4732265,17.4424528 37.5145471,17.445849 37.5564339,17.4475472 C37.6034151,17.4492453 37.6503962,17.4486793 37.6973774,17.4498114 C37.7494528,17.4509434 37.8015283,17.4520755 37.8541698,17.4520755 C37.8807736,17.4520755 37.9073773,17.4537735 37.9334151,17.4537735 C37.9945472,17.4532076 38.0545471,17.4492453 38.1156792,17.4481132 C38.1705849,17.445849 38.2260567,17.4452831 38.2809623,17.4430189 C38.2979434,17.4418867 38.3149246,17.4418867 38.3319057,17.4407547 C38.3930378,17.4373584 38.4536038,17.430566 38.5147359,17.4254718 C38.5832264,17.4198113 38.652849,17.415283 38.7207735,17.4079246 C38.7354906,17.4062264 38.7496416,17.4062264 38.7637925,17.4039623 C38.8062453,17.399434 38.847,17.3915095 38.8888867,17.385849 C38.9924717,17.3728302 39.0949245,17.3581132 39.1968113,17.340566 C39.2194529,17.3366038 39.2420943,17.3349057 39.2647359,17.3309433 C39.3247359,17.3196226 39.3824717,17.3060378 39.4419056,17.294151 C39.4877547,17.2839623 39.5341698,17.2754717 39.5794529,17.2652831 C39.687,17.2403774 39.792849,17.2126416 39.8975661,17.1832076 C39.9202075,17.1769811 39.9434151,17.1718867 39.9654905,17.1650943 C39.9688867,17.1639622 39.971717,17.1633963 39.9751132,17.1622642 C40.092849,17.1283019 40.2077547,17.0892453 40.3215283,17.0479246 C40.3543585,17.0366037 40.3860567,17.0235849 40.4183208,17.0111321 C40.5049245,16.9777359 40.5909622,16.9426416 40.6747359,16.9052831 C40.7081321,16.8911321 40.7403962,16.8769812 40.7720943,16.8616981 C40.8819056,16.8101887 40.9900189,16.7575472 41.0936037,16.6992453 C41.1586982,16.6630189 41.2215283,16.6256604 41.2820943,16.5871698 C41.2826603,16.5866037 41.2832264,16.5866037 41.2837925,16.5860378 C41.3653019,16.5345283 41.441151,16.4818868 41.5136038,16.4286792 C41.532283,16.4139623 41.5509623,16.4003774 41.5696415,16.3856604 C41.6307736,16.3386792 41.6885094,16.2911321 41.7439812,16.2430188 C41.7513397,16.2362264 41.7603963,16.23 41.7677547,16.2232075 L41.7768114,16.2147169 C41.8000189,16.1937735 41.8209623,16.1722642 41.8430377,16.1507547 C41.8668114,16.1275472 41.891151,16.1049056 41.9137925,16.0816981 C41.9341698,16.0601887 41.9534151,16.0381133 41.9732265,16.0154717 C41.9913396,15.9956604 42.0111509,15.9764151 42.0281321,15.9560378 C42.0309622,15.9526416 42.0337925,15.9486792 42.0371887,15.944151 C42.0479434,15.9316982 42.0586982,15.9175472 42.0688868,15.9039622 C42.0926603,15.8739623 42.115868,15.8445283 42.1379434,15.8145283 C42.1498302,15.7975471 42.161151,15.7816981 42.1724717,15.765283 C42.1826603,15.75 42.1945471,15.734717 42.2036038,15.7194339 C42.2086981,15.7120754 42.2120943,15.7041509 42.2171887,15.6967925 C42.2573774,15.6316981 42.2953019,15.5671698 42.327,15.5015095 C42.3275661,15.4998113 42.3286982,15.4981133 42.3292641,15.4969811 C42.3315283,15.4918868 42.3332265,15.4867924 42.3360566,15.4811321 C42.3626603,15.4239623 42.385868,15.3667925 42.4056793,15.3090566 C42.4085094,15.3 42.4136038,15.2920755 42.4158679,15.2830189 C42.4186982,15.2745283 42.4198302,15.2654718 42.4226604,15.2569812 C42.4396416,15.2026415 42.4549246,15.1471698 42.4656792,15.0911321 C42.4673774,15.0854718 42.4696415,15.0786792 42.4713397,15.0724529 C42.4713397,15.0707547 42.4713397,15.0696226 42.4719057,15.0673585 C42.4837925,15.0056604 42.4905849,14.9433962 42.4945472,14.8805661 C42.4951132,14.8749057 42.4968114,14.8686792 42.4973773,14.8630189" id="Fill-50" fill="#123155"></path>
                                <path d="M39.6052641,3.03424528 C38.6260188,3.56235849 37.0609245,3.54650944 36.1088491,3.00028302 C35.1573396,2.4540566 35.1794151,1.58349056 36.1586604,1.0559434 C37.1379056,0.528396227 38.703,0.543679245 39.6550755,1.08933962 C40.6071509,1.63613208 40.5839434,2.50669812 39.6052641,3.03424528 M39.9794151,0.868018868 C38.8535661,0.195 37.0009246,0.176320755 35.8433774,0.826698113 C34.6846981,1.47650944 34.6580943,2.54971698 35.7839434,3.22216982 C36.9097925,3.89518867 38.7624339,3.91443396 39.9211132,3.2640566 C41.0792264,2.61424529 41.1052641,1.54103774 39.9794151,0.868018868" id="Fill-52" fill="#CECDCC"></path>
                                <polygon id="Fill-54" fill="#123155" points="59.9533019 11.6491698 39.3529245 23.5999246 39.3529245 48.1082264 59.9533019 36.207283"></polygon>
                                <polygon id="Fill-56" fill="#2161AC" points="39.3532075 23.5652831 32.1254717 19.3924529 31.9760378 20.0428302 31.9771698 20.0439622 31.9766037 20.0711321 31.8781133 42.2218868 31.8781133 42.2224528 31.8696227 43.7230189 39.3532075 48.1081132"></polygon>
                                <polygon id="Fill-58" fill="#CECDCC" points="52.742434 7.44316982 32.1313019 19.3678867 32.1256416 19.3922265 39.3533774 23.6143018 59.942434 11.6493962"></polygon>
                                <path d="M36.3079812,34.4913396 L37.2753396,35.0494528 L37.266283,38.322283 L36.2977925,37.7636037 L36.3079812,34.4913396 Z M35.0626981,33.7719056 L36.0232641,34.3266227 L36.0142075,37.5994529 L35.0530754,37.0441698 L35.0626981,33.7719056 Z M33.7817547,33.0326604 L34.7779812,33.6077547 L34.7689246,36.8805849 L33.772132,36.3049245 L33.7817547,33.0326604 Z M37.5560943,38.6160566 L37.5668491,34.9079433 L33.6498679,32.6466226 L33.4896792,32.7400188 L33.4789245,36.447566 L37.3959057,38.7088867 L37.5560943,38.6160566 Z" id="Fill-60" fill="#E2E9EE"></path>
                                <path d="M35.0769623,28.5905094 L36.0380943,29.1446604 L36.0290377,32.4174906 L35.0673396,31.8622076 L35.0769623,28.5905094 Z M33.7960189,27.8506981 L34.7928114,28.4263584 L34.7831887,31.6986227 L33.7869622,31.1235283 L33.7960189,27.8506981 Z M37.2811132,33.1403207 L36.3137547,32.5822076 L36.3222453,29.3093774 L37.2901698,29.8680566 L37.2811132,33.1403207 Z M33.5045094,27.5557924 L33.4931887,31.2633396 L37.4107359,33.5246603 L37.5703584,33.4323962 L37.5811132,29.724283 L33.664132,27.4629623 L33.5045094,27.5557924 Z" id="Fill-62" fill="#E2E9EE"></path>
                                <path d="M33.6364528,38.2595661 L33.6370189,38.2595661 L33.6364528,38.2601321 L33.6262641,41.7169246 L33.6364528,38.2595661 Z M35.0770189,39.0916416 L36.038151,39.6463585 L36.0290943,42.9186226 L35.0673962,42.3639057 L35.0770189,39.0916416 Z M33.7960755,38.3518302 L34.7928679,38.9274906 L34.7832453,42.1997547 L33.7870189,41.6246603 L33.7960755,38.3518302 Z M37.2806038,43.6420189 L36.3132453,43.0827736 L36.3223018,39.8105095 L37.2902264,40.3697547 L37.2806038,43.6420189 Z M33.504566,38.0574905 L33.4932453,41.7644717 L37.4107924,44.0263585 L37.5704151,43.9323962 L37.5811698,40.2254151 L33.6641887,37.9640943 L33.504566,38.0574905 Z" id="Fill-64" fill="#E2E9EE"></path>
                                <path d="M35.3527925,23.3983585 L36.3144906,23.9530755 L36.3054339,27.2259057 L35.3437358,26.6706226 L35.3527925,23.3983585 Z M34.0724151,22.6585472 L35.0692075,23.2347736 L35.0590189,26.5064718 L34.0633585,25.9313774 L34.0724151,22.6585472 Z M37.5569434,27.9487359 L36.5895849,27.3900567 L36.5986416,24.1172265 L37.566,24.6759057 L37.5569434,27.9487359 Z M33.7803396,22.3642075 L33.770151,26.0717547 L37.6865661,28.3330755 L37.8461886,28.2402453 L37.8575095,24.5321321 L33.9405283,22.2708113 L33.7803396,22.3642075 Z" id="Fill-66" fill="#E2E9EE"></path>
                                <polygon id="Fill-68" fill="#123155" points="53.2681132 12.6652075 53.2556604 14.1204906 50.1062264 15.9510567 50.1181132 14.4952075"></polygon>
                                <polygon id="Fill-70" fill="#2161AC" points="50.1178868 14.4954339 50.106 15.950717 45.5199623 13.3033585 45.5318491 11.8475094"></polygon>
                                <polygon id="Fill-72" fill="#CECDCC" points="53.2681132 12.6652075 50.1181132 14.4952075 45.5320755 11.8478491 48.6815094 10.017283"></polygon>
                                <polygon id="Fill-74" fill="#123155" points="48.747 15.3129623 48.7351133 16.7688113 45.5851133 18.5993774 45.5975661 17.1429623"></polygon>
                                <polygon id="Fill-76" fill="#2161AC" points="45.5972831 17.1431887 45.5853963 18.5990377 40.9993584 15.9511132 41.0112453 14.4952641"></polygon>
                                <polygon id="Fill-78" fill="#CECDCC" points="48.747 15.3129623 45.5975661 17.1429623 41.0115282 14.4956038 44.1603962 12.6650377"></polygon>
                            </g>
                        </g>
                    </g>
                </g>
            </g>
        </g>
    </g>
</svg>