<?xml version="1.0" encoding="UTF-8"?>
<svg width="90px" height="90px" viewBox="0 0 90 90" version="1.1" xmlns="http://www.w3.org/2000/svg" xmlns:xlink="http://www.w3.org/1999/xlink">
    <!-- Generator: Sketch 54.1 (76490) - https://sketchapp.com -->
    <title>icon_2_4</title>
    <desc>Created with Sketch.</desc>
    <g id="Main-page" stroke="none" stroke-width="1" fill="none" fill-rule="evenodd">
        <g id="ScnSoft-COM-HomePage-1440_illustrations" transform="translate(-224.000000, -6547.000000)" fill-rule="nonzero">
            <g id="Industry" transform="translate(135.000000, 6166.000000)">
                <g id="5" transform="translate(89.000000, 381.000000)">
                    <g id="icon_2_4">
                        <rect id="Rectangle" fill="#FFFFFF" x="0" y="0" width="90" height="90"></rect>
                        <g id="Group-135" transform="translate(9.000000, 7.000000)">
                            <g id="Group-134" transform="translate(0.622642, 0.777359)">
                                <path d="M70.5902264,52.0340944 L70.599849,52.0340944 L70.599849,47.1729623 L61.5619246,44.8352265 L41.5219245,33.2654151 C38.1489057,31.3176793 33.0455094,31.1054151 30.1236227,32.7933396 L9.59739623,44.6433396 L0.0160754718,46.9125849 L0.0160754718,51.7114529 C0.00928301887,51.8184339 0.0115471698,51.9271132 0.0160754718,52.0340944 L0.0160754718,52.1088114 L0.0194716981,52.1088114 C0.115132075,53.3399433 1.0485283,54.6163584 2.7958868,55.6244717 L29.0838113,70.8027736 C32.4590944,72.7505095 37.5619245,72.9627736 40.4838113,71.2759811 L68.6306038,55.0244717 C70.0083396,54.2297547 70.6456981,53.1531509 70.5902264,52.0340944" id="Fill-2" fill="#BFC3C7"></path>
                                <path d="M68.6306604,49.9031887 L40.4838679,66.1546981 C37.5619811,67.8409245 32.459151,67.6286604 29.0844339,65.6814906 L2.79594339,50.5043208 C-0.578773585,48.5554528 -0.945,45.6097924 1.9768868,43.922434 L30.1236792,27.6720566 C33.045566,25.9846982 38.1483962,26.1963962 41.5219811,28.1441321 L67.8116038,43.3224339 C71.1863208,45.2696037 71.5525471,48.2169623 68.6306604,49.9031887" id="Fill-4" fill="#E9E8E7"></path>
                                <path d="M56.8786981,71.4253019 C56.562283,71.6075661 56.112849,71.6664339 55.7064339,71.6019057 C55.5037925,71.5702076 55.3141698,71.5079434 55.1545471,71.4162453 C54.8913397,71.2645471 54.7758679,71.0619057 54.7973774,70.8660566 L54.7911509,70.8660566 L54.7911509,67.5320944 L57.2177547,67.5320944 L57.2177547,70.8660566 C57.251717,71.067 57.1419057,71.2724718 56.8786981,71.4253019" id="Fill-6" fill="#2C2C2C"></path>
                                <path d="M56.8654528,67.0385094 C56.3854528,66.7605849 55.6133774,66.7566226 55.1407359,67.0294529 C54.6680943,67.3028491 54.6743208,67.7488868 55.1543207,68.0262453 C55.6337547,68.3036038 56.4058302,68.307566 56.8779057,68.0353019 C57.3505471,67.7619057 57.3454529,67.315868 56.8654528,67.0385094" id="Fill-8" fill="#E8E7E7"></path>
                                <path d="M56.7145472,67.2137547 C56.3183208,66.9845094 55.6803962,66.9816792 55.2898302,67.2063962 C54.8992642,67.4322453 54.9043584,67.8007359 55.3005849,68.0299811 C55.6968113,68.2597925 56.3347359,68.2631887 56.7258679,68.0373396 C57.1158679,67.8120566 57.1107736,67.443 56.7145472,67.2137547" id="Fill-10" fill="#E8E7E7"></path>
                                <path d="M56.5625094,67.803 C56.361,67.9196038 56.0740189,67.9563962 55.8142075,67.9156415 C55.6845849,67.8952642 55.5634529,67.8556416 55.4615661,67.7973397 C55.2940188,67.6999812 55.219868,67.5714906 55.2334528,67.4458302 L55.2300566,67.4458302 L55.2317547,36.8311132 L56.781,36.8311132 L56.7787359,67.4458302 C56.8008113,67.5743207 56.7306226,67.7056415 56.5625094,67.803" id="Fill-12" fill="#BFBEBE"></path>
                                <path d="M56.5558867,36.5156038 C56.2496603,36.339 55.7566415,36.3361698 55.4549433,36.5105094 C55.1526792,36.6848491 55.1566416,36.969566 55.462868,37.1467359 C55.7696604,37.3244718 56.2626792,37.3267359 56.5643773,37.1523963 C56.8660755,36.9780566 56.8626792,36.6927736 56.5558867,36.5156038" id="Fill-14" fill="#BFBEBE"></path>
                                <polygon id="Fill-16" fill="#123155" points="36.6036227 19.9794339 44.6600377 28.0064151 45.8504151 27.3164151 37.7368302 19.454151"></polygon>
                                <polygon id="Fill-18" fill="#2161AC" points="36.3499245 20.8506226 44.6604906 29.435151 44.6604906 28.0064717 36.6035094 19.9794906"></polygon>
                                <polygon id="Fill-20" fill="#123155" points="36.0331698 32.5179622 50.301283 49.0230566 51.4243018 48.3715472 37.1663774 31.9932453"></polygon>
                                <polygon id="Fill-22" fill="#2161AC" points="36.0397925 33.7296226 49.1492264 48.3616981 50.3011133 49.0233963 36.033 32.5177358"></polygon>
                                <polygon id="Fill-24" fill="#2161AC" points="25.0368679 30.730868 26.2317736 31.2589812 35.4876227 20.8659623 34.3544151 20.3418113"></polygon>
                                <polygon id="Fill-26" fill="#123155" points="26.232 31.2587547 27.3782264 30.7595094 35.742 21.738 35.4878491 20.8663019"></polygon>
                                <polygon id="Fill-28" fill="#2161AC" points="19.7126038 48.4344339 20.8803397 49.1125472 37.3509057 32.5916038 36.2176982 32.0668867"></polygon>
                                <polygon id="Fill-30" fill="#123155" points="20.7302264 48.9037359 21.9873963 48.3614717 37.6049434 33.4633585 37.3507925 32.5916604"></polygon>
                                <path d="M37.0673774,48.9391132 C36.418132,49.3143962 35.4960566,49.4343962 34.661151,49.3019434 C34.2468113,49.236283 33.8562453,49.1094905 33.5290755,48.9221321 C32.9896416,48.6096792 32.7519057,48.1953397 32.7971886,47.7928868 L32.7847359,47.7928868 L32.7847359,16.5091132 L37.7624717,13.8266604 L37.7624717,47.7928868 C37.8320944,48.2043963 37.6068113,48.6266603 37.0673774,48.9391132" id="Fill-32" fill="#2C2C2C"></path>
                                <polygon id="Fill-34" fill="#123155" points="42.6509434 18.4786982 50.4492453 49.1058679 51.4777359 48.4775661 43.7286793 17.967"></polygon>
                                <polygon id="Fill-36" fill="#2161AC" points="41.4099622 17.8070377 49.1986416 48.3945849 50.4495849 49.1060943 42.650717 18.4789246"></polygon>
                                <polygon id="Fill-38" fill="#CECDCC" points="41.4105283 17.813151 42.6518491 18.4850378 43.7290188 17.9665471 42.4876981 17.2952265"></polygon>
                                <polygon id="Fill-40" fill="#123155" points="20.8800566 49.112717 22.1293018 48.3468679 31.0274151 18.5110188 29.8370377 19.0629057"></polygon>
                                <polygon id="Fill-42" fill="#2161AC" points="19.7126038 48.4344339 20.8803397 49.1125472 29.8373207 19.0627358 28.7431698 18.3393396"></polygon>
                                <polygon id="Fill-44" fill="#CECDCC" points="28.7426604 18.3460189 29.8373774 19.0694151 31.0271887 18.5113018 29.9336037 17.7879056"></polygon>
                                <polygon id="Fill-46" fill="#123155" points="28.5010754 23.585151 35.8533396 36.381 37.0431509 35.691566 29.634283 23.0598679"></polygon>
                                <polygon id="Fill-48" fill="#2161AC" points="28.2473774 24.4569056 34.7013396 35.7193585 35.8537924 36.3810567 28.5009623 23.5852075"></polygon>
                                <polygon id="Fill-50" fill="#123155" points="23.8174528 39.2407358 34.4431133 56.8716792 35.5955661 56.1601698 24.9506604 38.7154529"></polygon>
                                <polygon id="Fill-52" fill="#2161AC" points="23.6013396 40.1340567 33.2913397 56.2100944 34.4432264 56.8717925 23.8549245 39.2629245"></polygon>
                                <polygon id="Fill-54" fill="#2161AC" points="34.9806793 32.8711698 35.8721887 34.0728679 43.3257736 21.039849 42.1925661 20.5145661"></polygon>
                                <polygon id="Fill-56" fill="#123155" points="35.8723018 34.0729245 37.0241887 33.4106604 43.5800377 21.9110377 43.3258867 21.0399057"></polygon>
                                <polygon id="Fill-58" fill="#2161AC" points="34.4433963 56.8719622 35.595283 57.5404528 47.5698113 37.473849 46.4366038 36.9496981"></polygon>
                                <polygon id="Fill-60" fill="#123155" points="35.5953397 57.5402264 36.7466603 56.8785282 47.8240188 38.3458868 47.569868 37.4741887"></polygon>
                                <polygon id="Fill-62" fill="#123155" points="35.5936981 57.6010755 36.7835094 56.9110755 37.3953963 21.9367359 36.2055849 22.4886226"></polygon>
                                <polygon id="Fill-64" fill="#2161AC" points="34.4417547 56.9393774 35.5936415 57.6010755 36.2049623 22.494849 35.1113774 21.7714528"></polygon>
                                <polygon id="Fill-66" fill="#949A75" points="34.5384905 16.005 35.5862264 16.5093396 36.7930189 15.855566 35.745849 15.3517924"></polygon>
                                <polygon id="Fill-68" fill="#2161AC" points="36.249849 14.126151 28.6926792 18.4874718 28.1770188 18.1903019 28.1770188 18.7863396 36.249849 23.4470943 44.3226793 18.7863396 44.3226793 18.1903019 43.8070189 18.4874718"></polygon>
                                <polygon id="Fill-70" fill="#CECDCC" points="28.1766226 18.1901321 36.2500188 22.8508867 44.322849 18.1901321 36.2500188 13.5293774"></polygon>
                                <polygon id="Fill-72" fill="#123155" points="36.249849 23.4469812 44.3226793 18.7867925 44.3232453 18.1901886 36.249849 22.8509434"></polygon>
                                <polygon id="Fill-74" fill="#123155" points="17.5617735 14.440132 17.582151 19.1065472 23.6710189 15.4374906 23.6483774 10.973717"></polygon>
                                <polygon id="Fill-76" fill="#CECDCC" points="15.7558302 13.4517736 17.5614906 14.4400755 23.6480944 10.9736604 21.8424339 9.98535849"></polygon>
                                <polygon id="Fill-78" fill="#2161AC" points="15.7586037 13.450132 15.7761509 18.1176792 17.5823774 19.1065472 17.5648302 14.438434"></polygon>
                                <polygon id="Fill-80" fill="#2C2C2C" points="22.4896981 6.60956603 22.518 11.0965472 22.8661132 10.9074906 22.8378113 6.42050943"></polygon>
                                <polygon id="Fill-82" fill="#4A4A4A" points="21.8219433 6.20937735 21.8496793 10.6963585 22.5176037 11.0965472 22.4898679 6.60956603"></polygon>
                                <polygon id="Fill-84" fill="#4A4A4A" points="21.8219433 6.21322641 21.8496793 10.6962453 22.5176037 11.096434 22.4898679 6.61284905"></polygon>
                                <polygon id="Fill-86" fill="#2C2C2C" points="17.2798302 9.47626415 17.3081321 13.9638113 17.6562453 13.7747547 17.6279433 9.28720755"></polygon>
                                <polygon id="Fill-88" fill="#989898" points="16.6120754 9.07658491 16.6403773 13.5635661 17.3077358 13.9637547 17.28 9.47620755"></polygon>
                                <polygon id="Fill-90" fill="#4A4A4A" points="16.6120754 9.07992453 16.6403773 13.5635094 17.3077358 13.9636981 17.2805661 9.4801132"></polygon>
                                <polygon id="Fill-92" fill="#2C2C2C" points="17.393151 9.98535849 22.794283 6.90894339 22.8554151 6.29479246 17.2799434 9.47649056"></polygon>
                                <polygon id="Fill-94" fill="#CECDCC" points="16.6120754 9.07658491 17.28 9.47620755 22.8452831 6.34601886 22.0488679 5.94752831"></polygon>
                                <polygon id="Fill-96" fill="#2C2C2C" points="19.8905661 5.51564151 19.8911321 8.03167925 20.5364151 7.67733962 20.535283 5.31356603"></polygon>
                                <polygon id="Fill-98" fill="#CECDCC" points="19.1111887 5.12043396 19.1123208 7.63307547 19.8911886 8.03213208 19.8906227 5.51892453"></polygon>
                                <path d="M37.5720566,12.7408868 C37.3937547,12.729566 37.2296038,12.759566 37.082434,12.8252264 C37.0473396,12.8410755 37.0133774,12.8591887 36.9799811,12.879 L36.9805472,12.8784339 L36.9731886,12.8829623 L36.9726227,12.8829623 L36.1535661,13.3669246 L36.5696038,13.3120189 C36.3313018,13.7269246 36.2486604,14.333151 36.3822453,15.0225849 C36.6358302,16.3222075 37.5624339,17.4225849 38.4641321,17.5080567 L38.3645094,17.8001321 L39.033,17.4061698 C39.0726226,17.3863585 39.1116793,17.363717 39.1484717,17.3382453 L39.1722453,17.3240943 L39.167717,17.3240943 C39.6505472,16.9748491 39.8769623,16.1818302 39.6918679,15.2314528 C39.4348868,13.913717 38.4862076,12.7991887 37.5720566,12.7408868" id="Fill-100" fill="#123155"></path>
                                <path d="M36.7296792,13.2389434 C35.8160944,13.1806416 35.2834528,14.2023397 35.5398679,15.5200755 C35.7974151,16.8378114 36.7455282,17.9534717 37.6602453,18.0112076 C38.5738302,18.0689433 39.1059057,17.0478113 38.8494905,15.7295094 C38.5925094,14.4117735 37.6438302,13.2966792 36.7296792,13.2389434" id="Fill-102" fill="#2161AC"></path>
                                <polygon id="Fill-104" fill="#989898" points="18.3809434 4.91309434 53.0388679 32.8357359 54.6079245 30.483283 18.3764151 1.248"></polygon>
                                <polygon id="Fill-106" fill="#2C2C2C" points="19.0155282 4.79371698 52.9370378 32.0880567 53.9525094 30.5801321 19.0155282 2.41013208"></polygon>
                                <polygon id="Fill-108" fill="#B2B2B2" points="19.416849 2.74681133 19.0155282 2.41001887 19.0155282 4.79360377 52.9370378 32.0879434 53.0943962 31.8541698 19.4117547 4.76416981"></polygon>
                                <polygon id="Fill-110" fill="#CECDCC" points="18.3765282 1.24822641 22.796717 5.0384151 54.6091698 30.4953962 56.0474717 29.6265282 19.8142641 0.379358491"></polygon>
                                <polygon id="Fill-112" fill="#121312" points="53.039151 32.8357925 54.1027359 32.2029622 56.0589623 29.6280566 54.6076416 30.4833397"></polygon>
                                <path d="M33.5849433,15.0199811 C33.4060754,15.0086604 33.2419245,15.0386603 33.0953207,15.1037547 C33.0596604,15.1201698 33.0262641,15.138283 32.9928679,15.1575283 L32.9928679,15.1569622 L32.9860755,15.1614905 L32.9849434,15.1620566 L32.1658867,15.6454528 L32.5824906,15.5905471 C32.3436226,16.0054528 32.2609811,16.6122453 32.3945661,17.3011132 C32.6487169,18.6013018 33.5747547,19.7016792 34.4770188,19.787151 L34.3773962,20.0786603 L35.0453208,19.6852641 C35.0849434,19.6648867 35.124,19.6428113 35.1607924,19.6167736 L35.1845661,19.6031886 L35.1800378,19.6026227 C35.662868,19.2539434 35.889283,18.4603585 35.7041886,17.5105472 C35.4477736,16.1928113 34.4985283,15.077717 33.5849433,15.0199811" id="Fill-114" fill="#123155"></path>
                                <path d="M32.7425094,15.5174718 C31.8289245,15.4597359 31.295717,16.481434 31.5521321,17.7991698 C31.8096792,19.1169057 32.7583585,20.232 33.6725095,20.2903019 C34.5860943,20.3474717 35.1181698,19.3263396 34.8617547,18.0080378 C34.6053397,16.6903019 33.6560944,15.5757736 32.7425094,15.5174718" id="Fill-116" fill="#2161AC"></path>
                                <path d="M54.4465472,24.2086981 C54.4465472,24.2086981 51.8795661,28.2219057 51.6333397,32.1960567 C51.3882453,36.1707736 52.2180566,38.4915282 52.2180566,38.4915282 L53.4112641,39.1045472 L58.2265472,32.1298302 L56.4463585,25.4981321 L54.4465472,24.2086981 Z" id="Fill-118" fill="#2161AC"></path>
                                <polygon id="Fill-120" fill="#CECDCC" points="54.4465472 24.2086981 56.4463585 25.4981321 58.8814528 24.1068113 56.8810755 22.8179434"></polygon>
                                <polygon id="Fill-122" fill="#123155" points="53.4112075 39.1047736 55.8457358 37.7134528 57.8030944 35.4894906 60.4600754 30.7387359 58.0255471 32.1300566"></polygon>
                                <polygon id="Fill-124" fill="#2C2C2C" points="54.8036038 38.9577169 57.372283 37.8058302 61.5083207 33.7377169 58.391717 35.284132"></polygon>
                                <polygon id="Fill-126" fill="#828282" points="57.7990755 30.6125661 57.252849 30.2259623 56.8203962 30.432 54.8036038 38.9576604 60.5358679 32.4974717 60.7141698 30.2293585 60.178132 29.397849"></polygon>
                                <polygon id="Fill-128" fill="#5B5B5B" points="56.8206792 30.4317735 54.4467169 33.8930943 53.9282264 38.1525283 54.8038868 38.958 58.3914339 35.283849 58.226151 31.338"></polygon>
                                <path d="M54.9915283,37.6891132 C54.9915283,37.6891132 54.9920943,37.6885472 54.9926604,37.6885472 C54.9920943,37.6874151 54.9909622,37.6862831 54.9903963,37.6845849 C54.972283,37.6166604 54.9400189,37.550434 54.8981321,37.4893019 C54.8941698,37.4842075 54.8936038,37.4774151 54.8896415,37.4717547 C54.8885094,37.4723208 54.8868113,37.4728868 54.8862453,37.4734529 C54.8403962,37.4111887 54.7883208,37.3545849 54.7277547,37.3206226 C54.7005849,37.3042075 54.6745472,37.295717 54.6496415,37.2889246 L54.6485094,37.2928868 C54.5324718,37.2657169 54.4464339,37.325717 54.4464339,37.4779812 C54.4464339,37.6302453 54.6383208,37.9211887 54.7560566,37.9698679 C54.8737925,38.0179812 54.941151,37.9959057 54.9819057,37.9194906 L54.9830377,37.9200567 C54.9836038,37.9194906 54.9836038,37.9183585 54.9836038,37.9177925 C55.0000189,37.8872265 55.0096415,37.8487359 55.0096415,37.8023207 C55.0096415,37.7660943 55.001151,37.7270378 54.9915283,37.6891132" id="Fill-130" fill="#CECDCC"></path>
                                <path d="M57.5652453,32.0480943 L57.5669434,32.0480943 C57.5663774,32.0463962 57.5652453,32.0452641 57.5646792,32.044132 C57.5465661,31.9756415 57.5137359,31.9099811 57.4724151,31.848283 C57.4684528,31.8431886 57.4673207,31.8363962 57.4633585,31.8307359 C57.4627924,31.8318679 57.4610944,31.8318679 57.4599623,31.833 C57.4146792,31.7707358 57.3626038,31.7141321 57.3020378,31.6796037 C57.2743018,31.6637547 57.2482642,31.6546982 57.2233585,31.6484717 L57.2227925,31.6518679 C57.1061886,31.6246981 57.0207169,31.6846981 57.0207169,31.8369623 C57.0207169,31.9892264 57.2126037,32.2801698 57.3303397,32.3288491 C57.4480755,32.3775283 57.5154339,32.3554528 57.5561886,32.2790377 L57.5573207,32.2790377 C57.5578868,32.2784717 57.5573207,32.2773396 57.5578868,32.2767735 C57.5743019,32.2462075 57.5833585,32.208283 57.5833585,32.1613019 C57.5833585,32.1250755 57.575434,32.0860189 57.5652453,32.0480943" id="Fill-132" fill="#CECDCC"></path>
                            </g>
                        </g>
                    </g>
                </g>
            </g>
        </g>
    </g>
</svg>