<?xml version="1.0" encoding="UTF-8"?>
<svg width="90px" height="90px" viewBox="0 0 90 90" version="1.1" xmlns="http://www.w3.org/2000/svg" xmlns:xlink="http://www.w3.org/1999/xlink">
    <!-- Generator: Sketch 54.1 (76490) - https://sketchapp.com -->
    <title>icon_2_6</title>
    <desc>Created with Sketch.</desc>
    <g id="Main-page" stroke="none" stroke-width="1" fill="none" fill-rule="evenodd">
        <g id="ScnSoft-COM-HomePage-1440_illustrations" transform="translate(-1125.000000, -6363.000000)" fill-rule="nonzero">
            <g id="Industry" transform="translate(135.000000, 6166.000000)">
                <g id="4" transform="translate(990.000000, 197.000000)">
                    <g id="icon_2_6">
                        <rect id="Rectangle" fill="#FFFFFF" x="0" y="0" width="90" height="90"></rect>
                        <g id="Group-119" transform="translate(9.000000, 12.000000)">
                            <g id="Group-118" transform="translate(0.622642, 0.871698)">
                                <path d="M70.5897735,46.9397547 L70.5999623,46.9397547 L70.5999623,42.0786226 L61.5614718,39.7408868 L41.5220377,28.1710755 C38.1490188,26.2233396 33.0456226,26.0110755 30.1237358,27.699 L9.59750943,39.549 L0.0161886793,41.8182453 L0.0161886793,46.6171132 C0.00939622641,46.7240944 0.0116603774,46.8327736 0.0161886793,46.9397547 L0.0161886793,47.0144717 L0.0195849057,47.0144717 C0.114679245,48.2456038 1.04864151,49.5220189 2.796,50.530132 L29.0839245,65.7084339 C32.4592075,67.6561698 37.5620377,67.8684339 40.4839246,66.1816416 L68.630151,49.9301321 C70.0084529,49.1354151 70.6458113,48.0588114 70.5897735,46.9397547" id="Fill-2" fill="#BFC3C7"></path>
                                <path d="M68.6307736,44.808849 L40.4839812,61.0603584 C37.5620944,62.7465849 32.4592641,62.5343207 29.0839811,60.5871509 L2.7960566,45.4099811 C-0.579226415,43.4611133 -0.944886793,40.5154529 1.977,38.8280943 L30.1237925,22.5777169 C33.0456793,20.8903585 38.1485094,21.1020566 41.5220944,23.0497925 L67.8117169,38.2280944 C71.1864339,40.1752642 71.5526604,43.1226226 68.6307736,44.808849" id="Fill-4" fill="#E9E8E7"></path>
                                <path d="M39.9712641,49.505151 C39.8665472,49.446283 39.7646604,49.4015661 39.6656038,49.3664718 L39.6633397,49.3676038 C39.3123963,49.2419434 38.9988113,49.2526981 38.7582453,49.3874151 L38.7565471,49.3834528 L38.1769245,49.7219433 L38.1814528,49.7293019 C37.8899434,49.9149622 37.7116415,50.2840189 37.7184339,50.8070377 C37.7308868,51.8893019 38.5199434,53.2025095 39.4799433,53.7396792 C39.9622076,54.0102453 40.3963584,54.0317547 40.7071133,53.8494906 L40.7076792,53.8500567 L41.2318302,53.5443962 C41.2386227,53.5404339 41.2454151,53.5359056 41.2527736,53.5319434 L41.2782453,53.5172264 L41.2771132,53.5149622 C41.4508868,53.4017547 41.5771132,53.2143962 41.6529622,52.9743963 L41.663717,52.9676038 C41.6744717,52.9347736 41.679,52.895151 41.6869245,52.8600567 C41.694283,52.8277924 41.7027736,52.7972264 41.7073019,52.7638302 C41.724283,52.6625095 41.7344718,52.5560944 41.7327736,52.4389245 C41.7197547,51.3560943 40.9306981,50.0423207 39.9712641,49.505151" id="Fill-6" fill="#2A2A2A"></path>
                                <path d="M37.7850567,50.8445095 C37.7975094,51.8854528 38.556,53.147717 39.4786416,53.6639433 C40.401283,54.1813019 41.1393963,53.7562075 41.1263774,52.7152641 C41.1139246,51.6743208 40.3554339,50.4114906 39.4327925,49.8946981 C38.5101509,49.3784717 37.7726037,49.803566 37.7850567,50.8445095" id="Fill-8" fill="#ADADAD"></path>
                                <path d="M38.1586981,51.0534905 C38.1688867,51.8617925 38.7575661,52.8416038 39.4736037,53.2429245 C40.1902075,53.6442453 40.7630377,53.3136793 40.7528491,52.5053773 C40.7426603,51.6976415 40.1539811,50.7172641 39.4379434,50.3159433 C38.7213396,49.9151886 38.1485094,50.2451887 38.1586981,51.0534905" id="Fill-10" fill="#2C2C2C"></path>
                                <path d="M40.6367547,52.7394339 C40.6548679,52.6533962 40.6661887,52.5605661 40.6650567,52.4564151 C40.6639246,52.3630189 40.6537358,52.2662264 40.6367547,52.168868 C40.6316604,52.1383019 40.6214717,52.1083018 40.6141132,52.0771698 L40.6175094,52.0754718 C40.610717,52.0471698 40.6005283,52.0188679 40.5931698,51.990566 C40.5824151,51.9515095 40.5767547,51.9135849 40.5643019,51.8756603 C40.5586416,51.8592453 40.551849,51.8439623 40.5461886,51.8286793 C40.5314717,51.7856603 40.5139245,51.7437735 40.4969433,51.7013208 C40.4816603,51.6622641 40.4686416,51.6215094 40.4510944,51.5830189 C40.446,51.5716982 40.4397735,51.5620755 40.4352453,51.5513208 C40.4109057,51.4998113 40.3820378,51.4494339 40.3543018,51.3984906 C40.3367547,51.3656604 40.3214718,51.3322641 40.3022264,51.3 C40.2982641,51.2937735 40.2948679,51.2886793 40.2914717,51.2824528 C40.2461887,51.2077359 40.1963774,51.1364151 40.144868,51.0667925 C40.1375094,51.0560378 40.131283,51.045849 40.1239246,51.0356604 C40.1222264,51.0328302 40.1205282,51.03 40.1188302,51.0283018 C40.0746793,50.97 40.025434,50.9173584 39.9778867,50.864151 C39.9575094,50.8409434 39.9393962,50.8166038 39.9184528,50.7945282 C39.8675094,50.7418867 39.8126038,50.6949057 39.7576981,50.6473584 C39.7356227,50.6286792 39.7152453,50.6060378 39.6926038,50.5879245 C39.6388302,50.5454718 39.5833585,50.5103774 39.5273208,50.474717 C39.5029812,50.4594339 39.4792075,50.4396226 39.4543018,50.4249057 L39.4537359,50.4254717 C39.4486415,50.4226416 39.4441132,50.4181133 39.4390189,50.415849 C38.7710943,50.0416982 38.2373208,50.3490567 38.2463774,51.1024528 C38.2463774,51.1149056 38.2497736,51.1279245 38.2497736,51.1403774 L38.2486415,51.1415095 C38.2497736,51.1658491 38.2554339,51.1918867 38.2576981,51.2167924 C38.2627925,51.2830189 38.2678867,51.3498113 38.2809056,51.4177358 C38.2865661,51.4449057 38.2950566,51.4720755 38.301283,51.4992453 C38.317132,51.5694339 38.3341132,51.6396226 38.3573208,51.7098113 C38.3658114,51.7369811 38.3788302,51.7635849 38.3884528,51.7913208 C38.4144906,51.8609434 38.4399622,51.9305661 38.4722265,51.9984905 C38.4727924,52.0007547 38.4733585,52.0024528 38.4739245,52.004151 C38.4744906,52.004717 38.4744906,52.004717 38.4744906,52.0052831 C38.4756227,52.0075472 38.4767547,52.0092453 38.4778868,52.0115094 C38.4976981,52.0539623 38.5226038,52.094717 38.5446793,52.1366037 C38.570151,52.184151 38.5933585,52.2322641 38.6205283,52.2781132 C38.6426038,52.3132075 38.6675095,52.3454718 38.6901509,52.3788679 C38.6969433,52.3907547 38.7054339,52.4020755 38.7133584,52.4133962 C38.7365661,52.4467925 38.7575095,52.4824528 38.7818491,52.515283 C38.7880754,52.5232075 38.7937359,52.5322642 38.8005283,52.5401887 C38.8305283,52.5792453 38.8633585,52.6137736 38.8956226,52.6505661 C38.8961887,52.6516982 38.8973208,52.6528302 38.8978867,52.6539623 C38.9244906,52.6839623 38.9499623,52.7167925 38.9771321,52.7462265 C38.9867547,52.755849 38.9958114,52.7671698 39.0048679,52.7767925 C39.0376981,52.8107547 39.0727925,52.8384906 39.1067547,52.8690567 C39.1293962,52.89 39.1503397,52.9137735 39.1729811,52.9330189 L39.1758114,52.9318868 C39.1939245,52.9471698 39.2114717,52.9658491 39.230717,52.9811321 C39.3088302,53.0422641 39.3897736,53.0971698 39.4724151,53.1435849 C39.5686416,53.1979245 39.6609057,53.2335849 39.7509057,53.2596226 C39.755434,53.2613208 39.7605282,53.264717 39.7656226,53.265849 L39.7695849,53.2635849 C40.2014717,53.3818868 40.536,53.1854717 40.6333585,52.7507547 L40.6361886,52.7496227 C40.6367547,52.7462265 40.6361886,52.7428302 40.6367547,52.7394339" id="Fill-12" fill="#2161AC"></path>
                                <polygon id="Fill-14" fill="#ADADAD" points="39.7816415 49.2796416 39.6106982 52.4047359 40.269 51.9371887 41.7350377 49.932283"></polygon>
                                <polygon id="Fill-16" fill="#777777" points="39.2615095 49.4227925 38.9315094 51.830717 39.6107547 52.4046793 41.0762264 50.3992075"></polygon>
                                <path d="M49.772434,43.5949245 C49.6677169,43.5360567 49.5658302,43.4913396 49.4667735,43.4562453 L49.4645094,43.4573774 C49.1135661,43.3317169 48.7999812,43.3424717 48.5594151,43.4771887 L48.557717,43.4732264 L47.9780943,43.811717 L47.9826226,43.8190754 C47.6911133,44.0047359 47.5128113,44.3737925 47.5196037,44.8968113 C47.5320567,45.9790754 48.3211133,47.292283 49.2811132,47.8294528 C49.7633774,48.1000189 50.1975283,48.1215282 50.508283,47.9392641 L50.508283,47.9398302 L51.033,47.6341698 C51.0397925,47.6302076 51.0465849,47.6256793 51.0539433,47.621717 L51.0794151,47.6064339 L51.0782831,47.6047359 C51.2520566,47.4915282 51.378283,47.3041698 51.4541321,47.0641698 L51.4648868,47.0573774 C51.4756416,47.0245472 51.4801698,46.9849245 51.4880943,46.9498302 C51.4954529,46.9175661 51.5039433,46.887 51.5084718,46.8536037 C51.5254528,46.752283 51.5356415,46.6458679 51.5339434,46.5286981 C51.5209245,45.445868 50.7318679,44.1320944 49.772434,43.5949245" id="Fill-18" fill="#2A2A2A"></path>
                                <path d="M47.5862264,44.934283 C47.5986793,45.9752264 48.3571698,47.2374905 49.2798113,47.753717 C50.2024528,48.2710755 50.9405661,47.8459812 50.9269811,46.8050377 C50.9150943,45.7640943 50.1566037,44.5006981 49.2339623,43.9844718 C48.3113208,43.4682453 47.5737736,43.8933397 47.5862264,44.934283" id="Fill-20" fill="#ADADAD"></path>
                                <path d="M47.9598679,45.1432642 C47.9700566,45.951566 48.5587359,46.9313774 49.2747736,47.3326982 C49.9913774,47.7340188 50.5642076,47.4034528 50.5540189,46.595151 C50.5438302,45.7874151 49.955151,44.8070377 49.2391133,44.405717 C48.5225095,44.0049623 47.9496793,44.3349622 47.9598679,45.1432642" id="Fill-22" fill="#2A2A2A"></path>
                                <path d="M50.4379812,46.8292076 C50.4560943,46.7431698 50.4674151,46.6503396 50.4662831,46.5461887 C50.465151,46.4522264 50.4549622,46.356 50.4379812,46.2586415 C50.4328868,46.2280755 50.4226981,46.1975094 50.4153396,46.1669433 L50.4187358,46.1652453 C50.4119434,46.1363774 50.4017547,46.1080755 50.3938302,46.0792075 C50.3836415,46.0407169 50.3779811,46.0033584 50.3649622,45.965434 C50.359868,45.9490189 50.3530754,45.9343018 50.3474151,45.9184528 C50.3326981,45.875434 50.315151,45.8335472 50.2981698,45.7910943 C50.2823208,45.7514717 50.269868,45.711283 50.2523208,45.6727924 C50.2472264,45.6614717 50.241,45.651849 50.2359057,45.6405283 C50.2121321,45.5895849 50.1838302,45.5403397 50.1560943,45.4899623 C50.1385472,45.456566 50.1226982,45.4226037 50.1034528,45.3903396 C50.0994905,45.3835472 50.0960943,45.3778867 50.0921321,45.3716604 C50.0474151,45.2980755 49.9981698,45.2267547 49.9472265,45.1576981 C49.9393018,45.1469434 49.9325094,45.1356227 49.925151,45.1254339 C49.9234528,45.1226038 49.9217547,45.1197735 49.9194905,45.1180755 C49.8725095,45.0558113 49.8204339,44.9992075 49.7689245,44.9420377 C49.7525094,44.9239245 49.7372264,44.9029812 49.7196792,44.8848679 C49.6664717,44.8293963 49.6093019,44.780151 49.5526981,44.7314718 C49.5323208,44.7144906 49.5142075,44.6946792 49.4938302,44.6782641 C49.4389246,44.6341132 49.3811887,44.5984528 49.3240189,44.5616604 C49.3008114,44.5469433 49.2787359,44.5282641 49.2555282,44.5146792 L49.2549623,44.5152453 C49.2498679,44.5124151 49.2453396,44.5078868 49.2402453,44.5056227 C48.5723208,44.1309056 48.0385472,44.4388302 48.0476038,45.1922264 C48.0476038,45.2046793 48.051,45.2176982 48.051,45.230151 L48.0498679,45.2307169 C48.0504339,45.2567547 48.0566604,45.2833584 48.0589245,45.3088302 C48.0645849,45.3750566 48.0691133,45.4401509 48.082132,45.5075095 C48.0877925,45.5346792 48.096283,45.5624151 48.1030754,45.590151 C48.1189245,45.6603396 48.1353396,45.7299622 48.1585472,45.7995849 C48.1670378,45.8267547 48.1800567,45.8533585 48.1896792,45.8805282 C48.215151,45.950151 48.2411886,46.0197735 48.2728868,46.0882642 C48.2740188,46.0905283 48.2745849,46.0922264 48.2751509,46.0939245 C48.2751509,46.0944905 48.275717,46.0944905 48.275717,46.0950566 C48.2779812,46.100151 48.2808113,46.1052453 48.2836415,46.1097735 C48.3023208,46.1488302 48.3238302,46.1850566 48.3442075,46.2235472 C48.3702453,46.2716604 48.3940189,46.3209057 48.4217547,46.3678867 C48.4438302,46.4029811 48.4681698,46.4352453 48.4908114,46.4686415 C48.4981698,46.4805283 48.5060944,46.491849 48.5145849,46.5031698 C48.5372264,46.536566 48.5587359,46.5722265 48.5830755,46.6050567 C48.5887359,46.6129812 48.5949623,46.6220377 48.6017547,46.6299622 C48.6323208,46.6695849 48.665717,46.7046792 48.6979811,46.7426038 C48.6985472,46.7431698 48.6991133,46.7437359 48.7002453,46.7443018 C48.726283,46.7748679 48.7511887,46.806566 48.7777924,46.836 C48.7879811,46.8456227 48.7964717,46.8569434 48.8060943,46.8665661 C48.8394905,46.9010943 48.875151,46.9293962 48.9102453,46.9610943 C48.9317547,46.9814718 48.9521321,47.0041132 48.9742075,47.0227924 L48.9764717,47.0216604 C48.9951509,47.0369434 49.0121321,47.0556226 49.0319434,47.0709057 C49.1094905,47.1320378 49.191,47.1869434 49.2730754,47.2333585 C49.369868,47.2876982 49.4621321,47.3233585 49.5521321,47.3493963 C49.5566604,47.3510943 49.5617547,47.3544905 49.566849,47.3556226 L49.5708114,47.3533584 C50.0026981,47.4716604 50.3372264,47.2752453 50.4345849,46.8405283 L50.4368491,46.8393962 C50.4379812,46.836 50.4374151,46.8320377 50.4379812,46.8292076" id="Fill-24" fill="#2161AC"></path>
                                <path d="M34.5037924,33.1160377 C34.3985094,33.0571698 34.2971887,33.0124528 34.197566,32.9767925 L34.1953019,32.9784906 C33.8449245,32.8528302 33.5313396,32.8635849 33.2902075,32.9983019 L33.2885094,32.9943397 L32.7094528,33.3328302 L32.7134151,33.3396226 C32.4219056,33.5258491 32.2436038,33.8943397 32.2503962,34.4173585 C32.2634151,35.5001887 33.0524717,36.8133962 34.0119057,37.3505661 C34.4947359,37.6211321 34.9283208,37.6426416 35.2390755,37.4603774 L35.2396416,37.4609434 L35.7637924,37.1552831 C35.7705849,37.1513208 35.7779434,37.1467925 35.7853019,37.1428302 L35.8102075,37.1275471 L35.8090754,37.1258491 C35.9834151,37.0126416 36.1090755,36.8247169 36.1854905,36.585283 L36.1956793,36.5784906 C36.2064339,36.5450944 36.2115283,36.5060377 36.2194528,36.4703774 C36.2262453,36.4381132 36.2347358,36.4075471 36.2398302,36.3747169 C36.2562453,36.2728302 36.2664339,36.1664151 36.2647359,36.0498113 C36.252283,34.9669812 35.4632264,33.6532076 34.5037924,33.1160377" id="Fill-26" fill="#2A2A2A"></path>
                                <path d="M32.3170188,34.4548868 C32.3294718,35.4958302 33.0879623,36.7580943 34.0106037,37.2748868 C34.9338113,37.7916792 35.6713584,37.3665849 35.6583397,36.3256415 C35.6458868,35.2846981 34.8873962,34.0218679 33.9647547,33.5056415 C33.0421132,32.988849 32.3045661,33.4139433 32.3170188,34.4548868" id="Fill-28" fill="#ADADAD"></path>
                                <path d="M32.690717,34.6643774 C32.7009056,35.4726792 33.2895849,36.4524906 34.0056226,36.8538114 C34.7222264,37.2545661 35.2950566,36.924566 35.284868,36.1162642 C35.2746792,35.3085283 34.686,34.328151 33.9699623,33.9268302 C33.2533585,33.5255094 32.6805283,33.8560754 32.690717,34.6643774" id="Fill-30" fill="#2C2C2C"></path>
                                <path d="M35.1693396,36.3497547 C35.1874529,36.2642831 35.1982075,36.1708867 35.1970754,36.0673019 C35.1959433,35.9733397 35.1863208,35.8771132 35.1693396,35.7791887 C35.1636792,35.7491886 35.1534906,35.7186226 35.1466982,35.6880567 L35.1495283,35.6863585 C35.1433018,35.6574906 35.1325472,35.6291887 35.1251887,35.6003208 C35.1144339,35.5618302 35.1087736,35.5239057 35.0963208,35.4859811 C35.0912264,35.4701321 35.0838679,35.454849 35.0787736,35.439566 C35.0640566,35.3965472 35.0465094,35.3552264 35.0295283,35.3127736 C35.0136792,35.273151 35.0006603,35.2323962 34.9831133,35.1933396 C34.9780189,35.1825849 34.9717924,35.1723963 34.9672641,35.1616415 C34.9429245,35.1106982 34.9146226,35.0614529 34.8874528,35.0110755 C34.8693396,34.9776792 34.8534905,34.9437169 34.8342453,34.9108867 C34.8308491,34.9046604 34.8274529,34.899 34.8234906,34.8933397 C34.7793396,34.8197547 34.7306603,34.7501321 34.6802831,34.6816416 C34.6717925,34.6697547 34.6644339,34.6573018 34.6559433,34.6459811 C34.6542453,34.643717 34.6525471,34.6408867 34.6508491,34.6386226 C34.6044339,34.5780566 34.5540567,34.5225849 34.5036793,34.4676793 C34.4861321,34.447868 34.469717,34.4252264 34.4510378,34.4059811 C34.3972642,34.3499433 34.3395283,34.3001321 34.2823585,34.2508868 C34.2625472,34.2344717 34.245,34.2152265 34.2251887,34.1993773 C34.1685849,34.1540943 34.110283,34.1178679 34.0514151,34.0799433 C34.0293397,34.0663585 34.0089623,34.0488113 33.9868868,34.0357924 L33.9857547,34.0363585 C33.9806604,34.0329623 33.9766982,34.029 33.9716038,34.0267359 C33.3036792,33.6520189 32.7699057,33.9599434 32.7783963,34.7133397 C32.7789622,34.7257925 32.7817925,34.7382453 32.7823584,34.7512641 L32.7806604,34.7518302 C32.7817925,34.7773019 32.7880189,34.8039057 32.7902831,34.8293773 C32.7953773,34.8956038 32.8004717,34.9612641 32.8134906,35.0286227 C32.8185849,35.0557925 32.8270755,35.0829622 32.8333019,35.1106982 C32.849717,35.1803208 32.8661321,35.2505094 32.8893396,35.3206981 C32.8978302,35.347868 32.9114151,35.3750377 32.9210378,35.4027736 C32.9465094,35.4723962 32.9719811,35.5414528 33.0042453,35.6093774 C33.0048113,35.6110754 33.0053774,35.6133397 33.0065095,35.6150377 L33.0065095,35.6156038 C33.0093396,35.6212642 33.0121698,35.6263584 33.014434,35.6308867 C33.0331132,35.6699434 33.0551887,35.7061698 33.075,35.7440944 C33.1010378,35.7927736 33.1248113,35.8420189 33.1531132,35.889 C33.1757547,35.9252265 33.2006603,35.9591887 33.2244339,35.9942831 C33.2317925,36.0056038 33.239717,36.0157924 33.2470755,36.0271133 C33.2697169,36.0593774 33.2900943,36.0939056 33.313868,36.1256037 C33.3200943,36.1335282 33.3257547,36.1425849 33.3325472,36.1505094 C33.3636792,36.1912641 33.3982075,36.2274906 33.4316038,36.2665472 C33.4576416,36.2959811 33.4825471,36.3276792 33.509151,36.3565472 C33.5187735,36.3667359 33.5278302,36.3780566 33.5368868,36.3876792 C33.570283,36.4216415 33.6053773,36.4499434 33.6399057,36.4810755 C33.6619812,36.5020188 33.6829245,36.5246604 33.7055661,36.5439056 L33.7078302,36.5422076 C33.7265095,36.5580566 33.7434906,36.5767358 33.7627359,36.5920188 C33.8408491,36.653151 33.9217925,36.7080566 34.004434,36.7544717 C34.1006603,36.8088114 34.1934906,36.8444717 34.2834906,36.8705094 C34.2880188,36.8722075 34.2931132,36.8756038 34.2976415,36.8767359 L34.3016038,36.8744718 C34.7334906,36.9927735 35.0680189,36.7963584 35.1653774,36.3616415 L35.1682075,36.3599434 C35.1687736,36.3571132 35.1682075,36.353151 35.1693396,36.3497547" id="Fill-32" fill="#2161AC"></path>
                                <path d="M22.3344905,40.0489245 C22.2297736,39.9900567 22.1278868,39.9453396 22.0288302,39.9096792 L22.026,39.9113774 C21.6756226,39.7857169 21.3620377,39.7964717 21.1214717,39.9311887 L21.1197736,39.9272264 L20.540151,40.265717 L20.5446793,40.2725094 C20.2531698,40.4587359 20.074868,40.8272264 20.0816604,41.3502453 C20.0941132,42.4330754 20.8831698,43.746283 21.8431698,44.2834528 C22.3254339,44.5540189 22.7595849,44.5755282 23.0697735,44.3932641 L23.0703396,44.3938302 L23.5950566,44.0881698 C23.601849,44.0842076 23.6086415,44.0796793 23.616,44.075717 L23.6414717,44.0604339 L23.6403396,44.0587359 C23.8141133,43.9455282 23.9403397,43.7576037 24.0161887,43.5181698 L24.0269433,43.5113774 C24.0371321,43.4785472 24.0422264,43.4389245 24.050151,43.4038302 C24.0575094,43.3715661 24.0654339,43.341 24.0705283,43.3076037 C24.0875095,43.2057169 24.0976981,43.0993018 24.096,42.9826981 C24.0829811,41.899868 23.2939246,40.5860944 22.3344905,40.0489245" id="Fill-34" fill="#2A2A2A"></path>
                                <path d="M20.148283,41.3877169 C20.1607358,42.4286604 20.9192264,43.6914905 21.8418679,44.207717 C22.7645095,44.7245095 23.5026226,44.2994151 23.4896037,43.2584717 C23.477151,42.2175282 22.7186604,40.9546981 21.7960188,40.4384718 C20.8728113,39.9216793 20.1358302,40.3467736 20.148283,41.3877169" id="Fill-36" fill="#ADADAD"></path>
                                <path d="M20.5219812,41.5972075 C20.5321698,42.4055094 21.120849,43.3853208 21.8368868,43.7866415 C22.5534906,44.1873962 23.1263208,43.8573963 23.116132,43.0490943 C23.1059434,42.2413584 22.5172642,41.2609811 21.8012264,40.8596603 C21.0846226,40.4583396 20.5117925,40.7889057 20.5219812,41.5972075" id="Fill-38" fill="#2A2A2A"></path>
                                <path d="M22.9773963,42.6209433 L22.9807925,42.6192453 C22.974,42.5898113 22.9632453,42.5609434 22.9553208,42.5320754 C22.9417358,42.4783018 22.9275849,42.4256603 22.9094717,42.3724528 C22.8947547,42.3283019 22.8760754,42.285849 22.8590943,42.2422641 C22.839283,42.1930189 22.8211698,42.1437736 22.7985283,42.0950943 C22.7736226,42.0418868 22.7436227,41.9903774 22.7153208,41.9383018 C22.6949433,41.9009433 22.6768302,41.8624528 22.6547547,41.8262264 C22.6015471,41.7379245 22.5438114,41.6524528 22.4821133,41.5715094 C22.2868302,41.3156604 22.0530567,41.0994339 21.8023019,40.9590566 C21.1343774,40.5849056 20.6006037,40.8928302 20.6096603,41.6462264 C20.6130567,41.9366038 20.6985282,42.2501887 20.8377735,42.5473584 L20.8372076,42.5479245 C20.8575849,42.5903774 20.8819246,42.6322642 20.904566,42.674151 C20.9577736,42.7743396 21.0160755,42.87 21.0806038,42.9633962 C21.1021132,42.9950943 21.1219245,43.0279245 21.145132,43.0579246 C21.1824905,43.1077359 21.2232453,43.1535849 21.264,43.2 C21.2894717,43.229434 21.3138113,43.2611321 21.3398491,43.2894339 C21.3811698,43.3330188 21.4247547,43.3715094 21.4683396,43.411132 C21.4909811,43.4326415 21.5130567,43.4569811 21.5362642,43.4767924 L21.5385283,43.4756604 C21.6341887,43.5554717 21.7326793,43.6296226 21.8351321,43.6873585 C22.5030567,44.0609433 23.0368302,43.7535849 23.0283396,43.0001887 C23.0266416,42.8767925 23.0062641,42.7494339 22.9773963,42.6209433" id="Fill-40" fill="#2161AC"></path>
                                <polygon id="Fill-42" fill="#ADADAD" points="21.8187735 39.9814528 21.9087735 42.9633396 22.5670755 42.4957924 23.6340566 40.9578679"></polygon>
                                <polygon id="Fill-44" fill="#777777" points="21.5595283 39.9814528 21.2300943 42.3893773 21.9087735 42.9633396 23.3742453 40.9578679"></polygon>
                                <polygon id="Fill-46" fill="#777777" points="49.052151 42.9426792 48.6842264 45.6834339 49.3629057 46.2568302 50.8289433 44.2519245"></polygon>
                                <path d="M22.180868,39.5713018 L32.8286038,33.4241321 C33.1155849,33.258849 33.4387925,33.1756415 33.7608679,33.1756415 C34.1304906,33.1756415 34.5001132,33.2843207 34.8148302,33.4988491 L50.5744528,44.2524339 C50.6474717,44.3016792 50.6565283,44.3735661 50.6553962,44.4114905 C50.6536982,44.4494151 50.6395472,44.5196038 50.5625661,44.5643208 L43.1236981,48.8594151 C42.5938868,49.1650754 41.3180378,49.7248867 40.7650189,49.4662076 L22.1938867,39.8984718 C22.106717,39.857151 22.0903019,39.7813019 22.0891698,39.7399811 C22.0869057,39.6975282 22.0970943,39.6205471 22.180868,39.5713018 M51.0595471,43.5420566 L35.2999246,32.7890377 C34.4389811,32.2014906 33.3006792,32.1584718 32.3984151,32.6792264 L21.7512453,38.8275283 C21.4127547,39.0216793 21.2129434,39.3856415 21.2293585,39.7756416 C21.2457736,40.1656415 21.4755849,40.5114906 21.8287925,40.6767736 L40.3993585,50.2445094 C40.767849,50.417717 41.1640754,50.5031887 41.5597359,50.5031887 C42.0318113,50.5031887 43.1333208,49.847151 43.5538868,49.6043208 L50.9921887,45.3097925 C51.3052075,45.1286604 51.5010567,44.8048868 51.5140754,44.4437547 C51.5282264,44.0826227 51.357849,43.7452641 51.0595471,43.5420566" id="Fill-48" fill="#ADADAD"></path>
                                <polygon id="Fill-50" fill="#ADADAD" points="25.1426038 37.7156604 24.2822264 37.5028302 25.087132 34.1264151 23.6946793 33.524717 22.4952453 38.8092453 22.0543019 39.3656603 21.501283 39.2671698 23.0544905 32.28 26.121849 33.6079246"></polygon>
                                <path d="M14.2895094,8.82894339 C14.4887547,8.54535849 14.8153585,8.37554718 15.1629057,8.37554718 C15.3830943,8.37554718 15.5942265,8.44233962 15.7730944,8.56969811 C15.9049812,8.66139623 18.9983773,10.8661132 19.5366793,14.2747925 L19.8389434,16.1942264 C19.8830943,16.4749811 19.8151698,16.7568679 19.6476227,16.9866792 C19.4800755,17.2164906 19.232717,17.3676226 18.9508302,17.4123396 C18.8959245,17.4208302 18.8404528,17.4253585 18.7849812,17.4253585 C18.258566,17.4253585 17.8159245,17.0466792 17.7344151,16.5253585 L17.4321509,14.6064906 C17.0398868,12.1210189 14.5708302,10.3283774 14.5476226,10.3113962 C14.0676227,9.97403774 13.952151,9.3089434 14.2895094,8.82894339" id="Fill-52" fill="#2161AC"></path>
                                <path d="M34.5739811,35.5421886 C34.5739811,35.5421886 34.5173774,34.9421887 35.3330378,34.9427547 L34.4341698,34.0914339 L34.2179434,35.0927547 L34.5739811,35.5421886 Z" id="Fill-54" fill="#6B8FA6"></path>
                                <path d="M27.9689433,0.953603774 C28.172151,0.689264151 28.4806416,0.537566037 28.8140377,0.537566037 C29.0506415,0.537566037 29.2753585,0.613415094 29.463283,0.758320754 C29.5742264,0.84435849 32.1915849,2.89567925 32.7310188,6.32586793 L32.9240377,8.24530189 C32.9834717,8.83001886 32.5561132,9.35360378 31.9696982,9.41190566 C31.9340377,9.41530189 31.8989434,9.417 31.863849,9.417 C31.3142264,9.417 30.8591321,9.00549057 30.8053585,8.45869811 L30.6196982,6.59869811 C30.2274339,4.11322641 28.2440377,2.51077359 28.1636604,2.44624528 C27.6989433,2.08850944 27.6117736,1.4188868 27.9689433,0.953603774" id="Fill-56" fill="#2161AC"></path>
                                <path d="M54.6058868,31.9623962 C54.6964528,31.9623962 54.7847547,31.9159812 54.8351321,31.8316415 C54.9098491,31.704849 54.8679623,31.5418302 54.7406038,31.4671132 L32.589283,18.3944717 C32.4653207,18.3203208 32.3006037,18.3616415 32.2253208,18.488434 C32.1500377,18.6152264 32.1919245,18.7782453 32.319283,18.8535282 L54.4706038,31.9261698 C54.5124906,31.9505094 54.5594718,31.9623962 54.6058868,31.9623962" id="Fill-58" fill="#565656"></path>
                                <path d="M55.2073019,26.9067736 C55.2973019,26.9067736 55.3856037,26.8609245 55.4354151,26.777717 C55.5112642,26.6520567 55.4705095,26.4884718 55.344849,26.4126226 L32.2023963,12.4767736 C32.0761698,12.4014906 31.9125849,12.4411132 31.8373019,12.5673396 C31.7614528,12.693566 31.8022075,12.857151 31.927868,12.933 L55.0703208,26.868849 C55.1133396,26.8948868 55.1608867,26.9067736 55.2073019,26.9067736" id="Fill-60" fill="#565656"></path>
                                <path d="M36.8779245,26.7398491 L36.8790566,26.7398491 C37.0267925,26.738717 37.1456604,26.619283 37.1445283,26.4715471 L37.0483019,9.60305661 C37.0471698,9.45645283 36.9277358,9.33815094 36.7816981,9.33815094 L36.780566,9.33815094 C36.6328302,9.33871698 36.5139622,9.45871698 36.5150943,9.60532075 L36.6113208,26.4749433 C36.6124528,26.6215472 36.7318868,26.7398491 36.8779245,26.7398491" id="Fill-62" fill="#565656"></path>
                                <path d="M50.3854528,39.0567169 C50.523566,39.0567169 50.6577169,38.9848302 50.7318679,38.8563396 C50.8422453,38.666151 50.7765849,38.4216227 50.5858302,38.3112453 L29.281868,26.0112453 C29.0899812,25.9008679 28.8460189,25.9670943 28.7362075,26.157849 C28.6258302,26.3491698 28.6914906,26.592566 28.8822453,26.7035094 L50.1862076,39.0029433 C50.2490377,39.0397359 50.3180943,39.0567169 50.3854528,39.0567169" id="Fill-64" fill="#3A393A"></path>
                                <path d="M37.8143208,40.9151321 C37.8601698,40.9151321 37.9054529,40.9032453 37.9479056,40.8794718 L49.7379056,34.0400377 C49.8652641,33.9658867 49.9082831,33.8028679 49.8346982,33.6755094 C49.7605472,33.5475849 49.5969623,33.5051321 49.4707359,33.578717 L37.6807359,40.4181509 C37.5528113,40.4923019 37.5097924,40.6553207 37.5839434,40.7826792 C37.6331887,40.8675849 37.7226226,40.9151321 37.8143208,40.9151321" id="Fill-66" fill="#3A393A"></path>
                                <path d="M19.3738868,20.3581133 C19.4197359,20.3581133 19.4661509,20.3462265 19.5080377,20.3218867 L32.1997359,12.9350943 C32.3265282,12.8615094 32.3695472,12.6984906 32.2959623,12.5711321 C32.2206792,12.4437736 32.0582264,12.4007547 31.9314339,12.4749057 L19.2403018,19.8611321 C19.1129433,19.935283 19.0699245,20.0983019 19.1440755,20.2256604 C19.1938868,20.310566 19.2827547,20.3581133 19.3738868,20.3581133" id="Fill-68" fill="#565656"></path>
                                <path d="M20.2389623,25.851 C20.2836793,25.851 20.3289623,25.8391133 20.3702831,25.8159056 L32.5859433,18.8553397 C32.7138679,18.7828867 32.7585849,18.6198679 32.685566,18.4919433 C32.6125472,18.3634528 32.4500944,18.319868 32.3233019,18.3923208 L20.1076415,25.3528867 C19.979717,25.4259057 19.935,25.5889246 20.0074528,25.716849 C20.0572641,25.8023208 20.1472641,25.851 20.2389623,25.851" id="Fill-70" fill="#565656"></path>
                                <path d="M25.0806793,33.5510943 C25.1259623,33.5510943 25.1718114,33.5392075 25.2136981,33.5154339 L37.0110567,26.7037358 C37.1389811,26.6301509 37.1825661,26.4676981 37.1084151,26.3403396 C37.0353963,26.2129811 36.8723773,26.1699623 36.7444529,26.2429811 L24.9476603,33.0541132 C24.8203018,33.1276981 24.776717,33.2901509 24.8503019,33.4180755 C24.8995472,33.5029811 24.9895472,33.5510943 25.0806793,33.5510943" id="Fill-72" fill="#3A393A"></path>
                                <path d="M45.607868,31.7501321 C45.7493774,31.7501321 45.8665471,31.6397547 45.8733397,31.4971132 L46.6505095,15.7827736 C46.6573019,15.6356038 46.5446604,15.5110755 46.3980567,15.5037169 C46.2610755,15.4952265 46.1263585,15.6095661 46.119,15.7561698 L45.3418302,31.4705094 C45.3350377,31.6176792 45.4476793,31.7427736 45.5948491,31.7501321 L45.607868,31.7501321 Z" id="Fill-74" fill="#565656"></path>
                                <path d="M25.4034905,28.7392076 C25.4165094,28.7392076 25.4295283,28.7380755 25.4431133,28.7363773 C25.5880189,28.7143019 25.6887735,28.5790189 25.6672642,28.4335471 L23.1421698,11.5780755 C23.1206603,11.4320377 22.9848114,11.3341132 22.8399057,11.3539245 C22.6944339,11.376 22.5942453,11.511283 22.6157547,11.6567547 L25.1402831,28.5127925 C25.1600944,28.6446793 25.2738679,28.7392076 25.4034905,28.7392076" id="Fill-76" fill="#565656"></path>
                                <path d="M29.0816604,26.6237547 C29.0912831,26.6237547 29.1003396,26.6231886 29.1093962,26.6220566 C29.256,26.6073396 29.3624151,26.4760188 29.3471321,26.3294151 L27.5544905,9.17224528 C27.5392075,9.02507547 27.4107169,8.91583019 27.2618491,8.93507547 C27.1158114,8.94979246 27.0093963,9.08111321 27.0246793,9.22715095 L28.8173208,26.3848868 C28.8314717,26.5218679 28.9475095,26.6237547 29.0816604,26.6237547" id="Fill-78" fill="#565656"></path>
                                <path d="M41.4687169,29.169283 C41.6130566,29.169283 41.7319245,29.0538113 41.7353207,28.9089057 L42.0919245,12.8481509 C42.0947547,12.7009811 41.978151,12.579283 41.8315472,12.5758868 L41.8253207,12.5758868 C41.6809812,12.5758868 41.5621133,12.6913585 41.5587169,12.8362642 L41.2021133,28.8975849 C41.1987169,29.0441886 41.3153208,29.1658868 41.4624906,29.169283 L41.4687169,29.169283 Z" id="Fill-80" fill="#565656"></path>
                                <path d="M46.3839623,41.3617359 C46.5226415,41.3617359 46.6562264,41.2904151 46.7303774,41.1619245 C46.8413208,40.9711698 46.7750943,40.7272076 46.5843397,40.6168302 L25.2803773,28.3168302 C25.0884905,28.2064528 24.8445283,28.2721132 24.734717,28.462868 C24.6249057,28.6541887 24.69,28.8981509 24.8813208,29.0085283 L46.1847169,41.3085282 C46.2481132,41.3447547 46.3166038,41.3617359 46.3839623,41.3617359" id="Fill-82" fill="#3A393A"></path>
                                <path d="M33.765283,38.5525472 C33.810566,38.5525472 33.855849,38.5406604 33.8977359,38.5174529 L45.7403774,31.7148114 C45.8677359,31.6412265 45.9118868,31.4787736 45.8383019,31.350849 C45.765283,31.2234906 45.6016981,31.1804717 45.4749057,31.2529245 L33.6328302,38.055 C33.5049057,38.1285849 33.4607547,38.2910377 33.5343397,38.4189623 C33.5835849,38.504434 33.6730189,38.5525472 33.765283,38.5525472" id="Fill-84" fill="#3A393A"></path>
                                <path d="M29.5459811,36.1164906 C29.5918302,36.1164906 29.6382453,36.1046038 29.6801321,36.0802642 L41.6025849,29.133283 C41.7293774,29.0591321 41.7729623,28.8961132 41.6988113,28.7693208 C41.6246603,28.6419623 41.4616415,28.5995094 41.334283,28.6730943 L29.4118302,35.6200754 C29.2850378,35.6942264 29.2414528,35.8572453 29.3161698,35.9846038 C29.3654151,36.0689433 29.454283,36.1164906 29.5459811,36.1164906" id="Fill-86" fill="#3A393A"></path>
                                <path d="M21.0868867,31.4980754 C21.1768867,31.4980754 21.2685849,31.475434 21.3529245,31.4267547 L33.1395283,24.621849 C33.3942453,24.4746792 33.4814151,24.1492076 33.3348114,23.8939245 C33.1870755,23.6392075 32.8610377,23.5520378 32.6068867,23.6992076 L20.819717,30.5041132 C20.565,30.651283 20.4778302,30.9773208 20.625,31.2314718 C20.7234905,31.4029812 20.9029245,31.4980754 21.0868867,31.4980754" id="Fill-88" fill="#565656"></path>
                                <path d="M32.8725283,24.6929433 C32.8844151,24.6929433 32.8957358,24.6929433 32.9070567,24.6918113 C33.2008302,24.6736981 33.423849,24.4201132 33.4046038,24.1269057 L32.2702641,6.33181132 C32.2504528,6.03860377 31.9963019,5.81049057 31.7047924,5.83483019 C31.4104528,5.85350943 31.187434,6.1065283 31.2066792,6.40030189 L32.3415849,24.1942641 C32.3596981,24.476151 32.5940377,24.6929433 32.8725283,24.6929433" id="Fill-90" fill="#565656"></path>
                                <path d="M54.2183774,36.9688868 C54.4029057,36.9688868 54.5817736,36.8732264 54.6802641,36.701717 C54.8268679,36.447 54.7391321,36.1215283 54.4844151,35.9743585 L33.1385661,23.6992641 C32.8849811,23.5515282 32.5583774,23.6398302 32.4112076,23.8945472 C32.2646037,24.1498302 32.3523396,24.4753019 32.6070566,24.6224717 L53.9534717,36.897566 C54.0366792,36.9456792 54.1283774,36.9688868 54.2183774,36.9688868" id="Fill-92" fill="#565656"></path>
                                <path d="M49.6049433,34.0756415 C49.7407924,34.0756415 49.8573962,33.9703584 49.8698491,33.8322453 L51.1841886,18.7043207 C51.1972075,18.5571509 51.0885283,18.4280944 50.9419246,18.4156415 C50.7964528,18.4003584 50.6668302,18.5107359 50.6538113,18.6579057 L49.3389057,33.7858302 C49.3258868,33.932434 49.434566,34.0620566 49.5811698,34.0745094 C49.5890943,34.0750755 49.5970188,34.0756415 49.6049433,34.0756415" id="Fill-94" fill="#565656"></path>
                                <path d="M14.8339812,9.76867925 C14.8888868,9.56264151 15.0202075,9.39 15.2047359,9.28245282 L28.5202075,1.54132075 C28.6424717,1.47113208 28.7811509,1.43320755 28.9209623,1.43320755 C29.2051133,1.43320755 29.4694528,1.58603774 29.6109622,1.83113208 C29.7190755,2.01566038 29.7485095,2.23075472 29.6936038,2.43679245 C29.6386982,2.64283019 29.5073774,2.81603773 29.3228491,2.92301887 L16.0079433,10.6641509 C15.8856792,10.7343396 15.747,10.7716981 15.6066227,10.7716981 C15.3224717,10.7716981 15.0581321,10.619434 14.9166226,10.3749057 C14.8085095,10.1903774 14.7790755,9.97471698 14.8339812,9.76867925" id="Fill-96" fill="#2161AC"></path>
                                <path d="M36.5153207,26.8609245 L36.5153207,38.1788491 L27.4196604,32.927151 C26.9826792,32.6746981 26.7138113,32.208849 26.7138113,31.7056415 L26.7138113,21.2022453 L36.5153207,26.8609245 Z" id="Fill-98" fill="#2161AC"></path>
                                <path d="M36.5153207,26.8609245 L46.3168302,21.2022453 L46.3168302,31.7820567 C46.3168302,32.2388491 46.073434,32.6605472 45.6777735,32.8880943 L36.5153207,38.1788491 L36.5153207,26.8609245 Z" id="Fill-100" fill="#123155"></path>
                                <path d="M26.6743018,21.2126603 L35.9058113,15.882849 C36.2833584,15.6649245 36.7480755,15.6649245 37.1250566,15.882849 L46.356,21.2126603 L36.515434,26.8945471 L26.6743018,21.2126603 Z" id="Fill-102" fill="#CECDCC"></path>
                                <polygon id="Fill-104" fill="#ADADAD" points="32.2932453 24.4552641 31.0406037 23.7324339 31.0406037 28.6026227 32.2932453 29.3254528"></polygon>
                                <polygon id="Fill-106" fill="#ADADAD" points="40.9026793 24.3640189 42.1094717 23.6655283 42.1547547 28.5079811 40.8755094 29.2466604"></polygon>
                                <polygon id="Fill-108" fill="#ADADAD" points="42.1093585 23.6653019 32.3055849 17.9573774 31.0535095 18.6779434 40.8923774 24.3615282"></polygon>
                                <polygon id="Fill-110" fill="#ADADAD" points="31.0406603 23.7211698 32.2933019 24.444 42.1259433 18.7734339 40.8699057 18.0517359"></polygon>
                                <path d="M23.9602076,23.1821887 L24.3417169,27.6963396 L20.7802075,25.5946415 L20.0245472,20.7969057 L23.9602076,23.1821887 Z M28.5603962,25.9699245 L28.8802075,30.3748302 L24.9037925,28.0280377 L24.5234151,23.5240754 L28.5603962,25.9699245 Z M32.9075661,28.6048302 L33.1090754,32.8699246 L29.4394528,30.7042641 L29.1190755,26.3084151 L32.9075661,28.6048302 Z M37.4200188,31.3393585 L37.4766227,35.4476604 L33.9315283,33.3555849 L33.7305849,29.1035094 L37.4200188,31.3393585 Z M41.8577547,34.0291698 L41.8577547,38.0333208 L38.0137924,35.7646415 L37.9577547,31.6653962 L41.8577547,34.0291698 Z M46.2071886,32.1442641 L46.165868,36.1987925 L42.9230377,38.0469056 L42.9230377,34.0404906 L46.2071886,32.1442641 Z M50.4620943,29.6870944 L50.3036038,33.8412453 L46.7019057,35.8936982 L46.7420944,31.8352076 L50.4620943,29.6870944 Z M54.6088868,27.2938868 L54.1690754,31.6382264 L50.8492642,33.5304905 L51.0083208,29.3729433 L54.6088868,27.2938868 Z M50.8249246,34.1576604 L54.1034151,32.2891698 L53.7162453,36.1110567 L50.6834151,37.8623773 L50.8249246,34.1576604 Z M46.6956792,36.5101132 L50.2792641,34.467849 L50.1377547,38.1770943 L46.6588868,40.1859622 L46.6956792,36.5101132 Z M42.9230377,38.6599245 L46.1602075,36.8152075 L46.122849,40.4950189 L42.9230377,42.3431321 L42.9230377,38.6599245 Z M38.022283,36.3884151 L41.8577547,38.652 L41.8577547,42.3431321 L38.0743584,40.1582264 L38.022283,36.3884151 Z M33.9615283,33.9923773 L37.4851133,36.0714339 L37.5366226,39.8480377 L34.1460566,37.8901133 L33.9615283,33.9923773 Z M29.486434,31.3506792 L33.1390755,33.506717 L33.3241698,37.4157735 L29.7779433,35.3684151 L29.486434,31.3506792 Z M24.9592641,28.6789811 L28.9271886,31.0212453 L29.2203962,35.0463397 L25.3056793,32.786717 L24.9592641,28.6789811 Z M20.8871887,26.276151 L24.3966226,28.347283 L24.7441698,32.4623773 L21.5726603,30.6312453 L20.8871887,26.276151 Z M54.7362453,36.5316227 C54.7385094,36.5169056 54.747,36.5044528 54.7486982,36.4897359 L56.2356792,21.806717 C56.2645472,21.5146416 56.0511509,21.253132 55.7590755,21.2231321 C55.4568114,21.1965283 55.2049245,21.4070944 55.1749245,21.6997358 L54.6751133,26.6395472 L51.0320943,28.7429433 L51.1905849,24.6001132 C51.1956792,24.4529434 51.0813396,24.3295471 50.9347359,24.3244529 C50.9307736,24.3238868 50.9273774,24.3238868 50.9245471,24.3238868 C50.7819056,24.3238868 50.6636038,24.4365283 50.6579433,24.5803019 L50.4864339,29.0582265 L46.7483207,31.2165283 L46.7885094,27.2038868 C46.7902075,27.057849 46.6724717,26.937283 46.5247359,26.9355849 L46.5224718,26.9355849 C46.377,26.9355849 46.2581321,27.0533208 46.2564339,27.1993585 L46.212849,31.5255849 L42.9230377,33.4257736 L42.9230377,29.6536981 C42.9230377,29.3593585 42.6847359,29.1210566 42.3903963,29.1210566 C42.0954906,29.1210566 41.8577547,29.3593585 41.8577547,29.6536981 L41.8577547,33.4065282 L37.9486981,31.0376604 L37.887566,26.5455849 C37.8853019,26.3984151 37.7703962,26.2676604 37.617,26.2835095 C37.4698302,26.2846416 37.3520943,26.4057736 37.3543584,26.5529434 L37.4115282,30.7121887 L33.7000189,28.4627547 L33.4685094,23.5682265 C33.4583208,23.3474718 33.2477547,23.1844528 33.0513396,23.1884151 C32.8305849,23.1980377 32.6602075,23.3853962 32.6709622,23.6061509 L32.877,27.9635094 L29.0720943,25.6574717 L28.7007736,20.5535094 C28.6894529,20.4069056 28.5649245,20.2948302 28.4154906,20.3072831 C28.2688867,20.3180377 28.1585094,20.4453962 28.1692642,20.592 L28.5128491,25.3184151 L24.4679433,22.8674717 L24.0145471,17.4952075 C24.0026603,17.3480377 23.8702076,17.2376604 23.727,17.2518114 C23.5803963,17.2642641 23.471717,17.3933208 23.4836038,17.5399245 L23.9047358,22.5261509 L19.9158679,20.1086038 L18.9496416,13.9710567 C18.9032264,13.6801133 18.6326604,13.4814339 18.3405849,13.527283 C18.0502075,13.5731321 17.8515283,13.8459623 17.8968113,14.1369057 L20.5600189,31.0484151 C20.5617169,31.0586037 20.5679434,31.0665282 20.5696416,31.0755849 C20.5758679,31.1050189 20.5877547,31.1310566 20.5990754,31.1582264 C20.6126604,31.1933208 20.6262453,31.227283 20.6471886,31.2584151 C20.6619057,31.2804905 20.6800188,31.2991698 20.6981321,31.3189811 C20.7258679,31.3495471 20.7553019,31.376151 20.7886981,31.3993585 C20.8005849,31.407283 20.8079434,31.4197358 20.8198302,31.4265282 L42.1237925,43.7270944 C42.1249245,43.7276604 42.1254905,43.7276604 42.1266226,43.7282265 C42.1385094,43.7350189 42.1520944,43.737849 42.1639811,43.7435095 C42.1786981,43.7503019 42.192283,43.7559623 42.207,43.7610567 C42.2081321,43.7616226 42.2098302,43.7621887 42.2109622,43.7627547 C42.2698302,43.7836981 42.3292641,43.7984151 42.3898302,43.7984151 L42.3903963,43.7984151 L42.3909622,43.7984151 C42.4509623,43.7984151 42.5109623,43.7836981 42.5698302,43.7621887 C42.5709622,43.7616226 42.5720943,43.7616226 42.5732264,43.7610567 C42.5879434,43.7559623 42.6026604,43.7503019 42.6162453,43.7435095 C42.6286981,43.737283 42.642283,43.7350189 42.6536038,43.7282265 C42.6547359,43.7276604 42.6553019,43.7270944 42.6564339,43.7270944 L54.4849245,36.897283 C54.4996416,36.8887924 54.508132,36.8740755 54.521717,36.8644528 C54.5539811,36.8418113 54.582283,36.8174717 54.6088868,36.7880377 C54.6292642,36.7659622 54.6468114,36.7433208 54.6626604,36.7184151 C54.6813396,36.6884151 54.6960567,36.6578491 54.7085094,36.6238868 C54.7203963,36.5933208 54.7300189,36.5638868 54.7362453,36.5316227 L54.7362453,36.5316227 Z" id="Fill-112" fill="#ADADAD"></path>
                                <path d="M55.9927359,21.3055471 L32.0255661,5.91781132 C32.0046227,5.90422641 31.980849,5.90196226 31.9587736,5.89177359 C31.9236792,5.87479245 31.889717,5.85781132 31.8517925,5.84932076 C31.8172641,5.84196227 31.783868,5.84309434 31.7493396,5.8425283 C31.7153773,5.84139623 31.6831132,5.83913208 31.6497169,5.84479246 C31.6123584,5.85045283 31.5783962,5.86630189 31.5433018,5.88045282 C31.5195283,5.89007547 31.4946226,5.89177359 31.4719811,5.90479245 L18.1570755,13.592151 C18.1514151,13.5949811 18.149151,13.6006415 18.1434906,13.6040377 C18.1134905,13.6227169 18.089717,13.6493208 18.0636792,13.6742264 C18.0376415,13.6991321 18.0093397,13.7212075 17.9889623,13.7500754 C17.9855661,13.7551698 17.9804717,13.7574339 17.9770755,13.7630943 C17.9629245,13.7840377 17.9606604,13.8078113 17.9499056,13.8298868 C17.9334905,13.8655472 17.9153774,13.9000755 17.9068868,13.938566 C17.8995282,13.9725283 17.9006603,14.0053585 17.9000943,14.0387547 C17.8989623,14.073283 17.8955661,14.1055471 17.9012264,14.1400755 C17.9080188,14.179132 17.923868,14.2153584 17.939151,14.252151 C17.9482076,14.2742264 17.9499056,14.298 17.9617924,14.3195094 C17.9657547,14.3257359 17.970849,14.3302641 17.9748113,14.3359245 C17.9838679,14.3495095 17.9940567,14.3602641 18.0042453,14.3738491 C18.0359434,14.4151698 18.0727358,14.4513962 18.1134905,14.4808302 C18.120849,14.4864905 18.1248114,14.4944151 18.1321698,14.5000755 L42.0993396,30.1000755 C42.1893396,30.1583773 42.2900943,30.1861133 42.389717,30.1861133 C42.5634906,30.1861133 42.734434,30.1006416 42.8363208,29.9444151 C42.9970755,29.6976226 42.9274529,29.3676227 42.6806604,29.207434 L19.4414151,14.0800755 L31.7238679,6.98932075 L55.4170755,22.2015849 C55.5065095,22.2587547 55.606132,22.2859246 55.7046226,22.2859246 C55.8800943,22.2859246 56.0516037,22.1993208 56.1534906,22.0408302 C56.3119811,21.7934717 56.2400943,21.4640378 55.9927359,21.3055471" id="Fill-114" fill="#CECDCC"></path>
                                <path d="M39.3161887,27.6530377 C39.4644906,27.4254906 39.7146793,27.2896415 39.9863773,27.2896415 C40.1409057,27.2896415 40.2914717,27.3349246 40.4216604,27.4192641 L42.4095849,28.7132264 L54.184868,21.7266227 L52.6848679,20.7637925 C52.3146793,20.5260566 52.206,20.0307736 52.4443019,19.6594528 C52.5920377,19.4302075 52.8439245,19.2920944 53.1173208,19.2920944 C53.2701509,19.2920944 53.4190189,19.3368113 53.5486415,19.4194529 L56.137132,21.0813396 C56.2384529,21.1464339 56.3176981,21.2313397 56.3782641,21.327566 C56.3822265,21.3343584 56.3884528,21.3394528 56.3929811,21.3456793 C56.4031698,21.3626604 56.4082641,21.3802075 56.4167547,21.3971887 C56.4269433,21.4181321 56.4376981,21.4390755 56.4461887,21.4617169 C56.4569434,21.4888868 56.4654339,21.5171887 56.4733585,21.5460566 C56.4790189,21.567 56.4841133,21.5879433 56.4886416,21.6094528 C56.4937358,21.6383207 56.497132,21.6666226 56.4982641,21.6949245 C56.5005282,21.7192641 56.5016603,21.7424717 56.5010943,21.7668113 C56.5005282,21.7922831 56.4982641,21.8171886 56.496,21.8426603 C56.4931698,21.8692642 56.4892075,21.8958679 56.4835472,21.9224717 C56.4778868,21.9456792 56.4716604,21.9683208 56.4643018,21.9909623 C56.4558114,22.0175661 56.4473208,22.0436038 56.436,22.0696415 C56.4263774,22.0934151 56.4139246,22.1154906 56.4020378,22.1381321 C56.3929811,22.1534151 56.3873207,22.1698302 56.3776982,22.1851133 C56.3737359,22.1919057 56.3675094,22.1958679 56.3629811,22.2026603 C56.3341132,22.2445472 56.301849,22.2841698 56.2644905,22.3203963 C56.2576981,22.3271887 56.2520377,22.3351132 56.2452453,22.3419056 C56.2050566,22.3786981 56.1614718,22.4115283 56.1127924,22.4403962 L42.7984528,30.3405849 C42.7944906,30.342849 42.7893962,30.3439811 42.7854339,30.3462453 C42.7435471,30.3700189 42.6988302,30.386434 42.6529812,30.402283 C42.6331698,30.4090754 42.6150566,30.4198302 42.5952453,30.4249245 C42.5335472,30.4413396 42.4690188,30.4492641 42.4033584,30.4503962 C42.3988302,30.4509623 42.394868,30.4526604 42.3909057,30.4526604 L42.3903397,30.4520944 L42.3897736,30.4526604 C42.3863774,30.4526604 42.3829812,30.4509623 42.3790188,30.4509623 C42.3093963,30.4498302 42.2414717,30.4402076 42.1758113,30.4215283 C42.1486415,30.4141698 42.1237359,30.4000188 42.0976981,30.3892641 C42.0563773,30.372849 42.0156226,30.3564339 41.9771321,30.3332264 C41.9697735,30.3292642 41.9612831,30.3281321 41.9544905,30.3230377 L39.5499623,28.7579434 C39.3710944,28.6419056 39.2482642,28.4630377 39.2041133,28.2541698 C39.1599622,28.0447358 39.1995849,27.8313396 39.3161887,27.6530377" id="Fill-116" fill="#2161AC"></path>
                            </g>
                        </g>
                    </g>
                </g>
            </g>
        </g>
    </g>
</svg>