<?xml version="1.0" encoding="UTF-8"?>
<svg width="90px" height="90px" viewBox="0 0 90 90" version="1.1" xmlns="http://www.w3.org/2000/svg" xmlns:xlink="http://www.w3.org/1999/xlink">
    <!-- Generator: Sketch 54.1 (76490) - https://sketchapp.com -->
    <title>icon_2_3</title>
    <desc>Created with Sketch.</desc>
    <defs>
        <path d="M0.0367924528,5.28849057 C0.0367924528,5.43396226 0.13245283,5.57886793 0.324905661,5.69037736 L0.324905661,5.69037736 C0.705849057,5.91 1.32339623,5.91 1.70150944,5.69037736 L1.70150944,5.69037736 C1.89,5.58 1.98509433,5.43679245 1.98566038,5.2935849 L1.98566038,5.2935849 L1.60584906,0.194150943 C1.60528302,0.280188679 1.54924528,0.366226415 1.4354717,0.431886793 L1.4354717,0.431886793 C1.20849057,0.563773585 0.838301887,0.563773585 0.609622641,0.431886793 L0.609622641,0.431886793 C0.494150944,0.365660378 0.436415094,0.277924528 0.436415094,0.190754717 L0.436415094,0.190754717" id="path-1"></path>
        <path d="M0.0367924528,5.28849057 C0.0367924528,5.43396226 0.13245283,5.57886793 0.324905661,5.69037736 L0.324905661,5.69037736 C0.705849057,5.91 1.32339623,5.91 1.70150944,5.69037736 L1.70150944,5.69037736 C1.89,5.58 1.98509433,5.43679245 1.98566038,5.2935849 L1.98566038,5.2935849 L1.60584906,0.194150943 C1.60528302,0.280188679 1.54924528,0.366226415 1.4354717,0.431886793 L1.4354717,0.431886793 C1.20849057,0.563773585 0.838301887,0.563773585 0.609622641,0.431886793 L0.609622641,0.431886793 C0.494150944,0.365660378 0.436415094,0.277924528 0.436415094,0.190754717 L0.436415094,0.190754717" id="path-3"></path>
        <path d="M0.0367924528,5.28849057 C0.0367924528,5.43396226 0.13245283,5.57886793 0.324905661,5.69037736 L0.324905661,5.69037736 C0.705849057,5.91 1.32339623,5.91 1.70150944,5.69037736 L1.70150944,5.69037736 C1.89,5.58 1.98509433,5.43679245 1.98566038,5.2935849 L1.98566038,5.2935849 L1.60584906,0.194150943 C1.60528302,0.280188679 1.54924528,0.366226415 1.4354717,0.431886793 L1.4354717,0.431886793 C1.20849057,0.563773585 0.838301887,0.563773585 0.609622641,0.431886793 L0.609622641,0.431886793 C0.494150944,0.365660378 0.436415094,0.277924528 0.436415094,0.190754717 L0.436415094,0.190754717" id="path-5"></path>
    </defs>
    <g id="Main-page" stroke="none" stroke-width="1" fill="none" fill-rule="evenodd">
        <g id="ScnSoft-COM-HomePage-1440_illustrations" transform="translate(-525.000000, -6547.000000)">
            <g id="Industry" transform="translate(135.000000, 6166.000000)">
                <g id="6" transform="translate(341.000000, 381.000000)">
                    <g id="icon_2_3" transform="translate(49.000000, 0.000000)">
                        <rect id="Rectangle" fill="#FFFFFF" fill-rule="nonzero" x="0" y="0" width="90" height="90"></rect>
                        <g id="Group-108" transform="translate(9.000000, 3.000000)">
                            <g id="Group-80" transform="translate(0.622642, 12.135849)" fill-rule="nonzero">
                                <path d="M70.5902264,44.6756037 L70.599849,44.6756037 L70.599849,39.8144717 L61.5613585,37.4767358 L41.5219245,25.9069245 C38.1489057,23.9591886 33.0455094,23.7469245 30.1236227,25.4348491 L9.59739623,37.284849 L0.0160754718,39.5540943 L0.0160754718,44.3529622 C0.00928301887,44.4599434 0.0115471698,44.5686227 0.0160754718,44.6756037 L0.0160754718,44.7503207 L0.0194716981,44.7503207 C0.114566038,45.9814528 1.0485283,47.2578679 2.7958868,48.2659811 L29.0838113,63.4442831 C32.4590944,65.3920188 37.5619245,65.6042831 40.4838113,63.9174906 L68.6300377,47.6659812 C70.0083396,46.8712642 70.6456981,45.7946604 70.5902264,44.6756037" id="Fill-2" fill="#BFC3C7"></path>
                                <path d="M68.6306604,42.5446982 L40.4838679,58.7962075 C37.5619811,60.482434 32.459151,60.2701698 29.0844339,58.323 L2.79594339,43.1458302 C-0.578773585,41.1969623 -0.945,38.2513019 1.9768868,36.5639433 L30.1236792,20.3135661 C33.045566,18.6262075 38.1483962,18.8379057 41.5219811,20.7856416 L67.8116038,35.9639434 C71.1863208,37.9111132 71.5525471,40.8584717 68.6306604,42.5446982" id="Fill-4" fill="#E9E8E7"></path>
                                <polygon id="Fill-6" fill="#123155" points="35.9083018 17.7224718 47.054717 30.7753019 48.2445283 30.0853018 37.0409433 17.1977547"></polygon>
                                <polygon id="Fill-8" fill="#2161AC" points="35.9419811 18.9556982 47.055 32.2032453 47.055 30.775132 35.9080188 17.7223019"></polygon>
                                <polygon id="Fill-10" fill="#123155" points="36.3405282 12.6314717 44.3935472 20.6550566 45.5827924 19.9650567 37.4731698 12.1067547"></polygon>
                                <polygon id="Fill-12" fill="#2161AC" points="36.0868302 13.5026038 44.3934339 22.0831698 44.3934339 20.6550566 36.3404151 12.6314717"></polygon>
                                <polygon id="Fill-14" fill="#123155" points="35.7706416 25.1650189 50.0319622 41.6627547 51.2212076 40.9727547 36.9032831 24.6403018"></polygon>
                                <polygon id="Fill-16" fill="#2161AC" points="35.7766982 26.3755472 48.8804718 41.0008302 50.0323585 41.6625283 35.7704717 25.1647925"></polygon>
                                <polygon id="Fill-18" fill="#2161AC" points="22.3896793 31.6257736 23.5840189 32.1533208 35.5002453 19.0557735 34.3676038 18.5310566"></polygon>
                                <polygon id="Fill-20" fill="#123155" points="23.5842453 32.153151 24.7304717 31.6539057 35.7540566 19.9267358 35.5004717 19.0556038"></polygon>
                                <polygon id="Fill-22" fill="#2161AC" points="24.7787547 23.3784339 25.9736603 23.9059812 35.2249811 13.5180566 34.0923397 12.9933396"></polygon>
                                <polygon id="Fill-24" fill="#123155" points="25.9738867 23.9058113 27.1195471 23.4071321 35.4793585 14.3895849 35.2252075 13.5178867"></polygon>
                                <polygon id="Fill-26" fill="#2161AC" points="19.5418302 41.019 20.4740943 41.5431509 37.0878679 25.238434 35.9552264 24.713717"></polygon>
                                <polygon id="Fill-28" fill="#123155" points="20.4743773 41.5430378 21.7309811 41.0007736 37.3417358 26.1094528 37.0881509 25.2383207"></polygon>
                                <polygon id="Fill-30" fill="#123155" points="35.3239811 7.95390566 35.487 33.2512641 36.5641698 32.739566 36.401151 7.44164151"></polygon>
                                <polygon id="Fill-32" fill="#123155" points="34.0846982 7.28835849 34.2465849 32.5806227 35.4873397 33.2513774 35.3248867 7.95967925"></polygon>
                                <polygon id="Fill-34" fill="#123155" points="42.3850755 11.1318113 50.1703584 41.6627547 51.1943207 41.0627547 43.4622453 10.6201132"></polygon>
                                <polygon id="Fill-36" fill="#2161AC" points="41.1446604 10.460717 48.9293774 40.9916604 50.170132 41.6624151 42.384849 11.1320377"></polygon>
                                <polygon id="Fill-38" fill="#123155" points="20.624151 41.7520189 21.840566 41.094283 30.7669811 11.1644717 29.5771698 11.7163585"></polygon>
                                <polygon id="Fill-40" fill="#2161AC" points="19.4572642 41.0743018 20.6244339 41.7518491 29.5774528 11.7161887 28.4838679 10.9927925"></polygon>
                                <polygon id="Fill-42" fill="#123155" points="25.9495471 23.9058113 35.5903019 40.6854339 36.6086038 39.7016604 27.0821886 23.3810943"></polygon>
                                <polygon id="Fill-44" fill="#2161AC" points="25.695283 24.7769434 34.4394339 40.0237358 35.5901887 40.684868 25.949434 23.9058113"></polygon>
                                <polygon id="Fill-46" fill="#123155" points="28.2418867 16.2360566 35.5901887 29.0262453 36.78 28.3362453 29.3745282 15.7113396"></polygon>
                                <polygon id="Fill-48" fill="#2161AC" points="27.9881887 17.1072453 34.4393208 28.3651698 35.5906416 29.0263019 28.2417736 16.2361133"></polygon>
                                <polygon id="Fill-50" fill="#123155" points="23.5980566 31.9060189 34.1812642 49.5075282 35.3710755 48.8175283 24.7312642 31.3813018"></polygon>
                                <polygon id="Fill-52" fill="#2161AC" points="23.3576038 32.7987735 33.0430755 48.8674529 34.1949623 49.529151 23.6111887 31.9276416"></polygon>
                                <polygon id="Fill-54" fill="#2161AC" points="34.4202453 37.6880377 35.6100566 38.3780377 45.1223208 21.8299245 43.9896793 21.3057735"></polygon>
                                <polygon id="Fill-56" fill="#123155" points="35.6097736 38.3778679 36.7605283 37.7161698 45.3761887 22.7008868 45.1226038 21.8303208"></polygon>
                                <polygon id="Fill-58" fill="#2161AC" points="34.7187169 25.5182264 35.6096604 26.7187924 43.059849 13.6908679 41.9266416 13.167283"></polygon>
                                <polygon id="Fill-60" fill="#123155" points="35.6097736 26.718849 36.7605283 26.057151 43.3135472 14.5626227 43.0599623 13.6909246"></polygon>
                                <polygon id="Fill-62" fill="#2161AC" points="34.2074151 49.522868 35.3326981 50.1755094 47.3021321 30.1190944 46.1694906 29.5943774"></polygon>
                                <polygon id="Fill-64" fill="#123155" points="35.3328679 50.1756792 36.4836226 49.5139811 47.5564528 30.9898302 47.3023018 30.1186981"></polygon>
                                <polygon id="Fill-66" fill="#123155" points="35.3311698 50.2364717 36.5204151 49.5464718 37.1323018 14.5879811 35.9424905 15.1393019"></polygon>
                                <polygon id="Fill-68" fill="#2161AC" points="34.1797359 49.5753962 35.3310566 50.2365282 35.9418113 15.1461509 34.8487925 14.4227547"></polygon>
                                <path d="M42.3994528,11.468434 C42.0886981,11.769566 41.7100189,12.053717 41.262849,12.3135283 C40.1703962,12.9486226 38.8237924,13.3482453 37.4103962,13.5118302 C35.0126604,13.7903207 32.4247359,13.3906981 30.5590755,12.3135283 C29.0664339,11.4520189 28.3215282,10.3216415 28.3249246,9.19239623 L28.3198302,10.8457925 C28.316434,11.9750377 29.0624718,13.1065471 30.5539811,13.9674906 C32.4196415,15.0440944 35.0081321,15.443717 37.4053019,15.1657925 C38.8186982,15.0016415 40.1658679,14.6025849 41.2583207,13.9674906 C41.7049245,13.7076792 42.0836037,13.4229623 42.3943584,13.1223963 C43.1013397,12.4369245 43.4551132,11.663717 43.4579433,10.8888113 L43.4624718,9.2354151 C43.4602075,10.0097547 43.1064339,10.7829623 42.3994528,11.468434" id="Fill-70" fill="#494949"></path>
                                <path d="M41.2281509,6.11320755 C44.1936226,7.8254717 44.2094718,10.6018868 41.2632453,12.3135849 C38.3170189,14.025849 33.5249434,14.025849 30.5589056,12.3135849 C27.5934339,10.6018868 27.578151,7.8254717 30.5243774,6.11320755 C33.4700378,4.40150944 38.2626792,4.40150944 41.2281509,6.11320755" id="Fill-72" fill="#CECDCC"></path>
                                <path d="M39.873849,6.70409434 C39.6864905,6.88579245 39.4578113,7.05786792 39.1878113,7.21409433 C38.5278114,7.59786792 37.7149811,7.839 36.8613962,7.93862265 C35.4140378,8.10616981 33.8512076,7.86503773 32.7247925,7.21409433 C31.8236603,6.6944717 31.3736603,6.01126415 31.3759246,5.32975472 L31.3725282,8.55843396 C31.3713962,9.23994339 31.8208302,9.92315094 32.7219623,10.4433396 C33.8478114,11.093717 35.4112075,11.3348491 36.8585661,11.1673019 C37.712151,11.0682453 38.5249811,10.8265472 39.1849811,10.4433396 C39.4549811,10.2865472 39.6830943,10.1144717 39.8710189,9.93333963 C40.2972453,9.51956604 40.5112076,9.05201887 40.5129056,8.5844717 L40.5157359,5.35579245 C40.5146038,5.82333962 40.3006415,6.29088679 39.873849,6.70409434" id="Fill-74" fill="#494949"></path>
                                <path d="M39.1668679,3.47094339 C40.9566793,4.5045283 40.9663018,6.18113208 39.1878113,7.21415094 C37.4093208,8.24773585 34.5151698,8.24773585 32.7247925,7.21415094 C30.9344151,6.18113208 30.9247925,4.5045283 32.703849,3.47094339 C34.4829056,2.43735849 37.3764906,2.43735849 39.1668679,3.47094339" id="Fill-76" fill="#CECDCC"></path>
                                <path d="M36.7004151,0.194094339 L37.0796603,5.2935283 C37.0790943,5.43730189 36.9845661,5.58050944 36.7960755,5.69032075 C36.4173962,5.91050943 35.799849,5.91050943 35.4189056,5.69032075 C35.2264528,5.57937735 35.1313584,5.43390566 35.1313584,5.28843397 L35.5315472,0.190698114 C35.5309811,0.277867925 35.588717,0.365603774 35.7036227,0.431830189 C35.932868,0.563716981 36.3030566,0.563716981 36.5300378,0.431830189 C36.6432453,0.366169811 36.699849,0.279566038 36.7004151,0.194094339" id="Fill-78" fill="#E9E8E7"></path>
                            </g>
                            <g id="Group-90" transform="translate(35.716981, 12.135849)">
                                <g id="Group-83">
                                    <g id="Fill-81-Clipped">
                                        <mask id="mask-2" fill="white">
                                            <use xlink:href="#path-1"></use>
                                        </mask>
                                        <g id="path-1"></g>
                                        <path d="M1.60607547,0.194094339 L1.98532075,8.12371698 C1.98475471,8.2199434 1.94286793,8.31503773 1.85909433,8.40050943 L1.53022641,0.359943396 C1.58060377,0.308433963 1.60550943,0.251264151 1.60607547,0.194094339" id="Fill-81" fill="#E9E8E7" fill-rule="nonzero" mask="url(#mask-2)"></path>
                                    </g>
                                </g>
                                <g id="Group-86">
                                    <g id="Fill-84-Clipped">
                                        <mask id="mask-4" fill="white">
                                            <use xlink:href="#path-3"></use>
                                        </mask>
                                        <g id="path-3"></g>
                                        <path d="M1.53033962,0.359943396 L1.85920754,8.40050943 C1.81732076,8.4435283 1.76467924,8.48428302 1.70184906,8.52050943 C1.41996226,8.68409434 1.00562264,8.72598113 0.655245283,8.64616981 L0.807509434,0.507113208 C1.01807547,0.555226415 1.26656604,0.530320755 1.43581132,0.431830189 C1.47373584,0.409754717 1.50543396,0.385981132 1.53033962,0.359943396" id="Fill-84" fill="#E9E8E7" fill-rule="nonzero" mask="url(#mask-4)"></path>
                                    </g>
                                </g>
                                <g id="Group-89">
                                    <g id="Fill-87-Clipped">
                                        <mask id="mask-6" fill="white">
                                            <use xlink:href="#path-5"></use>
                                        </mask>
                                        <g id="path-5"></g>
                                        <path d="M0.807283018,0.507 L0.655018867,8.6460566 C0.535018868,8.61832075 0.421811321,8.57643396 0.32445283,8.52039622 C0.132566037,8.40945282 0.0369056604,8.26398113 0.0369056604,8.11850944 L0.437094339,0.190584905 C0.436528302,0.278320755 0.494264151,0.365490566 0.609169811,0.431716981 C0.668037736,0.466245283 0.735396227,0.491150943 0.807283018,0.507" id="Fill-87" fill="#E9E8E7" fill-rule="nonzero" mask="url(#mask-6)"></path>
                                    </g>
                                </g>
                            </g>
                            <g id="Group-107" transform="translate(32.320755, 0.249057)" fill-rule="nonzero">
                                <path d="M4.82983019,11.8398679 C5.05850944,11.9717547 5.05964151,12.186283 4.83209434,12.3187358 C4.60511321,12.4506226 4.23435849,12.4506226 4.00567924,12.3187358 C3.777,12.186283 3.77586792,11.9717547 4.00284905,11.8398679 C4.23039623,11.7079811 4.6005849,11.7079811 4.82983019,11.8398679" id="Fill-91" fill="#E9E8E7"></path>
                                <path d="M5.67390567,11.8116793 C5.67390567,11.1126226 5.10673585,10.5454528 4.40767925,10.5454528 C3.70749056,10.5454528 3.14032076,11.1126226 3.14032076,11.8116793 C3.14032076,12.5113019 3.70749056,13.0784718 4.40767925,13.0784718 C5.10673585,13.0784718 5.67390567,12.5113019 5.67390567,11.8116793" id="Fill-93" fill="#2161AC"></path>
                                <path d="M4.81930188,1.45771698 C3.18515094,0.514132075 1.59741509,0.297339623 0.346471698,0.847528302 L0.0470377359,1.02130189 C1.29798113,0.472245283 2.88628302,0.688471698 4.51986792,1.63149057 C5.12439623,1.98073585 5.72326415,2.42224528 6.30005661,2.94186793 C7.26175472,3.80733962 8.16515095,4.88847169 8.93779245,6.11281133 L8.93835849,6.11281133 L8.34288679,6.55375472 L8.64175472,6.3794151 L9.23835849,5.93903773 C8.001,3.9794151 6.43137736,2.38828302 4.81930188,1.45771698" id="Fill-95" fill="#123155"></path>
                                <path d="M4.51969811,1.63132075 C6.13233962,2.56245283 7.70083019,4.15301887 8.93875472,6.11264151 L8.34271698,6.5535849 C7.26837736,4.85377358 5.91045283,3.47377359 4.51686793,2.66886792 C3.10460377,1.85377359 1.72856604,1.66754717 0.644037736,2.14471698 L0.0474339623,1.02169811 C1.29837736,0.472075471 2.88611321,0.688301887 4.51969811,1.63132075" id="Fill-97" fill="#CECDCC"></path>
                                <path d="M4.81160377,4.53062264 C3.73386793,3.90798113 2.68726415,3.76533962 1.86481133,4.12873584 L1.56537735,4.30307547 C2.38839623,3.93967925 3.43386792,4.08232075 4.51273585,4.70439622 C5.57462264,5.3174151 6.60877358,6.36515095 7.42386793,7.65571698 L6.82839622,8.09609433 L7.12726415,7.92232075 L7.72330189,7.48137736 C6.90764151,6.19137735 5.87349057,5.14307547 4.81160377,4.53062264" id="Fill-99" fill="#123155"></path>
                                <path d="M4.51250943,4.70416981 C5.57439623,5.31718867 6.60854717,6.36549057 7.42420755,7.65549057 L6.82760377,8.09586792 C6.1755283,7.06454717 5.35307547,6.22850944 4.50967924,5.74171698 C3.66628302,5.25492453 2.811,5.1405849 2.16288679,5.42416981 L1.56515094,4.30284906 C2.38816981,3.93945283 3.43420754,4.08209433 4.51250943,4.70416981" id="Fill-101" fill="#CECDCC"></path>
                                <path d="M6.35433962,9.14235849 C5.92018867,8.45632075 5.36943397,7.89764151 4.80396226,7.57160378 C4.22886793,7.23990567 3.67245283,7.16292453 3.23320755,7.3559434 L2.93377359,7.52915094 C3.37301887,7.33726416 3.93,7.41311321 4.5045283,7.74537736 C5.07,8.0714151 5.62075471,8.63066038 6.0554717,9.31613207 L6.20433962,9.22896226 L6.0554717,9.31613207 L5.45886792,9.75650944 L5.75773584,9.58273584 L6.35433962,9.14235849 Z" id="Fill-103" fill="#123155"></path>
                                <path d="M4.50481132,7.74549057 C5.06971698,8.07152831 5.62103774,8.63020755 6.05518867,9.31567924 L5.45915094,9.75662265 C5.19028302,9.32983019 4.84839622,8.9834151 4.50198113,8.7824717 C4.15330188,8.58209433 3.80009434,8.53567925 3.53235849,8.65398113 L2.93405661,7.52926415 C3.37330189,7.33681133 3.92971698,7.41322642 4.50481132,7.74549057" id="Fill-105" fill="#CECDCC"></path>
                            </g>
                        </g>
                    </g>
                </g>
            </g>
        </g>
    </g>
</svg>