<?xml version="1.0" encoding="UTF-8"?>
<svg width="90px" height="90px" viewBox="0 0 90 90" version="1.1" xmlns="http://www.w3.org/2000/svg" xmlns:xlink="http://www.w3.org/1999/xlink">
    <!-- Generator: Sketch 54.1 (76490) - https://sketchapp.com -->
    <title>icon_2_7</title>
    <desc>Created with Sketch.</desc>
    <defs>
        <path d="M0.64754717,0.735283018 L0.945283019,0.907924528 C0.903962264,0.884150943 0.869433962,0.849056603 0.842264151,0.804339622 L0.842264151,0.804339622 L0.545094339,0.631698114 C0.571698113,0.676415094 0.606792453,0.711509433 0.64754717,0.735283018" id="path-1"></path>
    </defs>
    <g id="Main-page" stroke="none" stroke-width="1" fill="none" fill-rule="evenodd">
        <g id="ScnSoft-COM-HomePage-1440_illustrations" transform="translate(-826.000000, -6547.000000)">
            <g id="Industry" transform="translate(135.000000, 6166.000000)">
                <g id="7" transform="translate(668.000000, 381.000000)">
                    <g id="icon_2_7" transform="translate(23.000000, 0.000000)">
                        <rect id="Rectangle" fill="#FFFFFF" fill-rule="nonzero" x="0" y="0" width="90" height="90"></rect>
                        <g id="Group-63" transform="translate(9.000000, 24.000000)">
                            <g id="Group-8" transform="translate(0.622642, 9.815094)" fill-rule="nonzero">
                                <path d="M70.5898302,25.9963584 L70.6000189,25.9963584 L70.6000189,21.1352264 L61.5615283,18.7974905 L41.5220944,7.22767924 C38.1490754,5.27994339 33.0456793,5.06767924 30.1237925,6.75560377 L9.59756603,18.6056038 L0.016245283,20.874849 L0.016245283,25.6737169 C0.00945283019,25.7806981 0.0117169811,25.8893774 0.016245283,25.9963584 L0.016245283,26.0710754 L0.0196415095,26.0710754 C0.114735849,27.3022075 1.04869811,28.5786226 2.79549057,29.5867359 L29.0839811,44.7650378 C32.4586981,46.7127735 37.5615283,46.9250378 40.4839812,45.2382453 L68.6302075,28.9867359 C70.0085094,28.1920189 70.645868,27.1154151 70.5898302,25.9963584" id="Fill-2" fill="#BFC3C7"></path>
                                <path d="M68.6302641,23.8654529 L40.4840377,40.1169623 C37.562151,41.8031887 32.4593208,41.5909246 29.0840377,39.6437547 L2.79611321,24.4665849 C-0.579169812,22.517717 -0.944830189,19.5720566 1.9770566,17.8846982 L30.1238491,1.63432075 C33.0457359,-0.0530377358 38.148566,0.158660378 41.522151,2.10639623 L67.8117736,17.2846981 C71.1864905,19.2318679 71.552151,22.1792264 68.6302641,23.8654529" id="Fill-4" fill="#E9E8E7"></path>
                                <path d="M54.9873396,15.4522642 L55.2845094,15.6249057 C55.2437547,15.601132 55.2092264,15.5660377 55.1820567,15.5213208 L54.8843207,15.3486792 C54.9114906,15.3933962 54.9465849,15.4284906 54.9873396,15.4522642" id="Fill-6" fill="#143F63"></path>
                            </g>
                            <g id="Group-11" transform="translate(54.962265, 24.532076)">
                                <g id="Fill-9-Clipped">
                                    <mask id="mask-2" fill="white">
                                        <use xlink:href="#path-1"></use>
                                    </mask>
                                    <g id="path-1"></g>
                                    <path d="M0.842264151,0.804396226 L0.545094339,0.631754717 C0.571698113,0.676471698 0.606792453,0.711566038 0.64754717,0.735339623 L0.945283019,0.907981132 C0.903962264,0.884207547 0.869433962,0.849113208 0.842264151,0.804396226" id="Fill-9" fill="#143F63" fill-rule="nonzero" mask="url(#mask-2)"></path>
                                </g>
                            </g>
                            <g id="Group-62" transform="translate(11.943396, 0.758491)" fill-rule="nonzero">
                                <polygon id="Fill-12" fill="#06618C" points="43.0181321 25.4928113 42.7209623 25.3196038 42.8488867 25.4407359 43.1466227 25.6139434"></polygon>
                                <path d="M45.5034339,22.5332265 C45.4004151,22.4732264 45.2577736,22.481717 45.1004151,22.572283 L44.0623018,23.172283 C44.034,23.188132 44.0062641,23.2062453 43.9802265,23.2266226 C43.944566,23.2526604 43.913434,23.2871887 43.8811698,23.3188867 C43.8641887,23.3353018 43.8466415,23.3477547 43.8307925,23.3658679 C43.7702264,23.4320944 43.7158868,23.5056793 43.6689057,23.5854905 C43.6604151,23.6002076 43.6547547,23.6154906 43.6473962,23.6302075 C43.6111698,23.6975661 43.5811698,23.7654905 43.5573962,23.8356792 C43.5483396,23.8634151 43.5426792,23.8894528 43.5353207,23.9171887 C43.5279623,23.9483208 43.5155094,23.9794528 43.5104151,24.0100188 C43.5036226,24.0558679 43.4996604,24.101717 43.4996604,24.1464339 L43.5024905,24.1849246 L42.7207924,25.3203962 L43.0179623,25.4930377 L43.7996604,24.3575661 L43.7968302,24.3185094 C43.7962641,24.2454906 43.8132453,24.1685095 43.8330567,24.0909623 C43.8398491,24.0632265 43.8460754,24.0354905 43.8551321,24.0071887 C43.8783396,23.9381321 43.9083396,23.8707735 43.9434339,23.8045472 C43.9519245,23.7898302 43.9575849,23.772849 43.9660755,23.7581321 C44.0124906,23.6783208 44.0679623,23.6053018 44.1279622,23.5385095 C44.1438114,23.5209623 44.1619245,23.5079434 44.1783396,23.4909622 C44.2360755,23.4354906 44.2949433,23.381717 44.3594717,23.3449245 L45.3975849,22.7454906 C45.5555094,22.6543585 45.698151,22.6458679 45.8006037,22.7058679 L45.5034339,22.5332265 Z" id="Fill-14" fill="#CECDCC"></path>
                                <path d="M44.3591887,23.3446981 C44.0467358,23.5252642 43.7959812,23.9616792 43.7971132,24.3194151 L43.7999433,24.3579056 L43.0182453,25.4928113 L43.1461698,25.6139434 L43.8610755,24.5780943 C43.9544717,24.7331886 44.1435282,24.7699812 44.363151,24.6431886 L45.4018302,24.0437547 C45.7142831,23.8631887 45.9661698,23.4267736 45.9650377,23.0673397 C45.9644718,22.7096038 45.7103208,22.5646982 45.3978679,22.7452641 L44.3591887,23.3446981 Z" id="Fill-16" fill="#143F63"></path>
                                <path d="M5.58667925,22.0694718 C6.06101887,21.7938113 6.69950943,21.8017359 7.40988679,22.1470188 C7.48630189,22.1843773 7.56441509,22.225132 7.64309434,22.2704151 C8.67384905,22.8658868 9.57781133,24.009849 10.0861132,25.2392831 C10.3646038,25.9123019 10.5253585,26.6107924 10.5230943,27.2594717 C10.5208302,28.1702264 10.1987547,28.8115471 9.67969812,29.1126793 L7.72233962,30.2504151 C8.24083019,29.949283 8.56290567,29.3079623 8.56573584,28.3972076 C8.56743396,27.7485283 8.40724528,27.0500377 8.12875472,26.3764529 C7.62045283,25.1470189 6.71649057,24.0036227 5.68516981,23.4081509 C5.60705661,23.3628679 5.5289434,23.3221132 5.45252831,23.2841886 C4.74215094,22.9394717 4.10309434,22.9309811 3.62932075,23.2072075 L5.58667925,22.0694718 Z" id="Fill-18" fill="#2C2C2C"></path>
                                <path d="M5.68511321,23.4082642 C4.08945282,22.4867547 2.7915283,23.226566 2.78643397,25.0605283 C2.78077359,26.8939246 4.07020755,29.1275095 5.66643397,30.0490188 C7.26209434,30.9705283 8.5605849,30.231283 8.56567925,28.3967547 C8.57077358,26.5633584 7.28077359,24.3297735 5.68511321,23.4082642" id="Fill-20" fill="#123155"></path>
                                <path d="M5.68013207,25.2932264 C4.93862264,24.8653018 4.33522642,25.2094528 4.33296226,26.0607736 C4.33069811,26.9132264 4.93013208,27.9513396 5.67107547,28.3798302 C6.41315094,28.8077547 7.01598113,28.4641698 7.01881132,27.612283 C7.02107547,26.7598302 6.42220754,25.721717 5.68013207,25.2932264" id="Fill-22" fill="#CECDCC"></path>
                                <polygon id="Fill-24" fill="#123155" points="36.6220189 29.8110567 35.439566 27.8186037 35.4361698 27.8208679 35.439566 12.5910566 21.7380567 20.5535094 21.7340943 35.7901132 21.7380567 35.7884151 21.7340943 37.0897358"></polygon>
                                <path d="M28.2630567,35.1950377 C28.7373963,34.9199434 29.3764528,34.9273018 30.0868302,35.2725849 C30.1632453,35.3099434 30.2407925,35.3506981 30.3194717,35.3959811 C31.3507925,35.9920189 32.2541887,37.1359812 32.7624906,38.3654151 C33.0409812,39.037868 33.2017358,39.7363585 33.2000378,40.3856038 C33.1972075,41.2957925 32.8751321,41.9371132 32.3560755,42.2388113 L30.3987169,43.3759811 C30.9177735,43.0748491 31.2398491,42.4335282 31.2421132,41.5227736 C31.2443774,40.8740944 31.0836226,40.1756037 30.8051321,39.5025849 C30.2968302,38.2725849 29.3934339,37.1291887 28.3621132,36.533717 C28.2834339,36.488434 28.2058867,36.4476793 28.1289056,36.4097547 C27.4190944,36.0650377 26.7800377,36.0571132 26.3056981,36.3327736 L28.2630567,35.1950377 Z" id="Fill-26" fill="#2C2C2C"></path>
                                <path d="M28.362,36.5338302 C26.7663397,35.6123208 25.467849,36.3526982 25.4627547,38.1860943 C25.4576604,40.0194905 26.7470943,42.2530754 28.3433207,43.1745849 C29.9389811,44.0960944 31.2369057,43.356849 31.242,41.5223208 C31.2476603,39.6889245 29.9576604,37.4553396 28.362,36.5338302" id="Fill-28" fill="#123155"></path>
                                <path d="M28.3570188,38.3115282 C27.6149434,37.8830377 27.0121132,38.2271887 27.009283,39.0790755 C27.0070188,39.9309623 27.6064528,40.9690755 28.3479623,41.397566 C29.0894718,41.8254906 29.6928679,41.4819057 29.695132,40.6300189 C29.6973962,39.777566 29.0985283,38.7394528 28.3570188,38.3115282" id="Fill-30" fill="#CECDCC"></path>
                                <polygon id="Fill-32" fill="#E9E8E7" points="24.3223584 23.4353773 24.3082075 28.4459433 33.3959433 33.6976415 31.1199057 27.360283"></polygon>
                                <polygon id="Fill-34" fill="#123155" points="45.7421887 31.479283 44.7187924 28.869849 44.7170944 28.8704151 44.7182265 28.869849 41.9010566 21.0630567 31.5912453 27.054 34.4095471 34.8607925 35.4323773 37.4707925 35.4238867 43.4679623 45.733132 37.4770189"></polygon>
                                <polygon id="Fill-36" fill="#E9E8E7" points="44.3431698 28.6850377 41.6244906 21.6259811 31.9673208 27.2382453 34.6854339 34.2973018"></polygon>
                                <polygon id="Fill-38" fill="#CECDCC" points="14.2475094 0.294169811 0.546 8.25662264 21.7378868 20.5532265 35.4393962 12.5913396"></polygon>
                                <polygon id="Fill-40" fill="#CECDCC" points="34.1633208 16.5953773 23.8535095 22.5863208 31.5912453 27.0540566 41.9010566 21.0631132"></polygon>
                                <polygon id="Fill-42" fill="#2161AC" points="0.546 8.25684906 0.542037736 23.4934528 0.546 23.4957169 0.542037736 24.7930754 21.7344906 37.0896792 21.7378868 35.7821321 21.7344906 35.779868 21.7378868 20.5534529"></polygon>
                                <path d="M24.3079811,28.4457169 L24.322132,23.4351509 L31.1196793,27.3600566 L33.396283,33.6974151 L24.3079811,28.4457169 Z M34.4094906,34.8606226 L31.5911886,27.0538302 L23.8534528,22.5860944 L23.8364717,28.7513774 L23.825151,31.7479811 L23.8166604,36.7228868 L25.1570377,37.4994905 C25.3653396,36.4279811 26.0689245,35.7674151 27.065151,35.7674151 C27.5360944,35.7674151 28.0347736,35.9174151 28.5470378,36.2134529 C30.1879812,37.1604339 31.4859056,39.3181698 31.6030755,41.2330755 L35.4243963,43.4677924 L35.4323208,37.4706226 L34.4094906,34.8606226 Z" id="Fill-44" fill="#2161AC"></path>
                                <polygon id="Fill-46" fill="#2C2C2C" points="38.1869434 39.9477736 43.7290188 36.7479622 43.7290188 38.5055095 38.1869434 41.7217359"></polygon>
                                <polygon id="Fill-48" fill="#CECDCC" points="32.9345095 31.6545283 32.0277169 31.3890566 32.3707359 31.5888679 33.2769623 31.8543396"></polygon>
                                <path d="M31.8405849,30.9243397 C31.7217169,30.8552831 31.558132,30.8649056 31.3775661,30.9690566 L30.1775661,31.6618867 C30.145868,31.68 30.1141698,31.7009434 30.0836038,31.7241509 C29.8119056,31.9267925 29.5945471,32.2913208 29.5413396,32.6292453 C29.532849,32.6818868 29.5283208,32.7345283 29.5288867,32.7854717 C29.5294528,32.9915094 29.6019057,33.1364151 29.7196415,33.2043396 L30.0620943,33.404151 C29.9449246,33.3362264 29.8719057,33.1913208 29.8713397,32.985283 C29.8713397,32.9343396 29.875868,32.8816981 29.8843584,32.8284905 C29.9375661,32.4911321 30.1543584,32.1254717 30.4260566,31.9233963 C30.4571886,31.9007547 30.4883208,31.8792453 30.521151,31.8605661 L31.7205849,31.1683019 C31.9005849,31.064151 32.0647359,31.0539623 32.1830378,31.1235849 L31.8405849,30.9243397 Z" id="Fill-50" fill="#CECDCC"></path>
                                <path d="M30.5205283,31.8607358 C30.1616604,32.0684718 29.870717,32.5728113 29.8718491,32.9848867 C29.8724151,33.3997925 30.1661887,33.5667736 30.5250566,33.3590377 L31.7244906,32.6667736 C31.9780755,32.5201698 32.1948679,32.2263962 32.301283,31.9235661 L33.1299622,32.1641321 L33.277132,31.8539434 L32.3709057,31.5890378 L32.3737358,31.5409245 C32.3720378,31.1277169 32.0793962,30.9613019 31.7205283,31.1679057 L30.5205283,31.8607358 Z" id="Fill-52" fill="#123155"></path>
                                <path d="M43.2160754,34.9949434 C43.2160754,35.6515471 43.7481509,35.8768302 44.4053208,35.4975849 L44.4421133,35.4760754 C45.099283,35.0968302 45.6319246,34.2568302 45.6319246,33.6002264 C45.6319246,32.9430567 45.099283,32.7183396 44.4421133,33.0970189 L44.4053208,33.1190943 C43.7481509,33.4977736 43.2160754,34.3383396 43.2160754,34.9949434" id="Fill-54" fill="#2161AC"></path>
                                <path d="M43.8113773,35.4653208 C43.9534529,35.4653208 44.121,35.4115472 44.2964717,35.3102264 L44.3343963,35.288717 C44.9202453,34.9502264 45.4155283,34.1775849 45.4155283,33.6002264 C45.4155283,33.385132 45.3498679,33.129283 45.036283,33.129283 C44.8942076,33.129283 44.7260944,33.1830566 44.5506227,33.2843774 L44.5132642,33.3064529 C43.9274151,33.6443774 43.4321321,34.4175849 43.4321321,34.9949434 C43.4321321,35.2094718 43.4977925,35.4653208 43.8113773,35.4653208" id="Fill-56" fill="#CECDCC"></path>
                                <path d="M35.6414151,39.407151 C35.6414151,40.0637547 36.1734906,40.2890377 36.8306604,39.9097925 L36.8674528,39.8888491 C37.5240567,39.5090378 38.0572641,38.6690377 38.0572641,38.0124339 C38.0572641,37.3558302 37.5240567,37.1311132 36.8674528,37.5097924 L36.8306604,37.5313019 C36.1734906,37.9105471 35.6414151,38.7505472 35.6414151,39.407151" id="Fill-58" fill="#2161AC"></path>
                                <path d="M36.2367735,39.8775282 C36.378283,39.8775282 36.5463962,39.8237547 36.7218679,39.723 L36.7597925,39.7009246 C37.3456416,39.363 37.8403584,38.5897924 37.8403584,38.0124339 C37.8403584,37.7973396 37.7752641,37.5420567 37.4611132,37.5420567 C37.3196038,37.5420567 37.1514906,37.5958302 36.9760189,37.697151 L36.9380943,37.7186603 C36.3528113,38.0565849 35.8575283,38.8297925 35.8575283,39.407151 C35.8575283,39.6216792 35.9231887,39.8775282 36.2367735,39.8775282" id="Fill-60" fill="#CECDCC"></path>
                            </g>
                        </g>
                    </g>
                </g>
            </g>
        </g>
    </g>
</svg>