<?xml version="1.0" encoding="utf-8"?>
<!-- Generator: Adobe Illustrator 16.2.0, SVG Export Plug-In . SVG Version: 6.00 Build 0)  -->
<!DOCTYPE svg PUBLIC "-//W3C//DTD SVG 1.1//EN" "http://www.w3.org/Graphics/SVG/1.1/DTD/svg11.dtd">
<svg version="1.1" id="Layer_1" xmlns:sketch="http://www.bohemiancoding.com/sketch/ns"
	 xmlns="http://www.w3.org/2000/svg" xmlns:xlink="http://www.w3.org/1999/xlink" x="0px" y="0px" width="84px" height="84px"
	 viewBox="0 0 84 84" enable-background="new 0 0 84 84" xml:space="preserve">
<g sketch:type="MSShapeGroup">
	<g id="path-1">
		<path fill="#EEEEEE" d="M41.007,81.75c-21.37,0-38.756-17.386-38.756-38.756v-1.988c0-21.37,17.386-38.756,38.756-38.756h1.988
			c21.37,0,38.756,17.386,38.756,38.756v1.988c0,21.37-17.386,38.756-38.756,38.756H41.007z"/>
		<path fill="#FFFFFF" d="M42.995,3.25c20.817,0,37.756,16.938,37.756,37.756v1.988c0,20.818-16.938,37.756-37.756,37.756h-1.988
			c-20.819,0-37.756-16.938-37.756-37.756v-1.988c0-20.819,16.938-37.756,37.756-37.756H42.995 M42.995,1.25h-1.988
			c-21.956,0-39.756,17.8-39.756,39.756v1.988c0,21.957,17.8,39.756,39.756,39.756h1.988c21.957,0,39.756-17.799,39.756-39.756
			v-1.988C82.751,19.05,64.952,1.25,42.995,1.25L42.995,1.25z"/>
	</g>
</g>
<g>
	<path id="path-1_1_" fill="none" stroke="#F2EDED" d="M41.007,1.25h1.988c21.957,0,39.756,17.8,39.756,39.756v1.988
		c0,21.957-17.799,39.756-39.756,39.756h-1.988c-21.956,0-39.756-17.799-39.756-39.756v-1.988C1.251,19.05,19.051,1.25,41.007,1.25z
		"/>
</g>
<g enable-background="new    ">
	<path fill="#005EB8" d="M40.032,54.444c-2.993-0.137-5.877-0.807-8.651-2.01v-6.806c1.585,0.807,3.307,1.479,5.166,2.02
		s3.492,0.81,4.899,0.81c1.161,0,2.013-0.14,2.552-0.42c0.541-0.28,0.811-0.749,0.811-1.404c0-0.451-0.195-0.834-0.584-1.148
		c-0.391-0.314-1.039-0.669-1.948-1.065c-0.909-0.396-2.136-0.875-3.68-1.436c-1.736-0.642-3.137-1.363-4.203-2.162
		c-1.066-0.8-1.842-1.694-2.327-2.686c-0.485-0.991-0.728-2.225-0.728-3.7c0-2.255,0.724-4.019,2.173-5.289
		c1.448-1.271,3.622-2.057,6.519-2.357v-2.809h4.243v2.768c2.719,0.15,5.459,0.82,8.221,2.009l-2.439,5.843
		c-2.857-1.285-5.433-1.928-7.729-1.928c-1.094,0-1.862,0.134-2.306,0.4c-0.444,0.267-0.667,0.659-0.667,1.179
		c0,0.451,0.161,0.823,0.482,1.117c0.321,0.294,0.878,0.622,1.67,0.983c0.792,0.362,1.893,0.783,3.301,1.261
		c2.855,1.012,4.906,2.163,6.15,3.455c1.242,1.291,1.865,2.955,1.865,4.991c0,2.296-0.729,4.161-2.184,5.597
		c-1.455,1.435-3.577,2.323-6.365,2.665v3.956h-4.243V54.444z"/>
</g>
</svg>
