<?xml version="1.0" encoding="utf-8"?>
<!-- Generator: Adobe Illustrator 19.1.1, SVG Export Plug-In . SVG Version: 6.00 Build 0)  -->
<svg version="1.1" id="Layer_1" xmlns:sketch="http://www.bohemiancoding.com/sketch/ns"
	 xmlns="http://www.w3.org/2000/svg" xmlns:xlink="http://www.w3.org/1999/xlink" x="0px" y="0px" viewBox="-57 59 84 84"
	 style="enable-background:new -57 59 84 84;" xml:space="preserve">
<style type="text/css">
	.st0{fill:#EEEEEE;}
	.st1{fill:#FFFFFF;}
	.st2{fill:none;stroke:#F2EDED;}
	.st3{fill:none;stroke:#005EB8;stroke-width:2;stroke-miterlimit:10;}
	.st4{fill:#005EB8;}
</style>
<g sketch:type="MSShapeGroup">
	<g id="path-1">
		<path class="st0" d="M-16,140.7c-21.4,0-38.8-17.4-38.8-38.8v-2c0-21.4,17.4-38.8,38.8-38.8h2c21.4,0,38.8,17.4,38.8,38.8v2
			c0,21.4-17.4,38.8-38.8,38.8H-16z"/>
		<path class="st1" d="M-14,62.2c20.8,0,37.8,16.9,37.8,37.8v2c0,20.8-16.9,37.8-37.8,37.8h-2c-20.8,0-37.8-16.9-37.8-37.8v-2
			c0-20.8,16.9-37.8,37.8-37.8L-14,62.2 M-14,60.2h-2c-22,0-39.8,17.8-39.8,39.8v2c0,22,17.8,39.8,39.8,39.8h2
			c22,0,39.8-17.8,39.8-39.8v-2C25.8,78,8,60.2-14,60.2L-14,60.2z"/>
	</g>
</g>
<g>
	<path id="path-1_1_" class="st2" d="M-16,60.2h2C8,60.2,25.8,78,25.8,100v2c0,22-17.8,39.8-39.8,39.8h-2c-22,0-39.8-17.8-39.8-39.8
		v-2C-55.7,78-37.9,60.2-16,60.2z"/>
</g>
<g>
	<polyline class="st3" points="-31.8,87.7 -0.3,87.7 -0.3,118.1 	"/>
	<line class="st3" x1="-16.9" y1="87.7" x2="-16.9" y2="103.2"/>
	<g>
		<path class="st4" d="M-36.3,92.8c-1,0-1.8-0.8-1.8-1.8v-6.8c0-1,0.8-1.8,1.8-1.8h6.8c1,0,1.8,0.8,1.8,1.8v6.8c0,1-0.8,1.8-1.8,1.8
			H-36.3z"/>
		<path class="st0" d="M-29.5,83c0.7,0,1.3,0.6,1.3,1.3v6.8c0,0.7-0.6,1.3-1.3,1.3h-6.8c-0.7,0-1.3-0.6-1.3-1.3v-6.8
			c0-0.7,0.6-1.3,1.3-1.3H-29.5 M-29.5,82h-6.8c-1.3,0-2.3,1-2.3,2.3v6.8c0,1.3,1,2.3,2.3,2.3h6.8c1.3,0,2.3-1,2.3-2.3v-6.8
			C-27.2,83.1-28.2,82-29.5,82L-29.5,82z"/>
	</g>
	<g>
		<path class="st4" d="M-16.9,93.4c-0.4,0-0.8-0.2-1.1-0.5l-4.1-4.1c-0.6-0.6-0.6-1.6,0-2.2l4.1-4.1c0.3-0.3,0.7-0.5,1.1-0.5
			c0.4,0,0.8,0.2,1.1,0.5l4.1,4.1c0.3,0.3,0.5,0.7,0.5,1.1c0,0.4-0.2,0.8-0.5,1.1l-4.1,4.1C-16.1,93.2-16.5,93.4-16.9,93.4z"/>
		<path class="st0" d="M-16.9,82.5c0.3,0,0.6,0.1,0.8,0.3l4.1,4.1c0.4,0.4,0.4,1.1,0,1.5l-4.1,4.1c-0.2,0.2-0.5,0.3-0.8,0.3
			c-0.3,0-0.6-0.1-0.8-0.3l-4.1-4.1c-0.4-0.4-0.4-1.1,0-1.5l4.1-4.1C-17.5,82.6-17.2,82.5-16.9,82.5 M-16.9,81.5
			c-0.6,0-1.1,0.2-1.5,0.6l-4.1,4.1c-0.8,0.8-0.8,2.1,0,3l4.1,4.1c0.4,0.4,0.9,0.6,1.5,0.6c0.6,0,1.1-0.2,1.5-0.6l4.1-4.1
			c0.4-0.4,0.6-0.9,0.6-1.5c0-0.6-0.2-1.1-0.6-1.5l-4.1-4.1C-15.8,81.7-16.3,81.5-16.9,81.5L-16.9,81.5z"/>
	</g>
	<g>
		<path class="st4" d="M-0.3,93.4c-0.4,0-0.8-0.2-1.1-0.5l-4.1-4.1c-0.6-0.6-0.6-1.6,0-2.2l4.1-4.1c0.3-0.3,0.7-0.5,1.1-0.5
			c0.4,0,0.8,0.2,1.1,0.5l4.1,4.1c0.6,0.6,0.6,1.6,0,2.2l-4.1,4.1C0.5,93.2,0.1,93.4-0.3,93.4z"/>
		<path class="st0" d="M-0.3,82.5c0.3,0,0.6,0.1,0.8,0.3l4.1,4.1C5,87.3,5,88,4.5,88.5l-4.1,4.1c-0.2,0.2-0.5,0.3-0.8,0.3
			c-0.3,0-0.6-0.1-0.8-0.3l-4.1-4.1c-0.4-0.4-0.4-1.1,0-1.5l4.1-4.1C-0.9,82.6-0.6,82.5-0.3,82.5 M-0.3,81.5c-0.6,0-1.1,0.2-1.5,0.6
			l-4.1,4.1c-0.4,0.4-0.6,0.9-0.6,1.5c0,0.6,0.2,1.1,0.6,1.5l4.1,4.1c0.4,0.4,0.9,0.6,1.5,0.6c0.6,0,1.1-0.2,1.5-0.6l4.1-4.1
			c0.8-0.8,0.8-2.1,0-3l-4.1-4.1C0.8,81.7,0.2,81.5-0.3,81.5L-0.3,81.5z"/>
	</g>
	<g>
		<path class="st4" d="M-16.9,108.8c-0.4,0-0.8-0.2-1.1-0.5l-4.1-4.1c-0.3-0.3-0.5-0.7-0.5-1.1c0-0.4,0.2-0.8,0.5-1.1L-18,98
			c0.3-0.3,0.7-0.5,1.1-0.5c0.4,0,0.8,0.2,1.1,0.5l4.1,4.1c0.3,0.3,0.5,0.7,0.5,1.1c0,0.4-0.2,0.8-0.5,1.1l-4.1,4.1
			C-16.1,108.7-16.5,108.8-16.9,108.8z"/>
		<path class="st0" d="M-16.9,98c0.3,0,0.6,0.1,0.8,0.3l4.1,4.1c0.4,0.4,0.4,1.1,0,1.5l-4.1,4.1c-0.2,0.2-0.5,0.3-0.8,0.3
			c-0.3,0-0.6-0.1-0.8-0.3l-4.1-4.1c-0.4-0.4-0.4-1.1,0-1.5l4.1-4.1C-17.5,98.1-17.2,98-16.9,98 M-16.9,97c-0.6,0-1.1,0.2-1.5,0.6
			l-4.1,4.1c-0.8,0.8-0.8,2.1,0,3l4.1,4.1c0.4,0.4,0.9,0.6,1.5,0.6c0.6,0,1.1-0.2,1.5-0.6l4.1-4.1c0.4-0.4,0.6-0.9,0.6-1.5
			c0-0.6-0.2-1.1-0.6-1.5l-4.1-4.1C-15.8,97.2-16.3,97-16.9,97L-16.9,97z"/>
	</g>
	<g>
		<path class="st4" d="M-3.7,108.3c-1,0-1.8-0.8-1.8-1.8v-6.8c0-1,0.8-1.8,1.8-1.8h6.8c1,0,1.8,0.8,1.8,1.8v6.8c0,1-0.8,1.8-1.8,1.8
			H-3.7z"/>
		<path class="st0" d="M3.1,98.5c0.7,0,1.3,0.6,1.3,1.3v6.8c0,0.7-0.6,1.3-1.3,1.3h-6.8c-0.7,0-1.3-0.6-1.3-1.3v-6.8
			c0-0.7,0.6-1.3,1.3-1.3H3.1 M3.1,97.5h-6.8c-1.3,0-2.3,1-2.3,2.3v6.8c0,1.3,1,2.3,2.3,2.3h6.8c1.3,0,2.3-1,2.3-2.3v-6.8
			C5.3,98.5,4.3,97.5,3.1,97.5L3.1,97.5z"/>
	</g>
	<g>
		<path class="st4" d="M-3.7,123.2c-1,0-1.8-0.8-1.8-1.8v-6.8c0-1,0.8-1.8,1.8-1.8h6.8c1,0,1.8,0.8,1.8,1.8v6.8c0,1-0.8,1.8-1.8,1.8
			H-3.7z"/>
		<path class="st0" d="M3.1,113.4c0.7,0,1.3,0.6,1.3,1.3v6.8c0,0.7-0.6,1.3-1.3,1.3h-6.8c-0.7,0-1.3-0.6-1.3-1.3v-6.8
			c0-0.7,0.6-1.3,1.3-1.3H3.1 M3.1,112.4h-6.8c-1.3,0-2.3,1-2.3,2.3v6.8c0,1.3,1,2.3,2.3,2.3h6.8c1.3,0,2.3-1,2.3-2.3v-6.8
			C5.3,113.4,4.3,112.4,3.1,112.4L3.1,112.4z"/>
	</g>
</g>
</svg>
