<?xml version="1.0" encoding="utf-8"?>
<!-- Generator: Adobe Illustrator 16.2.0, SVG Export Plug-In . SVG Version: 6.00 Build 0)  -->
<!DOCTYPE svg PUBLIC "-//W3C//DTD SVG 1.1//EN" "http://www.w3.org/Graphics/SVG/1.1/DTD/svg11.dtd">
<svg version="1.1" id="Layer_1" xmlns:sketch="http://www.bohemiancoding.com/sketch/ns"
	 xmlns="http://www.w3.org/2000/svg" xmlns:xlink="http://www.w3.org/1999/xlink" x="0px" y="0px" width="84px" height="84px"
	 viewBox="0 0 84 84" enable-background="new 0 0 84 84" xml:space="preserve">
<g sketch:type="MSShapeGroup">
	<g id="path-1">
		<path fill="#EEEEEE" d="M41.007,81.75c-21.37,0-38.756-17.386-38.756-38.756v-1.988c0-21.37,17.386-38.756,38.756-38.756h1.988
			c21.37,0,38.756,17.386,38.756,38.756v1.988c0,21.37-17.386,38.756-38.756,38.756H41.007z"/>
		<path fill="#FFFFFF" d="M42.995,3.25c20.817,0,37.756,16.938,37.756,37.756v1.988c0,20.818-16.938,37.756-37.756,37.756h-1.988
			c-20.819,0-37.756-16.938-37.756-37.756v-1.988c0-20.819,16.938-37.756,37.756-37.756H42.995 M42.995,1.25h-1.988
			c-21.956,0-39.756,17.8-39.756,39.756v1.988c0,21.957,17.8,39.756,39.756,39.756h1.988c21.957,0,39.756-17.799,39.756-39.756
			v-1.988C82.751,19.05,64.952,1.25,42.995,1.25L42.995,1.25z"/>
	</g>
</g>
<g>
	<path id="path-1_1_" fill="none" stroke="#F2EDED" d="M41.007,1.25h1.988c21.957,0,39.756,17.8,39.756,39.756v1.988
		c0,21.957-17.799,39.756-39.756,39.756h-1.988c-21.956,0-39.756-17.799-39.756-39.756v-1.988C1.251,19.05,19.051,1.25,41.007,1.25z
		"/>
</g>
<g>
	<path fill="#005EB8" d="M24.764,56.398c8.411-8.409,8.411-8.409,8.411-8.409c0.801-0.666,1.069-1.733,0.801-2.67
		c2.002-2.002,2.002-2.002,2.002-2.002c4.407,3.336,10.816,3.071,14.823-1.067c4.406-4.403,4.406-11.477,0-15.883
		c-4.407-4.403-11.619-4.403-16.024,0c-4.006,4.006-4.406,10.278-1.068,14.683c-2.003,2.001-2.003,2.001-2.003,2.001
		c-0.935-0.133-1.867,0.134-2.67,0.8c-8.412,8.41-8.412,8.41-8.412,8.41c-1.203,1.199-1.203,3.067,0,4.138
		C21.824,57.599,23.694,57.599,24.764,56.398L24.764,56.398z M37.726,29.315c2.823-2.821,7.292-2.821,10.115,0
		c2.704,2.702,2.704,7.287,0,9.989c-2.823,2.821-7.292,2.821-10.115,0C34.903,36.602,34.903,32.017,37.726,29.315L37.726,29.315z
		 M37.046,28.638L37.046,28.638"/>
	<path fill="#005EB8" d="M60.281,26.102c-4.273,0-4.273,0-4.273,0c0,5.072,0,5.072,0,5.072c0.267,1.066,0.4,2.135,0.4,3.336
		c0,1.202-0.134,2.269-0.4,3.337c0,23.088,0,23.088,0,23.088c4.273,0,4.273,0,4.273,0V26.102z M60.281,26.102L60.281,26.102"/>
	<path fill="#005EB8" d="M46.661,60.935c4.273,0,4.273,0,4.273,0c0-15.482,0-15.482,0-15.482c-1.337,0.937-2.807,1.604-4.273,2.136
		V60.935z M46.661,60.935L46.661,60.935"/>
	<path fill="#005EB8" d="M36.912,60.935c4.274,0,4.274,0,4.274,0c0-12.945,0-12.945,0-12.945c-0.802,0-1.469-0.133-2.271-0.401
		c-2.004,0-2.004,0-2.004,0V60.935z M36.912,60.935L36.912,60.935"/>
	<polygon fill="#005EB8" points="27.031,60.935 31.439,60.935 31.439,54.262 30.37,54.262 27.031,57.599 27.031,60.935 	"/>
	<polygon fill="#005EB8" points="27.031,60.935 31.439,60.935 31.439,54.262 30.37,54.262 27.031,57.599 27.031,60.935 	"/>
	<path fill="#005EB8" d="M27.031,60.935h4.408v-6.673H30.37l-3.339,3.337V60.935 M27.031,60.935L27.031,60.935"/>
</g>
</svg>
