<svg xmlns="http://www.w3.org/2000/svg" width="37" height="36" viewBox="0 0 37 36">
    <g fill="none" fill-rule="evenodd">
        <path fill="#FFF" fill-rule="nonzero" d="M19.055 0v2.732c2.9.196 5.643 1.199 7.966 2.9L25.502 7.15C23.371 5.672 20.785 4.805 18 4.805 10.724 4.805 4.805 10.724 4.805 18c0 7.276 5.919 13.195 13.195 13.195 7.276 0 13.195-5.919 13.195-13.195 0-2.542-.722-4.918-1.972-6.934l1.532-1.532c1.467 2.2 2.333 4.739 2.513 7.411H36v2.11h-2.732c-.25 3.69-1.805 7.127-4.446 9.767-2.64 2.64-6.076 4.197-9.767 4.446V36h-2.11v-2.732c-3.69-.25-7.127-1.805-9.767-4.446-2.64-2.64-4.197-6.076-4.446-9.767H0v-2.11h2.732c.25-3.69 1.805-7.127 4.446-9.767 2.64-2.64 6.076-4.197 9.767-4.446V0h2.11zM18 7.846c1.944 0 3.762.55 5.307 1.5l-1.56 1.56c-1.12-.593-2.395-.93-3.747-.93-4.424 0-8.024 3.6-8.024 8.024 0 4.424 3.6 8.024 8.024 8.024 4.424 0 8.024-3.6 8.024-8.024 0-1.101-.223-2.152-.627-3.108l1.599-1.599c.74 1.408 1.158 3.01 1.158 4.707 0 5.599-4.555 10.154-10.154 10.154S7.846 23.599 7.846 18 12.401 7.846 18 7.846zm.23 5.539c.324 0 .64.031.946.092l-2.595 2.594c-.65.498-1.069 1.28-1.069 2.16 0 1.499 1.22 2.718 2.719 2.718.837 0 1.587-.38 2.086-.977l2.67-2.67c.06.3.09.611.09.929 0 2.672-2.174 4.846-4.846 4.846s-4.846-2.174-4.846-4.846 2.174-4.846 4.846-4.846z"/>
        <path fill="#6FF066" d="M19.037 18.865c-.39.39-1.023.39-1.414 0-.39-.391-.39-1.024 0-1.415L28.937 6.137V3.308L32.031.214l.017 2.811 1.414 1.415 2.812.017L33.18 7.55H30.35L19.037 18.865z"/>
    </g>
</svg>
