<svg xmlns="http://www.w3.org/2000/svg" width="36" height="36" viewBox="0 0 36 36">
    <path fill="#B80000" d="M19.055 0v2.732c3.69.25 7.127 1.805 9.767 4.446 2.64 2.64 4.197 6.076 4.446 9.767H36v2.11h-2.732c-.25 3.69-1.805 7.127-4.446 9.767-2.64 2.64-6.076 4.197-9.767 4.446V36h-2.11v-2.732c-3.69-.25-7.127-1.805-9.767-4.446-2.64-2.64-4.197-6.076-4.446-9.767H0v-2.11h2.732c.25-3.69 1.805-7.127 4.446-9.767 2.64-2.64 6.076-4.197 9.767-4.446V0h2.11zM19 4.842L19 6h-2V4.842C10.52 5.33 5.33 10.52 4.842 17H6v2H4.842C5.33 25.482 10.52 30.67 17 31.159V30h2v1.158C25.48 30.67 30.67 25.48 31.159 19L30 19v-2h1.158C30.67 10.52 25.48 5.33 19 4.842z"/>
</svg>
