<?xml version="1.0" encoding="utf-8"?>
<!-- Generator: Adobe Illustrator 21.0.2, SVG Export Plug-In . SVG Version: 6.00 Build 0)  -->
<svg version="1.1" id="Layer_1" xmlns:sketch="http://www.bohemiancoding.com/sketch/ns"
	 xmlns="http://www.w3.org/2000/svg" xmlns:xlink="http://www.w3.org/1999/xlink" x="0px" y="0px" viewBox="0 0 84 84"
	 style="enable-background:new 0 0 84 84;" xml:space="preserve">
<style type="text/css">
	.st0{fill:#EEEEEE;}
	.st1{fill:#FFFFFF;}
	.st2{fill:none;stroke:#F2EDED;}
	.st3{fill:#005EB8;}
</style>
<g sketch:type="MSShapeGroup">
	<g id="path-1">
		<path class="st0" d="M41,81.8C19.6,81.8,2.3,64.4,2.3,43v-2C2.3,19.6,19.6,2.2,41,2.2h2c21.4,0,38.8,17.4,38.8,38.8v2
			c0,21.4-17.4,38.8-38.8,38.8H41z"/>
		<path class="st1" d="M43,3.2c20.8,0,37.8,16.9,37.8,37.8v2c0,20.8-16.9,37.8-37.8,37.8h-2c-20.8,0-37.7-17-37.7-37.8v-2
			C3.3,20.2,20.2,3.2,41,3.2H43 M43,1.2h-2C19.1,1.2,1.3,19,1.3,41v2c0,22,17.8,39.8,39.8,39.8h2C65,82.8,82.8,65,82.8,43v-2
			C82.8,19,65,1.2,43,1.2L43,1.2z"/>
	</g>
</g>
<g>
	<path id="path-1_1_" class="st2" d="M41,1.2h2C65,1.2,82.8,19,82.8,41v2C82.8,65,65,82.8,43,82.8h-2C19.1,82.8,1.3,65,1.3,43v-2
		C1.3,19,19.1,1.2,41,1.2z"/>
</g>
<path class="st3" d="M60.5,46.2c0-1.2-2.4-5.5-3.6-7.6c0.1-0.6,0.3-2,0.3-4c0-3.5-4.7-12.5-15.8-12.5c-10.9,0-15.8,8.3-15.8,14.1
	c0,4.1,2.5,8.4,4.4,11.8c1.1,2,2.2,3.9,2.2,4.8c0,2.1-3.4,6.3-4.8,7.7c-0.2,0.2-0.3,0.6-0.2,0.9c0.1,0.3,0.4,0.5,0.8,0.5h18.3
	c0.5,0,0.8-0.2,0.8-0.7c0.3-0.6,3.2-2.2,6-2.6c2-0.3,4.9-0.8,4.9-3.3c0-1.1-0.4-1.7-0.6-2c-0.2-0.3-0.2-0.3-0.3-0.5
	c0.4,0,0.9-0.3,0.9-0.7c0-0.2,0-0.3-0.1-0.5l0.7-0.7c0.2-0.2,0.3-0.6,0.2-0.9l-0.6-1.7C59.2,48,60.5,47.4,60.5,46.2z M51.9,32.3
	c0.3,0.3,0.3,0.9,0,1.2l-1.7,1.7c-0.2,0.2-0.4,0.2-0.6,0.2h-5c-0.5,0-0.8-0.4-0.8-0.8s0.4-0.8,0.8-0.8h4.6l1.4-1.4
	C51.1,31.9,51.6,31.9,51.9,32.3z M39.7,38.7c-0.2,0-0.4-0.1-0.6-0.2l-1.7-1.7c-0.3-0.3-0.3-0.9,0-1.2c0.3-0.3,0.9-0.3,1.2,0l1.4,1.4
	h11.3c0.5,0,0.8,0.4,0.8,0.8c0,0.5-0.4,0.8-0.8,0.8H39.7z M50.3,41.8l-1.7,1.7c-0.2,0.2-0.4,0.2-0.6,0.2h-3.3
	c-0.2,0-0.4-0.1-0.6-0.2l-1.7-1.7c-0.3-0.3-0.3-0.9,0-1.2c0.3-0.3,0.9-0.3,1.2,0l1.4,1.4h2.6l1.4-1.4c0.3-0.3,0.9-0.3,1.2,0
	C50.6,40.9,50.6,41.4,50.3,41.8z M42.5,30.6c0.2-0.2,0.4-0.2,0.6-0.2h3l0.4-0.4c0-0.1-0.1-0.3-0.1-0.4c0-0.9,0.7-1.7,1.7-1.7
	c0.9,0,1.7,0.7,1.7,1.7S49,31.2,48,31.2c-0.1,0-0.3,0-0.4-0.1L47,31.8c-0.2,0.2-0.4,0.2-0.6,0.2h-3L42,33.4
	c-0.2,0.2-0.4,0.2-0.6,0.2c-0.2,0-0.4-0.1-0.6-0.2c-0.3-0.3-0.3-0.9,0-1.2L42.5,30.6z M37.2,59.5c0,0.5-0.4,0.8-0.8,0.8
	c-0.5,0-0.8-0.4-0.8-0.8V44l-4.7-4.7c-0.2-0.2-0.2-0.4-0.2-0.6v-8.3c0-0.2,0.1-0.4,0.2-0.6l3.3-3.3c0.2-0.2,0.4-0.2,0.6-0.2h3.3
	c0.2,0,0.4,0.1,0.6,0.2l1.7,1.7c0.3,0.3,0.3,0.9,0,1.2c-0.3,0.3-0.9,0.3-1.2,0l-1.4-1.4h-2.6l-2.8,2.8v7.6l4.7,4.7
	c0.2,0.2,0.2,0.4,0.2,0.6V59.5z M40.6,59.5c0,0.5-0.4,0.8-0.8,0.8s-0.8-0.4-0.8-0.8V43.2l-4.7-4.7c-0.2-0.2-0.2-0.4-0.2-0.6v-3.3
	c0-0.2,0.1-0.4,0.2-0.6l0.7-0.7c0-0.1-0.1-0.3-0.1-0.4c0-0.9,0.7-1.7,1.7-1.7c0.9,0,1.7,0.7,1.7,1.7c0,0.9-0.7,1.7-1.7,1.7
	c-0.1,0-0.3,0-0.4-0.1l-0.4,0.4v2.6l4.7,4.7c0.2,0.2,0.2,0.4,0.2,0.6V59.5z M44.7,57.8c-0.9,0-1.7-0.7-1.7-1.7c0-0.1,0-0.3,0.1-0.4
	l-0.7-0.7c-0.2-0.2-0.2-0.4-0.2-0.6v-6.6c0-0.2,0.1-0.4,0.2-0.6l1.7-1.7c0.3-0.3,0.9-0.3,1.2,0s0.3,0.9,0,1.2l-1.4,1.4v6l0.4,0.4
	c0.1,0,0.3-0.1,0.4-0.1c0.9,0,1.7,0.7,1.7,1.7S45.6,57.8,44.7,57.8z M51.9,50.1l-1.4,1.4v3c0,0.5-0.4,0.8-0.8,0.8s-0.8-0.4-0.8-0.8
	v-3.3c0-0.2,0.1-0.4,0.2-0.6l1.7-1.7c0.3-0.3,0.9-0.3,1.2,0S52.3,49.7,51.9,50.1z M53.6,43.4l-6.4,6.4v3c0,0.5-0.4,0.8-0.8,0.8
	c-0.5,0-0.8-0.4-0.8-0.8v-3.3c0-0.2,0.1-0.4,0.2-0.6l6.6-6.6c0.3-0.3,0.9-0.3,1.2,0C53.9,42.6,53.9,43.1,53.6,43.4z"/>
</svg>
