<?xml version="1.0" encoding="utf-8"?>
<!-- Generator: Adobe Illustrator 21.1.0, SVG Export Plug-In . SVG Version: 6.00 Build 0)  -->
<svg version="1.1" id="Layer_1" xmlns="http://www.w3.org/2000/svg" xmlns:xlink="http://www.w3.org/1999/xlink" x="0px" y="0px"
	 viewBox="0 0 835 265" style="enable-background:new 0 0 835 265;" xml:space="preserve">
<style type="text/css">
	.st0{opacity:0.6;fill:#F4F6F9;enable-background:new    ;}
	.st1{fill:#ED8B00;}
	.st2{fill:#FFAF10;}
	.st3{fill:#00A1E0;}
	.st4{fill:#7FD0EF;}
	.st5{fill:#A2E1F4;}
	.st6{fill:url(#SVGID_1_);}
	.st7{fill:url(#SVGID_2_);}
	.st8{fill:url(#SVGID_3_);}
	.st9{fill:url(#SVGID_4_);}
	.st10{fill:#FFFFFF;}
	.st11{fill:url(#SVGID_5_);}
	.st12{fill:url(#SVGID_6_);}
	.st13{fill:url(#SVGID_7_);}
	.st14{fill:url(#SVGID_8_);}
	.st15{fill:url(#SVGID_9_);}
	.st16{opacity:0.75;}
	.st17{fill:#EFEFEF;}
	.st18{enable-background:new    ;}
	.st19{fill:#D8D8D8;}
	.st20{opacity:0.75;fill:#FFFFFF;enable-background:new    ;}
	.st21{fill:#C0EEFC;}
	.st22{fill:#F4F6F9;}
	.st23{fill:#B2DEF9;}
	.st24{opacity:0.6;fill:#EFEFEF;enable-background:new    ;}
	.st25{fill:#4BCA81;}
	.st26{fill:#005EB8;}
	.st27{fill:#EBF8FF;}
	.st28{fill:#6F6FDD;}
	.st29{fill:#C9E8FF;}
	.st30{fill:url(#SVGID_10_);}
	.st31{fill:url(#SVGID_11_);}
	.st32{fill:url(#SVGID_12_);}
	.st33{fill:url(#SVGID_13_);}
	.st34{fill:#D7F2F9;}
	.st35{fill:#A8E2F4;}
	.st36{fill:#434E54;}
	.st37{fill:#55646D;}
	.st38{fill:#EAC696;}
	.st39{fill:#F9E0BB;}
	.st40{fill:#CCD0EA;}
	.st41{fill:#BFE9F7;}
	.st42{fill:url(#SVGID_14_);}
	.st43{fill:none;stroke:#EFEFEF;stroke-width:2.5;stroke-miterlimit:10;}
</style>
<g>
	<g>
		<rect x="75.4" y="218.5" class="st4" width="44.7" height="4.7"/>
		<rect x="75.4" y="218.5" class="st21" width="22.3" height="4.7"/>
	</g>
	<g>
		<g>
			<g>
				<rect x="413" y="23.1" class="st1" width="44.7" height="49.7"/>
			</g>
			<rect x="413" y="23.1" class="st2" width="22.3" height="49.7"/>
		</g>
		<g>
			<rect x="413" y="72.8" class="st3" width="44.7" height="177.4"/>
			<rect x="413" y="72.8" class="st4" width="22.3" height="177.4"/>
		</g>
	</g>
	
		<linearGradient id="SVGID_1_" gradientUnits="userSpaceOnUse" x1="533.5627" y1="-703.2524" x2="533.5627" y2="-618.5524" gradientTransform="matrix(1 0 0 -1 0 -484.5)">
		<stop  offset="0" style="stop-color:#FFFFFF"/>
		<stop  offset="0.3356" style="stop-color:#FDFEFF"/>
		<stop  offset="0.5013" style="stop-color:#F5FBFE"/>
		<stop  offset="0.6298" style="stop-color:#E8F7FC"/>
		<stop  offset="0.7391" style="stop-color:#D5F0FA"/>
		<stop  offset="0.8362" style="stop-color:#BDE7F7"/>
		<stop  offset="0.9234" style="stop-color:#A0DCF3"/>
		<stop  offset="1" style="stop-color:#7FD0EF"/>
	</linearGradient>
	<polygon class="st6" points="551.8,152.2 542.7,143.2 533.6,134.1 524.5,143.2 515.4,152.2 522.7,152.2 522.7,218.8 533.6,218.8 
		544.5,218.8 544.5,152.2 	"/>
	
		<linearGradient id="SVGID_2_" gradientUnits="userSpaceOnUse" x1="377.7126" y1="-693.425" x2="377.7126" y2="-557.925" gradientTransform="matrix(1 0 0 -1 0 -484.5)">
		<stop  offset="0" style="stop-color:#FFFFFF"/>
		<stop  offset="0.3775" style="stop-color:#FFFEFD"/>
		<stop  offset="0.5135" style="stop-color:#FFFCF6"/>
		<stop  offset="0.6105" style="stop-color:#FFF8EB"/>
		<stop  offset="0.6889" style="stop-color:#FFF2DA"/>
		<stop  offset="0.7561" style="stop-color:#FFEBC4"/>
		<stop  offset="0.8155" style="stop-color:#FFE2A8"/>
		<stop  offset="0.8693" style="stop-color:#FFD788"/>
		<stop  offset="0.9188" style="stop-color:#FFCB62"/>
		<stop  offset="0.9628" style="stop-color:#FFBD39"/>
		<stop  offset="1" style="stop-color:#FFAF10"/>
	</linearGradient>
	<polygon class="st7" points="400.1,95.7 388.9,84.6 377.8,73.4 366.6,84.6 355.4,95.7 364.4,95.7 364.4,208.9 377.8,208.9 
		391.1,208.9 391.1,95.7 	"/>
	
		<linearGradient id="SVGID_3_" gradientUnits="userSpaceOnUse" x1="252.6627" y1="-628.825" x2="252.6627" y2="-518.525" gradientTransform="matrix(1 0 0 -1 0 -484.5)">
		<stop  offset="0" style="stop-color:#FFFFFF"/>
		<stop  offset="0.3921" style="stop-color:#FFFFFF"/>
		<stop  offset="0.4595" style="stop-color:#FFFFFF"/>
		<stop  offset="0.5359" style="stop-color:#F8FDFE"/>
		<stop  offset="0.6437" style="stop-color:#E6F6FC"/>
		<stop  offset="0.7702" style="stop-color:#C8EBF8"/>
		<stop  offset="0.9098" style="stop-color:#9EDBF3"/>
		<stop  offset="1" style="stop-color:#7FD0EF"/>
	</linearGradient>
	<polygon class="st8" points="270.9,52.1 261.8,43.1 252.7,34 243.6,43.1 234.5,52.1 241.8,52.1 241.8,144.3 252.7,144.3 
		263.6,144.3 263.6,52.1 	"/>
	
		<linearGradient id="SVGID_4_" gradientUnits="userSpaceOnUse" x1="602.8627" y1="-734.725" x2="602.8627" y2="-576.125" gradientTransform="matrix(1 0 0 -1 0 -484.5)">
		<stop  offset="0" style="stop-color:#FFFFFF"/>
		<stop  offset="0.3356" style="stop-color:#FDFEFF"/>
		<stop  offset="0.5013" style="stop-color:#F5FBFE"/>
		<stop  offset="0.6298" style="stop-color:#E8F7FC"/>
		<stop  offset="0.7391" style="stop-color:#D5F0FA"/>
		<stop  offset="0.8362" style="stop-color:#BDE7F7"/>
		<stop  offset="0.9234" style="stop-color:#A0DCF3"/>
		<stop  offset="1" style="stop-color:#7FD0EF"/>
	</linearGradient>
	<polygon class="st9" points="621.1,109.8 612,100.7 602.9,91.6 593.8,100.7 584.7,109.8 592,109.8 592,250.2 602.9,250.2 
		613.8,250.2 613.8,109.8 	"/>
	<polygon class="st5" points="693.8,137.4 689.6,137.4 689.6,133.2 687,133.2 687,137.4 682.8,137.4 682.8,140 687,140 687,144.2 
		689.6,144.2 689.6,140 693.8,140 	"/>
	<g class="st16">
		<g>
			<path class="st17" d="M707.6,250.2c-12.4,0-22.5-10.1-22.5-22.5s10.1-22.5,22.5-22.5s22.5,10.1,22.5,22.5S720,250.2,707.6,250.2z
				"/>
		</g>
		<g class="st18">
			<path class="st19" d="M707.6,245.5c-9.8,0-17.8-8-17.8-17.8s8-17.8,17.8-17.8s17.8,8,17.8,17.8S717.4,245.5,707.6,245.5z
				 M707.6,212.5c-8.4,0-15.3,6.8-15.3,15.3s6.8,15.3,15.3,15.3s15.3-6.8,15.3-15.3S716,212.5,707.6,212.5z"/>
		</g>
		<g>
			<path class="st10" d="M715,231.6c0,1.6-0.6,2.8-1.7,3.8s-2.7,1.5-4.7,1.7v3h-2v-2.9c-2.4-0.1-4.5-0.5-6.3-1.2v-3.9
				c0.9,0.4,1.9,0.8,3.1,1.1c1.2,0.3,2.3,0.5,3.2,0.6v-4.5l-0.9-0.4c-2-0.8-3.3-1.6-4.2-2.5s-1.2-2-1.2-3.3c0-1.4,0.6-2.6,1.7-3.5
				c1.1-0.9,2.7-1.5,4.6-1.7v-2.3h2v2.2c2.3,0.1,4.3,0.6,6.1,1.3l-1.4,3.4c-1.5-0.7-3.1-1-4.7-1.1v4.4c1.9,0.8,3.3,1.4,4.1,1.9
				c0.9,0.6,1.4,1.1,1.8,1.8C714.8,229.9,715,230.7,715,231.6z M704.6,222.8c0,0.5,0.2,0.8,0.5,1c0.3,0.3,0.8,0.6,1.4,0.9v-3.5
				C705.2,221.4,704.6,222,704.6,222.8z M710.5,231.7c0-0.4-0.2-0.8-0.5-1c-0.4-0.3-0.9-0.6-1.5-0.9v3.7
				C709.9,233.3,710.5,232.7,710.5,231.7z"/>
		</g>
	</g>
	<g>
		<g>
			<path class="st2" d="M748.9,40.1c0,1.1-0.3,2.2-0.8,3c-0.6,0.9-1.5,1.6-2.5,2.1c-1.1,0.5-2.4,0.7-3.8,0.7c-1.2,0-2.3-0.1-3.1-0.3
				c-0.8-0.2-1.7-0.5-2.6-0.9v-4.5c0.9,0.5,2,0.8,3,1.1c1,0.3,2,0.4,2.8,0.4c0.7,0,1.2-0.1,1.7-0.4c0.3-0.2,0.5-0.6,0.5-1
				c0-0.2-0.1-0.5-0.2-0.6c-0.1-0.2-0.3-0.4-0.6-0.6s-1.1-0.6-2.5-1.1c-1.2-0.5-2.1-1-2.7-1.6c-0.6-0.5-1-1.1-1.3-1.8
				c-0.3-0.6-0.4-1.5-0.4-2.4c0-1.7,0.6-3,1.9-3.9c1.2-0.9,2.9-1.5,5.1-1.5c1.9,0,3.8,0.4,5.9,1.3l-1.6,3.8
				c-1.8-0.8-3.2-1.1-4.5-1.1c-0.6,0-1.1,0.1-1.5,0.3c-0.3,0.2-0.4,0.5-0.4,0.8s0.2,0.7,0.5,0.9c0.3,0.2,1.3,0.8,3,1.6
				c1.6,0.7,2.7,1.5,3.3,2.3C748.6,37.8,748.9,38.9,748.9,40.1z"/>
			<path class="st2" d="M763.2,45.7l-0.9-3.4h-6l-0.9,3.4H750l6-18.6h6.6l6.1,18.6H763.2z M761.3,38.1l-0.8-3
				c-0.2-0.7-0.4-1.6-0.7-2.6s-0.4-1.9-0.5-2.3c-0.1,0.4-0.2,1.1-0.4,2.2c-0.2,1-0.7,2.9-1.5,5.8L761.3,38.1L761.3,38.1z"/>
			<path class="st2" d="M770.6,45.7V27.2h5v14.5h7.2v4H770.6L770.6,45.7L770.6,45.7z"/>
			<path class="st2" d="M796.8,45.7h-11V27.2h11v4h-6v2.9h5.5v4h-5.5v3.5h6V45.7z"/>
			<path class="st2" d="M812.1,40.1c0,1.1-0.3,2.2-0.8,3c-0.6,0.9-1.5,1.6-2.5,2.1c-1.1,0.5-2.4,0.7-3.8,0.7c-1.2,0-2.3-0.1-3.1-0.3
				c-0.8-0.2-1.7-0.5-2.6-0.9v-4.5c0.9,0.5,2,0.8,3,1.1c1,0.3,2,0.4,2.8,0.4c0.7,0,1.2-0.1,1.7-0.4c0.3-0.2,0.5-0.6,0.5-1
				c0-0.2-0.1-0.5-0.2-0.6c-0.1-0.2-0.3-0.4-0.6-0.6s-1.1-0.6-2.5-1.1c-1.2-0.5-2.1-1-2.7-1.6c-0.6-0.5-1-1.1-1.3-1.8
				c-0.3-0.6-0.4-1.5-0.4-2.4c0-1.7,0.6-3,1.9-3.9c1.2-0.9,2.9-1.5,5.1-1.5c1.9,0,3.8,0.4,5.9,1.3l-1.6,3.8
				c-1.8-0.8-3.2-1.1-4.5-1.1c-0.6,0-1.1,0.1-1.5,0.3c-0.3,0.2-0.4,0.5-0.4,0.8s0.2,0.7,0.5,0.9c0.3,0.2,1.3,0.8,3,1.6
				c1.6,0.7,2.7,1.5,3.3,2.3C811.8,37.8,812.1,38.9,812.1,40.1z"/>
			<path class="st2" d="M704.7,66.1v6.7h-5V54.3h6c5.1,0,7.6,1.9,7.6,5.5c0,2.2-1,3.8-3.1,5l5.4,8.1h-5.7l-3.9-6.7h-1.3V66.1z
				 M704.7,62.2h0.9c1.8,0,2.6-0.7,2.6-2.3c0-1.2-0.8-1.9-2.6-1.9h-1L704.7,62.2L704.7,62.2z"/>
			<path class="st2" d="M728.3,72.7h-11V54.2h11v4h-6v2.9h5.5v4h-5.5v3.5h6V72.7z"/>
			<path class="st2" d="M741.9,54.2h5.6l-6,18.5h-5.9l-6-18.5h5.6l2.5,9.3c0.5,2.1,0.8,3.5,0.8,4.4c0.1-0.6,0.2-1.3,0.3-2.2
				c0.2-0.9,0.3-1.6,0.5-2.1L741.9,54.2z"/>
			<path class="st2" d="M760.6,72.7h-11V54.2h11v4h-6v2.9h5.5v4h-5.5v3.5h6V72.7z"/>
			<path class="st2" d="M781.4,72.7h-6.5l-6.7-13.1h-0.1c0.2,2.1,0.2,3.6,0.2,4.7v8.3h-4.5V54.1h6.5L777,67h0.1
				c-0.1-1.9-0.2-3.3-0.2-4.5v-8.4h4.5V72.7z"/>
			<path class="st2" d="M801.1,54.2v11.1c0,2.4-0.7,4.3-2.1,5.6c-1.3,1.3-3.3,2-5.9,2c-2.5,0-4.5-0.6-5.8-2
				c-1.3-1.2-2.1-3.1-2.1-5.6V54h5v10.9c0,1.3,0.2,2.3,0.7,2.8c0.5,0.6,1.2,0.9,2.2,0.9s1.8-0.3,2.2-0.8c0.4-0.6,0.7-1.6,0.7-2.9
				V54.1L801.1,54.2L801.1,54.2L801.1,54.2z"/>
			<path class="st2" d="M816.1,72.7h-11V54.2h11v4h-6v2.9h5.5v4h-5.5v3.5h6V72.7z"/>
			<path class="st2" d="M699.8,45.7V27.2h5v18.5H699.8z"/>
			<path class="st2" d="M726,45.7h-6.5l-6.7-13.1h-0.2c0.2,2.1,0.2,3.6,0.2,4.7v8.3h-4.4V27.1h6.5l6.7,12.9h0.1
				c-0.1-1.9-0.2-3.3-0.2-4.5v-8.4h4.5L726,45.7L726,45.7z"/>
		</g>
		<g>
			<path class="st1" d="M488.8,45.2h-17.5v-9.9h17.5V17.6h9.9v17.7h17.5v9.9h-17.5v17.4h-9.9V45.2z"/>
			<path class="st1" d="M568.7,72.9h-46.2v-9.7l16.6-16.8c4.9-5,8.2-8.5,9.6-10.4c1.5-1.9,2.6-3.8,3.3-5.4c0.6-1.6,1-3.4,1-5.1
				c0-2.7-0.7-4.7-2.2-6c-1.5-1.3-3.4-1.9-5.9-1.9c-2.6,0-5,0.5-7.4,1.7s-4.9,2.8-7.5,5l-7.6-9c3.3-2.7,6-4.8,8.1-5.9
				c2.1-1.2,4.5-2,7.1-2.7c2.6-0.6,5.4-0.9,8.5-0.9c4.1,0,7.8,0.7,11,2.3c3.2,1.5,5.6,3.7,7.3,6.3c1.7,2.7,2.7,5.9,2.7,9.3
				c0,3-0.5,5.9-1.6,8.6s-2.7,5.4-4.9,8.2c-2.3,2.8-6.2,6.8-11.9,12l-8.5,8v0.6H569L568.7,72.9L568.7,72.9z"/>
			<path class="st1" d="M596.8,6c6.3,0,11.4,1.5,15.3,4.3c3.8,2.8,5.8,6.8,5.8,11.6c0,3.4-0.9,6.4-2.8,9.1c-1.8,2.7-4.9,5-9.1,7.1
				c4.9,2.7,8.5,5.4,10.6,8.3c2.2,2.8,3.2,6,3.2,9.4c0,5.4-2.1,9.8-6.4,13.1c-4.2,3.3-9.8,4.9-16.8,4.9c-7.2,0-12.9-1.6-17-4.6
				c-4.1-3.1-6.2-7.4-6.2-13.1c0-3.8,1-7.1,3-10.1c2-2.9,5.2-5.5,9.6-7.7c-3.8-2.4-6.5-4.9-8.2-7.6c-1.6-2.7-2.5-5.7-2.5-8.9
				c0-4.8,1.9-8.5,5.9-11.4C585.3,7.4,590.5,6,596.8,6z M586.4,55.3c0,2.6,0.9,4.6,2.7,6s4.3,2.2,7.4,2.2c3.5,0,6-0.7,7.8-2.2
				c1.7-1.5,2.6-3.5,2.6-5.9c0-2-0.8-3.9-2.6-5.7c-1.7-1.7-4.5-3.7-8.3-5.6C589.7,47.1,586.4,50.8,586.4,55.3z M596.7,16.1
				c-2.4,0-4.3,0.6-5.8,1.8s-2.2,2.8-2.2,4.9c0,1.8,0.5,3.4,1.7,4.9s3.3,2.9,6.3,4.4c2.9-1.4,5-2.8,6.2-4.2c1.2-1.5,1.7-3.1,1.7-5
				c0-2.1-0.7-3.8-2.3-4.9C601,16.8,599,16.1,596.7,16.1z"/>
			<path class="st1" d="M649.9,40.4c0,4.8-0.9,8.3-2.7,10.8c-1.8,2.4-4.6,3.6-8.2,3.6c-3.4,0-6-1.2-8-3.7c-1.8-2.5-2.8-6-2.8-10.7
				c0-9.5,3.6-14.3,10.7-14.3c3.5,0,6.2,1.2,8.1,3.7C649,32.2,649.9,35.8,649.9,40.4z M636.1,40.4c0,2.7,0.3,4.6,0.7,6
				c0.5,1.3,1.2,1.9,2.3,1.9c2,0,3-2.7,3-7.9c0-5.2-1-7.8-3-7.8c-1,0-1.8,0.6-2.3,1.9S636.1,37.8,636.1,40.4z M673.2,26.7
				l-25.4,45.6h-7.5l25.3-45.6H673.2z M685.4,58.6c0,4.8-0.9,8.3-2.7,10.7s-4.6,3.6-8.2,3.6c-3.4,0-6-1.2-8-3.7
				c-1.8-2.5-2.8-6-2.8-10.6c0-9.5,3.6-14.3,10.7-14.3c3.5,0,6.2,1.2,8.1,3.7C684.4,50.5,685.4,54,685.4,58.6z M671.5,58.6
				c0,2.7,0.3,4.6,0.7,6c0.5,1.3,1.2,1.9,2.3,1.9c2,0,3-2.7,3-7.9c0-5.2-1-7.8-3-7.8c-1,0-1.8,0.6-2.3,1.9
				C671.8,54,671.5,56,671.5,58.6z"/>
		</g>
	</g>
	<g>
		<rect x="75.4" y="222.4" class="st3" width="44.7" height="27.8"/>
		<rect x="75.4" y="222.4" class="st4" width="22.3" height="27.8"/>
	</g>
	<g>
		<g>
			<rect x="11.7" y="234.6" class="st4" width="44.7" height="15.6"/>
			<rect x="11.7" y="234.6" class="st21" width="22.3" height="15.6"/>
		</g>
		<g>
			<rect x="11.7" y="239.3" class="st3" width="44.7" height="10.8"/>
			<rect x="11.7" y="239.3" class="st4" width="22.3" height="10.8"/>
		</g>
	</g>
	<g>
		<g>
			<path class="st17" d="M376.7,129.7c0-5.3-4.3-9.7-9.7-9.7H186.1c-5.3,0-9.7,4.3-9.7,9.7v111.8h200.4L376.7,129.7L376.7,129.7z"/>
			<path class="st19" d="M182.6,232.7V128.6c0-1.1,0.9-1.9,2-2h180.9c1.1,0,1.9,0.9,2,2v104.1H182.6L182.6,232.7z"/>
			<path class="st17" d="M392.6,241.7l-1.5,3.1l-1.7,3.6c-0.5,1-1.6,1.7-2.7,1.8H163.1c-1.1-0.1-2.2-0.8-2.7-1.8l-1.7-3.6l-1.5-3.1
				c-0.3-0.5-0.2-1.2,0.3-1.5c0.3-0.2,0.5-0.2,0.8-0.2h233.3c0.6-0.1,1.2,0.3,1.3,0.9C392.9,241.1,392.8,241.4,392.6,241.7z"/>
			<path class="st22" d="M392.6,241.7l-1.5,3.1H158.7l-1.5-3.1c-0.3-0.5-0.2-1.2,0.3-1.5c0.2-0.2,0.5-0.2,0.8-0.2h233.2
				c0.6-0.1,1.2,0.3,1.3,0.9C392.9,241.1,392.8,241.4,392.6,241.7z"/>
			<rect x="265.7" y="239.6" class="st19" width="18.4" height="4.9"/>
		</g>
		<g>
			<rect x="206.4" y="115" class="st10" width="137" height="117.6"/>
			<path class="st3" d="M339.5,101.5H209.4c-1.6,0-3,1.4-3,3l0,0v10.6h137v-9.8C343.4,103.3,341.7,101.6,339.5,101.5z"/>
			<rect x="206.4" y="128.7" class="st34" width="137" height="21"/>
			<g>
				<path class="st1" d="M212.5,131.2h4.3c0.6,0,1.1,0.5,1.1,1.1v4.3c0,0.6-0.5,1.1-1.1,1.1h-4.3c-0.6,0-1.1-0.5-1.1-1.1v-4.3
					C211.5,131.7,211.9,131.2,212.5,131.2z"/>
				<rect x="219.9" y="131.9" class="st35" width="6.9" height="1.1"/>
				<rect x="219.7" y="142.4" class="st35" width="7.9" height="1.1"/>
				<rect x="219.7" y="145" class="st35" width="7.9" height="1.1"/>
				<rect x="240.1" y="142.4" class="st35" width="7.9" height="1.1"/>
				<rect x="240.1" y="145" class="st35" width="7.9" height="1.1"/>
				<rect x="260.5" y="142.4" class="st35" width="7.9" height="1.1"/>
				<rect x="260.5" y="145" class="st35" width="7.9" height="1.1"/>
				<rect x="280.9" y="142.4" class="st35" width="13.3" height="1.1"/>
				<rect x="280.9" y="145" class="st35" width="13.3" height="1.1"/>
				<rect x="219.9" y="134.4" class="st35" width="35.5" height="2.6"/>
				<rect x="257.8" y="134.4" class="st10" width="6.6" height="2.6"/>
			</g>
			<rect x="324.4" y="132.7" class="st10" width="8" height="3.7"/>
			<rect x="315.4" y="132.7" class="st10" width="8" height="3.7"/>
			<polygon class="st25" points="250.5,159.9 231.7,159.9 233.7,157.4 231.7,154.8 250.5,154.8 252.5,157.4 			"/>
			<polygon class="st26" points="271.7,159.9 251.4,159.9 253.3,157.4 251.4,154.8 271.7,154.8 273.6,157.4 			"/>
			<polygon class="st34" points="291.3,159.9 272.5,159.9 274.4,157.4 272.5,154.8 291.3,154.8 293.2,157.4 			"/>
			<path class="st34" d="M312.3,157.4c0-1.4-1.2-2.4-2.8-2.5l0,0h-17.4l2,2.6l-2,2.6h17.4l0,0C311,159.8,312.3,158.8,312.3,157.4z"
				/>
			<path class="st25" d="M231.1,154.8h-16.6c-1.7,0-3.1,1.1-3.1,2.6s1.4,2.6,3.1,2.6h16.6l2-2.6L231.1,154.8z"/>
			<rect x="211.5" y="168.1" class="st35" width="77.9" height="0.8"/>
			<rect x="211.5" y="173.8" class="st35" width="77.9" height="0.8"/>
			<rect x="211.5" y="179.5" class="st35" width="77.9" height="0.8"/>
			<rect x="295.1" y="163.6" class="st10" width="43.1" height="38.1"/>
			<rect x="295.1" y="205.4" class="st10" width="43.1" height="10.5"/>
			<rect x="295.1" y="219.6" class="st10" width="43.1" height="10.5"/>
			<rect x="309.4" y="176.2" class="st26" width="15.7" height="2"/>
			<rect x="307.3" y="170" class="st35" width="18.2" height="1.8"/>
			<rect x="309.4" y="180.1" class="st35" width="24.3" height="0.8"/>
			<rect x="309.4" y="183.3" class="st35" width="24.3" height="0.8"/>
			<rect x="226" y="198.4" class="st26" width="35.7" height="2"/>
			<rect x="284.4" y="199" class="st35" width="5.5" height="0.8"/>
			<rect x="284.4" y="218.6" class="st35" width="5.5" height="0.8"/>
			<rect x="226" y="202.2" class="st35" width="51.9" height="0.8"/>
			<rect x="226" y="205.4" class="st35" width="51.9" height="0.8"/>
			<rect x="309.4" y="188.4" class="st26" width="15.7" height="2"/>
			<rect x="309.4" y="192.2" class="st35" width="24.3" height="0.8"/>
			<rect x="309.4" y="195.4" class="st35" width="24.3" height="0.8"/>
			<path class="st26" d="M318,154.8h17.1c1.4,0,2.6,1.1,2.6,2.6l0,0c0,1.4-1.1,2.6-2.6,2.6H318c-1.4,0-2.6-1.1-2.6-2.6l0,0
				C315.4,155.9,316.5,154.8,318,154.8z"/>
			<path class="st10" d="M222.7,156.2l-1.7,1.7l-0.7-0.7l-0.5,0.5l1.1,1.1l2.2-2.2L222.7,156.2z"/>
			<path class="st10" d="M242.9,156.2l-1.7,1.7l-0.7-0.7l-0.5,0.5l1.1,1.1l2.2-2.2L242.9,156.2z"/>
			<rect x="206.4" y="149.3" class="st35" width="137" height="0.8"/>
			<path class="st3" d="M214.4,198.5h4.6c0.4,0,0.8,0.3,0.8,0.8v4.6c0,0.4-0.3,0.8-0.8,0.8h-4.6c-0.4,0-0.8-0.3-0.8-0.8v-4.6
				C213.5,198.8,213.9,198.5,214.4,198.5z"/>
			<path class="st3" d="M214.4,219h4.6c0.4,0,0.8,0.3,0.8,0.8v4.6c0,0.4-0.3,0.8-0.8,0.8h-4.6c-0.4,0-0.8-0.3-0.8-0.8v-4.6
				C213.5,219.3,213.9,219,214.4,219z"/>
			<rect x="216.3" y="207" class="st27" width="0.8" height="9.6"/>
			<rect x="226" y="217.9" class="st26" width="35.7" height="2"/>
			<rect x="226" y="221.8" class="st35" width="51.9" height="0.8"/>
			<rect x="226" y="224.9" class="st35" width="51.9" height="0.8"/>
			<rect x="216.3" y="228.4" class="st27" width="0.8" height="3"/>
			<path class="st4" d="M219.3,119.5c-0.3,0-0.6,0.1-0.9,0.2c-0.3-0.5-0.9-0.9-1.5-0.9c-0.5,0-0.9,0.2-1.3,0.5
				c-0.7-0.9-1.9-1-2.7-0.3c-0.7,0.5-0.9,1.5-0.6,2.3c-0.8,0.5-1.1,1.5-0.6,2.3c0.3,0.5,0.8,0.8,1.4,0.8c0.2,0,0.2,0,0.3-0.1
				c0.3,0.9,1.4,1.4,2.3,1.1c0.5-0.2,0.9-0.5,1.1-1c0.8,0.3,1.7,0.1,2.1-0.7c0.2,0,0.3,0.1,0.4,0.1c1.2,0,2.1-0.9,2.1-2.1
				C221.5,120.5,220.5,119.5,219.3,119.5L219.3,119.5z"/>
			<path class="st28" d="M300,168.4h3.1c0.4,0,0.8,0.3,0.8,0.8v3.1c0,0.4-0.3,0.8-0.8,0.8H300c-0.4,0-0.8-0.3-0.8-0.8v-3.1
				C299.3,168.7,299.6,168.4,300,168.4z"/>
			<rect x="307.3" y="210.1" class="st35" width="18.2" height="1.8"/>
			<path class="st2" d="M300,208.4h3.1c0.4,0,0.8,0.3,0.8,0.8v3.1c0,0.4-0.3,0.8-0.8,0.8H300c-0.4,0-0.8-0.3-0.8-0.8v-3.1
				C299.3,208.9,299.6,208.4,300,208.4z"/>
			<rect x="307.3" y="224.2" class="st35" width="18.2" height="1.8"/>
			<path class="st1" d="M300,222.7h3.1c0.4,0,0.8,0.3,0.8,0.8v3.1c0,0.4-0.3,0.8-0.8,0.8H300c-0.4,0-0.8-0.3-0.8-0.8v-3.1
				C299.3,223,299.6,222.7,300,222.7z"/>
			<path class="st28" d="M300,177.2h4.8c0.4,0,0.8,0.3,0.8,0.8v4.8c0,0.4-0.3,0.8-0.8,0.8H300c-0.4,0-0.8-0.3-0.8-0.8V178
				C299.3,177.7,299.6,177.2,300,177.2z"/>
			<path class="st3" d="M300,189.3h4.8c0.4,0,0.8,0.3,0.8,0.8v4.8c0,0.4-0.3,0.8-0.8,0.8H300c-0.4,0-0.8-0.3-0.8-0.8v-4.8
				C299.3,189.6,299.6,189.3,300,189.3z"/>
			<g>
				<path class="st4" d="M231.1,122.8c0,0.3-0.1,0.7-0.3,0.9c-0.2,0.3-0.5,0.5-0.8,0.7s-0.8,0.2-1.2,0.2s-0.8,0-1-0.1
					c-0.3-0.1-0.5-0.2-0.8-0.3v-1.4c0.3,0.2,0.6,0.3,0.9,0.3c0.3,0.1,0.6,0.2,0.9,0.2c0.2,0,0.4-0.1,0.5-0.2
					c0.2-0.1,0.2-0.2,0.2-0.3s0-0.2-0.1-0.2c-0.1-0.1-0.2-0.2-0.2-0.2c-0.1-0.1-0.3-0.2-0.8-0.4c-0.4-0.2-0.7-0.3-0.9-0.5
					c-0.2-0.2-0.3-0.3-0.4-0.5s-0.2-0.5-0.2-0.8c0-0.5,0.2-0.9,0.6-1.3c0.4-0.3,0.9-0.5,1.6-0.5c0.6,0,1.2,0.2,1.8,0.4l-0.5,1.2
					c-0.5-0.3-1-0.4-1.4-0.4c-0.2,0-0.3,0.1-0.5,0.2c-0.1,0.1-0.2,0.2-0.2,0.3s0.1,0.2,0.2,0.3c0.2,0.1,0.5,0.3,0.9,0.5
					c0.5,0.2,0.9,0.5,1.1,0.8C231,122.1,231.1,122.4,231.1,122.8z"/>
				<path class="st4" d="M235.6,124.7l-0.3-1.1h-1.9l-0.3,1.1h-1.8l1.9-5.9h2.1l2,5.9H235.6z M235,122.2l-0.3-0.9
					c-0.1-0.2-0.2-0.5-0.2-0.8c-0.1-0.3-0.2-0.6-0.2-0.8c0,0.2-0.1,0.3-0.2,0.7c-0.1,0.3-0.2,0.9-0.5,1.8
					C233.7,122.2,235,122.2,235,122.2z"/>
				<path class="st4" d="M238,124.7v-5.9h1.5v4.6h2.2v1.3L238,124.7L238,124.7z"/>
				<path class="st4" d="M246.2,124.7h-3.4v-5.9h3.4v1.3h-1.9v0.9h1.8v1.3h-1.8v1.1h1.9V124.7z"/>
				<path class="st4" d="M251.1,122.8c0,0.3-0.1,0.7-0.3,0.9c-0.2,0.3-0.5,0.5-0.8,0.7s-0.8,0.2-1.2,0.2c-0.4,0-0.8,0-1-0.1
					c-0.3-0.1-0.5-0.2-0.8-0.3v-1.4c0.3,0.2,0.6,0.3,0.9,0.3c0.3,0.1,0.6,0.2,0.9,0.2c0.2,0,0.4-0.1,0.5-0.2
					c0.2-0.1,0.2-0.2,0.2-0.3s0-0.2-0.1-0.2s-0.2-0.2-0.2-0.2c-0.1-0.1-0.3-0.2-0.8-0.4c-0.4-0.2-0.7-0.3-0.9-0.5s-0.3-0.3-0.4-0.5
					s-0.2-0.5-0.2-0.8c0-0.5,0.2-0.9,0.6-1.3c0.4-0.3,0.9-0.5,1.6-0.5c0.6,0,1.2,0.2,1.8,0.4l-0.5,1.2c-0.5-0.3-1-0.4-1.4-0.4
					c-0.2,0-0.3,0.1-0.5,0.2c-0.1,0.1-0.2,0.2-0.2,0.3s0.1,0.2,0.2,0.3c0.2,0.1,0.5,0.3,0.9,0.5c0.5,0.2,0.9,0.5,1.1,0.8
					C251.1,122.1,251.1,122.4,251.1,122.8z"/>
				<path class="st4" d="M253.6,124.7h-1.5v-5.9h3.4v1.3h-1.9v1.1h1.8v1.3h-1.8V124.7z"/>
				<path class="st4" d="M262,121.7c0,1-0.3,1.8-0.8,2.2c-0.5,0.5-1.2,0.8-2.1,0.8s-1.6-0.3-2.1-0.8s-0.8-1.3-0.8-2.2
					s0.3-1.7,0.8-2.2s1.2-0.8,2.1-0.8s1.6,0.3,2.1,0.8C261.7,119.9,262,120.7,262,121.7z M257.9,121.7c0,1.1,0.4,1.7,1.1,1.7
					c0.4,0,0.7-0.2,0.9-0.4c0.2-0.3,0.3-0.7,0.3-1.3s-0.1-1-0.3-1.3c-0.2-0.3-0.5-0.4-0.9-0.4C258.4,119.9,257.9,120.5,257.9,121.7z
					"/>
				<path class="st4" d="M264.6,122.4v2.1h-1.5v-5.9h1.9c1.6,0,2.4,0.6,2.4,1.8c0,0.7-0.3,1.2-1,1.5l1.7,2.6h-1.8l-1.2-2.1
					C265,122.4,264.6,122.4,264.6,122.4z M264.6,121.2h0.3c0.5,0,0.8-0.3,0.8-0.8c0-0.4-0.3-0.6-0.8-0.6h-0.3V121.2L264.6,121.2z"/>
				<path class="st4" d="M271.3,119.9c-0.4,0-0.7,0.2-0.9,0.5c-0.2,0.3-0.3,0.8-0.3,1.3c0,1.1,0.4,1.7,1.3,1.7
					c0.3,0,0.5-0.1,0.8-0.2c0.3-0.1,0.5-0.2,0.8-0.3v1.4c-0.5,0.2-1,0.3-1.7,0.3c-0.9,0-1.5-0.3-2.1-0.8c-0.5-0.5-0.7-1.3-0.7-2.2
					c0-0.6,0.2-1.1,0.3-1.6c0.2-0.5,0.5-0.8,1-1.1c0.4-0.3,0.9-0.3,1.5-0.3s1.2,0.2,1.8,0.4l-0.5,1.2c-0.2-0.2-0.4-0.2-0.7-0.3
					C271.8,119.9,271.5,119.9,271.3,119.9z"/>
				<path class="st4" d="M277.4,124.7H274v-5.9h3.4v1.3h-1.9v0.9h1.8v1.3h-1.8v1.1h1.9V124.7z"/>
				<path class="st4" d="M284.5,122.8c0,0.3-0.1,0.7-0.3,0.9c-0.2,0.3-0.5,0.5-0.8,0.7s-0.8,0.2-1.2,0.2c-0.4,0-0.8,0-1-0.1
					c-0.3-0.1-0.5-0.2-0.8-0.3v-1.4c0.3,0.2,0.6,0.3,0.9,0.3c0.3,0.1,0.6,0.2,0.9,0.2c0.2,0,0.4-0.1,0.5-0.2
					c0.2-0.1,0.2-0.2,0.2-0.3s0-0.2-0.1-0.2c-0.1-0.1-0.2-0.2-0.2-0.2c-0.1-0.1-0.3-0.2-0.8-0.4c-0.4-0.2-0.7-0.3-0.9-0.5
					s-0.3-0.3-0.4-0.5s-0.2-0.5-0.2-0.8c0-0.5,0.2-0.9,0.6-1.3c0.4-0.3,0.9-0.5,1.6-0.5c0.6,0,1.2,0.2,1.8,0.4l-0.5,1.2
					c-0.5-0.3-1-0.4-1.4-0.4c-0.2,0-0.3,0.1-0.5,0.2c-0.1,0.1-0.2,0.2-0.2,0.3s0.1,0.2,0.2,0.3c0.2,0.1,0.5,0.3,0.9,0.5
					c0.5,0.2,0.9,0.5,1.1,0.8C284.4,122.1,284.5,122.4,284.5,122.8z"/>
				<path class="st4" d="M289,124.7l-0.3-1.1h-1.9l-0.3,1.1h-1.8l1.9-5.9h2.1l2,5.9H289z M288.4,122.2l-0.3-0.9
					c-0.1-0.2-0.2-0.5-0.2-0.8c-0.1-0.3-0.2-0.6-0.2-0.8c0,0.2-0.1,0.3-0.2,0.7s-0.2,0.9-0.5,1.8
					C287.1,122.2,288.4,122.2,288.4,122.2z"/>
				<path class="st4" d="M291.3,124.7v-5.9h1.5v4.6h2.2v1.3L291.3,124.7L291.3,124.7z"/>
				<path class="st4" d="M299.6,124.7h-3.4v-5.9h3.4v1.3h-1.9v0.9h1.8v1.3h-1.8v1.1h1.9V124.7z"/>
				<path class="st4" d="M304.5,122.8c0,0.3-0.1,0.7-0.3,0.9c-0.2,0.3-0.5,0.5-0.8,0.7s-0.8,0.2-1.2,0.2c-0.4,0-0.8,0-1-0.1
					c-0.3-0.1-0.5-0.2-0.8-0.3v-1.4c0.3,0.2,0.6,0.3,0.9,0.3c0.3,0.1,0.6,0.2,0.9,0.2c0.2,0,0.4-0.1,0.5-0.2
					c0.2-0.1,0.2-0.2,0.2-0.3s0-0.2-0.1-0.2s-0.2-0.2-0.2-0.2c-0.1-0.1-0.3-0.2-0.8-0.4c-0.4-0.2-0.7-0.3-0.9-0.5
					c-0.2-0.2-0.3-0.3-0.4-0.5s-0.2-0.5-0.2-0.8c0-0.5,0.2-0.9,0.6-1.3c0.4-0.3,0.9-0.5,1.6-0.5c0.6,0,1.2,0.2,1.8,0.4l-0.5,1.2
					c-0.5-0.3-1-0.4-1.4-0.4c-0.2,0-0.3,0.1-0.5,0.2c-0.1,0.1-0.2,0.2-0.2,0.3s0.1,0.2,0.2,0.3c0.2,0.1,0.5,0.3,0.9,0.5
					s0.9,0.5,1.1,0.8C304.5,122.1,304.5,122.4,304.5,122.8z"/>
				<path class="st4" d="M310.2,119.9c-0.4,0-0.7,0.2-0.9,0.5c-0.2,0.3-0.3,0.8-0.3,1.3c0,1.1,0.4,1.7,1.3,1.7
					c0.3,0,0.5-0.1,0.8-0.2c0.3-0.1,0.5-0.2,0.8-0.3v1.4c-0.5,0.2-1,0.3-1.7,0.3c-0.9,0-1.5-0.3-2.1-0.8c-0.5-0.5-0.7-1.3-0.7-2.2
					c0-0.6,0.2-1.1,0.3-1.6c0.2-0.5,0.5-0.8,1-1.1c0.4-0.3,0.9-0.3,1.5-0.3s1.2,0.2,1.8,0.4l-0.5,1.2c-0.2-0.2-0.4-0.2-0.7-0.3
					C310.7,119.9,310.4,119.9,310.2,119.9z"/>
				<path class="st4" d="M312.9,124.7v-5.9h1.5v4.6h2.2v1.3L312.9,124.7L312.9,124.7z"/>
				<path class="st4" d="M323.2,121.7c0,1-0.3,1.8-0.8,2.2c-0.5,0.5-1.2,0.8-2.1,0.8s-1.6-0.3-2.1-0.8s-0.8-1.3-0.8-2.2
					s0.3-1.7,0.8-2.2s1.2-0.8,2.1-0.8s1.6,0.3,2.1,0.8C323,119.9,323.2,120.7,323.2,121.7z M319.2,121.7c0,1.1,0.4,1.7,1.1,1.7
					c0.4,0,0.7-0.2,0.9-0.4c0.2-0.3,0.3-0.7,0.3-1.3s-0.1-1-0.3-1.3c-0.2-0.3-0.5-0.4-0.9-0.4C319.6,119.9,319.2,120.5,319.2,121.7z
					"/>
				<path class="st4" d="M329.2,118.7v3.5c0,0.8-0.2,1.4-0.7,1.8c-0.4,0.4-1.1,0.6-1.9,0.6s-1.4-0.2-1.8-0.6c-0.4-0.4-0.7-1-0.7-1.8
					v-3.6h1.6v3.4c0,0.4,0.1,0.8,0.2,0.9c0.2,0.2,0.4,0.3,0.7,0.3c0.3,0,0.5-0.1,0.7-0.3s0.2-0.5,0.2-0.9v-3.4L329.2,118.7
					L329.2,118.7z"/>
				<path class="st4" d="M335.5,121.5c0,0.9-0.3,1.8-0.8,2.2c-0.5,0.5-1.3,0.8-2.3,0.8h-1.9v-5.9h2.1c0.9,0,1.7,0.3,2.1,0.8
					C335.3,119.9,335.5,120.6,335.5,121.5z M333.8,121.6c0-0.5-0.2-0.9-0.3-1.2c-0.2-0.3-0.5-0.4-0.9-0.4h-0.5v3.4h0.3
					c0.5,0,0.8-0.2,1.1-0.4C333.7,122.6,333.8,122.2,333.8,121.6z"/>
			</g>
			<rect x="212.6" y="189" class="st35" width="77.4" height="1.6"/>
			<rect x="211.5" y="189" class="st3" width="27.4" height="1.6"/>
			<g>
				<circle class="st5" cx="322.4" cy="108.7" r="1.6"/>
				<circle class="st5" cx="328.3" cy="108.7" r="1.6"/>
				<circle class="st5" cx="334.3" cy="108.7" r="1.6"/>
			</g>
		</g>
	</g>
	<g>
		<g>
			<path class="st1" d="M167.6,155.6c-16.7-4.4-36.2-7-53.4-7c-19.2,0-33.5-2.6-42.7-7.8c-7.3-4.1-8.5-8.5-8.7-8.9l4.4-1.1v-0.1
				c0,0.1,4.7,13.4,46.9,13.4c17.6,0,37.5,2.6,54.6,7.1c8.7,2.3,22.5,6.7,27.8,12.6c0.9,1.1-1.6,4.5-1.6,4.5
				S184.7,160.2,167.6,155.6z"/>
		</g>
		<g>
			<g>
				<g>
					<path class="st22" d="M186,131c0,0,5.4,3.6,5.7,6.2c0.3,2.5-4,27.9-6.2,29.9l-4.6,1.3c0,0-3.1-3.7-2.8-6.9
						C178.3,158.4,186,131,186,131z"/>
					<path class="st36" d="M108.1,171.1l-2.9-3.3l-10.4,5.1C94.8,172.9,100.1,176.7,108.1,171.1z"/>
					<path class="st36" d="M138.9,163.4c0,0-11.9,16.3-16.2,21.4c0,0-7.3-6.4-14.6-13.9l-9,3.6c0,0,14.7,28.2,24.2,30.7
						c13.1,3.4,38.4-32.1,38.4-32.1L138.9,163.4z"/>
					<g>
						<path class="st37" d="M143.8,189.4c8.1,8.1,19.1,18.7,22.8,20.8c0,0-5.2,9-11.6,18.3l5.6,8.8c0,0,26.6-21.3,27.3-31.8
							c0.9-14.5-47-47.7-47-47.7l-1.9,2.6c-4.4,6.1-5.1,14.1-1.6,20.7C139.2,184.1,141.5,187.1,143.8,189.4z"/>
						<path class="st36" d="M155.7,227.9l-3,4.2l8.7,10.4C161.5,242.6,164.4,235.5,155.7,227.9z"/>
					</g>
					<path class="st38" d="M182.8,125.7c0,0-1.4,2.4-3.8,4.8l-7.9,0.9l2.8-8.1c0,0,2.4,0.3,4.9-3.5L182.8,125.7z"/>
					<path class="st39" d="M183.1,125.8c0,0-7.6-3.7-5.3-8.4c2.3-4.7,2.9-8.3,7.8-6.2c5,2.1,5.1,4.4,4.6,6.1
						C189.9,119.1,185.1,126.6,183.1,125.8z"/>
					<path class="st36" d="M177.8,117.4c0,0,3.8-5.9,10.4-2.2c6.5,3.8,7-4.1,1.8-8c0,0-0.6,2.6-4.3,1
						C177.7,105,177.7,116.1,177.8,117.4z"/>
					<path class="st22" d="M181.5,152.4c-3.2,2.9-10,9.5-19.9,20.6c0,0-2.2,1.1-11.3-4.8c-2.4-1.6-4.3-3.4-5.9-5.2
						c-2.8-3.1-4.1-5.8-4.1-5.8s9.4-9.4,14.6-23.6l0,0c0,0-6.8,0-10.3-1.3c0,0-6.1,6.5-10.9,8.2c-1.4,0.5-4.5-3.4-4.5-3.4l8-12.6
						c0.5-0.8,1.3-1.3,2.2-1.4c4.9-0.7,20.8-2.6,27.5-1.3c0,0,1.9-0.2,7.4,2.4c0.9,0.4-1.4,3.4,2.5,5.5c4.7,2.4,4.3-1.8,5.3-1.3
						c1.5,0.9,2.6,1.6,4.1,2.7c1.4,1,2.6,2.2,3.7,3.5c2,2.6-1.3,8.8-3.8,12.7C184.7,149.1,183.2,150.9,181.5,152.4z"/>
					<path class="st4" d="M176.6,129.4l3.2,1.1c0,0,0.3,0.2,0.1,0.8c-0.3,0.4-1.9,1.3-2.3,1.1C177,132.3,175.3,129.9,176.6,129.4z"
						/>
					<path class="st17" d="M182,127.2c0,0-1.5,2.3-3.7,2.7l0.6,4c0,0,4.2-1.6,5.4-4C184.4,130,182.6,127.7,182,127.2z"/>
					<path class="st17" d="M181.8,127.1c0,0-1.3,2.1-3.3,2.8l0.7,3.7c0,0,3.8-1.5,5.3-3.7C184.5,130,182.5,127.6,181.8,127.1z"/>
					<path class="st17" d="M174.8,123.4c0,0,1.7,5,3.7,6.4l-3.3,3.2c0,0-4.8-7.7-3.4-10C171.6,123.1,174.1,123,174.8,123.4z"/>
					<path class="st17" d="M175.4,123c0,0,1.1,5.5,3.1,7l-3.1,2.9c0,0-4.7-7.3-3.4-9.6C172,123.1,174.7,122.5,175.4,123z"/>
					<path class="st17" d="M151.4,159.8c-2.7,1.7-5,2.8-7,3.3c-2.8-3.1-4.1-5.8-4.1-5.8s9.4-9.4,14.6-23.6c1.3-0.2,2.7-0.1,3.2,0.8
						C159.4,136.5,155.8,157,151.4,159.8z"/>
					<path class="st4" d="M177.1,131.9c0,0-3.5,4.2-8.4,7.7c-7.4,5.3-15.6,8.6-24.2,6c0,0-1.3-1.2-5.6,0.3c0,0,1,3.7,2.7,4.5
						c13.2,6.4,31.8-4.6,36.7-18.3C178.4,131.7,177.5,131.5,177.1,131.9z"/>
					<path class="st39" d="M165.1,162.4L165.1,162.4L165.1,162.4c0-0.1,0.2-0.2,0.2-0.3c0.8-1,4-3.8,4-3.8l-4.4-1.5
						c-0.1,0-0.2-0.1-0.3-0.1l-4.1-1c-0.9-0.2-2.1,1.1-2.9,2.3c-0.6,0.9-0.6,2.2,0.1,3.1l0.1,0.1c0.1,0.1,0.2,0.2,0.2,0.3l0,0l0,0
						c0.2,0.3,0.6,0.5,1,0.5l4.1,1C163.8,163.4,164.7,163,165.1,162.4z"/>
					<path class="st22" d="M185.6,167.1c0,0-2.7,3.2-6.5,2.3c-2.1-0.5-13.8-7.2-13.8-7.2l1.8-4.6c0,0,11.2,1.6,14.6,3.8
						C185,163.6,185.6,167.1,185.6,167.1z"/>
					<polygon class="st17" points="167,157.6 170.1,158.1 167.8,163.8 165.3,162.2 					"/>
				</g>
			</g>
		</g>
		<g>
			<g>
				<path class="st3" d="M111.6,141.2l-7.8,11.4c-0.6,0.8-0.4,2,0.5,2.6l20.7,14.2c0.8,0.6,2,0.4,2.6-0.5l7.8-11.4
					c0.6-0.8,0.4-2-0.5-2.6l-5.5-3.8l1-1.4c0.5-0.8,0.3-1.8-0.4-2.2l-7.1-4.9c-0.8-0.5-1.8-0.3-2.2,0.4l-1,1.4l-5.5-3.8
					C113.3,140.2,112.1,140.5,111.6,141.2z M128,150.3l-7.1-5l1-1.4l0,0l7.1,4.9l0,0L128,150.3z"/>
				
					<rect x="120.4" y="139.1" transform="matrix(0.5676 -0.8233 0.8233 0.5676 -74.2113 165.693)" class="st17" width="0.5" height="28.8"/>
			</g>
			<path class="st39" d="M131.1,143.1L131.1,143.1L131.1,143.1c0-0.1-0.1-0.1-0.1-0.3c-0.2-1.1-0.5-4.9-0.5-4.9l-3.4,2.3
				c-0.1,0.1-0.2,0.2-0.3,0.1l-2.9,2.4c-0.6,0.5-0.4,2.1,0,3.3c0.3,1,1.2,1.7,2.3,1.6l0.1,0c0.1,0,0.2,0,0.3,0l0,0l0,0
				c0.3,0,0.7-0.2,1-0.4l2.9-2.4C131,144.5,131.3,143.8,131.1,143.1z"/>
			<polygon class="st40" points="133.6,140.4 131.2,143.2 126.6,140 129,136.8 			"/>
		</g>
		<g>
			<path class="st2" d="M54.2,181.8l-3.4-3.1c0.5-0.6,12.9-13.9,49.6-13.9c15.1,0,30.3,2.8,43.7,5.3c19.1,3.6,35.7,6.9,46.7,1.2
				c3.7-1.9,6.1-6.1,5.8-7.4c0,0,2.3,8.6-3.8,11.5c-12.5,6.1-29.7,2.9-49.6-0.8c-13.8-2.6-28.2-5.2-42.9-5.2
				C65.8,169.4,54.4,181.7,54.2,181.8z"/>
		</g>
	</g>
	<polygon class="st17" points="91.9,74.6 87.7,74.6 87.7,70.4 85.1,70.4 85.1,74.6 80.9,74.6 80.9,77.2 85.1,77.2 85.1,81.4 
		87.7,81.4 87.7,77.2 91.9,77.2 	"/>
	<polygon class="st41" points="211.4,63.6 207.2,63.6 207.2,59.4 204.6,59.4 204.6,63.6 200.4,63.6 200.4,66.2 204.6,66.2 
		204.6,70.4 207.2,70.4 207.2,66.2 211.4,66.2 	"/>
	<polygon class="st41" points="823.5,214.3 819.3,214.3 819.3,210.1 816.7,210.1 816.7,214.3 812.5,214.3 812.5,216.9 816.7,216.9 
		816.7,221.1 819.3,221.1 819.3,216.9 823.5,216.9 	"/>
	<polygon class="st41" points="497.9,110.6 493.7,110.6 493.7,106.4 491.1,106.4 491.1,110.6 486.9,110.6 486.9,113.2 491.1,113.2 
		491.1,117.4 493.7,117.4 493.7,113.2 497.9,113.2 	"/>
	<g>
		<polygon class="st17" points="105.6,93.4 102.5,93.4 102.5,90.3 100.7,90.3 100.7,93.4 97.6,93.4 97.6,95.2 100.7,95.2 
			100.7,98.3 102.5,98.3 102.5,95.2 105.6,95.2 		"/>
		<path class="st17" d="M103,98.8h-2.8v-3.1h-3.1v-2.8h3.1v-3.1h2.8v3.1h3.1v2.8H103V98.8z M101.2,97.8h0.8v-3.1h3.1v-0.8H102v-3.1
			h-0.8v3.1h-3.1v0.8h3.1V97.8z"/>
	</g>
	<g class="st16">
		<g>
			<path class="st17" d="M656.8,215.4c-9.7,0-17.5-7.8-17.5-17.5c0-9.7,7.8-17.5,17.5-17.5s17.5,7.8,17.5,17.5
				C674.3,207.6,666.4,215.4,656.8,215.4z"/>
		</g>
		<g class="st18">
			<path class="st19" d="M656.8,211.9c-7.7,0-14-6.3-14-14c0-7.7,6.3-14,14-14c7.7,0,14,6.3,14,14
				C670.8,205.6,664.5,211.9,656.8,211.9z M656.8,186.3c-6.4,0-11.7,5.2-11.7,11.7c0,6.4,5.2,11.7,11.7,11.7
				c6.4,0,11.7-5.2,11.7-11.7C668.4,191.5,663.2,186.3,656.8,186.3z"/>
		</g>
		<g>
			<path class="st10" d="M662.5,201c0,1.3-0.5,2.2-1.3,2.9c-0.9,0.7-2.1,1.2-3.7,1.3v2.3h-1.5v-2.3c-1.9-0.1-3.5-0.3-4.9-0.9v-3
				c0.7,0.3,1.5,0.6,2.5,0.9c0.9,0.2,1.8,0.3,2.5,0.5v-3.5l-0.7-0.3c-1.5-0.6-2.6-1.3-3.3-1.9c-0.7-0.7-0.9-1.5-0.9-2.6
				c0-1.1,0.5-2,1.3-2.7c0.9-0.7,2.1-1.2,3.6-1.3v-1.8h1.5v1.8c1.8,0.1,3.3,0.5,4.7,1.1l-1,2.7c-1.2-0.5-2.5-0.8-3.7-0.9v3.3
				c1.5,0.6,2.6,1,3.2,1.5c0.7,0.5,1,0.9,1.4,1.4C662.4,199.8,662.5,200.4,662.5,201z M654.4,194.2c0,0.3,0.1,0.6,0.3,0.8
				c0.2,0.2,0.6,0.5,1,0.7V193C654.9,193.1,654.4,193.6,654.4,194.2z M659.1,201.2c0-0.3-0.1-0.6-0.3-0.8c-0.3-0.2-0.7-0.5-1.2-0.7
				v2.9C658.5,202.4,659.1,201.9,659.1,201.2z"/>
		</g>
	</g>
	<g class="st16">
		<g>
			<path class="st17" d="M801.1,136.4c-8.3,0-15-6.7-15-15s6.7-15,15-15s15,6.7,15,15C816.1,129.7,809.4,136.4,801.1,136.4z"/>
		</g>
		<g class="st18">
			<path class="st19" d="M801.1,133.4c-6.6,0-12-5.4-12-12s5.4-12,12-12s12,5.4,12,12S807.7,133.4,801.1,133.4z M801.1,111.4
				c-5.5,0-10,4.5-10,10s4.5,10,10,10s10-4.5,10-10S806.6,111.4,801.1,111.4z"/>
		</g>
		<g>
			<path class="st10" d="M806,124c0,1.1-0.4,1.9-1.1,2.5c-0.8,0.6-1.8,1-3.2,1.1v2h-1.3v-2c-1.6-0.1-3-0.3-4.2-0.8v-2.6
				c0.6,0.3,1.3,0.5,2.1,0.8c0.8,0.2,1.5,0.3,2.1,0.4v-3l-0.6-0.3c-1.3-0.5-2.2-1.1-2.8-1.6c-0.6-0.6-0.8-1.3-0.8-2.2
				c0-0.9,0.4-1.7,1.1-2.3c0.8-0.6,1.8-1,3.1-1.1v-1.5h1.3v1.5c1.5,0.1,2.8,0.4,4,0.9l-0.9,2.3c-1-0.4-2.1-0.7-3.2-0.8v2.8
				c1.3,0.5,2.2,0.9,2.7,1.3c0.6,0.4,0.9,0.8,1.2,1.2C805.9,123,806,123.5,806,124z M799.1,118.2c0,0.3,0.1,0.5,0.3,0.7
				c0.2,0.2,0.5,0.4,0.9,0.6v-2.3C799.5,117.3,799.1,117.7,799.1,118.2z M803.1,124.2c0-0.3-0.1-0.5-0.3-0.7c-0.3-0.2-0.6-0.4-1-0.6
				v2.5C802.6,125.2,803.1,124.8,803.1,124.2z"/>
		</g>
	</g>
	<polygon class="st17" points="335.4,46.1 331.2,46.1 331.2,41.9 328.6,41.9 328.6,46.1 324.4,46.1 324.4,48.7 328.6,48.7 
		328.6,52.9 331.2,52.9 331.2,48.7 335.4,48.7 	"/>
	
		<linearGradient id="SVGID_5_" gradientUnits="userSpaceOnUse" x1="758.1127" y1="-711.6" x2="758.1127" y2="-616.75" gradientTransform="matrix(1 0 0 -1 0 -484.5)">
		<stop  offset="0" style="stop-color:#FFFFFF"/>
		<stop  offset="0.1559" style="stop-color:#FFFEFD"/>
		<stop  offset="0.3567" style="stop-color:#FFFCF6"/>
		<stop  offset="0.4537" style="stop-color:#FFF8EB"/>
		<stop  offset="0.5592" style="stop-color:#FFF2DA"/>
		<stop  offset="0.6534" style="stop-color:#FFEBC4"/>
		<stop  offset="0.7236" style="stop-color:#FFE2A8"/>
		<stop  offset="0.7882" style="stop-color:#FFD788"/>
		<stop  offset="0.8539" style="stop-color:#FFCB62"/>
		<stop  offset="0.925" style="stop-color:#FFBD39"/>
		<stop  offset="1" style="stop-color:#FFAF10"/>
	</linearGradient>
	<polygon class="st11" points="780.5,154.6 769.3,143.4 758.1,132.2 747,143.4 735.8,154.6 744.8,154.6 744.8,227.1 758.1,227.1 
		771.5,227.1 771.5,154.6 	"/>
	<polygon class="st5" points="568.2,238.4 564,238.4 564,234.2 561.4,234.2 561.4,238.4 557.2,238.4 557.2,241 561.4,241 
		561.4,245.2 564,245.2 564,241 568.2,241 	"/>
	<g>
		<polygon class="st17" points="583.3,227.1 580.2,227.1 580.2,224 578.4,224 578.4,227.1 575.3,227.1 575.3,228.9 578.4,228.9 
			578.4,232 580.2,232 580.2,228.9 583.3,228.9 		"/>
		<path class="st17" d="M580.7,232.5h-2.8v-3.1h-3.1v-2.8h3.1v-3.1h2.8v3.1h3.1v2.8h-3.1V232.5z M578.9,231.5h0.8v-3.1h3.1v-0.8
			h-3.1v-3.1h-0.8v3.1h-3.1v0.8h3.1V231.5z"/>
	</g>
	<g class="st16">
		<g>
			<path class="st17" d="M178.6,39.8c-8.3,0-15-6.7-15-15s6.7-15,15-15s15,6.7,15,15S186.9,39.8,178.6,39.8z"/>
		</g>
		<g class="st18">
			<path class="st19" d="M178.6,36.8c-6.6,0-12-5.4-12-12s5.4-12,12-12s12,5.4,12,12S185.2,36.8,178.6,36.8z M178.6,14.8
				c-5.5,0-10,4.5-10,10s4.5,10,10,10s10-4.5,10-10S184.1,14.8,178.6,14.8z"/>
		</g>
		<g>
			<path class="st10" d="M183.5,27.4c0,1.1-0.4,1.9-1.1,2.5c-0.8,0.6-1.8,1-3.2,1.1v2h-1.3v-2c-1.6-0.1-3-0.3-4.2-0.8v-2.6
				c0.6,0.3,1.3,0.5,2.1,0.8c0.8,0.2,1.5,0.3,2.1,0.4v-3l-0.6-0.3c-1.3-0.5-2.2-1.1-2.8-1.6c-0.6-0.6-0.8-1.3-0.8-2.2
				c0-0.9,0.4-1.7,1.1-2.3c0.8-0.6,1.8-1,3.1-1.1v-1.5h1.3v1.5c1.5,0.1,2.8,0.4,4,0.9l-0.9,2.3c-1-0.4-2.1-0.7-3.2-0.8v2.8
				c1.3,0.5,2.2,0.9,2.7,1.3c0.6,0.4,0.9,0.8,1.2,1.2C183.4,26.4,183.5,26.9,183.5,27.4z M176.6,21.6c0,0.3,0.1,0.5,0.3,0.7
				s0.5,0.4,0.9,0.6v-2.3C177,20.7,176.6,21.1,176.6,21.6z M180.6,27.6c0-0.3-0.1-0.5-0.3-0.7c-0.3-0.2-0.6-0.4-1-0.6v2.5
				C180.1,28.6,180.6,28.2,180.6,27.6z"/>
		</g>
	</g>
	<g class="st16">
		<g>
			<path class="st17" d="M34,120.8c-12.4,0-22.5-10.1-22.5-22.5S21.6,75.8,34,75.8s22.5,10.1,22.5,22.5S46.4,120.8,34,120.8z"/>
		</g>
		<g class="st18">
			<path class="st19" d="M34,116c-9.8,0-17.8-8-17.8-17.8s8-17.8,17.8-17.8s17.8,8,17.8,17.8S43.8,116,34,116z M34,83
				c-8.4,0-15.3,6.8-15.3,15.3s6.9,15.2,15.3,15.2s15.3-6.8,15.3-15.3S42.4,83,34,83z"/>
		</g>
		<g>
			<path class="st10" d="M41.4,102.2c0,1.6-0.6,2.8-1.7,3.8s-2.7,1.5-4.7,1.7v3h-2v-2.9c-2.4-0.1-4.5-0.5-6.3-1.2v-3.9
				c0.9,0.4,1.9,0.8,3.1,1.1c1.2,0.3,2.3,0.5,3.2,0.6v-4.5l-0.9-0.4c-2-0.8-3.3-1.6-4.2-2.5s-1.2-2-1.2-3.3c0-1.4,0.6-2.6,1.7-3.5
				s2.7-1.5,4.6-1.7v-2.3h2v2.2c2.3,0.1,4.3,0.6,6.1,1.3l-1.4,3.4c-1.5-0.7-3.1-1-4.7-1.1v4.4c1.9,0.8,3.3,1.4,4.1,1.9
				c0.9,0.6,1.4,1.1,1.8,1.8C41.2,100.5,41.4,101.3,41.4,102.2z M31,93.4c0,0.5,0.2,0.8,0.5,1c0.3,0.3,0.8,0.6,1.4,0.9v-3.5
				C31.6,92,31,92.6,31,93.4z M36.9,102.3c0-0.4-0.2-0.8-0.5-1c-0.4-0.3-0.9-0.6-1.5-0.9v3.7C36.3,103.9,36.9,103.3,36.9,102.3z"/>
		</g>
	</g>
</g>
<line class="st43" x1="0" y1="262.5" x2="835" y2="262.5"/>
</svg>
