<?xml version="1.0" encoding="utf-8"?>
<!-- Generator: Adobe Illustrator 21.1.0, SVG Export Plug-In . SVG Version: 6.00 Build 0)  -->
<svg version="1.1" id="Layer_1" xmlns="http://www.w3.org/2000/svg" xmlns:xlink="http://www.w3.org/1999/xlink" x="0px" y="0px"
	 viewBox="0 0 1018 387" style="enable-background:new 0 0 1018 387;" xml:space="preserve">
<style type="text/css">
	.st0{clip-path:url(#SVGID_2_);fill:#70C9EF;}
	.st1{clip-path:url(#SVGID_4_);fill:#AEEAFF;}
	.st2{clip-path:url(#SVGID_6_);fill:#E4F2FB;}
	.st3{fill:none;stroke:#FFFFFF;stroke-width:2;stroke-linecap:square;stroke-miterlimit:10;}
	
		.st4{fill:none;stroke:#FFAA00;stroke-width:3.5;stroke-linecap:round;stroke-linejoin:round;stroke-miterlimit:10;stroke-dasharray:0.1,7;}
	.st5{fill:#FFAA00;stroke:#FFFFFF;stroke-width:3;stroke-miterlimit:10;}
	.st6{fill:#333333;}
	.st7{fill:#70C9EF;}
	.st8{fill:#A4E9FC;}
	.st9{fill:#00A1E0;}
	.st10{fill:#D2EBF9;}
	.st11{fill:none;stroke:#EEEEEE;stroke-width:2.5;stroke-miterlimit:10;}
</style>
<g>
	<g>
		<g>
			<defs>
				<rect id="SVGID_1_" x="126.4" y="30.9" width="282.6" height="280.4"/>
			</defs>
			<use xlink:href="#SVGID_1_"  style="overflow:visible;fill:#00A1E0;"/>
			<clipPath id="SVGID_2_">
				<use xlink:href="#SVGID_1_"  style="overflow:visible;"/>
			</clipPath>
			<ellipse class="st0" cx="205.1" cy="351" rx="446.3" ry="325.2"/>
		</g>
	</g>
	<g>
		<g>
			<defs>
				<rect id="SVGID_3_" x="126.4" y="30.9" width="282.6" height="280.4"/>
			</defs>
			<clipPath id="SVGID_4_">
				<use xlink:href="#SVGID_3_"  style="overflow:visible;"/>
			</clipPath>
			<ellipse class="st1" cx="126.4" cy="311.9" rx="141.3" ry="105.4"/>
		</g>
	</g>
	<g>
		<g>
			<defs>
				<rect id="SVGID_5_" x="126.4" y="30.9" width="282.6" height="280.4"/>
			</defs>
			<clipPath id="SVGID_6_">
				<use xlink:href="#SVGID_5_"  style="overflow:visible;"/>
			</clipPath>
			<ellipse class="st2" cx="126.4" cy="311.4" rx="40.9" ry="40.6"/>
		</g>
	</g>
</g>
<g>
	<line class="st3" x1="267.7" y1="30.9" x2="267.7" y2="311.4"/>
	<line class="st3" x1="126.4" y1="171.1" x2="409" y2="171.1"/>
</g>
<line class="st4" x1="142.6" y1="295.8" x2="425.4" y2="295.8"/>
<line class="st4" x1="206.4" y1="253.2" x2="468.8" y2="253.2"/>
<line class="st4" x1="267.7" y1="147.1" x2="615.1" y2="147.1"/>
<line class="st4" x1="395.9" y1="42" x2="761.3" y2="42"/>
<path class="st5" d="M395.9,48.5c-3.6,0-6.5-2.9-6.5-6.5s2.9-6.5,6.5-6.5s6.5,2.9,6.5,6.5S399.5,48.5,395.9,48.5z"/>
<path class="st5" d="M267.7,154c-3.8,0-7-3.1-7-6.9s3.1-6.9,7-6.9c3.8,0,7,3.1,7,6.9S271.4,154,267.7,154z"/>
<ellipse class="st5" cx="192.1" cy="253.7" rx="6.5" ry="6.5"/>
<ellipse class="st5" cx="142.6" cy="295.8" rx="6.5" ry="6.5"/>
<g>
	<path class="st6" d="M827.1,34.3v10.2c0,1.2-0.3,2.2-0.8,3.1c-0.5,0.9-1.3,1.5-2.3,2s-2.2,0.7-3.5,0.7c-2,0-3.6-0.5-4.7-1.6
		c-1.1-1-1.7-2.5-1.7-4.2V34.3h3.3v9.6c0,1.2,0.2,2.1,0.7,2.7c0.5,0.6,1.3,0.8,2.4,0.8s1.9-0.3,2.4-0.9s0.7-1.5,0.7-2.7v-9.6h3.5
		L827.1,34.3L827.1,34.3z"/>
	<path class="st6" d="M841.9,50h-3.3v-7c0-0.9-0.2-1.5-0.5-1.9s-0.8-0.6-1.5-0.6c-0.9,0-1.6,0.3-2,0.9s-0.6,1.6-0.6,3V50h-3.3V38
		h2.5l0.4,1.5h0.2c0.4-0.6,0.9-1,1.5-1.3s1.4-0.4,2.2-0.4c1.4,0,2.5,0.4,3.2,1.1c0.7,0.8,1.1,1.8,1.1,3.3L841.9,50L841.9,50z"/>
	<path class="st6" d="M848.6,50h-3.3V33.3h3.3V50z"/>
	<path class="st6" d="M851.9,34.9c0-1.1,0.6-1.6,1.8-1.6s1.8,0.5,1.8,1.6c0,0.5-0.1,0.9-0.4,1.2c-0.3,0.3-0.7,0.4-1.3,0.4
		C852.5,36.5,851.9,36,851.9,34.9z M855.3,50H852V38h3.3V50z"/>
	<path class="st6" d="M869.6,50h-3.3v-7c0-0.9-0.1-1.5-0.4-1.9s-0.8-0.6-1.4-0.6c-0.8,0-1.5,0.3-1.8,0.9c-0.4,0.6-0.6,1.6-0.6,3V50
		h-3.3V38h2.5l0.4,1.5h0.2c0.3-0.6,0.8-1,1.4-1.3c0.6-0.3,1.3-0.5,2.1-0.5c1.8,0,3,0.6,3.7,1.8h0.3c0.3-0.6,0.8-1,1.4-1.3
		s1.3-0.5,2.1-0.5c1.4,0,2.4,0.3,3.1,1c0.7,0.7,1.1,1.8,1.1,3.4V50h-3.3v-7c0-0.9-0.1-1.5-0.4-1.9s-0.8-0.6-1.4-0.6
		c-0.8,0-1.4,0.3-1.8,0.9c-0.4,0.6-0.6,1.5-0.6,2.7V50z"/>
	<path class="st6" d="M880.4,34.9c0-1.1,0.6-1.6,1.8-1.6s1.8,0.5,1.8,1.6c0,0.5-0.1,0.9-0.4,1.2c-0.3,0.3-0.7,0.4-1.3,0.4
		C881,36.5,880.4,36,880.4,34.9z M883.9,50h-3.3V38h3.3V50z"/>
	<path class="st6" d="M892.4,47.6c0.6,0,1.3-0.1,2.1-0.4v2.4c-0.8,0.4-1.8,0.5-3,0.5c-1.3,0-2.3-0.3-2.9-1s-0.9-1.7-0.9-3v-5.8H886
		v-1.4l1.8-1.1l1-2.5h2.1V38h3.4v2.5h-3.4v5.8c0,0.5,0.1,0.8,0.4,1S892,47.6,892.4,47.6z"/>
	<path class="st6" d="M902.4,50.2c-1.9,0-3.5-0.5-4.6-1.6s-1.6-2.6-1.6-4.5c0-2,0.5-3.6,1.5-4.7c1-1.1,2.4-1.6,4.2-1.6
		c1.7,0,3,0.5,4,1.5s1.4,2.3,1.4,4v1.6h-7.8c0,0.9,0.3,1.7,0.8,2.2s1.2,0.8,2.2,0.8c0.7,0,1.4-0.1,2.1-0.2s1.3-0.4,2-0.7v2.5
		c-0.6,0.3-1.2,0.5-1.9,0.6C904.2,50.1,903.4,50.2,902.4,50.2z M902,40.1c-0.7,0-1.2,0.2-1.6,0.7c-0.4,0.4-0.6,1.1-0.7,1.9h4.6
		c0-0.8-0.2-1.4-0.6-1.9S902.7,40.1,902,40.1z"/>
	<path class="st6" d="M913.9,50.2c-1.4,0-2.5-0.5-3.3-1.6s-1.2-2.6-1.2-4.6s0.4-3.5,1.2-4.6s2-1.6,3.4-1.6c1.5,0,2.7,0.6,3.5,1.8
		h0.1c-0.2-0.9-0.2-1.7-0.2-2.4v-3.8h3.3V50h-2.5l-0.6-1.6h-0.3C916.6,49.6,915.4,50.2,913.9,50.2z M915,47.6c0.8,0,1.5-0.2,1.9-0.7
		s0.6-1.3,0.6-2.5V44c0-1.3-0.2-2.2-0.6-2.8s-1.1-0.8-2-0.8c-0.7,0-1.3,0.3-1.7,0.9c-0.4,0.6-0.6,1.5-0.6,2.7s0.2,2.1,0.6,2.7
		C913.7,47.3,914.3,47.6,915,47.6z"/>
</g>
<g>
	<path class="st6" d="M665.6,154.1h-9.1v-15.7h9.1v2.7h-5.8v3.4h5.4v2.7h-5.4v4h5.8V154.1z"/>
	<path class="st6" d="M679.8,154.1h-3.3v-7c0-0.9-0.2-1.5-0.5-2c-0.3-0.4-0.8-0.6-1.5-0.6c-0.9,0-1.6,0.3-2,0.9
		c-0.4,0.6-0.6,1.6-0.6,3v5.7h-3.3v-12h2.5l0.4,1.5h0.2c0.4-0.6,0.9-1,1.5-1.3s1.4-0.4,2.2-0.4c1.4,0,2.5,0.4,3.2,1.1
		c0.7,0.8,1.1,1.8,1.1,3.3L679.8,154.1L679.8,154.1z"/>
	<path class="st6" d="M688.3,151.8c0.6,0,1.3-0.1,2.1-0.4v2.4c-0.8,0.4-1.8,0.5-3,0.5c-1.3,0-2.3-0.3-2.9-1c-0.6-0.7-0.9-1.7-0.9-3
		v-5.8H682v-1.4l1.8-1.1l1-2.5h2.1v2.6h3.4v2.5h-3.4v5.8c0,0.5,0.1,0.8,0.4,1C687.5,151.6,687.8,151.8,688.3,151.8z"/>
	<path class="st6" d="M698.3,154.4c-1.9,0-3.5-0.5-4.6-1.6s-1.6-2.6-1.6-4.5c0-2,0.5-3.6,1.5-4.7s2.4-1.6,4.2-1.6c1.7,0,3,0.5,4,1.5
		s1.4,2.3,1.4,4v1.6h-7.8c0,0.9,0.3,1.7,0.8,2.2s1.2,0.8,2.2,0.8c0.7,0,1.4-0.1,2.1-0.2s1.3-0.4,2-0.7v2.5c-0.6,0.3-1.2,0.5-1.9,0.6
		C700,154.3,699.2,154.4,698.3,154.4z M697.8,144.2c-0.7,0-1.2,0.2-1.6,0.7c-0.4,0.4-0.6,1.1-0.7,1.9h4.6c0-0.8-0.2-1.4-0.6-1.9
		C699.1,144.5,698.5,144.2,697.8,144.2z"/>
	<path class="st6" d="M712.6,141.9c0.4,0,0.8,0,1.1,0.1l-0.2,3.1c-0.3-0.1-0.6-0.1-1-0.1c-1.1,0-1.9,0.3-2.5,0.8s-0.9,1.3-0.9,2.3
		v6.1h-3.3v-12h2.5l0.5,2h0.2c0.4-0.7,0.9-1.2,1.5-1.6S711.9,141.9,712.6,141.9z"/>
	<path class="st6" d="M722.6,154.4c-1.4,0-2.5-0.5-3.3-1.5h-0.2c0.1,1,0.2,1.6,0.2,1.7v4.9H716v-17.3h2.7l0.5,1.6h0.2
		c0.8-1.2,1.9-1.8,3.4-1.8c1.4,0,2.5,0.5,3.4,1.6c0.8,1.1,1.2,2.6,1.2,4.6c0,1.3-0.2,2.4-0.6,3.3s-0.9,1.7-1.6,2.2
		S723.6,154.4,722.6,154.4z M721.6,144.5c-0.8,0-1.4,0.2-1.8,0.7c-0.4,0.5-0.6,1.3-0.6,2.5v0.4c0,1.3,0.2,2.2,0.6,2.8s1,0.8,1.8,0.8
		c1.5,0,2.2-1.2,2.2-3.6c0-1.2-0.2-2.1-0.5-2.7C723,144.8,722.4,144.5,721.6,144.5z"/>
	<path class="st6" d="M736.7,141.9c0.4,0,0.8,0,1.1,0.1l-0.2,3.1c-0.3-0.1-0.6-0.1-1-0.1c-1.1,0-1.9,0.3-2.5,0.8s-0.9,1.3-0.9,2.3
		v6.1h-3.3v-12h2.5l0.5,2h0.2c0.4-0.7,0.9-1.2,1.5-1.6S736,141.9,736.7,141.9z"/>
	<path class="st6" d="M739.9,139c0-1.1,0.6-1.6,1.8-1.6s1.8,0.5,1.8,1.6c0,0.5-0.1,0.9-0.4,1.2c-0.3,0.3-0.7,0.4-1.3,0.4
		C740.5,140.6,739.9,140.1,739.9,139z M743.4,154.1h-3.3v-12h3.3V154.1z"/>
	<path class="st6" d="M755.3,150.6c0,1.2-0.4,2.2-1.3,2.8s-2.2,1-3.9,1c-0.9,0-1.6-0.1-2.3-0.2c-0.6-0.1-1.2-0.3-1.7-0.5V151
		c0.6,0.3,1.3,0.5,2.1,0.7s1.4,0.3,2,0.3c1.2,0,1.8-0.3,1.8-1c0-0.3-0.1-0.5-0.2-0.6c-0.2-0.2-0.4-0.3-0.8-0.5
		c-0.4-0.2-0.9-0.4-1.6-0.7c-0.9-0.4-1.6-0.7-2.1-1.1s-0.8-0.7-1-1.1c-0.2-0.4-0.3-1-0.3-1.6c0-1.1,0.4-1.9,1.3-2.5
		c0.8-0.6,2-0.9,3.5-0.9s2.9,0.3,4.3,0.9l-1,2.4c-0.6-0.3-1.2-0.5-1.7-0.6c-0.5-0.2-1.1-0.2-1.6-0.2c-1,0-1.5,0.3-1.5,0.8
		c0,0.3,0.2,0.5,0.5,0.8c0.3,0.2,1,0.5,2.1,1c0.9,0.4,1.6,0.7,2.1,1.1s0.8,0.7,1,1.1C755.2,149.5,755.3,150,755.3,150.6z"/>
	<path class="st6" d="M763.3,154.4c-1.9,0-3.5-0.5-4.6-1.6s-1.6-2.6-1.6-4.5c0-2,0.5-3.6,1.5-4.7s2.4-1.6,4.2-1.6c1.7,0,3,0.5,4,1.5
		s1.4,2.3,1.4,4v1.6h-7.8c0,0.9,0.3,1.7,0.8,2.2s1.2,0.8,2.2,0.8c0.7,0,1.4-0.1,2.1-0.2s1.3-0.4,2-0.7v2.5c-0.6,0.3-1.2,0.5-1.9,0.6
		C765.1,154.3,764.3,154.4,763.3,154.4z M762.9,144.2c-0.7,0-1.2,0.2-1.6,0.7c-0.4,0.4-0.6,1.1-0.7,1.9h4.6c0-0.8-0.2-1.4-0.6-1.9
		C764.1,144.5,763.6,144.2,762.9,144.2z"/>
</g>
<g>
	<path class="st6" d="M531.4,249.3c0,1.7-0.5,3-1.6,3.9c-1.1,0.9-2.6,1.3-4.5,1.3h-1.4v5.6h-3.4v-15.7h5.1c1.9,0,3.4,0.4,4.4,1.2
		C530.9,246.5,531.4,247.7,531.4,249.3z M523.8,251.8h1.1c1,0,1.8-0.2,2.3-0.6s0.8-1,0.8-1.8s-0.2-1.4-0.6-1.7
		c-0.4-0.4-1.1-0.6-2-0.6h-1.5L523.8,251.8L523.8,251.8z"/>
	<path class="st6" d="M540.9,247.9c0.4,0,0.8,0,1.1,0.1l-0.2,3.1c-0.3-0.1-0.6-0.1-1-0.1c-1.1,0-1.9,0.3-2.5,0.8
		c-0.6,0.5-0.9,1.3-0.9,2.3v6.1h-3.3v-12h2.5l0.5,2h0.2c0.4-0.7,0.9-1.2,1.5-1.6C539.4,248.2,540.1,247.9,540.9,247.9z"/>
	<path class="st6" d="M555.2,254.1c0,2-0.5,3.5-1.6,4.6c-1,1.1-2.5,1.7-4.3,1.7c-1.2,0-2.2-0.3-3.1-0.8c-0.9-0.5-1.6-1.2-2-2.2
		c-0.5-0.9-0.7-2-0.7-3.3c0-2,0.5-3.5,1.5-4.6s2.5-1.6,4.4-1.6c1.2,0,2.2,0.3,3.1,0.8c0.9,0.5,1.6,1.2,2,2.2
		C554.9,251.8,555.2,252.9,555.2,254.1z M546.8,254.1c0,1.2,0.2,2.1,0.6,2.7c0.4,0.6,1,0.9,1.9,0.9c0.9,0,1.5-0.3,1.9-0.9
		c0.4-0.6,0.6-1.5,0.6-2.7s-0.2-2.1-0.6-2.7c-0.4-0.6-1-0.9-1.9-0.9c-0.9,0-1.5,0.3-1.9,0.9C547,252,546.8,252.9,546.8,254.1z"/>
	<path class="st6" d="M564.6,250.6h-2.9v9.5h-3.3v-9.5h-1.8V249l1.8-0.9v-0.9c0-1.4,0.3-2.4,1-3s1.8-0.9,3.3-0.9
		c1.1,0,2.2,0.2,3,0.5l-0.8,2.4c-0.7-0.2-1.3-0.3-1.8-0.3s-0.8,0.1-1,0.4c-0.2,0.3-0.3,0.6-0.3,1.1v0.8h2.9L564.6,250.6L564.6,250.6
		L564.6,250.6z"/>
	<path class="st6" d="M572,260.4c-1.9,0-3.5-0.5-4.6-1.6c-1.1-1.1-1.6-2.6-1.6-4.5c0-2,0.5-3.6,1.5-4.7s2.4-1.6,4.2-1.6
		c1.7,0,3,0.5,4,1.5s1.4,2.3,1.4,4v1.6h-7.8c0,0.9,0.3,1.7,0.8,2.2s1.2,0.8,2.2,0.8c0.7,0,1.4-0.1,2.1-0.2s1.3-0.4,2-0.7v2.5
		c-0.6,0.3-1.2,0.5-1.9,0.6C573.7,260.3,572.9,260.4,572,260.4z M571.5,250.2c-0.7,0-1.2,0.2-1.6,0.7c-0.4,0.4-0.6,1.1-0.7,1.9h4.6
		c0-0.8-0.2-1.4-0.6-1.9C572.8,250.5,572.2,250.2,571.5,250.2z"/>
	<path class="st6" d="M588,256.6c0,1.2-0.4,2.2-1.3,2.8c-0.9,0.6-2.2,1-3.9,1c-0.9,0-1.6-0.1-2.3-0.2c-0.6-0.1-1.2-0.3-1.7-0.5V257
		c0.6,0.3,1.3,0.5,2.1,0.7s1.4,0.3,2,0.3c1.2,0,1.8-0.3,1.8-1c0-0.3-0.1-0.5-0.2-0.6c-0.2-0.2-0.4-0.3-0.8-0.5
		c-0.4-0.2-0.9-0.4-1.6-0.7c-0.9-0.4-1.6-0.7-2.1-1.1s-0.8-0.7-1-1.1s-0.3-1-0.3-1.6c0-1.1,0.4-1.9,1.3-2.5c0.8-0.6,2-0.9,3.5-0.9
		s2.9,0.3,4.3,0.9l-1,2.4c-0.6-0.3-1.2-0.5-1.7-0.6c-0.5-0.2-1.1-0.2-1.6-0.2c-1,0-1.5,0.3-1.5,0.8c0,0.3,0.2,0.5,0.5,0.8
		c0.3,0.2,1,0.5,2.1,1c0.9,0.4,1.6,0.7,2.1,1.1s0.8,0.7,1,1.1C587.9,255.5,588,256,588,256.6z"/>
	<path class="st6" d="M599,256.6c0,1.2-0.4,2.2-1.3,2.8c-0.9,0.6-2.2,1-3.9,1c-0.9,0-1.6-0.1-2.3-0.2c-0.6-0.1-1.2-0.3-1.7-0.5V257
		c0.6,0.3,1.3,0.5,2.1,0.7s1.4,0.3,2,0.3c1.2,0,1.8-0.3,1.8-1c0-0.3-0.1-0.5-0.2-0.6c-0.2-0.2-0.4-0.3-0.8-0.5
		c-0.4-0.2-0.9-0.4-1.6-0.7c-0.9-0.4-1.6-0.7-2.1-1.1s-0.8-0.7-1-1.1s-0.3-1-0.3-1.6c0-1.1,0.4-1.9,1.3-2.5c0.8-0.6,2-0.9,3.5-0.9
		s2.9,0.3,4.3,0.9l-1,2.4c-0.6-0.3-1.2-0.5-1.7-0.6c-0.5-0.2-1.1-0.2-1.6-0.2c-1,0-1.5,0.3-1.5,0.8c0,0.3,0.2,0.5,0.5,0.8
		c0.3,0.2,1,0.5,2.1,1c0.9,0.4,1.6,0.7,2.1,1.1s0.8,0.7,1,1.1C598.9,255.5,599,256,599,256.6z"/>
	<path class="st6" d="M601.5,245c0-1.1,0.6-1.6,1.8-1.6c1.2,0,1.8,0.5,1.8,1.6c0,0.5-0.1,0.9-0.4,1.2s-0.7,0.4-1.3,0.4
		C602.1,246.6,601.5,246.1,601.5,245z M604.9,260.1h-3.3v-12h3.3V260.1z"/>
	<path class="st6" d="M619.4,254.1c0,2-0.5,3.5-1.6,4.6c-1,1.1-2.5,1.7-4.3,1.7c-1.2,0-2.2-0.3-3.1-0.8c-0.9-0.5-1.6-1.2-2-2.2
		c-0.5-0.9-0.7-2-0.7-3.3c0-2,0.5-3.5,1.5-4.6s2.5-1.6,4.4-1.6c1.2,0,2.2,0.3,3.1,0.8c0.9,0.5,1.6,1.2,2,2.2
		C619.1,251.8,619.4,252.9,619.4,254.1z M611,254.1c0,1.2,0.2,2.1,0.6,2.7s1,0.9,1.9,0.9s1.5-0.3,1.9-0.9s0.6-1.5,0.6-2.7
		s-0.2-2.1-0.6-2.7c-0.4-0.6-1-0.9-1.9-0.9s-1.5,0.3-1.9,0.9S611,252.9,611,254.1z"/>
	<path class="st6" d="M633.3,260.1H630v-7c0-0.9-0.2-1.5-0.5-2c-0.3-0.4-0.8-0.6-1.5-0.6c-0.9,0-1.6,0.3-2,0.9s-0.6,1.6-0.6,3v5.7
		h-3.3v-12h2.5l0.4,1.5h0.2c0.4-0.6,0.9-1,1.5-1.3s1.4-0.4,2.2-0.4c1.4,0,2.5,0.4,3.2,1.1c0.7,0.8,1.1,1.8,1.1,3.3L633.3,260.1
		L633.3,260.1z"/>
	<path class="st6" d="M644.4,260.1l-0.6-1.6h-0.1c-0.6,0.7-1.1,1.2-1.7,1.4c-0.6,0.3-1.4,0.4-2.3,0.4c-1.2,0-2.1-0.3-2.7-1
		c-0.7-0.7-1-1.6-1-2.8c0-1.3,0.4-2.2,1.3-2.8c0.9-0.6,2.3-0.9,4.1-1l2.1-0.1v-0.5c0-1.2-0.6-1.8-1.9-1.8c-1,0-2.1,0.3-3.4,0.9
		L637,249c1.4-0.7,2.9-1.1,4.6-1.1c1.6,0,2.9,0.4,3.7,1.1s1.3,1.8,1.3,3.2v8L644.4,260.1L644.4,260.1z M643.4,254.6h-1.3
		c-1,0-1.7,0.2-2.1,0.5c-0.5,0.3-0.7,0.8-0.7,1.4c0,0.9,0.5,1.4,1.6,1.4c0.8,0,1.4-0.2,1.8-0.7c0.5-0.4,0.7-1,0.7-1.7V254.6z"/>
	<path class="st6" d="M653.4,260.1h-3.3v-16.7h3.3V260.1z"/>
</g>
<g>
	<path class="st6" d="M480.9,304.1h-9.1v-15.7h9.1v2.7h-5.8v3.4h5.4v2.7h-5.4v4h5.8V304.1z"/>
	<path class="st6" d="M492.3,300.6c0,1.2-0.4,2.2-1.3,2.8s-2.2,1-3.9,1c-0.9,0-1.6-0.1-2.3-0.2c-0.6-0.1-1.2-0.3-1.7-0.5V301
		c0.6,0.3,1.3,0.5,2.1,0.7c0.8,0.2,1.4,0.3,2,0.3c1.2,0,1.8-0.3,1.8-1c0-0.3-0.1-0.5-0.2-0.6c-0.2-0.2-0.4-0.3-0.8-0.5
		s-0.9-0.4-1.6-0.7c-0.9-0.4-1.6-0.7-2.1-1.1s-0.8-0.7-1-1.1s-0.3-1-0.3-1.6c0-1.1,0.4-1.9,1.3-2.5c0.8-0.6,2-0.9,3.5-0.9
		s2.9,0.3,4.3,0.9l-1,2.4c-0.6-0.3-1.2-0.5-1.7-0.6c-0.5-0.2-1.1-0.2-1.6-0.2c-1,0-1.5,0.3-1.5,0.8c0,0.3,0.2,0.5,0.5,0.8
		c0.3,0.2,1,0.5,2.1,1c0.9,0.4,1.6,0.7,2.1,1.1s0.8,0.7,1,1.1C492.1,299.5,492.3,300,492.3,300.6z"/>
	<path class="st6" d="M503.4,300.6c0,1.2-0.4,2.2-1.3,2.8s-2.2,1-3.9,1c-0.9,0-1.6-0.1-2.3-0.2c-0.6-0.1-1.2-0.3-1.7-0.5V301
		c0.6,0.3,1.3,0.5,2.1,0.7c0.8,0.2,1.4,0.3,2,0.3c1.2,0,1.8-0.3,1.8-1c0-0.3-0.1-0.5-0.2-0.6c-0.2-0.2-0.4-0.3-0.8-0.5
		s-0.9-0.4-1.6-0.7c-0.9-0.4-1.6-0.7-2.1-1.1s-0.8-0.7-1-1.1s-0.3-1-0.3-1.6c0-1.1,0.4-1.9,1.3-2.5c0.8-0.6,2-0.9,3.5-0.9
		s2.9,0.3,4.3,0.9l-1,2.4c-0.6-0.3-1.2-0.5-1.7-0.6c-0.5-0.2-1.1-0.2-1.6-0.2c-1,0-1.5,0.3-1.5,0.8c0,0.3,0.2,0.5,0.5,0.8
		c0.3,0.2,1,0.5,2.1,1c0.9,0.4,1.6,0.7,2.1,1.1s0.8,0.7,1,1.1C503.3,299.5,503.4,300,503.4,300.6z"/>
	<path class="st6" d="M511.4,304.4c-1.9,0-3.5-0.5-4.6-1.6s-1.6-2.6-1.6-4.5c0-2,0.5-3.6,1.5-4.7s2.4-1.6,4.2-1.6c1.7,0,3,0.5,4,1.5
		s1.4,2.3,1.4,4v1.6h-7.8c0,0.9,0.3,1.7,0.8,2.2s1.2,0.8,2.2,0.8c0.7,0,1.4-0.1,2.1-0.2s1.3-0.4,2-0.7v2.5c-0.6,0.3-1.2,0.5-1.9,0.6
		C513.2,304.3,512.4,304.4,511.4,304.4z M511,294.2c-0.7,0-1.2,0.2-1.6,0.7c-0.4,0.4-0.6,1.1-0.7,1.9h4.6c0-0.8-0.2-1.4-0.6-1.9
		C512.2,294.5,511.6,294.2,511,294.2z"/>
	<path class="st6" d="M530.2,304.1h-3.3v-7c0-0.9-0.2-1.5-0.5-2c-0.3-0.4-0.8-0.6-1.5-0.6c-0.9,0-1.6,0.3-2,0.9
		c-0.4,0.6-0.6,1.6-0.6,3v5.7H519v-12h2.5l0.4,1.5h0.2c0.4-0.6,0.9-1,1.5-1.3c0.6-0.3,1.4-0.4,2.2-0.4c1.4,0,2.5,0.4,3.2,1.1
		c0.7,0.8,1.1,1.8,1.1,3.3L530.2,304.1L530.2,304.1z"/>
	<path class="st6" d="M538.7,301.8c0.6,0,1.3-0.1,2.1-0.4v2.4c-0.8,0.4-1.8,0.5-3,0.5c-1.3,0-2.3-0.3-2.9-1c-0.6-0.7-0.9-1.7-0.9-3
		v-5.8h-1.6v-1.4l1.8-1.1l1-2.5h2.1v2.6h3.4v2.5h-3.4v5.8c0,0.5,0.1,0.8,0.4,1C537.9,301.6,538.3,301.8,538.7,301.8z"/>
	<path class="st6" d="M543.1,289c0-1.1,0.6-1.6,1.8-1.6s1.8,0.5,1.8,1.6c0,0.5-0.1,0.9-0.4,1.2c-0.3,0.3-0.7,0.4-1.3,0.4
		C543.7,290.6,543.1,290.1,543.1,289z M546.5,304.1h-3.3v-12h3.3V304.1z"/>
	<path class="st6" d="M557.7,304.1l-0.6-1.6H557c-0.6,0.7-1.1,1.2-1.7,1.4c-0.6,0.3-1.4,0.4-2.3,0.4c-1.2,0-2.1-0.3-2.7-1
		c-0.7-0.7-1-1.6-1-2.8c0-1.3,0.4-2.2,1.3-2.8c0.9-0.6,2.3-0.9,4.1-1l2.1-0.1v-0.5c0-1.2-0.6-1.8-1.9-1.8c-1,0-2.1,0.3-3.4,0.9
		l-1.1-2.2c1.4-0.7,2.9-1.1,4.6-1.1c1.6,0,2.9,0.4,3.7,1.1c0.8,0.7,1.3,1.8,1.3,3.2v8h-2.3V304.1L557.7,304.1z M556.7,298.6h-1.3
		c-1,0-1.7,0.2-2.1,0.5c-0.5,0.3-0.7,0.8-0.7,1.4c0,0.9,0.5,1.4,1.6,1.4c0.8,0,1.4-0.2,1.8-0.7c0.5-0.4,0.7-1,0.7-1.7V298.6z"/>
	<path class="st6" d="M566.7,304.1h-3.3v-16.7h3.3V304.1z"/>
	<path class="st6" d="M578.6,300.6c0,1.2-0.4,2.2-1.3,2.8c-0.9,0.6-2.2,1-3.9,1c-0.9,0-1.6-0.1-2.3-0.2c-0.6-0.1-1.2-0.3-1.7-0.5
		V301c0.6,0.3,1.3,0.5,2.1,0.7c0.8,0.2,1.4,0.3,2,0.3c1.2,0,1.8-0.3,1.8-1c0-0.3-0.1-0.5-0.2-0.6c-0.2-0.2-0.4-0.3-0.8-0.5
		c-0.4-0.2-0.9-0.4-1.6-0.7c-0.9-0.4-1.6-0.7-2.1-1.1s-0.8-0.7-1-1.1s-0.3-1-0.3-1.6c0-1.1,0.4-1.9,1.3-2.5c0.8-0.6,2-0.9,3.5-0.9
		s2.9,0.3,4.3,0.9l-1,2.4c-0.6-0.3-1.2-0.5-1.7-0.6c-0.5-0.2-1.1-0.2-1.6-0.2c-1,0-1.5,0.3-1.5,0.8c0,0.3,0.2,0.5,0.5,0.8
		c0.3,0.2,1,0.5,2.1,1c0.9,0.4,1.6,0.7,2.1,1.1s0.8,0.7,1,1.1C578.5,299.5,578.6,300,578.6,300.6z"/>
</g>
<g>
	<g>
		<path class="st7" d="M638.5,145.2H632v-8.6c0-1-0.7-1.7-1.7-1.7c-1,0-1.7,0.7-1.7,1.7v8.6h-6.5c-0.6,0-1.8,0.5-1.6,1.9l2.3,12.8
			c0.1,0.7,0.8,1.4,1.6,1.4h11.6c0.8,0,1.5-0.5,1.6-1.4l2.3-12.8C640.3,146.5,639.9,145.2,638.5,145.2L638.5,145.2z M634.8,158h-8.9
			l-1.7-9.5h12.3L634.8,158z"/>
		<path class="st7" d="M644.9,130.2c-5.6,0-10.2,4.5-10.2,10.2c0,1,0.7,1.7,1.7,1.7c5.6,0,10.2-4.5,10.2-10.2
			C646.6,131,645.9,130.2,644.9,130.2z M638.4,138.5c0.6-2.2,2.4-4,4.7-4.7C642.4,136.1,640.6,137.9,638.4,138.5L638.4,138.5z"/>
		<path class="st7" d="M624.2,142.1c1,0,1.7-0.7,1.7-1.7c0-0.1,0-0.2,0-0.2c-0.1-5.5-4.7-9.8-10.2-9.8c-1,0-1.7,0.7-1.7,1.7
			C614.1,137.5,618.6,142.1,624.2,142.1L624.2,142.1z M617.7,133.8c2.2,0.6,4,2.4,4.7,4.7C620.1,137.9,618.3,136.1,617.7,133.8z"/>
		<g>
			<path class="st7" d="M630.4,112.2c-5.6,0-10,4.5-10,10s4.5,10,10,10c5.5,0,10-4.5,10-10S636,112.2,630.4,112.2z M631.7,127.7v0.5
				c-0.2,1-1,1.1-1.3,1.1h-0.1c-1.1-0.2-1.2-1-1.2-1.3v-0.1c-1.1-0.3-1.8-0.8-2.2-1.6l-0.1-0.2l-0.1-0.3v-0.1c0.2-1.1,1-1.2,1.3-1.2
				c0.4,0,0.7,0.2,1.1,0.6v-2.3c-0.5-0.2-0.8-0.5-1.2-0.8c-0.5-0.5-0.8-1.3-0.8-2.1v-0.2c0-1.2,0.5-2.1,1.7-2.7
				c0.1,0,0.2-0.1,0.2-0.1v-0.6c0.3-0.8,0.8-1,1.2-1h0.1c0.3,0,1,0.1,1.2,1.2v0.4c0.3,0.1,0.7,0.4,1.2,0.8c0.4,0.4,0.5,0.7,0.5,1
				v0.2c0,0.3-0.1,1-1.2,1.2c-0.2,0-0.4,0-0.6-0.1v1.3c0.7,0.3,1.3,0.8,1.7,1.6c0.3,0.6,0.5,1.2,0.5,1.8
				C633.8,125.9,633.1,127,631.7,127.7z"/>
		</g>
	</g>
</g>
<path class="st8" d="M503.4,239.9H497v-1c0-1.6-1.4-3-3-3h-6.1c-1.6,0-3,1.4-3,3v1h-6.4c-2.4,0-4.3,1.9-4.3,4.3v15.4
	c0,2.4,1.9,4.3,4.3,4.3h24.8c2.4,0,4.3-1.9,4.3-4.3v-15.4C507.7,241.8,505.8,239.9,503.4,239.9z M488.4,239.9v-0.6h5.3v0.6H488.4z
	 M498.1,245.1c-1,0-1.7,0.8-1.7,1.7v1h-10.7v-1c0-1-0.8-1.7-1.7-1.7s-1.7,0.8-1.7,1.7v1h-4.6v-3.7c0-0.5,0.4-1,1-1h24.8
	c0.5,0,1,0.4,1,1v3.7h-4.6v-1C499.7,245.9,499,245.1,498.1,245.1z M477.7,251.2h4.6v0.5c0,1,0.8,1.7,1.7,1.7c1,0,1.7-0.8,1.7-1.7
	v-0.5h10.7v0.5c0,1,0.8,1.7,1.7,1.7c1,0,1.7-0.8,1.7-1.7v-0.5h4.6v8.3c0,0.5-0.4,1-1,1h-24.8c-0.5,0-1-0.4-1-1v-8.3H477.7z"/>
<path class="st9" d="M791.3,31.6c-5,0-9,4-9,9c0,3.1-2.5,5.7-5.7,5.7s-5.7-2.5-5.7-5.7s2.5-5.7,5.7-5.7c0.8,0,1.6,0.2,2.3,0.5
	c0.4,0.2,0.9,0.2,1.3,0c0.4-0.2,0.7-0.5,0.9-0.9c0.4-0.8,0-1.8-0.9-2.2c-1.2-0.5-2.3-0.8-3.6-0.8c-5,0-9,4-9,9s4,9,9,9c5,0,9-4,9-9
	c0-3.1,2.5-5.7,5.7-5.7s5.7,2.5,5.7,5.7s-2.5,5.7-5.7,5.7c-0.8,0-1.6-0.2-2.3-0.5c-0.8-0.4-1.8,0-2.2,0.9c-0.2,0.4-0.2,0.9,0,1.3
	s0.5,0.7,0.9,0.9c1.2,0.5,2.3,0.8,3.6,0.8c5,0,9-4,9-9S796.2,31.6,791.3,31.6z"/>
<path class="st10" d="M460.4,294L434.2,281c-0.6-0.4-1.3-0.2-1.9,0.1c-0.6,0.4-1,1-1,1.7v26.1c0,0.7,0.4,1.3,1,1.7
	c0.4,0.2,0.7,0.2,1.1,0.2c0.4,0,0.6-0.1,0.8-0.2l26.1-13.1c0.7-0.4,1.1-1,1.1-1.8C461.4,294.9,461.1,294.4,460.4,294z M455.3,295.8
	l-19.8,10v-20L455.3,295.8z"/>
<g>
	<g>
		<g>
			<rect x="125.4" y="38.3" class="st6" width="2" height="273.6"/>
			<g>
				<polygon class="st6" points="118.9,42 126.4,29.1 133.9,42 				"/>
			</g>
		</g>
	</g>
	<g>
		<g>
			<rect x="125.9" y="310.4" class="st6" width="274.8" height="2"/>
			<g>
				<polygon class="st6" points="397,303.9 410,311.4 397,318.8 				"/>
			</g>
		</g>
	</g>
	<g>
		<path class="st6" d="M98.2,303.3c0,1.2,0.4,2.2,1.3,2.8s2,1,3.5,1c1.6,0,2.8-0.3,3.6-1c0.8-0.7,1.2-1.6,1.2-2.9
			c0-0.5-0.1-1.1-0.2-1.6s-0.2-1-0.4-1.6h1.8c0.4,1,0.6,2.2,0.6,3.4c0,1.9-0.6,3.3-1.7,4.3s-2.8,1.5-4.9,1.5c-1.3,0-2.5-0.2-3.5-0.7
			c-1-0.5-1.8-1.2-2.3-2.1s-0.8-2-0.8-3.3c0-1.3,0.3-2.5,0.8-3.6l1.7,0.8c-0.2,0.4-0.4,0.9-0.5,1.4
			C98.3,302.3,98.2,302.8,98.2,303.3z"/>
		<path class="st6" d="M96.6,287.3h8.3c0.9,0,1.8,0.2,2.5,0.6c0.7,0.4,1.3,1,1.6,1.8c0.4,0.8,0.6,1.7,0.6,2.8c0,1.6-0.4,2.8-1.3,3.7
			s-2,1.3-3.5,1.3h-8.3v-2.1h8.1c1.1,0,1.8-0.2,2.3-0.7s0.8-1.2,0.8-2.3c0-2-1-3-3.1-3h-8.1V287.3z"/>
		<path class="st6" d="M105.9,276.6c1.1,0,2,0.4,2.7,1.2s1,2,1,3.4s-0.2,2.6-0.7,3.6h-2c0.3-0.6,0.5-1.2,0.7-1.9
			c0.2-0.7,0.2-1.3,0.2-1.8c0-0.8-0.2-1.4-0.5-1.8c-0.3-0.4-0.7-0.6-1.3-0.6c-0.5,0-0.9,0.2-1.2,0.5s-0.7,1.1-1.2,2.3
			c-0.5,1.2-1,2-1.6,2.5s-1.3,0.7-2.2,0.7c-1.1,0-1.9-0.4-2.5-1.1s-0.9-1.8-0.9-3.1c0-1.2,0.3-2.5,0.8-3.7l1.7,0.7
			c-0.5,1.1-0.7,2.2-0.7,3.1c0,0.7,0.1,1.2,0.4,1.5c0.3,0.4,0.7,0.5,1.2,0.5c0.3,0,0.6-0.1,0.9-0.2c0.2-0.1,0.5-0.4,0.7-0.7
			s0.5-0.9,0.8-1.7c0.4-0.9,0.8-1.6,1.1-2.1s0.7-0.8,1.2-1S105.4,276.6,105.9,276.6z"/>
		<path class="st6" d="M109.4,269.7v2.1h-11v3.8h-1.8v-9.7h1.8v3.8H109.4z"/>
		<path class="st6" d="M103,252.5c2.1,0,3.7,0.5,4.9,1.6c1.2,1,1.7,2.5,1.7,4.4c0,1.9-0.6,3.4-1.7,4.5c-1.2,1-2.8,1.6-4.9,1.6
			s-3.8-0.5-4.9-1.6c-1.1-1-1.7-2.5-1.7-4.5c0-1.9,0.6-3.4,1.7-4.4S100.9,252.5,103,252.5z M103,262.4c1.6,0,2.8-0.3,3.6-1
			c0.8-0.6,1.2-1.6,1.2-2.8c0-1.2-0.4-2.2-1.2-2.8c-0.8-0.6-2-1-3.6-1c-1.6,0-2.8,0.3-3.6,0.9c-0.8,0.6-1.2,1.6-1.2,2.8
			c0,1.3,0.4,2.2,1.2,2.9C100.2,262,101.4,262.4,103,262.4z"/>
		<path class="st6" d="M109.4,244.2L98.7,248v0.1c1.6-0.1,3.1-0.1,4.5-0.1h6.2v1.9H96.6v-3l10.2-3.6v-0.1l-10.2-3.7v-3h12.8v2h-6.4
			c-0.6,0-1.5,0-2.5,0c-1,0-1.6-0.1-1.9-0.1v0.1l10.7,3.9V244.2z"/>
		<path class="st6" d="M109.4,233.2H96.6v-2.1h12.8V233.2z"/>
		<path class="st6" d="M109.4,219.6v9.2H108l-9.6-6.5v6.3h-1.8v-8.8h1.5l9.6,6.5v-6.7H109.4z"/>
		<path class="st6" d="M109.4,209.4l-3.6,1.3v4.9l3.6,1.3v2.2l-12.9-4.8v-2.3l12.9-4.8V209.4z M104.1,211.2l-3.5,1.2
			c-0.2,0.1-0.6,0.2-1.1,0.4c-0.5,0.2-0.9,0.3-1.1,0.3c0.7,0.2,1.5,0.4,2.4,0.7l3.3,1.2V211.2z"/>
		<path class="st6" d="M109.4,201v2.1h-11v3.8h-1.8v-9.7h1.8v3.8H109.4z"/>
		<path class="st6" d="M109.4,195.2H96.6v-2.1h12.8V195.2z"/>
		<path class="st6" d="M103,178.3c2.1,0,3.7,0.5,4.9,1.6s1.7,2.5,1.7,4.4c0,1.9-0.6,3.4-1.7,4.5c-1.2,1-2.8,1.6-4.9,1.6
			s-3.8-0.5-4.9-1.6s-1.7-2.5-1.7-4.5c0-1.9,0.6-3.4,1.7-4.4S100.9,178.3,103,178.3z M103,188.1c1.6,0,2.8-0.3,3.6-1
			c0.8-0.6,1.2-1.6,1.2-2.8c0-1.2-0.4-2.2-1.2-2.8s-2-1-3.6-1c-1.6,0-2.8,0.3-3.6,0.9s-1.2,1.6-1.2,2.8c0,1.3,0.4,2.2,1.2,2.9
			S101.4,188.1,103,188.1z"/>
		<path class="st6" d="M109.4,164.9v2.6l-10.2,6.3v0.1l0.6,0c1.1-0.1,2.1-0.1,3-0.1h6.7v1.9H96.6V173l10.2-6.3v-0.1
			c-0.1,0-0.6,0-1.5,0.1s-1.5,0.1-2,0.1h-6.7v-1.9H109.4z"/>
		<path class="st6" d="M109.4,146.1v2.6L99.2,155v0.1l0.6,0c1.1-0.1,2.1-0.1,3-0.1h6.7v1.9H96.6v-2.5l10.2-6.3v-0.1
			c-0.1,0-0.6,0-1.5,0.1s-1.5,0.1-2,0.1h-6.7v-1.9H109.4z"/>
		<path class="st6" d="M109.4,135.4v7.3H96.6v-7.3h1.8v5.2h3.5v-4.8h1.8v4.8h4v-5.2H109.4z"/>
		<path class="st6" d="M109.4,125.4v7.3H96.6v-7.3h1.8v5.2h3.5v-4.8h1.8v4.8h4v-5.2H109.4z"/>
		<path class="st6" d="M102.9,112.2c2.1,0,3.7,0.6,4.9,1.8c1.1,1.2,1.7,2.9,1.7,5.1v3.6H96.6v-4c0-2,0.6-3.6,1.7-4.8
			S100.9,112.2,102.9,112.2z M103,114.4c-3.1,0-4.6,1.4-4.6,4.3v1.8h9.3V119C107.7,115.9,106.1,114.4,103,114.4z"/>
		<path class="st6" d="M105.9,102c1.1,0,2,0.4,2.7,1.2s1,2,1,3.4s-0.2,2.6-0.7,3.6h-2c0.3-0.6,0.5-1.2,0.7-1.9s0.2-1.3,0.2-1.8
			c0-0.8-0.2-1.4-0.5-1.8s-0.7-0.6-1.3-0.6c-0.5,0-0.9,0.2-1.2,0.5s-0.7,1.1-1.2,2.3c-0.5,1.2-1,2-1.6,2.5s-1.3,0.7-2.2,0.7
			c-1.1,0-1.9-0.4-2.5-1.1s-0.9-1.8-0.9-3.1c0-1.2,0.3-2.5,0.8-3.7l1.7,0.7c-0.5,1.1-0.7,2.2-0.7,3.1c0,0.7,0.1,1.2,0.4,1.5
			c0.3,0.4,0.7,0.5,1.2,0.5c0.3,0,0.6-0.1,0.9-0.2c0.2-0.1,0.5-0.4,0.7-0.7s0.5-0.9,0.8-1.7c0.4-0.9,0.8-1.6,1.1-2.1s0.7-0.8,1.2-1
			S105.4,102,105.9,102z"/>
	</g>
	<g>
		<path class="st6" d="M138.6,332.6c0,2.1-0.5,3.7-1.6,4.9s-2.5,1.7-4.4,1.7c-1.9,0-3.4-0.6-4.5-1.7c-1-1.2-1.6-2.8-1.6-4.9
			s0.5-3.8,1.6-4.9s2.5-1.7,4.5-1.7c1.9,0,3.4,0.6,4.4,1.7S138.6,330.5,138.6,332.6z M128.7,332.6c0,1.6,0.3,2.8,1,3.6
			c0.6,0.8,1.6,1.2,2.8,1.2c1.2,0,2.2-0.4,2.8-1.2s1-2,1-3.6c0-1.6-0.3-2.8-0.9-3.6s-1.6-1.2-2.8-1.2c-1.3,0-2.2,0.4-2.9,1.2
			S128.7,331,128.7,332.6z"/>
		<path class="st6" d="M143.4,333.9v5.1h-2.1v-12.8h3.6c1.7,0,2.9,0.3,3.7,0.9s1.2,1.6,1.2,2.8c0,1.6-0.8,2.7-2.5,3.4l3.6,5.7h-2.4
			l-3.1-5.1H143.4z M143.4,332.2h1.5c1,0,1.7-0.2,2.1-0.5s0.7-0.9,0.7-1.6c0-0.7-0.2-1.2-0.7-1.6s-1.2-0.5-2.1-0.5h-1.4V332.2z"/>
		<path class="st6" d="M158.1,332.1h4.7v6.5c-0.8,0.3-1.5,0.4-2.2,0.5s-1.5,0.2-2.3,0.2c-1.9,0-3.4-0.6-4.5-1.7
			c-1.1-1.2-1.6-2.8-1.6-4.9c0-2.1,0.6-3.7,1.8-4.9c1.2-1.2,2.8-1.8,4.9-1.8c1.3,0,2.6,0.3,3.8,0.8l-0.7,1.7c-1-0.5-2.1-0.7-3.1-0.7
			c-1.4,0-2.5,0.4-3.3,1.3s-1.2,2-1.2,3.5c0,1.6,0.4,2.8,1.1,3.6c0.7,0.8,1.8,1.2,3.1,1.2c0.7,0,1.4-0.1,2.2-0.3v-3.3h-2.7V332.1z"
			/>
		<path class="st6" d="M173.9,339l-1.3-3.6h-4.9l-1.3,3.6h-2.2l4.8-12.9h2.3l4.8,12.9H173.9z M172,333.6l-1.2-3.5
			c-0.1-0.2-0.2-0.6-0.4-1.1s-0.3-0.9-0.3-1.1c-0.2,0.7-0.4,1.5-0.7,2.4l-1.2,3.3H172z"/>
		<path class="st6" d="M188.5,339h-2.6l-6.3-10.2h-0.1l0,0.6c0.1,1.1,0.1,2.1,0.1,3v6.7h-1.9v-12.8h2.5l6.3,10.2h0.1
			c0-0.1,0-0.6-0.1-1.5s-0.1-1.5-0.1-2v-6.7h1.9V339z"/>
		<path class="st6" d="M191.9,339v-12.8h2.1V339H191.9z"/>
		<path class="st6" d="M205.5,339h-9.2v-1.5l6.5-9.6h-6.3v-1.8h8.8v1.5l-6.5,9.6h6.7V339z"/>
		<path class="st6" d="M215.7,339l-1.3-3.6h-4.9l-1.3,3.6H206l4.8-12.9h2.3l4.8,12.9H215.7z M213.9,333.6l-1.2-3.5
			c-0.1-0.2-0.2-0.6-0.4-1.1s-0.3-0.9-0.3-1.1c-0.2,0.7-0.4,1.5-0.7,2.4l-1.2,3.3H213.9z"/>
		<path class="st6" d="M224.1,339H222v-11h-3.8v-1.8h9.7v1.8h-3.8V339z"/>
		<path class="st6" d="M229.8,339v-12.8h2.1V339H229.8z"/>
		<path class="st6" d="M246.7,332.6c0,2.1-0.5,3.7-1.6,4.9s-2.5,1.7-4.4,1.7c-1.9,0-3.4-0.6-4.5-1.7c-1-1.2-1.6-2.8-1.6-4.9
			s0.5-3.8,1.6-4.9s2.5-1.7,4.5-1.7c1.9,0,3.4,0.6,4.4,1.7S246.7,330.5,246.7,332.6z M236.9,332.6c0,1.6,0.3,2.8,1,3.6
			c0.6,0.8,1.6,1.2,2.8,1.2c1.2,0,2.2-0.4,2.8-1.2s1-2,1-3.6c0-1.6-0.3-2.8-0.9-3.6s-1.6-1.2-2.8-1.2c-1.3,0-2.2,0.4-2.9,1.2
			S236.9,331,236.9,332.6z"/>
		<path class="st6" d="M260.2,339h-2.6l-6.3-10.2h-0.1l0,0.6c0.1,1.1,0.1,2.1,0.1,3v6.7h-1.9v-12.8h2.5l6.3,10.2h0.1
			c0-0.1,0-0.6-0.1-1.5s-0.1-1.5-0.1-2v-6.7h1.9V339z"/>
		<path class="st6" d="M271.6,339l-1.3-3.6h-4.9l-1.3,3.6h-2.2l4.8-12.9h2.3l4.8,12.9H271.6z M269.7,333.6l-1.2-3.5
			c-0.1-0.2-0.2-0.6-0.4-1.1s-0.3-0.9-0.3-1.1c-0.2,0.7-0.4,1.5-0.7,2.4l-1.2,3.3H269.7z"/>
		<path class="st6" d="M275.5,339v-12.8h2.1v11h5.4v1.8H275.5z"/>
		<path class="st6" d="M297.9,339l-1.3-3.6h-4.9l-1.3,3.6h-2.2l4.8-12.9h2.3l4.8,12.9H297.9z M296,333.6l-1.2-3.5
			c-0.1-0.2-0.2-0.6-0.4-1.1s-0.3-0.9-0.3-1.1c-0.2,0.7-0.4,1.5-0.7,2.4l-1.2,3.3H296z"/>
		<path class="st6" d="M312.5,339h-2.6l-6.3-10.2h-0.1l0,0.6c0.1,1.1,0.1,2.1,0.1,3v6.7h-1.9v-12.8h2.5l6.3,10.2h0.1
			c0-0.1,0-0.6-0.1-1.5s-0.1-1.5-0.1-2v-6.7h1.9V339z"/>
		<path class="st6" d="M326.4,332.5c0,2.1-0.6,3.7-1.8,4.9c-1.2,1.1-2.9,1.7-5.1,1.7h-3.6v-12.8h4c2,0,3.6,0.6,4.8,1.7
			S326.4,330.5,326.4,332.5z M324.1,332.5c0-3.1-1.4-4.6-4.3-4.6H318v9.3h1.5C322.6,337.3,324.1,335.7,324.1,332.5z"/>
		<path class="st6" d="M342.3,330.1c0,1.3-0.4,2.4-1.3,3.1s-2.1,1.1-3.8,1.1h-1.3v4.8h-2.1v-12.8h3.7c1.6,0,2.8,0.3,3.6,1
			S342.3,328.8,342.3,330.1z M335.9,332.4h1.1c1.1,0,1.9-0.2,2.4-0.6s0.8-1,0.8-1.8c0-0.7-0.2-1.3-0.7-1.7s-1.2-0.5-2.1-0.5h-1.5
			V332.4z"/>
		<path class="st6" d="M347,333.9v5.1h-2.1v-12.8h3.6c1.7,0,2.9,0.3,3.7,0.9s1.2,1.6,1.2,2.8c0,1.6-0.8,2.7-2.5,3.4l3.6,5.7h-2.4
			l-3.1-5.1H347z M347,332.2h1.5c1,0,1.7-0.2,2.1-0.5s0.7-0.9,0.7-1.6c0-0.7-0.2-1.2-0.7-1.6s-1.2-0.5-2.1-0.5H347V332.2z"/>
		<path class="st6" d="M367.8,332.6c0,2.1-0.5,3.7-1.6,4.9s-2.5,1.7-4.4,1.7c-1.9,0-3.4-0.6-4.5-1.7c-1-1.2-1.6-2.8-1.6-4.9
			s0.5-3.8,1.6-4.9s2.5-1.7,4.5-1.7c1.9,0,3.4,0.6,4.4,1.7S367.8,330.5,367.8,332.6z M358,332.6c0,1.6,0.3,2.8,1,3.6
			c0.6,0.8,1.6,1.2,2.8,1.2c1.2,0,2.2-0.4,2.8-1.2s1-2,1-3.6c0-1.6-0.3-2.8-0.9-3.6s-1.6-1.2-2.8-1.2c-1.3,0-2.2,0.4-2.9,1.2
			S358,331,358,332.6z"/>
		<path class="st6" d="M376,327.8c-1.2,0-2.2,0.4-2.8,1.3s-1,2-1,3.5c0,1.6,0.3,2.8,1,3.6s1.6,1.2,2.9,1.2c0.5,0,1.1-0.1,1.6-0.2
			s1-0.2,1.6-0.4v1.8c-1,0.4-2.2,0.6-3.4,0.6c-1.9,0-3.3-0.6-4.3-1.7s-1.5-2.8-1.5-4.9c0-1.3,0.2-2.5,0.7-3.5s1.2-1.8,2.1-2.3
			s2-0.8,3.3-0.8c1.3,0,2.5,0.3,3.6,0.8l-0.8,1.7c-0.4-0.2-0.9-0.4-1.4-0.5C377.1,327.9,376.5,327.8,376,327.8z"/>
		<path class="st6" d="M389.2,339H382v-12.8h7.3v1.8h-5.2v3.5h4.8v1.8h-4.8v4h5.2V339z"/>
		<path class="st6" d="M399.4,335.5c0,1.1-0.4,2-1.2,2.7s-2,1-3.4,1s-2.6-0.2-3.6-0.7v-2c0.6,0.3,1.2,0.5,1.9,0.7s1.3,0.2,1.8,0.2
			c0.8,0,1.4-0.2,1.8-0.5s0.6-0.7,0.6-1.3c0-0.5-0.2-0.9-0.5-1.2s-1.1-0.7-2.3-1.2c-1.2-0.5-2-1-2.5-1.6s-0.7-1.3-0.7-2.2
			c0-1.1,0.4-1.9,1.1-2.5s1.8-0.9,3.1-0.9c1.2,0,2.5,0.3,3.7,0.8l-0.7,1.7c-1.1-0.5-2.2-0.7-3.1-0.7c-0.7,0-1.2,0.1-1.5,0.4
			c-0.4,0.3-0.5,0.7-0.5,1.2c0,0.3,0.1,0.6,0.2,0.9c0.1,0.2,0.4,0.5,0.7,0.7s0.9,0.5,1.7,0.8c0.9,0.4,1.6,0.8,2.1,1.1s0.8,0.7,1,1.2
			S399.4,335,399.4,335.5z"/>
		<path class="st6" d="M409.3,335.5c0,1.1-0.4,2-1.2,2.7s-2,1-3.4,1s-2.6-0.2-3.6-0.7v-2c0.6,0.3,1.2,0.5,1.9,0.7s1.3,0.2,1.8,0.2
			c0.8,0,1.4-0.2,1.8-0.5s0.6-0.7,0.6-1.3c0-0.5-0.2-0.9-0.5-1.2s-1.1-0.7-2.3-1.2c-1.2-0.5-2-1-2.5-1.6s-0.7-1.3-0.7-2.2
			c0-1.1,0.4-1.9,1.1-2.5s1.8-0.9,3.1-0.9c1.2,0,2.5,0.3,3.7,0.8l-0.7,1.7c-1.1-0.5-2.2-0.7-3.1-0.7c-0.7,0-1.2,0.1-1.5,0.4
			c-0.4,0.3-0.5,0.7-0.5,1.2c0,0.3,0.1,0.6,0.2,0.9c0.1,0.2,0.4,0.5,0.7,0.7s0.9,0.5,1.7,0.8c0.9,0.4,1.6,0.8,2.1,1.1s0.8,0.7,1,1.2
			S409.3,335,409.3,335.5z"/>
		<path class="st6" d="M132.6,349.4c-1.2,0-2.2,0.4-2.8,1.3s-1,2-1,3.5c0,1.6,0.3,2.8,1,3.6s1.6,1.2,2.9,1.2c0.5,0,1.1-0.1,1.6-0.2
			s1-0.2,1.6-0.4v1.8c-1,0.4-2.2,0.6-3.4,0.6c-1.9,0-3.3-0.6-4.3-1.7s-1.5-2.8-1.5-4.9c0-1.3,0.2-2.5,0.7-3.5s1.2-1.8,2.1-2.3
			s2-0.8,3.3-0.8c1.3,0,2.5,0.3,3.6,0.8l-0.8,1.7c-0.4-0.2-0.9-0.4-1.4-0.5C133.7,349.5,133.1,349.4,132.6,349.4z"/>
		<path class="st6" d="M150,354.2c0,2.1-0.5,3.7-1.6,4.9s-2.5,1.7-4.4,1.7c-1.9,0-3.4-0.6-4.5-1.7c-1-1.2-1.6-2.8-1.6-4.9
			s0.5-3.8,1.6-4.9s2.5-1.7,4.5-1.7c1.9,0,3.4,0.6,4.4,1.7S150,352.1,150,354.2z M140.2,354.2c0,1.6,0.3,2.8,1,3.6
			c0.6,0.8,1.6,1.2,2.8,1.2c1.2,0,2.2-0.4,2.8-1.2s1-2,1-3.6c0-1.6-0.3-2.8-0.9-3.6s-1.6-1.2-2.8-1.2c-1.3,0-2.2,0.4-2.9,1.2
			S140.2,352.6,140.2,354.2z"/>
		<path class="st6" d="M158.3,360.6l-3.7-10.7h-0.1c0.1,1.6,0.1,3.1,0.1,4.5v6.2h-1.9v-12.8h3l3.6,10.2h0.1l3.7-10.2h3v12.8h-2v-6.4
			c0-0.6,0-1.5,0-2.5s0.1-1.6,0.1-1.9H164l-3.9,10.7H158.3z"/>
		<path class="st6" d="M177.8,351.7c0,1.3-0.4,2.4-1.3,3.1s-2.1,1.1-3.8,1.1h-1.3v4.8h-2.1v-12.8h3.7c1.6,0,2.8,0.3,3.6,1
			S177.8,350.4,177.8,351.7z M171.4,354h1.1c1.1,0,1.9-0.2,2.4-0.6s0.8-1,0.8-1.8c0-0.7-0.2-1.3-0.7-1.7s-1.2-0.5-2.1-0.5h-1.5V354z
			"/>
		<path class="st6" d="M180.4,360.6v-12.8h2.1v11h5.4v1.8H180.4z"/>
		<path class="st6" d="M197.4,360.6h-7.3v-12.8h7.3v1.8h-5.2v3.5h4.8v1.8h-4.8v4h5.2V360.6z"/>
		<path class="st6" d="M209.7,360.6h-2.4l-3.2-5.3l-3.2,5.3h-2.3l4.3-6.7l-4-6.2h2.3l3,4.9l3-4.9h2.3l-4,6.2L209.7,360.6z"/>
		<path class="st6" d="M211.4,360.6v-12.8h2.1v12.8H211.4z"/>
		<path class="st6" d="M221.3,360.6h-2.1v-11h-3.8v-1.8h9.7v1.8h-3.8V360.6z"/>
		<path class="st6" d="M230.7,353.6l3-5.9h2.3l-4.3,7.9v5h-2.1v-4.9l-4.3-7.9h2.3L230.7,353.6z"/>
	</g>
</g>
<line class="st11" x1="0" y1="376" x2="1018" y2="376"/>
</svg>
