<?xml version="1.0" encoding="utf-8"?>
<!-- Generator: Adobe Illustrator 21.1.0, SVG Export Plug-In . SVG Version: 6.00 Build 0)  -->
<svg version="1.1" id="Layer_1" xmlns="http://www.w3.org/2000/svg" xmlns:xlink="http://www.w3.org/1999/xlink" x="0px" y="0px"
	 viewBox="0 0 1018 436.5" style="enable-background:new 0 0 1018 436.5;" xml:space="preserve">
<style type="text/css">
	.st0{fill:none;stroke:#EEEEEE;stroke-width:2.5;stroke-miterlimit:10;}
	.st1{opacity:0.5;}
	.st2{fill:#EEEEEE;}
	.st3{fill:#222222;}
	.st4{fill:none;stroke:#F99E1A;stroke-width:5;stroke-miterlimit:10;}
	.st5{fill:#F99E1A;stroke:#FFFFFF;stroke-width:3;stroke-miterlimit:10;}
	.st6{fill:none;stroke:#737373;stroke-width:5;stroke-miterlimit:10;}
	.st7{fill:#737373;stroke:#FFFFFF;stroke-width:3;stroke-miterlimit:10;}
	.st8{fill:none;stroke:#F80000;stroke-width:5;stroke-miterlimit:10;}
	.st9{fill:#F80000;stroke:#FFFFFF;stroke-width:3;stroke-miterlimit:10;}
	.st10{fill:none;stroke:#014185;stroke-width:5;stroke-miterlimit:10;}
	.st11{fill:#014185;stroke:#FFFFFF;stroke-width:3;stroke-miterlimit:10;}
	.st12{fill:none;stroke:#00A1E0;stroke-width:5;stroke-miterlimit:10;}
	.st13{fill:#00A1E0;stroke:#FFFFFF;stroke-width:3;stroke-miterlimit:10;}
	.st14{opacity:0.75;}
	.st15{fill:#FFFFFF;}
	.st16{opacity:0.85;}
</style>
<line class="st0" x1="0" y1="398.5" x2="1018" y2="398.5"/>
<g>
	<g>
		<g>
			<g class="st1">
				<rect x="864.7" y="64.2" class="st2" width="43" height="327.3"/>
				<g>
					<polygon class="st2" points="934.7,73.1 886.2,20.5 837.7,73.1 					"/>
				</g>
			</g>
		</g>
	</g>
	<g>
		<g>
			<g class="st1">
				<rect x="726.7" y="141.6" class="st2" width="43" height="249.9"/>
				<g>
					<polygon class="st2" points="796.6,150.5 748.2,97.9 699.7,150.5 					"/>
				</g>
			</g>
		</g>
	</g>
	<g>
		<g>
			<g class="st1">
				<rect x="555.6" y="200.4" class="st2" width="43" height="191.1"/>
				<g>
					<polygon class="st2" points="625.5,209.3 577.1,156.7 528.6,209.3 					"/>
				</g>
			</g>
		</g>
	</g>
	<g>
		<g>
			<g class="st1">
				<rect x="389.5" y="240.5" class="st2" width="43" height="151"/>
				<g>
					<polygon class="st2" points="459.4,249.4 411,196.8 362.5,249.4 					"/>
				</g>
			</g>
		</g>
	</g>
	<g>
		<g>
			<g class="st1">
				<rect x="234.9" y="304.3" class="st2" width="43" height="87.2"/>
				<g>
					<polygon class="st2" points="304.9,313.2 256.4,260.6 207.9,313.2 					"/>
				</g>
			</g>
		</g>
	</g>
</g>
<g>
	<g>
		<g>
			<path class="st3" d="M812.6,241.8c0,1.1-0.4,2-1.2,2.7c-0.8,0.7-2,1-3.4,1s-2.6-0.2-3.6-0.7v-2c0.6,0.3,1.2,0.5,1.9,0.7
				c0.7,0.2,1.3,0.2,1.8,0.2c0.8,0,1.4-0.2,1.8-0.5c0.4-0.3,0.6-0.7,0.6-1.3c0-0.5-0.2-0.9-0.5-1.2c-0.3-0.3-1.1-0.7-2.3-1.2
				s-2-1-2.5-1.6s-0.7-1.3-0.7-2.2c0-1.1,0.4-1.9,1.1-2.5s1.8-0.9,3.1-0.9c1.2,0,2.5,0.3,3.7,0.8l-0.7,1.7c-1.1-0.5-2.2-0.7-3.1-0.7
				c-0.7,0-1.2,0.1-1.5,0.4c-0.4,0.3-0.5,0.7-0.5,1.2c0,0.3,0.1,0.6,0.2,0.9c0.1,0.2,0.4,0.5,0.7,0.7c0.3,0.2,0.9,0.5,1.7,0.8
				c0.9,0.4,1.6,0.8,2.1,1.1c0.5,0.3,0.8,0.7,1,1.2S812.6,241.2,812.6,241.8z"/>
			<path class="st3" d="M823.1,245.3l-1.3-3.6h-4.9l-1.3,3.6h-2.2l4.8-12.9h2.3l4.8,12.9H823.1z M821.2,239.9l-1.2-3.5
				c-0.1-0.2-0.2-0.6-0.4-1.1s-0.3-0.9-0.3-1.1c-0.2,0.7-0.4,1.5-0.7,2.4l-1.2,3.3L821.2,239.9L821.2,239.9z"/>
			<path class="st3" d="M835.5,236.3c0,1.3-0.4,2.4-1.3,3.1s-2.1,1.1-3.8,1.1h-1.3v4.8H827v-12.8h3.7c1.6,0,2.8,0.3,3.6,1
				S835.5,235.1,835.5,236.3z M829.1,238.7h1.1c1.1,0,1.9-0.2,2.4-0.6c0.5-0.4,0.8-1,0.8-1.8c0-0.7-0.2-1.3-0.7-1.7
				s-1.2-0.5-2.1-0.5h-1.5V238.7z"/>
		</g>
		<g>
			<path class="st3" d="M816.5,262.3c0,2.1-0.5,3.7-1.6,4.9c-1.1,1.2-2.5,1.7-4.4,1.7s-3.4-0.6-4.5-1.7c-1-1.2-1.6-2.8-1.6-4.9
				c0-2.1,0.5-3.8,1.6-4.9s2.5-1.7,4.5-1.7c1.9,0,3.4,0.6,4.4,1.7C815.9,258.5,816.5,260.2,816.5,262.3z M806.7,262.3
				c0,1.6,0.3,2.8,1,3.6c0.6,0.8,1.6,1.2,2.8,1.2s2.2-0.4,2.8-1.2c0.6-0.8,1-2,1-3.6s-0.3-2.8-0.9-3.6c-0.6-0.8-1.6-1.2-2.8-1.2
				c-1.3,0-2.2,0.4-2.9,1.2C807,259.5,806.7,260.7,806.7,262.3z"/>
			<path class="st3" d="M824,258.9c0.4,0,0.8,0,1,0.1l-0.2,1.9c-0.3-0.1-0.6-0.1-0.9-0.1c-0.8,0-1.5,0.3-2,0.8s-0.8,1.2-0.8,2.1v5.1
				H819v-9.7h1.6l0.3,1.7h0.1c0.3-0.6,0.7-1,1.3-1.4C822.9,259,823.4,258.9,824,258.9z"/>
			<path class="st3" d="M832.9,268.8l-0.4-1.4h-0.1c-0.5,0.6-0.9,1-1.4,1.2c-0.5,0.2-1.1,0.3-1.8,0.3c-1,0-1.7-0.3-2.2-0.8
				s-0.8-1.2-0.8-2.2s0.4-1.8,1.1-2.3s1.9-0.8,3.4-0.8l1.7-0.1v-0.5c0-0.6-0.1-1.1-0.4-1.4c-0.3-0.3-0.7-0.5-1.3-0.5
				c-0.5,0-1,0.1-1.4,0.2s-0.9,0.3-1.3,0.5l-0.7-1.5c0.5-0.3,1.1-0.5,1.7-0.6c0.6-0.1,1.2-0.2,1.8-0.2c1.2,0,2.2,0.3,2.8,0.8
				s0.9,1.4,0.9,2.5v6.5h-1.6V268.8z M829.8,267.4c0.8,0,1.4-0.2,1.8-0.6c0.5-0.4,0.7-1,0.7-1.8v-0.8l-1.2,0.1c-1,0-1.7,0.2-2.1,0.5
				c-0.4,0.3-0.7,0.7-0.7,1.3c0,0.4,0.1,0.8,0.4,1C828.9,267.2,829.3,267.4,829.8,267.4z"/>
			<path class="st3" d="M841.2,268.9c-1.5,0-2.6-0.4-3.4-1.3c-0.8-0.9-1.1-2.1-1.1-3.7c0-1.6,0.4-2.9,1.2-3.8c0.8-0.9,2-1.3,3.5-1.3
				c1,0,1.9,0.2,2.8,0.6l-0.6,1.7c-0.9-0.3-1.6-0.5-2.2-0.5c-1.7,0-2.5,1.1-2.5,3.3c0,1.1,0.2,1.9,0.6,2.5c0.4,0.5,1,0.8,1.8,0.8
				c0.9,0,1.8-0.2,2.6-0.7v1.8c-0.4,0.2-0.8,0.4-1.2,0.5C842.3,268.9,841.8,268.9,841.2,268.9z"/>
			<path class="st3" d="M848.2,268.8h-2.1v-13.7h2.1V268.8z"/>
			<path class="st3" d="M855.4,268.9c-1.5,0-2.7-0.4-3.5-1.3c-0.8-0.9-1.3-2.1-1.3-3.6c0-1.6,0.4-2.8,1.2-3.7s1.9-1.4,3.3-1.4
				c1.3,0,2.3,0.4,3,1.2c0.7,0.8,1.1,1.9,1.1,3.2v1.1h-6.5c0,0.9,0.3,1.7,0.8,2.2s1.2,0.8,2,0.8c0.6,0,1.1-0.1,1.6-0.2
				c0.5-0.1,1-0.3,1.6-0.5v1.7c-0.5,0.2-1,0.4-1.5,0.5S856.1,268.9,855.4,268.9z M855,260.4c-0.7,0-1.2,0.2-1.6,0.6
				c-0.4,0.4-0.6,1-0.7,1.8h4.4c0-0.8-0.2-1.4-0.6-1.8C856.2,260.6,855.7,260.4,855,260.4z"/>
		</g>
		<g>
			<path class="st3" d="M810.1,291.4l-3.8-10.7h-0.1c0.1,1.6,0.1,3.1,0.1,4.5v6.2h-1.9v-12.8h3l3.6,10.2h0.1l3.7-10.2h3v12.8h-2V285
				c0-0.6,0-1.5,0-2.5s0.1-1.6,0.1-1.9h-0.1l-3.9,10.7L810.1,291.4L810.1,291.4z"/>
			<path class="st3" d="M820.8,279.1c0-0.4,0.1-0.7,0.3-0.9s0.5-0.3,0.9-0.3s0.6,0.1,0.8,0.3s0.3,0.5,0.3,0.9s-0.1,0.6-0.3,0.8
				c-0.2,0.2-0.5,0.3-0.8,0.3c-0.4,0-0.7-0.1-0.9-0.3S820.8,279.5,820.8,279.1z M823,291.4h-2.1v-9.7h2.1V291.4z"/>
			<path class="st3" d="M829.8,291.6c-1.5,0-2.6-0.4-3.4-1.3s-1.1-2.1-1.1-3.7s0.4-2.9,1.2-3.8s2-1.3,3.5-1.3c1,0,1.9,0.2,2.8,0.6
				l-0.7,1.6c-0.9-0.3-1.6-0.5-2.2-0.5c-1.7,0-2.5,1.1-2.5,3.3c0,1.1,0.2,1.9,0.6,2.5c0.4,0.5,1,0.8,1.8,0.8c0.9,0,1.8-0.2,2.6-0.7
				v1.8c-0.4,0.2-0.8,0.4-1.2,0.5C830.8,291.5,830.4,291.6,829.8,291.6z"/>
			<path class="st3" d="M839.8,281.5c0.4,0,0.8,0,1,0.1l-0.2,1.9c-0.3-0.1-0.6-0.1-0.9-0.1c-0.8,0-1.5,0.3-2,0.8s-0.8,1.2-0.8,2.1
				v5.1h-2.1v-9.7h1.6l0.3,1.7h0.1c0.3-0.6,0.7-1,1.3-1.4C838.7,281.6,839.2,281.5,839.8,281.5z"/>
			<path class="st3" d="M851.2,286.5c0,1.6-0.4,2.8-1.2,3.7c-0.8,0.9-1.9,1.3-3.4,1.3c-0.9,0-1.7-0.2-2.4-0.6s-1.2-1-1.6-1.8
				s-0.6-1.7-0.6-2.7c0-1.6,0.4-2.8,1.2-3.7c0.8-0.9,1.9-1.3,3.4-1.3c1.4,0,2.5,0.5,3.3,1.4C850.8,283.8,851.2,285,851.2,286.5z
				 M844.1,286.5c0,2.2,0.8,3.4,2.5,3.4c1.6,0,2.5-1.1,2.5-3.4c0-2.2-0.8-3.3-2.5-3.3c-0.9,0-1.5,0.3-1.9,0.9
				C844.3,284.7,844.1,285.5,844.1,286.5z"/>
			<path class="st3" d="M860.1,288.6c0,0.9-0.3,1.7-1,2.2s-1.7,0.8-3,0.8s-2.3-0.2-3.1-0.6v-1.8c1.1,0.5,2.2,0.8,3.2,0.8
				c1.3,0,1.9-0.4,1.9-1.2c0-0.2-0.1-0.5-0.2-0.6s-0.4-0.3-0.7-0.5s-0.8-0.4-1.3-0.6c-1.1-0.4-1.9-0.9-2.3-1.3
				c-0.4-0.4-0.6-1-0.6-1.7c0-0.8,0.3-1.5,1-1.9c0.7-0.5,1.6-0.7,2.7-0.7s2.2,0.2,3.2,0.7l-0.7,1.6c-1-0.4-1.9-0.7-2.6-0.7
				c-1.1,0-1.6,0.3-1.6,0.9c0,0.3,0.1,0.6,0.4,0.8s0.9,0.5,1.9,0.9c0.8,0.3,1.4,0.6,1.7,0.9s0.6,0.6,0.8,0.9
				S860.1,288.2,860.1,288.6z"/>
			<path class="st3" d="M871,286.5c0,1.6-0.4,2.8-1.2,3.7c-0.8,0.9-1.9,1.3-3.4,1.3c-0.9,0-1.7-0.2-2.4-0.6s-1.2-1-1.6-1.8
				s-0.6-1.7-0.6-2.7c0-1.6,0.4-2.8,1.2-3.7c0.8-0.9,1.9-1.3,3.4-1.3c1.4,0,2.5,0.5,3.3,1.4C870.6,283.8,871,285,871,286.5z
				 M863.9,286.5c0,2.2,0.8,3.4,2.5,3.4c1.6,0,2.5-1.1,2.5-3.4c0-2.2-0.8-3.3-2.5-3.3c-0.9,0-1.5,0.3-1.9,0.9
				C864.1,284.7,863.9,285.5,863.9,286.5z"/>
			<path class="st3" d="M878.2,283.2h-2.4v8.2h-2.1v-8.2h-1.6v-1l1.6-0.6V281c0-1.1,0.3-2,0.8-2.6s1.4-0.8,2.5-0.8
				c0.7,0,1.4,0.1,2.1,0.4l-0.5,1.6c-0.5-0.2-1-0.2-1.5-0.2s-0.8,0.1-1,0.4s-0.3,0.7-0.3,1.3v0.6h2.4V283.2z"/>
			<path class="st3" d="M883.5,289.9c0.5,0,1-0.1,1.5-0.2v1.6c-0.2,0.1-0.5,0.2-0.9,0.3c-0.4,0.1-0.7,0.1-1.1,0.1
				c-2,0-2.9-1-2.9-3.1v-5.2h-1.3v-0.9l1.4-0.8l0.7-2.1h1.3v2.2h2.8v1.6h-2.9v5.2c0,0.5,0.1,0.9,0.4,1.1
				C882.8,289.8,883.1,289.9,883.5,289.9z"/>
		</g>
		<g>
			<path class="st3" d="M813.5,329h2.2l-4.6,12.8h-2.2l-4.5-12.8h2.2l2.7,8c0.1,0.4,0.3,0.9,0.4,1.5c0.2,0.6,0.3,1,0.3,1.3
				c0.1-0.4,0.2-1,0.4-1.5s0.3-1,0.4-1.3L813.5,329z"/>
			<path class="st3" d="M821.4,342c-1.5,0-2.7-0.4-3.5-1.3s-1.3-2.1-1.3-3.6c0-1.6,0.4-2.8,1.2-3.7c0.8-0.9,1.9-1.4,3.3-1.4
				c1.3,0,2.3,0.4,3,1.2s1.1,1.9,1.1,3.2v1.1h-6.5c0,0.9,0.3,1.7,0.8,2.2s1.2,0.8,2,0.8c0.6,0,1.1-0.1,1.6-0.2s1-0.3,1.6-0.5v1.7
				c-0.5,0.2-1,0.4-1.5,0.5S822,342,821.4,342z M821,333.5c-0.7,0-1.2,0.2-1.6,0.6s-0.6,1-0.7,1.8h4.4c0-0.8-0.2-1.4-0.6-1.8
				C822.2,333.7,821.6,333.5,821,333.5z"/>
			<path class="st3" d="M831.7,342c-1.5,0-2.7-0.4-3.5-1.3s-1.3-2.1-1.3-3.6c0-1.6,0.4-2.8,1.2-3.7s1.9-1.4,3.3-1.4
				c1.3,0,2.3,0.4,3,1.2s1.1,1.9,1.1,3.2v1.1H829c0,0.9,0.3,1.7,0.8,2.2s1.2,0.8,2,0.8c0.6,0,1.1-0.1,1.6-0.2s1-0.3,1.6-0.5v1.7
				c-0.5,0.2-1,0.4-1.5,0.5S832.4,342,831.7,342z M831.4,333.5c-0.7,0-1.2,0.2-1.6,0.6c-0.4,0.4-0.6,1-0.7,1.8h4.4
				c0-0.8-0.2-1.4-0.6-1.8C832.5,333.7,832,333.5,831.4,333.5z"/>
			<path class="st3" d="M840.1,341.8l-3.7-9.7h2.2l2,5.7c0.3,0.9,0.5,1.7,0.6,2.3h0.1c0.1-0.4,0.3-1.2,0.6-2.3l2-5.7h2.2l-3.7,9.7
				H840.1z"/>
			<path class="st3" d="M853.6,341.8l-0.4-1.4h-0.1c-0.5,0.6-0.9,1-1.4,1.2s-1.1,0.3-1.8,0.3c-1,0-1.7-0.3-2.2-0.8s-0.8-1.2-0.8-2.2
				s0.4-1.8,1.1-2.3c0.7-0.5,1.9-0.8,3.4-0.8l1.7-0.1v-0.5c0-0.6-0.1-1.1-0.4-1.4s-0.7-0.5-1.3-0.5c-0.5,0-1,0.1-1.4,0.2
				s-0.9,0.3-1.3,0.5l-0.7-1.5c0.5-0.3,1.1-0.5,1.7-0.6c0.6-0.1,1.2-0.2,1.8-0.2c1.2,0,2.2,0.3,2.8,0.8s0.9,1.4,0.9,2.5v6.5h-1.6
				V341.8z M850.5,340.4c0.8,0,1.4-0.2,1.8-0.6c0.5-0.4,0.7-1,0.7-1.8v-0.8l-1.2,0.1c-1,0-1.7,0.2-2.1,0.5c-0.4,0.3-0.7,0.7-0.7,1.3
				c0,0.4,0.1,0.8,0.4,1C849.6,340.3,850,340.4,850.5,340.4z"/>
		</g>
		<g>
			<path class="st3" d="M812.6,38.8c0,1.1-0.4,2-1.2,2.7s-2,1-3.4,1s-2.6-0.2-3.6-0.7v-2c0.6,0.3,1.2,0.5,1.9,0.7s1.3,0.2,1.8,0.2
				c0.8,0,1.4-0.2,1.8-0.5s0.6-0.7,0.6-1.3c0-0.5-0.2-0.9-0.5-1.2s-1.1-0.7-2.3-1.2s-2-1-2.5-1.6s-0.7-1.3-0.7-2.2
				c0-1.1,0.4-1.9,1.1-2.5s1.8-0.9,3.1-0.9c1.2,0,2.5,0.3,3.7,0.8l-0.7,1.7c-1.1-0.5-2.2-0.7-3.1-0.7c-0.7,0-1.2,0.1-1.5,0.4
				c-0.4,0.3-0.5,0.7-0.5,1.2c0,0.3,0.1,0.6,0.2,0.9c0.1,0.2,0.4,0.5,0.7,0.7s0.9,0.5,1.7,0.8c0.9,0.4,1.6,0.8,2.1,1.1
				s0.8,0.7,1,1.2S812.6,38.2,812.6,38.8z"/>
			<path class="st3" d="M821,42.3l-0.4-1.4h-0.1c-0.5,0.6-0.9,1-1.4,1.2s-1.1,0.3-1.8,0.3c-1,0-1.7-0.3-2.2-0.8s-0.8-1.2-0.8-2.2
				s0.4-1.8,1.1-2.3s1.9-0.8,3.4-0.8l1.7-0.1v-0.5c0-0.6-0.1-1.1-0.4-1.4c-0.3-0.3-0.7-0.5-1.3-0.5c-0.5,0-1,0.1-1.4,0.2
				c-0.4,0.1-0.9,0.3-1.3,0.5l-0.7-1.5c0.5-0.3,1.1-0.5,1.7-0.6c0.6-0.1,1.2-0.2,1.8-0.2c1.2,0,2.2,0.3,2.8,0.8s0.9,1.4,0.9,2.5V42
				H821V42.3z M817.9,40.9c0.8,0,1.4-0.2,1.8-0.6c0.5-0.4,0.7-1,0.7-1.8v-0.8l-1.2,0.1c-1,0-1.7,0.2-2.1,0.5
				c-0.4,0.3-0.7,0.7-0.7,1.3c0,0.4,0.1,0.8,0.4,1C817,40.8,817.4,40.9,817.9,40.9z"/>
			<path class="st3" d="M827.4,42.3h-2.1V28.6h2.1V42.3z"/>
			<path class="st3" d="M834.6,42.5c-1.5,0-2.7-0.4-3.5-1.3s-1.3-2.1-1.3-3.6c0-1.6,0.4-2.8,1.2-3.7s1.9-1.4,3.3-1.4
				c1.3,0,2.3,0.4,3,1.2s1.1,1.9,1.1,3.2V38h-6.5c0,0.9,0.3,1.7,0.8,2.2s1.2,0.8,2,0.8c0.6,0,1.1-0.1,1.6-0.2s1-0.3,1.6-0.5V42
				c-0.5,0.2-1,0.4-1.5,0.5S835.2,42.5,834.6,42.5z M834.2,34c-0.7,0-1.2,0.2-1.6,0.6c-0.4,0.4-0.6,1-0.7,1.8h4.4
				c0-0.8-0.2-1.4-0.6-1.8C835.4,34.2,834.9,34,834.2,34z"/>
			<path class="st3" d="M847.2,39.5c0,0.9-0.3,1.7-1,2.2s-1.7,0.8-3,0.8s-2.3-0.2-3.1-0.6v-1.8c1.1,0.5,2.2,0.8,3.2,0.8
				c1.3,0,1.9-0.4,1.9-1.2c0-0.2-0.1-0.5-0.2-0.6c-0.1-0.1-0.4-0.3-0.7-0.5s-0.8-0.4-1.3-0.6c-1.1-0.4-1.9-0.9-2.3-1.3
				c-0.4-0.4-0.6-1-0.6-1.7c0-0.8,0.3-1.5,1-1.9c0.7-0.5,1.6-0.7,2.7-0.7c1.1,0,2.2,0.2,3.2,0.7l-0.7,1.6c-1-0.4-1.9-0.7-2.6-0.7
				c-1.1,0-1.6,0.3-1.6,0.9c0,0.3,0.1,0.6,0.4,0.8c0.3,0.2,0.9,0.5,1.9,0.9c0.8,0.3,1.4,0.6,1.7,0.9s0.6,0.6,0.8,0.9
				S847.2,39.1,847.2,39.5z"/>
			<path class="st3" d="M854.3,34.1h-2.4v8.2h-2.1v-8.2h-1.6v-1l1.6-0.6v-0.6c0-1.1,0.3-2,0.8-2.6s1.4-0.8,2.5-0.8
				c0.7,0,1.4,0.1,2.1,0.4l-0.5,1.6c-0.5-0.2-1-0.2-1.5-0.2s-0.8,0.1-1,0.4s-0.3,0.7-0.3,1.3v0.6h2.4V34.1z"/>
			<path class="st3" d="M864.6,37.4c0,1.6-0.4,2.8-1.2,3.7s-1.9,1.3-3.4,1.3c-0.9,0-1.7-0.2-2.4-0.6s-1.2-1-1.6-1.8
				c-0.4-0.8-0.6-1.7-0.6-2.7c0-1.6,0.4-2.8,1.2-3.7s1.9-1.3,3.4-1.3c1.4,0,2.5,0.5,3.3,1.4C864.2,34.7,864.6,35.9,864.6,37.4z
				 M857.5,37.4c0,2.2,0.8,3.4,2.5,3.4c1.6,0,2.5-1.1,2.5-3.4c0-2.2-0.8-3.3-2.5-3.3c-0.9,0-1.5,0.3-1.9,0.9
				C857.7,35.6,857.5,36.3,857.5,37.4z"/>
			<path class="st3" d="M871.9,32.4c0.4,0,0.8,0,1,0.1l-0.2,1.9c-0.3-0.1-0.6-0.1-0.9-0.1c-0.8,0-1.5,0.3-2,0.8s-0.8,1.2-0.8,2.1
				v5.1h-2.1v-9.7h1.6l0.3,1.7h0.1c0.3-0.6,0.7-1,1.3-1.4C870.8,32.5,871.3,32.4,871.9,32.4z"/>
			<path class="st3" d="M878.7,42.5c-1.5,0-2.6-0.4-3.4-1.3s-1.1-2.1-1.1-3.7c0-1.6,0.4-2.9,1.2-3.8s2-1.3,3.5-1.3
				c1,0,1.9,0.2,2.8,0.6l-0.6,1.7c-0.9-0.3-1.6-0.5-2.2-0.5c-1.7,0-2.5,1.1-2.5,3.3c0,1.1,0.2,1.9,0.6,2.5c0.4,0.5,1,0.8,1.8,0.8
				c0.9,0,1.8-0.2,2.6-0.7v1.8c-0.4,0.2-0.8,0.4-1.2,0.5C879.8,42.5,879.3,42.5,878.7,42.5z"/>
			<path class="st3" d="M887.9,42.5c-1.5,0-2.7-0.4-3.5-1.3s-1.3-2.1-1.3-3.6c0-1.6,0.4-2.8,1.2-3.7s1.9-1.4,3.3-1.4
				c1.3,0,2.3,0.4,3,1.2s1.1,1.9,1.1,3.2V38h-6.5c0,0.9,0.3,1.7,0.8,2.2s1.2,0.8,2,0.8c0.6,0,1.1-0.1,1.6-0.2s1-0.3,1.6-0.5V42
				c-0.5,0.2-1,0.4-1.5,0.5S888.6,42.5,887.9,42.5z M887.5,34c-0.7,0-1.2,0.2-1.6,0.6s-0.6,1-0.7,1.8h4.4c0-0.8-0.2-1.4-0.6-1.8
				C888.7,34.2,888.2,34,887.5,34z"/>
		</g>
	</g>
	<g>
		<g>
			<g>
				<path class="st3" d="M135.3,420.3h-9v-1.6l3.4-3.4c1-1,1.7-1.8,2-2.2c0.3-0.4,0.6-0.8,0.7-1.2c0.2-0.4,0.2-0.8,0.2-1.2
					c0-0.6-0.2-1.1-0.5-1.4c-0.4-0.3-0.9-0.5-1.5-0.5c-0.5,0-1,0.1-1.5,0.3s-1,0.5-1.6,1l-1.2-1.4c0.7-0.6,1.5-1.1,2.1-1.3
					c0.6-0.2,1.4-0.4,2.2-0.4c1.2,0,2.2,0.3,3,1c0.7,0.6,1.1,1.5,1.1,2.6c0,0.6-0.1,1.2-0.3,1.7c-0.2,0.5-0.5,1.1-1,1.7
					c-0.4,0.6-1.2,1.3-2.2,2.3l-2.3,2.2v0.1h6.3v1.7L135.3,420.3L135.3,420.3z"/>
				<path class="st3" d="M145.9,413.6c0,2.3-0.4,4-1.1,5.1s-1.9,1.7-3.4,1.7s-2.6-0.6-3.4-1.7s-1.1-2.8-1.1-5.1
					c0-2.3,0.4-4.1,1.1-5.2c0.7-1.1,1.9-1.7,3.4-1.7s2.6,0.6,3.4,1.7S145.9,411.4,145.9,413.6z M139.1,413.6c0,1.8,0.2,3.1,0.6,3.9
					s1,1.2,1.8,1.2c0.8,0,1.4-0.4,1.8-1.2c0.4-0.8,0.6-2.1,0.6-3.9s-0.2-3.1-0.6-3.9c-0.4-0.8-1-1.2-1.8-1.2c-0.8,0-1.4,0.4-1.8,1.2
					C139.3,410.5,139.1,411.8,139.1,413.6z"/>
				<path class="st3" d="M153.8,420.3h-2.1v-8.6c0-1,0-1.8,0.1-2.4c-0.1,0.1-0.3,0.3-0.5,0.5c-0.2,0.2-0.9,0.7-2,1.7l-1.1-1.4
					l3.9-3.1h1.8L153.8,420.3L153.8,420.3z"/>
				<path class="st3" d="M162.7,412c1.3,0,2.4,0.4,3.2,1.1c0.8,0.7,1.2,1.7,1.2,2.9c0,1.4-0.4,2.5-1.3,3.3s-2.1,1.2-3.8,1.2
					c-1.5,0-2.6-0.2-3.5-0.7v-1.9c0.5,0.3,1.1,0.5,1.7,0.6c0.6,0.2,1.2,0.2,1.8,0.2c1,0,1.7-0.2,2.2-0.6s0.8-1.1,0.8-1.9
					c0-1.6-1-2.4-3-2.4c-0.3,0-0.6,0-1.1,0.1s-0.8,0.1-1.1,0.2l-1-0.6l0.5-6.5h6.9v1.9h-5l-0.3,3.3c0.2,0,0.5-0.1,0.8-0.1
					C161.8,412,162.2,412,162.7,412z"/>
			</g>
			<g>
				<path class="st3" d="M293.5,420.3h-9v-1.6l3.4-3.4c1-1,1.7-1.8,2-2.2c0.3-0.4,0.6-0.8,0.7-1.2c0.2-0.4,0.2-0.8,0.2-1.2
					c0-0.6-0.2-1.1-0.5-1.4c-0.4-0.3-0.9-0.5-1.5-0.5c-0.5,0-1,0.1-1.5,0.3s-1,0.5-1.6,1l-1.2-1.4c0.7-0.6,1.5-1.1,2.1-1.3
					s1.4-0.4,2.2-0.4c1.2,0,2.2,0.3,3,1c0.7,0.6,1.1,1.5,1.1,2.6c0,0.6-0.1,1.2-0.3,1.7c-0.2,0.5-0.5,1.1-1,1.7
					c-0.4,0.6-1.2,1.3-2.2,2.3l-2.3,2.2v0.1h6.3L293.5,420.3L293.5,420.3z"/>
				<path class="st3" d="M304.1,413.6c0,2.3-0.4,4-1.1,5.1s-1.9,1.7-3.4,1.7s-2.6-0.6-3.4-1.7s-1.1-2.8-1.1-5.1
					c0-2.3,0.4-4.1,1.1-5.2s1.9-1.7,3.4-1.7s2.6,0.6,3.4,1.7S304.1,411.4,304.1,413.6z M297.3,413.6c0,1.8,0.2,3.1,0.6,3.9
					s1,1.2,1.8,1.2s1.4-0.4,1.8-1.2s0.6-2.1,0.6-3.9s-0.2-3.1-0.6-3.9s-1-1.2-1.8-1.2s-1.4,0.4-1.8,1.2
					C297.5,410.5,297.3,411.8,297.3,413.6z"/>
				<path class="st3" d="M312,420.3h-2.1v-8.6c0-1,0-1.8,0.1-2.4c-0.1,0.1-0.3,0.3-0.5,0.5s-0.9,0.7-2,1.7l-1.1-1.4l3.9-3.1h1.8
					L312,420.3L312,420.3z"/>
				<path class="st3" d="M316.4,414.6c0-5.2,2.1-7.8,6.3-7.8c0.7,0,1.2,0.1,1.7,0.2v1.8c-0.5-0.1-1-0.2-1.6-0.2
					c-1.4,0-2.5,0.4-3.2,1.1s-1.1,2-1.2,3.7h0.1c0.3-0.5,0.7-0.9,1.2-1.1c0.5-0.3,1.1-0.4,1.8-0.4c1.2,0,2.1,0.4,2.8,1.1
					c0.7,0.7,1,1.7,1,3c0,1.4-0.4,2.5-1.2,3.3c-0.8,0.8-1.8,1.2-3.2,1.2c-0.9,0-1.8-0.2-2.5-0.7s-1.2-1.1-1.6-2
					C316.6,416.9,316.4,415.8,316.4,414.6z M321,418.7c0.7,0,1.3-0.2,1.7-0.7s0.6-1.1,0.6-2c0-0.8-0.2-1.4-0.6-1.8s-0.9-0.7-1.7-0.7
					c-0.5,0-0.9,0.1-1.3,0.3c-0.4,0.2-0.7,0.5-0.9,0.8c-0.2,0.3-0.3,0.7-0.3,1c0,0.9,0.2,1.6,0.7,2.2
					C319.7,418.4,320.3,418.7,321,418.7z"/>
			</g>
			<g>
				<path class="st3" d="M455.3,420.3h-9v-1.6l3.4-3.4c1-1,1.7-1.8,2-2.2c0.3-0.4,0.6-0.8,0.7-1.2s0.2-0.8,0.2-1.2
					c0-0.6-0.2-1.1-0.5-1.4c-0.4-0.3-0.9-0.5-1.5-0.5c-0.5,0-1,0.1-1.5,0.3s-1,0.5-1.6,1l-1.2-1.4c0.7-0.6,1.5-1.1,2.1-1.3
					s1.4-0.4,2.2-0.4c1.2,0,2.2,0.3,3,1c0.7,0.6,1.1,1.5,1.1,2.6c0,0.6-0.1,1.2-0.3,1.7c-0.2,0.5-0.5,1.1-1,1.7
					c-0.4,0.6-1.2,1.3-2.2,2.3l-2.3,2.2v0.1h6.3L455.3,420.3L455.3,420.3z"/>
				<path class="st3" d="M465.9,413.6c0,2.3-0.4,4-1.1,5.1s-1.9,1.7-3.4,1.7s-2.6-0.6-3.4-1.7s-1.1-2.8-1.1-5.1
					c0-2.3,0.4-4.1,1.1-5.2s1.9-1.7,3.4-1.7s2.6,0.6,3.4,1.7S465.9,411.4,465.9,413.6z M459,413.6c0,1.8,0.2,3.1,0.6,3.9
					s1,1.2,1.8,1.2s1.4-0.4,1.8-1.2c0.4-0.8,0.6-2.1,0.6-3.9s-0.2-3.1-0.6-3.9s-1-1.2-1.8-1.2s-1.4,0.4-1.8,1.2
					C459.2,410.5,459,411.8,459,413.6z"/>
				<path class="st3" d="M473.8,420.3h-2.1v-8.6c0-1,0-1.8,0.1-2.4c-0.1,0.1-0.3,0.3-0.5,0.5s-0.9,0.7-2,1.7l-1.1-1.4l3.9-3.1h1.8
					L473.8,420.3L473.8,420.3z"/>
				<path class="st3" d="M479.6,420.3l5.2-11.4h-6.9V407h9.2v1.5l-5.2,11.8H479.6z"/>
			</g>
			<g>
				<path class="st3" d="M615.8,420.3h-9v-1.6l3.4-3.4c1-1,1.7-1.8,2-2.2c0.3-0.4,0.6-0.8,0.7-1.2s0.2-0.8,0.2-1.2
					c0-0.6-0.2-1.1-0.5-1.4c-0.4-0.3-0.9-0.5-1.5-0.5c-0.5,0-1,0.1-1.5,0.3s-1,0.5-1.6,1l-1.2-1.4c0.7-0.6,1.5-1.1,2.1-1.3
					s1.4-0.4,2.2-0.4c1.2,0,2.2,0.3,3,1c0.7,0.6,1.1,1.5,1.1,2.6c0,0.6-0.1,1.2-0.3,1.7s-0.5,1.1-1,1.7c-0.4,0.6-1.2,1.3-2.2,2.3
					l-2.3,2.2v0.1h6.3L615.8,420.3L615.8,420.3z"/>
				<path class="st3" d="M626.4,413.6c0,2.3-0.4,4-1.1,5.1c-0.7,1.1-1.9,1.7-3.4,1.7s-2.6-0.6-3.4-1.7s-1.1-2.8-1.1-5.1
					c0-2.3,0.4-4.1,1.1-5.2c0.7-1.1,1.9-1.7,3.4-1.7s2.6,0.6,3.4,1.7S626.4,411.4,626.4,413.6z M619.5,413.6c0,1.8,0.2,3.1,0.6,3.9
					c0.4,0.8,1,1.2,1.8,1.2s1.4-0.4,1.8-1.2c0.4-0.8,0.6-2.1,0.6-3.9s-0.2-3.1-0.6-3.9c-0.4-0.8-1-1.2-1.8-1.2s-1.4,0.4-1.8,1.2
					C619.7,410.5,619.5,411.8,619.5,413.6z"/>
				<path class="st3" d="M634.2,420.3h-2.1v-8.6c0-1,0-1.8,0.1-2.4c-0.1,0.1-0.3,0.3-0.5,0.5s-0.9,0.7-2,1.7l-1.1-1.4l3.9-3.1h1.8
					v13.3H634.2z"/>
				<path class="st3" d="M643.1,406.8c1.3,0,2.3,0.3,3,0.9s1.1,1.3,1.1,2.3c0,1.4-0.8,2.4-2.4,3.2c1,0.5,1.8,1.1,2.2,1.6
					c0.4,0.6,0.7,1.2,0.7,1.9c0,1.1-0.4,2-1.2,2.6c-0.8,0.7-1.9,1-3.3,1c-1.4,0-2.6-0.3-3.3-0.9c-0.8-0.6-1.2-1.5-1.2-2.6
					c0-0.7,0.2-1.4,0.6-2c0.4-0.6,1.1-1.1,2-1.6c-0.8-0.5-1.4-1-1.7-1.5s-0.5-1.1-0.5-1.8c0-1,0.4-1.7,1.1-2.3
					S641.9,406.8,643.1,406.8z M640.6,416.8c0,0.6,0.2,1.1,0.7,1.5s1,0.5,1.8,0.5s1.4-0.2,1.8-0.5c0.4-0.4,0.6-0.8,0.6-1.5
					c0-0.5-0.2-0.9-0.6-1.3c-0.4-0.4-1-0.8-1.8-1.1l-0.3-0.1c-0.8,0.4-1.4,0.7-1.7,1.2S640.6,416.3,640.6,416.8z M643,408.5
					c-0.6,0-1.1,0.1-1.5,0.4s-0.6,0.7-0.6,1.2c0,0.3,0.1,0.6,0.2,0.8c0.1,0.2,0.3,0.5,0.6,0.7s0.7,0.4,1.3,0.7
					c0.7-0.3,1.2-0.7,1.5-1c0.3-0.4,0.4-0.8,0.4-1.2c0-0.5-0.2-0.9-0.6-1.2C644.2,408.6,643.7,408.5,643,408.5z"/>
			</g>
			<g>
				<path class="st3" d="M764.4,420.3h-9v-1.6l3.4-3.4c1-1,1.7-1.8,2-2.2c0.3-0.4,0.6-0.8,0.7-1.2s0.2-0.8,0.2-1.2
					c0-0.6-0.2-1.1-0.5-1.4c-0.4-0.3-0.9-0.5-1.5-0.5c-0.5,0-1,0.1-1.5,0.3s-1,0.5-1.6,1l-1.2-1.4c0.7-0.6,1.5-1.1,2.1-1.3
					s1.4-0.4,2.2-0.4c1.2,0,2.2,0.3,3,1c0.7,0.6,1.1,1.5,1.1,2.6c0,0.6-0.1,1.2-0.3,1.7s-0.5,1.1-1,1.7c-0.4,0.6-1.2,1.3-2.2,2.3
					l-2.3,2.2v0.1h6.3L764.4,420.3L764.4,420.3z"/>
				<path class="st3" d="M775,413.6c0,2.3-0.4,4-1.1,5.1c-0.7,1.1-1.9,1.7-3.4,1.7s-2.6-0.6-3.4-1.7s-1.1-2.8-1.1-5.1
					c0-2.3,0.4-4.1,1.1-5.2c0.7-1.1,1.9-1.7,3.4-1.7s2.6,0.6,3.4,1.7S775,411.4,775,413.6z M768.2,413.6c0,1.8,0.2,3.1,0.6,3.9
					c0.4,0.8,1,1.2,1.8,1.2s1.4-0.4,1.8-1.2c0.4-0.8,0.6-2.1,0.6-3.9s-0.2-3.1-0.6-3.9c-0.4-0.8-1-1.2-1.8-1.2s-1.4,0.4-1.8,1.2
					C768.4,410.5,768.2,411.8,768.2,413.6z"/>
				<path class="st3" d="M782.9,420.3h-2.1v-8.6c0-1,0-1.8,0.1-2.4c-0.1,0.1-0.3,0.3-0.5,0.5s-0.9,0.7-2,1.7l-1.1-1.4l3.9-3.1h1.8
					v13.3H782.9z"/>
				<path class="st3" d="M796.2,412.7c0,2.6-0.5,4.6-1.6,5.8c-1.1,1.3-2.6,1.9-4.8,1.9c-0.8,0-1.4,0-1.7-0.1v-1.8
					c0.5,0.2,1.1,0.2,1.6,0.2c1.4,0,2.5-0.4,3.2-1.2c0.7-0.8,1.1-2,1.2-3.6H794c-0.4,0.5-0.8,0.9-1.3,1.2c-0.5,0.2-1.1,0.4-1.8,0.4
					c-1.2,0-2.1-0.4-2.8-1.1s-1-1.7-1-3c0-1.4,0.4-2.5,1.2-3.3s1.8-1.2,3.2-1.2c0.9,0,1.8,0.2,2.5,0.7s1.2,1.1,1.6,2
					S796.2,411.4,796.2,412.7z M791.6,408.6c-0.7,0-1.3,0.2-1.7,0.7s-0.6,1.2-0.6,2s0.2,1.3,0.5,1.8c0.4,0.4,0.9,0.6,1.7,0.6
					c0.7,0,1.3-0.2,1.8-0.6s0.7-0.9,0.7-1.5c0-0.5-0.1-1-0.3-1.5s-0.5-0.8-0.9-1.1S792.1,408.6,791.6,408.6z"/>
				<path class="st3" d="M809.2,420.3H807v-6h-6.1v6h-2.2V407h2.2v5.4h6.1V407h2.2V420.3z"/>
				<path class="st3" d="M818,420.3h-2.1v-8.6c0-1,0-1.8,0.1-2.4c-0.1,0.1-0.3,0.3-0.5,0.5s-0.9,0.7-2,1.7l-1.1-1.4l3.9-3.1h1.8
					v13.3H818z"/>
			</g>
		</g>
		<g>
			<g>
				<polyline class="st4" points="146.7,377.7 304.9,366.1 466.7,357 627.2,352.6 788.1,336.5 				"/>
				<circle class="st5" cx="146.7" cy="377.9" r="7.1"/>
				<circle class="st5" cx="466.7" cy="357" r="7.1"/>
				<circle class="st5" cx="627.2" cy="352.6" r="7.1"/>
				<circle class="st5" cx="788.1" cy="336.5" r="7.1"/>
				<circle class="st5" cx="304.9" cy="366.1" r="7.1"/>
			</g>
			<g>
				<path class="st3" d="M638.6,366.1c1.3,0,2.3,0.4,3.1,1.1s1.1,1.7,1.1,3c0,1.5-0.5,2.6-1.4,3.4s-2.2,1.2-3.9,1.2
					c-1.5,0-2.7-0.2-3.6-0.7v-2.4c0.5,0.3,1,0.5,1.7,0.6c0.6,0.2,1.2,0.2,1.8,0.2c1.7,0,2.6-0.7,2.6-2.1c0-1.3-0.9-2-2.7-2
					c-0.3,0-0.7,0-1.1,0.1s-0.7,0.1-0.9,0.2l-1.1-0.6l0.5-6.8h7.2v2.4h-4.7l-0.2,2.6l0.3-0.1C637.6,366.2,638.1,366.1,638.6,366.1z"
					/>
				<path class="st3" d="M644.7,373.3c0-0.5,0.1-0.9,0.4-1.2c0.3-0.3,0.7-0.4,1.2-0.4s0.9,0.1,1.2,0.4s0.4,0.6,0.4,1.1
					s-0.1,0.9-0.4,1.1c-0.3,0.3-0.7,0.4-1.2,0.4s-0.9-0.1-1.2-0.4C644.8,374.2,644.7,373.8,644.7,373.3z"/>
				<path class="st3" d="M659.3,371.9h-1.6v2.7H655v-2.7h-5.7v-2l5.8-8.6h2.6v8.3h1.6L659.3,371.9L659.3,371.9z M654.9,369.7v-2.2
					c0-0.4,0-0.9,0-1.6s0.1-1.1,0.1-1.2h-0.1c-0.2,0.5-0.5,1-0.8,1.5l-2.4,3.7h3.2V369.7z"/>
				<path class="st3" d="M666.4,365.3c0,1.4-0.3,2.4-0.8,3.1s-1.3,1-2.4,1c-1,0-1.8-0.4-2.3-1.1s-0.8-1.8-0.8-3.1
					c0-2.8,1-4.1,3.1-4.1c1,0,1.8,0.4,2.4,1.1C666.1,363,666.4,364,666.4,365.3z M662.4,365.3c0,0.8,0.1,1.3,0.2,1.7
					c0.1,0.4,0.4,0.6,0.7,0.6c0.6,0,0.9-0.8,0.9-2.3s-0.3-2.3-0.9-2.3c-0.3,0-0.5,0.2-0.7,0.6C662.5,364,662.4,364.6,662.4,365.3z
					 M672.7,361.4l-7.4,13.3h-2.2l7.4-13.3H672.7z M675.7,370.6c0,1.4-0.3,2.4-0.8,3.1s-1.3,1-2.4,1c-1,0-1.8-0.4-2.3-1.1
					s-0.8-1.7-0.8-3.1c0-2.8,1-4.1,3.1-4.1c1,0,1.8,0.4,2.4,1.1C675.4,368.3,675.7,369.3,675.7,370.6z M671.7,370.6
					c0,0.8,0.1,1.3,0.2,1.7s0.4,0.6,0.7,0.6c0.6,0,0.9-0.8,0.9-2.3s-0.3-2.3-0.9-2.3c-0.3,0-0.5,0.2-0.7,0.6
					S671.7,369.9,671.7,370.6z"/>
			</g>
		</g>
		<g>
			<g>
				<polyline class="st6" points="146.7,329.1 304.9,317.5 466.7,292.1 627.2,283 788.1,278.9 				"/>
				<circle class="st7" cx="146.7" cy="326.6" r="7.1"/>
				<circle class="st7" cx="466.7" cy="292.1" r="7.1"/>
				<circle class="st7" cx="627.2" cy="283" r="7.1"/>
				<circle class="st7" cx="788.1" cy="278.9" r="7.1"/>
				<circle class="st7" cx="304.9" cy="317.5" r="7.1"/>
			</g>
			<g>
				<path class="st3" d="M643,297.7c0,2.6-0.6,4.6-1.7,5.8c-1.1,1.3-2.8,1.9-5,1.9c-0.8,0-1.4,0-1.8-0.1v-2.2c0.5,0.1,1,0.2,1.6,0.2
					c0.9,0,1.7-0.1,2.3-0.4s1.1-0.7,1.4-1.3c0.3-0.6,0.5-1.4,0.6-2.4h-0.1c-0.4,0.6-0.8,1-1.2,1.2c-0.5,0.2-1,0.3-1.7,0.3
					c-1.2,0-2.1-0.4-2.7-1.1c-0.7-0.7-1-1.8-1-3.1c0-1.4,0.4-2.5,1.2-3.4c0.8-0.8,1.9-1.2,3.3-1.2c1,0,1.8,0.2,2.6,0.7
					c0.7,0.5,1.3,1.1,1.7,2C642.8,295.5,643,296.5,643,297.7z M638.2,294.2c-0.6,0-1,0.2-1.4,0.6c-0.3,0.4-0.5,1-0.5,1.7
					c0,0.6,0.1,1.1,0.4,1.5c0.3,0.4,0.7,0.6,1.4,0.6c0.6,0,1.1-0.2,1.5-0.6s0.6-0.8,0.6-1.3c0-0.7-0.2-1.3-0.6-1.8
					C639.3,294.4,638.8,294.2,638.2,294.2z"/>
				<path class="st3" d="M644.7,304c0-0.5,0.1-0.9,0.4-1.2c0.3-0.3,0.7-0.4,1.2-0.4s0.9,0.1,1.2,0.4s0.4,0.6,0.4,1.1
					s-0.1,0.9-0.4,1.1c-0.3,0.3-0.7,0.4-1.2,0.4s-0.9-0.1-1.2-0.4C644.8,304.9,644.7,304.5,644.7,304z"/>
				<path class="st3" d="M659.3,302.6h-1.6v2.7H655v-2.7h-5.7v-2l5.8-8.6h2.6v8.3h1.6L659.3,302.6L659.3,302.6z M654.9,300.4v-2.2
					c0-0.4,0-0.9,0-1.6s0.1-1.1,0.1-1.2h-0.1c-0.2,0.5-0.5,1-0.8,1.5l-2.4,3.7h3.2V300.4z"/>
				<path class="st3" d="M666.4,296c0,1.4-0.3,2.4-0.8,3.1s-1.3,1-2.4,1c-1,0-1.8-0.4-2.3-1.1s-0.8-1.8-0.8-3.1c0-2.8,1-4.1,3.1-4.1
					c1,0,1.8,0.4,2.4,1.1C666.1,293.7,666.4,294.7,666.4,296z M662.4,296.1c0,0.8,0.1,1.3,0.2,1.7c0.1,0.4,0.4,0.6,0.7,0.6
					c0.6,0,0.9-0.8,0.9-2.3s-0.3-2.3-0.9-2.3c-0.3,0-0.5,0.2-0.7,0.6C662.5,294.7,662.4,295.3,662.4,296.1z M672.7,292.1l-7.4,13.3
					h-2.2l7.4-13.3H672.7z M675.7,301.3c0,1.4-0.3,2.4-0.8,3.1s-1.3,1-2.4,1c-1,0-1.8-0.4-2.3-1.1s-0.8-1.7-0.8-3.1
					c0-2.8,1-4.1,3.1-4.1c1,0,1.8,0.4,2.4,1.1C675.4,299,675.7,300,675.7,301.3z M671.7,301.3c0,0.8,0.1,1.3,0.2,1.7
					s0.4,0.6,0.7,0.6c0.6,0,0.9-0.8,0.9-2.3s-0.3-2.3-0.9-2.3c-0.3,0-0.5,0.2-0.7,0.6S671.7,300.6,671.7,301.3z"/>
			</g>
		</g>
		<g>
			<g>
				<polyline class="st8" points="146.7,206 304.9,215 466.7,239.4 627.2,260.6 788.1,263.6 				"/>
				<circle class="st9" cx="146.7" cy="206" r="7.1"/>
				<circle class="st9" cx="304.9" cy="215" r="7.1"/>
				<circle class="st9" cx="466.7" cy="239.4" r="7.1"/>
				<circle class="st9" cx="627.2" cy="260.6" r="7.1"/>
				<circle class="st9" cx="788.1" cy="263.6" r="7.1"/>
			</g>
			<g>
				<path class="st3" d="M640.7,253.5h-2.8v-7.7v-1.3v-1.4c-0.5,0.5-0.8,0.8-1,0.9l-1.5,1.2l-1.4-1.7l4.3-3.4h2.3v13.4H640.7z"/>
				<path class="st3" d="M653.6,246.9c0,2.3-0.4,4-1.1,5.1s-1.9,1.7-3.5,1.7c-1.5,0-2.7-0.6-3.5-1.7c-0.8-1.1-1.2-2.8-1.2-5.1
					s0.4-4.1,1.1-5.2s1.9-1.7,3.5-1.7c1.5,0,2.7,0.6,3.5,1.7C653.2,242.9,653.6,244.6,653.6,246.9z M647.1,246.9
					c0,1.6,0.1,2.8,0.4,3.5c0.3,0.7,0.8,1.1,1.4,1.1c0.7,0,1.1-0.4,1.4-1.1c0.3-0.7,0.4-1.9,0.4-3.5s-0.1-2.8-0.4-3.5
					c-0.3-0.7-0.8-1.1-1.4-1.1c-0.7,0-1.1,0.4-1.4,1.1S647.1,245.2,647.1,246.9z"/>
				<path class="st3" d="M655.3,252.2c0-0.5,0.1-0.9,0.4-1.2c0.3-0.3,0.7-0.4,1.2-0.4s0.9,0.1,1.2,0.4c0.3,0.3,0.4,0.6,0.4,1.1
					s-0.1,0.9-0.4,1.1c-0.3,0.3-0.7,0.4-1.2,0.4s-0.9-0.1-1.2-0.4C655.5,253.1,655.3,252.7,655.3,252.2z"/>
				<path class="st3" d="M669,243.2c0,0.8-0.3,1.5-0.8,2.1s-1.2,1-2.1,1.2v0.1c1.1,0.1,1.9,0.5,2.4,1s0.8,1.2,0.8,2.1
					c0,1.3-0.5,2.3-1.4,3s-2.2,1.1-4,1.1c-1.4,0-2.7-0.2-3.8-0.7v-2.4c0.5,0.3,1.1,0.5,1.7,0.6s1.2,0.2,1.8,0.2c0.9,0,1.6-0.2,2-0.5
					s0.7-0.8,0.7-1.5c0-0.6-0.3-1.1-0.8-1.3s-1.3-0.4-2.4-0.4h-1v-2.1h1c1,0,1.8-0.1,2.3-0.4c0.5-0.3,0.7-0.7,0.7-1.4
					c0-1-0.6-1.5-1.9-1.5c-0.4,0-0.9,0.1-1.3,0.2c-0.5,0.1-1,0.4-1.5,0.8l-1.3-1.9c1.2-0.9,2.7-1.3,4.3-1.3c1.4,0,2.5,0.3,3.3,0.8
					C668.6,241.4,669,242.2,669,243.2z"/>
				<path class="st3" d="M677,244.2c0,1.4-0.3,2.4-0.8,3.1s-1.3,1-2.4,1c-1,0-1.8-0.4-2.3-1.1c-0.5-0.7-0.8-1.8-0.8-3.1
					c0-2.8,1-4.1,3.1-4.1c1,0,1.8,0.4,2.4,1.1S677,242.8,677,244.2z M673,244.2c0,0.8,0.1,1.3,0.2,1.7c0.1,0.4,0.4,0.6,0.7,0.6
					c0.6,0,0.9-0.8,0.9-2.3s-0.3-2.3-0.9-2.3c-0.3,0-0.5,0.2-0.7,0.6C673.1,242.9,673,243.4,673,244.2z M683.3,240.2l-7.4,13.3h-2.2
					l7.4-13.3H683.3z M686.3,249.5c0,1.4-0.3,2.4-0.8,3.1c-0.5,0.7-1.3,1-2.4,1c-1,0-1.8-0.4-2.3-1.1c-0.5-0.7-0.8-1.7-0.8-3.1
					c0-2.8,1-4.1,3.1-4.1c1,0,1.8,0.4,2.4,1.1C686,247.1,686.3,248.1,686.3,249.5z M682.3,249.5c0,0.8,0.1,1.3,0.2,1.7
					s0.4,0.6,0.7,0.6c0.6,0,0.9-0.8,0.9-2.3s-0.3-2.3-0.9-2.3c-0.3,0-0.5,0.2-0.7,0.6S682.3,248.7,682.3,249.5z"/>
			</g>
		</g>
		<g>
			<g>
				<polyline class="st10" points="146.7,215 304.9,209.6 466.7,224.1 627.2,217.8 788.1,242.3 				"/>
				<circle class="st11" cx="146.7" cy="215" r="7.1"/>
				<circle class="st11" cx="466.7" cy="224.1" r="7.1"/>
				<circle class="st11" cx="627.2" cy="217.8" r="7.1"/>
				<circle class="st11" cx="788.1" cy="242.3" r="7.1"/>
				<circle class="st11" cx="304.9" cy="209.6" r="7.1"/>
			</g>
			<g>
				<path class="st3" d="M640.7,211.2h-2.8v-7.7v-1.3v-1.4c-0.5,0.5-0.8,0.8-1,0.9l-1.5,1.2l-1.4-1.7l4.3-3.4h2.3v13.4H640.7z"/>
				<path class="st3" d="M651.3,211.2h-2.8v-7.7v-1.3v-1.4c-0.5,0.5-0.8,0.8-1,0.9l-1.5,1.2l-1.4-1.7l4.3-3.4h2.3v13.4H651.3z"/>
				<path class="st3" d="M655.3,209.9c0-0.5,0.1-0.9,0.4-1.2c0.3-0.3,0.7-0.4,1.2-0.4s0.9,0.1,1.2,0.4c0.3,0.3,0.4,0.6,0.4,1.1
					s-0.1,0.9-0.4,1.1c-0.3,0.3-0.7,0.4-1.2,0.4s-0.9-0.1-1.2-0.4C655.5,210.8,655.3,210.4,655.3,209.9z"/>
				<path class="st3" d="M660.2,205.6c0-2.6,0.6-4.6,1.7-5.9c1.1-1.3,2.8-1.9,5-1.9c0.8,0,1.3,0,1.8,0.1v2.2
					c-0.5-0.1-1.1-0.2-1.6-0.2c-1,0-1.7,0.1-2.4,0.4c-0.6,0.3-1.1,0.7-1.4,1.3c-0.3,0.6-0.5,1.4-0.5,2.4h0.1c0.6-1,1.6-1.5,2.9-1.5
					c1.2,0,2.1,0.4,2.8,1.1s1,1.8,1,3.1c0,1.4-0.4,2.5-1.2,3.4s-1.9,1.2-3.3,1.2c-1,0-1.8-0.2-2.6-0.7c-0.7-0.5-1.3-1.1-1.7-2
					C660.4,207.8,660.2,206.8,660.2,205.6z M665,209.1c0.6,0,1.1-0.2,1.4-0.6c0.3-0.4,0.5-1,0.5-1.7c0-0.6-0.1-1.2-0.4-1.5
					c-0.3-0.4-0.8-0.6-1.4-0.6c-0.6,0-1.1,0.2-1.5,0.6s-0.6,0.8-0.6,1.3c0,0.7,0.2,1.3,0.6,1.8S664.4,209.1,665,209.1z"/>
				<path class="st3" d="M677,201.9c0,1.4-0.3,2.4-0.8,3.1c-0.5,0.7-1.3,1-2.4,1c-1,0-1.8-0.4-2.3-1.1s-0.8-1.8-0.8-3.1
					c0-2.8,1-4.1,3.1-4.1c1,0,1.8,0.4,2.4,1.1S677,200.6,677,201.9z M673,201.9c0,0.8,0.1,1.3,0.2,1.7c0.1,0.4,0.4,0.6,0.7,0.6
					c0.6,0,0.9-0.8,0.9-2.3s-0.3-2.3-0.9-2.3c-0.3,0-0.5,0.2-0.7,0.6C673.1,200.6,673,201.1,673,201.9z M683.3,197.9l-7.4,13.3h-2.2
					l7.4-13.3H683.3z M686.3,207.2c0,1.4-0.3,2.4-0.8,3.1c-0.5,0.7-1.3,1-2.4,1c-1,0-1.8-0.4-2.3-1.1c-0.5-0.7-0.8-1.7-0.8-3.1
					c0-2.8,1-4.1,3.1-4.1c1,0,1.8,0.4,2.4,1.1C686,204.8,686.3,205.9,686.3,207.2z M682.3,207.2c0,0.8,0.1,1.3,0.2,1.7
					c0.1,0.4,0.4,0.6,0.7,0.6c0.6,0,0.9-0.8,0.9-2.3s-0.3-2.3-0.9-2.3c-0.3,0-0.5,0.2-0.7,0.6C682.4,205.9,682.3,206.4,682.3,207.2z
					"/>
			</g>
		</g>
		<g>
			<g>
				<polyline class="st12" points="146.7,126.7 304.9,109.6 466.7,68.1 627.2,48.1 788.1,35.5 				"/>
				<circle class="st13" cx="146.7" cy="126.7" r="7.1"/>
				<circle class="st13" cx="304.9" cy="109.6" r="7.1"/>
				<circle class="st13" cx="467.4" cy="66.3" r="7.1"/>
				<circle class="st13" cx="627.2" cy="48.1" r="7.1"/>
				<circle class="st13" cx="788.1" cy="35.5" r="7.1"/>
			</g>
			<g>
				<path class="st3" d="M642.5,26c0,0.8-0.3,1.5-0.8,2.1s-1.2,1-2.1,1.2v0.1c1.1,0.1,1.9,0.5,2.4,1s0.8,1.2,0.8,2.1
					c0,1.3-0.5,2.3-1.4,3s-2.2,1.1-4,1.1c-1.4,0-2.7-0.2-3.8-0.7v-2.4c0.5,0.3,1.1,0.5,1.7,0.6c0.6,0.2,1.2,0.2,1.8,0.2
					c0.9,0,1.6-0.2,2-0.5s0.7-0.8,0.7-1.5c0-0.6-0.3-1.1-0.8-1.3c-0.5-0.3-1.3-0.4-2.4-0.4h-1v-2.1h1c1,0,1.8-0.1,2.3-0.4
					s0.7-0.7,0.7-1.4c0-1-0.6-1.5-1.9-1.5c-0.4,0-0.9,0.1-1.3,0.2c-0.5,0.1-1,0.4-1.5,0.8l-1.3-1.9c1.2-0.9,2.7-1.3,4.3-1.3
					c1.4,0,2.5,0.3,3.3,0.8S642.5,25,642.5,26z"/>
				<path class="st3" d="M649,22.9c1.3,0,2.3,0.3,3.1,0.9s1.2,1.4,1.2,2.3c0,0.7-0.2,1.3-0.6,1.8c-0.4,0.5-1,1-1.8,1.4
					c1,0.5,1.7,1.1,2.1,1.7c0.4,0.6,0.6,1.2,0.6,1.9c0,1.1-0.4,2-1.3,2.6c-0.9,0.7-2,1-3.4,1c-1.5,0-2.6-0.3-3.4-0.9
					s-1.2-1.5-1.2-2.6c0-0.8,0.2-1.4,0.6-2s1-1.1,1.9-1.6c-0.8-0.5-1.3-1-1.6-1.5s-0.5-1.1-0.5-1.8c0-0.9,0.4-1.7,1.2-2.3
					S647.7,22.9,649,22.9z M646.9,32.8c0,0.5,0.2,0.9,0.5,1.2c0.4,0.3,0.9,0.4,1.5,0.4c0.7,0,1.2-0.1,1.6-0.4s0.5-0.7,0.5-1.2
					c0-0.4-0.2-0.8-0.5-1.1s-0.9-0.7-1.7-1.1C647.5,31.1,646.9,31.9,646.9,32.8z M648.9,24.9c-0.5,0-0.9,0.1-1.2,0.4
					c-0.3,0.2-0.4,0.6-0.4,1s0.1,0.7,0.3,1s0.7,0.6,1.3,0.9c0.6-0.3,1-0.6,1.2-0.9s0.4-0.6,0.4-1s-0.2-0.7-0.5-1
					C649.8,25,649.4,24.9,648.9,24.9z"/>
				<path class="st3" d="M655.3,35c0-0.5,0.1-0.9,0.4-1.2c0.3-0.3,0.7-0.4,1.2-0.4s0.9,0.1,1.2,0.4s0.4,0.6,0.4,1.1
					s-0.1,0.9-0.4,1.1c-0.3,0.3-0.7,0.4-1.2,0.4s-0.9-0.1-1.2-0.4C655.5,35.9,655.3,35.5,655.3,35z"/>
				<path class="st3" d="M669.9,33.6h-1.6v2.7h-2.7v-2.7h-5.7v-1.9l5.8-8.6h2.6v8.3h1.6L669.9,33.6L669.9,33.6z M665.5,31.4v-2.2
					c0-0.4,0-0.9,0-1.6s0.1-1.1,0.1-1.2h-0.1c-0.2,0.5-0.5,1-0.8,1.5l-2.4,3.7h3.2V31.4z"/>
				<path class="st3" d="M677,27c0,1.4-0.3,2.4-0.8,3.1s-1.3,1-2.4,1c-1,0-1.8-0.4-2.3-1.1s-0.8-1.8-0.8-3.1c0-2.8,1-4.1,3.1-4.1
					c1,0,1.8,0.4,2.4,1.1C676.8,24.7,677,25.7,677,27z M673,27c0,0.8,0.1,1.3,0.2,1.7c0.1,0.4,0.4,0.6,0.7,0.6
					c0.6,0,0.9-0.8,0.9-2.3s-0.3-2.3-0.9-2.3c-0.3,0-0.5,0.2-0.7,0.6C673.1,25.7,673,26.3,673,27z M683.3,23l-7.4,13.3h-2.2
					l7.4-13.3H683.3z M686.3,32.3c0,1.4-0.3,2.4-0.8,3.1c-0.5,0.7-1.3,1-2.4,1c-1,0-1.8-0.4-2.3-1.1c-0.5-0.7-0.8-1.7-0.8-3.1
					c0-2.8,1-4.1,3.1-4.1c1,0,1.8,0.4,2.4,1.1C686,29.9,686.3,31,686.3,32.3z M682.3,32.3c0,0.8,0.1,1.3,0.2,1.7
					c0.1,0.4,0.4,0.6,0.7,0.6c0.6,0,0.9-0.8,0.9-2.3s-0.3-2.3-0.9-2.3c-0.3,0-0.5,0.2-0.7,0.6C682.4,31,682.3,31.6,682.3,32.3z"/>
			</g>
		</g>
	</g>
</g>
<g class="st14">
	<g>
		<path class="st2" d="M66,298.6c-10.5,0-19-8.5-19-19s8.5-19,19-19s19,8.5,19,19S76.5,298.6,66,298.6z"/>
		<g>
			<path class="st15" d="M66,262.1c9.7,0,17.5,7.8,17.5,17.5s-7.8,17.5-17.5,17.5s-17.5-7.8-17.5-17.5S56.3,262.1,66,262.1
				 M66,259.1c-11.3,0-20.5,9.2-20.5,20.5s9.2,20.5,20.5,20.5s20.5-9.2,20.5-20.5S77.3,259.1,66,259.1L66,259.1z"/>
		</g>
	</g>
	<g>
		<path class="st15" d="M73.8,283.7c0,1.7-0.6,3-1.8,4c-1.2,1-2.9,1.6-5,1.8v3.2h-2.1v-3.1c-2.5-0.1-4.8-0.5-6.7-1.3v-4.1
			c0.9,0.4,2,0.8,3.3,1.2c1.3,0.3,2.4,0.5,3.4,0.6v-4.8l-1-0.4c-2.1-0.8-3.5-1.7-4.4-2.6s-1.3-2.1-1.3-3.5c0-1.5,0.6-2.7,1.8-3.7
			s2.8-1.6,4.9-1.8v-2.4H67v2.3c2.4,0.1,4.5,0.6,6.4,1.4l-1.5,3.6c-1.6-0.7-3.3-1.1-5-1.2v4.6c2,0.8,3.5,1.5,4.3,2
			c0.9,0.6,1.5,1.2,1.9,1.9C73.6,282,73.8,282.8,73.8,283.7z M62.9,274.5c0,0.5,0.2,0.8,0.5,1.1c0.3,0.3,0.8,0.6,1.5,0.9v-3.7
			C63.5,273,62.9,273.6,62.9,274.5z M69.1,283.9c0-0.4-0.2-0.8-0.5-1.1c-0.4-0.3-0.9-0.6-1.6-0.9v3.9
			C68.4,285.5,69.1,284.9,69.1,283.9z"/>
	</g>
</g>
<g class="st16">
	<g>
		<path class="st2" d="M192,78.2c-7.7,0-14-6.3-14-14s6.3-14,14-14s14,6.3,14,14S199.7,78.2,192,78.2z"/>
		<g>
			<path class="st15" d="M192,51.7c6.9,0,12.5,5.6,12.5,12.5s-5.6,12.5-12.5,12.5s-12.5-5.6-12.5-12.5S185.1,51.7,192,51.7
				 M192,48.7c-8.5,0-15.5,7-15.5,15.5s7,15.5,15.5,15.5s15.5-7,15.5-15.5S200.5,48.7,192,48.7L192,48.7z"/>
		</g>
	</g>
	<g>
		<path class="st15" d="M197.5,67.1c0,1.2-0.4,2.1-1.3,2.8c-0.9,0.7-2,1.1-3.6,1.3v2.3h-1.5v-2.2c-1.8,0-3.4-0.4-4.8-1v-2.9
			c0.6,0.3,1.4,0.6,2.3,0.8c0.9,0.2,1.7,0.4,2.4,0.4v-3.4l-0.7-0.3c-1.5-0.6-2.5-1.2-3.1-1.9s-0.9-1.5-0.9-2.5c0-1.1,0.4-2,1.3-2.7
			c0.8-0.7,2-1.1,3.5-1.3v-1.7h1.5v1.7c1.7,0.1,3.2,0.4,4.6,1l-1,2.6c-1.2-0.5-2.3-0.8-3.6-0.9v3.3c1.4,0.6,2.5,1,3.1,1.4
			c0.6,0.4,1.1,0.9,1.3,1.3C197.4,65.9,197.5,66.5,197.5,67.1z M189.7,60.5c0,0.3,0.1,0.6,0.3,0.8s0.6,0.4,1.1,0.7v-2.6
			C190.2,59.5,189.7,59.9,189.7,60.5z M194.2,67.3c0-0.3-0.1-0.6-0.4-0.8c-0.3-0.2-0.6-0.4-1.1-0.7v2.8
			C193.7,68.4,194.2,68,194.2,67.3z"/>
	</g>
</g>
<g class="st16">
	<g>
		<path class="st2" d="M485.8,147.8c-7.7,0-14-6.3-14-14s6.3-14,14-14s14,6.3,14,14S493.5,147.8,485.8,147.8z"/>
		<g>
			<path class="st15" d="M485.8,121.3c6.9,0,12.5,5.6,12.5,12.5c0,6.9-5.6,12.5-12.5,12.5s-12.5-5.6-12.5-12.5
				C473.3,126.9,478.9,121.3,485.8,121.3 M485.8,118.3c-8.5,0-15.5,7-15.5,15.5s7,15.5,15.5,15.5s15.5-7,15.5-15.5
				S494.3,118.3,485.8,118.3L485.8,118.3z"/>
		</g>
	</g>
	<g>
		<path class="st15" d="M491.4,136.7c0,1.2-0.4,2.1-1.3,2.8s-2,1.1-3.6,1.3v2.3H485v-2.2c-1.8,0-3.4-0.4-4.8-1V137
			c0.6,0.3,1.4,0.6,2.3,0.8s1.7,0.4,2.4,0.4v-3.4l-0.7-0.3c-1.5-0.6-2.5-1.2-3.1-1.9s-0.9-1.5-0.9-2.5c0-1.1,0.4-2,1.3-2.7
			c0.8-0.7,2-1.1,3.5-1.3v-1.7h1.5v1.7c1.7,0.1,3.2,0.4,4.6,1l-1,2.6c-1.2-0.5-2.3-0.8-3.6-0.9v3.3c1.4,0.6,2.5,1,3.1,1.4
			s1.1,0.9,1.3,1.3C491.2,135.5,491.4,136,491.4,136.7z M483.6,130.1c0,0.3,0.1,0.6,0.3,0.8c0.2,0.2,0.6,0.4,1.1,0.7V129
			C484,129.1,483.6,129.5,483.6,130.1z M488,136.9c0-0.3-0.1-0.6-0.4-0.8s-0.6-0.4-1.1-0.7v2.8C487.5,138,488,137.6,488,136.9z"/>
	</g>
</g>
<g class="st14">
	<g>
		<path class="st2" d="M977,190c-10.5,0-19-8.5-19-19s8.5-19,19-19s19,8.5,19,19S987.5,190,977,190z"/>
		<g>
			<path class="st15" d="M977,153.5c9.7,0,17.5,7.8,17.5,17.5c0,9.7-7.8,17.5-17.5,17.5s-17.5-7.8-17.5-17.5S967.3,153.5,977,153.5
				 M977,150.5c-11.3,0-20.5,9.2-20.5,20.5c0,11.3,9.2,20.5,20.5,20.5s20.5-9.2,20.5-20.5S988.3,150.5,977,150.5L977,150.5z"/>
		</g>
	</g>
	<g>
		<path class="st15" d="M984.8,175.1c0,1.7-0.6,3-1.8,4s-2.9,1.6-5,1.8v3.2h-2.1V181c-2.5-0.1-4.8-0.5-6.7-1.3v-4.1
			c0.9,0.4,2,0.8,3.3,1.2c1.3,0.3,2.4,0.5,3.4,0.6v-4.8l-1-0.4c-2.1-0.8-3.5-1.7-4.4-2.6c-0.9-0.9-1.3-2.1-1.3-3.5
			c0-1.5,0.6-2.7,1.8-3.7s2.8-1.6,4.9-1.8v-2.4h2.1v2.3c2.4,0.1,4.5,0.6,6.4,1.4l-1.5,3.6c-1.6-0.7-3.3-1.1-5-1.2v4.6
			c2,0.8,3.5,1.5,4.3,2c0.9,0.6,1.5,1.2,1.9,1.9C984.6,173.3,984.8,174.1,984.8,175.1z M973.8,165.8c0,0.5,0.2,0.8,0.5,1.1
			s0.8,0.6,1.5,0.9v-3.7C974.5,164.4,973.8,165,973.8,165.8z M980.1,175.3c0-0.4-0.2-0.8-0.5-1.1c-0.4-0.3-0.9-0.6-1.6-0.9v3.9
			C979.4,176.9,980.1,176.3,980.1,175.3z"/>
	</g>
</g>
</svg>
