<?xml version="1.0" encoding="utf-8"?>
<!-- Generator: Adobe Illustrator 21.0.2, SVG Export Plug-In . SVG Version: 6.00 Build 0)  -->
<svg version="1.1" id="Layer_1" xmlns:sketch="http://www.bohemiancoding.com/sketch/ns"
	 xmlns="http://www.w3.org/2000/svg" xmlns:xlink="http://www.w3.org/1999/xlink" x="0px" y="0px" viewBox="0 0 84 84"
	 style="enable-background:new 0 0 84 84;" xml:space="preserve">
<style type="text/css">
	.st0{fill:#EEEEEE;stroke:#FFFFFF;stroke-width:4;}
	.st1{fill:none;stroke:#F2EDED;}
	.st2{fill:#005EB8;}
</style>
<g id="Rectangle-290">
	<g sketch:type="MSShapeGroup">
		<path id="path-1" class="st0" d="M41,1h2c22.1,0,40,17.9,40,40v2c0,22.1-17.9,40-40,40h-2C18.9,83,1,65.1,1,43v-2
			C1,18.9,18.9,1,41,1z"/>
	</g>
	<g>
		<path id="path-1_1_" class="st1" d="M41,1h2c22.1,0,40,17.9,40,40v2c0,22.1-17.9,40-40,40h-2C18.9,83,1,65.1,1,43v-2
			C1,18.9,18.9,1,41,1z"/>
	</g>
</g>
<g>
	<path class="st2" d="M55.2,53.6H28.5c-0.3,0-0.5,0.2-0.5,0.5c0,2.2,1.8,4,3.9,4h20c2.1,0,3.8-1.8,3.8-3.9
		C55.8,53.9,55.5,53.6,55.2,53.6z"/>
	<path class="st2" d="M58.1,28.1c-2,0-3.6,1.6-3.6,3.6c0,1.2,0.6,2.3,1.5,2.9c-1,2.4-3.4,4.2-6.2,4.2c-3.7,0-6.7-3-6.7-6.7
		c0-0.5,0.1-0.9,0.1-1.3c1.3-0.5,2.2-1.8,2.2-3.3c0-2-1.6-3.6-3.6-3.6c-2,0-3.6,1.6-3.6,3.6c0,1.5,0.9,2.7,2.1,3.3
		c0.1,0.4,0.2,0.9,0.2,1.4c0,3.7-3,6.7-6.7,6.7c-2.8,0-5.1-1.7-6.1-4.1c1-0.6,1.7-1.8,1.7-3c0-2-1.6-3.6-3.6-3.6s-3.6,1.6-3.6,3.6
		s1.6,3.6,3.6,3.6c0,0,0.1,0,0.1,0L27.8,50h28.3L58,35.3c0.1,0,0.1,0,0.2,0c2,0,3.6-1.6,3.6-3.6S60.1,28.1,58.1,28.1z"/>
</g>
</svg>
