<svg xmlns="http://www.w3.org/2000/svg" width="18" height="15" viewBox="0 0 18 15">
    <g fill="#FFF">
        <path d="M5.017 8.794L1.713 5.011l3.304-3.783c.267-.306.236-.77-.07-1.038-.306-.267-.77-.235-1.038.07L.182 4.528c-.243.278-.243.691 0 .968l3.727 4.267c.146.167.35.252.555.252.171 0 .344-.06.483-.182.306-.267.338-.732.07-1.038z" transform="rotate(180 9 7.5)"/>
        <path d="M12.654 4.276H.736c-.407 0-.736.329-.736.735 0 .407.33.736.736.736h11.918c2.136 0 3.875 1.738 3.875 3.875 0 2.136-1.739 3.874-3.875 3.874H6.217c-.407 0-.736.33-.736.736 0 .406.33.736.736.736h6.437C15.6 14.968 18 12.569 18 9.622c0-2.948-2.398-5.346-5.346-5.346z" transform="rotate(180 9 7.5)"/>
    </g>
</svg>
