<svg xmlns="http://www.w3.org/2000/svg" width="170" height="54" viewBox="0 0 170 54">
    <path fill="#001E51" fill-rule="evenodd" d="M0 17.35l10.659 7.02-9.257 27.88L33.054 19.1v16.68L0 54V17.35zm0-2.43V0l31.86 17.55-10.732 7.828L0 14.92zm40.862 25.204V23.17h4.398c2.859 0 5.03.697 6.487 2.09 1.466 1.393 2.2 3.446 2.2 6.168 0 1.31-.209 2.502-.616 3.574a7.61 7.61 0 0 1-1.765 2.75c-.769.76-1.7 1.347-2.805 1.76-1.094.412-2.334.622-3.71.622h-4.189v-.009zm1.548-15.516v14.077h2.57c1.148 0 2.18-.155 3.085-.476a6.138 6.138 0 0 0 2.307-1.393c.633-.614 1.113-1.366 1.439-2.264.335-.898.497-1.934.497-3.098 0-4.573-2.388-6.855-7.157-6.855H42.41v.009zm17.3 17.716c-.47 1.182-1.004 2.062-1.61 2.63-.607.568-1.34.862-2.208.862-.426 0-.788-.055-1.086-.156v-1.42c.172.063.344.11.515.137.172.027.353.046.534.046.489 0 .914-.156 1.276-.468.362-.311.679-.779.941-1.411l1.04-2.484-4.596-12.052h1.656l3.42 9.587c.046.128.09.265.136.43.045.165.081.321.127.477h.054c.036-.137.072-.266.109-.412.036-.138.081-.294.144-.459l3.629-9.614h1.574L59.71 42.324zm14.785-2.2V33.15c0-2.731-.977-4.106-2.94-4.106-.526 0-1.005.1-1.449.311-.443.211-.823.495-1.149.871-.325.367-.579.807-.76 1.32a4.85 4.85 0 0 0-.271 1.65v6.928h-1.493V28.017h1.493v2.108h.045c.887-1.594 2.226-2.392 4-2.392 1.302 0 2.307.431 2.985 1.292.688.862 1.032 2.1 1.032 3.721v7.378h-1.493zm10.659 0V37.97h-.045c-.39.77-.923 1.375-1.593 1.797-.67.421-1.43.641-2.28.641a4.59 4.59 0 0 1-1.556-.247 3.294 3.294 0 0 1-1.177-.706 3.164 3.164 0 0 1-.75-1.09 3.73 3.73 0 0 1-.263-1.412c0-1.1.335-1.97 1.004-2.621.67-.65 1.683-1.072 3.031-1.274l3.629-.532c0-2.327-.887-3.491-2.67-3.491-1.393 0-2.687.513-3.872 1.549v-1.66c.253-.183.534-.348.85-.494.317-.147.652-.275.996-.376.353-.11.706-.192 1.076-.247a7.422 7.422 0 0 1 1.077-.092c1.33 0 2.335.376 3.013 1.136.679.761 1.023 1.888 1.023 3.382v7.873h-1.493v.018zm-3.077-5.875a9.66 9.66 0 0 0-1.375.294c-.38.119-.697.275-.941.476-.253.202-.434.45-.552.743-.118.293-.172.66-.172 1.09 0 .321.054.624.172.899.109.274.28.513.489.714.217.202.47.358.778.468.307.11.651.165 1.04.165.525 0 1.014-.101 1.457-.312a3.406 3.406 0 0 0 1.15-.852 3.93 3.93 0 0 0 .76-1.302 4.834 4.834 0 0 0 .27-1.64V33.8l-3.076.45zm21.97 5.875v-7.12c0-.725-.055-1.339-.163-1.843-.109-.504-.28-.907-.507-1.228a2.03 2.03 0 0 0-.878-.688c-.352-.137-.778-.21-1.266-.21-.435 0-.85.1-1.24.311-.389.211-.733.495-1.022.862a4.18 4.18 0 0 0-.688 1.292 4.88 4.88 0 0 0-.253 1.604v7.002h-1.493v-7.268c0-2.539-.96-3.803-2.887-3.803-.443 0-.86.1-1.24.302a3.13 3.13 0 0 0-.995.843c-.28.367-.506.798-.67 1.31-.162.505-.235 1.073-.235 1.687v6.938h-1.493V28.017h1.493v1.962h.046c.841-1.494 2.063-2.246 3.673-2.246.417 0 .815.064 1.195.193.37.128.705.311 1.004.54.299.23.552.514.77.834.216.321.37.679.488 1.064.416-.862.968-1.513 1.638-1.962.67-.449 1.43-.678 2.28-.678 2.624 0 3.936 1.64 3.936 4.922v7.47h-1.493v.008zm4.57-15.168c-.29 0-.535-.1-.752-.311a1.05 1.05 0 0 1-.317-.78c0-.311.109-.558.317-.76.208-.202.462-.303.751-.303.145 0 .29.028.416.074.136.055.245.128.344.22.1.091.172.21.235.339a1.109 1.109 0 0 1 .01.852 1.08 1.08 0 0 1-.58.577.934.934 0 0 1-.425.092zm-.743 15.168V28.017h1.493v12.107h-1.493zm11.998-.55c-.886.541-1.963.825-3.22.844-.86.009-1.63-.138-2.308-.45a5.144 5.144 0 0 1-1.756-1.283 5.841 5.841 0 0 1-1.113-1.943 7.502 7.502 0 0 1-.389-2.428c0-.908.136-1.76.408-2.557a6.093 6.093 0 0 1 1.194-2.09 5.644 5.644 0 0 1 1.918-1.411c.751-.349 1.62-.523 2.588-.523.986 0 1.891.193 2.705.578v1.603a4.936 4.936 0 0 0-2.823-.87c-.705 0-1.339.137-1.89.412a4.151 4.151 0 0 0-1.394 1.11 4.795 4.795 0 0 0-.86 1.64 6.527 6.527 0 0 0-.298 1.989c0 .65.081 1.264.253 1.86a4.68 4.68 0 0 0 .77 1.567c.343.45.786.816 1.311 1.082.525.265 1.15.403 1.864.403a4.9 4.9 0 0 0 3.031-1.017v1.484h.01zm1.113-1.631c.226.183.47.34.733.486.263.137.534.266.814.366.281.101.561.184.851.23.28.054.552.073.814.073 1.774 0 2.66-.678 2.66-2.026 0-.311-.063-.577-.19-.797a2.116 2.116 0 0 0-.533-.614 4.59 4.59 0 0 0-.842-.513c-.326-.156-.697-.321-1.113-.495a10.407 10.407 0 0 1-1.42-.697 4.142 4.142 0 0 1-.978-.779 2.907 2.907 0 0 1-.57-.925 3.215 3.215 0 0 1-.19-1.137c0-.531.118-1.017.344-1.43.226-.421.543-.77.932-1.063.39-.293.842-.513 1.348-.669a5.418 5.418 0 0 1 1.602-.229c1.031 0 1.936.202 2.705.587v1.594a5.184 5.184 0 0 0-2.895-.87c-.371 0-.715.045-1.023.137-.307.092-.57.23-.787.403a1.779 1.779 0 0 0-.688 1.42c0 .303.046.56.136.79.09.228.236.43.435.604.199.183.452.357.769.522.316.165.696.34 1.149.532.579.238 1.077.467 1.493.706.416.229.769.485 1.04.76.272.275.47.578.607.908.135.339.199.724.199 1.164 0 .54-.109 1.026-.335 1.457a3.17 3.17 0 0 1-.923 1.072 4.06 4.06 0 0 1-1.384.66 6.416 6.416 0 0 1-1.729.23c-1.203 0-2.225-.257-3.049-.77v-1.687h.018zm15.21 1.549v-2.576c1.086.871 2.317 1.311 3.692 1.311 1.113 0 2-.257 2.67-.77.669-.513.995-1.21.995-2.08 0-1.925-1.448-2.887-4.353-2.887h-1.302v-2.2h1.24c2.578 0 3.863-.907 3.863-2.722 0-1.668-1.005-2.502-3.013-2.502-1.122 0-2.172.403-3.167 1.22v-2.439c1.14-.65 2.479-.971 4.026-.971 1.484 0 2.679.376 3.574 1.136.896.76 1.34 1.723 1.34 2.906 0 2.227-1.122 3.666-3.366 4.307v.046c1.203.119 2.162.55 2.859 1.283.697.733 1.05 1.659 1.05 2.759 0 1.521-.562 2.75-1.693 3.684-1.13.935-2.615 1.402-4.46 1.402-1.647.01-2.968-.293-3.955-.907zm22.712-4.82c0 .851-.136 1.63-.416 2.327-.281.706-.661 1.31-1.15 1.815a5.189 5.189 0 0 1-1.746 1.182 5.557 5.557 0 0 1-2.19.422c-.841 0-1.61-.165-2.316-.495a4.95 4.95 0 0 1-1.819-1.476c-.506-.65-.905-1.466-1.185-2.438-.28-.971-.416-2.099-.416-3.39 0-1.568.18-2.961.552-4.17.37-1.21.877-2.228 1.52-3.053a6.569 6.569 0 0 1 2.28-1.87 6.386 6.386 0 0 1 2.823-.641c.633 0 1.203.046 1.72.128.515.083.931.202 1.239.358v2.474a8.877 8.877 0 0 0-1.276-.522 5.336 5.336 0 0 0-1.556-.211c-.652 0-1.258.137-1.81.403a4 4 0 0 0-1.43 1.173c-.398.514-.714 1.155-.94 1.916-.227.76-.353 1.64-.353 2.63h.072a3.78 3.78 0 0 1 1.457-1.32c.615-.32 1.33-.485 2.153-.485.733 0 1.394.119 1.982.357a4.055 4.055 0 0 1 1.502 1.045c.416.449.733 1.008.959 1.659.235.641.344 1.365.344 2.181zm-2.733.228c0-.486-.054-.935-.172-1.338a2.776 2.776 0 0 0-.516-1.036 2.312 2.312 0 0 0-.86-.669c-.343-.155-.75-.238-1.22-.238-.471 0-.878.083-1.231.257a2.885 2.885 0 0 0-.896.669 2.728 2.728 0 0 0-.543.944 3.402 3.402 0 0 0-.18 1.09c0 .404.053.816.171 1.238.109.421.29.806.516 1.154.226.349.534.633.896.862.362.23.787.34 1.294.34.443 0 .832-.083 1.176-.248.344-.165.624-.394.86-.688a3.09 3.09 0 0 0 .524-1.035 4.39 4.39 0 0 0 .181-1.302zm3.936 4.83v-2.64c1.095.752 2.208 1.128 3.339 1.128 1.14 0 2.054-.293 2.742-.88.696-.586 1.04-1.365 1.04-2.346 0-.962-.353-1.714-1.058-2.246-.706-.531-1.71-.806-3.032-.806-.452 0-1.366.046-2.741.137l.597-8.917h8.243v2.337h-5.99l-.28 4.243a29.005 29.005 0 0 1 1.456-.045c1.774 0 3.149.458 4.117 1.383.968.926 1.457 2.182 1.457 3.786 0 1.677-.552 3.024-1.665 4.041-1.113 1.018-2.633 1.522-4.57 1.522-1.637 0-2.859-.23-3.655-.697zM49.17 20.905v-6.241c0-.32.027-.834.072-1.549h-.027a5.238 5.238 0 0 1-.163.495c-.045.137-.09.257-.136.34l-3.112 6.955h-.353l-3.122-6.91a6.505 6.505 0 0 1-.28-.89h-.028c.019.193.028.413.037.66.009.248.009.523.009.826v6.314h-.806V11.86h.978l3.03 6.8c.064.148.127.294.182.44.063.147.117.312.163.477h.036a8.55 8.55 0 0 1 .163-.458 5.23 5.23 0 0 1 .18-.449l3.059-6.8h.932v9.045h-.814v-.009zm2.714-8.092a.543.543 0 0 1-.398-.165.57.57 0 0 1-.172-.413c0-.165.054-.302.172-.403a.543.543 0 0 1 .398-.165c.082 0 .154.01.226.037a.42.42 0 0 1 .181.119.547.547 0 0 1 .172.412.645.645 0 0 1-.045.23.443.443 0 0 1-.127.183.565.565 0 0 1-.18.119.478.478 0 0 1-.227.046zm-.398 8.092v-6.461h.796v6.461h-.796zm6.406-.293c-.47.293-1.05.44-1.719.45-.452 0-.869-.074-1.23-.24a2.697 2.697 0 0 1-.933-.687 3.047 3.047 0 0 1-.588-1.035 3.945 3.945 0 0 1-.208-1.292c0-.486.073-.935.217-1.366.145-.43.353-.797.634-1.118.28-.32.615-.568 1.022-.752.398-.183.86-.275 1.385-.275.524 0 1.004.101 1.447.312v.861a2.652 2.652 0 0 0-1.51-.467c-.38 0-.716.073-1.005.22-.299.147-.543.34-.742.596-.2.247-.353.54-.462.88-.108.33-.162.687-.162 1.063 0 .348.045.678.135.99.09.311.227.595.408.834.18.238.416.43.696.577.28.147.616.21.996.21.597 0 1.14-.183 1.62-.54v.779zm3.927-5.334c-.19-.137-.425-.21-.724-.21a1.232 1.232 0 0 0-.986.448 1.768 1.768 0 0 0-.308.486 4.267 4.267 0 0 0-.208.568 3.44 3.44 0 0 0-.108.596 4.302 4.302 0 0 0-.036.577v3.162h-.788v-6.461h.788v1.384h.027c.072-.238.172-.45.28-.632a2.05 2.05 0 0 1 .398-.477c.154-.128.317-.23.489-.293.172-.064.362-.101.56-.101.128 0 .245.009.345.027.1.019.19.046.28.074v.852h-.009zm3.086 5.783c-.47 0-.896-.082-1.276-.238a2.587 2.587 0 0 1-.96-.678 2.942 2.942 0 0 1-.606-1.054c-.144-.404-.208-.862-.208-1.357 0-.54.073-1.017.227-1.448.153-.421.362-.788.642-1.081.271-.294.606-.523.995-.679.39-.155.824-.229 1.303-.229.462 0 .878.074 1.249.23.37.155.679.375.941.669.253.293.452.641.588 1.063.136.412.208.889.208 1.42 0 .504-.072.963-.217 1.375-.145.412-.344.77-.615 1.072a2.664 2.664 0 0 1-.968.697c-.39.156-.824.238-1.303.238zm.063-6.067c-.353 0-.66.064-.95.183a1.99 1.99 0 0 0-.724.532c-.199.229-.353.522-.461.861-.109.34-.163.724-.163 1.155 0 .403.054.77.163 1.09.108.321.262.606.461.835.2.229.434.412.715.531.28.129.597.184.95.184s.67-.065.95-.184c.271-.119.507-.293.697-.522.19-.23.335-.513.434-.843.1-.33.145-.715.145-1.137 0-.87-.19-1.54-.57-1.998-.39-.458-.941-.687-1.647-.687zm3.583 4.747c.118.101.253.184.39.257.144.073.289.137.434.192.153.055.298.092.452.12.154.027.299.036.434.036.95 0 1.42-.357 1.42-1.081a.878.878 0 0 0-.099-.422 1.085 1.085 0 0 0-.29-.33 2.133 2.133 0 0 0-.452-.275 13.473 13.473 0 0 0-.588-.265 4.946 4.946 0 0 1-.76-.376 2.516 2.516 0 0 1-.525-.413 1.561 1.561 0 0 1-.307-.495 1.801 1.801 0 0 1-.1-.604c0-.285.064-.541.181-.761.127-.22.29-.413.498-.568.208-.156.443-.275.715-.358.271-.082.56-.119.86-.119.551 0 1.03.1 1.447.312v.852a2.788 2.788 0 0 0-1.547-.467c-.2 0-.38.027-.543.073-.163.055-.308.119-.416.21a.945.945 0 0 0-.371.752c0 .156.027.303.072.422a.89.89 0 0 0 .235.32c.109.101.245.193.407.276.172.091.371.183.616.284.307.128.57.247.796.375.226.129.407.257.552.404.145.146.253.302.326.485.072.175.108.385.108.624 0 .293-.063.55-.18.779a1.66 1.66 0 0 1-.49.577 2.246 2.246 0 0 1-.741.357c-.28.083-.588.12-.923.12-.643 0-1.186-.138-1.629-.413v-.88h.018zm7.528 1.32c-.47 0-.895-.082-1.275-.238a2.587 2.587 0 0 1-.96-.678 2.942 2.942 0 0 1-.606-1.054c-.145-.404-.208-.862-.208-1.357 0-.54.072-1.017.226-1.448.154-.421.362-.788.643-1.081.271-.294.606-.523.995-.679.39-.155.823-.229 1.303-.229.461 0 .878.074 1.249.23.37.155.678.375.94.669.254.293.453.641.589 1.063.136.412.208.889.208 1.42 0 .504-.072.963-.217 1.375-.145.412-.344.77-.616 1.072a2.664 2.664 0 0 1-.968.697c-.389.156-.823.238-1.303.238zm.064-6.067c-.353 0-.66.064-.95.183a1.99 1.99 0 0 0-.724.532c-.2.229-.353.522-.462.861-.108.34-.163.724-.163 1.155 0 .403.055.77.163 1.09.109.321.263.606.462.835.199.229.434.412.715.531.28.129.597.184.95.184s.67-.065.95-.184c.271-.119.506-.293.696-.522.19-.23.335-.513.435-.843.1-.33.145-.715.145-1.137 0-.87-.19-1.54-.57-1.998-.399-.458-.942-.687-1.647-.687zm6.831-2.887c-.18-.12-.407-.174-.687-.174-.752 0-1.122.495-1.122 1.485v1.035h1.583v.706h-1.583v5.755h-.797V15.16h-1.113v-.706h1.113v-1.081c0-.321.036-.614.118-.88.081-.266.199-.486.362-.678a1.53 1.53 0 0 1 .597-.431c.235-.1.516-.156.823-.156.299 0 .534.037.706.12v.76zm3.484 8.725c-.272.137-.57.21-.896.21-1.032 0-1.547-.604-1.547-1.805V15.16h-1.122v-.706h1.122v-1.631l.796-.266v1.888h1.647v.706H84.81v3.95c0 .44.072.751.208.944.145.192.38.293.715.293.253 0 .489-.073.715-.23v.725h.009z"/>
</svg>
