<svg id="Layer_1" data-name="Layer 1" xmlns="http://www.w3.org/2000/svg" viewBox="0 0 169.91 48"><defs><style>.cls-1{fill:#036c70;}.cls-2{fill:#1a9ba1;}.cls-3{fill:#37c6d0;}.cls-4{opacity:0.1;}.cls-4,.cls-5{isolation:isolate;}.cls-5{opacity:0.2;}.cls-6{fill:#03787c;}.cls-7{fill:#fff;}.cls-8{fill:#04777e;}</style></defs><title>sharepoint-logo</title><g id="STYLE_COLOR" data-name="STYLE COLOR"><circle class="cls-1" cx="22.5" cy="14.25" r="14.25"/><circle class="cls-2" cx="35.81" cy="26.81" r="12.19"/><circle class="cls-3" cx="24" cy="38.25" r="9.75"/><path class="cls-4" d="M25.09,10.36H8.84a14.26,14.26,0,0,0,13.75,18c.42,0,.83,0,1.23-.05v.06a9.75,9.75,0,0,0-9.49,9.75q0,.38,0,.75H25.09a2,2,0,0,0,2-2V12.36A2,2,0,0,0,25.09,10.36Z" transform="translate(-0.09 0.14)"/><path class="cls-5" d="M23.59,11.86H8.52a14.26,14.26,0,0,0,14.07,16.5c.42,0,.83,0,1.23-.05v.06a9.76,9.76,0,0,0-9.23,12h9a2,2,0,0,0,2-2V13.86A2,2,0,0,0,23.59,11.86Z" transform="translate(-0.09 0.14)"/><path class="cls-5" d="M23.59,11.86H8.52a14.26,14.26,0,0,0,14.07,16.5c.42,0,.83,0,1.23-.05v.06a9.75,9.75,0,0,0-9.46,9h9.22a2,2,0,0,0,2-2V13.86A2,2,0,0,0,23.59,11.86Z" transform="translate(-0.09 0.14)"/><path class="cls-5" d="M22.09,11.86H8.52a14.26,14.26,0,0,0,14.07,16.5c.42,0,.83,0,1.23-.05v.06a9.75,9.75,0,0,0-9.46,9h7.72a2,2,0,0,0,2-2V13.86A2,2,0,0,0,22.09,11.86Z" transform="translate(-0.09 0.14)"/><path id="Back_Plate" data-name="Back Plate" class="cls-6" d="M2.09,11.86h20a2,2,0,0,1,2,2v20a2,2,0,0,1-2,2h-20a2,2,0,0,1-2-2v-20a2,2,0,0,1,2-2Z" transform="translate(-0.09 0.14)"/><path class="cls-7" d="M8.6,23.59a4,4,0,0,1-1.23-1.3,3.54,3.54,0,0,1-.43-1.79,3.44,3.44,0,0,1,.8-2.31,4.71,4.71,0,0,1,2.12-1.39,9,9,0,0,1,2.9-.45,11,11,0,0,1,3.82.54v2.7a6,6,0,0,0-1.73-.71,8.39,8.39,0,0,0-2-.24,4.39,4.39,0,0,0-2.08.44,1.37,1.37,0,0,0-.82,1.25,1.27,1.27,0,0,0,.35.89,3.18,3.18,0,0,0,.94.67q.59.29,1.77.78l.25.1a14.55,14.55,0,0,1,2.23,1.1,4,4,0,0,1,1.31,1.32,3.84,3.84,0,0,1,.48,2,3.72,3.72,0,0,1-.75,2.41,4.18,4.18,0,0,1-2,1.35,9.07,9.07,0,0,1-2.85.41,15,15,0,0,1-2.58-.21A8.87,8.87,0,0,1,7,30.54V27.69a6.75,6.75,0,0,0,2.12,1,8.27,8.27,0,0,0,2.34.37,4,4,0,0,0,2.12-.45,1.42,1.42,0,0,0,.71-1.27,1.36,1.36,0,0,0-.4-1,4.06,4.06,0,0,0-1.1-.77q-.7-.35-2.08-.93A11.79,11.79,0,0,1,8.6,23.59Z" transform="translate(-0.09 0.14)"/></g><path class="cls-8" d="M58.09,33.3V30.5a4.32,4.32,0,0,0,.9.62,6.85,6.85,0,0,0,1.1.46,8.59,8.59,0,0,0,1.17.29,6.19,6.19,0,0,0,1.07.1,4.58,4.58,0,0,0,2.55-.57,1.88,1.88,0,0,0,.84-1.66,1.8,1.8,0,0,0-.28-1,2.93,2.93,0,0,0-.78-.78,8.23,8.23,0,0,0-1.18-.68L62,26.59q-.83-.45-1.55-.9a6.67,6.67,0,0,1-1.25-1,4.23,4.23,0,0,1-.83-1.25,4.08,4.08,0,0,1-.3-1.63,3.77,3.77,0,0,1,.52-2A4.39,4.39,0,0,1,60,18.38a6.29,6.29,0,0,1,1.94-.82,9.2,9.2,0,0,1,2.22-.27,9,9,0,0,1,3.75.58v2.68a6,6,0,0,0-3.59-1,6.42,6.42,0,0,0-1.21.11A3.59,3.59,0,0,0,62,20a2.32,2.32,0,0,0-.77.67,1.65,1.65,0,0,0-.3,1,1.88,1.88,0,0,0,.23.95,2.45,2.45,0,0,0,.67.73A6.89,6.89,0,0,0,62.9,24q.63.31,1.47.68t1.62.94a7.65,7.65,0,0,1,1.34,1.09,4.78,4.78,0,0,1,.91,1.32,3.88,3.88,0,0,1,.34,1.65,3.88,3.88,0,0,1-1.86,3.5,6,6,0,0,1-2,.78,11.09,11.09,0,0,1-2.34.24,10,10,0,0,1-1-.06q-.6-.06-1.23-.18A11.12,11.12,0,0,1,59,33.69,3.75,3.75,0,0,1,58.09,33.3Z" transform="translate(-0.09 0.14)"/><path class="cls-8" d="M81.43,33.95H78.78v-6.4q0-3.47-2.32-3.47a2.42,2.42,0,0,0-2,1,4,4,0,0,0-.8,2.57v6.29H71V16.63H73.7v7.56h0A4.18,4.18,0,0,1,77.53,22q3.9,0,3.9,4.76Z" transform="translate(-0.09 0.14)"/><path class="cls-8" d="M93.54,33.95H91V32.12h0a3.87,3.87,0,0,1-3.55,2.1,3.74,3.74,0,0,1-2.7-.94,3.28,3.28,0,0,1-1-2.48q0-3.31,3.82-3.86L91,26.46Q91,24,88.6,24a5.64,5.64,0,0,0-3.77,1.44V23.07A8.22,8.22,0,0,1,89.1,22q4.43,0,4.43,4.36ZM91,28.2l-2.46.34a3.88,3.88,0,0,0-1.72.55,1.62,1.62,0,0,0-.58,1.42,1.55,1.55,0,0,0,.53,1.22,2.06,2.06,0,0,0,1.42.47,2.62,2.62,0,0,0,2-.85A3,3,0,0,0,91,29.22Z" transform="translate(-0.09 0.14)"/><path class="cls-8" d="M103.38,24.78A2.2,2.2,0,0,0,102,24.4a2.37,2.37,0,0,0-2,1.06,4.75,4.75,0,0,0-.79,2.89v5.6H96.59V22.25h2.65v2.41h0a4.07,4.07,0,0,1,1.19-1.92,2.69,2.69,0,0,1,1.8-.69,2.23,2.23,0,0,1,1.1.22Z" transform="translate(-0.09 0.14)"/><path class="cls-8" d="M115.15,28.82h-8a3.36,3.36,0,0,0,1,2.5,3.72,3.72,0,0,0,2.62.88,5.79,5.79,0,0,0,3.44-1.12v2.14a7.86,7.86,0,0,1-4.23,1,5.23,5.23,0,0,1-4-1.59,6.37,6.37,0,0,1-1.47-4.48,6.23,6.23,0,0,1,1.62-4.45,5.28,5.28,0,0,1,4-1.72,4.61,4.61,0,0,1,3.71,1.54,6.4,6.4,0,0,1,1.31,4.28Zm-2.56-1.87a3.42,3.42,0,0,0-.67-2.22,2.25,2.25,0,0,0-1.83-.79,2.57,2.57,0,0,0-1.94.83,3.81,3.81,0,0,0-1,2.18Z" transform="translate(-0.09 0.14)"/><path class="cls-8" d="M120.59,28v5.94h-2.71V17.57h5a6.58,6.58,0,0,1,4.37,1.31,4.58,4.58,0,0,1,1.55,3.7,5.12,5.12,0,0,1-1.62,3.91A6.16,6.16,0,0,1,122.77,28Zm0-8.2v6h1.76A3.89,3.89,0,0,0,125,25a2.89,2.89,0,0,0,.91-2.28q0-2.89-3.36-2.89Z" transform="translate(-0.09 0.14)"/><path class="cls-8" d="M136,34.22a5.8,5.8,0,0,1-4.32-1.64A5.92,5.92,0,0,1,130,28.24a6.17,6.17,0,0,1,1.68-4.6A6.2,6.2,0,0,1,136.26,22a5.61,5.61,0,0,1,4.27,1.61,6.22,6.22,0,0,1,1.53,4.47,6.13,6.13,0,0,1-1.65,4.48A5.93,5.93,0,0,1,136,34.22Zm.13-10.13a3,3,0,0,0-2.46,1.09,4.54,4.54,0,0,0-.9,3,4.28,4.28,0,0,0,.91,2.9,3.07,3.07,0,0,0,2.45,1.06,2.91,2.91,0,0,0,2.4-1,4.6,4.6,0,0,0,.84-3,4.67,4.67,0,0,0-.84-3A2.9,2.9,0,0,0,136.11,24.09Z" transform="translate(-0.09 0.14)"/><path class="cls-8" d="M145.9,19.8a1.59,1.59,0,0,1-1.11-.42,1.39,1.39,0,0,1-.46-1.07,1.43,1.43,0,0,1,.46-1.09,1.57,1.57,0,0,1,1.11-.43,1.62,1.62,0,0,1,1.14.43,1.42,1.42,0,0,1,.47,1.09,1.4,1.4,0,0,1-.47,1.06A1.6,1.6,0,0,1,145.9,19.8Zm1.31,14.15h-2.65V22.25h2.65Z" transform="translate(-0.09 0.14)"/><path class="cls-8" d="M160.85,33.95H158.2V27.36q0-3.28-2.32-3.28a2.53,2.53,0,0,0-2,.91,3.37,3.37,0,0,0-.79,2.29v6.67h-2.66V22.25h2.66v1.94h0A4.17,4.17,0,0,1,156.93,22a3.53,3.53,0,0,1,2.91,1.24,5.57,5.57,0,0,1,1,3.58Z" transform="translate(-0.09 0.14)"/><path class="cls-8" d="M170,33.82a4.59,4.59,0,0,1-2,.39q-3.4,0-3.4-3.27V24.33h-2V22.25h2V19.54l2.65-.75v3.46H170v2.08h-2.8v5.85a2.3,2.3,0,0,0,.38,1.49,1.56,1.56,0,0,0,1.26.45,1.82,1.82,0,0,0,1.17-.39Z" transform="translate(-0.09 0.14)"/></svg>