<?xml version="1.0" encoding="utf-8"?>
<!-- Generator: Adobe Illustrator 21.1.0, SVG Export Plug-In . SVG Version: 6.00 Build 0)  -->
<svg version="1.1" xmlns="http://www.w3.org/2000/svg" xmlns:xlink="http://www.w3.org/1999/xlink" x="0px" y="0px"
	 viewBox="0 0 835 280" style="enable-background:new 0 0 835 280;" xml:space="preserve">
<style type="text/css">
	.st0{fill:#E2EFF7;stroke:#E2EFF7;stroke-width:2;stroke-linecap:round;stroke-linejoin:round;stroke-miterlimit:10;}
	.st1{fill:#707372;}
	.st2{fill:#C7C9C7;}
	.st3{fill:url(#SVGID_1_);}
	.st4{fill:#21333A;}
	.st5{fill:#FFFFFF;}
	.st6{fill:#D1E7F5;}
	.st7{fill:#BDDDF4;}
	.st8{fill:#70BEF2;}
	.st9{fill:#FCFCFD;}
	.st10{fill-rule:evenodd;clip-rule:evenodd;fill:#21333A;}
	.st11{fill-rule:evenodd;clip-rule:evenodd;fill:#D1E7F5;}
	.st12{fill-rule:evenodd;clip-rule:evenodd;fill:#C7C9C7;}
	.st13{fill-rule:evenodd;clip-rule:evenodd;fill:#707372;}
	.st14{fill:#FBB040;}
	.st15{fill:#FF9D83;}
	.st16{fill:#ED8B00;}
	.st17{fill:#FF8564;}
	.st18{fill:#71BE72;}
	.st19{fill:#48A23F;}
	.st20{fill:#E6B28B;}
	.st21{fill:#EFC2A6;}
	.st22{fill:none;stroke:#FF8564;stroke-width:3.5;stroke-miterlimit:10;}
</style>
<g id="design">
</g>
<g id="color_palette">
	<g>
		<path class="st0" d="M326.3,242.9c-2.1-1.9-3.9-2.9-6.3-2.9c-2.8,0-4.3,1.1-4.3,3.7c0,5.5,15.3,5,15.3,16.1c0,5.6-3.1,9.9-9,11.1
			v6h-5.6v-5.8c-3.4-0.4-7.5-1.9-10.2-4.4l3.7-5.7c3,2.2,5.5,3.4,8.3,3.4c3.2,0,4.7-1.3,4.7-4c0-6-15.3-5.9-15.3-16.3
			c0-5.7,3.4-9.6,8.8-10.7v-6h5.6v5.9c3.7,0.5,6.4,2.4,8.6,4.7L326.3,242.9z"/>
	</g>
	<polygon class="st0" points="457.1,250.6 471.4,236 471.4,243 519.5,243 519.5,258.3 471.4,258.3 471.4,265.3 	"/>
	<g>
		<path class="st0" d="M610.2,27.4c-3-2.8-5.7-4.2-9.2-4.2c-4,0-6.2,1.6-6.2,5.4c0,8,22.3,7.3,22.3,23.4c0,8.1-4.5,14.3-13.2,16.2
			V77h-8.2v-8.4c-5-0.6-10.9-2.8-14.8-6.4l5.4-8.3c4.3,3.2,8,4.9,12.1,4.9c4.7,0,6.8-1.9,6.8-5.8c0-8.7-22.3-8.5-22.3-23.7
			c0-8.3,4.9-14,12.8-15.6V4.9h8.2v8.5c5.4,0.7,9.3,3.5,12.6,6.9L610.2,27.4z"/>
	</g>
	<g>
		<path class="st0" d="M827.3,191.9c-2.1-1.9-3.9-2.9-6.3-2.9c-2.8,0-4.3,1.1-4.3,3.7c0,5.5,15.3,5,15.3,16.1c0,5.6-3.1,9.9-9,11.1
			v6h-5.6v-5.8c-3.4-0.4-7.5-1.9-10.2-4.4l3.7-5.7c3,2.2,5.5,3.4,8.3,3.4c3.2,0,4.7-1.3,4.7-4c0-6-15.3-5.9-15.3-16.3
			c0-5.7,3.4-9.6,8.8-10.7v-6h5.6v5.9c3.7,0.5,6.4,2.4,8.6,4.7L827.3,191.9z"/>
	</g>
	<g>
		<path class="st0" d="M252.5,19.7c-2.8-2.5-6.2-5.8-7.7-7.9c-1.6-2.3-1.9-3.6-2.8-5.8c-0.6-1.6-3.4-1.3-4.3,1.2
			c-1.1,3-0.7,10.9,4.5,15.1c-9.3-1.3-18.3,0-18.3,0c-2.2,0.3-3.4,1.9-3.4,3.8c0,1.9,1.1,3.2,3.4,3.4h2.5v0.3h-5.4
			c-1.9,0-3.4,1.9-3.4,3.8c0,1.9,1.5,3.8,3.4,3.8h5.4v0.3h-2.5c-1.9,0-3.4,1.9-3.4,3.8c0,1.9,1.5,3.8,3.4,3.8h2.5v0.3l0,0
			c-1.9,0-2.7,1.9-2.7,3.8s1.5,3.4,3.4,3.4c1.4,0,12.1,0.9,20.4-0.3c5.4-0.8,10.8-3.7,12.5-5.3c0.7-0.6,1-1.5,1-2.4V28.3
			C260.5,25.4,255,22,252.5,19.7z"/>
	</g>
	<g>
		<path class="st0" d="M599.1,158.3v16.7c0,0.9,0.4,1.7,1,2.4c1.7,1.6,7.1,4.5,12.5,5.3c8.3,1.2,19,0.3,20.4,0.3
			c1.9,0,3.4-1.5,3.4-3.4s-0.8-3.8-2.7-3.8l0,0v-0.3h2.5c1.9,0,3.4-1.9,3.4-3.8s-1.5-3.8-3.4-3.8h-2.5v-0.3h5.4
			c1.9,0,3.4-1.9,3.4-3.8s-1.5-3.8-3.4-3.8h-5.4v-0.3h2.5c2.4-0.2,3.4-1.5,3.4-3.4c0-1.9-1.2-3.5-3.4-3.8c0,0-9.1-1.3-18.3,0
			c5.2-4.2,5.6-12.1,4.5-15.1c-0.9-2.5-3.7-2.8-4.3-1.2c-0.9,2.1-1.1,3.4-2.8,5.8c-1.5,2.1-5,5.4-7.7,7.9
			C605.1,152.1,599.5,155.5,599.1,158.3z"/>
	</g>
	<g>
		<g>
			<g>
				<g>
					<g>
						<path class="st1" d="M227.5,234.2c0,0-2.5,4.7,15.3,8.6h373.7c0,0,12.5-0.8,15.8-6.7l0-3.2L227.5,234.2z"/>
						<path class="st2" d="M227.6,224.7h404.9v10.4c0,0,0.6,1.4-4.2,1H231.4c0,0-3.7,1-4.1-1.4L227.6,224.7z"/>
						<path class="st1" d="M613.7,230.8c0,0.4-0.3,0.7-0.6,0.7h-13.8c-0.3,0-0.6-0.3-0.6-0.7l0,0c0-0.4,0.3-0.7,0.6-0.7h13.8
							C613.4,230.1,613.7,230.4,613.7,230.8L613.7,230.8z"/>
					</g>
					<path class="st1" d="M402.5,224.8c0,0-1.6,5.2,3.6,5.7h47c0,0,5,0.6,4.3-5.5L402.5,224.8z"/>
					<g>
						<linearGradient id="SVGID_1_" gradientUnits="userSpaceOnUse" x1="457.2049" y1="225.0975" x2="457.2049" y2="224.975">
							<stop  offset="2.439020e-02" style="stop-color:#5F6767"/>
							<stop  offset="0.4756" style="stop-color:#676B6C"/>
							<stop  offset="0.5137" style="stop-color:#717576"/>
							<stop  offset="0.6192" style="stop-color:#878A8B"/>
							<stop  offset="0.7202" style="stop-color:#949899"/>
							<stop  offset="0.811" style="stop-color:#999C9D"/>
						</linearGradient>
						<path class="st3" d="M457.2,225.1V225h0C457.2,225,457.2,225.1,457.2,225.1z"/>
					</g>
				</g>
			</g>
			<path class="st4" d="M592.6,224.7V40.1c0-8.4-6.9-15.2-15.2-15.2H282.4c-8.4,0-15.2,6.9-15.2,15.2v184.5H592.6z"/>
			<rect x="277.6" y="36.3" class="st5" width="304.6" height="177"/>
		</g>
		<g>
			<g>
				<path class="st6" d="M382,197"/>
				<rect x="343.6" y="85.5" class="st7" width="30.4" height="97.5"/>
				<path class="st6" d="M453.5,197"/>
				<rect x="415" y="85.5" class="st7" width="30.4" height="97.5"/>
				<path class="st6" d="M524.8,197"/>
				<rect x="486.4" y="85.5" class="st7" width="30.4" height="97.5"/>
				<path class="st6" d="M335.5,81.4v6.9c0,4.7,3.8,8.5,8.5,8.5h29.5c4.7,0,8.5-3.8,8.5-8.5v-6.9H335.5z M335.5,81.4"/>
				<path class="st6" d="M407,81.4v6.9c0,4.7,3.8,8.5,8.5,8.5h29.7c4.7,0,8.5-3.8,8.5-8.5v-6.9H407z M407,81.4"/>
				<path class="st6" d="M478.3,81.4v6.9c0,4.7,3.8,8.5,8.5,8.5h29.7c4.7,0,8.5-3.8,8.5-8.5v-6.9H478.3z M478.3,81.4"/>
				<polygon class="st8" points="557.4,70 429.9,4.4 302.4,70 302.1,70 302.1,70.1 302,70.1 302.1,70.1 302.1,82.9 557.7,82.9 
					557.7,70 				"/>
				<path class="st9" d="M349,66.4l80.9-41.5l80.9,41.5H349z M349,66.4"/>
				<rect x="318.7" y="188.9" class="st7" width="222.4" height="13"/>
				<rect x="307.2" y="201.3" class="st8" width="245.3" height="13"/>
				<rect x="335.5" y="182.4" class="st6" width="46.5" height="6.7"/>
				<rect x="406.8" y="182.4" class="st6" width="46.7" height="6.7"/>
				<rect x="478.3" y="182.4" class="st6" width="46.5" height="6.7"/>
			</g>
			<circle class="st7" cx="429.9" cy="47.9" r="12"/>
		</g>
	</g>
	<g>
		<path class="st10" d="M738.4,236.3c0,2.8-2.3,5.1-5.2,5.1h-80.6c-2.8,0-5.2-2.3-5.2-5.1V74.5c0-2.8,2.3-5.1,5.2-5.1h80.6
			c2.8,0,5.2,2.3,5.2,5.1V236.3z"/>
		<polygon class="st11" points="730.1,88.4 727.9,88.4 723.8,88.4 719,88.4 715.1,88.4 714.8,88.4 709.5,88.4 696.2,88.4 
			691.6,88.4 686.8,88.4 682.4,88.4 675.8,88.4 671.6,88.4 658.6,88.4 658.2,88.4 654,88.4 651.7,88.4 651.7,106.7 651.6,106.7 
			651.6,111.7 651.7,111.7 651.6,125.3 651.6,125.3 651.6,141.8 651.6,141.8 651.6,145.9 651.6,145.9 651.6,186.8 651.6,186.8 
			651.6,190.5 651.6,190.5 651.6,209.4 651.6,209.4 651.6,214.4 651.6,214.4 651.6,226.7 651.9,226.7 656.2,226.7 665.7,226.7 
			671,226.7 671,226.7 671.6,226.7 675.1,226.7 675.8,226.7 679.9,226.7 680.5,226.7 684.1,226.7 696.7,226.7 696.9,226.7 
			701.4,226.7 712.5,226.7 717.1,226.7 718.1,226.7 723.6,226.7 734.2,226.7 734.2,215.4 734.2,207.9 734.2,206.1 734.2,203.8 
			734.2,199.3 734.2,197.4 734.2,192.4 734.2,145.9 734.2,141.8 734.2,131 734.2,125.3 734.2,100.9 734.2,96.3 734.2,88.4 		"/>
		<polygon class="st12" points="651.6,86.3 651.6,86.4 651.7,86.4 651.6,87.3 651.6,88.3 651.6,88.3 651.6,88.6 651.6,88.6 
			651.6,91.1 651.6,91.1 651.6,91.4 651.6,91.4 651.6,92.5 651.6,92.5 651.6,92.9 651.6,92.9 651.6,93.7 651.6,93.9 734.2,93.9 
			734.2,86.3 		"/>
		<circle class="st13" cx="692.9" cy="234.3" r="4.6"/>
		<rect x="655.7" y="102.8" class="st7" width="34" height="6.7"/>
		<rect x="655.7" y="115.7" class="st7" width="74.5" height="6.7"/>
		<rect x="655.7" y="168.1" class="st7" width="74.5" height="6.7"/>
		<rect x="655.7" y="155.8" class="st7" width="74.5" height="6.7"/>
		<g>
			<g>
				<rect x="655.7" y="127.4" class="st14" width="35.8" height="22.7"/>
			</g>
			<g>
				<rect x="694.2" y="127.4" class="st15" width="35.8" height="22.7"/>
			</g>
		</g>
		<g>
			<path class="st16" d="M724,192.7c0,7-5.7,12.7-12.7,12.7h-36.5c-7,0-12.7-5.7-12.7-12.7l0,0c0-7,5.7-12.7,12.7-12.7h36.5
				C718.3,180,724,185.7,724,192.7L724,192.7z"/>
			<g>
				<path class="st5" d="M679.3,194.3v5.3h-3.4v-14.3h5.6c1.3,0,2.2,0.1,2.9,0.4c0.7,0.3,1.3,0.7,1.8,1.4c0.5,0.7,0.8,1.5,0.8,2.5
					c0,0.7-0.1,1.4-0.4,2.1c-0.3,0.7-0.7,1.2-1.2,1.6c-0.5,0.4-1,0.6-1.5,0.8c-0.5,0.1-1.2,0.2-2.2,0.2H679.3z M679.1,191.7h2.2
					c0.8,0,1.4-0.2,1.7-0.6c0.3-0.4,0.5-0.8,0.5-1.3c0-0.6-0.2-1-0.6-1.4c-0.4-0.3-0.9-0.5-1.7-0.5h-2.2V191.7z"/>
				<path class="st5" d="M694.9,185.4l4.5,14.3h-3.6l-0.9-2.9h-4.6l-0.9,2.9h-2.9l4.6-14.3H694.9z M691.1,194.1h3l-1.5-5
					L691.1,194.1z"/>
				<path class="st5" d="M710.2,185.4l-4.5,8.3v6h-3.3v-6l-4.5-8.3h3.9l2.7,5.4l2.7-5.4H710.2z"/>
			</g>
		</g>
	</g>
	<g>
		<path class="st10" d="M248,261.9c0,3.1-2.6,5.7-5.8,5.7H102.4c-3.2,0-5.8-2.6-5.8-5.7V72.4c0-3.1,2.6-5.7,5.8-5.7h139.8
			c3.2,0,5.8,2.6,5.8,5.7V261.9z"/>
		<polygon class="st11" points="236.3,87.4 232.6,87.4 225.5,87.4 217.4,87.4 210.7,87.4 210.2,87.4 201.2,87.4 178.5,87.4 
			170.6,87.4 162.5,87.4 155,87.4 143.6,87.4 136.6,87.4 114.4,87.4 113.6,87.4 106.6,87.4 102.5,87.4 102.5,108.2 102.5,108.2 
			102.5,113.8 102.5,113.8 102.5,129.2 102.5,129.2 102.5,147.9 102.5,147.9 102.5,152.5 102.5,152.5 102.5,198.9 102.5,198.9 
			102.5,203.1 102.5,203.1 102.5,224.5 102.5,224.5 102.5,230.1 102.5,230.1 102.5,244.1 103,244.1 110.3,244.1 126.4,244.1 
			135.6,244.1 135.6,244.1 136.6,244.1 142.5,244.1 143.6,244.1 150.6,244.1 151.6,244.1 157.8,244.1 179.2,244.1 179.6,244.1 
			187.3,244.1 206.3,244.1 214.1,244.1 215.8,244.1 225.2,244.1 243.3,244.1 243.3,231.3 243.3,222.7 243.3,220.7 243.3,218.1 
			243.3,213 243.3,210.9 243.3,205.2 243.3,152.5 243.3,147.9 243.3,135.7 243.3,129.2 243.3,101.6 243.3,96.4 243.3,87.4 		"/>
		<polygon class="st12" points="102.5,87.4 102.5,87.5 102.5,87.5 102.5,88.5 102.5,89.8 102.5,89.8 102.5,90.1 102.5,90.1 
			102.5,93.2 102.5,93.2 102.5,93.5 102.5,93.5 102.5,94.9 102.5,94.9 102.5,95.2 102.5,95.2 102.5,96.3 102.5,96.4 243.3,96.4 
			243.3,87.4 		"/>
		<circle class="st13" cx="172.3" cy="76.1" r="2.4"/>
		<path class="st13" d="M179.4,259.4h-14.2c-1.9,0-3.5-1.6-3.5-3.5v-1.2c0-1.9,1.6-3.5,3.5-3.5h14.2c1.9,0,3.5,1.6,3.5,3.5v1.2
			C182.9,257.8,181.3,259.4,179.4,259.4z"/>
	</g>
	<g>
		<g>
			<polygon class="st8" points="126.4,195.1 125,195.1 119.2,195.1 119.2,210.6 125,210.6 126.4,210.6 129.8,210.6 129.8,195.1 			
				"/>
			<polygon class="st8" points="137.8,165.3 136.5,165.3 133.1,165.3 133.1,220.3 136.5,220.3 137.8,220.3 143.7,220.3 143.7,165.3 
							"/>
			<polygon class="st8" points="151.4,208.5 150,208.5 146.6,208.5 146.6,223.1 150,223.1 151.4,223.1 157.2,223.1 157.2,208.5 			
				"/>
			<polygon class="st8" points="165.3,182.7 163.9,182.7 160.5,182.7 160.5,212.7 163.9,212.7 165.3,212.7 171.1,212.7 171.1,182.7 
							"/>
			<polygon class="st14" points="178.4,192.8 177.1,192.8 173.7,192.8 173.7,220.3 177.1,220.3 178.4,220.3 184.3,220.3 
				184.3,192.8 			"/>
			<polygon class="st14" points="192,176.2 190.6,176.2 187.2,176.2 187.2,212.4 190.6,212.4 192,212.4 197.8,212.4 197.8,176.2 			
				"/>
			<polygon class="st14" points="206,165.3 204.6,165.3 201.2,165.3 201.2,208.7 204.6,208.7 206,208.7 211.8,208.7 211.8,165.3 			
				"/>
			<polygon class="st14" points="219.7,170.7 218.3,170.7 214.9,170.7 214.9,220.3 218.3,220.3 219.7,220.3 225.5,220.3 
				225.5,170.7 			"/>
		</g>
		<rect x="214.9" y="223.7" class="st17" width="10.6" height="10.9"/>
		<rect x="201" y="212.1" class="st17" width="10.6" height="22.5"/>
		<rect x="187.5" y="215.8" class="st17" width="10.6" height="18.8"/>
		<rect x="173.6" y="223.7" class="st17" width="10.6" height="10.9"/>
		<rect x="160.4" y="216.1" class="st18" width="10.6" height="18.5"/>
		<rect x="146.9" y="226.5" class="st18" width="10.6" height="8"/>
		<rect x="132.8" y="223.7" class="st18" width="10.6" height="10.9"/>
		<rect x="119.2" y="214" class="st18" width="10.6" height="20.6"/>
	</g>
	<g>
		<g>
			<g>
				<g>
					<g>
						<g id="XMLID_3_">
							<g>
								<path class="st14" d="M133.5,122.3c8.2,0,14.9,6.7,14.9,14.9c0,8.2-6.7,14.9-14.9,14.9s-14.9-6.7-14.9-14.9
									C118.6,129,125.3,122.3,133.5,122.3z M146.8,137.2c0-7.3-6-13.3-13.3-13.3s-13.3,6-13.3,13.3c0,7.3,6,13.3,13.3,13.3
									S146.8,144.5,146.8,137.2z"/>
								<path class="st14" d="M133.5,123.9c7.3,0,13.3,6,13.3,13.3c0,7.3-6,13.3-13.3,13.3s-13.3-6-13.3-13.3
									C120.2,129.9,126.2,123.9,133.5,123.9z"/>
							</g>
							<g>
							</g>
						</g>
					</g>
					<circle class="st16" cx="133.6" cy="137.1" r="9.9"/>
					<g>
						<path class="st5" d="M127.5,135.5c0.1-0.7,0.4-1.3,0.7-1.9c0.4-0.6,0.8-1.1,1.3-1.6c0.5-0.5,1.2-0.8,1.9-1.1
							c0.7-0.3,1.5-0.4,2.4-0.4c1.2,0,2.2,0.3,3.1,0.8c0.9,0.5,1.5,1.2,2,2.1l-2,1.3c-0.2-0.4-0.4-0.7-0.6-0.9
							c-0.2-0.3-0.5-0.5-0.8-0.6c-0.3-0.1-0.6-0.3-0.9-0.3c-0.3-0.1-0.6-0.1-0.9-0.1c-0.5,0-0.9,0.1-1.3,0.2c-0.4,0.1-0.7,0.3-1,0.6
							c-0.3,0.3-0.5,0.5-0.8,0.9c-0.2,0.3-0.4,0.7-0.5,1.1h4.7l-0.6,1.4H130v0.2c0,0.3,0,0.5,0.1,0.7h4.3l-0.6,1.4h-3.4
							c0.3,0.7,0.8,1.2,1.4,1.7c0.6,0.4,1.3,0.6,2,0.6c0.3,0,0.6,0,0.9-0.1c0.3-0.1,0.6-0.2,0.9-0.4c0.3-0.2,0.6-0.4,0.8-0.6
							c0.2-0.3,0.4-0.6,0.6-0.9l2.1,1.2c-0.2,0.5-0.5,0.9-0.9,1.3c-0.4,0.4-0.8,0.7-1.3,1c-0.5,0.3-1,0.5-1.6,0.6
							c-0.6,0.1-1.1,0.2-1.6,0.2c-0.7,0-1.4-0.1-2-0.4c-0.6-0.2-1.2-0.6-1.7-1c-0.5-0.4-1-0.9-1.3-1.4c-0.4-0.6-0.7-1.1-0.9-1.8
							h-1.9l0.6-1.4h1c0-0.3-0.1-0.5-0.1-0.8v-0.1h-1.3l0.6-1.4H127.5z"/>
					</g>
				</g>
			</g>
		</g>
	</g>
	<polygon class="st8" points="696.1,17.6 710.4,3 710.4,10 758.5,10 758.5,25.3 710.4,25.3 710.4,32.3 	"/>
	<polygon class="st15" points="124.3,60 124.3,48 98,48 98,32 124.3,32 124.3,20 139.3,40 	"/>
	<g>
		<polygon class="st8" points="208.7,129.9 213,138.7 222.8,140.1 215.8,147 217.4,156.8 208.7,152.2 199.9,156.8 201.6,147 
			194.5,140.1 204.3,138.7 		"/>
		<polygon class="st8" points="241,129.9 245.4,138.7 255.2,140.1 248.1,147 249.8,156.8 241,152.2 232.3,156.8 233.9,147 
			226.8,140.1 236.6,138.7 		"/>
		<polygon class="st8" points="273.3,129.9 277.7,138.7 287.5,140.1 280.4,147 282.1,156.8 273.3,152.2 264.6,156.8 266.3,147 
			259.2,140.1 269,138.7 		"/>
	</g>
	<g>
		<path class="st7" d="M46.5,24.1v-8.8h-8.7v-3.7h8.7V3h3.7v8.7h8.7v3.7h-8.7v8.8H46.5z"/>
	</g>
	<g>
		<path class="st7" d="M765.7,183.8V176h-7.7v-3.3h7.7V165h3.3v7.7h7.7v3.3H769v7.8H765.7z"/>
	</g>
	<g>
		<path class="st7" d="M562.5,273v-8.8h-8.7v-3.7h8.7v-8.7h3.7v8.7h8.7v3.7h-8.7v8.8H562.5z"/>
	</g>
	<g>
		<path class="st7" d="M74.5,264v-8.8h-8.7v-3.7h8.7v-8.7h3.7v8.7h8.7v3.7h-8.7v8.8H74.5z"/>
	</g>
	<g>
		<path class="st18" d="M741.3,205l-5.2,0c-10.2,0-18.6,8.9-18.6,19.8l0,15l5.8,0l0-15c0-7.5,5.8-13.6,12.9-13.6l5.2,0
			c7.1,0,12.8,6.1,12.8,13.6l0,15l5.8,0l0-15C759.9,213.9,751.5,205,741.3,205z"/>
		<path class="st19" d="M715.1,235l0,20.1c0,12.1,9.3,22,20.7,22l5.8,0c11.4,0,20.7-9.9,20.7-21.9l0-20.1L715.1,235z"/>
		<path class="st7" d="M742.9,261.7l-1.9-10.8c0.8-0.7,1.3-1.7,1.3-2.8c0-2-1.7-3.7-3.7-3.7c-2,0-3.7,1.7-3.7,3.7
			c0,1.1,0.5,2.1,1.3,2.8l-1.9,10.8L742.9,261.7z"/>
	</g>
	<g>
		<g>
			<g>
				<g>
					<g>
						<g>
							<path class="st14" d="M429.9,106.8c-20.1,0-36.5,16.4-36.5,36.5c0,20.1,16.4,36.5,36.5,36.5c20.1,0,36.5-16.4,36.5-36.5
								C466.4,123.2,450,106.8,429.9,106.8z"/>
						</g>
						<circle class="st16" cx="430.1" cy="143" r="27.1"/>
					</g>
				</g>
			</g>
		</g>
		<g>
			<g>
				
					<rect x="415.3" y="64.2" transform="matrix(0.9921 -0.1253 0.1253 0.9921 -5.7422 52.7603)" class="st16" width="2.7" height="15.7"/>
				<rect x="391.6" y="73" transform="matrix(0.889 -0.458 0.458 0.889 6.5935 188.9649)" class="st16" width="2.7" height="15.7"/>
				
					<rect x="372.4" y="89.4" transform="matrix(0.6789 -0.7342 0.7342 0.6789 48.5912 305.6833)" class="st16" width="2.7" height="15.7"/>
				
					<rect x="360" y="111.4" transform="matrix(0.3884 -0.9215 0.9215 0.3884 111.1271 405.9501)" class="st16" width="2.7" height="15.7"/>
				
					<rect x="355.9" y="136.3" transform="matrix(4.927084e-02 -0.9988 0.9988 4.927084e-02 195.6507 493.8452)" class="st16" width="2.7" height="15.7"/>
				
					<rect x="354" y="167.6" transform="matrix(0.955 -0.2967 0.2967 0.955 -33.8437 114.9842)" class="st16" width="15.7" height="2.7"/>
				
					<rect x="366.8" y="189.3" transform="matrix(0.7964 -0.6048 0.6048 0.7964 -39.0638 265.404)" class="st16" width="15.7" height="2.7"/>
				
					<rect x="497.1" y="159.9" transform="matrix(0.3874 -0.9219 0.9219 0.3874 150.6943 562.2846)" class="st16" width="2.7" height="15.7"/>
				
					<rect x="501.2" y="135" transform="matrix(4.854929e-02 -0.9988 0.9988 4.854929e-02 335.5044 637.921)" class="st16" width="2.7" height="15.7"/>
				
					<rect x="490.1" y="116.7" transform="matrix(0.9551 -0.2962 0.2962 0.9551 -12.617 152.7834)" class="st16" width="15.7" height="2.7"/>
				
					<rect x="477.3" y="94.9" transform="matrix(0.7963 -0.6049 0.6049 0.7963 40.5811 313.0908)" class="st16" width="15.7" height="2.7"/>
				
					<rect x="457.8" y="78.9" transform="matrix(0.5411 -0.8409 0.8409 0.5411 146.2216 428.4396)" class="st16" width="15.7" height="2.7"/>
				
					<rect x="434" y="70.4" transform="matrix(0.2217 -0.9751 0.9751 0.2217 273.9121 486.7963)" class="st16" width="15.7" height="2.7"/>
			</g>
			<g>
				
					<rect x="441.6" y="206.8" transform="matrix(0.992 -0.1259 0.1259 0.992 -23.5081 57.4828)" class="st16" width="2.7" height="15.7"/>
				
					<rect x="465.2" y="198" transform="matrix(0.8892 -0.4576 0.4576 0.8892 -42.4773 236.3248)" class="st16" width="2.7" height="15.7"/>
				
					<rect x="484.4" y="181.6" transform="matrix(0.6785 -0.7346 0.7346 0.6785 17.0031 417.7414)" class="st16" width="2.7" height="15.7"/>
				
					<rect x="386" y="205.1" transform="matrix(0.5414 -0.8408 0.8408 0.5414 7.0319 425.8705)" class="st16" width="15.7" height="2.7"/>
				
					<rect x="409.8" y="213.5" transform="matrix(0.221 -0.9753 0.9753 0.221 115.7825 574.7776)" class="st16" width="15.7" height="2.7"/>
			</g>
		</g>
		<g>
			<path class="st5" d="M435.6,136.4c-1.5-1.4-2.9-2.2-4.7-2.2c-2.1,0-3.2,0.8-3.2,2.8c0,4.1,11.4,3.8,11.4,12
				c0,4.1-2.3,7.3-6.7,8.3v4.5h-4.2v-4.3c-2.5-0.3-5.6-1.4-7.6-3.3l2.8-4.3c2.2,1.6,4.1,2.5,6.2,2.5c2.4,0,3.5-1,3.5-3
				c0-4.4-11.4-4.4-11.4-12.1c0-4.2,2.5-7.2,6.6-8v-4.4h4.2v4.4c2.8,0.4,4.7,1.8,6.4,3.5L435.6,136.4z"/>
		</g>
	</g>
	<g>
		<path class="st0" d="M34.3,60.4c-3-2.8-5.7-4.2-9.2-4.2c-4,0-6.2,1.6-6.2,5.4c0,8,22.3,7.3,22.3,23.4c0,8.1-4.5,14.3-13.2,16.2
			v8.8h-8.2v-8.4C14.9,101,9,98.8,5,95.2l5.4-8.3c4.3,3.2,8,4.9,12.1,4.9c4.7,0,6.8-1.9,6.8-5.8C29.3,77.2,7,77.4,7,62.2
			c0-8.3,4.9-14,12.8-15.6v-8.7H28v8.5c5.4,0.7,9.3,3.5,12.6,6.9L34.3,60.4z"/>
	</g>
	<g>
		<g id="XMLID_18_">
			<g>
				<path class="st16" d="M164.3,104.6c7.3,0,13.3,6,13.3,13.3s-6,13.3-13.3,13.3c-7.3,0-13.3-6-13.3-13.3S157,104.6,164.3,104.6z"
					/>
				<path class="st16" d="M177.6,117.9c0-7.3-6-13.3-13.3-13.3c-7.3,0-13.3,6-13.3,13.3s6,13.3,13.3,13.3
					C171.6,131.2,177.6,125.3,177.6,117.9z M164.3,103c8.2,0,14.9,6.7,14.9,14.9c0,8.2-6.7,14.9-14.9,14.9
					c-8.2,0-14.9-6.7-14.9-14.9C149.4,109.7,156.1,103,164.3,103z"/>
			</g>
			<g>
			</g>
		</g>
		<path class="st16" d="M164.3,104.3c-7.5,0-13.7,6.1-13.7,13.7c0,7.5,6.1,13.7,13.7,13.7s13.7-6.1,13.7-13.7
			C178,110.4,171.8,104.3,164.3,104.3z"/>
		<g>
			<path class="st5" d="M167.5,114c-0.9-0.7-1.6-1.1-2.6-1.1c-1.2,0-1.8,0.4-1.8,1.4c0,2.1,6.4,2,6.4,6.3c0,2.2-1.3,3.8-3.8,4.3v2.3
				h-2.4V125c-1.4-0.2-3.1-0.7-4.3-1.7l1.6-2.2c1.2,0.9,2.3,1.3,3.5,1.3c1.4,0,2-0.5,2-1.6c0-2.3-6.4-2.3-6.4-6.3
				c0-2.2,1.4-3.7,3.7-4.2V108h2.4v2.3c1.6,0.2,2.7,0.9,3.6,1.8L167.5,114z"/>
		</g>
	</g>
	<g>
		<path class="st17" d="M116.5,175h-12.7c-1-18.5-15.8-33.3-34.3-34.3V128h-4.1v12.7c-18.5,1-33.3,15.8-34.3,34.3H18.5v4.1h12.7
			c1,18.5,15.8,33.3,34.3,34.3V226h4.1v-12.7c18.5-1,33.3-15.8,34.3-34.3h12.7V175z"/>
		<g id="XMLID_1_">
			<g>
				<path class="st5" d="M67.5,144.6c17.8,0,32.4,14.5,32.4,32.4s-14.5,32.4-32.4,32.4S35.1,194.9,35.1,177S49.7,144.6,67.5,144.6z"
					/>
			</g>
			<g>
			</g>
		</g>
		<g>
			<path class="st4" d="M79.9,166.7c1-12.2-6-13.1-9.2-11.9c-14.1-4.3-16.2,3.6-15.5,11.9c0.3,3.4,0.6,9.4-1.1,12.3
				c3.6,2.5,9.2,3,13.5,3c4.2,0,9.9-0.4,13.5-3C79.2,176.1,79.6,170.1,79.9,166.7z"/>
			<path id="XMLID_238_" class="st8" d="M73,182.4l-5.5,0.2l-5.5-0.2c-7,2.4-16.9,2.8-16.9,11.4c0,1.5,11.6,3.7,22.4,3.7
				c10.8,0,22.4-2.2,22.4-3.7C89.9,185.2,80,184.8,73,182.4z"/>
			<path id="XMLID_236_" class="st20" d="M73,182.4l-0.9-4.4h-4.5H63l-0.9,4.4c0,0,1.3,3.3,5.5,3.3C71.7,185.7,73,182.4,73,182.4z"
				/>
			<ellipse id="XMLID_234_" class="st21" cx="67.5" cy="168.2" rx="10.2" ry="11.4"/>
			<path id="XMLID_233_" class="st4" d="M60.7,157.6c2.7-2.3,9.2-3.5,13.1-0.5c3.6,2.8,3.7,7.7,3.7,7.7c-7.9-0.7-13.4-6-13.4-6
				c-5.2-0.2-6.7,7.4-6.7,7.4S56.4,161.2,60.7,157.6z"/>
			<path id="XMLID_232_" class="st21" d="M77.7,167.4c0,0,1.1-1.3,1.6-0.4c0.7,1.3-0.1,4-1,4.2c-0.4,0.1-0.9-0.2-0.9-0.2L77.7,167.4
				z"/>
			<path id="XMLID_226_" class="st21" d="M57.3,167.4c0,0-1.1-1.3-1.6-0.4c-0.7,1.3,0.1,4,1,4.2c0.4,0.1,0.9-0.2,0.9-0.2L57.3,167.4
				z"/>
		</g>
	</g>
	<g>
		<g id="XMLID_2_">
			<g id="XMLID_5_">
				<path id="XMLID_16_" class="st15" d="M807,76.4l-3.8,0.1l-3.8-0.1c-4.9,1.5-11.9,1.8-11.9,7.3c0,1,8.1,2.4,15.7,2.4
					c7.6,0,15.7-1.4,15.7-2.4C818.9,78.2,812,77.9,807,76.4z"/>
				<path id="XMLID_14_" class="st20" d="M807,76.4l-0.7-2.8h-3.2H800l-0.7,2.8c0,0,0.9,2.1,3.8,2.1C806.1,78.5,807,76.4,807,76.4z"
					/>
				<path id="XMLID_13_" class="st4" d="M805.4,58.6c0,0-7.9-2.2-9.6,1.7c-1,2.1-1,4.8-0.3,6.8c0.9,2.6,3.8,4.6,7.7,4.6l0,0h0l0,0h0
					c4,0,7.7-2.2,8-5.5C811.8,58.4,807.7,57.8,805.4,58.6z"/>
				<ellipse id="XMLID_11_" class="st21" cx="803.2" cy="67.2" rx="7.2" ry="7.3"/>
				<path id="XMLID_10_" class="st4" d="M808,60.4c-1.9-1.5-6.5-2.3-9.2-0.3c-2.5,1.8-2.6,4.9-2.6,4.9c5.6-0.4,9.4-3.9,9.4-3.9
					c3.6-0.1,4.7,4.8,4.7,4.8S811,62.7,808,60.4z"/>
				<path id="XMLID_9_" class="st21" d="M810.3,66.7c0,0,0.8-0.9,1.1-0.3c0.5,0.8-0.1,2.5-0.7,2.7c-0.3,0.1-0.6-0.1-0.6-0.1
					L810.3,66.7z"/>
				<path id="XMLID_8_" class="st21" d="M796,66.7c0,0-0.8-0.9-1.1-0.3c-0.5,0.8,0.1,2.5,0.7,2.7c0.3,0.1,0.6-0.1,0.6-0.1L796,66.7z
					"/>
			</g>
		</g>
		<g>
			<g>
				<path class="st22" d="M753,102.4c-0.5-2-0.7-4.2-0.7-6.4c0-15.1,11.8-27.5,26.7-28.4"/>
				<g>
					<polygon class="st17" points="777.2,72.9 786.5,68.1 777.7,62.4 					"/>
				</g>
			</g>
		</g>
		<g>
			<g>
				<path class="st22" d="M814.6,93.6c0.5,2,0.7,4.2,0.7,6.4c0,15.1-11.8,27.5-26.7,28.4"/>
				<g>
					<polygon class="st17" points="790.4,123.1 781.1,127.9 789.9,133.5 					"/>
				</g>
			</g>
		</g>
		<g id="XMLID_336_">
			<g id="XMLID_337_">
				<path id="XMLID_346_" class="st18" d="M772,112.6l-3.8,0.1l-3.8-0.1c-4.9,1.7-11.8,1.9-11.8,8c0,1,8.1,2.6,15.7,2.6
					c7.5,0,15.7-1.5,15.7-2.6C783.8,114.5,776.9,114.2,772,112.6z"/>
				<path id="XMLID_344_" class="st20" d="M772,112.6l-0.7-3.1h-3.2H765l-0.7,3.1c0,0,0.9,2.3,3.8,2.3
					C771.1,114.9,772,112.6,772,112.6z"/>
				<path id="XMLID_343_" class="st4" d="M770.4,93.3c0,0-7.8-2.3-9.6,1.9c-1,2.3-1,5.3-0.3,7.4c0.9,2.9,3.7,5,7.7,5l0,0h0l0,0h0
					c4,0,7.6-2.4,7.9-6C776.8,93,772.6,92.4,770.4,93.3z"/>
				<ellipse id="XMLID_341_" class="st21" cx="768.2" cy="102.6" rx="7.1" ry="8"/>
				<path id="XMLID_340_" class="st4" d="M772.9,95.3c-1.9-1.6-6.4-2.5-9.2-0.3c-2.5,2-2.6,5.4-2.6,5.4c5.5-0.5,9.3-4.2,9.3-4.2
					c3.6-0.2,4.7,5.2,4.7,5.2S775.9,97.8,772.9,95.3z"/>
				<path id="XMLID_339_" class="st21" d="M775.3,102.1c0,0,0.8-0.9,1.1-0.3c0.5,0.9-0.1,2.8-0.7,2.9c-0.3,0.1-0.6-0.1-0.6-0.1
					L775.3,102.1z"/>
				<path id="XMLID_338_" class="st21" d="M761.1,102.1c0,0-0.8-0.9-1.1-0.3c-0.5,0.9,0.1,2.8,0.7,2.9c0.3,0.1,0.6-0.1,0.6-0.1
					L761.1,102.1z"/>
			</g>
		</g>
	</g>
</g>
</svg>
