<?xml version="1.0" encoding="utf-8"?>
<!-- Generator: Adobe Illustrator 21.1.0, SVG Export Plug-In . SVG Version: 6.00 Build 0)  -->
<svg version="1.1" id="Layer_1" xmlns="http://www.w3.org/2000/svg" xmlns:xlink="http://www.w3.org/1999/xlink" x="0px" y="0px"
	 viewBox="0 0 835 300" style="enable-background:new 0 0 835 300;" xml:space="preserve">
<style type="text/css">
	.st0{display:none;}
	.st1{display:inline;}
	.st2{fill:none;stroke:#282426;stroke-width:0.1947;stroke-miterlimit:10;}
	.st3{display:inline;fill:none;stroke:#282426;stroke-width:0.1947;stroke-miterlimit:10;}
	.st4{fill:#70BEF2;}
	.st5{opacity:0.3;fill:#70BEF2;}
	.st6{fill:none;stroke:#005EB8;stroke-width:1.5;stroke-linejoin:round;stroke-miterlimit:10;}
	.st7{fill:#48A23F;}
	.st8{fill:#FFFFFF;}
	.st9{fill:#78CE6F;}
	.st10{fill:#E4002B;}
	.st11{fill:#707372;}
	.st12{opacity:0.4;fill:#FFFFFF;}
	.st13{fill:#C7C9C7;}
	.st14{fill:#005EB8;}
	.st15{fill:#FFAB6C;}
	.st16{fill:#FFBE92;}
	.st17{fill:none;stroke:#FFFFFF;stroke-miterlimit:10;}
	.st18{opacity:0.75;}
	.st19{fill-rule:evenodd;clip-rule:evenodd;fill:#707372;}
	.st20{fill-rule:evenodd;clip-rule:evenodd;fill:#70BEF2;}
	.st21{fill-rule:evenodd;clip-rule:evenodd;fill:#C7C9C7;}
	.st22{fill-rule:evenodd;clip-rule:evenodd;fill:#FFFFFF;}
	.st23{opacity:0.4;fill-rule:evenodd;clip-rule:evenodd;fill:#FFFFFF;}
	.st24{fill:#70BEF2;stroke:#70BEF2;stroke-miterlimit:10;}
	.st25{fill:none;stroke:#70BEF2;stroke-linejoin:round;stroke-miterlimit:10;}
	.st26{fill:#FFFFFF;stroke:#70BEF2;stroke-linejoin:round;stroke-miterlimit:10;}
	.st27{fill:none;stroke:#005EB8;stroke-width:4;stroke-miterlimit:10;}
	.st28{fill:#70BEF2;stroke:#70BEF2;stroke-width:0.5;stroke-miterlimit:10;}
</style>
<path class="st4" d="M835,128.1c-4.7,2.4-6.6,4.3-9,9c-2.4-4.7-4.3-6.6-9-9c4.7-2.4,6.6-4.3,9-9C828.4,123.8,830.3,125.7,835,128.1z
	"/>
<path class="st4" d="M14,215.4c-3.6,1.9-5.1,3.4-7,7c-1.9-3.6-3.4-5.1-7-7c3.6-1.9,5.1-3.4,7-7C8.9,212,10.4,213.5,14,215.4z"/>
<circle class="st5" cx="141.3" cy="228.4" r="37.1"/>
<circle class="st5" cx="685.3" cy="55.1" r="37.3"/>
<circle class="st5" cx="110.1" cy="82" r="62.2"/>
<circle class="st5" cx="727.5" cy="216.7" r="62.2"/>
<g>
	<line class="st6" x1="607.7" y1="136" x2="638.7" y2="136"/>
	<line class="st6" x1="607.7" y1="142.7" x2="638.7" y2="142.7"/>
	<line class="st6" x1="607.7" y1="149.3" x2="638.7" y2="149.3"/>
	<line class="st6" x1="607.7" y1="155.8" x2="638.7" y2="155.8"/>
	<line class="st6" x1="607.7" y1="162.4" x2="638.7" y2="162.4"/>
	<line class="st6" x1="607.7" y1="169" x2="638.7" y2="169"/>
	<g>
		<path class="st6" d="M646,181.5v-52.1c0-2.3-1.9-4-4-4h-37.6c-2.3,0-4,1.9-4,4v57.2c0,2.3,1.9,4,4,4h30.8v-9.3H646V181.5z"/>
		<polygon class="st6" points="635.2,181.5 635.2,190.8 646,181.5 		"/>
	</g>
</g>
<g>
	<path class="st7" d="M137.6,209.8h3.7h3.7c0.5,0,1-0.4,1-1s-0.4-1-1-1h-3.7h-3.7c-0.5,0-1,0.4-1,1S137,209.8,137.6,209.8z"/>
	<path class="st7" d="M144.1,226.8v-16.1h-2.8h-2.8v16.1c-4.9,1.3-8.5,5.7-8.5,11c0,6.3,5.1,11.3,11.3,11.3l0,0
		c6.3,0,11.3-5.1,11.3-11.3C152.6,232.4,149,228,144.1,226.8z M141.3,247.3c-5.3,0-9.5-4.3-9.5-9.5c0-5.3,4.3-9.5,9.5-9.5
		c5.3,0,9.5,4.3,9.5,9.5C150.8,243.1,146.6,247.3,141.3,247.3z"/>
	<circle class="st7" cx="145.4" cy="232.2" r="1.2"/>
	<circle class="st7" cx="147" cy="234.8" r="0.9"/>
</g>
<g>
	<path class="st7" d="M681.6,39.9h3.7h3.7c0.5,0,1-0.4,1-1c0-0.5-0.4-1-1-1h-3.7h-3.7c-0.5,0-1,0.4-1,1
		C680.6,39.5,681.1,39.9,681.6,39.9z"/>
	<path class="st7" d="M697.6,68.7c-3-4.4-9-14.3-9.1-14.5V40.6h-3.2h-3.2v13.7h0c0,0-6.1,10.1-9.1,14.5c-1.1,1.7,0.5,3.6,1.9,3.6
		h10.4h10.4C697.1,72.3,698.7,70.4,697.6,68.7z M695,70.8h-9.7h-9.5c-1.2,0-2-1.1-1-2.5c2.5-3.7,7.9-12.6,7.9-12.6h2.7h2.7
		c0,0,5.4,9,7.9,12.7C696.8,69.8,696.1,70.8,695,70.8z"/>
	<path class="st7" d="M688.5,58.6c0,0.6-0.5,1.1-1.1,1.1l0,0c-0.6,0-1.1-0.5-1.1-1.1l0,0c0-0.6,0.5-1.1,1.1-1.1l0,0
		C688,57.5,688.5,58,688.5,58.6L688.5,58.6z"/>
	<path class="st7" d="M690,60.5c0,0.4-0.3,0.8-0.8,0.8l0,0c-0.4,0-0.8-0.3-0.8-0.8l0,0c0-0.4,0.3-0.8,0.8-0.8l0,0
		C689.7,59.7,690,60,690,60.5L690,60.5z"/>
</g>
<g>
	<g>
		<path class="st4" d="M519.2,17.3c-1.2-0.5-2.5-1.1-2.5-2.1v-0.7h0.4c1.2,0,2.2-1,2.2-2.2V6.2c0-1.2-1-2.2-2.2-2.2h-14.3
			c-1.2,0-2.2,1-2.2,2.2v6.1c0,1.2,1,2.2,2.2,2.2h0.4v0.7c0,1-1.3,1.6-2.5,2.1c-0.9,0.4-3,1.2-3,3.6l0,22.7c0,2,1.7,3.6,3.7,3.6
			h17.1c2,0,3.6-1.6,3.7-3.6l0-22.8C522.2,18.6,520.1,17.7,519.2,17.3z M501.7,12.3V6.2c0-0.6,0.5-1.1,1.1-1.1h14.3
			c0.6,0,1.1,0.5,1.1,1.1v6.1c0,0.6-0.5,1.1-1.1,1.1h-14.3C502.2,13.4,501.7,12.9,501.7,12.3z M521.1,43.6L521.1,43.6
			c0,1.5-1.2,2.6-2.6,2.6h-17.1c-1.4,0-2.6-1.2-2.6-2.6V20.9c0-1.4,1.1-2.1,2.3-2.6c1.1-0.5,3.1-1.3,3.1-3.1v-0.7h11.4v0.7
			c0,1.8,2,2.7,3.1,3.1c1.2,0.5,2.3,1.2,2.3,2.6V43.6z"/>
		<path class="st4" d="M503.6,5.6c-0.2,0-0.4,0.2-0.4,0.4v6c0,0.2,0.2,0.4,0.4,0.4c0.2,0,0.4-0.2,0.4-0.4V6
			C504,5.8,503.8,5.6,503.6,5.6z"/>
		<path class="st4" d="M506.1,5.6c-0.2,0-0.4,0.2-0.4,0.4v6c0,0.2,0.2,0.4,0.4,0.4c0.2,0,0.4-0.2,0.4-0.4V6
			C506.5,5.8,506.3,5.6,506.1,5.6z"/>
		<path class="st4" d="M508.7,5.6c-0.2,0-0.4,0.2-0.4,0.4v6c0,0.2,0.2,0.4,0.4,0.4c0.2,0,0.4-0.2,0.4-0.4V6
			C509,5.8,508.9,5.6,508.7,5.6z"/>
		<path class="st4" d="M511.1,5.6c-0.2,0-0.4,0.2-0.4,0.4v6c0,0.2,0.2,0.4,0.4,0.4c0.2,0,0.4-0.2,0.4-0.4V6
			C511.5,5.8,511.3,5.6,511.1,5.6z"/>
		<path class="st4" d="M513.7,5.6c-0.2,0-0.4,0.2-0.4,0.4v6c0,0.2,0.2,0.4,0.4,0.4s0.4-0.2,0.4-0.4V6C514.1,5.8,514,5.6,513.7,5.6z"
			/>
		<path class="st4" d="M516.1,5.6c-0.2,0-0.4,0.2-0.4,0.4v6c0,0.2,0.2,0.4,0.4,0.4s0.4-0.2,0.4-0.4V6C516.5,5.8,516.4,5.6,516.1,5.6
			z"/>
		<path class="st4" d="M500.4,40.3h19.1V21.6h-19.1V40.3z M501.5,22.7h17v16.5h-17V22.7z"/>
	</g>
	<g>
		<path class="st4" d="M541.9,19.9h-12V41h12V19.9z M540.9,40H531v-19h9.9V40z"/>
		<path class="st4" d="M547,11.1h-22.6v4.7h2.5v31.4h17.6V15.8h2.5V11.1z M543.4,46.2H528V15.8h15.4V46.2z M545.9,14.8h-20.5v-2.6
			h20.5V14.8z"/>
	</g>
</g>
<circle class="st5" cx="425.2" cy="242" r="36.6"/>
<g>
	<g>
		<path class="st8" d="M410.7,246.4c-1.3,0-2.3-0.9-2.5-2.1h4.9C413,245.5,412,246.4,410.7,246.4z"/>
		<path class="st8" d="M410.7,241.4c1.3,0,2.3,0.9,2.5,2.1h-4.9C408.5,242.3,409.5,241.4,410.7,241.4z"/>
		<path class="st8" d="M413.2,243.9c0,0.1,0,0.2,0,0.4h-4.9c0-0.1,0-0.2,0-0.4c0-0.1,0-0.2,0-0.4h4.9
			C413.2,243.6,413.2,243.8,413.2,243.9z"/>
	</g>
	<g>
		<path class="st8" d="M410.7,257.2c0,1.3-0.9,2.3-2.1,2.5v-4.9C409.8,254.9,410.7,255.9,410.7,257.2z"/>
		<path class="st8" d="M405.7,257.2c0-1.3,0.9-2.3,2.1-2.5v4.9C406.7,259.5,405.7,258.4,405.7,257.2z"/>
		<path class="st8" d="M408.2,254.7c0.1,0,0.2,0,0.4,0v4.9c-0.1,0-0.2,0-0.4,0c-0.1,0-0.2,0-0.4,0v-4.9
			C408,254.7,408.1,254.7,408.2,254.7z"/>
	</g>
	<g>
		<path class="st8" d="M402.7,251.3c-1.3,0-2.3-0.9-2.5-2.1h4.9C405,250.3,403.9,251.3,402.7,251.3z"/>
		<path class="st8" d="M402.7,246.3c1.3,0,2.3,0.9,2.5,2.1h-4.9C400.4,247.2,401.4,246.3,402.7,246.3z"/>
		<path class="st8" d="M405.2,248.8c0,0.1,0,0.2,0,0.4h-4.9c0-0.1,0-0.2,0-0.4c0-0.1,0-0.2,0-0.4h4.9
			C405.2,248.5,405.2,248.6,405.2,248.8z"/>
	</g>
	<g>
		<path class="st8" d="M408.2,236.3c0,1.3-0.9,2.3-2.1,2.5v-4.9C407.3,234,408.2,235,408.2,236.3z"/>
		<path class="st8" d="M403.2,236.3c0-1.3,0.9-2.3,2.1-2.5v4.9C404.2,238.5,403.2,237.5,403.2,236.3z"/>
		<path class="st8" d="M405.7,233.8c0.1,0,0.2,0,0.4,0v4.9c-0.1,0-0.2,0-0.4,0c-0.1,0-0.2,0-0.4,0v-4.9
			C405.5,233.8,405.6,233.8,405.7,233.8z"/>
	</g>
	<g>
		<path class="st9" d="M423.4,293.8c0,2,1.6,3.6,3.6,3.6h22.5c2,0,3.6-1.6,3.6-3.6v-62.2c0-2-1.6-3.6-3.6-3.6h-22.5
			c-2,0-3.6,1.6-3.6,3.6V293.8z"/>
		<g>
			<circle class="st8" cx="446.6" cy="234.4" r="3.2"/>
			<circle class="st8" cx="446.6" cy="243.8" r="3.2"/>
			<circle class="st8" cx="429.7" cy="234.4" r="3.2"/>
			<circle class="st8" cx="429.7" cy="243.8" r="3.2"/>
			<circle class="st8" cx="446.6" cy="253.5" r="3.2"/>
			<circle class="st8" cx="446.6" cy="262.9" r="3.2"/>
			<circle class="st8" cx="429.7" cy="253.5" r="3.2"/>
			<circle class="st8" cx="429.7" cy="262.9" r="3.2"/>
			<circle class="st8" cx="446.6" cy="272.4" r="3.2"/>
			<circle class="st8" cx="446.6" cy="281.7" r="3.2"/>
			<circle class="st8" cx="429.7" cy="272.4" r="3.2"/>
			<circle class="st8" cx="429.7" cy="281.7" r="3.2"/>
			<circle class="st8" cx="446.6" cy="290.9" r="3.2"/>
			<circle class="st8" cx="429.7" cy="290.9" r="3.2"/>
		</g>
		<path class="st7" d="M436.9,290.6c0,0.7,0.6,1.3,1.3,1.3l0,0c0.7,0,1.3-0.6,1.3-1.3v-52.7c0-0.7-0.6-1.3-1.3-1.3l0,0
			c-0.7,0-1.3,0.6-1.3,1.3V290.6z"/>
	</g>
</g>
<g>
	<g>
		<path class="st7" d="M381.8,20c0-2-1.6-3.6-3.7-3.9v7.8C380.1,23.6,381.8,22,381.8,20z"/>
		<path class="st7" d="M373.1,20c0,2,1.6,3.6,3.7,3.9v-7.8C374.7,16.4,373.1,18,373.1,20z"/>
	</g>
	<g>
		<path class="st7" d="M367.7,3.3c-2.2,0-4,1.5-4.3,3.4h8.5C371.7,4.8,369.9,3.3,367.7,3.3z"/>
		<path class="st7" d="M367.7,11.2c2.2,0,4-1.5,4.3-3.4h-8.5C363.7,9.7,365.5,11.2,367.7,11.2z"/>
	</g>
	<g>
		<path class="st7" d="M365.1,31c1.2,0,2.1-0.9,2.1-1.9v-0.6c0-1.1-1-1.9-2.1-1.9h-6.2V31H365.1z"/>
		<path class="st7" d="M349.3,28.4v0.6c0,1.1,1,1.9,2.1,1.9h6v-4.5h-6C350.2,26.5,349.3,27.3,349.3,28.4z"/>
	</g>
	<g>
		<path class="st7" d="M357.5,1.9c0-1.1-1-1.9-2.1-1.9h-0.7c-1.2,0-2.1,0.9-2.1,1.9v5.6h5V1.9z"/>
		<path class="st7" d="M354.6,16.3h0.7c1.2,0,2.1-0.9,2.1-1.9V8.9h-5v5.5C352.5,15.5,353.4,16.3,354.6,16.3z"/>
	</g>
</g>
<g>
	<path class="st10" d="M612.1,187.6c-0.1,0.2-0.2,0.5-0.3,0.7c0,0.1,0,0.1-0.1,0.2c0,0.1-0.1,0.1-0.1,0.2c-0.5,1.1-1.1,2.2-1.9,3.4
		c-2.2,3.2-5.8,6.7-11.7,9.6c-7.9-4-11.7-9-13.6-13c0-0.1-0.1-0.1-0.1-0.2c0-0.1-0.1-0.1-0.1-0.2c-0.1-0.3-0.2-0.5-0.3-0.7
		c-1.3-3.3-1.2-5.6-1.2-5.6c0-3.3,2.1-6.2,5.1-7.2c0.8-0.3,1.7-0.4,2.6-0.4c4.2,0,7.7,3.4,7.7,7.7c0-4.2,3.4-7.7,7.7-7.7
		c4.2,0,7.6,3.4,7.6,7.7C613.4,182,613.4,184.3,612.1,187.6z"/>
</g>
<circle class="st4" cx="672.7" cy="200.5" r="2.6"/>
<circle class="st4" cx="678.3" cy="106.1" r="2.6"/>
<circle class="st4" cx="623.2" cy="244.8" r="4.6"/>
<circle class="st4" cx="295.5" cy="17.8" r="4.6"/>
<circle class="st4" cx="656.1" cy="78.2" r="4.6"/>
<circle class="st4" cx="379.9" cy="291.3" r="4.6"/>
<circle class="st4" cx="177.4" cy="84.8" r="2.6"/>
<circle class="st4" cx="474.1" cy="294.8" r="2.6"/>
<circle class="st4" cx="284.1" cy="27.5" r="2.6"/>
<circle class="st4" cx="471" cy="5.3" r="2.6"/>
<circle class="st4" cx="574.6" cy="25" r="2.6"/>
<circle class="st4" cx="336.1" cy="7.8" r="2.6"/>
<circle class="st4" cx="47.9" cy="175.1" r="2.6"/>
<circle class="st4" cx="194.5" cy="231.5" r="3.1"/>
<path class="st4" d="M421.9,7c-3.6,1.9-5.1,3.4-7,7c-1.9-3.6-3.4-5.1-7-7c3.6-1.9,5.1-3.4,7-7C416.8,3.6,418.3,5.1,421.9,7z"/>
<path class="st4" d="M694.2,165.8c-4.6,2.4-6.6,4.3-9,9c-2.4-4.6-4.3-6.6-9-9c4.6-2.4,6.6-4.3,9-9
	C687.7,161.5,689.6,163.4,694.2,165.8z"/>
<path class="st4" d="M505.7,291.3c-3.6,1.9-5.1,3.4-7,7c-1.9-3.6-3.4-5.1-7-7c3.6-1.9,5.1-3.4,7-7
	C500.6,287.9,502.1,289.5,505.7,291.3z"/>
<path class="st4" d="M353.2,293c-3.6,1.9-5.1,3.4-7,7c-1.9-3.6-3.4-5.1-7-7c3.6-1.9,5.1-3.4,7-7C348.1,289.7,349.6,291.2,353.2,293z
	"/>
<path class="st4" d="M226.9,248.7c-3.6,1.9-5.1,3.4-7,7c-1.9-3.6-3.4-5.1-7-7c3.6-1.9,5.1-3.4,7-7
	C221.8,245.3,223.3,246.8,226.9,248.7z"/>
<path class="st4" d="M240.4,45.8c-4.6,2.4-6.6,4.3-9,9c-2.4-4.6-4.3-6.6-9-9c4.6-2.4,6.6-4.3,9-9C233.8,41.5,235.7,43.4,240.4,45.8z
	"/>
<path class="st4" d="M175.9,102.3c-3.6,1.9-5.1,3.4-7,7c-1.9-3.6-3.4-5.1-7-7c3.6-1.9,5.1-3.4,7-7
	C170.8,98.9,172.3,100.4,175.9,102.3z"/>
<path class="st4" d="M611.6,251.3c-3.6,1.9-5.1,3.4-7,7c-1.9-3.6-3.4-5.1-7-7c3.6-1.9,5.1-3.4,7-7C606.5,248,608,249.5,611.6,251.3z
	"/>
<g>
	<g>
		<path class="st11" d="M512,38.8H283.3c-6.8,0-12.3,5.5-12.3,12.3v135.6c0,6.8,5.5,12.3,12.3,12.3H512c6.8,0,12.3-5.5,12.3-12.3
			V51.2C524.3,44.4,518.7,38.8,512,38.8z M516.9,186.8c0,2.7-2.2,4.9-4.9,4.9H283.3c-2.7,0-4.9-2.2-4.9-4.9V51.2
			c0-2.7,2.2-4.9,4.9-4.9H512c2.7,0,4.9,2.2,4.9,4.9V186.8z"/>
		<path class="st4" d="M516.9,51.2v135.6c0,2.7-2.2,4.9-4.9,4.9H283.3c-2.7,0-4.9-2.2-4.9-4.9V51.2c0-2.7,2.2-4.9,4.9-4.9H512
			C514.7,46.2,516.9,48.4,516.9,51.2z"/>
		<path class="st4" d="M512,46.2c2.7,0,4.9,2.2,4.9,4.9v135.6c0,2.7-2.2,4.9-4.9,4.9H283.3"/>
		<path class="st4" d="M283.3,191.7c-2.7,0-4.9-2.2-4.9-4.9V51.2c0-2.7,2.2-4.9,4.9-4.9H512"/>
		<path class="st12" d="M283.3,191.7c-2.7,0-4.9-2.2-4.9-4.9V51.2c0-2.7,2.2-4.9,4.9-4.9H512L283.3,191.7z"/>
		<rect x="337.8" y="199.1" class="st13" width="119.6" height="8.8"/>
		<path class="st11" d="M524.4,213.9c0,3.3-2.7,6-6,6H276.8c-3.3,0-6-2.7-6-6l0,0c0-3.3,2.7-6,6-6h241.6
			C521.7,207.9,524.4,210.6,524.4,213.9L524.4,213.9z"/>
		<g>
			<g>
				<path class="st8" d="M340.8,140.3c0,7.3-2.9,13.8-7.5,18.7c-1.4,1.5-3,2.9-4.8,4c-0.2,0.1-0.4,0.3-0.6,0.4
					c-2.1,1.3-4.3,2.3-6.7,3c-0.2,0.1-0.4,0.1-0.6,0.2c-1.7,0.5-3.5,0.8-5.4,0.9c-0.5,0-1.1,0.1-1.6,0.1c-0.6,0-1.1,0-1.7-0.1
					c-3.2-0.2-6.4-1-9.2-2.2c-0.2-0.1-0.4-0.2-0.6-0.3c-3.1-1.5-5.9-3.5-8.2-6c-4.6-4.9-7.4-11.4-7.4-18.6c0-15,12.2-27.1,27.1-27.1
					C328.6,113.2,340.8,125.3,340.8,140.3z"/>
				<g>
					<path class="st14" d="M333.3,159c-1.4,1.5-3,2.9-4.8,4c-0.2,0.1-0.4,0.3-0.6,0.4c-2.1,1.3-4.3,2.3-6.7,3
						c-0.2,0.1-0.4,0.1-0.6,0.2c-1.7,0.5-3.5,0.8-5.4,0.9c-0.5,0-1.1,0.1-1.6,0.1c-0.6,0-1.1,0-1.7-0.1c-3.2-0.2-6.4-1-9.2-2.2
						c-0.2-0.1-0.4-0.2-0.6-0.3c-3.1-1.5-5.9-3.5-8.2-6c0.8-0.9,1.8-1.6,2.8-2.1l6.9-3.2l1.5-0.7h0l0,0l0.4-0.2l1.8-0.8l4.1-0.6
						l0.3-0.3l1.7-1.9V149l0.1,0.1l0.1-0.1v0.1l1.7,1.9l0.3,0.3l4.1,0.6l1.7,0.8l0.5,0.2h0l1.5,0.7l6.9,3.2
						C331.5,157.4,332.4,158.1,333.3,159z"/>
					<polygon class="st15" points="318.3,141.6 308.9,141.6 307.2,152.4 319.8,152.2 					"/>
					<path class="st16" d="M322.5,133.1c-0.4-3.3,1.1-9.5-2.7-11c-3.1-1.2-5.5-1.2-6.2-1.2c-0.7,0-3.1-0.1-6.2,1.2
						c-3.8,1.5-2.3,7.7-2.7,11c-0.4,3.3,1.4,10.6,3.1,13.3c2.1,3.4,9.3,3.4,11.7,0C321.2,143.8,322.9,136.4,322.5,133.1z"/>
					<path class="st16" d="M307.7,136c0,1.6-1,2.9-2.3,2.9c-1.3,0-2-1.3-2.3-2.9c-0.3-1.8,0.2-2.9,1.4-2.9
						C305.9,133.1,307.7,134.4,307.7,136z"/>
					<path class="st16" d="M319.3,136c0,1.6,1,2.9,2.3,2.9s2-1.3,2.3-2.9c0.3-1.8-0.2-2.9-1.4-2.9
						C321.2,133.1,319.3,134.4,319.3,136z"/>
					<path class="st11" d="M322.2,123.2c-1.6-1.6-3.6-2.4-5.1-2.5c-3.4-0.9-9.5,0.2-11.8,2.5c-1.8,1.8-0.8,8.5-0.8,8.5
						s0.3,2.9,0.5,2.9c0.2,0,0.5,0,0.5,0l1.3-6.2c0,0,6.5-0.6,10.2-2.6c1.7,1,3.5,1.6,3.5,1.6l1.5,7.2c0,0,0.3,0,0.5,0
						c0.2,0,0.5-2.9,0.5-2.9S324,125.1,322.2,123.2z"/>
				</g>
			</g>
			<rect x="293.1" y="171.6" class="st8" width="41" height="3"/>
			<rect x="302.5" y="177" class="st8" width="22.2" height="3"/>
		</g>
		<g>
			<polygon class="st10" points="308.3,68.8 301,68.8 301,61.4 293.8,61.4 293.8,68.8 286.5,68.8 286.5,75.9 293.8,75.9 293.8,83.3 
				301,83.3 301,75.9 308.3,75.9 			"/>
			<rect x="317.5" y="61.4" class="st8" width="41" height="3"/>
			<rect x="317.5" y="68" class="st8" width="22.2" height="3.2"/>
		</g>
		<polyline class="st17" points="506.6,72.3 499.3,72.3 495,88.3 487.3,72.3 480.4,81.4 470.1,64.5 456.3,86.7 448,69.4 439.8,78.3 
			433.3,59.3 427.2,73.5 417.5,73.5 		"/>
		<g class="st18">
			<rect x="385.5" y="137.3" class="st8" width="7.1" height="42.7"/>
			<rect x="406.9" y="164.8" class="st8" width="7.1" height="15.2"/>
			<rect x="396.2" y="153.9" class="st8" width="7.1" height="26.1"/>
			<rect x="428.3" y="140.2" class="st8" width="7.1" height="39.8"/>
			<rect x="417.5" y="153.9" class="st8" width="7.1" height="26.1"/>
		</g>
		<g>
			<rect x="443.1" y="146.5" class="st14" width="5.6" height="33.5"/>
			<rect x="459.9" y="168.1" class="st14" width="5.6" height="11.9"/>
			<rect x="451.5" y="159.5" class="st14" width="5.6" height="20.4"/>
			<rect x="476.7" y="148.8" class="st14" width="5.6" height="31.2"/>
			<rect x="468.2" y="159.5" class="st14" width="5.6" height="20.4"/>
		</g>
	</g>
	<g>
		<g>
			<path id="XMLID_283_" class="st19" d="M559,273.8h-59.4c-4.4,0-7.9-3.6-7.9-7.9l0-125c0-4.4,3.6-7.9,7.9-7.9H559
				c4.4,0,7.9,3.6,7.9,7.9v125C567,270.2,563.4,273.8,559,273.8"/>
			<g id="XMLID_238_">
				<rect id="XMLID_274_" x="495" y="141.3" class="st20" width="68.7" height="117.7"/>
			</g>
			<path id="XMLID_285_" class="st21" d="M566.7,166.7h-0.3v-10.5h0.3c0.6,0,1,0.5,1,1v8.4C567.8,166.2,567.3,166.7,566.7,166.7z"/>
			<path id="XMLID_284_" class="st13" d="M493.1,178h-0.5c-1.1,0-2-0.9-2-2v-18.2c0-1.1,0.9-2,2-2h0.5V178z"/>
			<g id="XMLID_278_">
				<circle id="XMLID_282_" class="st8" cx="540.5" cy="137.2" r="0.7"/>
				<circle id="XMLID_281_" class="st8" cx="543.1" cy="137.2" r="0.7"/>
				<circle id="XMLID_280_" class="st8" cx="516.1" cy="137.2" r="1.3"/>
				<path id="XMLID_279_" class="st22" d="M536.7,137.9H521c-0.3,0-0.6-0.3-0.6-0.6V137c0-0.3,0.3-0.6,0.6-0.6h15.7
					c0.3,0,0.6,0.3,0.6,0.6v0.3C537.3,137.7,537,137.9,536.7,137.9z"/>
			</g>
			<path id="XMLID_277_" class="st22" d="M535.1,269.5h-11.5c-1.4,0-2.5-1.1-2.5-2.5v-1.3c0-1.4,1.1-2.5,2.5-2.5h11.5
				c1.4,0,2.5,1.1,2.5,2.5v1.3C537.6,268.4,536.5,269.5,535.1,269.5z"/>
			<polygon id="XMLID_164_" class="st23" points="563.8,141.3 495.1,259.2 495.1,141.6 			"/>
		</g>
		<g>
			<g>
				<path class="st8" d="M547,192.9c0,4.8-1.9,9.1-4.9,12.3c-0.9,1-2,1.9-3.2,2.6c-0.1,0.1-0.3,0.2-0.4,0.2c-1.3,0.8-2.8,1.5-4.4,2
					c-0.1,0-0.3,0.1-0.4,0.1c-1.1,0.3-2.3,0.5-3.5,0.6c-0.4,0-0.7,0-1.1,0c-0.4,0-0.7,0-1.1,0c-2.1-0.1-4.2-0.6-6-1.5
					c-0.1-0.1-0.3-0.1-0.4-0.2c-2-1-3.9-2.3-5.4-3.9c-3-3.2-4.9-7.5-4.9-12.2c0-9.9,8-17.8,17.8-17.8
					C539.1,175.1,547,183.1,547,192.9z"/>
				<g>
					<path class="st14" d="M542.1,205.2c-0.9,1-2,1.9-3.2,2.6c-0.1,0.1-0.3,0.2-0.4,0.2c-1.3,0.8-2.8,1.5-4.4,2
						c-0.1,0-0.3,0.1-0.4,0.1c-1.1,0.3-2.3,0.5-3.5,0.6c-0.4,0-0.7,0-1.1,0c-0.4,0-0.7,0-1.1,0c-2.1-0.1-4.2-0.6-6-1.5
						c-0.1-0.1-0.3-0.1-0.4-0.2c-2-1-3.9-2.3-5.4-3.9c0.6-0.6,1.2-1,1.8-1.3l4.5-2.1l1-0.5h0l0,0l0.3-0.1l1.2-0.5l2.7-0.4l0.2-0.2
						l1.1-1.2v-0.1l0.1,0l0.1,0v0.1l1.1,1.2l0.2,0.2l2.7,0.4l1.1,0.5l0.3,0.1h0l1,0.5l4.5,2.1C540.9,204.1,541.6,204.6,542.1,205.2z
						"/>
					<polygon class="st15" points="532.2,193.8 526.1,193.8 525,200.9 533.3,200.7 					"/>
					<path class="st16" d="M535,188.2c-0.3-2.2,0.7-6.2-1.8-7.2c-2.1-0.8-3.6-0.8-4.1-0.8c-0.5,0-2,0-4.1,0.8
						c-2.5,1-1.5,5.1-1.8,7.2s0.9,7,2,8.7c1.4,2.2,6.1,2.2,7.7,0C534.2,195.2,535.3,190.3,535,188.2z"/>
					<path class="st16" d="M525.3,190.1c0,1-0.7,1.9-1.5,1.9c-0.8,0-1.3-0.9-1.5-1.9c-0.2-1.2,0.1-1.9,0.9-1.9
						C524.1,188.2,525.3,189,525.3,190.1z"/>
					<path class="st16" d="M533,190.1c0,1,0.7,1.9,1.5,1.9s1.3-0.9,1.5-1.9c0.2-1.2-0.1-1.9-0.9-1.9S533,189,533,190.1z"/>
					<path class="st11" d="M534.8,181.7c-1.1-1.1-2.3-1.6-3.4-1.6c-2.2-0.6-6.3,0.1-7.8,1.6c-1.2,1.2-0.5,5.6-0.5,5.6
						s0.2,1.9,0.3,1.9c0.1,0,0.4,0,0.4,0l0.9-4c0,0,4.3-0.4,6.7-1.7c1.1,0.6,2.3,1,2.3,1l1,4.7c0,0,0.2,0,0.4,0
						c0.1,0,0.3-1.9,0.3-1.9S536,182.9,534.8,181.7z"/>
				</g>
			</g>
			<rect x="515.7" y="213.5" class="st8" width="26.9" height="2"/>
			<rect x="521.9" y="217" class="st8" width="14.6" height="2"/>
		</g>
		<g>
			<polygon class="st10" points="519.9,156.3 515.1,156.3 515.1,151.5 510.4,151.5 510.4,156.3 505.5,156.3 505.5,161.1 
				510.4,161.1 510.4,165.9 515.1,165.9 515.1,161.1 519.9,161.1 			"/>
			<rect x="525.9" y="151.5" class="st8" width="26.9" height="2"/>
			<rect x="525.9" y="155.9" class="st8" width="14.6" height="2.1"/>
		</g>
		<polyline class="st17" points="558.5,240.4 553.7,240.4 550.8,250.8 545.8,240.4 541.2,246.3 534.5,235.2 525.4,249.8 
			519.9,238.4 514.6,244.3 510.3,231.8 506.3,241.1 499.9,241.1 		"/>
	</g>
</g>
<g>
	<rect x="199.4" y="113.1" class="st7" width="26.7" height="4.9"/>
	<rect x="199.4" y="104.8" class="st7" width="26.7" height="4.9"/>
	<rect x="199.4" y="96.5" class="st7" width="26.7" height="4.9"/>
	<rect x="199.4" y="88.2" class="st7" width="26.7" height="4.9"/>
	<rect x="199.4" y="79.9" class="st7" width="26.7" height="4.9"/>
	<rect x="229.9" y="113.1" class="st14" width="26.7" height="4.9"/>
	<rect x="229.9" y="104.8" class="st14" width="26.7" height="4.9"/>
	<rect x="229.9" y="96.5" class="st14" width="26.7" height="4.9"/>
</g>
<g>
	<path class="st4" d="M624.2,71.6c0.2-1,0.3-2.1,0.3-3.1c0-10.7-8.7-19.3-19.3-19.3c-0.1,0-0.2,0-0.3,0c-4.9-9.3-14.7-15.7-26-15.7
		c-16.2,0-29.4,13.1-29.4,29.4c0,0.6,0.1,1.3,0.1,1.9c-7.4,2.7-12.7,9.8-12.7,18.2c0,10.7,8.7,19.3,19.3,19.3h59.2
		c9.2,0,16.6-7.4,16.6-16.6C632,79.8,628.9,74.6,624.2,71.6z"/>
	<path class="st8" d="M575.5,61.9c-0.5-0.3-1-0.7-1.5-1.3c1.4-0.6,2.5-2,2.9-3.7c0.5-0.2,0.9-0.8,0.9-1.5c0-0.7-0.4-1.3-1-1.5
		c-0.6-2.2-2.5-3.8-4.7-3.8c-2.2,0-4,1.6-4.7,3.8c-0.6,0.2-1,0.8-1,1.5c0,0.7,0.4,1.3,0.9,1.5c0.4,1.7,1.5,3.1,2.9,3.7
		c-0.4,0.6-1,1-1.5,1.3c-3.3,1.1-6.5,3.1-7.3,5.9c2.9,1.5,7,2.4,10.5,2.4c3.5,0,7.6-0.9,10.5-2.4C582,65,578.8,63,575.5,61.9z"/>
	<path class="st14" d="M603.7,80.8c-0.8-0.4-1.5-1-2.2-2c2.2-1,3.9-3.1,4.5-5.6c0.8-0.3,1.4-1.2,1.4-2.2c0-1.1-0.6-2-1.5-2.2
		c-0.9-3.4-3.7-5.8-7.1-5.8c-3.3,0-6.2,2.5-7.1,5.8c-0.9,0.2-1.5,1.2-1.5,2.2c0,1.1,0.6,1.9,1.4,2.2c0.6,2.6,2.3,4.7,4.5,5.6
		c-0.7,0.9-1.5,1.6-2.2,2c-5,1.7-9.9,4.7-11.1,9.1c4.5,2.3,10.6,3.6,16,3.6c5.4,0,11.5-1.3,16-3.6C613.5,85.5,608.6,82.5,603.7,80.8
		z"/>
</g>
<g>
	<path class="st24" d="M239.1,134.6h-0.2h-17.3h-0.2h-17.3h-0.2h-17.3h-0.2h-17.5v17.5v0.2v17.3v0.2v17.3v0.2v17.5h17.5h0.2h17.3
		h0.2h17.3h0.2h17.3h0.2h17.5v-17.5v-0.2v-17.3v-0.2v-17.3v-0.2v-17.5H239.1z M221.6,134.8h17.3v17.3h-17.3V134.8z M238.9,169.6
		h-17.3v-17.3h17.3V169.6z M238.9,187.1h-17.3v-17.3h17.3V187.1z M186.6,169.8h17.3v17.3h-17.3V169.8z M186.6,152.3h17.3v17.3h-17.3
		V152.3z M221.4,169.6h-17.3v-17.3h17.3V169.6z M204.1,169.8h17.3v17.3h-17.3V169.8z M204.1,134.8h17.3v17.3h-17.3V134.8z
		 M186.6,134.8h17.3v17.3h-17.3V134.8z M169.1,134.8h17.3v17.3h-17.3V134.8z M169.1,152.3h17.3v17.3h-17.3V152.3z M169.1,169.8h17.3
		v17.3h-17.3V169.8z M186.3,204.6h-17.3v-17.3h17.3V204.6z M203.9,204.6h-17.3v-17.3h17.3V204.6z M221.4,204.6h-17.3v-17.3h17.3
		V204.6z M238.9,204.6h-17.3v-17.3h17.3V204.6z M256.4,204.6h-17.3v-17.3h17.3V204.6z M256.4,187.1h-17.3v-17.3h17.3V187.1z
		 M256.4,169.6h-17.3v-17.3h17.3V169.6z M239.1,152.1v-17.3h17.3v17.3H239.1z"/>
	<path class="st10" d="M253.7,142.7c-1.2,0-2.1,0.9-2.1,2.1c0,0.7,0.4,1.3,0.9,1.7l-10.9,33.3c0,0-0.1,0-0.1,0
		c-0.3,0-0.6,0.1-0.9,0.2l-12.7-14.1c0.2-0.3,0.3-0.7,0.3-1.1c0-1.2-0.9-2.1-2.1-2.1c-1.2,0-2.1,0.9-2.1,2.1c0,0.9,0.6,1.7,1.5,2
		l-0.7,34.9l-6.4-12.4c0.4-0.4,0.7-0.9,0.7-1.5c0-1.2-0.9-2.1-2.1-2.1c-1,0-1.7,0.6-2,1.5h-9c-0.2-0.9-1-1.5-2-1.5
		c-1.2,0-2.1,0.9-2.1,2.1c0,0.3,0.1,0.5,0.2,0.8l-10,7.8c-0.3-0.2-0.7-0.4-1.2-0.4c-0.4,0-0.8,0.2-1.1,0.4l-8.6-7.6
		c0.1-0.3,0.2-0.6,0.2-0.9c0-1.2-0.9-2.1-2.1-2.1c-1.2,0-2.1,0.9-2.1,2.1c0,0.5,0.2,1,0.6,1.4l-7.8,12.8c-0.2,0-0.4-0.1-0.5-0.1
		c-1.2,0-2.1,0.9-2.1,2.1c0,1.2,0.9,2.1,2.1,2.1c1.2,0,2.1-0.9,2.1-2.1c0-0.5-0.2-1-0.6-1.4l7.8-12.8c0.2,0.1,0.4,0.1,0.5,0.1
		c0.4,0,0.8-0.2,1.1-0.4l8.6,7.6c-0.1,0.3-0.2,0.6-0.2,0.9c0,1.2,0.9,2.1,2.1,2.1c1.2,0,2.1-0.9,2.1-2.1c0-0.3-0.1-0.5-0.2-0.8
		l10-7.8c0.3,0.2,0.7,0.4,1.2,0.4c1,0,1.7-0.7,2-1.5h9c0.3,0.9,1,1.5,2,1.5c0.1,0,0.3-0.1,0.4-0.1l6.5,12.6
		c-0.4,0.4-0.7,0.9-0.7,1.5c0,1.2,0.9,2.1,2.1,2.1c1.2,0,2.1-0.9,2.1-2.1c0-0.9-0.6-1.7-1.5-2l0.7-35.2c0.1,0,0.3-0.1,0.4-0.1
		l12.7,14.1c-0.2,0.3-0.3,0.7-0.3,1.1c0,1.2,0.9,2.1,2.1,2.1c1.2,0,2.1-0.9,2.1-2.1c0-0.7-0.4-1.3-0.9-1.7l10.9-33.3
		c0,0,0.1,0,0.1,0c1.2,0,2.1-0.9,2.1-2.1C255.8,143.6,254.8,142.7,253.7,142.7z"/>
</g>
<g>
	<path class="st25" d="M242.4,271c0,1.1,0,2.3,0,3.4c2.7,0,5.4,0,8,0c0.9-3.9,4.7-7,8.7-6.4c3.6,0.2,6.1,3.2,7.2,6.3v0.3h27.1
		c0.4-2.8,2.4-5.2,5-6.2c0.9-0.3,1.8-0.5,2.8-0.5c3.5,0,6.5,2.3,7.5,5.5c0.1,0.4,0.2,0.8,0.3,1.2h1.4v-1.2v-14.8v-17.4h-33.1
		c0,0,0-0.1,0-0.1h-7.8c0,0,0,0.1,0,0.1h-3.2v1.8c-4.1,0-8.2-0.1-12.4,0c0.3,4.1-1.6,7.7-2.6,11.6c-0.6,1.5-0.5,3.6-2.2,4.3
		c-1.7,0.9-3.5,1.6-5.2,2.4c-0.1,3.2,0,6.4-0.1,9.6C243.3,270.9,242.9,270.9,242.4,271z M252,258.2c0.8-3.1,1.8-6.2,2.6-9.3
		c2.1-0.1,4.2-0.1,6.3-0.1c0.1,3.1,0.1,6.2,0,9.4C258,258.3,255,258.3,252,258.2z M244.2,267.9c1.8,0,3.6,0,5.5,0c0,1.1,0,2.2,0,3.3
		c-1.8,0-3.7,0-5.5,0C244.2,270,244.2,269,244.2,267.9z"/>
	<path class="st25" d="M269.5,234.8c0-2.1,1.7-3.9,3.9-3.9c2.1,0,3.9,1.7,3.9,3.9c0,0.7,0,3.3,0,4.2h-7.8
		C269.5,238.2,269.5,235.6,269.5,234.8z"/>
	<path class="st4" d="M268.9,238.9c0,0.4,0.3,0.7,0.7,0.7h7.8c0.4,0,0.7-0.3,0.7-0.7l0,0c0-0.4-0.3-0.7-0.7-0.7h-7.8
		C269.3,238.2,268.9,238.5,268.9,238.9L268.9,238.9z"/>
	<g>
		<g>
			<g>
				<path class="st26" d="M250.4,276c0,4.5,3.6,8.1,8.1,8.1c4.5,0,8.1-3.6,8.1-8.1c0-4.5-3.6-8.1-8.1-8.1
					C254,267.9,250.4,271.5,250.4,276z M260.1,277.8c-0.4,0.4-1,0.6-1.6,0.6c-0.6,0-1.2-0.2-1.6-0.6c-0.5-0.4-0.8-1.1-0.8-1.8
					c0-0.2,0-0.3,0-0.4c0.2-1.1,1.2-2,2.4-2c1.2,0,2.2,0.9,2.4,2c0,0.1,0,0.3,0,0.4C260.9,276.7,260.6,277.3,260.1,277.8z"/>
			</g>
		</g>
		<g>
			<g>
				<path class="st26" d="M293.2,276c0,4.5,3.6,8.1,8.1,8.1c4.5,0,8.1-3.6,8.1-8.1c0-4.5-3.6-8.1-8.1-8.1
					C296.8,267.9,293.2,271.5,293.2,276z M302.9,277.8c-0.4,0.4-1,0.6-1.6,0.6c-0.6,0-1.2-0.2-1.6-0.6c-0.5-0.4-0.8-1.1-0.8-1.8
					c0-0.2,0-0.3,0-0.4c0.2-1.1,1.2-2,2.4-2c1.2,0,2.2,0.9,2.4,2c0,0.1,0,0.3,0,0.4C303.7,276.7,303.4,277.3,302.9,277.8z"/>
			</g>
		</g>
		<g>
			<path class="st26" d="M269.5,244.4v23h26.1v-23H269.5z M275.7,253.5h5.1v-5.1h5.1v5.1h5.1v5.1h-5.1v5.1h-5.1v-5.1h-5.1V253.5z"/>
		</g>
	</g>
</g>
<g>
	<path class="st14" d="M118.3,101.7c-5.3,2.2-11.1,2.2-16.3,0c-4.4-1.8-8-5-10.4-9.1h8.8v-3.5H87v13.4h3.5v-5.1
		c6.7,8.6,18.6,12,29.1,7.7c4-1.7,7.5-4.4,10.2-7.8c2.6-3.3,4.3-7.3,4.9-11.4l-3.5-0.5C130.1,92.7,125.2,98.8,118.3,101.7z"/>
	<path class="st14" d="M119.6,59c-6.1-2.5-12.9-2.5-19,0c-4,1.7-7.5,4.4-10.2,7.8c-2.6,3.3-4.3,7.3-4.9,11.4l3.5,0.5
		c1.2-7.4,6-13.6,12.9-16.5c5.3-2.2,11.1-2.2,16.3,0c4.4,1.8,8,5,10.4,9.1h-8.8v3.5h13.4V61.5h-3.5v5.1
		C127.1,63.3,123.7,60.7,119.6,59z"/>
</g>
<g>
	<line class="st27" x1="707.9" y1="196.8" x2="736.2" y2="196.8"/>
	<line class="st27" x1="740.8" y1="196.8" x2="747" y2="196.8"/>
	<line class="st27" x1="747" y1="217" x2="718.7" y2="217"/>
	<line class="st27" x1="714.2" y1="217" x2="707.9" y2="217"/>
	<line class="st27" x1="707.9" y1="206.8" x2="725" y2="206.8"/>
	<line class="st27" x1="729.7" y1="206.8" x2="747" y2="206.8"/>
	<line class="st27" x1="707.9" y1="236.6" x2="725" y2="236.6"/>
	<line class="st27" x1="729.7" y1="236.6" x2="747" y2="236.6"/>
	<line class="st27" x1="707.9" y1="227.1" x2="747" y2="227.1"/>
</g>
<g>
	<path class="st28" d="M732.8,133c-3.4-1.3-6.4-3.5-8.4-6.2c-2.4-3.1-3.7-6.8-3.9-10.7c-0.2-3.9,0.9-7.6,3-10.9
		c2.1-3.2,5.1-5.7,8.6-7.1c3.6-1.5,7.4-1.8,11-0.9l0.3,0.1l-0.5,1.8c-0.4,1.3-0.8,2.6-1.1,3.9c-1,3.5-2.1,7.1-3,10.7
		c-0.3,1.1-0.3,2.3,0,3.5c0.8,3.5,1.7,7,2.6,10.5c0.3,1.3,0.7,2.7,1,4.1c0.1,0.3,0.2,0.7,0.2,1c0,0.2,0.1,0.3,0.1,0.5l0.1,0.3
		l-0.3,0.1c-1.1,0.4-2.4,0.5-3.6,0.5C736.9,134.2,734.9,133.8,732.8,133z M742,133c-0.1-0.3-0.1-0.7-0.2-1c-0.3-1.4-0.7-2.8-1-4.1
		c-0.9-3.4-1.8-7-2.6-10.5c-0.3-1.2-0.3-2.6,0-3.7c1-3.6,2-7.2,3-10.7c0.4-1.3,0.8-2.6,1.1-3.9l0.3-1.1c-7.1-1.5-14.6,1.6-18.7,7.8
		c-4.1,6.3-3.8,14.7,0.8,20.8c4,5.3,11.6,8.2,17.2,6.7C742,133.1,742,133,742,133z"/>
	<path class="st28" d="M740.3,116.9l16.4,4.7l-0.1,0.3c-2.1,5.6-6,9.3-11.8,11.4l-0.3,0.1L740.3,116.9z M741.2,117.7l3.7,14.9
		c5.4-2,9-5.5,11-10.6L741.2,117.7z"/>
	<path class="st28" d="M740.3,114.9l4.8-16.9l0.3,0.1c4,1.2,7.6,4.2,9.9,8.3c2.3,4.1,3,8.9,2,13l-0.1,0.3L740.3,114.9z M741,114.5
		l15.7,4.5c1.9-8.2-3.4-17.7-11.2-20.2L741,114.5z"/>
</g>
<g>
	<path class="st28" d="M106.3,197.6l-0.3,0l-38.6-0.1l0.1-22.9l0.3,0l38.6,0.1L106.3,197.6z M68,196.9l37.7,0.1l0.1-21.7l-37.7-0.1
		L68,196.9z"/>
	<path class="st28" d="M106.7,174.8l-19.9,14.4l-19.4-14.5L106.7,174.8z M86.8,188.4l18.1-13.1l-35.8-0.1L86.8,188.4z"/>
	<path class="st28" d="M106.5,197.6l-39.1-0.1l14.8-12.6l4.6,3.4l4.4-3.2L106.5,197.6z M69,196.9l35.9,0.1l-13.7-11.2l-4.4,3.2
		l-4.5-3.4L69,196.9z"/>
</g>
<g>
	<path class="st28" d="M665.6,273.1c-2.3-1.6-2.4-5.3-0.3-8.3l8.9-12.9c0.3-0.4,0.8-0.5,1.2-0.3l0.8,0.5l3-4.4
		c-2.7-2.7-4.4-6.3-4.8-10.1c-0.4-4,0.6-8,2.9-11.2c5.2-7.6,15.7-9.6,23.4-4.3c7.6,5.3,9.6,15.7,4.3,23.4c-3.2,4.7-8.5,7.3-13.9,7.3
		c-2.1,0-4.3-0.4-6.4-1.3l-3,4.4l0.6,0.4c0.3,0.2,0.4,0.6,0.3,1l0,0l-9,13.2c-1,1.5-2.4,2.5-3.8,3c-0.6,0.2-1.2,0.3-1.8,0.3
		C667.1,273.8,666.3,273.5,665.6,273.1z M681.7,257.4l0.2-0.3c0.1-0.1,0.1-0.3,0-0.3l-1.1-0.8l3.7-5.4l0.2,0.1
		c7.1,3,15.3,0.6,19.7-5.7c5-7.3,3.2-17.4-4.2-22.5c-7.3-5-17.4-3.2-22.5,4.2c-4.5,6.5-3.6,15.2,2,20.7l0.2,0.2l-3.7,5.4l-1.3-0.9
		c-0.1-0.1-0.2,0-0.3,0.1l-8.9,12.9c-1.9,2.7-1.8,6.1,0.2,7.4c0.9,0.6,2.2,0.8,3.5,0.3c1.3-0.5,2.6-1.5,3.5-2.8L681.7,257.4
		L681.7,257.4z M684,246.2c-2.7-1.9-4.6-4.7-5.2-8c-0.6-3.3,0.1-6.6,2-9.3c1.9-2.8,4.8-4.7,8.2-5.2c3.2-0.6,6.5,0.2,9.2,2
		c5.7,3.9,7.1,11.7,3.2,17.3c-0.8,1.2-1.9,2.3-3.1,3.1c-2.1,1.5-4.5,2.3-7,2.3c-0.1,0-0.1,0-0.2,0
		C688.6,248.4,686.1,247.6,684,246.2z M689.1,224.2c-3.2,0.5-5.9,2.3-7.7,5c-1.8,2.6-2.5,5.7-1.9,8.8c0.6,3.1,2.3,5.8,4.9,7.6
		c4.1,2.8,9.5,2.8,13.5-0.1l0,0c1.1-0.8,2.1-1.8,2.9-3c3.7-5.4,2.3-12.7-3-16.4c-2-1.4-4.3-2.1-6.7-2.1
		C690.4,224.1,689.8,224.1,689.1,224.2z"/>
	<path class="st28" d="M690.2,248.3c-3.3-0.2-6.4-1.7-8.5-4.3c-2.2-2.5-3.3-5.7-3-9.1c0.5-6.9,6.5-12.1,13.3-11.6
		c3.3,0.2,6.4,1.7,8.5,4.3c2.2,2.5,3.3,5.7,3,9.1c-0.2,3.3-1.7,6.4-4.3,8.5c-2.3,2-5.2,3.1-8.2,3.1
		C690.8,248.4,690.5,248.4,690.2,248.3z M679.3,235.1c-0.5,6.5,4.5,12.2,11,12.6c3.2,0.2,6.2-0.8,8.6-2.9c2.4-2.1,3.8-4.9,4-8.1
		c0.5-6.5-4.5-12.2-11-12.6c-0.3,0-0.6,0-0.8,0C684.9,224.1,679.7,228.8,679.3,235.1z"/>
</g>
</svg>
