<?xml version="1.0" encoding="utf-8"?>
<!-- Generator: Adobe Illustrator 21.1.0, SVG Export Plug-In . SVG Version: 6.00 Build 0)  -->
<svg version="1.1" xmlns="http://www.w3.org/2000/svg" xmlns:xlink="http://www.w3.org/1999/xlink" x="0px" y="0px"
	 viewBox="0 0 835 280" style="enable-background:new 0 0 835 280;" xml:space="preserve">
<style type="text/css">
	.st0{fill:url(#XMLID_29_);}
	.st1{fill:#686868;}
	.st2{fill:url(#XMLID_30_);}
	.st3{fill:url(#XMLID_31_);}
	.st4{fill:#310054;}
	.st5{fill:#7937E2;}
	.st6{fill:#00C3FF;}
	.st7{fill:#9EA2A2;}
	.st8{fill:#BDDDF4;}
	.st9{fill:url(#XMLID_61_);}
	.st10{fill:url(#XMLID_69_);}
	.st11{fill:url(#XMLID_70_);}
	.st12{fill:url(#XMLID_71_);}
	.st13{fill:#0071BC;}
	.st14{fill:#70BEF2;}
	.st15{fill:#FF8564;}
	.st16{fill:#F96041;}
	.st17{fill:#9EA2A2;stroke:#9EA2A2;stroke-miterlimit:10;}
	.st18{fill:#ED8B00;}
	.st19{fill:#EA6400;}
	.st20{fill:#FBB040;}
	.st21{filter:url(#Adobe_OpacityMaskFilter);}
	.st22{filter:url(#Adobe_OpacityMaskFilter_1_);}
	.st23{mask:url(#XMLID_72_);fill:url(#XMLID_73_);}
	.st24{fill:#29A0E2;}
	.st25{fill:#FFA67A;}
	.st26{fill:#C7C9C7;}
	.st27{fill:#033659;}
	.st28{fill:#0E3651;}
	.st29{fill:#0B4F87;}
	.st30{fill:#FFFFFF;}
	.st31{fill:#1D1D1E;}
	.st32{fill:#DB8D69;}
	.st33{fill:#EDA637;}
	.st34{fill:#DB8F2C;}
	.st35{fill:#E0CEE3;}
	.st36{fill:#7F4617;}
	.st37{fill:#71BE72;}
	.st38{fill:none;stroke:#71BE72;stroke-width:2;stroke-miterlimit:10;}
	.st39{fill:none;stroke:#F8B133;stroke-width:2;stroke-miterlimit:10;}
	.st40{fill:none;stroke:#FF8564;stroke-width:2;stroke-miterlimit:10;}
	.st41{fill:none;stroke:#FFFFFF;stroke-width:2;stroke-miterlimit:10;}
	.st42{fill:#48A23F;}
	.st43{fill:url(#XMLID_74_);}
</style>
<g id="design">
</g>
<g id="color_palette">
	<g id="smartphone">
		<g id="smartphone_1_">
			
				<linearGradient id="XMLID_29_" gradientUnits="userSpaceOnUse" x1="-294.128" y1="249.3604" x2="-297.0966" y2="249.3604" gradientTransform="matrix(-1 0 0 1 189.6294 0)">
				<stop  offset="0.5591" style="stop-color:#00ADDB"/>
				<stop  offset="0.9122" style="stop-color:#00ADDB"/>
			</linearGradient>
			<path id="XMLID_462_" class="st0" d="M483.7,247.5l3,0.1v3.3c-0.8,0.4-2.1,0.4-3-0.1V247.5z"/>
			<path class="st1" d="M487.1,248.6l-3-0.1l-63.9-37.3c0,0,0,1.3,0,2.2c0,1.7,2.1,2.8,2.5,3.1l61.3,35.3c0.9,0.5,2.3,0.6,3,0.1
				l28.9-16.6c0.5-0.3,2.5-1.4,2.5-3.1c0-0.9,0-2.2,0-2.2L487.1,248.6z"/>
			<g id="XMLID_409_">
				<g id="XMLID_440_">
					
						<linearGradient id="XMLID_30_" gradientUnits="userSpaceOnUse" x1="548.9044" y1="42.3325" x2="558.9946" y2="42.3325" gradientTransform="matrix(0.866 -0.5 -1.5 -0.2887 22.8929 491.5401)">
						<stop  offset="0" style="stop-color:#220049"/>
						<stop  offset="1" style="stop-color:#3E0060"/>
					</linearGradient>
					<path id="XMLID_442_" class="st2" d="M434.8,204.6l7.9-4.6c0.2-0.1,0.6-0.1,0.8,0c0.1,0,0.1,0.1,0.2,0.2c0.1-0.1,0-0.3-0.2-0.4
						c-0.2-0.1-0.6-0.1-0.8,0l-7.9,4.6c-0.1,0.1-0.2,0.2-0.1,0.3C434.7,204.6,434.7,204.6,434.8,204.6z"/>
					
						<linearGradient id="XMLID_31_" gradientUnits="userSpaceOnUse" x1="548.144" y1="41.8069" x2="538.0817" y2="41.0575" gradientTransform="matrix(0.866 -0.5 -1.5 -0.2887 22.8929 491.5401)">
						<stop  offset="0" style="stop-color:#6933FF"/>
						<stop  offset="1" style="stop-color:#7359FF"/>
					</linearGradient>
					<path id="XMLID_441_" class="st3" d="M434.8,204.8c0.2,0.1,0.6,0.1,0.8,0l7.9-4.6c0,0,0.1-0.1,0.1-0.1c0-0.1-0.1-0.1-0.2-0.2
						c-0.2-0.1-0.6-0.1-0.8,0l-7.9,4.6c0,0-0.1,0.1-0.1,0.1C434.7,204.7,434.7,204.8,434.8,204.8z"/>
				</g>
				<g id="XMLID_436_">
					<path id="XMLID_437_" class="st4" d="M497.8,239.1c-0.5,0-1-0.1-1.4-0.4c-0.4-0.2-0.7-0.6-0.7-0.9c0-0.3,0.2-0.6,0.5-0.8l5.2-3
						c0.7-0.4,1.8-0.3,2.6,0.1c0.4,0.2,0.7,0.6,0.7,0.9c0,0.3-0.2,0.6-0.5,0.8l-5.2,3C498.6,239,498.2,239.1,497.8,239.1z
						 M502.5,234.2c-0.4,0-0.7,0.1-0.9,0.2l-5.2,3c-0.1,0.1-0.3,0.2-0.3,0.4c0,0.2,0.2,0.4,0.5,0.6c0.6,0.4,1.6,0.4,2.2,0.1l5.2-3
						c0.1-0.1,0.3-0.2,0.3-0.4c0-0.2-0.2-0.4-0.5-0.6C503.4,234.3,503,234.2,502.5,234.2z"/>
				</g>
				<g id="XMLID_427_">
					<path id="XMLID_434_" class="st5" d="M498.9,238.7l5.2-3c0.6-0.4,0.5-1-0.2-1.4l0,0c-0.7-0.4-1.8-0.4-2.4-0.1l-5.2,3
						c-0.6,0.4-0.5,1,0.2,1.4l0,0C497.2,239,498.2,239,498.9,238.7z"/>
					<g id="XMLID_429_">
						<path id="XMLID_430_" class="st6" d="M497.8,239c-0.5,0-1-0.1-1.4-0.3c-0.4-0.2-0.6-0.5-0.6-0.8c0-0.3,0.2-0.5,0.4-0.6l5.2-3
							c0.6-0.4,1.7-0.3,2.4,0.1c0.4,0.2,0.6,0.5,0.6,0.8c0,0.3-0.2,0.5-0.4,0.6l-5.2,3C498.6,238.9,498.2,239,497.8,239z M502.5,234
							c-0.4,0-0.7,0.1-1,0.2l-5.2,3c-0.2,0.1-0.4,0.3-0.4,0.5c0,0.3,0.2,0.5,0.5,0.7c0.7,0.4,1.7,0.4,2.3,0.1l5.2-3
							c0.2-0.1,0.4-0.3,0.4-0.5c0-0.3-0.2-0.5-0.5-0.7l0,0C503.5,234.2,503,234,502.5,234z"/>
					</g>
				</g>
				<path id="XMLID_444_" class="st7" d="M484.5,249L421,211.7c-0.3-0.2-0.5-0.4-0.5-0.6c0-0.2,0.2-0.3,0.3-0.3l31.2-19.6
					c0.3-0.2,0.6-0.2,1.1-0.2c0.5,0,1.1,0.1,1.5,0.4l63.5,37.9c0.3,0.2,0.5,0.4,0.5,0.6c0,0.2-0.2,0.3-0.3,0.3l-31.2,18.6
					C485.5,250,484.9,249.2,484.5,249z"/>
				<path id="XMLID_435_" class="st8" d="M482.5,243.6c0.1,0,0.2,0,0.3-0.1l28-16.2c0,0,0,0,0,0l0,0c0,0,0,0-0.1-0.1l-54.5-31.5
					c-0.1-0.1-0.3-0.1-0.4-0.1c-0.1,0-0.2,0-0.3,0.1l-28,16.2c0,0,0,0,0,0c0,0,0,0,0,0c0,0,0,0,0.1,0.1l54.5,31.5
					C482.2,243.6,482.3,243.6,482.5,243.6z"/>
			</g>
		</g>
		<g id="XMLID_370_">
			<linearGradient id="XMLID_61_" gradientUnits="userSpaceOnUse" x1="427.3143" y1="205.27" x2="461.0264" y2="205.27">
				<stop  offset="0" style="stop-color:#0071BC"/>
				<stop  offset="1" style="stop-color:#0B4F87"/>
			</linearGradient>
			<polygon id="XMLID_408_" class="st9" points="455.8,195.5 461,198.6 432.6,215 427.3,212 			"/>
			<g id="XMLID_400_">
				<linearGradient id="XMLID_69_" gradientUnits="userSpaceOnUse" x1="459.7418" y1="223.809" x2="488.5385" y2="223.809">
					<stop  offset="0" style="stop-color:#0071BC"/>
					<stop  offset="1" style="stop-color:#0B4F87"/>
				</linearGradient>
				<path id="XMLID_403_" class="st10" d="M483.2,221.5c1.2,0.8,1.4,1.4,0.7,1.8c-2.2,1.3-6.8,3.9-6.9,4l2.4,1.4
					c0.3,0.2,0.5,0.2,0.6,0.1c2-1.2,6.2-3.6,6.3-3.6c0.4-0.1,1,0,1.6,0.4c0.6,0.3,0.8,0.7,0.6,0.9c-0.1,0.1-4.8,2.8-7,4
					c-0.4,0.2-1.1,0.2-1.8-0.2c-0.7-0.4-3.9-2.3-3.9-2.3c-3.6-1.5-7.2-3-10.8-4.5c-0.5-0.2-0.7-0.2-0.9-0.1l-1.8,1
					c-0.4,0.2-0.8,0.4-1.9-0.3c-1.1-0.6-0.8-0.8-0.5-0.9c0.9-0.5,1.7-1,2.6-1.5c0.3-0.1,0.7-0.1,1.3,0.1c0.4,0.1,0.8,0.3,1.1,0.5
					c0.4,0.2,0.6,0.2,0.8,0.1c3-1.7,6-3.5,9-5.2c0.6-0.4,1.5-0.4,2.5,0.2C478.7,218.2,482.4,221,483.2,221.5z M477,218.6
					c-2.9,1.7-8.8,5.1-8.8,5.1l1.2,0.5c0.4,0.2,0.6,0.2,0.8,0.1c2.6-1.5,5.3-3,7.9-4.6c0.2-0.1,0.2-0.2-0.1-0.4
					C477.7,219.1,477.4,218.9,477,218.6z M480.4,221l-7.8,4.5l1.3,0.5c0.4,0.2,0.5,0.2,0.7,0.1c1.1-0.7,2.3-1.3,3.4-2
					c1.2-0.7,2.4-1.4,3.6-2c0.1-0.1,0.1-0.2-0.1-0.3L480.4,221z"/>
				<linearGradient id="XMLID_70_" gradientUnits="userSpaceOnUse" x1="482.4897" y1="231.7781" x2="486.7666" y2="231.7781">
					<stop  offset="0" style="stop-color:#0071BC"/>
					<stop  offset="1" style="stop-color:#0B4F87"/>
				</linearGradient>
				<path id="XMLID_402_" class="st11" d="M482.7,230.7c0.5-0.3,1.8-0.1,2.8,0.5c1.1,0.6,1.5,1.4,0.9,1.7c-0.5,0.3-1.8,0.1-2.8-0.6
					C482.6,231.7,482.2,231,482.7,230.7z"/>
				<linearGradient id="XMLID_71_" gradientUnits="userSpaceOnUse" x1="488.4457" y1="228.3557" x2="492.7199" y2="228.3557">
					<stop  offset="0" style="stop-color:#0071BC"/>
					<stop  offset="1" style="stop-color:#0B4F87"/>
				</linearGradient>
				<path id="XMLID_401_" class="st12" d="M488.7,227.3c0.5-0.3,1.8-0.1,2.9,0.5c1,0.6,1.5,1.3,1,1.6c-0.5,0.3-1.8,0.1-2.9-0.5
					C488.6,228.3,488.1,227.6,488.7,227.3z"/>
			</g>
		</g>
	</g>
	<g id="box_x5F_1_1_">
		<g id="XMLID_467_">
			<polygon id="XMLID_477_" class="st13" points="76.3,139.2 109.4,158.3 109.4,120.1 76.3,101 			"/>
			<polygon id="XMLID_476_" class="st14" points="76.3,101 109.4,120.1 142.5,101 109.4,81.9 			"/>
			<polygon id="XMLID_474_" class="st8" points="142.5,139.2 109.4,158.3 109.4,120.1 142.5,101 			"/>
			<polygon id="XMLID_473_" class="st15" points="126,150.1 124.8,149.4 124.8,111.2 126,111.9 			"/>
			<polygon id="XMLID_472_" class="st15" points="92.9,150.1 94.1,149.4 94.1,111.2 92.9,111.9 			"/>
			<polygon id="XMLID_471_" class="st16" points="127.3,90.7 109.4,100.2 91.6,90.7 91.6,92.1 107.5,101.3 91.6,109.8 91.6,111.2 
				91.6,111.2 91.6,149.4 92.9,150.1 92.9,111.9 92.9,111.9 109.4,102.4 126,111.9 126,150.1 127.3,149.4 127.3,111.2 127.3,111.2 
				127.3,109.8 111.4,101.3 127.3,92.1 			"/>
			<polygon id="XMLID_469_" class="st15" points="91.6,109.8 92.9,110.5 127.3,90.7 126,89.9 			"/>
			<polygon id="XMLID_468_" class="st15" points="127.3,109.8 126,110.5 91.6,90.7 92.9,89.9 			"/>
		</g>
	</g>
	<g id="box_x5F_4_1_">
		<g id="XMLID_1081_">
			<g id="XMLID_1082_">
				<g id="XMLID_1103_">
					<path id="XMLID_1107_" class="st17" d="M52,160.3c0,1.5-1,3.3-2.3,4c-1.3,0.7-2.3,0.1-2.3-1.3s1-3.3,2.3-4S52,158.8,52,160.3z"
						/>
					<path id="XMLID_1106_" class="st17" d="M79.9,144.1c0,1.5-1,3.3-2.3,4c-1.3,0.7-2.3,0.1-2.3-1.3c0-1.5,1-3.3,2.3-4
						C78.9,142.1,79.9,142.7,79.9,144.1z"/>
					<g id="XMLID_1104_">
						<path id="XMLID_1105_" class="st17" d="M77,145.9c0-0.3-3-30.8-13.4-24.9c-10.3,6-13.4,40-13.4,40.3c0,0,0,0.6-0.6,0.9
							c-0.6,0.3-0.6-0.4-0.6-0.4c0.1-1.5,3.2-35.6,14.6-42.2c11.4-6.6,14.4,24.1,14.6,25.4c0,0,0,0.7-0.6,1.1
							C77.1,146.4,77,145.9,77,145.9z"/>
					</g>
				</g>
				<g id="XMLID_1089_">
					<polygon id="XMLID_1102_" class="st18" points="77.8,199.8 31.5,226.5 39,161.4 85.3,134.6 					"/>
					<polygon id="XMLID_1101_" class="st19" points="61.8,244 46.7,229.8 46.7,165.8 54.2,170.1 					"/>
					<polygon id="XMLID_1100_" class="st18" points="31.5,226.5 46.7,229.8 46.7,165.8 39,161.4 					"/>
					<polygon id="XMLID_1099_" class="st20" points="108.1,217.3 61.8,244 54.2,170.1 100.5,143.3 					"/>
					<polygon id="XMLID_1098_" class="st19" points="85.3,134.6 39,161.4 54.2,170.1 100.5,143.3 					"/>
					<g id="XMLID_1090_">
						<polygon id="XMLID_1097_" class="st20" points="85.3,151.1 54.2,169 40.9,161.4 85.3,135.7 85.3,134.6 39,161.4 54.2,170.1 
							85.3,152.2 						"/>
						<path id="XMLID_1094_" class="st20" d="M85.3,134.6L39,161.4l15.3,8.7l31-17.9l15.3-8.8L85.3,134.6z M54.2,169l-13.4-7.6
							l44.4-25.6l0,0l13.4,7.6l-13.4,7.7L54.2,169z"/>
						<polygon id="XMLID_1092_" class="st20" points="40.9,161.4 54.2,169 85.3,151.1 85.3,135.7 						"/>
						<polygon id="XMLID_1091_" class="st18" points="40.9,161.4 54.2,169 85.3,151.1 85.3,135.7 						"/>
					</g>
				</g>
				<g id="XMLID_1083_">
					<path id="XMLID_1088_" class="st17" d="M66.4,168.7c0,1.5-1,3.3-2.3,4c-1.3,0.7-2.3,0.1-2.3-1.3c0-1.5,1-3.3,2.3-4
						C65.4,166.6,66.4,167.2,66.4,168.7z"/>
					<path id="XMLID_1087_" class="st17" d="M94.3,152.5c0,1.5-1,3.3-2.3,4c-1.3,0.7-2.3,0.1-2.3-1.3c0-1.5,1-3.3,2.3-4
						C93.3,150.5,94.3,151.1,94.3,152.5z"/>
					<g id="XMLID_1084_">
						<path id="XMLID_1085_" class="st17" d="M91.5,154.3c0-0.3-3-30.8-13.4-24.9c-10.3,6-13.4,40-13.4,40.3c0,0,0,0.6-0.6,0.9
							c-0.6,0.3-0.6-0.4-0.6-0.4c0.1-1.5,3.2-35.6,14.6-42.2c11.4-6.6,14.4,24.1,14.6,25.4c0,0,0,0.7-0.6,1.1
							C91.6,154.8,91.5,154.3,91.5,154.3z"/>
					</g>
				</g>
			</g>
		</g>
	</g>
	<g id="_x32_4_x2F_7_1_">
		<g id="XMLID_1324_">
			<path id="XMLID_1331_" class="st24" d="M111.5,269.9V266l3.1-5c5.2-8.4,7.7-12.9,7.8-16.1c0-2.2-5.1,5.7-5.1,5.7l-3.9-2.2
				l-1.6-3.7c1.8-2.6,4.6-5.5,7.8-7.3c2.8-1.6,4.9-1.9,6.3-1c1.3,0.8,3.9,2.3,3.9,2.3s-2.4,12.4-5.8,18l1.9-0.2l2.5-1.4l3.9,2.2
				l-3.9,3l-13,12L111.5,269.9z"/>
			<path id="XMLID_1329_" class="st24" d="M141.6,252.5V246l-6.7,8.3l-3.9-2.2v-4.2l9-21.9l6.8-3.9l3.9,2.2l-3.9,13.8l2.9-1.6
				l3.9,2.2l-3.9,2.6l-2.9,1.6l-1.4,11.8L141.6,252.5z"/>
			<path id="XMLID_1327_" class="st24" d="M151.1,248.7l7.8-35.1l3.7-2.1l3.9,2.2L155,251L151.1,248.7z"/>
			<path id="XMLID_1325_" class="st24" d="M181.2,202.2l3.9,2.2L169.4,241l-3.9-2.2l9.8-27.7v-0.1l-7,8.5l-2.7-1.6l0.9-4.2l-2.1-1.2
				v-0.6L181.2,202.2z"/>
		</g>
		<g id="XMLID_1314_">
			<path id="XMLID_1322_" class="st14" d="M115.4,272.1v-3.9l3.1-5c5.2-8.4,7.7-12.9,7.8-16.1c0-2.2-1.2-3.3-3.9-1.7
				c-2,1.2-3.8,3.4-5.1,5.2l-1.6-3.7c1.8-2.6,4.6-5.5,7.8-7.3c5.4-3.1,8.3-1.2,8.3,3.8c0,4.6-2.9,9.9-6.3,15.5l-2.2,3.4v0.1l9-5.2
				v5.3L115.4,272.1z"/>
			<path id="XMLID_1319_" class="st14" d="M145.5,254.7v-6.5l-10.5,6.1v-4.2l9-21.9l6.8-3.9v16.1l2.9-1.6v4.8l-2.9,1.6v6.5
				L145.5,254.7z M145.5,243.4v-6.1c0-1.6,0.1-3.4,0.2-5.2l-0.1,0.1c-0.8,2.2-1.4,4.2-2.2,6.4l-3.2,7.8v0.1L145.5,243.4z"/>
			<path id="XMLID_1317_" class="st14" d="M155,251l7.8-35.1l3.7-2.1l-7.8,35.1L155,251z"/>
			<path id="XMLID_1315_" class="st14" d="M185,204.5v4.1l-9.8,29l-5.9,3.4l9.8-27.7v-0.1l-10.9,6.3v-5.3L185,204.5z"/>
		</g>
	</g>
	<polygon id="XMLID_1047_" class="st14" points="488.8,268.5 361.7,195.1 360.5,195.8 487.6,269.2 	"/>
	<polyline id="XMLID_1_" class="st14" points="537.4,216.4 586.3,244.7 587.5,244 538.7,215.8 	"/>
	<polygon id="XMLID_1049_" class="st14" points="538.5,277.5 586.4,249.8 587.6,250.5 539.7,278.2 	"/>
	<polygon id="XMLID_1086_" class="st14" points="505.7,264.9 528.6,278.1 529.8,277.4 506.9,264.2 	"/>
	<polygon id="XMLID_1128_" class="st14" points="497.6,268.5 512.5,259.9 513.7,260.6 498.8,269.2 	"/>
	<polygon id="XMLID_215_" class="st14" points="324.1,272.7 344.6,260.8 345.8,261.5 325.3,273.4 	"/>
	<polygon id="XMLID_62_" class="st14" points="353.3,255.8 408.9,223.7 411.1,223.8 355.5,255.9 	"/>
	<polygon id="XMLID_253_" class="st14" points="247,272.9 280.2,253.7 281.4,254.4 248.2,273.6 	"/>
	<polygon id="XMLID_26_" class="st14" points="126,158.9 165.1,136.3 166.4,136.9 127.3,159.5 	"/>
	<g id="XMLID_1053_">
		<path id="XMLID_1114_" class="st14" d="M513.7,254.1l-1.2,0.7c2.4,1.4,2.4,3.7,0,5.1l1.2,0.7C516.8,258.8,516.8,255.9,513.7,254.1
			z"/>
	</g>
	<g id="XMLID_1143_">
		<g id="XMLID_1113_">
			<path id="XMLID_1117_" class="st14" d="M591,251.1c-1.7,0-3.3-0.4-4.6-1.1c-1.3-0.8-2.1-1.9-2.1-3c0-1.2,0.7-2.2,2.1-3
				c2.6-1.5,6.6-1.5,9.2,0c1.3,0.8,2.1,1.9,2.1,3c0,1.2-0.7,2.2-2.1,3l0,0C594.3,250.8,592.7,251.1,591,251.1z M591,244.1
				c-1.4,0-2.9,0.3-4,1c-1,0.5-1.5,1.2-1.5,2c0,0.7,0.5,1.4,1.5,2c2.2,1.3,5.8,1.3,8,0l0,0c1-0.5,1.5-1.2,1.5-2c0-0.7-0.5-1.4-1.5-2
				C593.9,244.4,592.5,244.1,591,244.1z"/>
		</g>
		<path id="XMLID_1116_" class="st14" d="M593.3,248.3c-1.2,0.7-3.3,0.7-4.5,0c-1.2-0.7-1.2-1.9,0-2.6c1.2-0.7,3.3-0.7,4.5,0
			C594.5,246.4,594.5,247.6,593.3,248.3z"/>
	</g>
	<g id="XMLID_2_">
		<g id="XMLID_57_">
			<path id="XMLID_58_" class="st14" d="M534,218.1c-1.7,0-3.3-0.4-4.6-1.1c-1.3-0.8-2.1-1.9-2.1-3c0-1.2,0.7-2.2,2.1-3
				c2.6-1.5,6.6-1.5,9.2,0c1.3,0.8,2.1,1.9,2.1,3c0,1.2-0.7,2.2-2.1,3l0,0C537.3,217.8,535.7,218.1,534,218.1z M534,211.1
				c-1.4,0-2.9,0.3-4,1c-1,0.5-1.5,1.2-1.5,2c0,0.7,0.5,1.4,1.5,2c2.2,1.3,5.8,1.3,8,0l0,0c1-0.5,1.5-1.2,1.5-2c0-0.7-0.5-1.4-1.5-2
				C536.9,211.4,535.5,211.1,534,211.1z"/>
		</g>
		<path id="XMLID_4_" class="st14" d="M536.3,215.3c-1.2,0.7-3.3,0.7-4.5,0c-1.2-0.7-1.2-1.9,0-2.6c1.2-0.7,3.3-0.7,4.5,0
			C537.5,213.4,537.5,214.6,536.3,215.3z"/>
	</g>
	<g id="XMLID_94_">
		<path id="XMLID_118_" class="st14" d="M487.5,269.2l1.2-0.7c2.4,1.4,6.4,1.4,8.9,0l1.2,0.7C495.7,271,490.6,271,487.5,269.2z"/>
	</g>
	<g id="XMLID_243_">
		<path id="XMLID_244_" class="st14" d="M314,273.4l1.2-0.7c2.4,1.4,6.4,1.4,8.9,0l1.2,0.7C322.2,275.2,317.1,275.2,314,273.4z"/>
	</g>
	<g id="XMLID_254_">
		<path id="XMLID_255_" class="st14" d="M237,273.5l1.2-0.7c2.4,1.4,6.4,1.4,8.9,0l1.2,0.7C245.2,275.3,240.1,275.3,237,273.5z"/>
	</g>
	<g id="XMLID_213_">
		<path id="XMLID_214_" class="st14" d="M528.6,278.1l1.2-0.7c2.4,1.4,6.4,1.4,8.9,0l1.2,0.7C536.8,279.9,531.7,279.9,528.6,278.1z"
			/>
	</g>
	<polygon id="XMLID_10_" class="st14" points="388,210.9 431.4,186 432.4,186.8 389,211.8 	"/>
	<g>
		<polygon id="XMLID_3_" class="st14" points="499.4,186 472.4,170.4 471.5,171.3 498.6,186.9 		"/>
		<polygon id="XMLID_34_" class="st14" points="540.3,168.3 508.9,186.4 507,186.1 538.5,167.9 		"/>
		<g id="XMLID_166_">
			<g id="XMLID_170_">
				<path id="XMLID_171_" class="st14" d="M463.1,171.1L463.1,171.1c-1.3-0.8-2.1-1.9-2.1-3c0-1.2,0.7-2.2,2.1-3
					c2.6-1.5,6.6-1.5,9.2,0c1.3,0.8,2.1,1.9,2.1,3c0,1.2-0.7,2.2-2.1,3c-1.3,0.7-3,1.1-4.6,1.1C466.1,172.3,464.4,171.9,463.1,171.1
					z M463.7,166.2c-1,0.5-1.5,1.2-1.5,2c0,0.7,0.5,1.4,1.5,2l0,0c2.2,1.3,5.8,1.3,8,0c1-0.5,1.5-1.2,1.5-2c0-0.7-0.5-1.4-1.5-2
					c-1.1-0.6-2.6-1-4-1C466.3,165.2,464.8,165.5,463.7,166.2z"/>
			</g>
			<path id="XMLID_169_" class="st14" d="M465.5,169.4c1.2,0.7,3.3,0.7,4.5,0c1.2-0.7,1.2-1.9,0-2.6c-1.2-0.7-3.3-0.7-4.5,0
				C464.2,167.5,464.2,168.7,465.5,169.4z"/>
		</g>
		<g id="XMLID_6_">
			<path id="XMLID_165_" class="st14" d="M508.9,186.4l-1.2-0.7c-2.4,1.4-6.4,1.4-8.9,0l-1.2,0.7
				C500.7,188.2,505.8,188.2,508.9,186.4z"/>
		</g>
	</g>
	<polygon id="XMLID_1159_" class="st14" points="422.6,177.9 429.9,182.2 430.8,181.3 423.4,177 	"/>
	<g id="XMLID_1156_">
		<path id="XMLID_1158_" class="st14" d="M430.8,181.3l-1.2,0.7c2.4,1.4,2.3,3.6-0.1,5l1,1C433.6,186.2,433.9,183.1,430.8,181.3z"/>
	</g>
	<g id="XMLID_1150_">
		<g id="XMLID_1152_">
			<path id="XMLID_1153_" class="st14" d="M420.1,178.5c-1.7,0-3.3-0.4-4.6-1.1c-1.3-0.8-2.1-1.9-2.1-3c0-1.2,0.7-2.2,2.1-3
				c2.6-1.5,6.6-1.5,9.2,0c1.3,0.8,2.1,1.9,2.1,3c0,1.2-0.7,2.2-2.1,3l0,0C423.5,178.1,421.8,178.5,420.1,178.5z M420.1,171.4
				c-1.4,0-2.9,0.3-4,1c-1,0.5-1.5,1.2-1.5,2c0,0.7,0.5,1.4,1.5,2c2.2,1.3,5.8,1.3,8,0l0,0c1-0.5,1.5-1.2,1.5-2c0-0.7-0.5-1.4-1.5-2
				C423,171.7,421.6,171.4,420.1,171.4z"/>
		</g>
		<path id="XMLID_1151_" class="st14" d="M422.4,175.6c-1.2,0.7-3.3,0.7-4.5,0c-1.2-0.7-1.2-1.9,0-2.6c1.2-0.7,3.3-0.7,4.5,0
			C423.6,173.7,423.6,174.9,422.4,175.6z"/>
	</g>
	<g id="XMLID_1142_">
		<g id="XMLID_1138_">
			<path id="XMLID_1139_" class="st14" d="M509.8,256.4c-1.7,0-3.3-0.4-4.6-1.1c-1.3-0.8-2.1-1.9-2.1-3c0-1.2,0.7-2.2,2.1-3
				c2.6-1.5,6.6-1.5,9.2,0c1.3,0.8,2.1,1.9,2.1,3c0,1.2-0.7,2.2-2.1,3l0,0C513.1,256,511.5,256.4,509.8,256.4z M509.8,249.3
				c-1.4,0-2.9,0.3-4,1c-1,0.5-1.5,1.2-1.5,2c0,0.7,0.5,1.4,1.5,2c2.2,1.3,5.8,1.3,8,0l0,0c1-0.5,1.5-1.2,1.5-2c0-0.7-0.5-1.4-1.5-2
				C512.7,249.7,511.3,249.3,509.8,249.3z"/>
		</g>
		<path id="XMLID_1137_" class="st14" d="M512.1,253.5c-1.2,0.7-3.3,0.7-4.5,0c-1.2-0.7-1.2-1.9,0-2.6c1.2-0.7,3.3-0.7,4.5,0
			C513.3,251.7,513.3,252.8,512.1,253.5z"/>
	</g>
	<polygon id="XMLID_252_" class="st14" points="315.3,272.7 126.7,163.8 124.5,164 315.5,274 	"/>
	<g id="XMLID_246_">
		<g id="XMLID_248_">
			<path id="XMLID_249_" class="st14" d="M122.3,165.2c-1.7,0-3.3-0.4-4.6-1.1c-1.3-0.8-2.1-1.9-2.1-3c0-1.2,0.7-2.2,2.1-3
				c2.6-1.5,6.6-1.5,9.2,0c1.3,0.8,2.1,1.9,2.1,3c0,1.2-0.7,2.2-2.1,3l0,0C125.7,164.9,124,165.2,122.3,165.2z M122.3,158.2
				c-1.4,0-2.9,0.3-4,1c-1,0.5-1.5,1.2-1.5,2c0,0.7,0.5,1.4,1.5,2c2.2,1.3,5.8,1.3,8,0l0,0c1-0.5,1.5-1.2,1.5-2c0-0.7-0.5-1.4-1.5-2
				C125.2,158.5,123.8,158.2,122.3,158.2z"/>
		</g>
		<path id="XMLID_247_" class="st14" d="M124.6,162.4c-1.2,0.7-3.3,0.7-4.5,0s-1.2-1.9,0-2.6c1.2-0.7,3.3-0.7,4.5,0
			C125.8,160.5,125.8,161.7,124.6,162.4z"/>
	</g>
	<g id="XMLID_216_">
		<g id="XMLID_223_">
			<path id="XMLID_224_" class="st14" d="M349.7,262.4c-1.7,0-3.3-0.4-4.6-1.1c-1.3-0.8-2.1-1.9-2.1-3c0-1.2,0.7-2.2,2.1-3
				c2.6-1.5,6.6-1.5,9.2,0c1.3,0.8,2.1,1.9,2.1,3c0,1.2-0.7,2.2-2.1,3l0,0C353,262,351.4,262.4,349.7,262.4z M349.7,255.4
				c-1.4,0-2.9,0.3-4,1c-1,0.5-1.5,1.2-1.5,2c0,0.7,0.5,1.4,1.5,2c2.2,1.3,5.8,1.3,8,0l0,0c1-0.5,1.5-1.2,1.5-2c0-0.7-0.5-1.4-1.5-2
				C352.6,255.7,351.2,255.4,349.7,255.4z"/>
		</g>
		<path id="XMLID_219_" class="st14" d="M352,259.6c-1.2,0.7-3.3,0.7-4.5,0c-1.2-0.7-1.2-1.9,0-2.6c1.2-0.7,3.3-0.7,4.5,0
			S353.2,258.9,352,259.6z"/>
	</g>
	<polygon id="XMLID_299_" class="st14" points="238.5,273 189.9,245.2 188.4,245.8 237.5,274 	"/>
	<g id="XMLID_256_">
		<g id="XMLID_258_">
			<path id="XMLID_259_" class="st14" d="M181,245.5L181,245.5c-1.3-0.8-2.1-1.9-2.1-3c0-1.2,0.7-2.2,2.1-3c2.6-1.5,6.6-1.5,9.2,0
				c1.3,0.8,2.1,1.9,2.1,3c0,1.2-0.7,2.2-2.1,3c-1.3,0.7-3,1.1-4.6,1.1C184,246.6,182.3,246.3,181,245.5z M181.6,240.5
				c-1,0.5-1.5,1.2-1.5,2c0,0.7,0.5,1.4,1.5,2l0,0c2.2,1.3,5.8,1.3,8,0c1-0.5,1.5-1.2,1.5-2c0-0.7-0.5-1.4-1.5-2c-1.1-0.6-2.6-1-4-1
				C184.2,239.6,182.7,239.9,181.6,240.5z"/>
		</g>
		<path id="XMLID_257_" class="st14" d="M183.4,243.8c1.2,0.7,3.3,0.7,4.5,0c1.2-0.7,1.2-1.9,0-2.6c-1.2-0.7-3.3-0.7-4.5,0
			C182.1,241.9,182.1,243.1,183.4,243.8z"/>
	</g>
	<polygon id="XMLID_49_" class="st14" points="727.1,272.7 747.6,260.8 748.8,261.5 728.3,273.4 	"/>
	<polygon id="XMLID_48_" class="st14" points="637,268.9 670.2,249.7 671.4,250.4 638.2,269.6 	"/>
	<g id="XMLID_46_">
		<path id="XMLID_47_" class="st14" d="M717,273.4l1.2-0.7c2.4,1.4,6.4,1.4,8.9,0l1.2,0.7C725.2,275.2,720.1,275.2,717,273.4z"/>
	</g>
	<g id="XMLID_42_">
		<path id="XMLID_45_" class="st14" d="M627,269.5l1.2-0.7c2.4,1.4,6.4,1.4,8.9,0l1.2,0.7C635.2,271.3,630.1,271.3,627,269.5z"/>
	</g>
	<polygon id="XMLID_41_" class="st14" points="718.3,272.7 678.3,249.6 677.1,250.3 717.1,273.4 	"/>
	<g id="XMLID_35_">
		<g id="XMLID_37_">
			<path id="XMLID_38_" class="st14" d="M673.3,251.2c-1.7,0-3.3-0.4-4.6-1.1c-1.3-0.8-2.1-1.9-2.1-3c0-1.2,0.7-2.2,2.1-3
				c2.6-1.5,6.6-1.5,9.2,0c1.3,0.8,2.1,1.9,2.1,3c0,1.2-0.7,2.2-2.1,3l0,0C676.7,250.9,675,251.2,673.3,251.2z M673.3,244.2
				c-1.4,0-2.9,0.3-4,1c-1,0.5-1.5,1.2-1.5,2c0,0.7,0.5,1.4,1.5,2c2.2,1.3,5.8,1.3,8,0l0,0c1-0.5,1.5-1.2,1.5-2c0-0.7-0.5-1.4-1.5-2
				C676.2,244.5,674.8,244.2,673.3,244.2z"/>
		</g>
		<path id="XMLID_36_" class="st14" d="M675.6,248.4c-1.2,0.7-3.3,0.7-4.5,0s-1.2-1.9,0-2.6c1.2-0.7,3.3-0.7,4.5,0
			C676.8,246.5,676.8,247.7,675.6,248.4z"/>
	</g>
	<g id="XMLID_15_">
		<g id="XMLID_18_">
			<path id="XMLID_19_" class="st14" d="M752.7,262.4c-1.7,0-3.3-0.4-4.6-1.1c-1.3-0.8-2.1-1.9-2.1-3c0-1.2,0.7-2.2,2.1-3
				c2.6-1.5,6.6-1.5,9.2,0c1.3,0.8,2.1,1.9,2.1,3c0,1.2-0.7,2.2-2.1,3l0,0C756,262,754.4,262.4,752.7,262.4z M752.7,255.4
				c-1.4,0-2.9,0.3-4,1c-1,0.5-1.5,1.2-1.5,2c0,0.7,0.5,1.4,1.5,2c2.2,1.3,5.8,1.3,8,0l0,0c1-0.5,1.5-1.2,1.5-2c0-0.7-0.5-1.4-1.5-2
				C755.6,255.7,754.2,255.4,752.7,255.4z"/>
		</g>
		<path id="XMLID_17_" class="st14" d="M755,259.6c-1.2,0.7-3.3,0.7-4.5,0c-1.2-0.7-1.2-1.9,0-2.6c1.2-0.7,3.3-0.7,4.5,0
			C756.2,257.7,756.2,258.9,755,259.6z"/>
	</g>
	<polygon id="XMLID_14_" class="st14" points="628.2,268.9 595.6,250.1 594.4,250.8 627,269.6 	"/>
	<g id="XMLID_175_">
		<g id="XMLID_181_">
			<path id="XMLID_190_" class="st14" d="M357.4,197.1c-1.7,0-3.3-0.4-4.6-1.1c-1.3-0.8-2.1-1.9-2.1-3c0-1.2,0.7-2.2,2.1-3
				c2.6-1.5,6.6-1.5,9.2,0c1.3,0.8,2.1,1.9,2.1,3c0,1.2-0.7,2.2-2.1,3l0,0C360.7,196.8,359,197.1,357.4,197.1z M357.4,190.1
				c-1.4,0-2.9,0.3-4,1c-1,0.5-1.5,1.2-1.5,2s0.5,1.4,1.5,2c2.2,1.3,5.8,1.3,8,0l0,0c1-0.5,1.5-1.2,1.5-2c0-0.7-0.5-1.4-1.5-2
				C360.2,190.4,358.8,190.1,357.4,190.1z"/>
		</g>
		<path id="XMLID_177_" class="st14" d="M359.6,194.3c-1.2,0.7-3.3,0.7-4.5,0c-1.2-0.7-1.2-1.9,0-2.6c1.2-0.7,3.3-0.7,4.5,0
			C360.8,192.4,360.8,193.6,359.6,194.3z"/>
	</g>
	<g id="XMLID_16_">
		<polygon id="XMLID_55_" class="st14" points="538.1,212.6 613.1,169.2 614.8,169.5 539.8,212.9 		"/>
		<g id="XMLID_25_">
			<polygon id="XMLID_44_" class="st14" points="594.4,154.1 612.2,164.4 613.5,163.8 595.7,153.5 			"/>
			<g id="XMLID_32_">
				<path id="XMLID_43_" class="st14" d="M613.5,163.8l-1.2,0.7c2.4,1.4,2.4,3.7,0,5.1l1.2,0.7C616.6,168.5,616.6,165.6,613.5,163.8
					z"/>
			</g>
		</g>
	</g>
	<g id="XMLID_5_">
		<polygon id="XMLID_56_" class="st14" points="677.8,245.1 735.8,211.5 737.3,212 679.3,245.6 		"/>
		<g id="XMLID_7_">
			<polygon id="XMLID_54_" class="st14" points="726.6,202.2 735.1,207.1 736,206.3 727.5,201.4 			"/>
			<g id="XMLID_52_">
				<path id="XMLID_53_" class="st14" d="M736,206.3l-1.2,0.7c2.4,1.4,2.4,3.7,0,5.1l1.2,0.7C739.1,211,739.1,208.1,736,206.3z"/>
			</g>
			<g id="XMLID_8_">
				<g id="XMLID_12_">
					<path id="XMLID_13_" class="st14" d="M724.4,202.5c-1.7,0-3.3-0.4-4.6-1.1c-1.3-0.8-2.1-1.9-2.1-3c0-1.2,0.7-2.2,2.1-3
						c2.6-1.5,6.6-1.5,9.2,0c1.3,0.8,2.1,1.9,2.1,3c0,1.2-0.7,2.2-2.1,3l0,0C727.7,202.1,726,202.5,724.4,202.5z M724.4,195.4
						c-1.4,0-2.9,0.3-4,1c-1,0.5-1.5,1.2-1.5,2c0,0.7,0.5,1.4,1.5,2c2.2,1.3,5.8,1.3,8,0l0,0c1-0.5,1.5-1.2,1.5-2
						c0-0.7-0.5-1.4-1.5-2C727.2,195.7,725.8,195.4,724.4,195.4z"/>
				</g>
				<path id="XMLID_9_" class="st14" d="M726.6,199.6c-1.2,0.7-3.3,0.7-4.5,0c-1.2-0.7-1.2-1.9,0-2.6c1.2-0.7,3.3-0.7,4.5,0
					C727.8,197.7,727.8,198.9,726.6,199.6z"/>
			</g>
		</g>
	</g>
	<path class="st25" d="M764.7,215.9c0,0-1.5,4.8,2.2,5.8c0.7,0.2,1.4-0.2,1.6-0.9l1-4.2L764.7,215.9z"/>
	<g>
		<g>
			<polygon class="st1" points="778.2,234.7 761.5,242.9 761.5,227.5 778.2,219.3 			"/>
		</g>
		<g>
			<polygon class="st7" points="757.9,241.8 761.5,242.9 761.5,227.5 757.9,226.4 			"/>
		</g>
		<g>
			<polygon class="st26" points="774.6,218.2 778.2,219.3 761.5,227.5 757.9,226.4 			"/>
		</g>
		<g>
			<path class="st7" d="M764.8,224.9c-0.4,0-0.8-0.4-0.8-0.8v-3.3c0-1.3,0.7-2.4,1.9-2.9l4.2-1.9c0.4-0.2,1-0.2,1.4,0.1
				c0.4,0.3,0.7,0.7,0.7,1.2v3.8c0,0.4-0.4,0.8-0.8,0.8c-0.4,0-0.8-0.4-0.8-0.8v-3.6l-4,1.8c-0.6,0.3-1,0.8-1,1.5v3.3
				C765.6,224.6,765.2,224.9,764.8,224.9z"/>
		</g>
	</g>
	<g>
		<path class="st27" d="M772.5,191.5c0.1-1.8,0.1-9-2.6-10.7c-1.8-1.1-3.3,0.8-3.8,2.4c-1.3,4.4,1,16.9,1,16.9l-3,15.1
			c-0.1,0.6,0.2,1.1,0.8,1.3l3.5,0.6c0.6,0.1,1.2-0.2,1.3-0.8l3-16C772.6,200.2,772.3,193.2,772.5,191.5z"/>
	</g>
	<g>
		<path class="st1" d="M779.6,253.5c-1.8-0.6-7.3-2.3-9.8-0.5l-3,2.2c-1,0.7-2.1,1.8-2.3,2.6c0,0.2-0.1,0.5-0.1,0.8l0,0
			c-0.3,0-0.5,0.3-0.5,0.5v1.3c0,0,4.9,1,7.2,0.3c0.8-0.2,4.6-2.4,4.6-2.4l0.7-1.2c0.2-0.2,0.5-0.3,0.7-0.5c0.1-0.1,0.3,0,0.3,0.2
			c0,0.2,0.2,0.3,0.3,0.2l2.2-1.4c0.4-0.3,0.7-0.8,0.7-1.3l-0.5-1.1L779.6,253.5z"/>
		<path class="st1" d="M793.8,257.5C793.8,257.5,793.8,257.5,793.8,257.5C793.8,257.5,793.8,257.5,793.8,257.5L793.8,257.5
			L793.8,257.5c0.1-0.3,0.1-0.6,0.2-0.8c-0.9-0.3-2-0.3-2.7-0.4c-0.9-0.1-1.9-0.1-2.8,0c-0.9,0.1-1.6,0.4-2.4,0.6
			c-0.5,1.3-1.6,3.5-2.9,4.9c-0.6,0.6-0.9,1.2-1.1,1.9c-0.1,0.6,0,1.3,0.1,1.8l0,0l-0.3,0.2l0.2,1.2c0.3,0.3,4,1.7,7,0.6
			c2.7-1,4.1-4.3,4.1-4.3v-0.7l0.3,0l1-2.9L793.8,257.5z"/>
	</g>
	<g>
		<path class="st28" d="M793.5,235.5c0,0-1.2-5.5-1.4-7.3c-0.1-0.9-0.2-2.7-0.3-4.4c0-0.3,0.3-0.9,0.6-1.3c0.3-0.5,0.4-1.1,0-1.6
			l-0.8-1.3l-1.3-4.5l-21.6-1c0,0-0.1,2.7-0.1,5.9c-0.1,0.1-0.2,0.1-0.3,0.2c-0.4,0.3-0.5,0.8-0.3,1.2c0.3,0.7,0.6,1.6,0.6,1.8
			c0,4.1,0.1,7.3,0.7,8.7c0.2,0.7,0.9,3.1,1.1,3.9c0.8,3.4,0.8,13.1,0.8,13.1l-0.9,1l-0.6,3c0,0,3.6-1,10.4,1.5c0,0,0.6-5.4,0.5-7.3
			c-0.1-1.5-1.1-6.1-1.1-6.1l-1.1-11.1v-3.7c0-0.5,0.7-0.7,0.9-0.3c1,1.7,2.7,4.3,3.2,5.5c0.9,2,1.9,6.3,2.3,8.4
			c0.5,3.3,0.4,13,0.4,13l-0.5,0.6l0.9,3.8c1.3-1.1,4.9-1,8.1,0l0.7-3.7l-0.4-0.7v-2.9L793.5,235.5z"/>
		<path class="st28" d="M792.2,214.8l-23.4-0.7c0,0,0,1.4-0.1,3.4c0.1,0.2,0.3,0.3,0.5,0.5c1.3,0.9,3.9,2.4,8,2.7
			c5.1,0.4,11.6-1.5,14.1-2.5L792.2,214.8z"/>
		<path class="st28" d="M794.5,253.8c0,0-2.7-0.8-7.7-0.6c0,0,4.3-0.7,7.3-0.1L794.5,253.8z"/>
	</g>
	<path class="st29" d="M767.6,180.9c0.6-0.5,5.9-2.3,11-1.9c1.7,0.1,8.2,1.1,11.8,3.3c4.3,2.6,3.9,7.2,4,8.1
		c0.1,0.7-1.5,18.5-1.5,23.8c0,0.9-0.5,1.6-1.3,2c-2.5,1-9,3-14.2,2.5c-4.1-0.3-6.7-1.8-8-2.7c-0.6-0.4-0.9-1.1-0.9-1.8
		c0.2-3.7,0.6-16.4,0-18.1C766.5,191.4,763.7,184.2,767.6,180.9z"/>
	<path class="st27" d="M783.2,179.7c0,0,3.6,1.9,3.3,7.4c0,0.4-0.3,0.8-0.7,1l-2.5,1c-0.7,0.3-0.9,1-0.6,1.7l0.4,0.8
		c0.2,0.4,0.2,0.9,0,1.2l-7.6,11.7v-5l0.5-17.6C776,181.9,781.1,179.2,783.2,179.7z"/>
	<path class="st27" d="M769.4,180.1c0,0-3,1.9-2.7,7.3c0,0.4,0.3,0.8,0.6,1l2,1c0.5,0.3,0.8,1,0.5,1.6l-0.4,0.8
		c-0.2,0.4-0.2,0.8,0,1.2l6,11.5v-5.1l0.6-20.7C776,178.6,772.8,178.9,769.4,180.1z"/>
	<path class="st30" d="M783.5,181.5c0,2-5.8,13.8-8,17.8c-3.4-7.2-2.6-15.8-2.6-17.8c0-2,2.4-3.7,5.3-3.7
		C781.1,177.9,783.5,179.5,783.5,181.5z"/>
	<path class="st24" d="M777.3,195.8c-0.7,1.4-1.4,3.2-1.9,4.1c-1.9-3.9-1.9-10,0.3-11.7C777.8,190.1,778.3,193.8,777.3,195.8z"/>
	<ellipse class="st31" cx="790.8" cy="189.5" rx="3.4" ry="5.7"/>
	<g>
		<path class="st20" d="M782.9,179.8h-1.7v-4.1h2.7v3.2C783.8,179.4,783.4,179.8,782.9,179.8z"/>
		<path class="st32" d="M777.5,183.8L777.5,183.8c-1.1,0-2-0.8-2-1.9v-6.8c0-0.5,0.4-1,1-1h5c0.6,0,1.1,0.5,1,1.1
			c-0.5,3.1-0.2,4.4,0.1,4.8c0.1,0.2,0.1,0.5,0.1,0.7C782.1,182.2,780,183.8,777.5,183.8z"/>
		<path class="st25" d="M779.3,166.8c-3.3-0.3-7.9,2.1-7.9,2.1c-1.2,1.1-1.2,3-1.2,5.8c0,3.2,0.9,6,2,7.9c0.4,0.7,2.1,1.3,3.1,1.3
			c1.6,0,4-1.3,4.8-2.9c0.7-1.4,1-2,1.8-2.6c1.2-1,2-2.3,2.2-4.7C784.3,173,783.9,167.2,779.3,166.8z"/>
		<path class="st20" d="M780.6,164.4c-2.9-0.9-10.1-0.8-10.8,6.6c0,0,1.2,1.1,5.9,1c0.8,0,1.4-0.2,1.9-0.3c0.9-0.1,1.8,0.6,1.9,1.5
			c0.2,2,0.1,3.4,0,4.2c0,0.3,0.3,0.4,0.4,0.2c0.2-0.3,0.4-0.7,0.5-1c0.1-0.7,0.4-1.5,0.8-1.6c0.8-0.2,1.3,2.5,1.3,2.5
			s1.7,0.1,2.5-3.8C785.5,171.4,785.3,165.9,780.6,164.4z"/>
		<path class="st25" d="M783.5,176c-0.1,1.5-1.4,2.7-2,2.6c-0.6-0.1-1-1.2-0.8-2.4s0.9-1.9,1.5-2C783.2,174,783.6,174.8,783.5,176z"
			/>
		
			<ellipse transform="matrix(8.984230e-02 -0.996 0.996 8.984230e-02 525.8945 932.6978)" class="st25" cx="773.3" cy="178.6" rx="0.9" ry="1.3"/>
	</g>
	<g>
		<path class="st25" d="M786.6,219.5L786.6,219.5c-0.2,1-0.6,1.9-1.3,2.6c-0.6,0.6-1.1,1.4-0.6,1.8c0.5,0.4,1.3-1,2-0.9
			c0,1.4-1.3,2.3-1.3,2.3c-0.2,1.2,1.6,1.8,2.7,1.9c1.2,0.2,3.2-2.4,3.4-3.5l-0.1-3.9C791.4,219.7,786.6,219.5,786.6,219.5z"/>
		<path class="st27" d="M794.7,195.3c0.1-1.8,0.1-9-2.6-10.7c-1.8-1.1-3.3,0.8-3.8,2.4c-1.3,4.4,1,16.9,1,16.9l-3,15.1
			c-0.1,0.6,0.2,1.1,0.8,1.3l3.5,0.6c0.6,0.1,1.2-0.2,1.3-0.8l3-16C794.8,204,794.5,197,794.7,195.3z"/>
	</g>
	<path class="st24" d="M777.8,186.4l-1-1.4c-0.3-0.4-1-0.5-1.3,0l-1.2,1.5c-0.2,0.3-0.2,0.6-0.1,0.9l0.8,1.4c0.3,0.5,1,0.6,1.4,0.1
		l1.4-1.6C778,187.1,778,186.7,777.8,186.4z"/>
	<path class="st27" d="M779.4,211.9h6.2c0.2,0,0.4-0.2,0.4-0.4v-1.7c0-0.2-0.2-0.4-0.4-0.4h-6.2c-0.2,0-0.4,0.2-0.4,0.4v1.7
		C779,211.7,779.2,211.9,779.4,211.9z"/>
	<path class="st27" d="M768.5,210.3h3.8c0.2,0,0.4-0.2,0.4-0.4v-1.7c0-0.2-0.2-0.4-0.4-0.4h-3.8V210.3z"/>
	<g>
		<g>
			<path class="st1" d="M704.6,182.1L704.6,182.1c0-0.1-0.1-0.2-0.1-0.3l0,0l0,0c-0.1-0.2-0.3-0.5-0.5-0.6c-0.1-0.1-0.1-0.1-0.2-0.1
				c-0.6-0.3-2.9-1.6-3.7-1.4c-2.8,0.5-4.8,5.6-2.5,6.8c0.5,0.2,2.8,1.6,3.8,1.3C703.5,187.2,705.2,184.1,704.6,182.1z"/>
			<path class="st1" d="M702.3,181.3c1.3-0.3,2.2,0.7,1.9,2.3c-0.2,1.6-1.4,3.2-2.7,3.5c-1.3,0.3-2.2-0.7-1.9-2.3
				C699.8,183.3,701,181.7,702.3,181.3z"/>
			<path class="st1" d="M702.3,181.3c-1.3,0.3-2.5,1.9-2.7,3.5c0.5-1,1.4-1.9,2.3-2.1c1.3-0.3,2.2,0.7,1.9,2.3l0,0
				c0.2-0.4,0.4-0.9,0.4-1.4C704.4,182,703.6,181,702.3,181.3z"/>
			<path class="st1" d="M700.9,182.8c0.4-0.1,0.7,0.2,0.7,0.8c-0.1,0.5-0.5,1.1-0.9,1.2c-0.4,0.1-0.7-0.2-0.7-0.8
				C700.1,183.5,700.5,182.9,700.9,182.8z"/>
			<path class="st1" d="M700.7,183.1c0.3-0.1,0.5,0.2,0.5,0.5c-0.1,0.4-0.3,0.7-0.6,0.8c-0.3,0.1-0.5-0.2-0.5-0.5
				C700.1,183.5,700.4,183.2,700.7,183.1z"/>
			<path class="st1" d="M704.1,181.7c-0.2-0.8-1.2-1.1-1.8-0.6c0,0,0,0,0,0c-0.2,0.1-0.4,0.3-0.6,0.4c0,0,0,0,0.1,0
				c1-0.3,1.7,0.6,1.6,1.8s-1.2,2.6-2.2,2.8c-0.6,0.2-1,0-1.3-0.4c0,0.4,0,0.7,0,1.1c0,0,0,0,0,0c0,0.3,0.2,0.5,0.5,0.6
				c0.2,0,0.4,0,0.7-0.1c1.5-0.4,3-2.3,3.2-4.2C704.2,182.7,704.2,182.2,704.1,181.7z"/>
			<path class="st1" d="M702.3,180.8c1.5-0.4,2.6,0.8,2.3,2.7c-0.3,1.9-1.7,3.8-3.2,4.2c-1.5,0.4-2.6-0.8-2.3-2.7
				C699.4,183.1,700.8,181.2,702.3,180.8z M701.5,186.8c1.1-0.3,2.2-1.7,2.4-3.1c0.2-1.4-0.6-2.3-1.7-2c-1.1,0.3-2.2,1.7-2.4,3.1
				C699.6,186.2,700.4,187.1,701.5,186.8"/>
		</g>
		<g>
			<polygon class="st8" points="715.8,174.8 731.4,180.5 711.3,189.3 695.5,183.7 			"/>
			<polygon class="st1" points="711.3,189.3 695.5,183.7 695.5,185 711.3,190.6 731.2,182 731.4,180.5 			"/>
		</g>
		<g>
			<g>
				<path class="st33" d="M726.5,140.8L726.5,140.8c-0.1,0.9,0,1.8,0.4,2.6c0.4,0.7,0.6,1.5,0,1.7c-0.5,0.2-0.9-1-1.5-1.2
					c-0.5,0.6,0.3,2,0.3,2c-0.2,1-1.7,1.3-2.7,1.1s-2.1-2.9-1.9-4l1.2-3.4C722.3,139.6,726.5,140.8,726.5,140.8z"/>
				<path class="st34" d="M721.1,143l1.2-3.4c0,0,4.2,1.2,4.2,1.2l0,0c0,0.2,0,0.4,0,0.6C724.8,142,721.1,143.1,721.1,143z"/>
				<g>
					<ellipse class="st25" cx="742.5" cy="101.1" rx="2.1" ry="6.5"/>
					<path class="st25" d="M740.5,109.3L740.5,109.3c0-0.9,0.7-1.7,1.7-1.7h0.4c0,0-2.1-2.8-2-5.6c0.1-2.8-6.2,5.3-6.2,5.3v1.8
						c0,0.8,0.6,1.5,1.5,1.5l3.2,0.1C739.8,110.8,740.5,110.2,740.5,109.3z"/>
					<path class="st35" d="M732.3,109.9l1.1-1.3c0.6-0.7,1.5-1,2.5-1.1c1.5-0.2,4-0.1,6.6,2.8L732.3,109.9z"/>
					<path class="st1" d="M730.5,102.9c0.3,1.1,1.4,3,2.2,4c0.8,1,1.7,1.7,2.9,1.8c1.6,0,3.5-0.1,4.3-0.8c1.1-1,1.4-5.5,1.5-7
						c0-1.8,0.6-2.5,1.3-2.8c1.3-0.5,1.9-1.9,1.3-3.2c-0.9-1.7-2.7-3.3-6.5-3.1C729,92.2,729.3,98.3,730.5,102.9z"/>
					
						<ellipse transform="matrix(0.9694 -0.2456 0.2456 0.9694 -2.2223 185.0986)" class="st25" cx="740.9" cy="101.5" rx="1.3" ry="2"/>
				</g>
				<g>
					<g>
						<path class="st20" d="M725.1,118.2c0.3-1.6,2.2-7.8,5-8.6c1.8-0.5,2.7,1.5,2.7,3c0,4.2-5.1,14.4-5.1,14.4l-1.2,13.9
							c0,0.5-0.5,0.9-1,0.9l-3.2-0.3c-0.5,0-1-0.5-1-1l1.4-14.7C722.8,125.7,724.8,119.7,725.1,118.2z"/>
					</g>
				</g>
				<g>
					<line class="st36" x1="734.7" y1="184" x2="737.6" y2="181.5"/>
				</g>
				<g>
					<path class="st29" d="M757.9,185.4c-0.1-0.2-0.4-0.4-0.6-0.4c0,0-0.1,0-0.1,0c-1.1-1.4-4-3.9-8.9-0.6l-2.7,2
						c-0.9,0.6-1.9,1.6-2.1,2.4c0,0.2-0.1,0.5-0.1,0.8l0,0c-0.2,0-0.4,0.2-0.4,0.5v1.2c0,0,4.3,1,6.5,0.3c3.3-1,7.9-4.4,7.9-4.4
						c0.4-0.3,0.8-0.6,0.7-1.2C758,185.8,758,185.6,757.9,185.4z"/>
					<path class="st29" d="M744.5,181c0,0,0-0.2-0.2-0.5c-0.1-0.2-0.4-0.4-0.6-0.4c0,0-0.1,0-0.1,0c-1.1-1.4-4-3.9-8.9-0.6l-2.7,2
						c-0.9,0.6-1.9,1.6-2.1,2.4c0,0.2-0.1,0.5-0.1,0.8l0,0c-0.2,0-0.4,0.2-0.4,0.5v1.2c0,0,4.3,1,6.5,0.3c3.3-1,7.9-4.4,7.9-4.4
						C744.3,181.9,744.6,181.6,744.5,181z"/>
				</g>
				<path class="st15" d="M752.8,187.6l-0.4-2L752,185v-3.1l-0.6-19c0,0-1.1-8.6-1.3-10.3c-0.1-0.8-0.2-2.4-0.2-4
					c0-0.3,0.3-0.8,0.6-1.2c0.3-0.4,0.3-1,0-1.5l-0.7-1.1l-0.3-1.2l0,0l0.8-3.1l-21.2-0.6c0,0,0,0.7,0,2c0,0.4,0,0.7,0,1.2
					c0,0,0,0,0,0c0,4,0.3,11.7,1.8,21.8c0.3,1.9,0.3,7.6-0.1,13.4c-0.1,0.9-0.6,1-0.6,1.7c-0.2,2.7-0.3,4.5-0.3,4.5s1.4,1,6.2,0.3
					c1.1-0.2,1.9-0.7,2.2-1.7c0.2-1,0.3-2.1,0.4-3.5c0-0.4-0.4-2.2-0.3-2.6c0.4-8.8,0.9-17.5,0.2-22.3l0.1-3c0-0.5,0.6-0.6,0.8-0.2
					c0.9,1.5,1.6,3.3,2.1,4.4c0.8,1.8,1.7,9.3,2.1,11.3c0.5,3,0.4,17.9,0.4,17.9l-0.5,0.5l-0.2,3.4c0,0.3,0.2,0.6,0.5,0.7
					c1.8,0.6,5.2,1.2,8.5-0.9C752.7,188.5,752.9,188,752.8,187.6z"/>
				<path class="st20" d="M727.9,110.5c2.2-2.3,5.4-2.7,10-2.4c1.5,0.1,6.2,0.9,9.4,2.8c3.9,2.3,3.6,6.5,3.6,7.3
					c0.2,3.2-2,10.8-0.1,21.7c0.1,0.8-0.5,1.5-1.2,1.8c-2.2,0.9-8.2,2.7-12.9,2.3c-3.8-0.3-6.1-1.6-7.2-2.5c-0.5-0.4-0.8-1-0.8-1.6
					C728.8,136.5,724.8,113.8,727.9,110.5z"/>
				<ellipse class="st20" cx="747" cy="118" rx="3.1" ry="5.2"/>
				<g>
					<path class="st20" d="M752.7,145.4L752.7,145.4c0.2,0.9,0.6,1.7,1.3,2.3c0.6,0.5,1.1,1.2,0.6,1.6c-0.4,0.4-1.2-0.6-1.8-0.6
						c-0.3,0.7,1,1.7,1,1.7c0.2,1-1.1,1.8-2.2,2c-1,0.2-3-2-3.2-3l-0.1-3.6C748.3,145.8,752.6,145.4,752.7,145.4z"/>
					<path class="st20" d="M748.4,149.3l-0.1-3.6c0,0,4.3-0.4,4.4-0.3l0,0c0,0.2,0.1,0.4,0.2,0.6
						C751.5,147.2,748.4,149.5,748.4,149.3z"/>
					<path class="st20" d="M744.4,123.8c-0.2-1.6-0.4-8.1,1.9-9.8c1.6-1.1,3.1,0.6,3.5,2c1.3,3.9-0.2,15.3-0.2,15.3l3.3,13.6
						c0.1,0.5-0.2,1-0.7,1.2l-3.1,0.7c-0.5,0.2-1.1-0.1-1.2-0.7l-3.4-14.4C744.6,131.7,744.5,125.4,744.4,123.8z"/>
				</g>
			</g>
		</g>
		<g>
			<path class="st1" d="M728.4,180.1l-0.6-31.7c0-1.4-1.1-2.6-2.5-2.8l-2.5-0.4c-0.8-0.1-1.7,0.1-2.3,0.7c-0.6,0.6-1,1.3-1,2.2
				l-0.2,31.3l-1.3,0l0.2-31.3c0-1.2,0.5-2.4,1.5-3.2c0.9-0.8,2.1-1.2,3.3-1l2.5,0.4c2,0.3,3.6,2,3.6,4.1l0.6,32.1L728.4,180.1z"/>
		</g>
		<g>
			<g>
				<polygon class="st7" points="712.6,165.9 725.4,170.6 711.8,176.6 698.8,171.9 				"/>
				<polygon class="st1" points="725.2,182.5 711.8,188.3 711.8,176.6 725.4,170.6 				"/>
				<polygon class="st30" points="720.8,176.5 716.4,178.4 716.4,174.5 720.8,172.6 				"/>
				<polygon class="st30" points="718,171.6 713.7,173.5 716.4,174.5 720.8,172.6 				"/>
				<polygon class="st26" points="698.8,183.7 711.8,188.3 711.8,176.6 698.8,171.9 				"/>
			</g>
			<g>
				<polygon class="st7" points="714.1,152.5 726.9,157.2 713.4,163.2 700.4,158.5 				"/>
				<polygon class="st1" points="726.8,169.1 713.4,175 713.4,163.2 726.9,157.2 				"/>
				<polygon class="st30" points="722.3,163.1 717.9,165 717.9,161.2 722.4,159.2 				"/>
				<polygon class="st30" points="719.6,158.2 715.2,160.2 717.9,161.2 722.4,159.2 				"/>
				<polygon class="st26" points="700.4,170.3 713.4,175 713.4,163.2 700.4,158.5 				"/>
			</g>
			<g>
				<polygon class="st7" points="708.6,147 718.7,150.7 708,155.5 697.7,151.8 				"/>
				<polygon class="st1" points="718.6,160.1 708,164.8 708,155.5 718.7,150.7 				"/>
				<polygon class="st30" points="715.1,155.4 711.6,156.9 711.6,153.9 715.1,152.3 				"/>
				<polygon class="st30" points="712.9,151.6 709.5,153.1 711.6,153.9 715.1,152.3 				"/>
				<polygon class="st26" points="697.7,161.1 708,164.8 708,155.5 697.7,151.8 				"/>
			</g>
		</g>
		<g>
			<path class="st1" d="M722.3,187.3L722.3,187.3c0-0.1-0.1-0.2-0.1-0.3l0,0l0,0c-0.1-0.2-0.3-0.5-0.5-0.6c-0.1-0.1-0.1-0.1-0.2-0.1
				c-0.6-0.3-2.9-1.6-3.7-1.4c-2.8,0.5-4.8,5.6-2.5,6.8c0.5,0.2,2.8,1.6,3.8,1.3C721.2,192.4,722.9,189.4,722.3,187.3z"/>
			<path class="st1" d="M718.7,188.1c0.4-0.1,0.7,0.2,0.7,0.8c-0.1,0.5-0.5,1.1-0.9,1.2c-0.4,0.1-0.7-0.2-0.7-0.8
				C717.9,188.7,718.3,188.2,718.7,188.1z"/>
			<path class="st1" d="M718.5,188.3c0.3-0.1,0.5,0.2,0.5,0.5c-0.1,0.4-0.3,0.7-0.6,0.8c-0.3,0.1-0.5-0.2-0.5-0.5
				C717.9,188.8,718.2,188.4,718.5,188.3z"/>
			<path class="st8" d="M720.1,186c-1.5,0.4-3,2.3-3.2,4.2s0.8,3.1,2.3,2.7c1.5-0.4,3-2.3,3.2-4.2
				C722.7,186.9,721.6,185.6,720.1,186z"/>
		</g>
	</g>
	<g>
		<polygon class="st8" points="640.5,29 640.5,132.2 512.7,206 512.7,102.8 		"/>
		<g>
			<g>
				<path class="st15" d="M619,110.2c0.3-6.3-2.7-9.5-6.7-7.3l0.7-14.4c9-5.2,15.8,2,15.1,16.2c-0.4,8.4-3.4,17.3-7.5,24.3l-5-8.1
					C617.5,117.9,618.9,114,619,110.2z"/>
				<path class="st37" d="M611.1,126.1c1.7-1,3.3-2.8,4.6-5l5,8.1c-3,5-6.5,9.1-10.3,11.3c-7.7,4.5-13.8,0-15-10.2l9.1-8.6
					C605,126.1,607.7,128.1,611.1,126.1z"/>
				<g>
					<path class="st20" d="M602.2,100.9l5.6,7.1c-1.9,3.1-3.2,7.1-3.4,10.9c-0.1,1,0,2,0.1,2.8l-9.1,8.6c-0.2-1.8-0.3-3.8-0.2-6
						C595.6,116.3,598.3,107.8,602.2,100.9z"/>
					<path class="st29" d="M613,88.7c0,0,0.1,0,0.1-0.1l-0.7,14.4c0,0-0.1,0-0.1,0.1c-1.7,1-3.3,2.8-4.6,5l-5.6-7.1
						C605.2,95.5,609,91,613,88.7z"/>
				</g>
			</g>
		</g>
		<g>
			<g>
				<g>
					<path class="st38" d="M526.3,119.7c5.5,1,12.8-1.6,19.5-7c3.4-2.7,6.6-6.1,9.8-9.1c3.3-3,6.8-5.9,10.2-7.1
						c4.2-1.5,7.6-0.4,11.7-1.6c4.6-1.2,8.7-5,13-9.1c2.6-2.5,5.5-3.9,8.2-4.6c2.6-0.7,5.1-0.9,7.8-1.6c3.4-0.9,7.1-2.7,10.6-5.1
						c3-2.1,6.1-4.9,8.1-8.4"/>
				</g>
				<g>
					<path class="st39" d="M526.2,123.2c5.2-4.9,10-10.9,15.5-15.1c5.5-4.2,11.5-5.8,16.1-5.7c1.9,0,3.9,0.2,6.1-0.8
						c3.3-1.4,6.5-4.8,9.6-8c4.3-4.5,8-7.6,12.4-7.9c3.6-0.3,6.8,0.5,10.7-0.4c4.8-1.1,10.1-4.6,15-9c4.9-4.4,9.3-9.7,13.6-15.1"/>
				</g>
				<g>
					<path class="st40" d="M526.2,125.7c2.8-1.4,5.8-3.8,8.2-6.8c2.5-3,4.4-6.5,6.6-9.8c2.2-3.3,4.8-6.6,7.7-8.2
						c3.3-1.8,6-1.1,8.1,0.3c2.1,1.3,3.8,3.2,6.4,3.7c1.8,0.3,4.2-0.2,6.3-2.2c2.5-2.3,3.8-5.8,5.1-8.9c1.1-2.6,2.4-5.2,4.1-7.5
						c1.7-2.3,4-4.4,6.1-5c3.1-0.9,4.8,1.4,6.4,3.3c1.6,1.9,4.1,3.5,7.3,1.3c1.5-1,2.8-2.7,4-4.3c3.3-4.7,5.3-11.4,10.2-14.4
						c1.7-1.1,3.4-1.3,4.8-1c3.2,0.7,5.6,3.8,7.2,6.6"/>
				</g>
			</g>
			<g>
				<polyline class="st41" points="522.9,107.8 523.4,133.3 624.4,76.2 				"/>
			</g>
		</g>
		<g>
			<g>
				<polygon class="st29" points="524.8,152 582.2,119.2 582.2,114.3 524.8,147.2 				"/>
				<polygon class="st15" points="544.2,140.9 582.2,119.2 582.2,114.3 544.2,136.1 				"/>
				<polygon class="st29" points="524.3,161.8 581.5,128.8 581.5,123.8 524.2,156.9 				"/>
				<polygon class="st37" points="558.1,142.3 581.5,128.8 581.5,123.8 558,137.4 				"/>
				<polygon class="st29" points="524.3,170.8 581.6,137.7 581.5,132.8 524.3,165.9 				"/>
				<polygon class="st20" points="567,146.1 581.6,137.7 581.5,132.8 567,141.2 				"/>
				<polygon class="st29" points="524.4,179.7 581.7,146.6 581.6,141.7 524.4,174.8 				"/>
				<polygon class="st14" points="573.9,151.1 581.7,146.6 581.6,141.7 573.9,146.2 				"/>
				<polygon class="st29" points="524.5,188.6 581.7,155.5 581.7,150.6 524.4,183.7 				"/>
				<polygon class="st30" points="578.9,157.2 581.7,155.5 581.7,150.6 578.8,152.3 				"/>
			</g>
		</g>
	</g>
	<g>
		<g>
			<polygon class="st7" points="664.7,152.6 683.4,159.5 663.6,168.2 644.7,161.4 			"/>
			<polygon class="st1" points="683.1,176.7 663.6,185.3 663.6,168.2 683.4,159.5 			"/>
			<polygon class="st30" points="676.7,168 670.3,170.8 670.3,165.2 676.7,162.4 			"/>
			<polygon class="st30" points="672.7,161 666.3,163.8 670.3,165.2 676.7,162.4 			"/>
			<polygon class="st26" points="644.7,178.6 663.6,185.3 663.6,168.2 644.7,161.4 			"/>
		</g>
		<g>
			<path class="st37" d="M654,175.6L654,175.6c0.9-0.3,1.7-0.9,2.2-1.6c0.5-0.7,1.1-1.3,1.6-0.8c0.4,0.4-0.5,1.3-0.4,1.9
				c0.8,0.2,1.6-1.3,1.6-1.3c1.1-0.3,2,1,2.3,2c0.3,1.1-1.7,3.4-2.8,3.7l-3.7,0.5C654.9,180,654,175.6,654,175.6z"/>
			<path class="st37" d="M658.6,179.5l-3.7,0.5c0,0-0.9-4.4-0.9-4.5l0,0c0.2-0.1,0.4-0.2,0.6-0.3
				C655.9,176.5,658.7,179.5,658.6,179.5z"/>
			<path class="st37" d="M655.8,179l-1.1-3.1c-0.2-0.5-0.8-0.7-1.3-0.6l-8.5,3.2c0.4-5.1,1-14.9,0-17.8c-0.5-1.4-2.1-3.2-3.7-2.1
				c-2.5,1.7-2.2,8.5-2,10.2c0.1,1,0.2,7.5,0.3,12.3c0,2.5,2.5,4.2,4.8,3.3c4.6-1.7,10.9-4.1,10.9-4.1
				C655.8,180.2,656,179.5,655.8,179z"/>
		</g>
		<g>
			
				<ellipse transform="matrix(0.999 -4.542335e-02 4.542335e-02 0.999 -6.0185 30.0217)" class="st25" cx="657.6" cy="147.4" rx="2.1" ry="6.8"/>
			<path class="st25" d="M655.8,156.1L655.8,156.1c0-1,0.7-1.8,1.7-1.8l0.4,0c0,0-2.3-2.9-2.4-5.7c-0.1-2.9-6.2,5.9-6.2,5.9l0.1,1.9
				c0,0.8,0.7,1.5,1.6,1.5l3.3-0.1C655.2,157.7,655.9,156.9,655.8,156.1z"/>
			<path class="st29" d="M645.1,149.5c0.3,1.1,1.4,3.2,2.3,4.2c0.8,1,1.8,1.8,3,1.9c1.6,0.1,3.7-0.1,4.5-0.8
				c1.1-1.1,1.5-5.7,1.5-7.3c0-1.8,0.6-2.6,1.3-2.9c1.3-0.5,2-2,1.4-3.3c-0.9-1.7-2.8-3.4-6.8-3.3
				C643.5,138.3,643.9,144.6,645.1,149.5z"/>
			
				<ellipse transform="matrix(0.9694 -0.2457 0.2457 0.9694 -16.2428 165.6643)" class="st25" cx="655.9" cy="147.9" rx="1.3" ry="2.1"/>
		</g>
		<g>
			<line class="st36" x1="648.6" y1="234.9" x2="651.7" y2="232.3"/>
		</g>
		<g>
			<path class="st29" d="M662.7,235.2l-2.8,2c-0.9,0.7-2,1.7-2.2,2.5c-0.1,0.5,0,2,0,2s5,0.9,6.6,0.3c1.6-0.6,8.3-5.5,8.3-5.5
				S669.4,230.8,662.7,235.2z"/>
			<path class="st29" d="M672.8,236.3c-0.1-0.2-0.4-0.4-0.6-0.5c-0.3,0-0.5,0-0.7,0.2c-1.3,1.3-4.3,3.8-7.7,4.7
				c-1.5,0.4-6-0.3-6-0.3c-0.3,0-0.5,0.3-0.5,0.5v1.2c0,0,4.5,1,6.8,0.3c3.5-1.1,8.2-4.6,8.2-4.6c0.4-0.3,0.8-0.6,0.7-1.2
				C672.9,236.8,672.9,236.6,672.8,236.3z"/>
			<path class="st29" d="M648.7,232.9l-2.8,2c-0.9,0.7-2,1.7-2.2,2.5c-0.1,0.5,0,2,0,2s5,0.9,6.6,0.3c1.6-0.6,8.3-5.5,8.3-5.5
				S655.3,228.4,648.7,232.9z"/>
			<path class="st29" d="M658.7,233.9c-0.1-0.2-0.4-0.4-0.6-0.5c-0.3,0-0.5,0-0.7,0.2c-1.3,1.3-4.3,3.8-7.7,4.7
				c-1.5,0.4-6-0.3-6-0.3c-0.3,0-0.5,0.3-0.5,0.5v1.2c0,0,4.5,1,6.8,0.3c3.5-1.1,8.2-4.6,8.2-4.6c0.4-0.3,0.8-0.6,0.7-1.2
				C658.8,234.4,658.8,234.2,658.7,233.9z"/>
			<line class="st29" x1="662.5" y1="237.7" x2="665.5" y2="235.1"/>
		</g>
		<g>
			<path class="st42" d="M666,212.9c0,0-1.1-9-1.3-10.7c-0.1-0.9-0.2-2.5-0.2-4.1c0-0.3,0.3-0.8,0.6-1.2c0.3-0.4,0.3-1,0-1.5
				l-0.8-1.2l-1.2-4.3l-20.4-0.9c0,0-0.5,10.2,1.8,26c0.3,2,0.3,10.6-0.1,16.6c-0.1,0.9-0.6,1-0.6,1.8c-0.2,2.8-0.3,4.7-0.3,4.7
				s1.4,1.1,6.4,0.3c1.1-0.2,2-0.7,2.2-1.8c0.2-1,0.4-2.2,0.4-3.6c0-0.5-0.4-2.2-0.4-2.7c0.5-9.2,0.9-20.9,0.3-26l0.1-3.1
				c0-0.5,0.6-0.7,0.9-0.3c1,1.6,1.7,3.4,2.2,4.6c0.8,1.9,1.8,9.7,2.1,11.8c0.5,3.1,0.4,18.7,0.4,18.7l-0.5,0.5l-0.2,3.5
				c0,0.3,0.2,0.6,0.5,0.7c1.8,0.6,5.5,1.2,8.9-1c0.3-0.2,0.5-0.7,0.4-1.1l-0.4-2l-0.4-0.7v-3.2L666,212.9z"/>
		</g>
		<path class="st26" d="M641.5,158.2c2.3-2.4,5.6-2.8,10.4-2.5c1.6,0.1,6.4,0.9,9.8,2.9c4.1,2.4,3.7,6.8,3.8,7.6
			c0.2,3.3-2.1,11.3-0.1,22.6c0.1,0.8-0.5,1.6-1.3,1.9c-2.3,0.9-8.5,2.8-13.5,2.4c-3.9-0.3-6.4-1.7-7.6-2.6c-0.5-0.4-0.8-1-0.8-1.7
			C642.5,185.4,638.2,161.7,641.5,158.2z"/>
		<path class="st25" d="M673,178.8L673,178.8c0.9-0.3,1.7-0.9,2.2-1.6c0.5-0.7,1.1-1.3,1.6-0.8c0.4,0.4-0.5,1.3-0.4,1.9
			c0.8,0.2,1.6-1.3,1.6-1.3c1.1-0.3,2,1,2.3,2c0.3,1.1-1.7,3.4-2.8,3.7l-3.7,0.5C673.9,183.3,673,178.9,673,178.8z"/>
		<path class="st37" d="M674.8,182.3l-1.1-3.1c-0.2-0.5-0.8-0.7-1.3-0.6l-8.5,3.2c0.4-5.1,1-14.9,0-17.8c-0.5-1.4-2.1-3.2-3.7-2.1
			c-2.5,1.7-2.2,8.5-2,10.2c0.1,1,0.2,7.5,0.3,12.3c0,2.5,2.5,4.2,4.8,3.3c4.6-1.7,10.9-4.1,10.9-4.1
			C674.8,183.4,675.1,182.8,674.8,182.3z"/>
		<path class="st42" d="M658,144.1c0,0,5.1-1.4,6.5-2.4c1.3-1-4.9-2.9-7-2.5L658,144.1z"/>
		<path class="st37" d="M644.3,145.5c0,0-1.9-8.5,6-10c5.1-1,9,1.6,9.3,7.6c0,0.3-0.2,0.6-0.4,0.8c-1,0.4-3.5,1.4-6.4,1.9
			C648.9,146.3,644.5,146.7,644.3,145.5z"/>
		
			<ellipse transform="matrix(0.9895 -0.1446 0.1446 0.9895 -12.9394 95.4231)" class="st42" cx="650" cy="136.7" rx="1.1" ry="0.4"/>
	</g>
	<g id="_x25__2_">
		<g id="XMLID_1347_">
			<path id="XMLID_1348_" class="st24" d="M686.7,23.5c0,4-1.1,6.4-2.9,7.4c-1.6,1-5,2.9-5,2.9s-7.3-2.7-9.1-6.2
				c-3-6-2.9-18.2-2.9-18.2s3-1.8,4.9-2.8c1.6-0.9,3.7-0.7,6.2,0.7C683.6,10.5,686.7,17.1,686.7,23.5z M674.5,16.8
				c0,3.9,1.1,7.4,3.3,8.7c2.1,1.2-2.9-13.2-3.2-10.8C674.6,15.4,674.5,16.1,674.5,16.8z M691.8,21l4.9-2.9l4.1,2.4l-18.7,28
				l-4.9,2.9l-4-2.3L691.8,21z M710.1,52.5c0,4-1.1,6.4-2.9,7.4c-1.6,1-5,2.9-5,2.9s-7.4-2.7-9.9-8.3c-2.4-5.6-2.3-16-2.3-16
				s3.2-1.9,5.1-2.9c1.6-0.9,3.7-0.7,6.2,0.7C706.9,39.6,710.1,46.1,710.1,52.5z M698,45.9c-0.1,3.9,1.1,7.4,3.3,8.6
				c2.1,1.2,1,0.7,1-3.5c0-3.8,0.4-5.1-1.9-6.5C698.1,43.3,698,42.2,698,45.9z"/>
		</g>
		<path id="XMLID_63_" class="st14" d="M681.8,26.3c0,7.8-4.3,9.5-9,6.7c-4.9-2.9-8.8-9.4-8.8-16.4c0-6.7,3.5-9.7,9.1-6.5
			C678.6,13.4,681.8,19.9,681.8,26.3z M669.6,19.7c0,3.9,1.1,7.4,3.3,8.7c2.1,1.2,3.2-0.7,3.2-4.9c0-3.8-0.9-7.3-3.2-8.6
			C670.6,13.5,669.6,15.9,669.6,19.7z M673.2,49l18.6-28l4.1,2.4l-18.7,28L673.2,49z M705.2,55.4c0,7.8-4.3,9.5-9,6.7
			c-4.9-2.8-8.8-9.3-8.8-16.4c0-6.7,3.5-9.7,9.1-6.5C702,42.4,705.2,49,705.2,55.4z M693,48.8c-0.1,3.9,1.1,7.4,3.3,8.6
			c2.1,1.2,3.2-0.7,3.2-4.9c0-3.8-0.8-7.2-3.2-8.6C694,42.6,693,45,693,48.8z"/>
	</g>
	<polygon id="XMLID_28_" class="st14" points="464.4,165 301.4,70.9 299.3,71.1 462.3,165.2 	"/>
	<g>
		<g>
			<path class="st24" d="M467.7,44.7l-2.8,0.4l5.1-2.9l0,0c3.2-1.7,8.7-0.9,14.9,2.7c9.8,5.7,17.8,16.1,17.8,23.2c0,2.3-0.8,4-2.3,5
				l0,0l-0.1,0c-0.2,0.2-0.5,0.3-0.8,0.4l-4.3,2.5l-1.1-1.9c-2.7-0.4-5.9-1.5-9.3-3.5c-2.8-1.6-5.6-3.7-8.1-6.1l-9.6,0.3l4.1-6.6
				c-2.7-3.9-4.2-7.7-4.2-10.8C467.2,46.4,467.4,45.5,467.7,44.7z"/>
			<path class="st14" d="M480.3,47.5c-9.8-5.7-17.8-4.5-17.8,2.7c0,3.1,1.5,6.9,4.2,10.8l-4.1,6.6l9.6-0.3c2.5,2.3,5.3,4.4,8.1,6.1
				c9.8,5.7,17.8,4.5,17.8-2.7C498.1,63.6,490.1,53.1,480.3,47.5z"/>
		</g>
		<path class="st20" d="M485.5,61.2l-3.4-2.5c-0.1-0.1-0.1-0.1-0.2-0.2l-1.5-4.4c-0.1-0.2-0.2-0.3-0.3-0.3c0,0-1.3,0.7-1.3,0.7l0,0
			c0,0,0,0,0,0l-1,1.8l-2.8-1.1c0,0-0.1,0-0.1,0c-0.1,0-1.2,0.7-1.2,0.7c-0.1,0-0.1,0.2,0,0.4l2.4,4.1c0.1,0.1,0.1,0.2,0.1,0.3
			l-0.6,3.5c0,0.2,0.2,0.5,0.3,0.5l3-0.1c0.1,0,0.1,0,0.2,0.1l3,3.6c0.1,0.1,0.2,0.1,0.3,0.1l0,0c0,0,1.2-0.7,1.3-0.7
			c0,0,0.1-0.1,0-0.2l-0.6-4.2c0-0.1,0-0.1,0.1-0.2l1.2-0.7c0,0,0,0,0,0l1.2-0.7C485.8,61.7,485.7,61.3,485.5,61.2z"/>
	</g>
	<g>
		<path class="st42" d="M436.1,37.7c-0.1-0.2-0.3-0.5-0.5-0.7l1.3,0.2l-2.9-1.6c-0.2-0.1-0.4-0.3-0.7-0.4l0,0l0,0
			c-0.3-0.2-0.7-0.3-1-0.4c-2.3-0.7-5.1-0.2-8.2,1.5c-7.5,4.3-13.6,14.9-13.6,23.5c0,3.6,1.1,6.4,3,8.1l-3.8,11.1l8.3-9.5
			c1.9,0,4-0.6,6.1-1.9c7.5-4.3,13.6-14.9,13.6-23.5C437.6,41.5,437.1,39.3,436.1,37.7z"/>
		<path class="st37" d="M427.2,38.1c-7.5,4.3-13.6,14.9-13.6,23.5c0,3.6,1.1,6.4,3,8.1l-3.8,11.1l8.3-9.5c1.9,0,4-0.6,6.1-1.9
			c7.5-4.3,13.6-14.9,13.6-23.5C440.8,37.3,434.7,33.8,427.2,38.1z M417.5,72l-1,1.4l0.2-0.5L417.5,72z"/>
		<polygon class="st42" points="412.8,80.7 409.7,78.9 413.5,67.9 416.6,69.7 		"/>
		<g>
			<path class="st30" d="M424.4,54.2c1-0.6,1.7-1.9,1.7-3c0-0.6-0.3-1.1-0.7-1.2c0,0,0.1,0,0.1,0l-0.7-0.4l0,0l0,0
				c-0.3-0.2-0.7-0.2-1.2,0.1c-1,0.6-1.7,1.9-1.7,3c0,0.6,0.2,1,0.6,1.1v0l0.7,0.4c0,0-0.1-0.1-0.1-0.1
				C423.4,54.5,423.9,54.5,424.4,54.2z M425.2,50c0.1,0,0.1,0,0.2,0C425.3,50,425.3,50,425.2,50z M425.1,50c-0.1,0-0.1,0-0.2,0
				C425,50,425,50,425.1,50z M424.8,50.1c-0.1,0-0.2,0.1-0.3,0.2C424.5,50.2,424.7,50.1,424.8,50.1z M422.9,54c0,0,0,0.1,0.1,0.1
				C423,54.1,422.9,54.1,422.9,54z M422.7,53.2c0,0.1,0,0.3,0,0.4C422.7,53.5,422.7,53.4,422.7,53.2z M422.8,53.7
				c0,0.1,0,0.1,0.1,0.2C422.8,53.9,422.8,53.8,422.8,53.7z"/>
			<path class="st30" d="M432.8,45.8c0,0,0.1,0,0.1,0l-0.7-0.4l0,0l0,0c-0.3-0.2-0.7-0.2-1.2,0.1c-1,0.6-1.7,1.9-1.7,3
				c0,0.6,0.2,1,0.6,1.1v0l0.7,0.4c0,0-0.1,0-0.1-0.1c0.3,0.3,0.8,0.3,1.3,0c1-0.6,1.7-1.9,1.7-3C433.4,46.4,433.2,46,432.8,45.8z
				 M432.6,45.8c-0.1,0-0.1,0-0.2,0C432.5,45.8,432.6,45.8,432.6,45.8z M432.4,45.8c-0.1,0-0.1,0-0.2,0
				C432.2,45.8,432.3,45.8,432.4,45.8z M430.2,49.9c0,0,0,0.1,0.1,0.1C430.2,49.9,430.2,49.9,430.2,49.9z M430,49c0,0.1,0,0.3,0,0.4
				C430,49.3,430,49.2,430,49z M430.1,49.5c0,0.1,0,0.1,0.1,0.2C430.1,49.7,430.1,49.6,430.1,49.5z M432,45.9
				c-0.1,0-0.2,0.1-0.3,0.2C431.8,46,431.9,45.9,432,45.9z"/>
			<path class="st30" d="M423.4,58.2c0,1,0.4,1.7,0.9,2.1l0,0l0.8,0.5c0,0-0.1-0.1-0.1-0.1c0.6,0.5,1.5,0.5,2.5-0.1
				c1.8-1,3.3-3.6,3.3-5.7l-0.9-0.5L423.4,58.2z M424.7,60.3c0,0.1,0.1,0.1,0.1,0.2C424.8,60.4,424.8,60.4,424.7,60.3z M424.5,59.7
				c0,0.1,0.1,0.2,0.1,0.3C424.5,59.9,424.5,59.8,424.5,59.7z M424.4,59.4c0-0.2-0.1-0.5-0.1-0.7C424.3,59,424.3,59.2,424.4,59.4z"
				/>
		</g>
	</g>
	<g>
		<path id="XMLID_2171_" class="st7" d="M286.5,6l1.1,0c-1.3-1-2.4-1.1-2.8-0.9c-0.4,0.2-135.1,78-135.1,78
			c-1.2,0.7-2.4,3.5-2.1,4.5l31.7,90.6l2.4,0.4l-1.2-1.7l-31.1-89l2-3.9L286.5,6z"/>
		<path id="XMLID_2170_" class="st26" d="M182.4,178.4l135.1-78c1.1-0.7,2.7-2.1,2-3.9L288.5,7.6c-0.4-1.3-0.9-2.2-2-1.5l-135.1,78
			c-1.1,0.7-2,2.4-2,3.9l31.1,88.9C180.8,178.3,181.3,179.1,182.4,178.4z"/>
		<path id="XMLID_2165_" class="st1" d="M268.8,224.7l-2.9-0.1l-83.3-48.7v3.7l0,1.2c0,0.3,0.3,0.6,0.7,0.9l82.5,47.8
			c0.9,0.5,2.2,0.6,2.9,0.1l136-78.5c0.3-0.2,0.5-0.5,0.5-0.7l0-1.2v-3.7L268.8,224.7z"/>
		<path id="XMLID_2164_" class="st7" d="M269.5,224.5l135.1-78c1.1-0.7,1-1.8-0.3-2.5l-81.4-47c-1.3-0.8-3.3-0.8-4.4-0.2l-135.1,78
			c-1.1,0.7-1,1.8,0.3,2.5l81.4,47C266.4,225,268.4,225.1,269.5,224.5z"/>
		<path id="XMLID_2159_" class="st30" d="M312.8,192.9l40.7-23.5c0.3-0.2,0.3-0.5-0.1-0.8l-24.5-14.2c-0.4-0.2-1-0.3-1.3-0.1
			l-40.7,23.5c-0.3,0.2-0.3,0.5,0.1,0.8l24.5,14.2C311.8,193.1,312.4,193.1,312.8,192.9z"/>
		<g id="XMLID_1784_">
			<g id="XMLID_1785_">
				<path id="XMLID_2157_" class="st30" d="M346.3,119.6l-11.1-6.4c-0.6-0.4-1.7-0.3-2.5,0.1l-0.8,0.5c-0.7,0.4-0.8,1.1-0.2,1.4
					l11.1,6.4c0.6,0.4,1.7,0.3,2.5-0.1l0.8-0.5C346.9,120.6,347,119.9,346.3,119.6z"/>
				<path id="XMLID_2156_" class="st30" d="M239.7,199.2l5.1-2.9c0.6-0.4,0.6-1-0.2-1.4l-3.5-2c-0.7-0.4-1.8-0.5-2.5-0.1l-5.1,2.9
					c-0.6,0.4-0.6,1,0.2,1.4l3.5,2C238,199.5,239.1,199.5,239.7,199.2z"/>
				<path id="XMLID_2155_" class="st30" d="M315.2,130.5l5.1-2.9c0.6-0.4,0.6-1-0.2-1.4l-3.5-2c-0.7-0.4-1.8-0.5-2.5-0.1L309,127
					c-0.6,0.4-0.6,1,0.2,1.4l3.5,2C313.4,130.9,314.5,130.9,315.2,130.5z"/>
				<path id="XMLID_2154_" class="st30" d="M232.5,195l10.8-6.2c0.6-0.4,0.6-1-0.2-1.4l-3.5-2c-0.7-0.4-1.8-0.5-2.5-0.1l-10.8,6.2
					c-0.6,0.4-0.6,1,0.2,1.4l3.5,2C230.7,195.3,231.8,195.3,232.5,195z"/>
				<path id="XMLID_2153_" class="st30" d="M225.2,190.8l8.2-4.7c0.6-0.4,0.6-1-0.2-1.4l-3.5-2c-0.7-0.4-1.8-0.5-2.5-0.1l-8.2,4.7
					c-0.6,0.4-0.6,1,0.2,1.4l3.5,2C223.5,191.1,224.6,191.2,225.2,190.8z"/>
				<path id="XMLID_2152_" class="st30" d="M210.8,182.4l3.9-2.3c0.6-0.4,0.6-1-0.2-1.4l-3.5-2c-0.7-0.4-1.8-0.5-2.5-0.1l-3.9,2.3
					c-0.6,0.4-0.6,1,0.2,1.4l3.5,2C209,182.8,210.1,182.8,210.8,182.4z"/>
				<path id="XMLID_2151_" class="st30" d="M218,186.6l7.1-4.1c0.6-0.4,0.6-1-0.2-1.4l-3.5-2c-0.7-0.4-1.8-0.5-2.5-0.1l-7.1,4.1
					c-0.6,0.4-0.6,1,0.2,1.4l3.5,2C216.3,186.9,217.4,187,218,186.6z"/>
				<path id="XMLID_2150_" class="st30" d="M221.9,174.7l-3.9-2.3c-0.6-0.4-1.7-0.3-2.5,0.1l-3.5,2c-0.7,0.4-0.8,1.1-0.2,1.4
					l3.9,2.3c0.6,0.4,1.7,0.3,2.5-0.1l3.5-2C222.5,175.7,222.5,175.1,221.9,174.7z"/>
				<path id="XMLID_2149_" class="st30" d="M229.1,170.5l-3.9-2.3c-0.6-0.4-1.7-0.3-2.5,0.1l-3.5,2c-0.7,0.4-0.8,1.1-0.2,1.4
					l3.9,2.3c0.6,0.4,1.7,0.3,2.5-0.1l3.5-2C229.7,171.5,229.8,170.9,229.1,170.5z"/>
				<path id="XMLID_2148_" class="st30" d="M236.4,166.3l-3.9-2.3c-0.6-0.4-1.7-0.3-2.5,0.1l-3.5,2c-0.7,0.4-0.8,1.1-0.2,1.4
					l3.9,2.3c0.6,0.4,1.7,0.3,2.5-0.1l3.5-2C236.9,167.3,237,166.7,236.4,166.3z"/>
				<path id="XMLID_2147_" class="st30" d="M243.6,162.2l-3.9-2.3c-0.6-0.4-1.7-0.3-2.5,0.1l-3.5,2c-0.7,0.4-0.8,1.1-0.2,1.4
					l3.9,2.3c0.6,0.4,1.7,0.3,2.5-0.1l3.5-2C244.2,163.2,244.2,162.5,243.6,162.2z"/>
				<path id="XMLID_2146_" class="st30" d="M246.9,161.6l3.9-2.3c0.6-0.4,0.6-1-0.2-1.4l-3.5-2c-0.7-0.4-1.8-0.5-2.5-0.1l-3.9,2.3
					c-0.6,0.4-0.6,1,0.2,1.4l3.5,2C245.2,161.9,246.3,161.9,246.9,161.6z"/>
				<path id="XMLID_2145_" class="st30" d="M258.1,153.8l-3.9-2.3c-0.6-0.4-1.7-0.3-2.5,0.1l-3.5,2c-0.7,0.4-0.8,1.1-0.2,1.4
					l3.9,2.3c0.6,0.4,1.7,0.3,2.5-0.1l3.5-2C258.6,154.8,258.7,154.2,258.1,153.8z"/>
				<path id="XMLID_2144_" class="st30" d="M265.3,149.6l-3.9-2.3c-0.6-0.4-1.7-0.3-2.5,0.1l-3.5,2c-0.7,0.4-0.8,1.1-0.2,1.4
					l3.9,2.3c0.6,0.4,1.7,0.3,2.5-0.1l3.5-2C265.9,150.6,265.9,150,265.3,149.6z"/>
				<path id="XMLID_2143_" class="st30" d="M272.5,145.5l-3.9-2.3c-0.6-0.4-1.7-0.3-2.5,0.1l-3.5,2c-0.7,0.4-0.8,1.1-0.2,1.4
					l3.9,2.3c0.6,0.4,1.7,0.3,2.5-0.1l3.5-2C273.1,146.5,273.2,145.8,272.5,145.5z"/>
				<path id="XMLID_2142_" class="st30" d="M279.8,141.3l-3.9-2.3c-0.6-0.4-1.7-0.3-2.5,0.1l-3.5,2c-0.7,0.4-0.8,1.1-0.2,1.4
					l3.9,2.3c0.6,0.4,1.7,0.3,2.5-0.1l3.5-2C280.3,142.3,280.4,141.6,279.8,141.3z"/>
				<path id="XMLID_2141_" class="st30" d="M287,137.1l-3.9-2.3c-0.6-0.4-1.7-0.3-2.5,0.1l-3.5,2c-0.7,0.4-0.8,1.1-0.2,1.4l3.9,2.3
					c0.6,0.4,1.7,0.3,2.5-0.1l3.5-2C287.6,138.1,287.7,137.5,287,137.1z"/>
				<path id="XMLID_2140_" class="st30" d="M294.3,132.9l-3.9-2.3c-0.6-0.4-1.7-0.3-2.5,0.1l-3.5,2c-0.7,0.4-0.8,1.1-0.2,1.4
					l3.9,2.3c0.6,0.4,1.7,0.3,2.5-0.1l3.5-2C294.8,133.9,294.9,133.3,294.3,132.9z"/>
				<path id="XMLID_2139_" class="st30" d="M301.5,128.7l-3.9-2.3c-0.6-0.4-1.7-0.3-2.5,0.1l-3.5,2c-0.7,0.4-0.8,1.1-0.2,1.4
					l3.9,2.3c0.6,0.4,1.7,0.3,2.5-0.1l3.5-2C302,129.7,302.1,129.1,301.5,128.7z"/>
				<path id="XMLID_2138_" class="st30" d="M313,122.1l-3.9-2.3c-0.6-0.4-1.7-0.3-2.5,0.1l-7.8,4.5c-0.7,0.4-0.8,1.1-0.2,1.4
					l3.9,2.3c0.6,0.4,1.7,0.3,2.5-0.1l7.8-4.5C313.5,123.1,313.6,122.5,313,122.1z"/>
				<path id="XMLID_2137_" class="st30" d="M332.8,144.1l-3.9-2.3c-0.6-0.4-1.7-0.3-2.5,0.1l-13.5,7.8c-0.7,0.4-0.8,1.1-0.2,1.4
					l3.9,2.3c0.6,0.4,1.7,0.3,2.5-0.1l13.5-7.8C333.3,145.1,333.4,144.5,332.8,144.1z"/>
				<path id="XMLID_2136_" class="st30" d="M327.4,130.5l-3.9-2.3c-0.6-0.4-1.7-0.3-2.5,0.1l-10.7,6.2c-0.7,0.4-0.8,1.1-0.2,1.4
					l3.9,2.3c0.6,0.4,1.7,0.3,2.5-0.1l10.7-6.2C328,131.5,328.1,130.8,327.4,130.5z"/>
				<path id="XMLID_2135_" class="st30" d="M232.2,177.1l-3.9-2.3c-0.6-0.4-1.7-0.3-2.5,0.1l-3.5,2c-0.7,0.4-0.8,1.1-0.2,1.4
					l3.9,2.3c0.6,0.4,1.7,0.3,2.5-0.1l3.5-2C232.8,178.1,232.9,177.4,232.2,177.1z"/>
				<path id="XMLID_2134_" class="st30" d="M239.5,172.9l-3.9-2.3c-0.6-0.4-1.7-0.3-2.5,0.1l-3.5,2c-0.7,0.4-0.8,1.1-0.2,1.4
					l3.9,2.3c0.6,0.4,1.7,0.3,2.5-0.1l3.5-2C240,173.9,240.1,173.3,239.5,172.9z"/>
				<path id="XMLID_2133_" class="st30" d="M246.7,168.7l-3.9-2.3c-0.6-0.4-1.7-0.3-2.5,0.1l-3.5,2c-0.7,0.4-0.8,1.1-0.2,1.4
					l3.9,2.3c0.6,0.4,1.7,0.3,2.5-0.1l3.5-2C247.3,169.7,247.3,169.1,246.7,168.7z"/>
				<path id="XMLID_2132_" class="st30" d="M253.9,164.5l-3.9-2.3c-0.6-0.4-1.7-0.3-2.5,0.1l-3.5,2c-0.7,0.4-0.8,1.1-0.2,1.4
					l3.9,2.3c0.6,0.4,1.7,0.3,2.5-0.1l3.5-2C254.5,165.5,254.6,164.9,253.9,164.5z"/>
				<path id="XMLID_2131_" class="st30" d="M257.3,163.9l3.9-2.3c0.6-0.4,0.6-1-0.2-1.4l-3.5-2c-0.7-0.4-1.8-0.5-2.5-0.1l-3.9,2.3
					c-0.6,0.4-0.6,1,0.2,1.4l3.5,2C255.5,164.3,256.6,164.3,257.3,163.9z"/>
				<path id="XMLID_2130_" class="st30" d="M268.4,156.2l-3.9-2.3c-0.6-0.4-1.7-0.3-2.5,0.1l-3.5,2c-0.7,0.4-0.8,1.1-0.2,1.4
					l3.9,2.3c0.6,0.4,1.7,0.3,2.5-0.1l3.5-2C269,157.2,269,156.6,268.4,156.2z"/>
				<path id="XMLID_2129_" class="st30" d="M275.6,152l-3.9-2.3c-0.6-0.4-1.7-0.3-2.5,0.1l-3.5,2c-0.7,0.4-0.8,1.1-0.2,1.4l3.9,2.3
					c0.6,0.4,1.7,0.3,2.5-0.1l3.5-2C276.2,153,276.3,152.4,275.6,152z"/>
				<path id="XMLID_2128_" class="st30" d="M282.9,147.8l-3.9-2.3c-0.6-0.4-1.7-0.3-2.5,0.1l-3.5,2c-0.7,0.4-0.8,1.1-0.2,1.4
					l3.9,2.3c0.6,0.4,1.7,0.3,2.5-0.1l3.5-2C283.4,148.8,283.5,148.2,282.9,147.8z"/>
				<path id="XMLID_2127_" class="st30" d="M290.1,143.7l-3.9-2.3c-0.6-0.4-1.7-0.3-2.5,0.1l-3.5,2c-0.7,0.4-0.8,1.1-0.2,1.4
					l3.9,2.3c0.6,0.4,1.7,0.3,2.5-0.1l3.5-2C290.7,144.7,290.8,144,290.1,143.7z"/>
				<path id="XMLID_2126_" class="st30" d="M297.4,139.5l-3.9-2.3c-0.6-0.4-1.7-0.3-2.5,0.1l-3.5,2c-0.7,0.4-0.8,1.1-0.2,1.4
					l3.9,2.3c0.6,0.4,1.7,0.3,2.5-0.1l3.5-2C297.9,140.5,298,139.8,297.4,139.5z"/>
				<path id="XMLID_2125_" class="st30" d="M304.6,135.3l-3.9-2.3c-0.6-0.4-1.7-0.3-2.5,0.1l-3.5,2c-0.7,0.4-0.8,1.1-0.2,1.4
					l3.9,2.3c0.6,0.4,1.7,0.3,2.5-0.1l3.5-2C305.1,136.3,305.2,135.7,304.6,135.3z"/>
				<path id="XMLID_2124_" class="st30" d="M311.8,131.1l-3.9-2.3c-0.6-0.4-1.7-0.3-2.5,0.1l-3.5,2c-0.7,0.4-0.8,1.1-0.2,1.4
					l3.9,2.3c0.6,0.4,1.7,0.3,2.5-0.1l3.5-2C312.4,132.1,312.5,131.5,311.8,131.1z"/>
				<path id="XMLID_2123_" class="st30" d="M240.7,180.5l-3.9-2.3c-0.6-0.4-1.7-0.3-2.5,0.1l-3.5,2c-0.7,0.4-0.8,1.1-0.2,1.4
					l3.9,2.3c0.6,0.4,1.7,0.3,2.5-0.1l3.5-2C241.3,181.6,241.3,180.9,240.7,180.5z"/>
				<path id="XMLID_2122_" class="st30" d="M247.9,176.4l-3.9-2.3c-0.6-0.4-1.7-0.3-2.5,0.1l-3.5,2c-0.7,0.4-0.8,1.1-0.2,1.4
					l3.9,2.3c0.6,0.4,1.7,0.3,2.5-0.1l3.5-2C248.5,177.4,248.6,176.7,247.9,176.4z"/>
				<path id="XMLID_2121_" class="st30" d="M255.2,172.2l-3.9-2.3c-0.6-0.4-1.7-0.3-2.5,0.1l-3.5,2c-0.7,0.4-0.8,1.1-0.2,1.4
					l3.9,2.3c0.6,0.4,1.7,0.3,2.5-0.1l3.5-2C255.7,173.2,255.8,172.6,255.2,172.2z"/>
				<path id="XMLID_2120_" class="st30" d="M258.5,171.6l3.9-2.3c0.6-0.4,0.6-1-0.2-1.4l-3.5-2c-0.7-0.4-1.8-0.5-2.5-0.1l-3.9,2.3
					c-0.6,0.4-0.6,1,0.2,1.4l3.5,2C256.8,171.9,257.9,172,258.5,171.6z"/>
				<path id="XMLID_2119_" class="st30" d="M269.6,163.8l-3.9-2.3c-0.6-0.4-1.7-0.3-2.5,0.1l-3.5,2c-0.7,0.4-0.8,1.1-0.2,1.4
					l3.9,2.3c0.6,0.4,1.7,0.3,2.5-0.1l3.5-2C270.2,164.8,270.3,164.2,269.6,163.8z"/>
				<path id="XMLID_2118_" class="st30" d="M276.9,159.7l-3.9-2.3c-0.6-0.4-1.7-0.3-2.5,0.1l-3.5,2c-0.7,0.4-0.8,1.1-0.2,1.4
					l3.9,2.3c0.6,0.4,1.7,0.3,2.5-0.1l3.5-2C277.4,160.7,277.5,160,276.9,159.7z"/>
				<path id="XMLID_2117_" class="st30" d="M284.1,155.5l-3.9-2.3c-0.6-0.4-1.7-0.3-2.5,0.1l-3.5,2c-0.7,0.4-0.8,1.1-0.2,1.4
					l3.9,2.3c0.6,0.4,1.7,0.3,2.5-0.1l3.5-2C284.7,156.5,284.7,155.9,284.1,155.5z"/>
				<path id="XMLID_2116_" class="st30" d="M291.3,151.3l-3.9-2.3c-0.6-0.4-1.7-0.3-2.5,0.1l-3.5,2c-0.7,0.4-0.8,1.1-0.2,1.4
					l3.9,2.3c0.6,0.4,1.7,0.3,2.5-0.1l3.5-2C291.9,152.3,292,151.7,291.3,151.3z"/>
				<path id="XMLID_2115_" class="st30" d="M298.6,147.1l-3.9-2.3c-0.6-0.4-1.7-0.3-2.5,0.1l-3.5,2c-0.7,0.4-0.8,1.1-0.2,1.4
					l3.9,2.3c0.6,0.4,1.7,0.3,2.5-0.1l3.5-2C299.1,148.1,299.2,147.5,298.6,147.1z"/>
				<path id="XMLID_2114_" class="st30" d="M305.8,143l-3.9-2.3c-0.6-0.4-1.7-0.3-2.5,0.1l-3.5,2c-0.7,0.4-0.8,1.1-0.2,1.4l3.9,2.3
					c0.6,0.4,1.7,0.3,2.5-0.1l3.5-2C306.4,144,306.4,143.3,305.8,143z"/>
				<path id="XMLID_2113_" class="st30" d="M313,138.8l-3.9-2.3c-0.6-0.4-1.7-0.3-2.5,0.1l-3.5,2c-0.7,0.4-0.8,1.1-0.2,1.4l3.9,2.3
					c0.6,0.4,1.7,0.3,2.5-0.1l3.5-2C313.6,139.8,313.7,139.1,313,138.8z"/>
				<path id="XMLID_2112_" class="st30" d="M250.5,183.2l-3.9-2.3c-0.6-0.4-1.7-0.3-2.5,0.1l-3.5,2c-0.7,0.4-0.8,1.1-0.2,1.4
					l3.9,2.3c0.6,0.4,1.7,0.3,2.5-0.1l3.5-2C251.1,184.2,251.1,183.6,250.5,183.2z"/>
				<path id="XMLID_2111_" class="st30" d="M257.7,179.1l-3.9-2.3c-0.6-0.4-1.7-0.3-2.5,0.1l-3.5,2c-0.7,0.4-0.8,1.1-0.2,1.4
					l3.9,2.3c0.6,0.4,1.7,0.3,2.5-0.1l3.5-2C258.3,180.1,258.4,179.4,257.7,179.1z"/>
				<path id="XMLID_2110_" class="st30" d="M261.1,178.5l3.9-2.3c0.6-0.4,0.6-1-0.2-1.4l-3.5-2c-0.7-0.4-1.8-0.5-2.5-0.1l-3.9,2.3
					c-0.6,0.4-0.6,1,0.2,1.4l3.5,2C259.3,178.8,260.4,178.8,261.1,178.5z"/>
				<path id="XMLID_2109_" class="st30" d="M272.2,170.7l-3.9-2.3c-0.6-0.4-1.7-0.3-2.5,0.1l-3.5,2c-0.7,0.4-0.8,1.1-0.2,1.4
					l3.9,2.3c0.6,0.4,1.7,0.3,2.5-0.1l3.5-2C272.8,171.7,272.8,171.1,272.2,170.7z"/>
				<path id="XMLID_2108_" class="st30" d="M252,190.7l-3.9-2.3c-0.6-0.4-1.7-0.3-2.5,0.1l-3.5,2c-0.7,0.4-0.8,1.1-0.2,1.4l3.9,2.3
					c0.6,0.4,1.7,0.3,2.5-0.1l3.5-2C252.5,191.7,252.6,191.1,252,190.7z"/>
				<path id="XMLID_2107_" class="st30" d="M255.3,190.1l3.9-2.3c0.6-0.4,0.6-1-0.2-1.4l-3.5-2c-0.7-0.4-1.8-0.5-2.5-0.1l-3.9,2.3
					c-0.6,0.4-0.6,1,0.2,1.4l3.5,2C253.6,190.5,254.7,190.5,255.3,190.1z"/>
				<path id="XMLID_2106_" class="st30" d="M266.4,182.4l-3.9-2.3c-0.6-0.4-1.7-0.3-2.5,0.1l-3.5,2c-0.7,0.4-0.8,1.1-0.2,1.4
					l3.9,2.3c0.6,0.4,1.7,0.3,2.5-0.1l3.5-2C267,183.4,267.1,182.8,266.4,182.4z"/>
				<path id="XMLID_2105_" class="st30" d="M301.1,162.4l-3.9-2.3c-0.6-0.4-1.7-0.3-2.5,0.1l-31,17.9c-0.7,0.4-0.8,1.1-0.2,1.4
					l3.9,2.3c0.6,0.4,1.7,0.3,2.5-0.1l31-17.9C301.7,163.4,301.8,162.7,301.1,162.4z"/>
				<path id="XMLID_2104_" class="st30" d="M279.4,166.5l-3.9-2.3c-0.6-0.4-1.7-0.3-2.5,0.1l-3.5,2c-0.7,0.4-0.8,1.1-0.2,1.4
					l3.9,2.3c0.6,0.4,1.7,0.3,2.5-0.1l3.5-2C280,167.5,280.1,166.9,279.4,166.5z"/>
				<path id="XMLID_2103_" class="st30" d="M286.7,162.4l-3.9-2.3c-0.6-0.4-1.7-0.3-2.5,0.1l-3.5,2c-0.7,0.4-0.8,1.1-0.2,1.4
					l3.9,2.3c0.6,0.4,1.7,0.3,2.5-0.1l3.5-2C287.2,163.4,287.3,162.7,286.7,162.4z"/>
				<path id="XMLID_2102_" class="st30" d="M293.9,158.2l-3.9-2.3c-0.6-0.4-1.7-0.3-2.5,0.1l-3.5,2c-0.7,0.4-0.8,1.1-0.2,1.4
					l3.9,2.3c0.6,0.4,1.7,0.3,2.5-0.1l3.5-2C294.5,159.2,294.5,158.5,293.9,158.2z"/>
				<path id="XMLID_2101_" class="st30" d="M301.1,154l-3.9-2.3c-0.6-0.4-1.7-0.3-2.5,0.1l-3.5,2c-0.7,0.4-0.8,1.1-0.2,1.4l3.9,2.3
					c0.6,0.4,1.7,0.3,2.5-0.1l3.5-2C301.7,155,301.8,154.4,301.1,154z"/>
				<path id="XMLID_2100_" class="st30" d="M308.4,149.8l-3.9-2.3c-0.6-0.4-1.7-0.3-2.5,0.1l-3.5,2c-0.7,0.4-0.8,1.1-0.2,1.4
					l3.9,2.3c0.6,0.4,1.7,0.3,2.5-0.1l3.5-2C308.9,150.8,309,150.2,308.4,149.8z"/>
				<path id="XMLID_2099_" class="st30" d="M308.4,158.2l-3.9-2.3c-0.6-0.4-1.7-0.3-2.5,0.1l-3.5,2c-0.7,0.4-0.8,1.1-0.2,1.4
					l3.9,2.3c0.6,0.4,1.7,0.3,2.5-0.1l3.5-2C308.9,159.2,309,158.5,308.4,158.2z"/>
				<path id="XMLID_2098_" class="st30" d="M315.6,154l-3.9-2.3c-0.6-0.4-1.7-0.3-2.5,0.1l-3.5,2c-0.7,0.4-0.8,1.1-0.2,1.4l3.9,2.3
					c0.6,0.4,1.7,0.3,2.5-0.1l3.5-2C316.2,155,316.2,154.4,315.6,154z"/>
				<path id="XMLID_2097_" class="st30" d="M315.6,145.6l-3.9-2.3c-0.6-0.4-1.7-0.3-2.5,0.1l-3.5,2c-0.7,0.4-0.8,1.1-0.2,1.4
					l3.9,2.3c0.6,0.4,1.7,0.3,2.5-0.1l3.5-2C316.2,146.7,316.2,146,315.6,145.6z"/>
				<path id="XMLID_2096_" class="st30" d="M315.6,145.6l-3.9-2.3c-0.6-0.4-1.7-0.3-2.5,0.1l-3.5,2c-0.7,0.4-0.8,1.1-0.2,1.4
					l3.9,2.3c0.6,0.4,1.7,0.3,2.5-0.1l3.5-2C316.2,146.7,316.2,146,315.6,145.6z"/>
				<path id="XMLID_2095_" class="st30" d="M330.1,137.3l-3.9-2.3c-0.6-0.4-1.7-0.3-2.5,0.1l-10.8,6.2c-0.7,0.4-0.8,1.1-0.2,1.4
					l3.9,2.3c0.6,0.4,1.7,0.3,2.5-0.1l10.8-6.2C330.7,138.3,330.7,137.6,330.1,137.3z"/>
				<path id="XMLID_2094_" class="st30" d="M203.5,178.3l3.9-2.3c0.6-0.4,0.6-1-0.2-1.4l-0.8-0.5c-0.7-0.4-1.8-0.5-2.5-0.1l-3.9,2.3
					c-0.6,0.4-0.6,1,0.2,1.4l0.8,0.5C201.8,178.6,202.9,178.6,203.5,178.3z"/>
				<path id="XMLID_2093_" class="st30" d="M334.7,134.6l-3.9-2.3c-0.6-0.4-1.7-0.3-2.5,0.1l-0.8,0.5c-0.7,0.4-0.8,1.1-0.2,1.4
					l3.9,2.3c0.6,0.4,1.7,0.3,2.5-0.1l0.8-0.5C335.2,135.6,335.3,135,334.7,134.6z"/>
				<path id="XMLID_2092_" class="st30" d="M341.9,138.8l-3.9-2.3c-0.6-0.4-1.7-0.3-2.5,0.1l-0.8,0.5c-0.7,0.4-0.8,1.1-0.2,1.4
					l3.9,2.3c0.6,0.4,1.7,0.3,2.5-0.1l0.8-0.5C342.5,139.8,342.5,139.2,341.9,138.8z"/>
				<path id="XMLID_2091_" class="st30" d="M339.9,131.6l-3.9-2.3c-0.6-0.4-1.7-0.3-2.5,0.1l-0.8,0.5c-0.7,0.4-0.8,1.1-0.2,1.4
					l3.9,2.3c0.6,0.4,1.7,0.3,2.5-0.1l0.8-0.5C340.4,132.6,340.5,132,339.9,131.6z"/>
				<path id="XMLID_2090_" class="st30" d="M347.1,135.8l-3.9-2.3c-0.6-0.4-1.7-0.3-2.5,0.1l-0.8,0.5c-0.7,0.4-0.8,1.1-0.2,1.4
					l3.9,2.3c0.6,0.4,1.7,0.3,2.5-0.1l0.8-0.5C347.7,136.8,347.7,136.2,347.1,135.8z"/>
				<path id="XMLID_2089_" class="st30" d="M337.3,141.5l-3.9-2.3c-0.6-0.4-1.7-0.3-2.5,0.1l-0.8,0.5c-0.7,0.4-0.8,1.1-0.2,1.4
					l3.9,2.3c0.6,0.4,1.7,0.3,2.5-0.1l0.8-0.5C337.9,142.5,338,141.8,337.3,141.5z"/>
				<path id="XMLID_2088_" class="st30" d="M337.3,141.5l-3.9-2.3c-0.6-0.4-1.7-0.3-2.5,0.1l-0.8,0.5c-0.7,0.4-0.8,1.1-0.2,1.4
					l3.9,2.3c0.6,0.4,1.7,0.3,2.5-0.1l0.8-0.5C337.9,142.5,338,141.8,337.3,141.5z"/>
				<path id="XMLID_2087_" class="st30" d="M344.4,129l-3.9-2.3c-0.6-0.4-1.7-0.3-2.5,0.1l-0.8,0.5c-0.7,0.4-0.8,1.1-0.2,1.4
					l3.9,2.3c0.6,0.4,1.7,0.3,2.5-0.1l0.8-0.5C345,130,345.1,129.4,344.4,129z"/>
				<path id="XMLID_2086_" class="st30" d="M351.7,133.2l-3.9-2.3c-0.6-0.4-1.7-0.3-2.5,0.1l-0.8,0.5c-0.7,0.4-0.8,1.1-0.2,1.4
					l3.9,2.3c0.6,0.4,1.7,0.3,2.5-0.1l0.8-0.5C352.2,134.2,352.3,133.5,351.7,133.2z"/>
				<path id="XMLID_2085_" class="st30" d="M349,126.4l-3.9-2.3c-0.6-0.4-1.7-0.3-2.5,0.1l-0.8,0.5c-0.7,0.4-0.8,1.1-0.2,1.4
					l3.9,2.3c0.6,0.4,1.7,0.3,2.5-0.1l0.8-0.5C349.6,127.4,349.6,126.7,349,126.4z"/>
				<path id="XMLID_2084_" class="st30" d="M356.2,130.5l-3.9-2.3c-0.6-0.4-1.7-0.3-2.5,0.1l-0.8,0.5c-0.7,0.4-0.8,1.1-0.2,1.4
					l3.9,2.3c0.6,0.4,1.7,0.3,2.5-0.1l0.8-0.5C356.8,131.6,356.9,130.9,356.2,130.5z"/>
				<path id="XMLID_2083_" class="st30" d="M360.8,127.9l-11.1-6.4c-0.6-0.4-1.7-0.3-2.5,0.1l-0.8,0.5c-0.7,0.4-0.8,1.1-0.2,1.4
					l11.1,6.4c0.6,0.4,1.7,0.3,2.5-0.1l0.8-0.5C361.3,128.9,361.4,128.3,360.8,127.9z"/>
				<path id="XMLID_2082_" class="st30" d="M325.4,123.3l-3.9-2.3c-0.6-0.4-1.7-0.3-2.5,0.1l-0.8,0.5c-0.7,0.4-0.8,1.1-0.2,1.4
					l3.9,2.3c0.6,0.4,1.7,0.3,2.5-0.1l0.8-0.5C326,124.3,326,123.7,325.4,123.3z"/>
				<path id="XMLID_2081_" class="st30" d="M332.6,127.5l-3.9-2.3c-0.6-0.4-1.7-0.3-2.5,0.1l-0.8,0.5c-0.7,0.4-0.8,1.1-0.2,1.4
					l3.9,2.3c0.6,0.4,1.7,0.3,2.5-0.1l0.8-0.5C333.2,128.5,333.3,127.8,332.6,127.5z"/>
				<path id="XMLID_2080_" class="st30" d="M330,120.7l-3.9-2.3c-0.6-0.4-1.7-0.3-2.5,0.1l-0.8,0.5c-0.7,0.4-0.8,1.1-0.2,1.4
					l3.9,2.3c0.6,0.4,1.7,0.3,2.5-0.1l0.8-0.5C330.5,121.7,330.6,121,330,120.7z"/>
				<path id="XMLID_2079_" class="st30" d="M337.2,124.8l-3.9-2.3c-0.6-0.4-1.7-0.3-2.5,0.1l-0.8,0.5c-0.7,0.4-0.8,1.1-0.2,1.4
					l3.9,2.3c0.6,0.4,1.7,0.3,2.5-0.1l0.8-0.5C337.8,125.8,337.8,125.2,337.2,124.8z"/>
				<path id="XMLID_2078_" class="st30" d="M334.5,118l-3.9-2.3c-0.6-0.4-1.7-0.3-2.5,0.1l-0.8,0.5c-0.7,0.4-0.8,1.1-0.2,1.4
					l3.9,2.3c0.6,0.4,1.7,0.3,2.5-0.1l0.8-0.5C335.1,119,335.2,118.4,334.5,118z"/>
				<path id="XMLID_2077_" class="st30" d="M318.2,119.1l-3.9-2.3c-0.6-0.4-1.7-0.3-2.5,0.1l-0.8,0.5c-0.7,0.4-0.8,1.1-0.2,1.4
					l3.9,2.3c0.6,0.4,1.7,0.3,2.5-0.1l0.8-0.5C318.7,120.1,318.8,119.5,318.2,119.1z"/>
				<path id="XMLID_2076_" class="st30" d="M215,170.3l-1.2-0.7c-0.6-0.4-1.7-0.3-2.5,0.1l-0.8,0.5c-0.7,0.4-0.8,1.1-0.2,1.4
					l1.2,0.7c0.6,0.4,1.7,0.3,2.5-0.1l0.8-0.5C215.6,171.3,215.7,170.7,215,170.3z"/>
				<path id="XMLID_2075_" class="st30" d="M219.6,167.7l-1.2-0.7c-0.6-0.4-1.7-0.3-2.5,0.1l-0.8,0.5c-0.7,0.4-0.8,1.1-0.2,1.4
					l1.2,0.7c0.6,0.4,1.7,0.3,2.5-0.1l0.8-0.5C220.1,168.7,220.2,168,219.6,167.7z"/>
				<path id="XMLID_2074_" class="st30" d="M224.1,165.1l-1.2-0.7c-0.6-0.4-1.7-0.3-2.5,0.1l-0.8,0.5c-0.7,0.4-0.8,1.1-0.2,1.4
					l1.2,0.7c0.6,0.4,1.7,0.3,2.5-0.1l0.8-0.5C224.7,166.1,224.8,165.4,224.1,165.1z"/>
				<path id="XMLID_2073_" class="st30" d="M228.7,162.4l-1.2-0.7c-0.6-0.4-1.7-0.3-2.5,0.1l-0.8,0.5c-0.7,0.4-0.8,1.1-0.2,1.4
					l1.2,0.7c0.6,0.4,1.7,0.3,2.5-0.1l0.8-0.5C229.2,163.4,229.3,162.8,228.7,162.4z"/>
				<path id="XMLID_2072_" class="st30" d="M233.2,159.8l-1.2-0.7c-0.6-0.4-1.7-0.3-2.5,0.1l-0.8,0.5c-0.7,0.4-0.8,1.1-0.2,1.4
					l1.2,0.7c0.6,0.4,1.7,0.3,2.5-0.1l0.8-0.5C233.7,160.8,233.8,160.2,233.2,159.8z"/>
				<path id="XMLID_2071_" class="st30" d="M237.7,157.2l-1.2-0.7c-0.6-0.4-1.7-0.3-2.5,0.1l-0.8,0.5c-0.7,0.4-0.8,1.1-0.2,1.4
					l1.2,0.7c0.6,0.4,1.7,0.3,2.5-0.1l0.8-0.5C238.3,158.2,238.4,157.6,237.7,157.2z"/>
				<path id="XMLID_2070_" class="st30" d="M242.3,154.6l-1.2-0.7c-0.6-0.4-1.7-0.3-2.5,0.1l-0.8,0.5c-0.7,0.4-0.8,1.1-0.2,1.4
					l1.2,0.7c0.6,0.4,1.7,0.3,2.5-0.1l0.8-0.5C242.8,155.6,242.9,155,242.3,154.6z"/>
				<path id="XMLID_2069_" class="st30" d="M246.8,152l-1.2-0.7c-0.6-0.4-1.7-0.3-2.5,0.1l-0.8,0.5c-0.7,0.4-0.8,1.1-0.2,1.4
					l1.2,0.7c0.6,0.4,1.7,0.3,2.5-0.1l0.8-0.5C247.3,153,247.4,152.3,246.8,152z"/>
				<path id="XMLID_2068_" class="st30" d="M251.3,149.4l-1.2-0.7c-0.6-0.4-1.7-0.3-2.5,0.1l-0.8,0.5c-0.7,0.4-0.8,1.1-0.2,1.4
					l1.2,0.7c0.6,0.4,1.7,0.3,2.5-0.1l0.8-0.5C251.9,150.4,252,149.7,251.3,149.4z"/>
				<path id="XMLID_2067_" class="st30" d="M255.9,146.7l-1.2-0.7c-0.6-0.4-1.7-0.3-2.5,0.1l-0.8,0.5c-0.7,0.4-0.8,1.1-0.2,1.4
					l1.2,0.7c0.6,0.4,1.7,0.3,2.5-0.1l0.8-0.5C256.4,147.7,256.5,147.1,255.9,146.7z"/>
				<path id="XMLID_2066_" class="st30" d="M260.4,144.1l-1.2-0.7c-0.6-0.4-1.7-0.3-2.5,0.1l-0.8,0.5c-0.7,0.4-0.8,1.1-0.2,1.4
					l1.2,0.7c0.6,0.4,1.7,0.3,2.5-0.1l0.8-0.5C260.9,145.1,261,144.5,260.4,144.1z"/>
				<path id="XMLID_2065_" class="st30" d="M264.9,141.5l-1.2-0.7c-0.6-0.4-1.7-0.3-2.5,0.1l-0.8,0.5c-0.7,0.4-0.8,1.1-0.2,1.4
					l1.2,0.7c0.6,0.4,1.7,0.3,2.5-0.1l0.8-0.5C265.5,142.5,265.6,141.9,264.9,141.5z"/>
				<path id="XMLID_2064_" class="st30" d="M269.5,138.9l-1.2-0.7c-0.6-0.4-1.7-0.3-2.5,0.1l-0.8,0.5c-0.7,0.4-0.8,1.1-0.2,1.4
					l1.2,0.7c0.6,0.4,1.7,0.3,2.5-0.1l0.8-0.5C270,139.9,270.1,139.2,269.5,138.9z"/>
				<path id="XMLID_2063_" class="st30" d="M274,136.3l-1.2-0.7c-0.6-0.4-1.7-0.3-2.5,0.1l-0.8,0.5c-0.7,0.4-0.8,1.1-0.2,1.4
					l1.2,0.7c0.6,0.4,1.7,0.3,2.5-0.1l0.8-0.5C274.5,137.3,274.6,136.6,274,136.3z"/>
				<path id="XMLID_2062_" class="st30" d="M278.5,133.6l-1.2-0.7c-0.6-0.4-1.7-0.3-2.5,0.1l-0.8,0.5c-0.7,0.4-0.8,1.1-0.2,1.4
					l1.2,0.7c0.6,0.4,1.7,0.3,2.5-0.1l0.8-0.5C279.1,134.6,279.2,134,278.5,133.6z"/>
				<path id="XMLID_2061_" class="st30" d="M283.1,131l-1.2-0.7c-0.6-0.4-1.7-0.3-2.5,0.1l-0.8,0.5c-0.7,0.4-0.8,1.1-0.2,1.4
					l1.2,0.7c0.6,0.4,1.7,0.3,2.5-0.1l0.8-0.5C283.6,132,283.7,131.4,283.1,131z"/>
				<path id="XMLID_2060_" class="st30" d="M287.6,128.4l-1.2-0.7c-0.6-0.4-1.7-0.3-2.5,0.1l-0.8,0.5c-0.7,0.4-0.8,1.1-0.2,1.4
					l1.2,0.7c0.6,0.4,1.7,0.3,2.5-0.1l0.8-0.5C288.2,129.4,288.2,128.8,287.6,128.4z"/>
				<path id="XMLID_2049_" class="st30" d="M292.1,125.8l-1.2-0.7c-0.6-0.4-1.7-0.3-2.5,0.1l-0.8,0.5c-0.7,0.4-0.8,1.1-0.2,1.4
					l1.2,0.7c0.6,0.4,1.7,0.3,2.5-0.1l0.8-0.5C292.7,126.8,292.8,126.2,292.1,125.8z"/>
				<path id="XMLID_2048_" class="st30" d="M296.7,123.2l-1.2-0.7c-0.6-0.4-1.7-0.3-2.5,0.1l-0.8,0.5c-0.7,0.4-0.8,1.1-0.2,1.4
					l1.2,0.7c0.6,0.4,1.7,0.3,2.5-0.1l0.8-0.5C297.2,124.2,297.3,123.5,296.7,123.2z"/>
				<path id="XMLID_2020_" class="st30" d="M301.2,120.6l-1.2-0.7c-0.6-0.4-1.7-0.3-2.5,0.1l-0.8,0.5c-0.7,0.4-0.8,1.1-0.2,1.4
					l1.2,0.7c0.6,0.4,1.7,0.3,2.5-0.1l0.8-0.5C301.8,121.6,301.8,120.9,301.2,120.6z"/>
				<path id="XMLID_2019_" class="st30" d="M305.7,117.9l-1.2-0.7c-0.6-0.4-1.7-0.3-2.5,0.1l-0.8,0.5c-0.7,0.4-0.8,1.1-0.2,1.4
					l1.2,0.7c0.6,0.4,1.7,0.3,2.5-0.1l0.8-0.5C306.3,118.9,306.4,118.3,305.7,117.9z"/>
				<path id="XMLID_2001_" class="st30" d="M310.9,114.9l-1.2-0.7c-0.6-0.4-1.7-0.3-2.5,0.1l-0.8,0.5c-0.7,0.4-0.8,1.1-0.2,1.4
					l1.2,0.7c0.6,0.4,1.7,0.3,2.5-0.1l0.8-0.5C311.5,115.9,311.6,115.3,310.9,114.9z"/>
				<path id="XMLID_2000_" class="st30" d="M315.5,112.3l-1.2-0.7c-0.6-0.4-1.7-0.3-2.5,0.1l-0.8,0.5c-0.7,0.4-0.8,1.1-0.2,1.4
					l1.2,0.7c0.6,0.4,1.7,0.3,2.5-0.1l0.8-0.5C316,113.3,316.1,112.7,315.5,112.3z"/>
				<path id="XMLID_1984_" class="st30" d="M320,109.7l-1.2-0.7c-0.6-0.4-1.7-0.3-2.5,0.1l-0.8,0.5c-0.7,0.4-0.8,1.1-0.2,1.4
					l1.2,0.7c0.6,0.4,1.7,0.3,2.5-0.1l0.8-0.5C320.6,110.7,320.6,110.1,320,109.7z"/>
				<path id="XMLID_1983_" class="st30" d="M324.5,107.1l-1.2-0.7c-0.6-0.4-1.7-0.3-2.5,0.1L320,107c-0.7,0.4-0.8,1.1-0.2,1.4
					l1.2,0.7c0.6,0.4,1.7,0.3,2.5-0.1l0.8-0.5C325.1,108.1,325.2,107.4,324.5,107.1z"/>
				<path id="XMLID_1976_" class="st30" d="M322.7,116.5l-3.9-2.3c-0.6-0.4-1.7-0.3-2.5,0.1l-0.8,0.5c-0.7,0.4-0.8,1.1-0.2,1.4
					l3.9,2.3c0.6,0.4,1.7,0.3,2.5-0.1l0.8-0.5C323.3,117.5,323.4,116.8,322.7,116.5z"/>
				<path id="XMLID_1975_" class="st30" d="M327.3,113.8l-3.9-2.3c-0.6-0.4-1.7-0.3-2.5,0.1l-0.8,0.5c-0.7,0.4-0.8,1.1-0.2,1.4
					l3.9,2.3c0.6,0.4,1.7,0.3,2.5-0.1l0.8-0.5C327.9,114.8,327.9,114.2,327.3,113.8z"/>
				<path id="XMLID_1920_" class="st30" d="M331.9,111.2L328,109c-0.6-0.4-1.7-0.3-2.5,0.1l-0.8,0.5c-0.7,0.4-0.8,1.1-0.2,1.4
					l3.9,2.3c0.6,0.4,1.7,0.3,2.5-0.1l0.8-0.5C332.4,112.2,332.5,111.6,331.9,111.2z"/>
				<path id="XMLID_1919_" class="st30" d="M341.8,122.2l-3.9-2.3c-0.6-0.4-1.7-0.3-2.5,0.1l-0.8,0.5c-0.7,0.4-0.8,1.1-0.2,1.4
					l3.9,2.3c0.6,0.4,1.7,0.3,2.5-0.1l0.8-0.5C342.3,123.2,342.4,122.6,341.8,122.2z"/>
			</g>
		</g>
		<path id="XMLID_2168_" class="st8" d="M184.8,165c-0.2,0-0.4-0.1-0.5-0.3l-26.3-75c-0.1-0.2,0-0.5,0.2-0.6l124.7-72
			c0.1,0,0.2-0.1,0.2-0.1c0.2,0,0.4,0.1,0.5,0.3l26.3,75c0.1,0.2,0,0.5-0.2,0.6l-124.7,72C184.9,164.9,184.9,165,184.8,165z"/>
		<g id="XMLID_1354_">
			<linearGradient id="XMLID_72_" gradientUnits="userSpaceOnUse" x1="177.0248" y1="93.4114" x2="285.6249" y2="93.4114">
				<stop  offset="0" style="stop-color:#0071BC"/>
				<stop  offset="1" style="stop-color:#0B4F87"/>
			</linearGradient>
			<polygon id="XMLID_1438_" style="fill:url(#XMLID_72_);" points="285.6,99.6 198.5,149.9 177,87.2 264.2,36.9 			"/>
			<g id="XMLID_1355_">
				<polygon id="XMLID_1436_" class="st30" points="264.2,36.9 266.4,43.5 179.3,93.7 177,87.2 				"/>
				<g id="XMLID_1428_">
					<path id="XMLID_1431_" class="st30" d="M247.4,86c0.3,2-0.4,3.4-1.9,4.3c-5.2,3-15.9,9.2-16.2,9.3l1,3.5
						c0.2,0.4,0.5,0.4,0.8,0.2c4.7-2.7,14.4-8.3,14.7-8.4c0.7-0.2,1.3,0.1,1.6,0.9c0.3,0.8,0,1.7-0.6,2.2
						c-0.2,0.1-11.2,6.5-16.3,9.4c-1,0.6-1.9,0.4-2.2-0.5c-0.3-0.9-1.7-5.6-1.7-5.6c-2.6-3.6-5.2-7.3-7.8-10.9
						c-0.3-0.5-0.6-0.5-1.1-0.2l-4.1,2.3c-1,0.5-1.7,0.9-2.2-0.7c-0.5-1.5,0.1-1.9,0.8-2.2c2-1.2,4.1-2.4,6.1-3.5
						c0.6-0.3,1.1-0.2,1.5,0.4c0.3,0.4,0.6,0.7,0.8,1.1c0.3,0.5,0.6,0.5,1,0.2c7-4.1,14-8.1,21-12.1c1.5-0.8,2.8-1,3.2,0.4
						C246.4,78.1,247.2,84.7,247.4,86z M243.5,79c-6.9,4-20.6,11.9-20.6,11.9l0.9,1.2c0.3,0.5,0.5,0.5,1,0.2
						c6.2-3.6,12.3-7.1,18.5-10.7c0.4-0.2,0.5-0.5,0.5-0.9C243.6,80.1,243.6,79.7,243.5,79z M244.3,84.8l-18.2,10.5l0.9,1.3
						c0.2,0.4,0.5,0.4,0.8,0.2c2.7-1.6,5.3-3.1,8-4.6c2.8-1.6,5.5-3.2,8.3-4.8c0.3-0.2,0.5-0.4,0.4-0.8L244.3,84.8z"/>
					<path id="XMLID_1430_" class="st30" d="M231.9,107.8c1.2-0.7,2.6-0.1,3.1,1.4c0.5,1.5-0.1,3.3-1.3,4c-1.2,0.7-2.6,0.1-3.1-1.4
						C230.1,110.3,230.7,108.5,231.9,107.8z"/>
					<path id="XMLID_1429_" class="st30" d="M245.8,99.8c1.2-0.7,2.7-0.1,3.2,1.3c0.5,1.4-0.1,3.2-1.3,3.9c-1.2,0.7-2.7,0.1-3.2-1.4
						C244,102.3,244.6,100.6,245.8,99.8z"/>
				</g>
			</g>
		</g>
	</g>
	<g>
		<path class="st16" d="M297,23.6L297,23.6c0-6.4,4.5-14.2,10-17.4c1.6-0.9,3.1-1.3,4.4-1.3l-2.7-1.6c-1.8-1.1-4.4-1-7.2,0.6
			c-4.2,2.4-7.8,7.5-9.3,12.6C295.1,17,297,19.5,297,23.6z"/>
		<path class="st16" d="M279.5,41.4L279.5,41.4L279.5,41.4c-1.6-1.2-2.6-3.3-2.6-6.2c0-6.4,4.5-14.2,10-17.4
			c1.6-0.9,3.1-1.4,4.5-1.3l-2.8-1.6l0,0c-1.8-1.1-4.3-0.9-7.1,0.7c-5.5,3.2-10,11-10,17.4c0,2.9,0.9,5,2.5,6.2l0,0l0.1,0.1
			c0,0,0.1,0.1,0.1,0.1l17.4,12.2l4,2.3l0.1-0.9l-16.1-11.3C279.6,41.5,279.5,41.5,279.5,41.4z"/>
		<path class="st15" d="M317.1,12c0-4.5-2.3-7.1-5.6-7.1c-1.3,0-2.8,0.4-4.4,1.3c-5.5,3.2-10,11-10,17.4h0c0-4.1-1.9-6.6-4.7-7.1
			c-0.3,0-0.6-0.1-0.9-0.1c-1.4,0-2.9,0.4-4.5,1.3c-5.5,3.2-10,11-10,17.4c0,2.9,0.9,5,2.5,6.2l0,0l0.1,0.1c0,0,0.1,0.1,0.1,0.1
			l16.1,11.3l1.3,0.9l17.4-32.3c0-0.1,0.1-0.2,0.1-0.2l0.1-0.1l0,0C316.2,18.1,317.1,14.9,317.1,12z"/>
	</g>
	<g>
		<g>
			<path class="st42" d="M306.1,258.2v-39.4c0.5-1.8,1.4-2.7,2.7-3.4c10.5-5.9,21-11.9,31.5-17.9c0.9-0.5,1.6-0.6,2-0.3l10.9,6.1
				c0.6,0.2,0.8,0.9,0.8,2.2c0,12.1,0,24.3,0,36.4c0,1.6-0.3,3-1.5,4.4c-10.8,6.2-21.7,12.4-32.5,18.5c-0.8,0.4-1.7,0.4-2.4,0
				L306.1,258.2z"/>
			<path class="st37" d="M333.7,236.4c0,1.1,0,2.2,0,3.2c0,1.7,0.8,2.4,2,1.7c1.2-0.7,2-2.3,2-4c0-1.8,0-3.7,0-5.5
				c0-1.2,0.1-2.1,0.9-3.5c1.5-2.6,1.3-5.6-0.1-6.7c-1.5-1-3.8,0.2-5.3,2.9c-1.5,2.7-1.8,6-0.4,7c0.8,0.6,1,1.5,0.9,2.9
				C333.7,235.1,333.7,235.7,333.7,236.4z M317.4,225c0.5-1.8,1.4-2.7,2.7-3.4c10.5-5.9,21-11.9,31.5-17.9c1.8-1,2.5-0.5,2.5,1.8
				c0,12.1,0,24.3,0,36.4c0,1.6-0.3,3-1.5,4.4c-9.1,5.2-25.6,14.6-31.5,18c-1.4,0.8-1.6,0.9-2.4,0.9
				C318.2,264.9,317.4,238.1,317.4,225z"/>
			<path class="st26" d="M333.7,236.4c0,1.1,0,2.2,0,3.2c0,1.7,0.8,2.4,2,1.7c1.2-0.7,2-2.3,2-4c0-1.8,0-3.7,0-5.5
				c0-1.2,0.1-2.1,0.9-3.5c1.5-2.6,1.3-5.6-0.1-6.7c-1.5-1-3.8,0.2-5.3,2.9c-1.5,2.7-1.8,6-0.4,7c0.8,0.6,1,1.5,0.9,2.9
				C333.7,235.1,333.7,235.7,333.7,236.4z"/>
		</g>
		<path class="st26" d="M333.7,236.4c0,1.1,0,2.2,0,3.2c0,1.7,0.8,2.4,2,1.7c1.2-0.7,2-2.3,2-4c0-1.8,0-3.7,0-5.5
			c0-1.2,0.1-2.1,0.9-3.5c1.5-2.6,1.3-5.6-0.1-6.7c-1.5-1-3.8,0.2-5.3,2.9c-1.5,2.7-1.8,6-0.4,7c0.8,0.6,1,1.5,0.9,2.9
			C333.7,235.1,333.7,235.7,333.7,236.4z"/>
		<g>
			<path class="st42" d="M320,217.4c0.4-1.1,0.9-2.2,1.5-3.2c-0.1-1.6-0.1-3.3,0.1-4.9c0.1-1.4,0.4-2.8,0.9-4.2c0-0.1,0-0.3,0-0.4
				c0.6-6.3,4.9-13.1,9.8-16.8c3.8-2.8,7.6-4,11.8-4.5l0.4-0.5c-3.6-3.2-4.6-3.5-5.6-4c-4.1-2.3-10.2-0.3-15.7,5.4
				c-4.9,5.1-9.1,13.2-9.1,21.3c0,3.2-0.1,6.5-0.1,9.8c0,0.3,0,0.6,0,0.9l0.3,0.2l3,2.1l0.9,0.6C318.2,219.2,319.8,217.9,320,217.4z
				"/>
			<path class="st37" d="M337.9,185.9c0.2,8.4,0.3,16.9,0.3,16.9l4.3,2.8v-17.8C341,186.4,339.4,186,337.9,185.9z"/>
			<path class="st37" d="M323.2,216.7c-1.6,0.9-3.1,1.8-4.7,2.7c0-0.3,0-0.6,0-0.9c0-3.3,0.1-6.6,0-9.8c-0.2-8.1,3.9-16.3,8.7-21.5
				c6.6-7.1,14.3-8.6,18.1-3.4c1.3,1.7,2,4.1,2,7c0.1,3.9,0,7.8,0,11.7c0,0.1,0,0.2,0,0.4c-1.5,0.9-3.1,1.7-4.7,2.7c0-0.3,0-0.6,0-1
				c0-3.2-0.1-6.4,0-9.7c0.2-6.2-3.2-8.2-6.5-7.5c-3.8,0.8-7.3,3.6-10.3,8.7c-1.8,3-2.6,6.1-2.6,9.2c0,3.4,0,6.8,0,10.3
				C323.2,216,323.2,216.3,323.2,216.7z"/>
		</g>
	</g>
	<g>
		<path class="st29" d="M468.7,142.2c0,0-2.7,0.7-2.8,1.4c-0.2,0.7,1.3,5.1,2.9,5.9c1.9,6.4,5.4,9,5.4,9s2.3-0.4,2.1-1.9
			c-0.4-2.1-1.5-7.2-1.2-9.8C474.3,146.2,468.7,142.2,468.7,142.2z"/>
		<path class="st29" d="M438.2,152.8c0,0-0.3,8,1.3,11c1.5,2.5,4.9,3.3,6.4,2.1c1.5-1.2-1.2-7.9-0.7-12.7
			C444.5,152.6,438.2,152.8,438.2,152.8z"/>
		<path class="st1" d="M476.4,129.1c-0.8-2.1-16.9-23.5-24-22.6l-0.3-2l-5.6,1.7l-7.5-0.3l-6.3-1l0,0.7l0,0c0,0-1,4.6-0.8,8.5
			c0.4,11.3,4.5,18.6,4.9,21.9c-1.1,3.5,0.5,15.4,0.5,15.4s0.2,4.5,5.2,3.8c4.8-1,3.7-4.9,3.7-4.9s-1.5-10.8-1.5-13.2
			c0.8-3,0-20.7,0-20.8c2.8,1.8,22.4,14.5,23,14.9c-0.7,5.2,0,11.1,0,11.1s1.2,5.7,6.3,5.7c3.5,0,3.7-3,3.7-3
			S477.2,131.2,476.4,129.1z"/>
		<path class="st25" d="M463.6,113.3v1c0,0-1.4,2.1-1.8,4.8c-0.2,1.7-0.6,5.6,0,5.8c0.6,0.2,1.8,0.2,2.5,0c0.7-0.1,2.9-1.8,3.5-3.5
			c0.7-1.7,0.6-5.6,0.6-6.3c0-0.7-0.8-1.5-0.8-1.5l0.1-1.4l-2.5-1.8L463.6,113.3z"/>
		<path class="st7" d="M457.6,81.9c0,0,0.3,1.6,0.3,4c0,3.3-0.4,7.8-0.4,7.6c0,2.6,2.9,4.8,3.3,6.4c0.5,5.4,2.9,11.1,2.8,13.4
			c0.4-0.2,2-1.5,4.2-0.5c-0.6-4.5,0.6-8.8-2.1-15.1c-0.7-1-2.3-6.5-2.3-6.5s0-4.4-0.7-5.9C460.8,82,457.6,81.9,457.6,81.9z"/>
		<polygon class="st32" points="451.4,78.3 452.1,81.4 448.6,86.6 443.2,84.6 		"/>
		<path class="st7" d="M440.7,78h-6.3c0,0-2.7,13-1.3,15.6c0,1,1.2,3.2,1.3,6.6c0.1,1.7-1.4,2.9-1.6,4.8c0.1,0.6,6,3.4,11.2,3
			c3.8-0.3,6.5-1.8,7.7-2.7c0.4-0.3,0.6-0.7,0.6-1.2c0-0.3,0-0.7,0.1-1.2c0.2-1.2,4-6.8,5.2-9.5c2.2-4.8,0-11.2,0.1-11.5
			c-2.1-1.1-5.5-2.1-6-3.1c0-0.1-0.2,6.6-5.2,6.8C443.3,85.4,440.7,78,440.7,78z"/>
		<path class="st25" d="M441.4,72.4c0,0-1.2,2.7-1.3,4.1c-0.1,0.9,0.1,6.5,0.1,6.5c0,0.6,0.4,1.2,0.9,1.6c0.5,0.3,1.2,0.7,1.9,0.9
			c0.6,0.2,1.2,0.1,1.7-0.3c1.8-1.3,4.7-2.5,5.6-4.4c1.1-0.8,3.2-2.6,3.4-3.8c0.2-1.2-4.4-6-4.4-6L441.4,72.4z"/>
		<path class="st20" d="M441,72.4c0.3,1.1,2,1.5,2,1.5s0,2.9,1.8,4c2.6,1.5,5.1,0.7,5.1,0.7s-0.5,1,0,1c1.8-1.3,2.6-2.9,3.3-2.6
			c0.2,0.1-0.3,1.3-0.3,1.3s2.5-1.2,2.5-5.3c0.3-1.7-2.1-7.4-6.5-6.8c-0.8-1.4-2.4-0.8-2.4-0.8S439,69,441,72.4z"/>
		<path class="st25" d="M436.9,115.8l0.5,0.8c0,0,2.7-0.4,4,0c3.4,1.4,3.4,3.7,3.4,3.7s-0.8,1.5-1.2,1.9c-1.1,1-3.2,0.9-3.7,1.1
			c-1.7-1.3-3.4-2.5-3-2.1c-1.2-0.1-2.6-1-2.8-1.3c-0.8-1-1.4-2.7-1.4-2.7l1.5-2.9L436.9,115.8z"/>
		<path class="st7" d="M434.4,78c0,0,0.7,0.9,0.8,2.9c0.3,6.9-3.3,7.9-1.8,12.5c0.4,1-3.5,6.9-3.9,8.7c2.1,3.2,4.5,9.1,7.4,13.8
			c-2.4,0.3-3.5,1.7-3.8,2.2c-2.1-2.9-8.3-9.7-8.8-11.8c-0.6-2.1-0.4-3.6,0-5.8c0.4-2.3,3.2-6.3,4.2-13.1c0-1-0.2-4.3,1.2-6.4
			C431,78.7,434.4,78,434.4,78z"/>
	</g>
	<g>
		<path class="st20" d="M397.7,99.2c3,3.7,4.4,2.8,9.1,6.1c0.1,0.5,1.2,2.8-1.4,4.5c-2.4-0.5-6.3-2.7-7.1-1.9c-0.8,0.9-6.2-7-6.2-7
			S396.6,99.8,397.7,99.2z"/>
		<path class="st1" d="M413.9,157.5c0.3,4.6,0.8,4.8,1.2,6.4c0.2,1.2-0.4,2.9-1.1,2.9c-3,0.2-4.4-5.8-5.1-6.9
			c-0.7-1.1-2.1-0.9-3.4-3.4c-0.2-0.6,4-4,4-4S413.6,157.4,413.9,157.5z"/>
		<path class="st25" d="M416.5,149c0,0-2.1,3.1-2.6,8.5c-0.4,0.3-2.6-0.8-3.4-1.6c-1.2-1.2-1.9-3.5-1.9-3.5s2.4-4.3,2.6-6.8
			C412.1,145.6,416.5,149,416.5,149z"/>
		<path class="st24" d="M395.7,124.6c10.2,0.4,17.8,5.9,22.8,7.8c2.2,0.8,3.4,2.1,4.1,3.7c0.5,1.2,0.4,2.6-0.4,3.7
			c-1.4,2-4.1,5.2-5.7,9.1c-3.4,1.2-5.3-2.4-5.3-3.4c0.8-3.5,2.4-6.6,2.4-6.6l-14-2.1l-8.1-3C391.5,134,394.4,125.2,395.7,124.6z"/>
		<path class="st1" d="M401.7,163.8c-1.2,4,0.1,4.2-0.1,5.5c-0.3,1.3-1.6,2.1-2.8,2c-1.9-0.3-2.9-4.7-3.5-5.8
			c-0.8-1.4-1.9-2.3-2-4.2c-0.1-2,1.3-2.3,1.8-2.3c0.5,0,3.4,0.3,3.4,0.3S401.5,163.5,401.7,163.8z"/>
		<path class="st25" d="M401,155.5c-0.8,0.7-1.4,2.6-2.9,3.8c-0.3,0.8-1.3,2.9,0.1,4.7c1.4,1.3,3.2,0.9,3.5,0
			c1.8-3.5,3.5-4.7,3.5-4.7S401.4,155,401,155.5z"/>
		<path class="st24" d="M395.4,126.9c0,0-1.4,5.2-2.4,6.9c9.2,2.3,19.2,12.5,20.3,13.3c1.1,0.8,2.5,3.2,1.7,4.9
			c-0.4,1.6-2,1.2-9.9,7.4c-4.2-0.4-4.4-3.6-4.4-3.6s1.6-3,4.8-5.1c-2.5-1.3-14.2-4.7-21.3-8.9c-2-1.2-5.7-2.9-5.2-7.3
			c0.4-4,3.9-8,4.7-9.1C384.5,124.2,395.4,126.9,395.4,126.9z"/>
		<path class="st20" d="M396,102.7c0.5,3.1,5.4,5,5.2,8.2l-2,8.6c-0.7,2.8-2.9,2.8-2.9,2.8l-0.4,3.3c-0.1,1-0.3,2.4-2.1,4.5
			c-3.3,3.9-9.2,0.5-9.2,0.5s-3.9-1.6-1.2-5.4c0.9-3.2-1.8-9.3-1.4-13.3c0.2-3.6,3.2-9.8,3.2-11.4C385.2,99.2,395,103.3,396,102.7z"
			/>
		<path class="st25" d="M398.6,87.4c1.8,2.8,1.3,4.6,2.7,6.6c0,0.2-0.1,0.6-0.7,1.1c-0.2,1-0.1,2.3-0.1,3.1c0,0.5-0.3,1.1-0.7,1.3
			c-1.4,0.8-4,1.4-4,1.4l0.6-13.7C396.3,87.2,397.5,85.7,398.6,87.4z"/>
		<path class="st15" d="M398.6,87.6c0,0,0.2,0.9-0.6,1.2c1.3,4.6-3.2,9.9,0.8,13.4c-2.6,0.6-2.9,2.4-4.7,1.9c-0.5-0.1-0.7-0.2-0.8,0
			c-1.3,1.2-4.5,0.6-4.9,0.5c-0.9-0.4-0.7-1.3-1-1.2c-0.3,0-0.3,0.4-0.5,0.6c-1.7-1.1-3-4.4-3.2-5.4c-0.4-1.4-0.8-10.6,3.9-13.2
			c6-3,11.2-0.6,11.9,0.4c0.7,1,0,3,0,3L398.6,87.6z"/>
		<path class="st25" d="M373.2,121.3c0,0-0.4,0.5-1,0.9c-0.4,0.3-0.7,0.6-0.8,1.1c-1.1,4.2,0.6,13.9-0.1,16.9
			c0.2,1.5,0.6,3.3,1.2,4.9c0.6,1.7-0.5,2.4,0.4,3c0.5,0.2,2.2,1,3.3,0.6c1.6-0.7,2.4-3.2,2-4.1c-2-4.5-3.2-4.9-3.2-4.9
			c0.6-8.3,2.2-14,1.7-15.2C376.1,123.3,373.2,121.3,373.2,121.3z"/>
		<path class="st20" d="M373.2,121.3c0.6-0.6,9.5-9.1,9.5-9.1s2.8-3,6.2-0.3c1.7,1.8,1,3.3,0.8,4.2c-0.3,1.7-10.7,8-12.6,8.9
			C374.3,126.6,372.5,121.9,373.2,121.3z"/>
		<path class="st25" d="M427.5,104.5c0,0.6,4.8,0.1,5.4,1.1c0.4,0.6-0.8,2.3-1.6,2.9c-1.5,0.9-3.3,0.8-3.8,0.8
			c-0.5,0-3.9-1.8-4.6-1.7c-5.6,0.7-11.2,3.3-15.8,3.1c-0.7-0.1-1.4-1-2.3-1.1c-0.9-0.1,1.7-4.5,1.7-4.5s1.2,0.6,1.7,0.8
			c2.7-1.6,12.7-1,13.8-1.2c0.7,0,1.7-1.2,4.5-1.9L427.5,104.5z"/>
		<path class="st25" d="M426.5,102.9c0.6-0.1,3.4,0.2,3.4,1c0.1,0.4-2.4,0.2-2.4,0.6L426.5,102.9z"/>
	</g>
	<g>
		<path class="st16" d="M331.8,50.3L331.8,50.3c0-4.4,3.1-9.7,6.9-11.9c1.1-0.6,2.1-0.9,3-0.9l-1.9-1.1c-1.3-0.8-3-0.7-4.9,0.4
			c-2.9,1.7-5.3,5.2-6.4,8.7C330.5,45.8,331.8,47.5,331.8,50.3z"/>
		<path class="st16" d="M319.7,62.5L319.7,62.5L319.7,62.5c-1.1-0.8-1.8-2.3-1.8-4.3c0-4.4,3.1-9.7,6.9-11.9
			c1.1-0.6,2.1-0.9,3.1-0.9l-2-1.1l0,0c-1.2-0.7-3-0.6-4.9,0.5c-3.8,2.2-6.9,7.6-6.9,11.9c0,2,0.6,3.4,1.7,4.2l0,0l0.1,0
			c0,0,0,0,0.1,0.1l11.9,8.4l2.8,1.6l0.1-0.6L319.7,62.5C319.8,62.6,319.8,62.6,319.7,62.5z"/>
		<path class="st15" d="M345.5,42.4c0-3.1-1.6-4.9-3.8-4.9c-0.9,0-2,0.3-3,0.9c-3.8,2.2-6.9,7.6-6.9,11.9h0c0-2.8-1.3-4.6-3.2-4.9
			c-0.2,0-0.4,0-0.6,0c-0.9,0-2,0.3-3.1,0.9c-3.8,2.2-6.9,7.6-6.9,11.9c0,2,0.6,3.4,1.7,4.2l0,0l0.1,0c0,0,0,0,0.1,0.1l11,7.8
			l0.9,0.6l11.9-22.2c0-0.1,0.1-0.1,0.1-0.2l0-0.1l0,0C344.9,46.6,345.5,44.4,345.5,42.4z"/>
	</g>
</g>
</svg>
