<svg xmlns="http://www.w3.org/2000/svg" xmlns:xlink="http://www.w3.org/1999/xlink" viewBox="0 0 700 253"><defs><style>.cls-1,.cls-12,.cls-13,.cls-20,.cls-22,.cls-23,.cls-30{fill:none;}.cls-2{fill:#e4f2fb;}.cls-3{fill:#d2e9f7;}.cls-4{fill:#00a1e0;}.cls-5{fill:#95aec5;}.cls-6{fill:#0097c6;}.cls-7{fill:#1a82d7;}.cls-28,.cls-29,.cls-8{fill:#fff;}.cls-12,.cls-20,.cls-23,.cls-8{stroke:#a9b7c7;}.cls-12,.cls-13,.cls-20,.cls-22,.cls-23,.cls-28,.cls-30,.cls-8{stroke-miterlimit:10;}.cls-12,.cls-8{stroke-width:0.84px;}.cls-9{fill:#a9b7c7;}.cls-10{clip-path:url(#clip-path);}.cls-11{fill:#edeeef;}.cls-13{stroke:#95aec5;stroke-width:1.01px;}.cls-14{fill:#ccd5e2;}.cls-15{fill:#4bca81;}.cls-16{fill:#f9b777;}.cls-17{fill:#908aeb;}.cls-18{fill:#f0faff;}.cls-19{fill:#0071bc;}.cls-20,.cls-22{stroke-width:1.02px;}.cls-21{fill:#b2b2b2;}.cls-22{stroke:#b2b2b2;}.cls-23{stroke-width:0.84px;}.cls-24{clip-path:url(#clip-path-2);}.cls-25{fill:#f8fdff;}.cls-26{fill:#00b7ef;}.cls-27{fill:#f96;}.cls-28{stroke:#ededed;stroke-width:0.34px;}.cls-30{stroke:#1a82d7;stroke-width:1.36px;}.cls-31{fill:#eb7092;}.cls-32{fill:#b19f7e;}.cls-33{fill:#ffb75d;}.cls-34{fill:#73c073;}.cls-35{fill:#f26522;}.cls-36{fill:#fc6142;}.cls-37{fill:#fcd156;}.cls-38{fill:#f2a24c;}.cls-39{fill:#48a4d8;}.cls-40{fill:#4b6c7e;}.cls-41{fill:#71be71;}.cls-42{fill:#8bc7e8;}.cls-43{fill:#a1bac4;}.cls-44{fill:#558f55;}.cls-45{fill:#f7c9a4;}.cls-46{fill:#ffd9b6;}.cls-47{fill:#493030;}.cls-48{fill:#546e7a;}.cls-49{fill:#3f535c;}.cls-50{fill:#90a4ae;}.cls-51{fill:#f5f5f5;}.cls-52{fill:#b0bec5;}.cls-53{fill:#6fd59a;}.cls-54{fill:#d0d8dc;}.cls-55{fill:#f4ae7a;}.cls-56{fill:#cbeafb;}.cls-57{fill:#81c784;}.cls-58{fill:#99c6e4;}.cls-59{fill:#eceff1;}</style><clipPath id="clip-path"><circle class="cls-1" cx="448.35" cy="62.69" r="5.48"/></clipPath><clipPath id="clip-path-2"><circle class="cls-1" cx="265.89" cy="61.66" r="5.48"/></clipPath></defs><title>salesforce-services</title><g id="Layer_2" data-name="Layer 2"><rect class="cls-2" x="235.96" y="50.55" width="224.02" height="191.53"/><rect class="cls-2" x="235.96" y="99.25" width="224.02" height="142.83"/><path class="cls-3" d="M294.7,164H241.49a.7.7,0,0,1-.69-.71V105a.7.7,0,0,1,.69-.71H294.7a.7.7,0,0,1,.69.71v58.23A.7.7,0,0,1,294.7,164Z"/><path class="cls-3" d="M294.7,237.77H241.49a.78.78,0,0,1-.69-.84V167.84a.78.78,0,0,1,.69-.84H294.7a.78.78,0,0,1,.69.84v69.09A.78.78,0,0,1,294.7,237.77Z"/><path class="cls-3" d="M454.45,237.77H401.24c-.38,0-.69-.71-.69-1.59V105.9c0-.88.31-1.59.69-1.59h53.21c.38,0,.69.71.69,1.59V236.18C455.14,237.06,454.83,237.77,454.45,237.77Z"/><path class="cls-3" d="M396.25,123.52H299.68c-.7,0-1.26-.1-1.26-.23V104.54c0-.13.56-.23,1.26-.23h96.57c.7,0,1.26.1,1.26.23v18.75C397.51,123.42,396.95,123.52,396.25,123.52Z"/><path class="cls-3" d="M396.25,237.77H299.68a1.29,1.29,0,0,1-1.26-1.32V127.88a1.29,1.29,0,0,1,1.26-1.32h96.57a1.29,1.29,0,0,1,1.26,1.32V236.45A1.29,1.29,0,0,1,396.25,237.77Z"/><path class="cls-4" d="M453.75,28.48H240.87A4.91,4.91,0,0,0,236,33.39V50.68H460v-16A6.24,6.24,0,0,0,453.75,28.48Z"/><rect class="cls-5" x="235.96" y="72.94" width="224.01" height="1.04"/><rect class="cls-6" x="341.9" y="72.94" width="61.68" height="1.04"/><rect class="cls-6" x="235.96" y="87.1" width="106.16" height="1.04"/><rect class="cls-6" x="404.37" y="87.1" width="55.61" height="1.04"/><rect class="cls-5" x="405.38" y="111.39" width="41.67" height="4.04"/><rect class="cls-7" x="304.27" y="111.39" width="79.08" height="4.04"/><rect class="cls-5" x="322.47" y="168.01" width="55.64" height="2.24"/><rect class="cls-5" x="322.47" y="173.97" width="59.45" height="2.24"/><rect class="cls-5" x="322.47" y="179.93" width="68.97" height="2.24"/><rect class="cls-5" x="405.38" y="134.64" width="29.54" height="2.58"/><rect class="cls-5" x="405.38" y="141.53" width="31.56" height="2.58"/><rect class="cls-5" x="405.38" y="148.42" width="36.61" height="2.58"/><rect class="cls-5" x="405.38" y="155.31" width="29.54" height="2.58"/><rect class="cls-7" x="430.88" y="163.4" width="20.22" height="5.62" rx="0.6" ry="0.6"/><rect class="cls-5" x="405.38" y="175.09" width="29.54" height="2.58"/><rect class="cls-5" x="405.38" y="181.98" width="31.56" height="2.58"/><rect class="cls-5" x="405.38" y="188.87" width="36.61" height="2.58"/><rect class="cls-5" x="405.38" y="216.54" width="29.54" height="2.58"/><rect class="cls-5" x="405.38" y="223.43" width="31.56" height="2.58"/><rect class="cls-5" x="405.38" y="230.32" width="36.61" height="2.58"/><rect class="cls-5" x="405.38" y="195.76" width="29.54" height="2.58"/><rect class="cls-7" x="430.88" y="203.85" width="20.22" height="5.62" rx="0.6" ry="0.6"/><path class="cls-4" d="M254.65,57.76a3.45,3.45,0,0,0-1.41.3,2.86,2.86,0,0,0-2.5-1.48,2.83,2.83,0,0,0-2.05.88,3.14,3.14,0,0,0-5.38,3.15,2.73,2.73,0,0,0,1.35,5.09,2.67,2.67,0,0,0,.55-.06,2.91,2.91,0,0,0,5.41.13,2.55,2.55,0,0,0,3.34-1,3.46,3.46,0,0,0,.69.07,3.52,3.52,0,0,0,0-7Z"/><path class="cls-4" d="M263.57,64.82l.73-.93a4.09,4.09,0,0,0,1.16.61,4.31,4.31,0,0,0,1.34.19,2.39,2.39,0,0,0,1.46-.4,1.38,1.38,0,0,0,.54-1.18,1.46,1.46,0,0,0-.26-.9,1.8,1.8,0,0,0-.74-.56,8.52,8.52,0,0,0-1.27-.41,4.63,4.63,0,0,1-2-1,2.23,2.23,0,0,1-.67-1.71,2.31,2.31,0,0,1,.44-1.41,2.69,2.69,0,0,1,1.18-.89,4.37,4.37,0,0,1,1.67-.3,4.94,4.94,0,0,1,3,.93l-.66,1a5,5,0,0,0-1.12-.52,4,4,0,0,0-1.2-.17,2.32,2.32,0,0,0-1.32.34,1.25,1.25,0,0,0,0,2,5.17,5.17,0,0,0,1.59.62,5.24,5.24,0,0,1,2.15,1,2.46,2.46,0,0,1,.74,1.94,2.62,2.62,0,0,1-.47,1.59,2.86,2.86,0,0,1-1.27,1,4.72,4.72,0,0,1-1.78.32,5.23,5.23,0,0,1-1.75-.29A4.71,4.71,0,0,1,263.57,64.82Z"/><path class="cls-4" d="M271.36,63.77a2,2,0,0,1,1-1.88,6.07,6.07,0,0,1,2.85-.53h.69V61q0-1.32-1.56-1.32a4,4,0,0,0-2,.55l-.48-.94a4.81,4.81,0,0,1,1.23-.52,5.08,5.08,0,0,1,1.36-.19,3,3,0,0,1,2.21.69,2.88,2.88,0,0,1,.69,2.12v2.73a14.1,14.1,0,0,0,.11,1.56h-1.3a5.15,5.15,0,0,1-.09-.82h0a2.57,2.57,0,0,1-.94.76,3.4,3.4,0,0,1-1.41.25,2.35,2.35,0,0,1-1.61-.54A2,2,0,0,1,271.36,63.77Zm4.5-.7v-.71h-.55a4.44,4.44,0,0,0-1.92.3,1.08,1.08,0,0,0-.58,1,1,1,0,0,0,.31.79,1.21,1.21,0,0,0,.85.28,2,2,0,0,0,1-.25,1.77,1.77,0,0,0,.66-.64A1.57,1.57,0,0,0,275.86,63.07Z"/><path class="cls-4" d="M279.41,56.17h1.41v9.52h-1.41Z"/><path class="cls-4" d="M289,62.75h-5a2.26,2.26,0,0,0,.62,1.47,2,2,0,0,0,1.48.53,3.25,3.25,0,0,0,1.07-.16,4.81,4.81,0,0,0,1-.48l.62.9a4.29,4.29,0,0,1-1.26.66,4.88,4.88,0,0,1-1.5.21,3.57,3.57,0,0,1-1.85-.46A3,3,0,0,1,283,64.14a4.31,4.31,0,0,1-.4-1.92,3.89,3.89,0,0,1,.86-2.64,3,3,0,0,1,2.43-1,2.85,2.85,0,0,1,2.34,1,4,4,0,0,1,.81,2.61A3.76,3.76,0,0,1,289,62.75Zm-1.34-1.09a2.35,2.35,0,0,0-.48-1.45,1.57,1.57,0,0,0-1.3-.56,1.65,1.65,0,0,0-1.34.57,2.4,2.4,0,0,0-.53,1.43Z"/><path class="cls-4" d="M295.1,59.33l-.61.87a3.08,3.08,0,0,0-1.68-.52,1.68,1.68,0,0,0-.91.21.68.68,0,0,0-.34.61.83.83,0,0,0,.14.51,1.08,1.08,0,0,0,.47.32,7.49,7.49,0,0,0,1,.3,3.33,3.33,0,0,1,1.55.75,1.74,1.74,0,0,1,.51,1.3,1.93,1.93,0,0,1-.38,1.2,2.28,2.28,0,0,1-1,.75,3.72,3.72,0,0,1-1.37.25,3.84,3.84,0,0,1-2.51-.79l.65-.89a3.37,3.37,0,0,0,.86.44,3,3,0,0,0,1,.14,1.67,1.67,0,0,0,1-.26.87.87,0,0,0,.36-.75.84.84,0,0,0-.13-.5,1.07,1.07,0,0,0-.46-.32,7.26,7.26,0,0,0-1-.3,3.45,3.45,0,0,1-1.54-.74,1.76,1.76,0,0,1-.49-1.33,1.72,1.72,0,0,1,.72-1.45,3.07,3.07,0,0,1,1.9-.54A3.69,3.69,0,0,1,295.1,59.33Z"/><path class="cls-4" d="M300.81,56.19l-.32,1a3.13,3.13,0,0,0-.85-.09q-1.16,0-1.16,1.28v.4h1.69v1.08h-1.69v5.84h-1.41V59.86H295.9v-.91l1.17-.16v-.46a2.33,2.33,0,0,1,.6-1.71,2.53,2.53,0,0,1,1.84-.63A4.13,4.13,0,0,1,300.81,56.19Z"/><path class="cls-4" d="M308,62.21a4.16,4.16,0,0,1-.42,1.91,3.08,3.08,0,0,1-1.22,1.3,3.73,3.73,0,0,1-1.9.46,3.62,3.62,0,0,1-1.88-.47,3.14,3.14,0,0,1-1.22-1.3,4.52,4.52,0,0,1,0-3.81A3,3,0,0,1,302.57,59a3.78,3.78,0,0,1,1.9-.45,3.85,3.85,0,0,1,1.92.45,3,3,0,0,1,1.22,1.26A4.12,4.12,0,0,1,308,62.21Zm-5.61,0a3.07,3.07,0,0,0,.5,1.85,1.79,1.79,0,0,0,1.55.69,1.84,1.84,0,0,0,1.59-.69,3,3,0,0,0,.51-1.85,3,3,0,0,0-.51-1.82,1.86,1.86,0,0,0-1.59-.68,1.8,1.8,0,0,0-1.56.68A3,3,0,0,0,302.41,62.21Z"/><path class="cls-4" d="M309.73,60.34a13.31,13.31,0,0,0-.09-1.56H311a7.6,7.6,0,0,1,.11,1h0a2.12,2.12,0,0,1,.8-.85,2.57,2.57,0,0,1,1.31-.3l.4,0-.07,1.22a2.44,2.44,0,0,0-.47,0,1.76,1.76,0,0,0-1.44.62,2.41,2.41,0,0,0-.51,1.59v3.67h-1.41Z"/><path class="cls-4" d="M317.64,58.59a4,4,0,0,1,1.24.19,3.59,3.59,0,0,1,1.08.55l-.55,1a3,3,0,0,0-1.75-.55,1.85,1.85,0,0,0-1.55.66,2.84,2.84,0,0,0-.52,1.8A2.88,2.88,0,0,0,316.1,64a1.8,1.8,0,0,0,1.53.68,3.35,3.35,0,0,0,1.79-.56l.51,1a4,4,0,0,1-2.41.75,3.3,3.3,0,0,1-2-.54A3,3,0,0,1,314.47,64a4.84,4.84,0,0,1-.32-1.74,4.16,4.16,0,0,1,.42-1.91,3,3,0,0,1,1.2-1.27A3.69,3.69,0,0,1,317.64,58.59Z"/><path class="cls-4" d="M327.17,62.75h-5a2.26,2.26,0,0,0,.62,1.47,2,2,0,0,0,1.48.53,3.25,3.25,0,0,0,1.07-.16,4.81,4.81,0,0,0,1-.48l.62.9a4.29,4.29,0,0,1-1.26.66,4.88,4.88,0,0,1-1.5.21,3.57,3.57,0,0,1-1.85-.46,3,3,0,0,1-1.18-1.28,4.31,4.31,0,0,1-.4-1.92,3.89,3.89,0,0,1,.86-2.64,3,3,0,0,1,2.43-1,2.85,2.85,0,0,1,2.34,1,4,4,0,0,1,.81,2.61A3.76,3.76,0,0,1,327.17,62.75Zm-1.34-1.09a2.35,2.35,0,0,0-.48-1.45,1.57,1.57,0,0,0-1.3-.56,1.65,1.65,0,0,0-1.34.57,2.4,2.4,0,0,0-.53,1.43Z"/><path class="cls-8" d="M411.52,66.39H345.7a1.6,1.6,0,0,1-1.6-1.6V60.41a1.6,1.6,0,0,1,1.6-1.6h65.82a1.6,1.6,0,0,1,1.6,1.6v4.38A1.6,1.6,0,0,1,411.52,66.39Z"/><circle id="SVGID" class="cls-9" cx="448.35" cy="62.69" r="5.48"/><g class="cls-10"><circle class="cls-11" cx="448.35" cy="67.83" r="3.88"/></g><circle class="cls-11" cx="448.35" cy="61.59" r="1.69"/><rect class="cls-9" x="433.43" y="61.08" width="3.88" height="3.88"/><rect class="cls-9" x="427.53" y="61.08" width="3.88" height="3.88"/><rect class="cls-9" x="421.47" y="61.08" width="3.88" height="3.88"/><circle class="cls-12" cx="347.97" cy="62.18" r="1.35"/><line class="cls-12" x1="348.98" y1="63.02" x2="350.33" y2="64.46"/><path class="cls-12" d="M446.91,128.07H407.37a1.6,1.6,0,0,1-1.6-1.6v-4.38a1.6,1.6,0,0,1,1.6-1.6h39.54a1.6,1.6,0,0,1,1.6,1.6v4.38A1.6,1.6,0,0,1,446.91,128.07Z"/><circle class="cls-12" cx="409.65" cy="123.86" r="1.35"/><line class="cls-12" x1="410.66" y1="124.7" x2="412.01" y2="126.13"/><line class="cls-13" x1="341.9" y1="73.98" x2="341.9" y2="88.13"/><line class="cls-13" x1="404.08" y1="73.98" x2="404.08" y2="88.13"/><rect class="cls-14" x="303.99" y="133.13" width="41.88" height="24.27"/><rect class="cls-14" x="350.58" y="133.13" width="41.88" height="24.27"/><circle class="cls-15" cx="310.56" cy="173.06" r="6.07"/><rect class="cls-5" x="322.47" y="191.26" width="55.64" height="2.24"/><rect class="cls-5" x="322.47" y="197.22" width="59.45" height="2.24"/><rect class="cls-5" x="322.47" y="203.18" width="68.97" height="2.24"/><circle class="cls-16" cx="310.56" cy="196.32" r="6.07"/><rect class="cls-5" x="322.47" y="214.52" width="55.64" height="2.24"/><rect class="cls-5" x="322.47" y="220.48" width="59.45" height="2.24"/><rect class="cls-5" x="322.47" y="226.44" width="68.97" height="2.24"/><circle class="cls-17" cx="310.56" cy="219.57" r="6.07"/><rect class="cls-2" x="53.5" y="50.55" width="224.02" height="191.53"/><path class="cls-4" d="M271.29,28.48H58.41a4.91,4.91,0,0,0-4.91,4.91V50.68h224v-16A6.24,6.24,0,0,0,271.29,28.48Z"/><rect class="cls-18" x="53.5" y="72.94" width="224.01" height="17.76"/><path class="cls-4" d="M72.19,57.76a3.45,3.45,0,0,0-1.41.3,2.86,2.86,0,0,0-2.5-1.48,2.83,2.83,0,0,0-2.05.88,3.14,3.14,0,0,0-5.38,3.15A2.73,2.73,0,0,0,62.2,65.7a2.67,2.67,0,0,0,.55-.06,2.91,2.91,0,0,0,5.41.13,2.55,2.55,0,0,0,3.34-1,3.46,3.46,0,0,0,.69.07,3.52,3.52,0,0,0,0-7Z"/><path class="cls-4" d="M81.11,64.82l.73-.93A4.09,4.09,0,0,0,83,64.5a4.31,4.31,0,0,0,1.34.19,2.39,2.39,0,0,0,1.46-.4,1.38,1.38,0,0,0,.54-1.18,1.46,1.46,0,0,0-.26-.9,1.8,1.8,0,0,0-.74-.56,8.52,8.52,0,0,0-1.27-.41,4.63,4.63,0,0,1-2-1,2.23,2.23,0,0,1-.67-1.71,2.31,2.31,0,0,1,.44-1.41A2.69,2.69,0,0,1,83,56.25a4.37,4.37,0,0,1,1.67-.3,4.94,4.94,0,0,1,3,.93l-.66,1a5,5,0,0,0-1.12-.52,4,4,0,0,0-1.2-.17,2.32,2.32,0,0,0-1.32.34,1.25,1.25,0,0,0,0,2,5.17,5.17,0,0,0,1.59.62,5.24,5.24,0,0,1,2.15,1,2.46,2.46,0,0,1,.74,1.94,2.62,2.62,0,0,1-.47,1.59,2.86,2.86,0,0,1-1.27,1,4.72,4.72,0,0,1-1.78.32,5.23,5.23,0,0,1-1.75-.29A4.71,4.71,0,0,1,81.11,64.82Z"/><path class="cls-4" d="M88.9,63.77a2,2,0,0,1,1-1.88,6.07,6.07,0,0,1,2.85-.53h.69V61q0-1.32-1.56-1.32a4,4,0,0,0-2,.55l-.48-.94a4.81,4.81,0,0,1,1.23-.52,5.08,5.08,0,0,1,1.36-.19,3,3,0,0,1,2.21.69,2.88,2.88,0,0,1,.69,2.12v2.73a14.1,14.1,0,0,0,.11,1.56h-1.3a5.15,5.15,0,0,1-.09-.82h0a2.57,2.57,0,0,1-.94.76,3.4,3.4,0,0,1-1.41.25,2.35,2.35,0,0,1-1.61-.54A2,2,0,0,1,88.9,63.77Zm4.5-.7v-.71h-.55a4.44,4.44,0,0,0-1.92.3,1.08,1.08,0,0,0-.58,1,1,1,0,0,0,.31.79,1.21,1.21,0,0,0,.85.28,2,2,0,0,0,1-.25,1.77,1.77,0,0,0,.66-.64A1.57,1.57,0,0,0,93.4,63.07Z"/><path class="cls-4" d="M97,56.17h1.41v9.52H97Z"/><path class="cls-4" d="M106.51,62.75h-5a2.26,2.26,0,0,0,.62,1.47,2,2,0,0,0,1.48.53,3.25,3.25,0,0,0,1.07-.16,4.81,4.81,0,0,0,1-.48l.62.9a4.29,4.29,0,0,1-1.26.66,4.88,4.88,0,0,1-1.5.21,3.57,3.57,0,0,1-1.85-.46,3,3,0,0,1-1.18-1.28,4.31,4.31,0,0,1-.4-1.92,3.89,3.89,0,0,1,.86-2.64,3,3,0,0,1,2.43-1,2.85,2.85,0,0,1,2.34,1,4,4,0,0,1,.81,2.61A3.76,3.76,0,0,1,106.51,62.75Zm-1.34-1.09a2.35,2.35,0,0,0-.48-1.45,1.57,1.57,0,0,0-1.3-.56,1.65,1.65,0,0,0-1.34.57,2.4,2.4,0,0,0-.53,1.43Z"/><path class="cls-4" d="M112.65,59.33l-.61.87a3.08,3.08,0,0,0-1.68-.52,1.68,1.68,0,0,0-.91.21.68.68,0,0,0-.34.61.83.83,0,0,0,.14.51,1.08,1.08,0,0,0,.47.32,7.49,7.49,0,0,0,1,.3,3.33,3.33,0,0,1,1.55.75,1.74,1.74,0,0,1,.51,1.3,1.93,1.93,0,0,1-.38,1.2,2.28,2.28,0,0,1-1,.75,3.72,3.72,0,0,1-1.37.25,3.84,3.84,0,0,1-2.51-.79l.65-.89a3.37,3.37,0,0,0,.86.44,3,3,0,0,0,1,.14,1.67,1.67,0,0,0,1-.26.87.87,0,0,0,.36-.75.84.84,0,0,0-.13-.5,1.07,1.07,0,0,0-.46-.32,7.26,7.26,0,0,0-1-.3,3.45,3.45,0,0,1-1.54-.74,1.76,1.76,0,0,1-.49-1.33,1.72,1.72,0,0,1,.72-1.45,3.07,3.07,0,0,1,1.9-.54A3.69,3.69,0,0,1,112.65,59.33Z"/><path class="cls-4" d="M118.35,56.19l-.32,1a3.13,3.13,0,0,0-.85-.09q-1.16,0-1.16,1.28v.4h1.69v1.08H116v5.84h-1.41V59.86h-1.17v-.91l1.17-.16v-.46a2.33,2.33,0,0,1,.6-1.71,2.53,2.53,0,0,1,1.84-.63A4.13,4.13,0,0,1,118.35,56.19Z"/><path class="cls-4" d="M125.55,62.21a4.16,4.16,0,0,1-.42,1.91,3.08,3.08,0,0,1-1.22,1.3,3.73,3.73,0,0,1-1.9.46,3.62,3.62,0,0,1-1.88-.47,3.14,3.14,0,0,1-1.22-1.3,4.52,4.52,0,0,1,0-3.81A3,3,0,0,1,120.11,59a3.78,3.78,0,0,1,1.9-.45,3.85,3.85,0,0,1,1.92.45,3,3,0,0,1,1.22,1.26A4.12,4.12,0,0,1,125.55,62.21Zm-5.61,0a3.07,3.07,0,0,0,.5,1.85,1.79,1.79,0,0,0,1.55.69,1.84,1.84,0,0,0,1.59-.69,3,3,0,0,0,.51-1.85,3,3,0,0,0-.51-1.82,1.86,1.86,0,0,0-1.59-.68,1.8,1.8,0,0,0-1.56.68A3,3,0,0,0,119.95,62.21Z"/><path class="cls-4" d="M127.27,60.34a13.31,13.31,0,0,0-.09-1.56h1.34a7.6,7.6,0,0,1,.11,1h0a2.12,2.12,0,0,1,.8-.85,2.57,2.57,0,0,1,1.31-.3l.4,0-.07,1.22a2.44,2.44,0,0,0-.47,0,1.76,1.76,0,0,0-1.44.62,2.41,2.41,0,0,0-.51,1.59v3.67h-1.41Z"/><path class="cls-4" d="M135.18,58.59a4,4,0,0,1,1.24.19,3.59,3.59,0,0,1,1.08.55l-.55,1a3,3,0,0,0-1.75-.55,1.85,1.85,0,0,0-1.55.66,2.84,2.84,0,0,0-.52,1.8,2.88,2.88,0,0,0,.52,1.79,1.8,1.8,0,0,0,1.53.68,3.35,3.35,0,0,0,1.79-.56l.51,1a4,4,0,0,1-2.41.75,3.3,3.3,0,0,1-2-.54A3,3,0,0,1,132,64a4.84,4.84,0,0,1-.32-1.74,4.16,4.16,0,0,1,.42-1.91,3,3,0,0,1,1.2-1.27A3.69,3.69,0,0,1,135.18,58.59Z"/><path class="cls-4" d="M144.71,62.75h-5a2.26,2.26,0,0,0,.62,1.47,2,2,0,0,0,1.48.53,3.25,3.25,0,0,0,1.07-.16,4.81,4.81,0,0,0,1-.48l.62.9a4.29,4.29,0,0,1-1.26.66,4.88,4.88,0,0,1-1.5.21,3.57,3.57,0,0,1-1.85-.46,3,3,0,0,1-1.18-1.28,4.31,4.31,0,0,1-.4-1.92,3.89,3.89,0,0,1,.86-2.64,3,3,0,0,1,2.43-1,2.85,2.85,0,0,1,2.34,1,4,4,0,0,1,.81,2.61A3.76,3.76,0,0,1,144.71,62.75Zm-1.34-1.09a2.35,2.35,0,0,0-.48-1.45,1.57,1.57,0,0,0-1.3-.56,1.65,1.65,0,0,0-1.34.57,2.4,2.4,0,0,0-.53,1.43Z"/><rect class="cls-3" x="61.43" y="119" width="53.02" height="86.02"/><rect class="cls-3" x="119.05" y="119" width="150.89" height="119.16"/><rect class="cls-3" x="61.43" y="100.1" width="208.41" height="13.89"/><path class="cls-19" d="M262.58,110.21H243.27A1.24,1.24,0,0,1,242,109v-4a1.24,1.24,0,0,1,1.23-1.23h19.31a1.24,1.24,0,0,1,1.23,1.23v4A1.18,1.18,0,0,1,262.58,110.21Z"/><circle class="cls-15" cx="72.97" cy="134.63" r="4.9"/><circle class="cls-15" cx="89.93" cy="134.63" r="4.9"/><path class="cls-19" d="M76.44,160H69a1.54,1.54,0,0,1-1.43-1.43v-7.46A1.54,1.54,0,0,1,69,149.65h7.46a1.54,1.54,0,0,1,1.43,1.43v7.46A1.4,1.4,0,0,1,76.44,160Z"/><path class="cls-19" d="M91.67,160H84.21a1.54,1.54,0,0,1-1.43-1.43v-7.46a1.54,1.54,0,0,1,1.43-1.43h7.46a1.54,1.54,0,0,1,1.43,1.43v7.46A1.46,1.46,0,0,1,91.67,160Z"/><path class="cls-19" d="M106.68,160H99.33a1.54,1.54,0,0,1-1.43-1.43v-7.46a1.54,1.54,0,0,1,1.43-1.43h7.46a1.54,1.54,0,0,1,1.43,1.43v7.46A1.55,1.55,0,0,1,106.68,160Z"/><path class="cls-19" d="M76.65,177.74H69.19a1.54,1.54,0,0,1-1.43-1.43v-7.46a1.54,1.54,0,0,1,1.43-1.43h7.46a1.54,1.54,0,0,1,1.43,1.43v7.46A1.46,1.46,0,0,1,76.65,177.74Z"/><path class="cls-16" d="M72.15,199.4l-4.5-4.5a1.18,1.18,0,0,1,0-1.74l4.5-4.5a1.18,1.18,0,0,1,1.74,0l4.5,4.5a1.18,1.18,0,0,1,0,1.74l-4.5,4.5A1.18,1.18,0,0,1,72.15,199.4Z"/><path class="cls-16" d="M87.07,199.4l-4.5-4.5a1.18,1.18,0,0,1,0-1.74l4.5-4.5a1.18,1.18,0,0,1,1.74,0l4.5,4.5a1.18,1.18,0,0,1,0,1.74l-4.5,4.5A1.18,1.18,0,0,1,87.07,199.4Z"/><path class="cls-16" d="M102.19,199.4l-4.5-4.5a1.18,1.18,0,0,1,0-1.74l4.5-4.5a1.18,1.18,0,0,1,1.74,0l4.5,4.5a1.18,1.18,0,0,1,0,1.74l-4.5,4.5A1.17,1.17,0,0,1,102.19,199.4Z"/><line class="cls-20" x1="67.66" y1="143.42" x2="108.73" y2="143.42"/><line class="cls-20" x1="67.66" y1="183.57" x2="108.73" y2="183.57"/><rect class="cls-9" x="67.35" y="105.41" width="72.74" height="4.19"/><rect class="cls-9" x="124.36" y="124.11" width="48.02" height="3.98"/><line class="cls-20" x1="124.36" y1="133.51" x2="263.81" y2="133.51"/><rect class="cls-20" x="126.5" y="140.35" width="32.18" height="48.22"/><circle class="cls-15" cx="142.59" cy="151.9" r="5.82"/><rect class="cls-21" x="131.82" y="161.4" width="22.17" height="3.06"/><rect class="cls-21" x="131.82" y="167.63" width="24.11" height="3.06"/><rect class="cls-21" x="131.82" y="173.45" width="17.67" height="3.06"/><rect class="cls-21" x="131.82" y="179.79" width="22.17" height="3.06"/><polyline class="cls-22" points="158.68 151.9 190.97 151.9 252.98 151.9"/><polyline class="cls-22" points="190.97 150.77 190.97 174.78 252.67 174.78"/><polyline class="cls-22" points="211.5 174.78 211.5 197.46 251.55 197.46"/><path class="cls-16" d="M190.15,157.11l-4.5-4.5a1.18,1.18,0,0,1,0-1.74l4.5-4.5a1.18,1.18,0,0,1,1.74,0l4.5,4.5a1.18,1.18,0,0,1,0,1.74l-4.5,4.5A1.17,1.17,0,0,1,190.15,157.11Z"/><path class="cls-4" d="M210.68,157.11l-4.5-4.5a1.18,1.18,0,0,1,0-1.74l4.5-4.5a1.18,1.18,0,0,1,1.74,0l4.5,4.5a1.18,1.18,0,0,1,0,1.74l-4.5,4.5A1.17,1.17,0,0,1,210.68,157.11Z"/><path class="cls-4" d="M174.11,156.9h-7.46a1.54,1.54,0,0,1-1.43-1.43v-7.36a1.54,1.54,0,0,1,1.43-1.43h7.46a1.54,1.54,0,0,1,1.43,1.43v7.46A1.53,1.53,0,0,1,174.11,156.9Z"/><circle class="cls-15" cx="251.55" cy="151.9" r="4.9"/><path class="cls-16" d="M230.81,157.11l-4.5-4.5a1.18,1.18,0,0,1,0-1.74l4.5-4.5a1.18,1.18,0,0,1,1.74,0l4.5,4.5a1.18,1.18,0,0,1,0,1.74l-4.5,4.5A1.17,1.17,0,0,1,230.81,157.11Z"/><path class="cls-16" d="M190.15,180.09l-4.5-4.5a1.18,1.18,0,0,1,0-1.74l4.5-4.5a1.18,1.18,0,0,1,1.74,0l4.5,4.5a1.18,1.18,0,0,1,0,1.74l-4.5,4.5A1.17,1.17,0,0,1,190.15,180.09Z"/><path class="cls-4" d="M215.08,179.89h-7.46a1.54,1.54,0,0,1-1.43-1.43V171a1.54,1.54,0,0,1,1.43-1.43h7.46a1.54,1.54,0,0,1,1.43,1.43v7.46A1.34,1.34,0,0,1,215.08,179.89Z"/><path class="cls-16" d="M230.81,180.09l-4.5-4.5a1.18,1.18,0,0,1,0-1.74l4.5-4.5a1.18,1.18,0,0,1,1.74,0l4.5,4.5a1.18,1.18,0,0,1,0,1.74l-4.5,4.5A1.17,1.17,0,0,1,230.81,180.09Z"/><path class="cls-16" d="M230.81,202.77l-4.5-4.5a1.18,1.18,0,0,1,0-1.74l4.5-4.5a1.18,1.18,0,0,1,1.74,0l4.5,4.5a1.18,1.18,0,0,1,0,1.74l-4.5,4.5A1.38,1.38,0,0,1,230.81,202.77Z"/><circle class="cls-15" cx="251.55" cy="174.78" r="4.9"/><circle class="cls-15" cx="251.55" cy="197.46" r="4.9"/><polyline class="cls-22" points="211.5 198.69 211.5 221.37 251.55 221.37"/><path class="cls-4" d="M215.08,226.48h-7.46a1.54,1.54,0,0,1-1.43-1.43v-7.46a1.54,1.54,0,0,1,1.43-1.43h7.46a1.54,1.54,0,0,1,1.43,1.43v7.46A1.39,1.39,0,0,1,215.08,226.48Z"/><path class="cls-16" d="M230.81,226.69l-4.5-4.5a1.18,1.18,0,0,1,0-1.74l4.5-4.5a1.18,1.18,0,0,1,1.74,0l4.5,4.5a1.18,1.18,0,0,1,0,1.74l-4.5,4.5A1.38,1.38,0,0,1,230.81,226.69Z"/><circle class="cls-15" cx="251.55" cy="221.37" r="4.9"/><path class="cls-4" d="M215.08,202.57h-7.46a1.54,1.54,0,0,1-1.43-1.43v-7.46a1.54,1.54,0,0,1,1.43-1.43h7.46a1.54,1.54,0,0,1,1.43,1.43v7.46A1.39,1.39,0,0,1,215.08,202.57Z"/><path class="cls-23" d="M229.06,85.6H163.24a1.6,1.6,0,0,1-1.6-1.6V79.62a1.6,1.6,0,0,1,1.6-1.6h65.82a1.6,1.6,0,0,1,1.6,1.6V84A1.6,1.6,0,0,1,229.06,85.6Z"/><circle id="SVGID-2" data-name="SVGID" class="cls-9" cx="265.89" cy="61.66" r="5.48"/><g class="cls-24"><circle class="cls-11" cx="265.89" cy="66.8" r="3.88"/></g><circle class="cls-11" cx="265.89" cy="60.57" r="1.69"/><rect class="cls-9" x="250.97" y="60.06" width="3.88" height="3.88"/><rect class="cls-9" x="245.07" y="60.06" width="3.88" height="3.88"/><rect class="cls-9" x="239.01" y="60.06" width="3.88" height="3.88"/><circle class="cls-23" cx="165.51" cy="81.39" r="1.35"/><line class="cls-23" x1="166.52" y1="82.23" x2="167.87" y2="83.67"/><rect class="cls-25" x="132.52" y="33.09" width="244.45" height="209"/><path class="cls-26" d="M370.16,9H137.88a5.36,5.36,0,0,0-5.36,5.36V33.23H377V15.81A6.81,6.81,0,0,0,370.16,9Z"/><rect class="cls-14" x="132.52" y="57.52" width="244.44" height="19.38"/><rect class="cls-27" x="141.72" y="63.1" width="9.03" height="9.03"/><rect class="cls-5" x="155.59" y="63.1" width="12.26" height="1.94"/><rect class="cls-5" x="155.34" y="82.04" width="14.11" height="1.95"/><rect class="cls-5" x="155.34" y="86.58" width="14.11" height="1.95"/><rect class="cls-5" x="191.74" y="82.04" width="14.11" height="1.95"/><rect class="cls-5" x="191.74" y="86.58" width="14.11" height="1.95"/><rect class="cls-5" x="228.13" y="82.04" width="14.11" height="1.95"/><rect class="cls-5" x="228.13" y="86.58" width="14.11" height="1.95"/><rect class="cls-5" x="264.53" y="82.04" width="23.77" height="1.95"/><rect class="cls-5" x="264.53" y="86.58" width="23.77" height="1.95"/><rect class="cls-5" x="155.66" y="67.64" width="63.24" height="4.54"/><rect class="cls-28" x="223.44" y="67.64" width="11.67" height="4.54"/><rect class="cls-28" x="343.2" y="64.44" width="14.27" height="6.69"/><rect class="cls-28" x="328.94" y="64.44" width="14.27" height="6.69"/><polygon class="cls-15" points="211.34 113.17 177.8 113.17 181.31 108.63 177.8 104.09 211.34 104.09 214.85 108.63 211.34 113.17"/><polygon class="cls-7" points="248.96 113.17 212.85 113.17 216.35 108.63 212.85 104.09 248.96 104.09 252.46 108.63 248.96 113.17"/><polygon class="cls-14" points="284.02 113.17 250.48 113.17 253.99 108.63 250.48 104.09 284.02 104.09 287.53 108.63 284.02 113.17"/><path class="cls-14" d="M321.58,108.63c0-2.4-2.23-4.36-5-4.52v0h-31l3.51,4.54-3.51,4.54h31v0C319.36,113,321.58,111,321.58,108.63Z"/><path class="cls-15" d="M176.63,104.09H147c-3,0-5.44,2-5.44,4.54s2.44,4.54,5.44,4.54h29.66l3.51-4.54Z"/><rect class="cls-5" x="142.84" y="127.57" width="138.95" height="1.36"/><rect class="cls-5" x="142.84" y="137.93" width="138.95" height="1.36"/><rect class="cls-5" x="142.84" y="148.04" width="138.95" height="1.36"/><rect class="cls-29" x="291.04" y="119.8" width="76.92" height="67.97"/><rect class="cls-29" x="291.04" y="194.41" width="76.92" height="18.65"/><rect class="cls-29" x="291.04" y="219.7" width="76.92" height="18.65"/><line class="cls-30" x1="316.41" y1="144.1" x2="344.48" y2="144.1"/><rect class="cls-5" x="312.62" y="131.14" width="32.44" height="3.16"/><rect class="cls-5" x="316.41" y="149.13" width="43.45" height="1.36"/><rect class="cls-5" x="316.41" y="154.84" width="43.45" height="1.36"/><line class="cls-30" x1="167.54" y1="183.64" x2="231.24" y2="183.64"/><rect class="cls-5" x="271.72" y="182.97" width="9.84" height="1.36"/><rect class="cls-5" x="271.72" y="217.74" width="9.84" height="1.36"/><rect class="cls-5" x="167.54" y="188.68" width="92.65" height="1.36"/><rect class="cls-5" x="167.54" y="194.39" width="92.65" height="1.36"/><line class="cls-30" x1="316.41" y1="165.76" x2="344.48" y2="165.76"/><rect class="cls-5" x="316.41" y="170.8" width="43.45" height="1.36"/><rect class="cls-5" x="316.41" y="176.51" width="43.45" height="1.36"/><rect class="cls-7" x="327.02" y="104.1" width="39.7" height="9.18" rx="3.05" ry="3.05"/><path class="cls-29" d="M161.62,106.47l-3,3-1.18-1.18-.92.92,2.1,2.1,3.95-3.95Zm0,0"/><path class="cls-29" d="M197.67,106.47l-3,3-1.18-1.18-.92.92,2.1,2.1,3.95-3.95Zm0,0"/><rect class="cls-5" x="132.52" y="94.24" width="244.44" height="1.36"/><rect class="cls-5" x="143.6" y="167.42" width="138.18" height="1.36"/><rect class="cls-4" x="143.6" y="167.42" width="48.81" height="1.36"/><rect class="cls-5" x="145.38" y="181.92" width="10.9" height="10.9" rx="1.39" ry="1.39"/><rect class="cls-31" x="145.38" y="218.59" width="10.9" height="10.9" rx="1.39" ry="1.39"/><rect class="cls-5" x="150.59" y="197.21" width="0.73" height="17.12"/><line class="cls-30" x1="167.54" y1="218.42" x2="231.24" y2="218.42"/><rect class="cls-5" x="167.54" y="223.45" width="92.65" height="1.36"/><rect class="cls-5" x="167.54" y="229.17" width="92.65" height="1.36"/><rect class="cls-5" x="150.59" y="235.32" width="0.73" height="5.34"/><path class="cls-4" d="M152.91,40.95a3.76,3.76,0,0,0-1.54.33,3.13,3.13,0,0,0-2.72-1.61,3.09,3.09,0,0,0-2.24,1,3.43,3.43,0,0,0-5.87,3.44A3,3,0,0,0,142,49.62a2.91,2.91,0,0,0,.61-.06,3.17,3.17,0,0,0,5.9.14,2.78,2.78,0,0,0,3.65-1.14,3.78,3.78,0,0,0,.75.07,3.84,3.84,0,0,0,0-7.68Z"/><rect class="cls-17" x="298.27" y="128.34" width="8.22" height="8.22" rx="1.39" ry="1.39"/><rect class="cls-5" x="312.62" y="202.58" width="32.44" height="3.16"/><rect class="cls-32" x="298.27" y="199.79" width="8.22" height="8.22" rx="1.39" ry="1.39"/><rect class="cls-5" x="312.62" y="227.87" width="32.44" height="3.16"/><rect class="cls-33" x="298.27" y="225.08" width="8.22" height="8.22" rx="1.39" ry="1.39"/><rect class="cls-17" x="298.27" y="144.15" width="11.38" height="11.38" rx="1.39" ry="1.39"/><rect class="cls-17" x="298.27" y="165.64" width="11.38" height="11.38" rx="1.39" ry="1.39"/><path class="cls-4" d="M162.65,48.65l.79-1a4.46,4.46,0,0,0,1.27.67,4.7,4.7,0,0,0,1.46.21,2.61,2.61,0,0,0,1.59-.44,1.51,1.51,0,0,0,.59-1.29,1.59,1.59,0,0,0-.29-1,2,2,0,0,0-.81-.61,9.3,9.3,0,0,0-1.39-.45,5,5,0,0,1-2.16-1.06,2.43,2.43,0,0,1-.73-1.87,2.52,2.52,0,0,1,.48-1.54,2.94,2.94,0,0,1,1.28-1,4.77,4.77,0,0,1,1.82-.33,5.39,5.39,0,0,1,3.26,1L169.1,41a5.41,5.41,0,0,0-1.23-.57,4.38,4.38,0,0,0-1.31-.19,2.53,2.53,0,0,0-1.44.37,1.37,1.37,0,0,0,0,2.17,5.64,5.64,0,0,0,1.73.67,5.71,5.71,0,0,1,2.35,1.13,2.68,2.68,0,0,1,.81,2.11,2.86,2.86,0,0,1-.51,1.73,3.12,3.12,0,0,1-1.39,1.06,5.15,5.15,0,0,1-1.94.35,5.71,5.71,0,0,1-1.91-.32A5.14,5.14,0,0,1,162.65,48.65Z"/><path class="cls-4" d="M171.14,47.51a2.13,2.13,0,0,1,1.06-2,6.62,6.62,0,0,1,3.11-.58h.75v-.4q0-1.44-1.7-1.44a4.38,4.38,0,0,0-2.23.6l-.53-1a5.25,5.25,0,0,1,1.34-.57,5.54,5.54,0,0,1,1.49-.21,3.31,3.31,0,0,1,2.41.76,3.15,3.15,0,0,1,.76,2.31v3a15.38,15.38,0,0,0,.12,1.7h-1.42a5.61,5.61,0,0,1-.1-.9h0a2.8,2.8,0,0,1-1,.83,3.71,3.71,0,0,1-1.54.27,2.57,2.57,0,0,1-1.76-.59A2.16,2.16,0,0,1,171.14,47.51Zm4.92-.76V46h-.6a4.84,4.84,0,0,0-2.1.33,1.18,1.18,0,0,0-.63,1.14,1.11,1.11,0,0,0,.34.87,1.32,1.32,0,0,0,.92.31,2.16,2.16,0,0,0,1.1-.27,1.93,1.93,0,0,0,.72-.7A1.72,1.72,0,0,0,176.06,46.75Z"/><path class="cls-4" d="M179.93,39.22h1.54V49.61h-1.54Z"/><path class="cls-4" d="M190.36,46.39h-5.43a2.47,2.47,0,0,0,.67,1.61,2.19,2.19,0,0,0,1.61.58,3.55,3.55,0,0,0,1.17-.18,5.24,5.24,0,0,0,1.06-.53l.67,1a4.68,4.68,0,0,1-1.37.72,5.32,5.32,0,0,1-1.64.23,3.9,3.9,0,0,1-2-.5,3.23,3.23,0,0,1-1.28-1.4,4.71,4.71,0,0,1-.44-2.09,4.24,4.24,0,0,1,.94-2.88A3.32,3.32,0,0,1,187,41.86a3.12,3.12,0,0,1,2.55,1.07,4.34,4.34,0,0,1,.88,2.85A4.11,4.11,0,0,1,190.36,46.39Zm-1.47-1.19a2.56,2.56,0,0,0-.52-1.58A1.71,1.71,0,0,0,187,43a1.8,1.8,0,0,0-1.46.62,2.62,2.62,0,0,0-.58,1.56Z"/><path class="cls-4" d="M197.05,42.67l-.66,1a3.36,3.36,0,0,0-1.83-.57,1.84,1.84,0,0,0-1,.23.74.74,0,0,0-.37.66.91.91,0,0,0,.15.56,1.18,1.18,0,0,0,.51.35,8.17,8.17,0,0,0,1.08.32,3.63,3.63,0,0,1,1.69.82,1.9,1.9,0,0,1,.56,1.42,2.1,2.1,0,0,1-.41,1.31,2.49,2.49,0,0,1-1.1.81,4.05,4.05,0,0,1-1.5.27,4.19,4.19,0,0,1-2.74-.87l.7-1a3.68,3.68,0,0,0,.94.48,3.33,3.33,0,0,0,1,.15,1.82,1.82,0,0,0,1.08-.28,1,1,0,0,0,.39-.82.91.91,0,0,0-.15-.55,1.17,1.17,0,0,0-.5-.34,7.92,7.92,0,0,0-1.07-.32,3.76,3.76,0,0,1-1.68-.81,1.92,1.92,0,0,1-.54-1.45,1.88,1.88,0,0,1,.78-1.58,3.35,3.35,0,0,1,2.08-.59A4,4,0,0,1,197.05,42.67Z"/><path class="cls-4" d="M203.27,39.23l-.35,1.1a3.41,3.41,0,0,0-.92-.1q-1.26,0-1.26,1.39v.44h1.85v1.17h-1.85v6.37H199.2V43.24h-1.28v-1l1.28-.18v-.5a2.55,2.55,0,0,1,.66-1.87,2.76,2.76,0,0,1,2-.68A4.51,4.51,0,0,1,203.27,39.23Z"/><path class="cls-4" d="M211.14,45.81a4.54,4.54,0,0,1-.46,2.08,3.36,3.36,0,0,1-1.34,1.42,4.07,4.07,0,0,1-2.08.51,4,4,0,0,1-2.05-.51,3.43,3.43,0,0,1-1.33-1.42,4.93,4.93,0,0,1,0-4.15,3.27,3.27,0,0,1,1.32-1.38,4.13,4.13,0,0,1,2.07-.49,4.2,4.2,0,0,1,2.09.49,3.25,3.25,0,0,1,1.33,1.38A4.5,4.5,0,0,1,211.14,45.81Zm-6.12,0a3.35,3.35,0,0,0,.55,2,2,2,0,0,0,1.69.76,2,2,0,0,0,1.73-.76,3.32,3.32,0,0,0,.56-2,3.23,3.23,0,0,0-.56-2,2,2,0,0,0-1.73-.74,2,2,0,0,0-1.7.74A3.29,3.29,0,0,0,205,45.81Z"/><path class="cls-4" d="M213,43.77a14.53,14.53,0,0,0-.1-1.7h1.47a8.29,8.29,0,0,1,.12,1h0a2.31,2.31,0,0,1,.87-.92,2.8,2.8,0,0,1,1.43-.32l.44,0-.07,1.34a2.66,2.66,0,0,0-.51,0,1.92,1.92,0,0,0-1.57.67,2.63,2.63,0,0,0-.56,1.73v4H213Z"/><path class="cls-4" d="M221.64,41.86a4.42,4.42,0,0,1,1.35.21,3.92,3.92,0,0,1,1.17.6l-.6,1.07a3.23,3.23,0,0,0-1.91-.6,2,2,0,0,0-1.69.72,3.1,3.1,0,0,0-.56,2,3.15,3.15,0,0,0,.56,2,2,2,0,0,0,1.67.74,3.65,3.65,0,0,0,2-.62l.56,1.09a4.39,4.39,0,0,1-2.63.82,3.6,3.6,0,0,1-2.16-.59,3.25,3.25,0,0,1-1.17-1.5,5.28,5.28,0,0,1-.34-1.9,4.54,4.54,0,0,1,.45-2.08,3.27,3.27,0,0,1,1.31-1.39A4,4,0,0,1,221.64,41.86Z"/><path class="cls-4" d="M232,46.39h-5.43a2.47,2.47,0,0,0,.67,1.61,2.19,2.19,0,0,0,1.61.58,3.55,3.55,0,0,0,1.17-.18,5.24,5.24,0,0,0,1.06-.53l.67,1a4.68,4.68,0,0,1-1.37.72,5.32,5.32,0,0,1-1.64.23,3.9,3.9,0,0,1-2-.5,3.23,3.23,0,0,1-1.28-1.4,4.71,4.71,0,0,1-.44-2.09,4.24,4.24,0,0,1,.94-2.88,3.32,3.32,0,0,1,2.66-1.09,3.12,3.12,0,0,1,2.55,1.07,4.34,4.34,0,0,1,.88,2.85A4.11,4.11,0,0,1,232,46.39Zm-1.47-1.19a2.56,2.56,0,0,0-.52-1.58,1.71,1.71,0,0,0-1.42-.61,1.8,1.8,0,0,0-1.46.62,2.62,2.62,0,0,0-.58,1.56Z"/></g><g id="Layer_4" data-name="Layer 4"><rect class="cls-14" x="360.12" y="96.69" width="69.16" height="69.16" rx="5.9" ry="5.9"/><rect class="cls-14" x="435.69" y="96.69" width="69.16" height="69.16" rx="5.9" ry="5.9"/><rect class="cls-14" x="511.27" y="96.69" width="69.16" height="69.16" rx="5.9" ry="5.9"/><rect class="cls-14" x="360.12" y="172.95" width="69.16" height="69.16" rx="5.9" ry="5.9"/><rect class="cls-14" x="435.69" y="172.95" width="69.16" height="69.16" rx="5.9" ry="5.9"/><rect class="cls-14" x="511.27" y="172.95" width="69.16" height="69.16" rx="5.9" ry="5.9"/><rect class="cls-14" x="586.84" y="172.95" width="69.16" height="69.16" rx="5.9" ry="5.9"/><rect class="cls-29" x="371.93" y="182.62" width="46.39" height="51.46"/><rect class="cls-19" x="371.93" y="232.34" width="46.39" height="2.59"/><rect class="cls-19" x="371.93" y="182.62" width="46.39" height="3.9"/><rect class="cls-3" x="382.46" y="225.83" width="3.1" height="0.64"/><rect class="cls-34" x="396.81" y="225.83" width="3.1" height="0.64"/><rect class="cls-3" x="382.46" y="223.87" width="12.94" height="0.64"/><rect class="cls-35" x="379.36" y="229.75" width="1.64" height="0.64"/><rect class="cls-35" x="379.36" y="190.55" width="1.93" height="0.64"/><rect class="cls-34" x="379.36" y="194.47" width="2.21" height="0.64"/><rect class="cls-3" x="382.46" y="194.47" width="6.16" height="0.64"/><rect class="cls-29" x="381.05" y="196.43" width="3.34" height="0.64"/><rect class="cls-3" x="394.43" y="196.43" width="3.33" height="0.64"/><rect class="cls-4" x="398.47" y="196.43" width="3.34" height="0.64"/><rect class="cls-3" x="385.56" y="196.43" width="7.68" height="0.64"/><rect class="cls-4" x="382.46" y="198.39" width="4.46" height="0.64"/><rect class="cls-3" x="388.2" y="198.39" width="9.57" height="0.64"/><rect class="cls-34" x="384.44" y="202.31" width="2.77" height="0.64"/><rect class="cls-35" x="384.44" y="204.27" width="2.77" height="0.64"/><rect class="cls-3" x="388.44" y="202.31" width="8.53" height="0.64"/><rect class="cls-3" x="388.44" y="204.27" width="11.87" height="0.64"/><rect class="cls-4" x="386.41" y="206.23" width="2.83" height="0.64"/><rect class="cls-3" x="388.44" y="208.19" width="18.97" height="0.64"/><rect class="cls-3" x="388.44" y="210.15" width="6.28" height="0.64"/><rect class="cls-4" x="395.84" y="210.15" width="2.8" height="0.64"/><rect class="cls-29" x="399.61" y="210.15" width="2.8" height="0.64"/><rect class="cls-35" x="381.33" y="212.11" width="1.93" height="0.64"/><rect class="cls-4" x="382.18" y="214.07" width="4.79" height="0.64"/><rect class="cls-4" x="408.41" y="214.07" width="3.38" height="0.64"/><rect class="cls-3" x="388.1" y="214.07" width="18.87" height="0.64"/><rect class="cls-3" x="385" y="216.03" width="16.01" height="0.64"/><rect class="cls-3" x="385" y="217.99" width="19.35" height="0.64"/><rect class="cls-4" x="383.87" y="219.95" width="2.26" height="0.64"/><rect class="cls-4" x="381.33" y="221.91" width="3.38" height="0.64"/><rect class="cls-3" x="386.76" y="225.83" width="8.64" height="0.64"/><circle class="cls-36" cx="374.47" cy="184.54" r="0.73"/><circle class="cls-34" cx="377" cy="184.54" r="0.73"/><circle class="cls-37" cx="379.52" cy="184.54" r="0.73"/><path class="cls-19" d="M490.58,128.44V111a1.83,1.83,0,0,0-1.83-1.83H452.66a1.83,1.83,0,0,0-1.83,1.83v44a1.83,1.83,0,0,0,1.83,1.83h36.09a1.83,1.83,0,0,0,1.83-1.83Z"/><path class="cls-29" d="M483.38,111.57H488v42.91H453.38V111.57h30Z"/><path class="cls-38" d="M463.45,106.93v-3.24H478v3.24h3.63v7H459.82v-7Z"/><path class="cls-39" d="M467.7,117.18h6v6h-6Z"/><path class="cls-40" d="M467.7,131.81h6v6h-6Z"/><path class="cls-38" d="M463,145.52h6v6h-6Z"/><path class="cls-41" d="M477.31,131.81h6v6h-6Z"/><path class="cls-42" d="M458.09,131.81h6v6h-6Z"/><path class="cls-43" d="M480.45,127h-8.78v-1a1,1,0,1,0-2,0v1h-8.78a1,1,0,0,0-1,1v1a1,1,0,1,0,2,0h7.8a1,1,0,1,0,2,0h7.8a1,1,0,1,0,2,0v-1A1,1,0,0,0,480.45,127Z"/><path class="cls-43" d="M465.83,143.58a1,1,0,0,1-1-1v-1a1,1,0,0,1,1-1h13.65a1,1,0,1,1,2,0v1a1,1,0,0,1-1,1H466.8A1,1,0,0,1,465.83,143.58Z"/><path class="cls-29" d="M409.14,149.31v6.76a.78.78,0,0,1-.78.78H368.88a.78.78,0,0,1-.78-.78v-6.76a7.69,7.69,0,0,1,5.84-7.46l10.62-2.63h8.13l10.62,2.63A7.69,7.69,0,0,1,409.14,149.31Z"/><polygon class="cls-41" points="391.32 156.85 385.92 156.85 387.08 148.58 387.3 147 389.95 147 390.17 148.58 391.32 156.85"/><polygon class="cls-44" points="390.17 148.58 387.08 148.58 387.3 147 389.95 147 390.17 148.58"/><path class="cls-3" d="M373.41,142a10.51,10.51,0,0,0-3.21,7.31v7.53h-1.32a.78.78,0,0,1-.78-.78v-6.76A7.69,7.69,0,0,1,373.41,142Z"/><path class="cls-3" d="M403.84,142a10.51,10.51,0,0,1,3.21,7.31v7.53h1.32a.78.78,0,0,0,.78-.78v-6.76A7.69,7.69,0,0,0,403.84,142Z"/><path class="cls-41" d="M386.67,147.25l-1.18-2a.89.89,0,0,1,0-.89l1.18-2a.89.89,0,0,1,.77-.45h2.36a.89.89,0,0,1,.77.45l1.18,2a.89.89,0,0,1,0,.89l-1.18,2a.89.89,0,0,1-.77.45h-2.36A.89.89,0,0,1,386.67,147.25Z"/><rect class="cls-45" x="384.35" y="132.61" width="8.55" height="7.92"/><path class="cls-46" d="M402,125a3.22,3.22,0,0,1-2.48,3.14,3.16,3.16,0,0,1-.74.09A3.23,3.23,0,1,1,402,125Z"/><path class="cls-45" d="M399.52,121.82v5.49c0,.26,0,.53,0,.78a3.16,3.16,0,0,1-.74.09,3.22,3.22,0,1,1,.77-6.36Z"/><path class="cls-46" d="M381.72,125a3.23,3.23,0,0,1-3.23,3.23,3.17,3.17,0,0,1-.74-.09,3.22,3.22,0,0,1,0-6.27,3.16,3.16,0,0,1,.77-.09A3.22,3.22,0,0,1,381.72,125Z"/><path class="cls-45" d="M381.72,125a3.23,3.23,0,0,1-3.23,3.23,3.17,3.17,0,0,1-.74-.09c0-.26,0-.52,0-.78v-5.48a3.16,3.16,0,0,1,.77-.09A3.22,3.22,0,0,1,381.72,125Z"/><path class="cls-46" d="M397.55,115.74V127a8.93,8.93,0,0,1-17.86,0V115.74Z"/><path class="cls-47" d="M384.5,126.27a.71.71,0,0,1-.71-.71v-.77a.71.71,0,1,1,1.41,0v.77A.71.71,0,0,1,384.5,126.27Z"/><path class="cls-47" d="M392.75,126.27a.71.71,0,0,1-.71-.71v-.77a.71.71,0,1,1,1.41,0v.77A.71.71,0,0,1,392.75,126.27Z"/><path class="cls-45" d="M397.55,115.74v7.85l-3-.5a1.05,1.05,0,0,1-.88-1v-1.18a.4.4,0,0,0-.35-.4,86.78,86.78,0,0,0-9.19-.66.4.4,0,0,0-.41.4v1.84a1.05,1.05,0,0,1-.89,1l-3.15.49v-7.85Z"/><path class="cls-48" d="M399.73,112a29,29,0,0,1-1.59,8.28q-.26.73-.58,1.46l-1.4-.24a.75.75,0,0,1-.37-.17.77.77,0,0,1-.28-.59V119.6a.77.77,0,0,0-.65-.77,85.15,85.15,0,0,0-12.18-.88.78.78,0,0,0-.78.78v2a.78.78,0,0,1-.66.77l-1.54.24s-2.72-9.2,2-10.88a3.12,3.12,0,0,1,3-2.21H399a.77.77,0,0,1,.54.22c.33.31.25.87.25,1.29q0,.92,0,1.84Z"/><path class="cls-49" d="M399.73,112a29,29,0,0,1-1.59,8.28q-.26.73-.58,1.46l-1.4-.24a.75.75,0,0,1-.37-.17,30.37,30.37,0,0,0,2-12.68H399a.77.77,0,0,1,.54.22c.33.31.25.87.25,1.29q0,.92,0,1.84Z"/><path class="cls-3" d="M375.38,152.82v4h-1.46v-4a.73.73,0,0,1,1.46,0Z"/><path class="cls-3" d="M403.32,152.82v4h-1.46v-4a.73.73,0,0,1,1.46,0Z"/><path class="cls-3" d="M383.26,137.29l5.36,3.23-2,4.08a.78.78,0,0,1-1.25.2l-4-4.08a.78.78,0,0,1-.16-.83l.89-2.23A.78.78,0,0,1,383.26,137.29Z"/><path class="cls-3" d="M394,137.29l-5.36,3.23,2,4.08a.78.78,0,0,0,1.25.2l4-4.08a.78.78,0,0,0,.16-.83l-.89-2.23A.78.78,0,0,0,394,137.29Z"/><path class="cls-48" d="M398.75,148.8l-2.92,1.32,2.36,5.2,1.27-1.07,1.64-.24Zm0,0"/><path class="cls-50" d="M396.58,148.85l2.92,1.32-2.36,5.21-1.27-1.08-1.65-.24,2.36-5.21Zm0,0"/><path class="cls-38" d="M401.45,149.49c0,.28-.4.51-.46.78s.2.66.09.91-.58.28-.75.49-.09.68-.3.85-.64,0-.88.11-.37.57-.64.64-.57-.29-.84-.29-.58.35-.84.29-.39-.51-.64-.64-.67.06-.88-.11-.14-.64-.3-.85-.63-.24-.75-.49.15-.64.09-.91-.48-.5-.48-.78.4-.51.46-.78-.2-.66-.09-.91.58-.28.75-.49.09-.68.3-.85.64,0,.88-.11.37-.57.64-.64.57.29.84.29.58-.35.84-.29.39.51.64.64.67-.06.88.11.14.64.3.85.63.24.75.49-.15.64-.09.91.48.5.48.78Zm0,0"/><path class="cls-51" d="M397.67,148a1.51,1.51,0,1,0,1.51,1.51,1.51,1.51,0,0,0-1.51-1.51Zm0,2.19a.68.68,0,1,1,.68-.68.68.68,0,0,1-.68.68Zm0-3.4a2.72,2.72,0,1,0,2.72,2.72,2.72,2.72,0,0,0-2.72-2.72Zm0,5a2.27,2.27,0,1,1,2.27-2.27,2.27,2.27,0,0,1-2.27,2.27Zm0,0"/><path class="cls-29" d="M418.34,107.89a12,12,0,0,0-7-2.19,11.76,11.76,0,0,0-7,2.15,6.68,6.68,0,0,0-3,5.31,6.21,6.21,0,0,0,1.78,4.29,10.07,10.07,0,0,0,4.37,2.63l-1,3.69a.36.36,0,0,0,.24.4.31.31,0,0,0,.32-.08l3.2-3.48a2,2,0,0,0,.49,0h.65a11.7,11.7,0,0,0,7-2.15,6.24,6.24,0,0,0,0-10.61Z"/><circle class="cls-41" cx="408.05" cy="113.12" r="1.09"/><circle class="cls-41" cx="411.31" cy="113.12" r="1.09"/><circle class="cls-41" cx="414.58" cy="113.12" r="1.09"/><path class="cls-38" d="M496.85,196.19l-2-.81a11.32,11.32,0,0,0,0-4.45l2-.81a.94.94,0,0,0,.51-1.22l-1-2.35a.94.94,0,0,0-1.22-.51l-2,.81a11.27,11.27,0,0,0-3.14-3.15l.81-2a.94.94,0,0,0-.51-1.21l-2.36-1a.94.94,0,0,0-1.22.51l-.81,2a11.32,11.32,0,0,0-4.45,0l-.81-2a.94.94,0,0,0-1.22-.51l-2.37,1a.94.94,0,0,0-.51,1.22l.81,2a11.28,11.28,0,0,0-3.15,3.14l-2-.81a.94.94,0,0,0-1.22.51l-1,2.36a.94.94,0,0,0,.51,1.22l2,.81a11.32,11.32,0,0,0,0,4.45l-2,.81a.94.94,0,0,0-.51,1.22l1,2.36a.94.94,0,0,0,1.22.51l2-.81a11.28,11.28,0,0,0,3.14,3.15l-.81,2a.94.94,0,0,0,.51,1.22l2.36,1a.93.93,0,0,0,1.22-.51l.81-2a11.32,11.32,0,0,0,4.45,0l.81,2a.94.94,0,0,0,1.22.51l2.36-1a.94.94,0,0,0,.51-1.22l-.81-2a11.28,11.28,0,0,0,3.15-3.14l2,.81a.93.93,0,0,0,1.22-.51l1-2.36a.94.94,0,0,0-.51-1.22Zm-8.38-4.9"/><path class="cls-29" d="M463.94,212.68l-9.62,1.78a.4.4,0,0,0-.21.67l2,2-8.88,8.91a1.14,1.14,0,0,0,0,1.63l2.18,2.18a1.16,1.16,0,0,0,1.63,0l8.89-8.89,2,2a.39.39,0,0,0,.67-.21l1.78-9.62a.4.4,0,0,0-.47-.47Zm0,0"/><path class="cls-15" d="M476.5,214.06h-2.58a13.64,13.64,0,0,0-2.07-5l1.83-1.83a1.14,1.14,0,0,0,0-1.61l-2.2-2.2a1.14,1.14,0,0,0-1.61,0L468,205.25a13.63,13.63,0,0,0-5-2.07v-2.58a1.15,1.15,0,0,0-1.15-1.15h-3.11a1.15,1.15,0,0,0-1.15,1.15v2.58a13.63,13.63,0,0,0-5,2.07l-1.83-1.83a1.14,1.14,0,0,0-1.61,0l-2.2,2.2a1.14,1.14,0,0,0,0,1.61l1.83,1.83a13.63,13.63,0,0,0-2.07,5h-2.57a1.15,1.15,0,0,0-1.15,1.15v3.11a1.15,1.15,0,0,0,1.15,1.15h2.58a14.14,14.14,0,0,0,.73,2.48l4.13-4.13a8.79,8.79,0,1,1,7.67,7.67l-4.13,4.13a13.82,13.82,0,0,0,2.48.74v2.58a1.15,1.15,0,0,0,1.15,1.15h3.11a1.15,1.15,0,0,0,1.15-1.15v-2.58a13.64,13.64,0,0,0,5-2.07l1.83,1.83a1.14,1.14,0,0,0,1.61,0l2.2-2.2a1.14,1.14,0,0,0,0-1.61l-1.84-1.84a13.64,13.64,0,0,0,2.07-5h2.58a1.15,1.15,0,0,0,1.15-1.15v-3.11a1.15,1.15,0,0,0-1.15-1.15Zm0,0"/><path class="cls-29" d="M489.83,190.43l-4.68,4.68,1.79,1.79a.32.32,0,0,1-.2.55l-7.62.76a.39.39,0,0,1-.43-.43l.76-7.62a.33.33,0,0,1,.55-.2l1.79,1.79,4.68-4.68a.5.5,0,0,1,.73,0l2.65,2.65a.5.5,0,0,1,0,.72Z"/><path class="cls-19" d="M641.85,203.58V186.16a1.83,1.83,0,0,0-1.83-1.83H603.93a1.83,1.83,0,0,0-1.83,1.83v44a1.83,1.83,0,0,0,1.83,1.83H640a1.83,1.83,0,0,0,1.83-1.83Z"/><path class="cls-29" d="M634.65,186.7h4.64v42.91H604.65V186.7h30Z"/><path class="cls-38" d="M614.72,182.07v-3.24h14.5v3.24h3.63v7H611.09v-7Z"/><path class="cls-15" d="M627.19,204.43a.66.66,0,0,0-.66.66v8a.66.66,0,0,0,.66.66h8a.66.66,0,0,0,.66-.66v-8a.66.66,0,0,0-.66-.66Z"/><path class="cls-15" d="M627.19,216.57a.66.66,0,0,0-.66.66v8a.66.66,0,0,0,.66.66h8a.66.66,0,0,0,.66-.66v-8a.66.66,0,0,0-.66-.66Z"/><rect class="cls-52" x="608.09" y="192.58" width="5.99" height="1.13"/><rect class="cls-52" x="608.09" y="195.45" width="15.69" height="1.13"/><rect class="cls-52" x="608.09" y="198.24" width="15.69" height="1.13"/><rect class="cls-52" x="608.09" y="201.03" width="15.69" height="1.13"/><rect class="cls-52" x="608.09" y="207.62" width="15.69" height="1.13"/><rect class="cls-52" x="608.09" y="210.41" width="15.69" height="1.13"/><rect class="cls-52" x="608.09" y="213.19" width="15.69" height="1.13"/><rect class="cls-52" x="608.09" y="219.74" width="15.69" height="1.13"/><rect class="cls-52" x="608.09" y="222.53" width="15.69" height="1.13"/><rect class="cls-52" x="608.09" y="225.31" width="15.69" height="1.13"/><rect class="cls-52" x="608.09" y="204.73" width="5.99" height="1.13"/><rect class="cls-52" x="608.09" y="216.87" width="5.99" height="1.13"/><path class="cls-29" d="M630.67,212l-2.93-2.81,1.1-1.15,1.79,1.71,2.93-3.06,1.15,1.1Z"/><path class="cls-29" d="M630.67,223.89l-2.93-2.81,1.1-1.15,1.79,1.71,2.93-3.06,1.15,1.1Z"/><path class="cls-15" d="M627.19,192.28a.66.66,0,0,0-.66.66v8a.66.66,0,0,0,.66.66h8a.66.66,0,0,0,.66-.66v-8a.66.66,0,0,0-.66-.66Z"/><path class="cls-29" d="M630.67,199.62l-2.93-2.81,1.1-1.15,1.79,1.71,2.93-3.06,1.15,1.1Z"/><path class="cls-15" d="M607.76,220.79l-6.17,2.8,5,11,2.69-2.27,3.47-.51Zm0,0"/><path class="cls-53" d="M603.19,220.9l6.17,2.8-5,11-2.69-2.29-3.49-.51,5-11Zm0,0"/><path class="cls-38" d="M613.47,222.25c0,.59-.85,1.09-1,1.65s.43,1.39.19,1.92-1.23.59-1.58,1-.19,1.44-.64,1.81-1.34,0-1.86.24-.78,1.22-1.34,1.34-1.2-.61-1.78-.61-1.23.74-1.78.61-.83-1.09-1.34-1.34-1.42.13-1.86-.24-.29-1.36-.64-1.81-1.33-.51-1.58-1,.32-1.34.19-1.92-1-1.06-1-1.65.85-1.09,1-1.65-.43-1.39-.19-1.92,1.23-.59,1.58-1,.19-1.44.64-1.81,1.34,0,1.86-.24.78-1.22,1.34-1.34,1.2.61,1.78.61,1.23-.74,1.78-.61.83,1.09,1.34,1.34,1.42-.13,1.86.24.29,1.36.64,1.81,1.33.51,1.58,1-.32,1.34-.19,1.92,1,1.06,1,1.65Z"/><path class="cls-29" d="M605.47,219a3.2,3.2,0,1,0,3.2,3.2,3.2,3.2,0,0,0-3.2-3.2Zm0,4.64a1.44,1.44,0,1,1,1.44-1.44,1.43,1.43,0,0,1-1.44,1.44Zm0-7.2a5.76,5.76,0,1,0,5.76,5.76,5.76,5.76,0,0,0-5.76-5.76Zm0,10.56a4.8,4.8,0,1,1,4.8-4.8,4.79,4.79,0,0,1-4.8,4.8Zm0,0"/><path class="cls-29" d="M551.52,154.52a14.54,14.54,0,0,0,9.46-3.58c.26-.26.51-.51.51-.77s-.51-.51-1.28-.51H552a1.94,1.94,0,0,1-1-.51l-4.86-8.94c-.26,0-.26-.26-.26-.51a.25.25,0,0,1,.26-.26l4.86-8.94a1.94,1.94,0,0,1,1-.51h8.18c1,0,1-.51,1-.51a1.33,1.33,0,0,0-.51-1,15,15,0,0,0-9.21-3.32,14.42,14.42,0,0,0-12.79,7.41,2.11,2.11,0,0,1-2,1.28H518.27a1.65,1.65,0,0,0-1.53,1.53v8.94a1.65,1.65,0,0,0,1.53,1.53h18.41a2,2,0,0,1,1.79,1,14.85,14.85,0,0,0,13,7.66"/><path class="cls-15" d="M561.49,145.84l3.07-5.11c0-.26.26-.51.26-1,0-.26-.26-.51-.26-.77l-3.07-5.11a1.41,1.41,0,0,0-1.28-.77h-6.14a1.41,1.41,0,0,0-1.28.77l-3.07,5.11a.94.94,0,0,0-.26.77c0,.51,0,.77.26,1l3.07,5.11a1.41,1.41,0,0,0,1.28.77h6.14a1.41,1.41,0,0,0,1.28-.77m-7.42-6.13a2.9,2.9,0,0,1,3.07-2.81,3.07,3.07,0,0,1,3.07,2.81,3.11,3.11,0,0,1-3.07,3.07,3,3,0,0,1-3.07-3.07"/><path class="cls-19" d="M572.49,129l3.07-5.36c0-.26.26-.51.26-.77s-.26-.51-.26-.77l-3.07-5.36a1.41,1.41,0,0,0-1.28-.77h-6.14a1.41,1.41,0,0,0-1.28.77l-3.07,5.36a1.28,1.28,0,0,0,0,1.53l3.07,5.36a2.17,2.17,0,0,0,1.28.77h6.14a2.17,2.17,0,0,0,1.28-.77m-7.42-6.13a3,3,0,0,1,3.07-3.07,2.9,2.9,0,0,1,2.81,3.07,3.07,3.07,0,0,1-2.81,3.07,3.11,3.11,0,0,1-3.07-3.07"/><path class="cls-38" d="M557.14,120.8l3.07-5.11c0-.26.26-.51.26-.77s-.26-.51-.26-.77l-3.07-5.36a1.41,1.41,0,0,0-1.28-.77h-6.14a1.41,1.41,0,0,0-1.28.77l-3.07,5.36a1.28,1.28,0,0,0,0,1.53l3.07,5.11a1.7,1.7,0,0,0,1.28,1h6.14a1.7,1.7,0,0,0,1.28-1m-7.42-5.88a3,3,0,0,1,3.07-3.07,3.11,3.11,0,0,1,3.07,3.07,3.07,3.07,0,0,1-3.07,2.81,2.9,2.9,0,0,1-3.07-2.81"/><path class="cls-29" d="M539.4,225.27h-8.92a.56.56,0,0,1-.56-.56v-21.2a.56.56,0,0,1,1.12,0v20.65h8.36a.56.56,0,1,1,0,1.12Z"/><path class="cls-29" d="M549.66,204.05a.56.56,0,0,1-.56-.56v-14H535.87a.56.56,0,1,1,0-1.12h13.79a.56.56,0,0,1,.56.56v14.54A.56.56,0,0,1,549.66,204.05Z"/><g id="_Group_" data-name="&lt;Group&gt;"><g id="_Group_2" data-name="&lt;Group&gt;"><polygon class="cls-29" points="537.49 227.44 542.21 224.71 537.49 221.98 537.49 227.44"/></g></g><g id="_Group_3" data-name="&lt;Group&gt;"><g id="_Group_4" data-name="&lt;Group&gt;"><polygon class="cls-29" points="546.94 200.13 549.67 204.86 552.4 200.13 546.94 200.13"/></g></g><circle class="cls-15" cx="530.89" cy="214.67" r="6.8"/><path class="cls-29" d="M527.61,214.94l1.19-.74a.27.27,0,0,0-.08-.49l-.46-.11a2.77,2.77,0,0,1,5.13,0,.52.52,0,1,0,1-.39,3.8,3.8,0,0,0-7.11.16l-.46-.11a.27.27,0,0,0-.29.4l.74,1.19a.27.27,0,0,0,.37.09Zm0,0"/><path class="cls-29" d="M535.1,215.88l-.72-1.2a.27.27,0,0,0-.37-.09l-1.2.72a.27.27,0,0,0,.07.49l.46.12a2.77,2.77,0,0,1-5-.12.52.52,0,1,0-1,.41,3.81,3.81,0,0,0,3.43,2.32h.07a3.79,3.79,0,0,0,3.51-2.35l.44.11a.27.27,0,0,0,.3-.4Zm0,0"/><path class="cls-29" d="M569.66,209.86a.49.49,0,0,0,.49-.49v-2a.49.49,0,0,0-1,0v2A.49.49,0,0,0,569.66,209.86Z"/><path class="cls-54" d="M555,209.86a.49.49,0,0,0,.49-.49v-2a.49.49,0,0,0-1,0v2A.49.49,0,0,0,555,209.86Z"/><path class="cls-54" d="M555,215.54a.49.49,0,0,0,.49-.49v-2a.49.49,0,0,0-1,0v2A.49.49,0,0,0,555,215.54Z"/><path class="cls-29" d="M569.66,215.73a.49.49,0,0,0,.49-.49v-2a.49.49,0,1,0-1,0v2A.49.49,0,0,0,569.66,215.73Z"/><path class="cls-29" d="M569.66,221.6a.49.49,0,0,0,.49-.49v-2a.49.49,0,1,0-1,0v2A.49.49,0,0,0,569.66,221.6Z"/><path class="cls-29" d="M557.27,228.94h12.38a.49.49,0,0,0,.49-.49V225a.49.49,0,1,0-1,0V228H557.27a.49.49,0,1,0,0,1Z"/><rect class="cls-29" x="552.54" y="203.5" width="19.57" height="3.91" rx="0.98" ry="0.98"/><rect class="cls-29" x="552.54" y="215.24" width="19.57" height="3.91" rx="0.98" ry="0.98"/><path class="cls-15" d="M560.36,205.95h9.78a.49.49,0,0,0,0-1h-9.78a.49.49,0,1,0,0,1Z"/><path class="cls-29" d="M557.24,205.95h1.47a.49.49,0,0,0,0-1h-1.47a.49.49,0,0,0,0,1Z"/><rect class="cls-29" x="552.54" y="209.37" width="19.57" height="3.91" rx="0.98" ry="0.98"/><rect class="cls-29" x="552.54" y="221.06" width="19.57" height="3.91" rx="0.98" ry="0.98"/><path class="cls-55" d="M554.92,212.31a1,1,0,1,0-1-1A1,1,0,0,0,554.92,212.31Z"/><path class="cls-15" d="M560.36,211.82h9.78a.49.49,0,0,0,0-1h-9.78a.49.49,0,1,0,0,1Z"/><path class="cls-56" d="M557.24,211.82h1.47a.49.49,0,0,0,0-1h-1.47a.49.49,0,0,0,0,1Z"/><path class="cls-57" d="M557.24,217.66h1.47a.49.49,0,0,0,0-1h-1.47a.49.49,0,0,0,0,1Z"/><path class="cls-56" d="M557.24,223.51h1.47a.49.49,0,0,0,0-1h-1.47a.49.49,0,0,0,0,1Z"/><path class="cls-15" d="M560.36,217.69h9.78a.49.49,0,1,0,0-1h-9.78a.49.49,0,1,0,0,1Z"/><path class="cls-15" d="M560.36,223.56h9.78a.49.49,0,1,0,0-1h-9.78a.49.49,0,1,0,0,1Z"/><path class="cls-38" d="M554.92,206.44a1,1,0,1,0-1-1A1,1,0,0,0,554.92,206.44Z"/><path class="cls-39" d="M564,222.07v6.29c0,1.82-4.82,3.29-10.77,3.29s-10.77-1.47-10.77-3.29v-6.29"/><path class="cls-58" d="M564,215.38v6.29c0,1.82-4.82,3.29-10.77,3.29s-10.77-1.47-10.77-3.29v-6.29"/><path class="cls-59" d="M564,208.69V215c0,1.82-4.82,3.29-10.77,3.29s-10.77-1.47-10.77-3.29v-6.29"/><ellipse class="cls-15" cx="553.22" cy="208.32" rx="10.77" ry="3.34"/><path class="cls-39" d="M540,197v5.54c0,1.6-4.25,2.9-9.49,2.9s-9.49-1.3-9.49-2.9V197"/><path class="cls-58" d="M540,191.07v5.54c0,1.6-4.25,2.9-9.49,2.9s-9.49-1.3-9.49-2.9v-5.54"/><path class="cls-59" d="M540,185.18v5.54c0,1.6-4.25,2.9-9.49,2.9s-9.49-1.3-9.49-2.9v-5.54"/><ellipse class="cls-16" cx="530.5" cy="184.85" rx="9.49" ry="2.95"/></g></svg>