<svg xmlns="http://www.w3.org/2000/svg" xmlns:xlink="http://www.w3.org/1999/xlink" id="Capa_1" x="0px" y="0px" viewBox="0 0 250 250" style="enable-background:new 0 0 250 250;" xml:space="preserve"><style type="text/css">.st0{fill:#F7F7F8;} path {fill:#008ccf;}
	.st1{fill:none;}</style><g> <path class="st0" d="M6,205.5L6,205.5L6,205.5z"></path> <path class="st0" d="M21.5,246.7L21.5,246.7L21.5,246.7z"></path> <path class="st0" d="M55,246.7L55,246.7L55,246.7z"></path> <line class="st1" x1="26.3" y1="191.6" x2="26.3" y2="191.6"></line> <line class="st1" x1="50.5" y1="191.6" x2="50.5" y2="191.6"></line> <path class="st0" d="M74,188.1L74,188.1L74,188.1z"></path> <path class="st0" d="M90,246.7L90,246.7L90,246.7z"></path> <path class="st0" d="M152.1,246.7L152.1,246.7L152.1,246.7z"></path> <path class="st0" d="M107,159.2L107,159.2L107,159.2z"></path> <path class="st0" d="M135.8,159.2L135.8,159.2L135.8,159.2z"></path> <path d="M143.8,197.8h-15c-1.4,0-2.5,1.1-2.5,2.5v14.6c0,1,0.5,1.8,1.4,2.3l7.5,3.6c0.3,0.2,0.7,0.2,1.1,0.2c0.4,0,0.8-0.1,1.1-0.3   l7.5-3.9c0.8-0.4,1.4-1.3,1.4-2.2v-14.4C146.2,199,145.1,197.8,143.8,197.8z M141.2,213.2l-5,2.6l-5-2.4v-10.6h10V213.2z"></path> <path class="st0" d="M171.6,201.6L171.6,201.6L171.6,201.6z"></path> <path class="st0" d="M183.8,246.7L183.8,246.7L183.8,246.7z"></path> <path d="M235.9,190.8l-12-4.7c-0.7-1.3-1.8-3.7-2.2-6c5.2-4.8,8.5-12.1,8.5-20.3c0-0.5,0-1,0-1.5c0.5-0.2,1-0.4,1.4-0.8   c0.3-0.3,0.6-0.6,0.8-0.9c0.1-0.1,0.1-0.1,0.2-0.2c1-1.6,1.2-3.7,1.2-5.3c0-13.4-11.7-24.2-26-24.2c-9.6,0-18.1,4.4-22.2,11.6   c-3.9,6.8-3.9,13.4-3.8,17.7v1.1c0,1.2,0.5,2.2,1.4,2.8c0.6,0.4,1.3,0.6,2.1,0.6c0.2,8.2,3.7,15.4,9,19.9c-0.3,1.6-0.9,3.5-1.4,5   l-13.4,5.2c-2.8,1.1-5.2,2.8-7.1,4.8c-0.5-9.3-6.3-17.4-15.1-20.8l-15.8-6.2c-0.8-1.5-2.7-5.1-3.1-8.6c6.7-6,11.1-15.5,11.1-26.1   c0-0.8,0-1.6-0.1-2.5c0.8-0.2,1.5-0.5,2.1-1c0.4-0.3,0.7-0.7,0.9-1c0.1-0.2,0.2-0.3,0.3-0.5c1.1-1.9,1.3-4.4,1.3-6.3   c0-16.9-14.8-30.7-33-30.7c-12.2,0-22.9,5.6-28.1,14.7c-5,8.7-4.9,17.1-4.9,22.6c0,0.5,0,0.9,0,1.4c0,1.8,1,2.7,1.5,3   c0.9,0.6,1.9,0.7,3,0.6c0.1,10.9,4.7,20.5,11.8,26.4c-0.3,2.3-1.3,5.3-2,7.3l-17.7,6.9c-9.2,3.6-15.2,12.3-15.2,22.2v1.6   c-0.3-0.2-0.7-0.4-1-0.6l-15.5-8.4v-6.4c7.8-5.3,13.1-15.1,13.1-26.4c0-9.9-4-19-10.9-24.7c0.4-1.5,0.7-3.1,0.7-4.6   c0-9.1-7.2-16.4-16.1-16.4s-16.1,7.4-16.1,16.4c0,1.6,0.2,3.1,0.7,4.6c-6.9,5.7-10.9,14.8-10.9,24.7c0,10.6,4.7,19.9,11.7,25.4   l-1.1,7.1l-16.1,8.6c-3.7,2-6,5.8-6,10v35.9c0,2.9,2.4,5.3,5.3,5.3h28.5h5h28.4c1,0,2-0.3,2.8-0.8c0.8,0.5,1.8,0.8,2.8,0.8h43.7h5   h43.7c0.9,0,1.8-0.3,2.6-0.7c0.7,0.4,1.5,0.7,2.4,0.7h33.1h5h33.1c2.6,0,4.7-2.1,4.7-4.7v-36.1   C248.1,200.6,243.2,193.7,235.9,190.8z M243.1,208.5v35.8h-8.9v-24.8c0-3.4,1.4-6.6,3.9-8.9l4.8-4.5   C242.9,206.9,243.1,207.7,243.1,208.5z M210.2,244.2v-42.9l12.4-10.3l11.5,4.5c2.9,1.1,5.2,3.1,6.7,5.6l-6.3,5.9   c-3.5,3.2-5.4,7.8-5.4,12.5v24.8L210.2,244.2L210.2,244.2L210.2,244.2z M172.6,244.2v-0.3v-35.5c0-0.8,0.1-1.6,0.2-2.4l4.8,4.5   c2.4,2.3,3.9,5.5,3.9,8.9v24.8H172.6z M123.5,244.2v-56.8l16.7-13.9l15.3,5.9c4.1,1.6,7.4,4.4,9.4,8l-8.6,8.1   c-4.3,4.1-6.8,9.8-6.8,15.7v32.9L123.5,244.2L123.5,244.2L123.5,244.2z M118.5,244.2h-26v-32.9c0-5.9-2.5-11.7-6.8-15.7l-8.6-8.1   c2.1-3.6,5.4-6.4,9.4-8l15.3-5.9l16.7,13.9V244.2L118.5,244.2z M74.8,244.2c-0.2,0-0.3-0.1-0.3-0.3V208v-11c0-1.6,0.2-3.1,0.5-4.5   l7.2,6.8c3.3,3.1,5.2,7.5,5.2,12.1v32.9H74.8V244.2L74.8,244.2z M40.7,244.2v-40l10.9-9.6l14.4,7.8c0.8,0.4,1.5,1.1,2.1,1.8   l-9.5,8.4c-3.9,3.5-6.2,8.5-6.2,13.7v18L40.7,244.2L40.7,244.2z M35.7,204.2v40H23.9v-18c0-5.2-2.3-10.2-6.2-13.7l-9.5-8.4   c0.5-0.7,1.2-1.3,2.1-1.8l14.4-7.8L35.7,204.2z M7.3,244.2c-0.2,0-0.3-0.1-0.3-0.3v-34.2l7.5,6.6c2.9,2.5,4.5,6.2,4.5,10v18H7.3   V244.2z M6,205.5L6,205.5L6,205.5L6,205.5z M28.8,129.1c-0.1-0.5-0.1-1.1-0.1-1.6c0-6.3,5-11.4,11.1-11.4s11.1,5.1,11.1,11.4   c0,0.5,0,1.1-0.1,1.6c-0.1,0-0.1-0.1-0.2-0.1c-0.1-0.1-0.3-0.1-0.4-0.2c-0.4-0.2-0.8-0.4-1.1-0.5c-0.2-0.1-0.3-0.1-0.5-0.2   c-0.4-0.2-0.8-0.3-1.2-0.4c-0.1,0-0.3-0.1-0.4-0.1c-0.5-0.2-1.1-0.3-1.6-0.5c-0.1,0-0.2,0-0.3-0.1c-0.4-0.1-0.9-0.2-1.3-0.3   c-0.2,0-0.4-0.1-0.5-0.1c-0.4-0.1-0.8-0.1-1.2-0.1c-0.2,0-0.3,0-0.5,0c-0.6,0-1.1-0.1-1.7-0.1c-0.6,0-1.1,0-1.7,0.1   c-0.2,0-0.3,0-0.5,0c-0.4,0-0.8,0.1-1.2,0.1c-0.2,0-0.4,0.1-0.5,0.1c-0.4,0.1-0.9,0.2-1.3,0.3c-0.1,0-0.2,0-0.3,0.1   c-0.5,0.1-1.1,0.3-1.6,0.5c-0.1,0-0.3,0.1-0.4,0.2c-0.4,0.1-0.8,0.3-1.2,0.4c-0.2,0.1-0.3,0.1-0.5,0.2c-0.4,0.2-0.8,0.3-1.1,0.5   c-0.1,0.1-0.3,0.1-0.4,0.2C28.9,129,28.8,129.1,28.8,129.1z M28.7,135c3.3-2.4,7.1-3.7,11-3.7s7.7,1.3,11,3.7   c5.9,4.3,9.6,11.4,10.2,19.5c-14.4,0.6-24.1-2.5-26.2-8.5c-0.7-2-2.4-1.9-2.8-1.9c-0.6,0.1-2,0.5-2.2,2.6v0.2   c-0.3,3.4-6.4,5.8-11.1,6.9C19.4,146,23,139.1,28.7,135z M32.7,152.1c3.5,3.8,10.5,7.5,24.8,7.5c1.1,0,2.3,0,3.5-0.1   c-1.1,12.8-10.2,22.9-21.2,22.9c-11.2,0-20.3-10.3-21.2-23.4C22.2,158.2,29.2,156.3,32.7,152.1z M50.5,191.6L50.5,191.6L50.5,191.6   z M38.2,199.8l-9.4-8.3l1-6.4c3.1,1.5,6.5,2.3,10,2.3c2.9,0,5.6-0.5,8.2-1.5v5.4L38.2,199.8z M26.3,191.6L26.3,191.6L26.3,191.6z    M57.5,244.2v-18c0-3.8,1.6-7.4,4.5-10l7.5-6.6v34.2c0,0.2-0.2,0.3-0.3,0.3H57.5V244.2z M74,188.1L74,188.1L74,188.1L74,188.1z    M149.1,122.7c0,1.3-0.1,2.1-0.2,2.7c-6.1,0.3-28.7,0.5-38.7-10.2c-0.9-1-2.5-1.1-3.5-0.1c-1,0.9-1.1,2.5-0.1,3.5   c9.6,10.4,28,11.9,37.8,12c0.1,1.2,0.2,2.3,0.2,3.5c0,15.4-10.5,28-23.4,28s-23.4-12.5-23.4-28c0-0.5,0-1,0-1.5   c2.6-1.6,6.6-4.7,7.9-5.8c1.1-0.9,1.3-2.4,0.4-3.5s-2.4-1.3-3.5-0.4c-3,2.4-6.9,5.2-8,5.7l-0.2,0.1c-0.5,0.2-0.9,0.4-1.3,0.5   c0-5.3,0-12.5,4.2-19.9s13.6-12.2,23.8-12.2C136.4,97,149.1,108.5,149.1,122.7z M107,159.2L107,159.2L107,159.2L107,159.2z    M106.5,171c0.5-1.3,1.6-4.3,2.3-7.3c3.7,2,7.8,3.2,12.1,3.2c4.6,0,9-1.3,12.9-3.6c0.7,2.7,1.8,5.2,2.7,6.8L120.9,183L106.5,171z    M135.8,159.2L135.8,159.2L135.8,159.2L135.8,159.2z M154.6,244.2v-32.9c0-4.6,1.9-9,5.2-12.1l7.2-6.8c0.4,1.5,0.5,3,0.5,4.5v11.4   v35.5c0,0.2-0.2,0.3-0.3,0.3h-12.6L154.6,244.2L154.6,244.2z M171.6,201.6L171.6,201.6L171.6,201.6L171.6,201.6z M180.9,206.9   l-6.3-5.9c1.6-2.5,3.9-4.4,6.7-5.6l11.5-4.5l12.4,10.3v42.9h-18.9v-24.8C186.3,214.7,184.4,210.2,180.9,206.9z M228.8,151.2   c0,0.7,0,1.3-0.1,1.7c-5.1,0.2-21.5,0-28.9-7.9l0,0c0,0,0,0-0.1,0c-0.6-0.6-1.4-0.8-2.2-0.7l0,0c-0.1,0-0.3,0.1-0.4,0.1l0,0   c-0.1,0.1-0.3,0.1-0.4,0.2l0,0c-0.1,0.1-0.2,0.2-0.4,0.3c-0.4,0.4-0.6,0.8-0.7,1.3l0,0c0,0.1-1.2,5-4.8,7.5v-0.1l-3.8,1.6   c-0.1,0-0.1,0-0.2,0.1c0-3.9,0.2-9,3.2-14.2c3.2-5.5,10.2-9.1,17.8-9.1C219.3,132,228.8,140.6,228.8,151.2z M190.3,159.5   c4.7-1.5,7.4-5.5,8.7-8.5c7.7,5.7,19.3,6.8,26.1,6.9c0.1,0.7,0.1,1.3,0.1,2c0,11.6-7.8,21-17.5,21c-9.6,0-17.5-9.4-17.5-21   C190.3,159.7,190.3,159.6,190.3,159.5z M207.8,185.8c3.4,0,6.7-0.9,9.6-2.5c0.5,1.6,1.1,3.1,1.7,4.2l-11.3,9.4l-10.4-8.7   c0.4-1,1-2.7,1.5-4.6C201.6,185.1,204.6,185.8,207.8,185.8z M243.9,201.6L243.9,201.6L243.9,201.6L243.9,201.6z M21.5,246.7   L21.5,246.7L21.5,246.7L21.5,246.7z M55,246.7L55,246.7L55,246.7L55,246.7z M90,246.7L90,246.7L90,246.7L90,246.7z M152.1,246.7   L152.1,246.7L152.1,246.7L152.1,246.7z M183.8,246.7L183.8,246.7L183.8,246.7L183.8,246.7z M231.6,246.7L231.6,246.7L231.6,246.7   L231.6,246.7z"></path> <path class="st0" d="M243.9,201.6L243.9,201.6L243.9,201.6z"></path> <path class="st0" d="M231.6,246.7L231.6,246.7L231.6,246.7z"></path> </g> <g> <g> <path d="M147.4,28c0,6.8-2.5,13.1-6.7,17.8c-3.9,4.5-7.7,11.8-8.1,14.2v11.6c0,0.5-0.1,1-0.4,1.4l-3.8,5.7c-0.5,0.7-1.2,1.1-2,1.1    h-12.1c-0.8,0-1.6-0.4-2-1.1l-3.8-5.7c-0.3-0.4-0.4-0.9-0.4-1.4V60c-0.3-2.4-4.1-9.7-8.1-14.2c-4.2-4.7-6.7-11-6.7-17.8    c0-14.3,11.2-27.1,27.1-27.1C135.3,0.9,147.4,13,147.4,28z M142.6,28c0-12.2-9.9-22.1-22.1-22.1c-12.9,0-22.2,10.3-22.1,22.1    c0,5.4,1.9,10.5,5.5,14.6c2.2,2.5,5.6,7.4,7.8,12.5h17.8c2.2-5.1,5.6-10.1,7.8-12.5C140.6,38.5,142.6,33.3,142.6,28z M122.8,13.2    c0,1.4-1.1,2.5-2.5,2.5c-6.8,0-12.3,5.5-12.3,12.3c0,1.4-1.1,2.5-2.5,2.5S103,29.4,103,28c0-9.5,7.7-17.2,17.2-17.2    C121.8,10.8,122.8,11.9,122.8,13.2z M127.8,60H113v4.9h14.8V60z M127.8,69.8H113v1l2.6,4h9.5l2.6-4L127.8,69.8L127.8,69.8z"></path> </g> </g> </svg> 