<svg version="1.1" id="Capa_1" xmlns="http://www.w3.org/2000/svg" xmlns:xlink="http://www.w3.org/1999/xlink" x="0px" y="0px" viewBox="0 0 250 250" style="enable-background:new 0 0 250 250;" xml:space="preserve"><style type="text/css">.st0{fill:#FFFFFF;} path {fill:#008ccf;}
	.st1{fill:#F7F7F8;}</style><g> <polygon class="st0" points="109.8,179.1 109.8,179 102.8,173.9 90.8,189.9 81.6,183.2 81.5,183.2 84.8,205.3 106.9,202.1 107,202 
 97.8,195.2 	"></polygon> <path d="M112.3,175.6l-6.9-5.1c-0.9-0.7-2-0.9-3.2-0.8c-1.1,0.2-2.1,0.8-2.8,1.7L90,184.1l-5.8-4.3c-1.3-1-3.3-1.1-4.7-0.3
 c-1.5,0.9-2.3,2.5-2,4.3l3.3,22.1c0.2,1.1,0.8,2.1,1.7,2.8c0.8,0.6,1.6,0.8,2.5,0.8c0.3,0,0.4,0,0.7-0.1l22.1-3.3
 c1.7-0.3,3.1-1.5,3.5-3.2c0.4-1.7-0.2-3.5-1.6-4.5l-5.8-4.3l9.4-12.7c0.7-0.9,0.9-2,0.8-3.2C113.7,177.3,113.1,176.3,112.3,175.6z
 M106.9,202.1l-22.2,3.2l-3.3-22.1h0.1l9.2,6.8l12-16.1l6.9,5.1v0.1l-12,16.1L106.9,202.1L106.9,202.1z"></path> <polygon class="st0" points="172.5,183.2 172.4,183.1 163.2,189.9 151.3,173.9 151.2,173.9 144.3,179 156.3,195.2 147.1,202 
 147.1,202.1 169.2,205.4 	"></polygon> <path d="M174.6,179.6c-1.5-0.9-3.4-0.8-4.7,0.3l-5.8,4.3l-9.4-12.7c-1.4-1.9-4-2.3-6-0.8l-6.9,5.1c-0.9,0.7-1.5,1.7-1.7,2.8
 c-0.2,1.1,0.1,2.3,0.8,3.2l9.4,12.7l-5.8,4.3c-1.3,1-2,2.8-1.6,4.5c0.4,1.7,1.8,2.9,3.5,3.2l22.1,3.3c0.3,0,0.4,0.1,0.7,0.1
 c0.9,0,1.8-0.3,2.5-0.8c0.9-0.7,1.5-1.7,1.7-2.8l3.3-22.1C176.9,182.1,176.1,180.4,174.6,179.6z M147.1,202l9.2-6.8l-12-16.2
 l6.9-5.1h0.1l12,16.1l9.2-6.8l0.1,0.1l-3.3,22.2L147.1,202L147.1,202z"></path> </g> <path class="st1" d="M192,210.7L192,210.7L192,210.7z"></path> <path class="st1" d="M240.5,169.7L240.5,169.7L240.5,169.7z"></path> <path class="st1" d="M249.2,196.1L249.2,196.1L249.2,196.1z"></path> <path d="M250,210.7c0-1.9-1-3.7-2.6-4.7l-1.9-1.1c-0.3-0.2-0.5-0.3-0.8-0.5l-13.1-7.1V192c6.6-4.5,11-12.7,11-22.2
 c0-8.3-3.4-16-9.2-20.8c0.3-1.3,0.6-2.6,0.6-3.9c0-7.7-6.1-13.8-13.6-13.8c-7.5,0-13.6,6.2-13.6,13.8c0,1.3,0.2,2.6,0.6,3.9
 c-5.7,4.8-9.2,12.5-9.2,20.8c0,8.9,4,16.8,9.9,21.4l-0.9,6l-13.6,7.2c-3.1,1.7-5.1,4.9-5.1,8.4V243c0,2.4,2,4.5,4.5,4.5h23.9h4.2
 h23.9h0.5c2.4,0,4.2-1.9,4.2-4.2L250,210.7L250,210.7z M240.5,169.7L240.5,169.7L240.5,169.7L240.5,169.7z M220.4,135.4
 c5.1,0,9.3,4.3,9.3,9.6c0,0.5,0,0.9-0.1,1.3c-0.1,0-0.1-0.1-0.2-0.1c-0.1-0.1-0.3-0.1-0.3-0.2c-0.3-0.2-0.7-0.3-0.9-0.4
 c-0.2-0.1-0.3-0.1-0.4-0.2c-0.3-0.2-0.7-0.3-1-0.3c-0.1,0-0.3-0.1-0.3-0.1c-0.4-0.2-0.9-0.3-1.3-0.4c-0.1,0-0.2,0-0.3-0.1
 c-0.3-0.1-0.8-0.2-1.1-0.3c-0.2,0-0.3-0.1-0.4-0.1c-0.3-0.1-0.7-0.1-1-0.1c-0.2,0-0.3,0-0.4,0c-0.5,0-0.9-0.1-1.4-0.1
 c-0.5,0-0.9,0-1.4,0.1c-0.2,0-0.3,0-0.4,0c-0.3,0-0.7,0.1-1,0.1c-0.2,0-0.3,0.1-0.4,0.1c-0.3,0.1-0.8,0.2-1.1,0.3
 c-0.1,0-0.2,0-0.3,0.1c-0.4,0.1-0.9,0.3-1.3,0.4c-0.1,0-0.3,0.1-0.3,0.1c-0.3,0.1-0.7,0.3-1,0.3c-0.2,0.1-0.3,0.1-0.4,0.2
 c-0.3,0.2-0.7,0.3-0.9,0.4c-0.1,0.1-0.3,0.1-0.3,0.2c-0.1,0-0.1,0.1-0.2,0.1c-0.1-0.4-0.1-0.9-0.1-1.3
 C211.1,139.7,215.3,135.4,220.4,135.4z M211.2,151.4c2.8-2,6-3.1,9.3-3.1c0.8,0,1.6,0.1,2.4,0.2c2.4,0.4,4.7,1.3,6.8,2.9
 c5,3.6,8.1,9.6,8.6,16.4c-12.1,0.5-20.3-2.1-22.1-7.2c-0.6-1.7-2-1.6-2.4-1.6c-0.5,0.1-1.7,0.4-1.9,2.2v0.2
 c-0.3,2.9-5.4,4.9-9.3,5.8C203.3,160.6,206.4,154.8,211.2,151.4z M202.6,171.5c3.1-0.6,9-2.2,12-5.8c2.9,3.2,8.8,6.3,20.9,6.3
 c0.9,0,1.9,0,2.9-0.1c-0.9,10.8-8.6,19.3-17.9,19.3C211.1,191.2,203.3,182.5,202.6,171.5z M192,210.7L192,210.7L192,210.7L192,210.7
 z M203,243.3h-9.9c-0.2,0-0.3-0.2-0.3-0.3v-28.8l6.3,5.6c2.4,2.1,3.8,5.2,3.8,8.4V243.3z M207.2,243.3v-15.2c0-4.4-1.9-8.6-5.2-11.5
 l-8-7.1c0.4-0.6,1-1.1,1.8-1.5l12.1-6.6l9.2,8.1v33.7L207.2,243.3L207.2,243.3L207.2,243.3z M219.2,205.9l-7.9-7l0.8-5.4
 c2.6,1.3,5.5,1.9,8.4,1.9c2.4,0,4.7-0.4,6.9-1.3v4.5L219.2,205.9z M231.2,228.3v15.2h-9.9v-33.7l9.2-8.1l12.1,6.6
 c0.7,0.3,1.3,0.9,1.8,1.5l-8,7.1C233.1,219.6,231.2,223.8,231.2,228.3z M245.5,243.1c0,0.2-0.1,0.3-0.3,0.3h-9.9v-15.2
 c0-3.2,1.3-6.2,3.8-8.4l6.3-5.6V243.1z M249.2,196.1L249.2,196.1L249.2,196.1L249.2,196.1z"></path> <path class="st1" d="M0.8,195L0.8,195L0.8,195z"></path> <path d="M58,197.4l-10.1-4c-0.5-1-1.5-3-1.9-5.1c4.4-4,7.2-10.2,7.2-17.1c0-0.4,0-0.8,0-1.3c0.4-0.2,0.8-0.3,1.2-0.7
 c0.3-0.3,0.5-0.5,0.7-0.8c0.1-0.1,0.1-0.2,0.2-0.3c0.8-1.3,1-3.1,1-4.5c0-11.3-9.9-20.4-21.9-20.4c-8.1,0-15.2,3.7-18.7,9.8
 c-3.3,5.7-3.3,11.3-3.2,14.9v0.9c0,1,0.4,1.9,1.2,2.4c0.5,0.3,1.1,0.5,1.8,0.5c0.2,6.9,3.1,13,7.6,16.8c-0.3,1.3-0.8,2.9-1.2,4.2
 l-11.3,4.5c-2.4,0.9-4.4,2.4-6,4c-3.7,4-4.5,8.2-4.5,9.1v31.9c0,2.3,1.9,4.1,4.1,4.1h0.2h27.9h4.2h27.9c2.2,0,4-1.8,4-4v-30.4
 C68.1,205.6,64.1,199.7,58,197.4z M0.8,195L0.8,195L0.8,195L0.8,195z M16.5,167.4c0-3.3,0.2-7.6,2.7-12c2.7-4.6,8.6-7.7,15-7.7
 c9.8,0,17.7,7.2,17.7,16.2c0,0.6,0,1.1-0.1,1.4c-4.3,0.2-18.1,0.1-24.3-6.7l0,0c0,0-0.1,0-0.1-0.1c-0.4-0.4-0.9-0.6-1.4-0.6h-0.1
 c-0.1,0-0.3,0-0.3,0h-0.1c-0.1,0-0.2,0.1-0.3,0.1c0,0-0.1,0-0.1,0.1c-0.1,0-0.2,0.1-0.3,0.2c-0.1,0-0.1,0.1-0.1,0.1
 c-0.1,0.1-0.2,0.1-0.2,0.2l0,0l-0.1,0.1c-0.3,0.3-0.4,0.6-0.5,1l0,0c0,0.1-1,4.2-4,6.3v-0.1l-3.2,1.3
 C16.7,167.4,16.6,167.4,16.5,167.4z M19.5,171.2c0-0.1,0-0.3,0-0.3c4-1.3,6.2-4.6,7.3-7.2c6.5,4.8,16.3,5.7,22,5.8
 c0.1,0.6,0.1,1.1,0.1,1.7c0,9.8-6.6,17.7-14.7,17.7S19.5,181,19.5,171.2z M43.8,187.7L43.8,187.7L43.8,187.7L43.8,187.7z M12,242.3
 H4.5v-0.3v-29.9c0-0.7,0.1-1.3,0.2-2l4,3.8c2,1.9,3.3,4.6,3.3,7.5L12,242.3L12,242.3z M32.1,242.3H16.2v-20.9c0-4-1.7-7.8-4.5-10.5
 l-5.3-5c1.3-2.1,3.3-3.7,5.6-4.7l9.7-3.8l10.4,8.7C32.1,206.1,32.1,242.3,32.1,242.3z M34.2,202.5l-8.8-7.3c0.3-0.8,0.8-2.3,1.3-3.9
 c2.3,1.2,4.9,1.9,7.6,1.9c2.9,0,5.6-0.8,8.1-2.1c0.4,1.3,0.9,2.6,1.4,3.5L34.2,202.5z M52.2,242.3H36.3v-36.1l10.4-8.7l9.7,3.8
 c2.4,0.9,4.4,2.6,5.6,4.7l-5.3,5c-2.9,2.7-4.5,6.6-4.5,10.5V242.3z M63.9,242.3h-7.5v-20.9c0-2.9,1.2-5.6,3.3-7.5l4-3.8
 c0.1,0.7,0.2,1.3,0.2,2V242.3z"></path> <path class="st1" d="M43.8,187.7L43.8,187.7L43.8,187.7z"></path> <path class="st1" d="M87.5,109.7L87.5,109.7L87.5,109.7z"></path> <path class="st1" d="M166.8,109.7L166.8,109.7L166.8,109.7z"></path> <path d="M146.3,117.8h-12.6c-1.2,0-2.1,0.9-2.1,2.1v12.3c0,0.8,0.4,1.5,1.2,1.9l6.3,3c0.3,0.2,0.6,0.2,0.9,0.2
 c0.3,0,0.7-0.1,0.9-0.3l6.3-3.3c0.7-0.3,1.2-1.1,1.2-1.9v-12.1C148.4,118.8,147.5,117.8,146.3,117.8z M144.2,130.8L140,133l-4.2-2
 V122h8.4V130.8z"></path> <path d="M170.5,116.1c-0.4-7.8-5.3-14.7-12.7-17.5l-13.3-5.2c-0.7-1.3-2.3-4.3-2.6-7.2c5.6-5.1,9.3-13.1,9.3-22c0-0.7,0-1.3-0.1-2.1
 c0.7-0.2,1.3-0.4,1.8-0.8c0.3-0.3,0.6-0.6,0.8-0.8c0.1-0.2,0.2-0.3,0.3-0.4c0.9-1.6,1.1-3.7,1.1-5.2c0-14.2-12.5-25.9-27.8-25.9
 c-10.3,0-19.3,4.7-23.7,12.4c-4.2,7.3-4.1,14.4-4.1,19c0,0.4,0,0.8,0,1.2c0,1.5,0.8,2.3,1.3,2.5c0.8,0.5,1.6,0.6,2.5,0.5
 c0.1,9.2,4,17.3,9.9,22.2c-0.3,1.9-1.1,4.5-1.7,6.1l-14.9,5.8c-7.7,3-12.8,10.4-12.8,18.7l-0.3,44c0.8,0,1.7-0.3,2.4-0.7
 c0.7,0.4,1.5,0.7,2.4,0.7H125h4.2H166c0.8,0,1.5-0.3,2.2-0.6c0.6,0.3,1.3,0.6,2,0.6L170.5,116.1z M107.5,64c0-0.4,0-0.8,0-1.3
 c2.2-1.3,5.6-4,6.7-4.9c0.9-0.8,1.1-2,0.3-2.9c-0.8-0.9-2-1.1-2.9-0.3c-2.5,2-5.8,4.4-6.7,4.8l-0.2,0.1c-0.4,0.2-0.8,0.3-1.1,0.4
 c0-4.5,0-10.5,3.5-16.8c3.5-6.2,11.5-10.3,20-10.3c13,0,23.6,9.7,23.6,21.6c0,1.1-0.1,1.8-0.2,2.3c-5.1,0.3-24.2,0.4-32.6-8.6
 c-0.8-0.8-2.1-0.9-2.9-0.1c-0.8,0.8-0.9,2.1-0.1,2.9c8.1,8.8,23.6,10,31.8,10.1c0.1,1,0.2,1.9,0.2,2.9c0,13-8.8,23.6-19.7,23.6
 S107.5,77.1,107.5,64z M87.5,109.7L87.5,109.7L87.5,109.7L87.5,109.7z M99,156.9H88.3c-0.2,0-0.3-0.2-0.3-0.3v-30.2v-9.3
 c0-1.3,0.2-2.6,0.4-3.8l6.1,5.7c2.8,2.6,4.4,6.3,4.4,10.2L99,156.9L99,156.9z M125.1,156.9h-21.9v-27.7c0-5-2.1-9.9-5.7-13.2
 l-7.2-6.8c1.8-3,4.5-5.4,7.9-6.7l12.9-5l14.1,11.7L125.1,156.9L125.1,156.9z M127.2,105.5l-12.1-10.1c0.4-1.1,1.3-3.6,1.9-6.1
 c3.1,1.7,6.6,2.7,10.2,2.7c3.9,0,7.6-1.1,10.9-3c0.6,2.3,1.5,4.4,2.3,5.7L127.2,105.5z M151.2,156.9h-21.9v-47.8l14.1-11.7l12.9,5
 c3.5,1.3,6.2,3.7,7.9,6.7l-7.2,6.8c-3.6,3.5-5.7,8.3-5.7,13.2V156.9z M166.4,126.8v29.9c0,0.2-0.1,0.3-0.3,0.3h-10.7v-27.7
 c0-3.9,1.6-7.6,4.4-10.2l6.1-5.7c0.3,1.3,0.4,2.5,0.4,3.8L166.4,126.8L166.4,126.8z M166.8,109.7L166.8,109.7L166.8,109.7
 L166.8,109.7z"></path> </svg>