<svg xmlns="http://www.w3.org/2000/svg" xmlns:xlink="http://www.w3.org/1999/xlink" id="Capa_1" x="0px" y="0px" viewBox="0 0 250 250" style="enable-background:new 0 0 250 250;" xml:space="preserve"><style type="text/css">.st0{fill:none;} path, polygon {fill:#008ccf;}</style><g> <path class="st0" d="M104.4,79.1c7.6-3.4,16-5.3,24.9-5.3c33.7,0,61.2,27.4,61.2,61.2s-27.5,61.3-61.2,61.2   c-33.7,0-61.2-27.4-61.2-61.2c0-6.9,1.2-13.5,3.3-19.7c-4.3,1.4-8.9,2.3-13.6,2.5c-1.3,5.6-2.1,11.4-2.1,17.4   c0,40.6,33,73.6,73.6,73.6c16.6,0,32.3-5.4,45.4-15.6l7-5.6l5.7-7.1c10.2-13.1,15.6-28.8,15.6-45.3c-0.1-40.6-33.1-73.6-73.7-73.6   c-8.3,0-16.2,1.4-23.7,3.9c0,0.8,0.1,1.6,0.1,2.4C105.8,71.7,105.2,75.5,104.4,79.1z"></path> <path class="st0" d="M167.9,175.9c-3.9-1.8-8.3-2.8-12.9-2.8h-1.3c-15.4,7-32.4,7-47.8,0h-1.3c-4.8,0-9.4,1.1-13.5,3   c10.1,9.4,23.5,15.1,38.3,15.1S157.8,185.4,167.9,175.9z"></path> <path class="st0" d="M87.3,172.4c5.1-2.7,11-4.3,17.2-4.3h1.9c0.3,0,0.7,0,1,0.2c14.4,6.6,30.3,6.6,44.6,0c0.3-0.1,0.6-0.2,1-0.2   h1.8c6,0,11.6,1.4,16.6,4c8.7-9.9,14-22.9,14-37.1c0-31-25.2-56.2-56.2-56.2c-9.7,0-18.8,2.5-26.8,6.8   c-4.5,11.9-13.4,21.6-24.8,27.2c-3,6.8-4.6,14.3-4.6,22.2C73.1,149.4,78.4,162.5,87.3,172.4z M129.8,94.2   c19.5,0,35.3,15.8,35.3,35.3s-15.8,35.3-35.3,35.3S94.4,149,94.4,129.5S110.2,94.2,129.8,94.2z"></path> <path class="st0" d="M84.7,83.6c1.3,0,2.3-0.4,3.2-1.3s1.3-2.1,1.3-3.5s-0.4-2.6-1.3-3.5s-1.9-1.3-3.2-1.3s-2.3,0.4-3.2,1.3   s-1.3,2.1-1.3,3.5s0.4,2.6,1.3,3.5C82.4,83.2,83.5,83.6,84.7,83.6z"></path> <path class="st0" d="M129.8,159.8c16.7,0,30.3-13.6,30.3-30.3s-13.6-30.3-30.3-30.3c-16.8,0-30.4,13.6-30.3,30.3   C99.4,146.2,113.1,159.8,129.8,159.8z"></path> <path class="st0" d="M61.1,53.8c0-1.5-0.4-2.6-1.3-3.5c-0.9-0.9-1.9-1.3-3.2-1.3c-1.3,0-2.3,0.4-3.2,1.3c-0.9,0.9-1.3,2.1-1.3,3.5   c0,1.5,0.4,2.6,1.3,3.5c0.9,0.9,1.9,1.3,3.2,1.3c1.3,0,2.3-0.4,3.2-1.3C60.7,56.5,61.1,55.3,61.1,53.8z"></path> <path class="st0" d="M200.4,189.7c-0.8-0.8-1.8-1.2-2.9-1.2h-14.7v14.7c0,1.1,0.4,2.2,1.2,2.9l37.5,37.7c1.8,1.6,4.2,1.6,6,0   l10.6-10.6c1.5-1.5,1.5-4.2,0-5.8L200.4,189.7z"></path> <path class="st0" d="M176.1,201.2V200c-13.5,9.3-29.3,14.2-45.9,14.2c-21,0-40.2-8-54.7-21.2c-1,3-1.5,6.2-1.5,9.5v9.4   c0,5.2,4.2,9.3,9.3,9.3h94.4c0.1,0,0.2,0,0.3,0c3.6,0,6.7-2.1,8.2-5.1l-6.7-6.7C177.4,207.2,176.1,204.3,176.1,201.2z"></path> <path d="M129.8,164.8c19.5,0,35.3-15.8,35.3-35.3s-15.8-35.3-35.3-35.3S94.4,110,94.4,129.5S110.2,164.8,129.8,164.8z M129.8,99.2   c16.7,0,30.3,13.6,30.3,30.3s-13.6,30.3-30.3,30.3s-30.3-13.6-30.3-30.3C99.3,112.8,112.9,99.2,129.8,99.2z"></path> <path d="M177.8,203.1V197c-14,10.9-30.7,16.6-48.4,16.6c-22.7,0-43.2-9.7-57.5-25.2l-1,3c-1.2,3.5-1.8,7.2-1.8,11.1v9.4   c0,7.9,6.4,14.3,14.3,14.3h94.3c0.1,0,0.2,0,0.3,0c5.1,0,9.7-2.6,12.1-6.8l-9.7-9.8C178.6,207.9,177.8,205.6,177.8,203.1z    M178.1,221.2c-0.1,0-0.2,0-0.3,0H83.3c-5.1,0-9.3-4.1-9.3-9.3v-9.4c0-3.3,0.5-6.5,1.5-9.5c14.5,13.2,33.7,21.2,54.7,21.2   c16.6,0,32.4-4.9,45.9-14.2v1.2c0,3.1,1.2,6,3.4,8.2l6.7,6.7C184.8,219.1,181.6,221.2,178.1,221.2z"></path> <path d="M241.6,223.8L203.8,186c-1.8-1.7-4-2.6-6.4-2.6h-6.1c10.9-14,16.6-30.7,16.6-48.4c0-43.3-35.3-78.6-78.6-78.6   c-8.4,0-16.5,1.4-24.2,3.8c0.3,1.7,0.4,3.4,0.5,5.2c7.4-2.5,15.4-3.9,23.7-3.9c40.6,0,73.6,33,73.7,73.6c0,16.5-5.4,32.2-15.6,45.3   l-5.7,7.1l-7,5.6c-13.1,10.2-28.8,15.6-45.4,15.6c-40.6,0-73.6-33-73.6-73.6c0-6,0.7-11.8,2.1-17.4c-0.7,0-1.4,0.1-2.1,0.1   c-1,0-2,0-3.1-0.1c-1.3,5.6-1.9,11.4-1.9,17.3c0,20.6,8,39.4,21.1,53.4c14.4,15.5,34.8,25.2,57.5,25.2c17.7,0,34.4-5.7,48.4-16.6   v6.1c0,2.5,0.9,4.8,2.6,6.5l9.7,9.8l27.9,27.9l0.1,0.1c1.8,1.7,4,2.6,6.4,2.6s4.6-0.9,6.5-2.7l10.7-10.7   C245.1,233.2,245.1,227.4,241.6,223.8z M238.1,233.2l-10.6,10.6c-1.8,1.6-4.2,1.6-6,0L184,206.1c-0.8-0.7-1.2-1.8-1.2-2.9v-14.7   h14.7c1.1,0,2.1,0.4,2.9,1.2l37.7,37.7C239.6,229,239.6,231.7,238.1,233.2z"></path> <path d="M129.4,196.2c33.7,0.1,61.2-27.4,61.2-61.2s-27.5-61.2-61.2-61.2c-8.9,0-17.3,1.9-24.9,5.3c-0.5,2.2-1.2,4.4-2,6.5   c8-4.3,17.1-6.8,26.8-6.8c31,0,56.2,25.2,56.2,56.2c0,14.2-5.3,27.2-14,37.1c-5-2.6-10.6-4-16.6-4H153c-0.4,0-0.7,0.1-1,0.2   c-14.3,6.6-30.2,6.6-44.6,0c-0.3-0.2-0.7-0.2-1-0.2h-1.9c-6.2,0-12.1,1.6-17.2,4.3c-8.9-9.9-14.3-23-14.3-37.4   c0-7.9,1.6-15.4,4.6-22.2c-2,1-4.1,1.8-6.2,2.5c-2.1,6.2-3.3,12.8-3.3,19.7C68.2,168.8,95.7,196.2,129.4,196.2z M104.6,173.1h1.3   c15.4,7,32.4,7,47.8,0h1.3c4.6,0,9,1,12.9,2.8c-10.1,9.5-23.6,15.3-38.5,15.3c-14.8,0-28.2-5.7-38.3-15.1   C95.2,174.2,99.8,173.1,104.6,173.1z"></path> <path d="M57.8,117.7c4.7-0.2,9.3-1.1,13.6-2.5c2.1-0.7,4.2-1.5,6.2-2.5c11.4-5.5,20.3-15.3,24.8-27.2c0.8-2.1,1.5-4.3,2-6.5   c0.8-3.6,1.3-7.4,1.3-11.3c0-0.8,0-1.6-0.1-2.4c-0.1-1.8-0.3-3.5-0.5-5.2c-3.6-23.9-24.4-42.3-49.4-42.3c-27.6,0-50,22.4-50,50   c0,26.6,20.8,48.3,46.9,49.9c1,0.1,2,0.1,3.1,0.1C56.5,117.8,57.2,117.8,57.8,117.7z M10.8,67.8c0-24.8,20.2-45,45-45   c22.8,0,41.7,17.1,44.6,39.2c0.2,1.7,0.4,3.5,0.4,5.3c0,0.2,0,0.3,0,0.5c0,5.1-0.9,9.9-2.4,14.5c-1.1,3.1-2.4,6.1-4.1,8.8   c-3.1,5.1-7.1,9.5-11.9,13c-2.6,1.9-5.4,3.5-8.4,4.9c-4.6,2-9.5,3.3-14.7,3.7c-1.1,0-2.3,0.1-3.5,0.1c-0.6,0-1.2,0-1.8,0   C30,111.8,10.8,92,10.8,67.8z"></path> <polygon points="20.3,49.7 23.4,57.1 31.4,53.7 31.4,89 40.2,89 40.2,43.4 33.6,43.4  "></polygon> <polygon points="81,42.4 51.4,86.5 56.5,90 86.1,45.9  "></polygon> <path d="M90.2,70.7c-1-1-2.2-1.9-3.7-2.5c-1.5-0.6-2.9-0.9-4.7-0.9s-3.2,0.3-4.7,0.9c-1.3,0.6-2.6,1.5-3.7,2.5   c-1,1-1.9,2.3-2.5,3.7c-0.6,1.3-0.9,2.8-0.9,4.4c0,1.5,0.3,2.9,0.9,4.4s1.5,2.6,2.5,3.7c1,1,2.2,1.9,3.7,2.5   c0.1,0.1,0.4,0.1,0.6,0.3c1.3,0.4,2.5,0.6,4.1,0.6c1.6,0,3.2-0.3,4.7-0.9c1.3-0.7,2.6-1.5,3.7-2.5c1-1,1.9-2.2,2.5-3.7   c0.6-1.3,0.9-2.8,0.9-4.4c0-1-0.1-1.9-0.4-2.9c-0.1-0.4-0.3-1-0.4-1.5C92,72.9,91.1,71.7,90.2,70.7z M78.6,75.2   c0.9-0.9,1.9-1.3,3.2-1.3c1.3,0,2.3,0.4,3.2,1.3s1.3,2.1,1.3,3.5c0,1.5-0.4,2.6-1.3,3.5s-1.9,1.3-3.2,1.3c-1.3,0-2.3-0.4-3.2-1.3   s-1.3-2.1-1.3-3.5C77.3,77.3,77.8,76.1,78.6,75.2z"></path> <path d="M61.4,64.4c1.3-0.7,2.6-1.5,3.7-2.5c1-1,1.9-2.2,2.5-3.7c0.6-1.3,0.9-2.8,0.9-4.4c0-1.6-0.3-3.1-0.9-4.4   c-0.6-1.5-1.5-2.6-2.5-3.7c-1-1-2.2-1.9-3.7-2.5s-2.9-0.9-4.7-0.9c-1.8,0-3.2,0.3-4.7,0.9c-1.3,0.6-2.6,1.5-3.7,2.5   c-1,1-1.9,2.3-2.5,3.7c-0.6,1.3-0.9,2.8-0.9,4.4c0,1.5,0.3,3.1,0.9,4.4c0.6,1.5,1.5,2.6,2.5,3.7c1,1,2.2,1.9,3.7,2.5   c1.5,0.6,2.9,0.9,4.7,0.9C58.2,65.3,60,65,61.4,64.4z M53.4,57.4c-0.9-0.9-1.3-2.1-1.3-3.5c0-1.5,0.4-2.6,1.3-3.5   c0.9-0.9,1.9-1.3,3.2-1.3c1.3,0,2.3,0.4,3.2,1.3c0.9,0.9,1.3,2.1,1.3,3.5c0,1.5-0.4,2.6-1.3,3.5c-0.9,0.9-1.9,1.3-3.2,1.3   C55.3,58.7,54.1,58.2,53.4,57.4z"></path> </g> </svg>