<svg version="1.1" id="Capa_1" xmlns="http://www.w3.org/2000/svg" xmlns:xlink="http://www.w3.org/1999/xlink" x="0px" y="0px" viewBox="0 0 250 250" style="enable-background:new 0 0 250 250;" xml:space="preserve"><style type="text/css"> path {fill:#008ccf;}
	</style> <g> <path d="M224.9,70.8H25.1c-4.5,0-8.2,3.7-8.2,8.2v136.4c0,4.5,3.7,8.2,8.2,8.2h76.1v-5H25.1c-1.7,0-3.2-1.4-3.2-3.2V78.9
 c0-1.7,1.4-3.2,3.2-3.2h199.7c1.7,0,3.2,1.4,3.2,3.2v136.4c0,1.7-1.4,3.2-3.2,3.2h-76.1v5h76.1c4.5,0,8.2-3.7,8.2-8.2V78.9
 C233.1,74.4,229.4,70.8,224.9,70.8z"></path> <path d="M148.8,239.2h30.1c0.2,0,0.3,0.2,0.3,0.3v5.2c0,0.2-0.1,0.3-0.3,0.3H71.1c-0.2,0-0.3-0.1-0.3-0.3v-5.2
 c0-0.2,0.2-0.3,0.3-0.3h30.1v-5H71.1c-2.9,0-5.3,2.4-5.3,5.3v5.2c0,2.9,2.4,5.3,5.3,5.3h107.7c2.9,0,5.3-2.4,5.3-5.3v-5.2
 c0-2.9-2.4-5.3-5.3-5.3h-30.1v5H148.8z"></path> <path d="M148.8,218.5h-47.5v5v10.7v5h47.5v-5v-10.7V218.5z M143.9,234.2h-37.5v-10.7h37.5V234.2z"></path> <path d="M192.6,190.1v-4c0-3.6-2.9-6.5-6.5-6.5H77.3v-77c0-3.6-2.9-6.5-6.5-6.5h-4c-3.6,0-6.5,2.9-6.5,6.5v83.5
 c0,5.8,4.7,10.5,10.5,10.5h115.3C189.8,196.6,192.6,193.7,192.6,190.1z M65.3,186.1v-83.5c0-0.8,0.7-1.5,1.5-1.5h4
 c0.8,0,1.5,0.7,1.5,1.5v82h113.8c0.8,0,1.5,0.7,1.5,1.5v4c0,0.8-0.7,1.5-1.5,1.5H70.8C67.8,191.6,65.3,189.1,65.3,186.1z"></path> <path d="M90.3,153.5c2.5,2.5,6.6,2.5,9.2,0l11.1-11.1l19.3,19.3c1.2,1.2,2.8,1.9,4.6,1.9c1.8,0,3.4-0.7,4.6-1.9l25.6-25.6l5.6,5.6
 c2.5,2.5,6,3.2,9.2,1.8c3.2-1.3,5.2-4.3,5.2-7.8v-25.1c0-3.6-2.9-6.5-6.5-6.5h-25.1c-3.5,0-6.5,2-7.8,5.2s-0.6,6.8,1.8,9.2l5.6,5.6
 l-18.2,18.2L115.2,123c-2.5-2.5-6.6-2.5-9.2,0l-18.5,18.5c-1.2,1.2-1.9,2.8-1.9,4.6c0,1.7,0.7,3.4,1.9,4.6L90.3,153.5z M91,145.1
 l18.5-18.5c0.6-0.6,1.5-0.6,2.1,0l22.8,22.8l25.3-25.3l-9.1-9.1c-1.5-1.5-1-3.3-0.8-3.8s1.1-2.1,3.2-2.1h25.1
 c0.8,0,1.5,0.7,1.5,1.5v25.1c0,2.1-1.6,3-2.1,3.2s-2.3,0.8-3.8-0.8l-9.1-9.1l-29.1,29.2c-0.6,0.6-1.5,0.6-2.1,0l-22.8-22.9
 L96,149.9c-0.6,0.6-1.5,0.6-2.1,0l-2.8-2.8c-0.3-0.3-0.4-0.6-0.4-1C90.6,145.7,90.8,145.3,91,145.1z"></path> </g> </svg>