<svg version="1.1" id="Capa_1" xmlns="http://www.w3.org/2000/svg" xmlns:xlink="http://www.w3.org/1999/xlink" x="0px" y="0px" viewBox="0 0 250 250" style="enable-background:new 0 0 250 250;" xml:space="preserve"><style type="text/css">.st0{fill:#F7F7F8;} path {fill:#008ccf;}
	.st1{fill:none;}</style><path class="st0" d="M10.8,207.9L10.8,207.9L10.8,207.9z"></path> <path class="st0" d="M25.7,247.7L25.7,247.7L25.7,247.7z"></path> <path class="st0" d="M57.8,247.7L57.8,247.7L57.8,247.7z"></path> <line class="st1" x1="30.3" y1="194.5" x2="30.3" y2="194.5"></line> <line class="st1" x1="53.5" y1="194.5" x2="53.5" y2="194.5"></line> <path class="st0" d="M76.1,191.1L76.1,191.1L76.1,191.1z"></path> <path class="st0" d="M91.4,247.7L91.4,247.7L91.4,247.7z"></path> <path class="st0" d="M150.9,247.7L150.9,247.7L150.9,247.7z"></path> <path class="st0" d="M107.7,163.2L107.7,163.2L107.7,163.2z"></path> <path class="st0" d="M135.2,163.2L135.2,163.2L135.2,163.2z"></path> <path d="M142.9,200.5h-14.4c-1.3,0-2.4,1.1-2.4,2.4V217c0,1,0.5,1.7,1.3,2.2l7.2,3.5c0.3,0.2,0.7,0.2,1.1,0.2c0.4,0,0.8-0.1,1.1-0.3
 l7.2-3.8c0.8-0.4,1.3-1.3,1.3-2.1v-13.9C145.3,201.6,144.3,200.5,142.9,200.5z M140.5,215.3l-4.8,2.5l-4.8-2.3v-10.2h9.6V215.3z"></path> <path class="st0" d="M169.6,204.1L169.6,204.1L169.6,204.1z"></path> <path class="st0" d="M181.4,247.7L181.4,247.7L181.4,247.7z"></path> <path d="M231.3,193.7l-11.5-4.5c-0.7-1.3-1.7-3.6-2.1-5.8c5-4.6,8.2-11.7,8.2-19.6c0-0.5,0-1,0-1.4c0.5-0.2,1-0.4,1.3-0.8
 c0.3-0.3,0.6-0.6,0.8-0.9c0.1-0.1,0.1-0.1,0.2-0.2c1-1.5,1.2-3.6,1.2-5.1c0-12.9-11.2-23.4-24.9-23.4c-9.2,0-17.4,4.2-21.3,11.2
 c-3.7,6.6-3.7,12.9-3.6,17.1v1.1c0,1.2,0.5,2.1,1.3,2.7c0.6,0.4,1.2,0.6,2,0.6c0.2,7.9,3.5,14.9,8.6,19.2c-0.3,1.5-0.9,3.4-1.3,4.8
 l-12.9,5c-2.7,1.1-5,2.7-6.8,4.6c-0.5-9-6-16.8-14.5-20.1l-15.2-6c-0.8-1.4-2.6-4.9-3-8.3c6.4-5.8,10.6-15,10.6-25.2
 c0-0.8,0-1.5-0.1-2.4c0.8-0.2,1.4-0.5,2-1c0.4-0.3,0.7-0.7,0.9-1c0.1-0.2,0.2-0.3,0.3-0.5c1.1-1.8,1.2-4.2,1.2-6.1
 c0-16.3-14.2-29.6-31.7-29.6c-11.7,0-22,5.4-27,14.2c-4.8,8.4-4.7,16.5-4.7,21.8c0,0.5,0,0.9,0,1.4c0,1.7,1,2.6,1.4,2.9
 c0.9,0.6,1.8,0.7,2.9,0.6c0.1,10.5,4.5,19.8,11.3,25.5c-0.3,2.2-1.2,5.1-1.9,7l-17,6.7c-8.8,3.5-14.6,11.9-14.6,21.4v1.5
 c-0.3-0.2-0.7-0.4-1-0.6l-14.9-8.1v-6.2c7.5-5.1,12.6-14.6,12.6-25.5c0-9.6-3.8-18.3-10.5-23.8c0.4-1.4,0.7-3,0.7-4.4
 c0-8.8-6.9-15.8-15.4-15.8s-15.4,7.1-15.4,15.8c0,1.5,0.2,3,0.7,4.4c-6.6,5.5-10.5,14.3-10.5,23.8c0,10.2,4.5,19.2,11.2,24.5
 l-1.1,6.9l-15.4,8.3c-3.5,1.9-5.8,5.6-5.8,9.7v34.7c0,2.8,2.3,5.1,5.1,5.1h27.3h4.8h27.2c1,0,1.9-0.3,2.7-0.8
 c0.8,0.5,1.7,0.8,2.7,0.8h41.9h4.8h41.9c0.9,0,1.7-0.3,2.5-0.7c0.7,0.4,1.4,0.7,2.3,0.7h31.7h4.8h31.7c2.5,0,4.5-2,4.5-4.5v-34.9
 C242.9,203.2,238.3,196.5,231.3,193.7z M238.2,210.8v34.6h-8.5v-23.9c0-3.3,1.3-6.4,3.7-8.6l4.6-4.3
 C238.1,209.3,238.2,210,238.2,210.8z M206.7,245.3v-41.4l11.9-9.9l11,4.3c2.8,1.1,5,3,6.4,5.4l-6,5.7c-3.4,3.1-5.2,7.5-5.2,12.1
 v23.9L206.7,245.3L206.7,245.3L206.7,245.3z M170.5,245.3V245v-34.3c0-0.8,0.1-1.5,0.2-2.3l4.6,4.3c2.3,2.2,3.7,5.3,3.7,8.6v23.9
 H170.5z M123.5,245.3v-54.8l16-13.4l14.7,5.7c3.9,1.5,7.1,4.2,9,7.7l-8.2,7.8c-4.1,4-6.5,9.5-6.5,15.2v31.8L123.5,245.3L123.5,245.3
 L123.5,245.3z M118.7,245.3H93.8v-31.8c0-5.7-2.4-11.3-6.5-15.2l-8.2-7.8c2-3.5,5.2-6.2,9-7.7l14.7-5.7l16,13.4L118.7,245.3
 L118.7,245.3z M76.8,245.3c-0.2,0-0.3-0.1-0.3-0.3v-34.7v-10.6c0-1.5,0.2-3,0.5-4.3l6.9,6.6c3.2,3,5,7.2,5,11.7v31.8L76.8,245.3
 L76.8,245.3L76.8,245.3z M44.1,245.3v-38.6l10.5-9.3l13.8,7.5c0.8,0.4,1.4,1.1,2,1.7l-9.1,8.1c-3.7,3.4-5.9,8.2-5.9,13.2v17.4
 L44.1,245.3L44.1,245.3z M39.3,206.6v38.6H28v-17.4c0-5-2.2-9.8-5.9-13.2l-9.1-8.1c0.5-0.7,1.2-1.3,2-1.7l13.8-7.5L39.3,206.6z
 M12.1,245.3c-0.2,0-0.3-0.1-0.3-0.3v-33l7.2,6.4c2.8,2.4,4.3,6,4.3,9.7v17.4L12.1,245.3L12.1,245.3z M10.8,207.9L10.8,207.9
 L10.8,207.9L10.8,207.9z M32.7,134.1c-0.1-0.5-0.1-1.1-0.1-1.5c0-6.1,4.8-11,10.6-11s10.6,4.9,10.6,11c0,0.5,0,1.1-0.1,1.5
 c-0.1,0-0.1-0.1-0.2-0.1c-0.1-0.1-0.3-0.1-0.4-0.2c-0.4-0.2-0.8-0.4-1.1-0.5c-0.2-0.1-0.3-0.1-0.5-0.2c-0.4-0.2-0.8-0.3-1.2-0.4
 c-0.1,0-0.3-0.1-0.4-0.1c-0.5-0.2-1.1-0.3-1.5-0.5c-0.1,0-0.2,0-0.3-0.1c-0.4-0.1-0.9-0.2-1.2-0.3c-0.2,0-0.4-0.1-0.5-0.1
 c-0.4-0.1-0.8-0.1-1.2-0.1c-0.2,0-0.3,0-0.5,0c-0.6,0-1.1-0.1-1.6-0.1c-0.6,0-1.1,0-1.6,0.1c-0.2,0-0.3,0-0.5,0
 c-0.4,0-0.8,0.1-1.2,0.1c-0.2,0-0.4,0.1-0.5,0.1c-0.4,0.1-0.9,0.2-1.2,0.3c-0.1,0-0.2,0-0.3,0.1c-0.5,0.1-1.1,0.3-1.5,0.5
 c-0.1,0-0.3,0.1-0.4,0.2c-0.4,0.1-0.8,0.3-1.2,0.4c-0.2,0.1-0.3,0.1-0.5,0.2c-0.4,0.2-0.8,0.3-1.1,0.5c-0.1,0.1-0.3,0.1-0.4,0.2
 C32.8,134,32.7,134.1,32.7,134.1z M32.6,139.8c3.2-2.3,6.8-3.6,10.6-3.6c3.7,0,7.4,1.3,10.6,3.6c5.7,4.2,9.2,11,9.8,18.8
 c-13.8,0.6-23.1-2.4-25.1-8.2c-0.7-1.9-2.3-1.8-2.7-1.8c-0.6,0.1-1.9,0.5-2.1,2.5v0.2c-0.3,3.3-6.1,5.6-10.6,6.7
 C23.7,150.5,27.2,143.8,32.6,139.8z M36.5,156.3c3.4,3.7,10.1,7.2,23.8,7.2c1.1,0,2.2,0,3.4-0.1c-1.1,12.4-9.8,22.1-20.3,22.1
 c-10.7,0-19.5-9.9-20.3-22.6C26.4,162.2,33.1,160.4,36.5,156.3z M53.5,194.5L53.5,194.5L53.5,194.5z M41.7,202.4l-9-8l1-6.2
 c3,1.4,6.2,2.2,9.6,2.2c2.8,0,5.4-0.5,7.9-1.4v5.2L41.7,202.4z M30.3,194.5L30.3,194.5L30.3,194.5z M60.2,245.3v-17.4
 c0-3.7,1.5-7.1,4.3-9.7l7.2-6.4v33c0,0.2-0.2,0.3-0.3,0.3L60.2,245.3L60.2,245.3z M76.1,191.1L76.1,191.1L76.1,191.1L76.1,191.1z
 M148,128c0,1.3-0.1,2-0.2,2.6c-5.9,0.3-27.5,0.5-37.1-9.8c-0.9-1-2.4-1.1-3.4-0.1c-1,0.9-1.1,2.4-0.1,3.4
 c9.2,10,26.9,11.5,36.3,11.6c0.1,1.2,0.2,2.2,0.2,3.4c0,14.9-10.1,27-22.4,27s-22.4-12.1-22.4-27c0-0.5,0-1,0-1.4
 c2.5-1.5,6.3-4.5,7.6-5.6c1.1-0.9,1.2-2.3,0.4-3.4c-0.9-1.1-2.3-1.3-3.4-0.4c-2.9,2.3-6.6,5-7.7,5.5l-0.2,0.1
 c-0.5,0.2-0.9,0.4-1.2,0.5c0-5.1,0-12.1,4-19.2s13-11.8,22.8-11.8C135.9,103.1,148,114.2,148,128z M107.7,163.2L107.7,163.2
 L107.7,163.2L107.7,163.2z M107.2,174.6c0.5-1.3,1.5-4.2,2.2-7c3.5,1.9,7.5,3.1,11.6,3.1c4.4,0,8.6-1.3,12.4-3.5
 c0.7,2.6,1.7,5,2.6,6.6l-15,12.5L107.2,174.6z M135.2,163.2L135.2,163.2L135.2,163.2L135.2,163.2z M153.3,245.3v-31.8
 c0-4.4,1.8-8.7,5-11.7l6.9-6.6c0.4,1.4,0.5,2.9,0.5,4.3v11v34.3c0,0.2-0.2,0.3-0.3,0.3L153.3,245.3L153.3,245.3L153.3,245.3z
 M169.6,204.1L169.6,204.1L169.6,204.1L169.6,204.1z M178.6,209.3l-6-5.7c1.5-2.4,3.7-4.2,6.4-5.4l11-4.3l11.9,9.9v41.4h-18.1v-23.9
 C183.8,216.8,182,212.4,178.6,209.3z M224.4,155.5c0,0.7,0,1.3-0.1,1.6c-4.9,0.2-20.6,0-27.7-7.6l0,0c0,0,0,0-0.1,0
 c-0.6-0.6-1.3-0.8-2.1-0.7l0,0c-0.1,0-0.3,0.1-0.4,0.1l0,0c-0.1,0.1-0.3,0.1-0.4,0.2l0,0c-0.1,0.1-0.2,0.2-0.4,0.3
 c-0.4,0.4-0.6,0.8-0.7,1.3l0,0c0,0.1-1.2,4.8-4.6,7.2v-0.1l-3.6,1.5c-0.1,0-0.1,0-0.2,0.1c0-3.8,0.2-8.7,3.1-13.7
 c3.1-5.3,9.8-8.8,17.1-8.8C215.4,136.9,224.4,145.2,224.4,155.5z M187.6,163.5c4.5-1.4,7.1-5.3,8.3-8.2c7.4,5.5,18.5,6.6,25,6.7
 c0.1,0.7,0.1,1.3,0.1,1.9c0,11.2-7.5,20.3-16.8,20.3c-9.2,0-16.8-9.1-16.8-20.3C187.6,163.7,187.6,163.6,187.6,163.5z M204.3,188.9
 c3.3,0,6.4-0.9,9.2-2.4c0.5,1.5,1.1,3,1.6,4.1l-10.8,9.1l-10-8.4c0.4-1,1-2.6,1.4-4.4C198.4,188.2,201.2,188.9,204.3,188.9z
 M239,204.1L239,204.1L239,204.1L239,204.1z M25.7,247.7L25.7,247.7L25.7,247.7L25.7,247.7z M57.8,247.7L57.8,247.7L57.8,247.7
 L57.8,247.7z M91.4,247.7L91.4,247.7L91.4,247.7L91.4,247.7z M150.9,247.7L150.9,247.7L150.9,247.7L150.9,247.7z M181.4,247.7
 L181.4,247.7L181.4,247.7L181.4,247.7z M227.2,247.7L227.2,247.7L227.2,247.7L227.2,247.7z"></path> <path class="st0" d="M239,204.1L239,204.1L239,204.1z"></path> <path class="st0" d="M227.2,247.7L227.2,247.7L227.2,247.7z"></path> <g> <path d="M120.2,90.4c-24.3,0-44.1-19.9-44.1-44.4S95.8,1.6,120.2,1.6c24.3,0,44.1,19.9,44.1,44.4S144.4,90.4,120.2,90.4z
 M120.2,6.5c-21.7,0-39.3,17.8-39.3,39.6s17.6,39.6,39.3,39.6s39.3-17.8,39.3-39.6S141.8,6.5,120.2,6.5z M130.9,66.2
 c-0.9,0-1.8-0.3-2.6-0.9l-14.9-10.8c-1.2-0.9-1.8-2.2-1.8-3.6V22.4c0-2.4,2-4.4,4.4-4.4h8.1c2.4,0,4.4,2,4.4,4.4v22.1l9.7,7
 c1.9,1.4,2.4,4.2,1,6.2l-4.8,6.6C133.6,65.5,132.3,66.2,130.9,66.2z M116.5,50.6l14.4,10.5l4.3-6l-11.3-8.3V22.7h-7.3L116.5,50.6
 L116.5,50.6z M135.4,55.5L135.4,55.5L135.4,55.5z"></path> </g> </svg>