<svg version="1.1" id="Capa_1" xmlns="http://www.w3.org/2000/svg" xmlns:xlink="http://www.w3.org/1999/xlink" x="0px" y="0px" viewBox="0 0 250 250" style="enable-background:new 0 0 250 250;" xml:space="preserve"><style type="text/css">.st0{fill:none;} path {fill:#008ccf;}</style><path d="M208,100.2c-6.5,0-11.7,5.3-11.7,11.7v41.8L171,184c-0.4,0.5-0.9,0.7-1.5,0.8c-0.6,0-1.2-0.2-1.6-0.6l-3.7-3.7
 c-0.7-0.7-0.8-1.9-0.2-2.8l11-14.6c1.9-2.5,2.7-5.6,2.2-8.7c-0.4-3.1-2.1-5.8-4.6-7.7s-5.6-2.7-8.7-2.2c-3.1,0.4-5.8,2.1-7.7,4.6
 l-16.5,22.1c-5.1,6.9-7.9,15-7.9,23.6V227c0,3.9,3.2,7.1,7.1,7.1h37.9c3.2,0,6-2.1,6.8-5.2c0.5-2,1.4-3.8,2.5-5.3L216,185
 c2.3-2.9,3.6-6.5,3.6-10.2v-62.9C219.7,105.3,214.5,100.2,208,100.2z M214.7,174.8c0,2.6-0.9,5.1-2.5,7.1l-30,38.7
 c-1.6,2.1-2.7,4.5-3.4,7.1c-0.2,0.9-1.1,1.5-2,1.5h-37.9c-1.2,0-2.1-0.9-2.1-2.1v-32.2c0-7.5,2.4-14.6,6.9-20.6l16.6-22.1
 c1.1-1.4,2.6-2.4,4.4-2.6c0.3,0,0.6-0.1,1-0.1c1.4,0,2.8,0.5,4,1.3c1.4,1.1,2.4,2.6,2.6,4.4c0.3,1.8-0.2,3.5-1.3,5l-11,14.6
 c-2.1,2.8-1.8,6.8,0.7,9.3l3.7,3.7c1.4,1.4,3.3,2.1,5.3,2.1c2-0.1,3.9-1,5.1-2.5l26.4-31.7v-43.6c0-3.7,3-6.7,6.7-6.7
 c3.7,0,6.7,3,6.7,6.7L214.7,174.8L214.7,174.8z"></path> <path d="M93.9,149c-3.9-5.2-11.2-6.2-16.4-2.3c-2.5,1.9-4.1,4.6-4.6,7.7c-0.4,3.1,0.3,6.2,2.2,8.7l11,14.6c0.6,0.8,0.5,2-0.2,2.8
 l-3.7,3.7c-0.4,0.4-1,0.7-1.6,0.6c-0.6,0-1.1-0.3-1.5-0.8l-25.3-30.3V112c0-6.5-5.3-11.7-11.7-11.7s-11.7,5.3-11.7,11.7v62.9
 c0,3.7,1.3,7.3,3.5,10.2l30,38.7c1.2,1.5,2,3.3,2.6,5.4c0.8,3.1,3.6,5.2,6.8,5.2h37.9c3.9,0,7.1-3.2,7.1-7.1V195
 c0-8.6-2.7-16.7-7.9-23.6L93.9,149z M113.4,227c0,1.2-0.9,2.1-2.1,2.1H73.4c-0.9,0-1.8-0.6-2-1.5c-0.7-2.7-1.8-5.1-3.4-7.2l-30-38.7
 c-1.6-2-2.5-4.5-2.5-7.1v-62.9c0-3.7,3-6.7,6.7-6.7s6.7,3,6.7,6.7v43.6L75.3,187c1.3,1.5,3.1,2.5,5.1,2.6s4-0.7,5.4-2.1l3.7-3.7
 c2.5-2.5,2.8-6.5,0.7-9.3l-11-14.6c-2.2-3-1.6-7.2,1.3-9.4c3-2.2,7.2-1.6,9.4,1.3l16.6,22.1c4.5,6,6.9,13.1,6.9,20.6V227L113.4,227z
 "></path> <path class="st0" d="M133.5,70.9l-15.4-4.7c-3-0.9-5-3.9-5-7.2c0-4.1,3.1-7.5,6.9-7.5h9.6c1.9,0,3.9,0.5,5.5,1.5
 c0.4,0.2,0.9,0.3,1.2,0l2.6-2.4c0.2-0.2,0.3-0.4,0.3-0.7s-0.2-0.6-0.5-0.8c-2.5-1.7-5.5-2.7-8.6-2.8h-2.4v-5.9
 c0-0.5-0.4-0.9-0.9-0.9h-3.4c-0.5,0-0.9,0.4-0.9,0.9v5.9H120c-6.6,0-12,5.7-12,12.7c0,5.6,3.6,10.7,8.7,12.2l15.4,4.7
 c3,0.9,5,3.9,5,7.2c0,4.1-3.1,7.5-6.9,7.5h-9.6c-1.9,0-3.9-0.5-5.5-1.5c-0.2-0.1-0.4-0.2-0.7-0.2c-0.2,0-0.4,0.1-0.5,0.2l-2.6,2.4
 c-0.2,0.2-0.3,0.4-0.3,0.7s0.2,0.6,0.5,0.8c2.5,1.7,5.5,2.7,8.6,2.8l2.4,0.1v5.9c0,0.5,0.4,0.9,0.9,0.9h3.4c0.5,0,0.9-0.4,0.9-0.9
 v-5.9h2.5c6.7,0,12-5.7,12-12.7l0,0C142.2,77.4,138.6,72.4,133.5,70.9z"></path> <path d="M125.1,15.7c-30.5,0-55.4,24.8-55.4,55.4s24.8,55.4,55.4,55.4c30.5,0,55.4-24.8,55.4-55.4S155.6,15.7,125.1,15.7z
 M125.1,121.5c-27.8,0-50.4-22.6-50.4-50.4s22.6-50.4,50.4-50.4s50.4,22.6,50.4,50.4S152.9,121.5,125.1,121.5z"></path> <path d="M135,66.1l-15.3-4.7c-0.9-0.3-1.5-1.3-1.5-2.5c0-1.3,0.9-2.5,1.9-2.5h9.6c1.1,0,2.1,0.3,3,0.8c2.4,1.4,5.3,1.1,7.2-0.7
 l2.5-2.4c1.3-1.2,2-2.9,1.9-4.7c-0.1-1.8-1.1-3.5-2.7-4.6c-2.7-1.8-5.7-2.9-8.8-3.4v-1.2c0-3.3-2.7-5.9-5.9-5.9h-3.4
 c-3.3,0-5.9,2.7-5.9,5.9v1.1c-8.2,1.3-14.5,8.7-14.5,17.5c0,7.8,5,14.8,12.3,17l15.4,4.7c0.9,0.3,1.5,1.3,1.5,2.5
 c0,1.3-0.9,2.5-1.9,2.5h-9.6c-1.1,0-2.1-0.3-3-0.8c-2.4-1.4-5.3-1.1-7.2,0.7l-2.5,2.4c-1.3,1.2-2,2.9-1.9,4.7s1.1,3.5,2.7,4.6
 c2.7,1.8,5.7,2.9,8.8,3.4v1.2c0,3.3,2.7,5.9,5.9,5.9h3.4c3.3,0,5.9-2.7,5.9-5.9v-1.1c8.2-1.3,14.5-8.7,14.5-17.5
 C147.2,75.2,142.2,68.2,135,66.1z M142.2,83.2c0,7-5.4,12.7-12,12.7h-2.5v5.9c0,0.5-0.4,0.9-0.9,0.9h-3.4c-0.5,0-0.9-0.4-0.9-0.9
 v-5.9l-2.4-0.1c-3.1-0.1-6-1.1-8.6-2.8c-0.3-0.2-0.4-0.5-0.5-0.8c0-0.3,0.1-0.5,0.3-0.7l2.6-2.4c0.2-0.1,0.3-0.2,0.5-0.2
 s0.5,0.1,0.7,0.2c1.7,1,3.6,1.5,5.5,1.5h9.6c3.8,0,6.9-3.4,6.9-7.5c0-3.3-2.1-6.3-5-7.2l-15.4-4.6c-5.1-1.6-8.7-6.6-8.7-12.2
 c0-7,5.4-12.7,12-12.7h2.5v-5.9c0-0.5,0.4-0.9,0.9-0.9h3.4c0.5,0,0.9,0.4,0.9,0.9v5.8l2.4,0.1c3.1,0.1,6,1.1,8.6,2.8
 c0.3,0.2,0.5,0.5,0.5,0.8s-0.1,0.5-0.3,0.7l-2.6,2.4c-0.3,0.3-0.9,0.2-1.2,0c-1.7-1-3.6-1.5-5.5-1.5H120c-3.8,0-6.9,3.4-6.9,7.5
 c0,3.3,2.1,6.3,5,7.2l15.4,4.7C138.6,72.4,142.2,77.4,142.2,83.2L142.2,83.2z"></path> </svg>