<?xml version="1.0" encoding="UTF-8"?> <svg xmlns="http://www.w3.org/2000/svg" xmlns:xlink="http://www.w3.org/1999/xlink" viewBox="0 0 373.8 329.9"><style> .st0{fill:#c5dce2}.st1{enable-background:new}.st2{fill:#fff}.st3{fill:#a1b8c6}.st4{fill:url(#SVGID_1_)}.st5{fill:url(#SVGID_2_)}.st6{fill:url(#SVGID_3_)}.st7{fill:url(#SVGID_4_)}.st8{fill:url(#SVGID_5_)}.st9{fill:url(#SVGID_6_)}.st10{fill:url(#SVGID_7_)}.st11{fill:url(#SVGID_8_)}.st12{fill:#061f30}.st13{fill:#5e5f60}.st14{fill:#f8fcff}.st15{fill:#dae1e5}.st16{fill:#0d2642}.st17{fill:#ffc6b4}.st18{fill:#e09b8e}.st19{fill:#3cbfbd}.st20{fill:#37a59f}.st21{fill:#232323}.st22{fill:#2f3345}.st23{fill:#acc9ef}.st24{fill:#c7e3fe}.st25{fill:#a8cbf1}.st26{fill:#313d73}.st27{fill:#d8eefe}.st28,.st29{clip-path:url(#SVGID_10_);enable-background:new}.st29{clip-path:url(#SVGID_12_)}.st30{fill:#f2f2f2}.st31{fill:#77b2ff}.st32,.st33{clip-path:url(#SVGID_14_);enable-background:new}.st33{clip-path:url(#SVGID_16_)}.st34{fill:#efafac}.st35{fill:#2b2b2b}.st36{fill:#7759a6}.st37{fill:#635089}.st38{fill:#4c403e}.st39{fill:#3e3e60}.st40{fill:#d8a0a0}.st41{fill:#ffb1b1}.st42{fill:#c27770}.st43{fill:#785f5f}.st44{fill:#003263}.st45{fill:#002544}.st46{fill:#ba654b}.st47{fill:#0a73b2}.st48{fill:#9e9e9e} </style><g id="OBJECTS"><ellipse cx="66.8" cy="311.1" class="st0" rx="32" ry="18.6"></ellipse><ellipse cx="27.3" cy="185.5" class="st0" rx="24.5" ry="14.3"></ellipse><path d="M168 137.9c2 1.2 2 3.1 0 4.3L139 159c-2 1.2-5.3 1.2-7.4 0l-48.2-27.8c-2-1.2-2-3.1 0-4.3l29-16.8c2-1.2 5.3-1.2 7.4 0l48.2 27.8z" class="st0"></path><ellipse cx="180.3" cy="310.6" class="st0" rx="32" ry="18.6"></ellipse><path d="M82.1 232.4v5.1c0 1.7 1 3.3 3.1 4.5l148 86c4.8 2.8 13.4 2.3 19.3-1.1l89.4-51.6v-5.1 5.1c3.3-1.9 5-4.3 5-6.6v-1.1c.5 0 .9-.1 1.3-.3l.4-.2c.3-.2.5-.4.5-.7v-5.1c0-.2-.2-.5-.5-.7l-152.2-88.5c-.6-.3-1.6-.4-2.2 0l-.4.3s-.1 0-.1.1l-.1.1c.1-.1.1-.1.2-.1-4.5-2.1-11.9-1.4-17.1 1.6l-89.4 51.6c-3.6 2.1-5.4 4.8-5 7.3-.2-.2-.2-.4-.2-.6zm263.3 34.9s0-.1 0 0c0-.1 0 0 0 0zm-152.1-94.5c.1-.1.1-.1 0 0zm-49.2 88.8c.2-.1.4-.3.6-.4-.2.1-.4.3-.6.4zm-.8 1.5" class="st0"></path><g class="st1"><path d="M196.3 118.9l-6.6 3.9c.2 3.1 1.7 6.6 3.8 9.3l6.6-3.9c-2.1-2.7-3.6-6.1-3.8-9.3z" class="st2"></path><path d="M200.1 128.2l-6.6 3.9c1.2 1.5 2.6 2.8 4.1 3.7l6.6-3.9c-1.5-.8-2.9-2.1-4.1-3.7zM196.3 118.9v-.8l-6.6 3.9v.8l6.6-3.9z" class="st2"></path><path d="M222.7 137.9l6.7-3.9-27.2-15.6-6.6 3.8z" class="st3"></path><path d="M349.3 223.3l6.6-3.8-151.7-87.6-6.6 3.9z" class="st2"></path><path d="M276.9 168c0-1.1.4-1.8 1-2.2l-6.6 3.9c-.6.4-1 1.1-1 2.2 0 2.2 1.5 4.8 3.4 5.9l6.6-3.9c-1.9-1.1-3.4-3.7-3.4-5.9zM282.7 174.1c-.6.4-1.5.3-2.4-.2l-6.6 3.9c.9.5 1.8.6 2.4.2 2-1.2 4.6-2.7 6.6-3.9z" class="st3"></path><path d="M276.1 178l6.6-3.9c.6-.4 1-1.1 1-2.2 0-2.2-1.5-4.8-3.4-5.9l-6.6 3.9c1.9 1.1 3.4 3.7 3.4 5.9 0 1.1-.4 1.8-1 2.2zM277.9 165.8l-6.6 3.9c.6-.4 1.5-.3 2.4.2l6.6-3.9c-.9-.5-1.8-.5-2.4-.2z" class="st2"></path><path d="M195.8 41.3l6.7-3.8.1-27.9-6.7 3.8z" class="st3"></path><path d="M196.6 7.7c0-2.5.9-4.3 2.3-5.1l-6.6 3.9c-1.4.8-2.3 2.6-2.3 5.1 1.9-1.2 4.6-2.7 6.6-3.9z" class="st2"></path><linearGradient id="SVGID_1_" x1="157.1285" x2="168.5268" y1="12.874" y2="12.874" gradientTransform="matrix(-1 0 0 1 364.4551 0)" gradientUnits="userSpaceOnUse"><stop offset="0" stop-color="#00eaff"></stop><stop offset="1" stop-color="#f6ffff"></stop></linearGradient><path d="M200.7 16.2l6.6-3.9-4.7-2.7-6.7 3.8z" class="st4"></path><linearGradient id="SVGID_2_" x1="118.0092" x2="163.7547" y1="25.5444" y2="25.5444" gradientTransform="matrix(-1 0 0 1 364.4551 0)" gradientUnits="userSpaceOnUse"><stop offset="0" stop-color="#f6ffff"></stop><stop offset="1" stop-color="#00eaff"></stop></linearGradient><path d="M239.8 38.8l6.6-3.9-39.1-22.6-6.6 3.9z" class="st5"></path><path d="M361.6 220c-1.5.8-3.5.7-5.7-.6l-6.6 3.9c2.2 1.3 4.2 1.4 5.7.6 2.1-1.3 4.3-2.6 6.6-3.9z" class="st2"></path><path d="M355 223.9l6.6-3.9c1.4-.8-.7-.9-.7-3.4l-3.6 2.1c0 2.6-.9 4.3-2.3 5.2z" class="st3"></path><linearGradient id="SVGID_3_" x1="5.9814" x2="12.6763" y1="198.3441" y2="198.3441" gradientTransform="matrix(-1 0 0 1 364.4551 0)" gradientUnits="userSpaceOnUse"><stop offset="0" stop-color="#00eaff"></stop><stop offset="1" stop-color="#f6ffff"></stop></linearGradient><path d="M351.8 212.4l6.6-3.9.1-24.2-6.7 3.9z" class="st6"></path><linearGradient id="SVGID_4_" x1="79.3401" x2="124.6355" y1="47.9999" y2="47.9999" gradientTransform="matrix(-1 0 0 1 364.4551 0)" gradientUnits="userSpaceOnUse"><stop offset="0" stop-color="#00eaff"></stop><stop offset="1" stop-color="#f6ffff"></stop></linearGradient><path d="M278.5 61.1l6.6-3.9-38.7-22.3-6.6 3.9z" class="st7"></path><linearGradient id="SVGID_5_" x1="5.8498" x2="12.6076" y1="163.0288" y2="163.0288" gradientTransform="matrix(-1 0 0 1 364.4551 0)" gradientUnits="userSpaceOnUse"><stop offset="0" stop-color="#f6ffff"></stop><stop offset="1" stop-color="#00eaff"></stop></linearGradient><path d="M351.8 188.2l6.7-3.9.1-46.4-6.6 3.9z" class="st8"></path><linearGradient id="SVGID_6_" x1="38.9663" x2="85.9664" y1="70.8177" y2="70.8177" gradientTransform="matrix(-1 0 0 1 364.4551 0)" gradientUnits="userSpaceOnUse"><stop offset="0" stop-color="#f6ffff"></stop><stop offset="1" stop-color="#00eaff"></stop></linearGradient><path d="M318.9 84.4l6.6-3.9-40.4-23.3-6.6 3.9z" class="st9"></path><linearGradient id="SVGID_7_" x1="5.7416" x2="45.5925" y1="92.0637" y2="92.0637" gradientTransform="matrix(-1 0 0 1 364.4551 0)" gradientUnits="userSpaceOnUse"><stop offset="0" stop-color="#00eaff"></stop><stop offset="1" stop-color="#f6ffff"></stop></linearGradient><path d="M352.1 103.6l6.6-3.9-33.2-19.2-6.6 3.9z" class="st10"></path><linearGradient id="SVGID_8_" x1="5.7416" x2="12.4761" y1="120.7437" y2="120.7437" gradientTransform="matrix(-1 0 0 1 364.4551 0)" gradientUnits="userSpaceOnUse"><stop offset="0" stop-color="#00eaff"></stop><stop offset="1" stop-color="#f6ffff"></stop></linearGradient><path d="M352 141.8l6.6-3.9.1-38.2-6.6 3.9z" class="st11"></path><path d="M189.6 122c0 5.1 3.6 11.3 8 13.8l75.2 43.4 76.4 44.1c4.4 2.5 8 .5 8-4.6l.3-110.4c0-1.6-.3-3.3-1-4.9-1.4-3.6-4-7.1-7-8.9L198 7c-4.4-2.5-8-.5-8 4.6l-.4 110.4zm6 .2l.1-31.2.1-49.7.1-27.9 4.8 2.8 39.1 22.6 38.7 22.3 40.4 23.3 33.2 19.2-.1 38.2-.1 46.4-.1 24.2-17.6-10.2-39.1-22.6-20.3-11.6-8.8-5.1-43.3-25-27.1-15.7z" class="st12"></path><path d="M198.9 2.6l-6.6 3.9c1.5-.8 3.5-.7 5.7.5l3.6-2.1c-2.2-1.3-1.2-3.1-2.7-2.3z" class="st3"></path><path d="M361.6 220c-1.3.7-2.5 1.5-3.8 2.2l-2.1 1.2c-.1.1-.3.2-.4.2-.1.1-.2.2-.4.2 2-1.1 4.7-2.6 6.7-3.8z" class="st2"></path><path d="M349.6 94.6l3.7-2.2L201.6 4.9 198 7zM357.6 108.4l3.6-2.1c0-5.1-3.6-11.3-8-13.8l-3.6 2.1c4.4 2.5 8 8.7 8 13.8z" class="st3"></path><path d="M357.3 218.8l3.6-2.1.3-110.4-3.6 2.1z" class="st3"></path><path d="M186.6 120.7c0 6.9 4.8 15.2 10.8 18.7L350 227.5c6 3.5 10.8.7 10.9-6.2l.3-110.9c0-6.9-4.8-15.2-10.8-18.7L197.7 3.6c-6-3.5-10.8-.7-10.9 6.2l-.2 110.9zm11 15.1c-4.4-2.5-8-8.8-8-13.8l.4-110.4c0-5.1 3.6-7.1 8-4.6l151.7 87.6c4.4 2.5 8 8.8 8 13.8l-.3 110.4c0 5.1-3.6 7.1-8 4.6l-151.8-87.6" class="st2"></path><g><path d="M196.3 92.2v25.9l-.7.4.1-27.4z" class="st2"></path></g><g><path d="M202.3 102.5l-.1 15.9-6.6 3.8.1-31.1z" class="st3"></path></g><path d="M351.8 204.7v-16.5l.1-15.3.1-31.1v-15.3l.1-22.9-20-11.5-13.2-7.7-27.1-15.6-13.3-7.7-25.4-14.7-13.3-7.6-25.8-15-13.3-7.6-4.8-2.8-.1 27.9-.1 48.8-.1 32.1 27.1 15.7 43.3 25 29.1 16.8 39.1 22.5 17.6 10.2z" class="st13"></path><g><path d="M357.7 228.2l3.6-2.1c1.9-1.1 3.1-3.5 3.2-6.9l-3.6 2.1c-.1 3.4-1.3 5.8-3.2 6.9z" class="st3"></path></g><g><path d="M361.1 110.4l3.6-2.1c0-6.9-4.8-15.2-10.8-18.7l-3.6 2.1c6 3.5 10.9 11.8 10.8 18.7z" class="st3"></path></g><g><path d="M193.6.7L190 2.8c2-1.1 4.7-1 7.7.8l3.6-2.1c-3-1.8-5.7-1.9-7.7-.8z" class="st3"></path></g><g><path d="M360.8 221.3l3.7-2.1.3-110.9-3.7 2.1z" class="st3"></path></g><g><path d="M350.4 91.7l3.6-2.1L201.4 1.5l-3.7 2.1z" class="st3"></path></g></g><g class="st1"><path d="M196.7 146.1c0-.2.2-.5.5-.7v-5.1c-.3.2-.5.4-.5.7v5.1z" class="st14"></path><path d="M196.7 140.9v5.1c0 .2.2.5.5.7v-5.1c-.4-.2-.5-.4-.5-.7zM85.6 200.1v5.1c0 1.7 1 3.3 3.1 4.5v-5.1c-2.1-1.2-3.1-2.8-3.1-4.5z" class="st3"></path><path d="M176.2 221.3v-5.1c-1.6-.9-4.3-.9-6 .2v5.1c1.7-1.1 4.4-1.1 6-.2zM152.5 226.5v5.2l17.7-10.3v-5.1zM148.2 229v5.1l4.3-2.4v-5.2z" class="st14"></path><path d="M352.5 234.3v-5.1c0 .2-.2.5-.5.7v5.1c.3-.2.5-.4.5-.7zM197.1 141.6v5.1l152.2 88.5v-5.1zM351.6 230.1v5.1l.4-.2v-5.2z" class="st3"></path><path d="M146.8 236c0-.7.5-1.4 1.4-1.9V229c-.9.5-1.4 1.2-1.4 1.9v5.1z" class="st14"></path><path d="M197.1 140.3c-.6.4-.6 1 0 1.3l152.2 88.5c.2.1.6.2.9.3.5 0 1 0 1.4-.3l.4-.2c.6-.4.6-1 0-1.3l-152.2-88.5c-.6-.3-1.6-.4-2.2 0l-.5.2z" class="st3"></path><path d="M349.3 230.1v5.1c.2.1.6.2.9.3.5 0 1 0 1.4-.3v-5.1c-.4.2-.9.3-1.4.3l-.9-.3z" class="st3"></path><path d="M146.8 230.9v5.1c0 .6.4 1.2 1.1 1.6v-5.1c-.7-.5-1.1-1-1.1-1.6z" class="st15"></path><path d="M345.3 243.1c3.3-1.9 5-4.3 5-6.6v-5.1c0 2.3-1.7 4.7-5 6.6v5.1z" class="st3"></path><path d="M216.3 245.5v-5.1c0-.6-.4-1.2-1.1-1.6v5.1c.8.5 1.1 1 1.1 1.6z" class="st14"></path><path d="M216.3 245.5v-5.1c0 .7-.5 1.4-1.4 1.9v5.1c1-.5 1.4-1.2 1.4-1.9z" class="st3"></path><path d="M176.2 216.1v5.2l39 22.6v-5.1z" class="st14"></path><path d="M152.5 226.5v5.2l22.3 13v-5.2z" class="st3"></path><path d="M167 243.6l.1 5.1 7.4-4.3v-5.1z" class="st15"></path><path d="M167.8 244v5.1l7.4-4.2v-5.2z" class="st3"></path><path d="M174.5 244.4l.4.2-.4-.2zm0-5.1l.4.2-.4-.2zM174.8 239.5v5.2l.4.2v-5.2zM148.2 229c-1.7 1-1.9 2.6-.3 3.5l19.1 11.1 7.4-4.3.4.2-22.4-13-4.2 2.5z" class="st15"></path><path d="M147.9 232.5v5.1l19.2 11.1-.1-5.1z" class="st15"></path><path d="M167 243.6l.1 5.1.7.4V244zM174.8 239.5v5.2l22.4 13v-5.2z" class="st3"></path><path d="M167 243.6l.8.4 7.4-4.3-.4-.2-.3-.2zM197.2 252.5v5.2l17.7-10.3v-5.1z" class="st3"></path><path d="M152.5 226.5l22.4 13 22.4 13 17.7-10.2c1.7-1 1.9-2.6.3-3.5l-39-22.7c-1.6-.9-4.3-.9-6 .2l-17.8 10.2z" class="st3"></path><path d="M192.9 255l.1 5.1 4.2-2.4v-5.2zM167.8 244v5.1l19.1 11.2v-5.2zM186.9 255.1v5.1c1.6.9 4.3.9 6-.2v-5.1c-1.7 1.1-4.4 1.1-6 .2z" class="st15"></path><path d="M174.8 239.5l.4.2-7.4 4.3 19.1 11.1c1.6.9 4.3.9 6-.2l4.3-2.5-22.4-12.9z" class="st15"></path><path d="M255.9 289.6v5.1l89.4-51.6V238zM88.6 204.6l.1 5.2 148 86v-5.1z" class="st3"></path><path d="M180 141.9c5.2-3 12.7-3.7 17.1-1.6-.6.4-.6 1 0 1.3l152.2 88.5c.2.1.6.2.9.3.7 2.5-1 5.4-4.9 7.7l-89.4 51.6c-5.9 3.4-14.5 3.9-19.3 1.1l-148-86c-4.8-2.8-3.9-7.8 2-11.1l89.4-51.8zm-13 101.7l.7.4 19.1 11.1c1.6.9 4.3.9 6-.2l4.3-2.5 17.7-10.2c1.7-1 1.9-2.6.3-3.5l-39-22.7c-1.6-.9-4.3-.9-6 .2l-17.7 10.2-4.3 2.5c-1.7 1-1.9 2.6-.3 3.5l19.2 11.2" class="st14"></path><path d="M236.7 290.7v5.1c4.8 2.8 13.4 2.3 19.3-1.1v-5.1c-5.9 3.4-14.5 3.8-19.3 1.1z" class="st3"></path></g><g class="st1"><path d="M179.8 151v-.9c0 .2.1.4.4.6v.9c-.3-.1-.4-.4-.4-.6zM193.4 152v.9c0 .2-.1.4-.4.6v-.9c.3-.2.4-.4.4-.6zM193 152.6v.9l-.5.2v-.9zM192.5 152.8v.9-.8zM192.5 152.9v.8l-3.3 1.9v-.8z" class="st3"></path><path d="M187.2 154.8v.9l-7-4.1v-.8zM189.2 154.8v.9c-.6.3-1.5.3-2 0v-.9c.5.3 1.4.3 2 0z" class="st3"></path><path d="M193 151.4c.6.3.6.8 0 1.2l-.4.2h-.1l-3.3 1.9c-.6.3-1.5.3-2 0l-7-4c-.6-.3-.6-.9 0-1.2l3.8-2.2c.6-.3 1.5-.3 2 0l7 4.1z" class="st15"></path></g><g class="st1"><path d="M191.9 157.5v-.9c0-.2.1-.4.4-.5v.9c-.3.1-.4.3-.4.5zM199.3 161.2v.9l-7-4.1v-.8z" class="st3"></path><path d="M198.8 161.5v.9l-7-4.1v-.8z" class="st3"></path><path d="M191.9 157.5v-.9c0 .2.1.4.4.6v.9c-.3-.2-.4-.4-.4-.6zM191.4 157.8v-.9c0 .2.1.4.4.6v.9c-.3-.2-.4-.4-.4-.6zM205 158.7v.9c0 .2-.1.4-.4.6v-.9c.3-.1.4-.4.4-.6zM204.6 159.3v.9l-3.3 1.9v-.9z" class="st3"></path><path d="M201.3 161.2v.9c-.6.3-1.5.3-2 0v-.9c.6.3 1.5.3 2 0z" class="st3"></path><path d="M201.3 161.2v.9l-.5.3v-.9z" class="st3"></path><path d="M204.6 158.1c.6.3.6.9 0 1.2l-3.3 1.9c-.6.3-1.5.3-2 0l-7-4c-.5-.3-.6-.8-.1-1.1h.1l3.3-1.9c.6-.3 1.5-.3 2 0l7 3.9z" class="st15"></path><path d="M201.3 161.2l-.5.3c-.6.3-1.5.3-2 0l-7-4c-.6-.3-.6-.9 0-1.2l.4-.2c-.5.3-.5.8.1 1.1l7 4c.6.3 1.5.3 2 0z" class="st3"></path><path d="M200.8 161.5v.9c-.6.3-1.5.3-2 0v-.9c.6.3 1.5.3 2 0z" class="st3"></path></g><g class="st1"><path d="M204.3 164.6v-.9c0-.2.1-.4.4-.5v.9c-.3.1-.4.3-.4.5zM211.7 168.4v.9l-7-4.1v-.8z" class="st3"></path><path d="M211.2 168.7v.8l-7-4v-.8z" class="st3"></path><path d="M204.3 164.6v-.9c0 .2.1.4.4.6v.9c-.2-.1-.4-.4-.4-.6zM203.8 164.9v-.9c0 .2.1.4.4.6v.9c-.2-.1-.4-.4-.4-.6zM217.5 165.9v.9c0 .2-.1.4-.4.6v-.9c.2-.2.4-.4.4-.6zM217 166.5v.8l-3.2 2v-.9zM213.8 168.4v.9c-.6.3-1.5.3-2 0v-.9c.5.3 1.4.3 2 0z" class="st3"></path><path d="M213.8 168.4v.9l-.5.2v-.8z" class="st3"></path><path d="M217 165.3c.6.3.6.9 0 1.2l-3.3 1.9c-.6.3-1.5.3-2 0l-7-4c-.5-.3-.6-.8-.1-1.1h.1l3.3-1.9c.6-.3 1.5-.3 2 0l7 3.9z" class="st15"></path><path d="M213.8 168.4l-.5.3c-.6.3-1.5.3-2 0l-7-4c-.6-.3-.6-.9 0-1.2l.4-.2c-.5.3-.5.8.1 1.1l7 4c.5.3 1.4.3 2 0z" class="st3"></path><path d="M213.3 168.7v.9c-.6.3-1.5.3-2 0v-.9c.5.3 1.4.3 2 0z" class="st3"></path></g><g class="st1"><path d="M215.5 171.6v-.9c0 .2.1.4.4.6v.9c-.3-.1-.4-.3-.4-.6zM229.1 172.6v.9c0 .2-.1.4-.4.6v-.9c.3-.2.4-.4.4-.6zM228.7 173.2v.9l-.5.2v-.8zM228.2 173.5v.9-.9zM228.2 173.5v.9l-3.3 1.9v-.9zM222.9 175.4v.9l-7-4.1v-.8z" class="st3"></path><path d="M224.9 175.4v.9c-.6.3-1.5.3-2 0v-.9c.5.3 1.4.3 2 0z" class="st3"></path><path d="M228.7 172c.6.3.6.8 0 1.2l-.4.2h-.1l-3.3 1.9c-.6.3-1.5.3-2 0l-7-4c-.6-.3-.6-.9 0-1.2l3.8-2.2c.6-.3 1.5-.3 2 0l7 4.1z" class="st15"></path></g><g class="st1"><path d="M228 178.3v-.9c0-.2.1-.4.4-.5v.9c-.3.1-.4.3-.4.5zM235.4 182.1v.8l-7-4v-.9z" class="st3"></path><path d="M234.9 182.4v.8l-7-4v-.9z" class="st3"></path><path d="M228 178.3v-.9c0 .2.1.4.4.6v.9c-.3-.2-.4-.4-.4-.6zM227.5 178.6v-.9c0 .2.1.4.4.6v.9c-.3-.2-.4-.4-.4-.6zM241.1 179.6v.9c0 .2-.1.4-.4.6v-.9c.3-.2.4-.4.4-.6zM240.7 180.2v.8l-3.3 1.9v-.8z" class="st3"></path><path d="M237.4 182.1v.9c-.6.3-1.5.3-2 0v-.9c.5.3 1.5.3 2 0z" class="st3"></path><path d="M237.4 182.1v.8l-.5.3v-.9z" class="st3"></path><path d="M240.7 179c.6.3.6.9 0 1.2l-3.3 1.9c-.6.3-1.5.3-2 0l-7-4c-.5-.3-.6-.8-.1-1.1h.1l3.3-1.9c.6-.3 1.5-.3 2 0l7 3.9z" class="st15"></path><path d="M237.4 182.1l-.5.3c-.6.3-1.5.3-2 0l-7-4c-.6-.3-.6-.9 0-1.2l.4-.2c-.5.3-.5.8.1 1.1l7 4c.5.3 1.5.3 2 0z" class="st3"></path><path d="M236.9 182.3v.9c-.6.3-1.5.3-2 0v-.9c.6.4 1.5.4 2 0z" class="st3"></path></g><g class="st1"><path d="M239.6 185v-.9c0-.2.1-.4.4-.6v.9c-.2.2-.4.4-.4.6zM247 188.8v.8l-6.9-4v-.8z" class="st3"></path><path d="M246.5 189.1v.8l-6.9-4v-.9z" class="st3"></path><path d="M239.6 185v-.9c0 .2.1.4.4.6v.9c-.2-.2-.4-.4-.4-.6zM239.1 185.3v-.9c0 .2.1.4.4.6v.9c-.2-.2-.4-.4-.4-.6zM252.8 186.3v.9c0 .2-.1.4-.4.6v-.9c.2-.2.4-.4.4-.6zM252.4 186.9v.8l-3.3 1.9v-.8zM249.1 188.8v.9c-.6.3-1.5.3-2 0v-.9c.5.3 1.4.3 2 0z" class="st3"></path><path d="M249.1 188.8v.8l-.5.3v-.8z" class="st3"></path><path d="M252.3 185.7c.6.3.6.9 0 1.2l-3.3 1.9c-.6.3-1.5.3-2 0l-7-4c-.6-.3-.6-.9 0-1.2l3.3-1.9c.6-.3 1.5-.3 2 0l7 4z" class="st15"></path><path d="M249.1 188.8l-.5.3c-.6.3-1.5.3-2 0l-7-4c-.6-.3-.6-.9 0-1.2l.5-.3c-.6.3-.6.9 0 1.2l7 4c.5.3 1.4.3 2 0z" class="st3"></path><path d="M248.6 189.1v.9c-.6.3-1.5.3-2 0v-.9c.5.3 1.4.3 2 0z" class="st3"></path></g><g class="st1"><path d="M251.6 192.5v-.9c0 .2.1.4.4.6v.9c-.3-.2-.4-.4-.4-.6zM265.2 193.5v.9c0 .2-.1.4-.4.6v-.9c.2-.2.4-.4.4-.6zM264.8 194v.9l-.5.3v-.9zM264.3 194.3v.9-.9zM264.3 194.3v.9l-3.3 1.9v-.9zM259 196.2v.9l-7-4v-.9zM261 196.2v.9c-.6.3-1.5.3-2 0v-.9c.5.4 1.4.4 2 0z" class="st3"></path><path d="M264.8 192.9c.6.3.6.8 0 1.2l-.4.2h-.1l-3.3 1.9c-.6.3-1.5.3-2 0l-7-4c-.6-.3-.6-.9 0-1.2l3.8-2.2c.6-.3 1.5-.3 2 0l7 4.1z" class="st15"></path></g><g class="st1"><path d="M263.7 198.9v-.9c0-.2.1-.4.4-.6v.9c-.3.2-.4.4-.4.6zM271.1 202.7v.8l-7-4v-.9z" class="st3"></path><path d="M270.6 203v.8l-7-4v-.9z" class="st3"></path><path d="M263.7 198.9v-.9c0 .2.1.4.4.6v.9c-.3-.2-.4-.4-.4-.6zM263.2 199.2v-.9c0 .2.1.4.4.6v.9c-.3-.2-.4-.4-.4-.6zM276.8 200.2v.9c0 .2-.1.4-.4.6v-.9c.3-.2.4-.4.4-.6zM276.4 200.8v.8l-3.3 1.9v-.8z" class="st3"></path><path d="M273.1 202.7v.9c-.6.3-1.5.3-2 0v-.9c.6.3 1.5.3 2 0z" class="st3"></path><path d="M273.1 202.7v.8l-.5.3v-.8z" class="st3"></path><path d="M276.4 199.6c.6.3.6.9 0 1.2l-3.3 1.9c-.6.3-1.5.3-2 0l-7-4c-.6-.3-.6-.9 0-1.2l3.3-1.9c.6-.3 1.5-.3 2 0l7 4z" class="st15"></path><path d="M273.1 202.7l-.5.3c-.6.3-1.5.3-2 0l-7-4c-.6-.3-.6-.9 0-1.2l.5-.3c-.6.3-.6.9 0 1.2l7 4c.6.3 1.5.3 2 0z" class="st3"></path><path d="M272.6 203v.9c-.6.3-1.5.3-2 0v-.9c.6.3 1.5.3 2 0z" class="st3"></path></g><g class="st1"><path d="M275.5 206.3v-.9c0 .2.1.4.4.6v.9c-.2-.1-.4-.4-.4-.6zM289.2 207.3v.9c0 .2-.1.4-.4.6v-.9c.2-.2.4-.4.4-.6zM288.7 207.9v.8l-.4.3v-.9zM288.3 208.1v.9-.8zM288.3 208.2v.8l-3.3 1.9v-.8zM282.9 210.1v.8l-6.9-4v-.8zM285 210.1v.9c-.6.3-1.5.3-2 0v-.9c.5.3 1.4.3 2 0z" class="st3"></path><path d="M288.7 206.7c.6.3.6.8 0 1.2l-.4.2h-.1l-3.3 1.9c-.6.3-1.5.3-2 0l-7-4c-.6-.3-.6-.9 0-1.2l3.8-2.2c.6-.3 1.5-.3 2 0l7 4.1z" class="st15"></path></g><g class="st1"><path d="M287.7 212.8v-.9c0-.2.1-.4.4-.5v.9c-.3.1-.4.3-.4.5zM295.1 216.5v.9l-7-4.1v-.8z" class="st3"></path><path d="M294.6 216.8v.9l-7-4.1v-.8z" class="st3"></path><path d="M287.7 212.8v-.9c0 .2.1.4.4.6v.9c-.3-.2-.4-.4-.4-.6zM287.2 213.1v-.9c0 .2.1.4.4.6v.9c-.3-.2-.4-.4-.4-.6zM300.8 214v.9c0 .2-.1.4-.4.6v-.9c.3-.1.4-.4.4-.6zM300.4 214.6v.9l-3.3 1.9v-.9z" class="st3"></path><path d="M297.1 216.5v.9c-.6.3-1.5.3-2 0v-.9c.5.3 1.5.3 2 0z" class="st3"></path><path d="M297.1 216.5v.9l-.5.3v-.9z" class="st3"></path><path d="M300.4 213.4c.6.3.6.9 0 1.2l-3.3 1.9c-.6.3-1.5.3-2 0l-7-4c-.5-.3-.6-.8-.1-1.1h.1l3.3-1.9c.6-.3 1.5-.3 2 0l7 3.9z" class="st15"></path><path d="M297.1 216.5l-.5.3c-.6.3-1.5.3-2 0l-7-4c-.6-.3-.6-.9 0-1.2l.4-.2c-.5.3-.5.8.1 1.1l7 4c.5.3 1.5.3 2 0z" class="st3"></path><path d="M296.6 216.8v.9c-.6.3-1.5.3-2 0v-.9c.5.3 1.5.3 2 0z" class="st3"></path></g><g class="st1"><path d="M299.7 219.4v-.9c0-.2.1-.4.4-.5v.9c-.3.1-.4.3-.4.5zM307.1 223.2v.8l-7-4v-.9z" class="st3"></path><path d="M306.6 223.5v.8l-7-4v-.9z" class="st3"></path><path d="M299.7 219.4v-.9c0 .2.1.4.4.6v.9c-.2-.2-.4-.4-.4-.6zM299.2 219.7v-.9c0 .2.1.4.4.6v.9c-.2-.2-.4-.4-.4-.6zM312.8 220.7v.9c0 .2-.1.4-.4.6v-.9c.3-.2.4-.4.4-.6zM312.4 221.3v.8l-3.3 1.9v-.8z" class="st3"></path><path d="M309.1 223.2v.9c-.6.3-1.5.3-2 0v-.9c.6.3 1.5.3 2 0z" class="st3"></path><path d="M309.1 223.2v.8l-.5.3v-.8z" class="st3"></path><path d="M312.4 220.1c.6.3.6.9 0 1.2l-3.3 1.9c-.6.3-1.5.3-2 0l-7-4c-.5-.3-.6-.8-.1-1.1h.1l3.3-1.9c.6-.3 1.5-.3 2 0l7 3.9z" class="st15"></path><path d="M309.1 223.2l-.5.3c-.6.3-1.5.3-2 0l-7-4c-.6-.3-.6-.8 0-1.2l.4-.3c-.5.3-.5.8.1 1.1l7 4c.6.4 1.5.4 2 .1z" class="st3"></path><path d="M308.6 223.5v.9c-.6.3-1.5.3-2 0v-.9c.6.3 1.5.3 2 0z" class="st3"></path></g><g class="st1"><path d="M312.1 226.5v-.9c0-.2.1-.4.4-.5v.9c-.3.2-.4.3-.4.5zM319.5 230.3v.9l-7-4.1v-.8z" class="st3"></path><path d="M319 230.6v.9l-7-4.1v-.8z" class="st3"></path><path d="M312.1 226.5v-.9c0 .2.1.4.4.6v.9c-.3-.1-.4-.3-.4-.6zM311.6 226.8v-.9c0 .2.1.4.4.6v.9c-.3-.1-.4-.4-.4-.6zM325.2 227.8v.9c0 .2-.1.4-.4.6v-.9c.3-.2.4-.4.4-.6zM324.8 228.4v.9l-3.3 1.9v-.9zM321.5 230.3v.9c-.6.3-1.5.3-2 0v-.9c.5.3 1.4.3 2 0z" class="st3"></path><path d="M321.5 230.3v.9l-.5.3v-.9z" class="st3"></path><path d="M324.8 227.2c.6.3.6.9 0 1.2l-3.3 1.9c-.6.3-1.5.3-2 0l-7-4c-.5-.3-.6-.8-.1-1.1h.1l3.3-1.9c.6-.3 1.5-.3 2 0l7 3.9z" class="st15"></path><path d="M321.5 230.3l-.5.3c-.6.3-1.5.3-2 0l-7-4c-.6-.3-.6-.8 0-1.2l.4-.3c-.5.3-.5.8.1 1.1l7 4c.5.4 1.4.4 2 .1z" class="st3"></path><path d="M321 230.6v.9c-.6.3-1.5.3-2 0v-.9c.5.3 1.4.3 2 0z" class="st3"></path></g><g class="st1"><path d="M323.2 233.6v-.9c0 .2.1.4.4.6v.9c-.3-.2-.4-.4-.4-.6zM336.8 234.5v.9c0 .2-.1.4-.4.6v-.9c.3-.1.4-.4.4-.6zM336.4 235.1v.9l-.4.2v-.8zM336 235.4v.8l-.1.1v-.9zM335.9 235.4v.9l-3.3 1.9v-.9zM330.6 237.3v.9l-7-4.1v-.8z" class="st3"></path><path d="M332.6 237.3v.9c-.6.3-1.5.3-2 0v-.9c.6.3 1.5.3 2 0z" class="st3"></path><path d="M336.4 233.9c.6.3.6.8 0 1.2l-.4.2h-.1l-3.3 1.9c-.6.3-1.5.3-2 0l-7-4c-.6-.3-.6-.9 0-1.2l3.8-2.2c.6-.3 1.5-.3 2 0l7 4.1z" class="st15"></path></g><g class="st1"><path d="M184.6 156.9v.9c0 .2-.1.4-.4.6v-.9c.3-.1.4-.4.4-.6zM184.2 157.5v.9l-.4.2v-.8z" class="st3"></path><path d="M183.8 157.8v.8l-.1.1v-.9zM167.3 158.1v-.9c0 .2.1.4.4.6v.9c-.3-.2-.4-.4-.4-.6zM183.7 157.8v.9l-7 4v-.8z" class="st3"></path><path d="M174.7 161.9v.8l-7-4v-.9zM176.7 161.9v.9c-.6.3-1.5.3-2 0v-.9c.6.3 1.5.3 2 0z" class="st3"></path><path d="M184.2 156.3c.6.3.6.9 0 1.2l-.4.2h-.1l-7 4.1c-.6.3-1.5.3-2 0l-7-4c-.6-.3-.6-.9 0-1.2l7.5-4.4c.6-.3 1.5-.3 2 0l7 4.1z" class="st15"></path></g><g class="st1"><path d="M179.4 164.5v-.9c0-.2.1-.4.4-.5v.9c-.3.2-.4.3-.4.5zM196.3 163.6v.9c0 .2-.1.4-.4.6v-.9c.2-.1.4-.3.4-.6zM186.8 168.3v.9l-7-4.1v-.8z" class="st3"></path><path d="M186.3 168.6v.9l-7-4.1.1-.8z" class="st3"></path><path d="M179.4 164.5v-.9c0 .2.1.4.4.6v.9c-.2-.1-.4-.3-.4-.6zM178.9 164.8v-.9c0 .2.1.4.4.6v.9c-.2-.1-.4-.4-.4-.6zM195.9 164.2v.9l-7 4.1v-.9zM188.9 168.3v.9c-.6.3-1.5.3-2 0v-.9c.5.3 1.4.3 2 0z" class="st3"></path><path d="M188.9 168.3v.9l-.5.3v-.9z" class="st3"></path><path d="M195.9 163.1c.6.3.6.9 0 1.2l-7 4.1c-.6.3-1.5.3-2 0l-7-4c-.5-.3-.6-.8-.1-1.1h.1l7-4.1c.6-.3 1.5-.3 2 0l7 3.9z" class="st15"></path><path d="M188.9 168.3l-.5.3c-.6.3-1.5.3-2 0l-7-4c-.6-.3-.6-.8 0-1.2l.4-.2c-.5.3-.5.8.1 1.1l7 4c.5.3 1.4.3 2 0z" class="st3"></path><path d="M188.4 168.6v.9c-.6.3-1.5.3-2 0v-.9c.5.3 1.4.3 2 0z" class="st3"></path></g><g class="st1"><path d="M191.8 171.7v-.9c0-.2.1-.4.4-.5v.9c-.2.1-.4.3-.4.5zM208.7 170.8v.9c0 .2-.1.4-.4.6v-.9c.3-.2.4-.4.4-.6zM199.2 175.5v.8l-6.9-4v-.8z" class="st3"></path><path d="M198.8 175.8v.8l-7-4v-.9z" class="st3"></path><path d="M191.8 171.7v-.9c0 .2.1.4.4.6v.9c-.2-.2-.4-.4-.4-.6zM191.3 172v-.9c0 .2.1.4.4.6v.9c-.2-.2-.4-.4-.4-.6zM208.3 171.4v.9l-7 4v-.8zM201.3 175.5v.9c-.6.3-1.5.3-2 0v-.9c.5.3 1.4.3 2 0z" class="st3"></path><path d="M201.3 175.5v.8l-.5.3v-.8z" class="st3"></path><path d="M208.3 170.2c.6.3.6.9 0 1.2l-7 4.1c-.6.3-1.5.3-2 0l-7-4c-.5-.3-.6-.8-.1-1.1h.1l7-4.1c.6-.3 1.5-.3 2 0l7 3.9z" class="st15"></path><path d="M201.3 175.5l-.5.3c-.6.3-1.5.3-2 0l-7-4c-.6-.3-.6-.8 0-1.2l.4-.2c-.5.3-.5.8.1 1.1l7 4c.5.3 1.4.3 2 0z" class="st3"></path><path d="M200.8 175.8v.9c-.6.3-1.5.3-2 0v-.9c.5.3 1.4.3 2 0z" class="st3"></path></g><g class="st1"><path d="M220.4 177.5v.9c0 .2-.1.4-.4.6v-.9c.2-.1.3-.4.4-.6zM219.9 178.1v.9l-.4.2v-.8zM219.5 178.4v.8l-.1.1v-.9zM203 178.7v-.9c0 .2.1.4.4.6v.9c-.3-.1-.4-.4-.4-.6zM219.4 178.4v.9l-7 4v-.8zM210.4 182.5v.8l-7-4v-.8zM212.4 182.5v.9c-.6.3-1.5.3-2 0v-.9c.6.3 1.5.3 2 0z" class="st3"></path><path d="M219.9 176.9c.6.3.6.9 0 1.2l-.4.2h-.1l-7 4.1c-.6.3-1.5.3-2 0l-7-4c-.6-.3-.6-.8 0-1.2l7.5-4.4c.6-.3 1.5-.3 2 0l7 4.1z" class="st15"></path></g><g class="st1"><path d="M215.5 185.4v-.9c0-.2.1-.4.4-.6v.9c-.2.2-.4.4-.4.6zM232.4 184.5v.9c0 .2-.1.4-.4.6v-.9c.2-.2.4-.4.4-.6zM222.9 189.1v.9l-7-4v-.9z" class="st3"></path><path d="M222.4 189.4v.9l-7-4v-.9z" class="st3"></path><path d="M215.5 185.4v-.9c0 .2.1.4.4.6v.9c-.2-.2-.4-.4-.4-.6zM215 185.7v-.9c0 .2.1.4.4.6v.9c-.2-.2-.4-.4-.4-.6zM232 185.1v.8l-7.1 4.1.1-.9z" class="st3"></path><path d="M225 189.1v.9c-.6.3-1.5.3-2 0v-.9c.5.4 1.4.4 2 0z" class="st3"></path><path d="M225 189.1l-.1.9-.4.3v-.9z" class="st3"></path><path d="M232 183.9c.6.3.6.9 0 1.2l-7 4.1c-.6.3-1.5.3-2 0l-7-4c-.6-.3-.6-.9 0-1.2l7-4.1c.6-.3 1.5-.3 2 0l7 4z" class="st15"></path><path d="M225 189.1l-.5.3c-.6.3-1.5.3-2 0l-7-4c-.6-.3-.6-.8 0-1.2l.5-.3c-.6.3-.6.9 0 1.2l7 4c.5.4 1.4.4 2 0z" class="st3"></path><path d="M224.5 189.4v.9c-.6.3-1.5.3-2 0v-.9c.5.4 1.4.4 2 0z" class="st3"></path></g><g class="st1"><path d="M227.2 192.1v-.9c0-.2.1-.4.4-.6v.9c-.3.2-.4.4-.4.6zM244 191.2v.9c0 .2-.1.4-.4.6v-.9c.3-.2.4-.4.4-.6zM234.6 195.9l-.1.8-6.9-4v-.9z" class="st3"></path><path d="M234.1 196.2v.8l-7-4v-.9z" class="st3"></path><path d="M227.2 192.1v-.9c0 .2.1.4.4.6v.9c-.3-.2-.4-.4-.4-.6zM226.7 192.4v-.9c0 .2.1.4.4.6v.9c-.3-.2-.4-.4-.4-.6zM243.6 191.8v.8l-7 4.1v-.8zM236.6 195.9v.9c-.6.3-1.5.3-2 0v-.9c.5.3 1.4.3 2 0z" class="st3"></path><path d="M236.6 195.9v.8l-.5.3v-.8z" class="st3"></path><path d="M243.6 190.6c.6.3.6.9 0 1.2l-7 4.1c-.6.3-1.5.3-2 0l-7-4c-.6-.3-.6-.9 0-1.2l7-4.1c.6-.3 1.5-.3 2 0l7 4z" class="st15"></path><path d="M236.6 195.9l-.5.3c-.6.3-1.5.3-2 0l-7-4c-.6-.3-.6-.8 0-1.2l.5-.3c-.6.3-.6.9 0 1.2l7 4c.5.3 1.4.3 2 0z" class="st3"></path><path d="M236.1 196.2v.9c-.6.3-1.5.3-2 0v-.9c.5.3 1.4.3 2 0z" class="st3"></path></g><g class="st1"><path d="M239.6 199.3v-.9c0-.2.1-.4.4-.5v.9c-.3.1-.4.3-.4.5zM256.4 198.4v.9c0 .2-.1.4-.4.6v-.9c.3-.2.4-.4.4-.6zM247 203v.9l-7-4v-.9z" class="st3"></path><path d="M246.5 203.3v.9l-7-4.1v-.8z" class="st3"></path><path d="M239.6 199.3v-.9c0 .2.1.4.4.6v.9c-.3-.2-.4-.4-.4-.6zM239.1 199.6v-.9c0 .2.1.4.4.6v.9c-.3-.2-.4-.4-.4-.6zM256 199v.8l-7 4.1v-.9zM249 203v.9c-.6.3-1.5.3-2 0v-.9c.5.4 1.5.4 2 0z" class="st3"></path><path d="M249 203v.9l-.5.3v-.9z" class="st3"></path><path d="M256 197.8c.6.3.6.9 0 1.2l-7 4.1c-.6.3-1.5.3-2 0l-7-4c-.5-.3-.6-.8-.1-1.1h.1l7-4.1c.6-.3 1.5-.3 2 0l7 3.9z" class="st15"></path><path d="M249 203l-.5.3c-.6.3-1.5.3-2 0l-7-4c-.6-.3-.6-.8 0-1.2l.4-.2c-.5.3-.5.8.1 1.1l7 4c.5.4 1.5.4 2 0z" class="st3"></path><path d="M248.5 203.3v.9c-.6.3-1.5.3-2 0v-.9c.6.4 1.4.4 2 0z" class="st3"></path></g><g class="st1"><path d="M268.1 205.1v.9c0 .2-.1.4-.4.6v-.9c.2-.2.4-.4.4-.6zM267.7 205.7v.8l-.5.3v-.9zM267.2 205.9v.9-.8zM250.7 206.3v-.9c0 .2.1.4.4.6v.9c-.2-.2-.4-.4-.4-.6zM267.2 206v.8l-7 4.1v-.9zM258.1 210v.9l-7-4v-.9zM260.2 210v.9c-.6.3-1.5.3-2 0v-.9c.5.4 1.4.4 2 0z" class="st3"></path><path d="M267.7 204.5c.6.3.6.9 0 1.2l-.4.2h-.1l-7 4.1c-.6.3-1.5.3-2 0l-7-4c-.6-.3-.6-.9 0-1.2l7.5-4.4c.6-.3 1.5-.3 2 0l7 4.1z" class="st15"></path></g><g class="st1"><path d="M280.4 212.2v.9c0 .2-.1.4-.4.6v-.9c.3-.2.4-.4.4-.6zM280 212.8v.9l-.4.2v-.8zM279.6 213.1v.8l-.1.1v-.9zM263.1 213.4v-.9c0 .2.1.4.4.6v.9c-.3-.2-.4-.4-.4-.6zM279.5 213.1v.9l-7 4v-.8zM270.5 217.2v.8l-7-4v-.9zM272.5 217.2v.9c-.6.3-1.5.3-2 0v-.9c.5.3 1.4.3 2 0z" class="st3"></path><path d="M280 211.6c.6.3.6.9 0 1.2l-.4.2h-.1l-7 4.1c-.6.3-1.5.3-2 0l-7-4c-.6-.3-.6-.9 0-1.2l7.5-4.4c.6-.3 1.5-.3 2 0l7 4.1z" class="st15"></path></g><g class="st1"><path d="M275.2 219.8v-.9c0-.2.1-.4.3-.5v.9c-.2.1-.3.3-.3.5zM292.1 218.9v.9c0 .2-.1.4-.4.6v-.9c.2-.1.4-.3.4-.6zM282.6 223.6v.9l-7-4.1v-.8z" class="st3"></path><path d="M282.1 223.9v.8l-7-4v-.8z" class="st3"></path><path d="M275.2 219.8v-.9c0 .2.1.4.4.6v.9c-.3-.1-.4-.3-.4-.6zM274.7 220.1v-.9c0 .2.1.4.4.6v.9c-.3-.1-.4-.4-.4-.6zM291.7 219.5l-.1.9-7 4.1v-.9z" class="st3"></path><path d="M284.6 223.6v.9c-.6.3-1.5.3-2 0v-.9c.6.3 1.5.3 2 0z" class="st3"></path><path d="M284.6 223.6v.9l-.5.3v-.9z" class="st3"></path><path d="M291.6 218.3c.6.3.6.9 0 1.2l-7 4.1c-.6.3-1.5.3-2 0l-7-4c-.5-.3-.6-.8-.1-1.1h.1l7-4.1c.6-.3 1.5-.3 2 0l7 3.9z" class="st15"></path><path d="M284.6 223.6l-.5.3c-.6.3-1.5.3-2 0l-7-4c-.6-.3-.6-.8 0-1.2l.4-.2c-.5.3-.5.8.1 1.1l7 4c.6.3 1.5.3 2 0z" class="st3"></path><path d="M284.1 223.9v.9c-.6.3-1.5.3-2 0v-.9c.6.3 1.5.3 2 0z" class="st3"></path></g><g class="st1"><path d="M287.2 226.5v-.9c0-.2.1-.4.4-.5v.9c-.2.1-.4.3-.4.5zM304.1 225.6v.9c0 .2-.1.4-.4.6v-.9c.3-.2.4-.4.4-.6zM294.6 230.3v.8l-6.9-4v-.9z" class="st3"></path><path d="M294.1 230.6v.8l-6.9-4v-.9z" class="st3"></path><path d="M287.2 226.5v-.9c0 .2.1.4.4.6v.9c-.2-.2-.4-.4-.4-.6zM286.7 226.8v-.9c0 .2.1.4.4.6v.9c-.2-.2-.4-.4-.4-.6zM303.7 226.2v.8l-7 4.1v-.8zM296.7 230.3v.9c-.6.3-1.5.3-2 0v-.9c.5.3 1.4.3 2 0z" class="st3"></path><path d="M296.7 230.3v.8l-.5.3v-.8z" class="st3"></path><path d="M303.7 225c.6.3.6.9 0 1.2l-7 4.1c-.6.3-1.5.3-2 0l-7-4c-.5-.3-.6-.8-.1-1.1h.1l7-4.1c.6-.3 1.5-.3 2 0l7 3.9z" class="st15"></path><path d="M296.7 230.3l-.5.3c-.6.3-1.5.3-2 0l-7-4c-.6-.3-.6-.9 0-1.2l.4-.2c-.5.3-.5.8.1 1.1l7 4c.5.3 1.4.3 2 0z" class="st3"></path><path d="M296.2 230.6v.9c-.6.3-1.5.3-2 0v-.9c.5.3 1.4.3 2 0z" class="st3"></path></g><g class="st1"><path d="M299.6 233.6v-.9c0-.2.1-.4.4-.5v.9c-.3.1-.4.3-.4.5zM316.4 232.7v.9c0 .2-.1.4-.4.6v-.9c.3-.1.4-.3.4-.6zM307 237.4v.9l-7-4.1v-.8z" class="st3"></path><path d="M306.5 237.7v.8l-7-4v-.8z" class="st3"></path><path d="M299.6 233.6v-.9c0 .2.1.4.4.6v.9c-.3-.1-.4-.4-.4-.6zM299.1 233.9v-.9c0 .2.1.4.4.6v.9c-.3-.1-.4-.4-.4-.6zM316 233.3v.9l-7 4.1v-.9zM309 237.4v.9c-.6.3-1.5.3-2 0v-.9c.6.3 1.5.3 2 0z" class="st3"></path><path d="M309 237.4v.9l-.5.2v-.8z" class="st3"></path><path d="M316 232.1c.6.3.6.9 0 1.2l-7 4.1c-.6.3-1.5.3-2 0l-7-4c-.5-.3-.6-.8-.1-1.1h.1l7-4.1c.6-.3 1.5-.3 2 0l7 3.9z" class="st15"></path><path d="M309 237.4l-.5.3c-.6.3-1.5.3-2 0l-7-4c-.6-.3-.6-.9 0-1.2l.4-.2c-.5.3-.5.8.1 1.1l7 4c.6.3 1.5.3 2 0z" class="st3"></path><path d="M308.5 237.7v.9c-.6.3-1.5.3-2 0v-.9c.6.3 1.5.3 2 0z" class="st3"></path></g><g class="st1"><path d="M311.2 240.3v-.9c0-.2.1-.4.4-.6v.9c-.2.2-.4.4-.4.6zM328.1 239.5v.9c0 .2-.1.4-.4.6v-.9c.2-.2.4-.4.4-.6zM318.6 244.1v.9l-7-4.1v-.8z" class="st3"></path><path d="M318.1 244.4v.9l-7-4.1v-.8z" class="st3"></path><path d="M311.2 240.3v-.9c0 .2.1.4.4.6v.9c-.2-.1-.4-.3-.4-.6zM310.7 240.6v-.9c0 .2.1.4.4.6v.9c-.2-.1-.4-.3-.4-.6zM327.7 240v.9l-7 4.1v-.9zM320.7 244.1v.9c-.6.3-1.5.3-2 0v-.9c.5.3 1.4.3 2 0z" class="st3"></path><path d="M320.7 244.1v.9l-.5.3v-.9z" class="st3"></path><path d="M327.7 238.9c.6.3.6.8 0 1.2l-7 4.1c-.6.3-1.5.3-2 0l-7-4c-.6-.3-.6-.8 0-1.2l7-4.1c.6-.3 1.5-.3 2 0l7 4z" class="st15"></path><path d="M320.7 244.1l-.5.3c-.6.3-1.5.3-2 0l-7-4c-.6-.3-.6-.9 0-1.2l.5-.3c-.6.3-.6.8 0 1.2l7 4c.5.3 1.4.3 2 0z" class="st3"></path><path d="M320.2 244.4v.9c-.6.3-1.5.3-2 0v-.9c.5.3 1.4.3 2 0z" class="st3"></path></g><g class="st1"><path d="M153 165.2v-.9c0 .2.1.4.4.6v.9c-.3-.1-.4-.4-.4-.6zM187 173.6v.9c0 .2-.1.4-.4.6v-.9c.2-.1.4-.4.4-.6zM186.6 174.2v.9l-.5.2v-.8zM186.1 174.5v.9-.9zM186.1 174.5v.9l-7 4.1v-.9zM177 178.6v.9l-23.6-13.7v-.8zM179.1 178.6v.9c-.6.3-1.5.3-2 0v-.9c.5.3 1.4.3 2 0z" class="st3"></path><path d="M186.6 173c.6.3.6.9 0 1.2l-.4.3h-.1l-7 4.1c-.6.3-1.5.3-2 0L153.4 165c-.6-.3-.6-.9 0-1.2l7.5-4.4c.6-.3 1.5-.3 2 0l23.7 13.6z" class="st15"></path></g><g class="st1"><path d="M182.2 182v-.9c0-.2.1-.4.3-.5v.9c-.1.1-.3.3-.3.5zM199.1 181.1v.9c0 .2-.1.4-.4.6v-.9c.3-.2.4-.4.4-.6zM189.6 185.8v.8l-6.9-4v-.9z" class="st3"></path><path d="M189.2 186.1v.8l-7-4v-.9z" class="st3"></path><path d="M182.2 182v-.9c0 .2.1.4.4.6v.9c-.2-.2-.4-.4-.4-.6z" class="st3"></path><path d="M181.8 182.3v-.9c0 .2.1.4.4.6v.9c-.3-.2-.4-.4-.4-.6zM198.7 181.7v.8l-7 4.1v-.8zM191.7 185.8v.9c-.6.3-1.5.3-2 0v-.9c.5.3 1.4.3 2 0z" class="st3"></path><path d="M191.7 185.8v.8l-.5.3v-.8z" class="st3"></path><path d="M198.7 180.5c.6.3.6.9 0 1.2l-7 4.1c-.6.3-1.5.3-2 0l-7-4c-.5-.3-.6-.8-.1-1.1h.1l7-4.1c.6-.3 1.5-.3 2 0l7 3.9z" class="st15"></path><path d="M191.7 185.8l-.5.3c-.6.3-1.5.3-2 0l-7-4c-.6-.3-.6-.8 0-1.2l.4-.2c-.5.3-.4.8.1 1.1l7 4c.5.3 1.4.3 2 0z" class="st3"></path><path d="M191.2 186.1v.9c-.6.3-1.5.3-2 0v-.9c.5.3 1.4.3 2 0z" class="st3"></path></g><g class="st1"><path d="M194.9 188.8v-.9c0-.2.1-.4.4-.5v.9c-.2.1-.4.3-.4.5zM211.8 187.9v.9c0 .2-.1.4-.4.6v-.9c.3-.2.4-.4.4-.6zM202.3 192.5v.9l-6.9-4v-.9z" class="st3"></path><path d="M201.8 192.8v.9l-6.9-4.1v-.8z" class="st3"></path><path d="M194.9 188.8v-.9c0 .2.1.4.4.6v.9c-.2-.2-.4-.4-.4-.6zM194.4 189.1v-.9c0 .2.1.4.4.6v.9c-.2-.2-.4-.4-.4-.6zM211.4 188.4v.9l-7 4.1v-.9zM204.4 192.5v.9c-.6.3-1.5.3-2 0v-.9c.5.3 1.4.3 2 0z" class="st3"></path><path d="M204.4 192.5v.9l-.5.3v-.9z" class="st3"></path><path d="M211.4 187.3c.6.3.6.9 0 1.2l-7 4.1c-.6.3-1.5.3-2 0l-7-4c-.5-.3-.6-.8-.1-1.1h.1l7-4.1c.6-.3 1.5-.3 2 0l7 3.9z" class="st15"></path><path d="M204.4 192.5l-.5.3c-.6.3-1.5.3-2 0l-7-4c-.6-.3-.6-.8 0-1.2l.4-.2c-.5.3-.5.8.1 1.1l7 4c.5.3 1.4.3 2 0z" class="st3"></path><path d="M203.9 192.8v.9c-.6.3-1.5.3-2 0v-.9c.5.3 1.4.3 2 0z" class="st3"></path></g><g class="st1"><path d="M207.2 195.7v-.9c0-.2.1-.4.4-.5v.9c-.2.1-.4.3-.4.5zM224.1 194.8v.9c0 .2-.1.4-.4.6v-.9c.3-.2.4-.4.4-.6zM214.6 199.4v.9l-6.9-4v-.9z" class="st3"></path><path d="M214.1 199.7v.9l-6.9-4v-.9z" class="st3"></path><path d="M207.2 195.7v-.9c0 .2.1.4.4.6v.9c-.2-.2-.4-.4-.4-.6zM206.7 196v-.9c0 .2.1.4.4.6v.9c-.2-.2-.4-.4-.4-.6zM223.7 195.4v.8l-7 4.1v-.8zM216.7 199.5v.9c-.6.3-1.5.3-2 0v-.9c.5.3 1.4.3 2 0z" class="st3"></path><path d="M216.7 199.5v.8l-.5.3v-.9z" class="st3"></path><path d="M223.7 194.2c.6.3.6.9 0 1.2l-7 4.1c-.6.3-1.5.3-2 0l-7-4c-.5-.3-.6-.8-.1-1.1h.1l7-4.1c.6-.3 1.5-.3 2 0l7 3.9z" class="st15"></path><path d="M216.7 199.5l-.5.3c-.6.3-1.5.3-2 0l-7-4c-.6-.3-.6-.8 0-1.2l.4-.2c-.5.3-.5.8.1 1.1l7 4c.5.3 1.4.3 2 0z" class="st3"></path><path d="M216.2 199.7v.9c-.6.3-1.5.3-2 0v-.9c.5.4 1.4.4 2 0z" class="st3"></path></g><g class="st1"><path d="M235.6 201.4v.9c0 .2-.1.4-.4.6v-.9c.2-.2.4-.4.4-.6zM235.2 202v.9l-.5.2v-.9zM234.7 202.2v.9-.8zM218.2 202.6v-.9c0 .2.1.4.4.6v.9c-.2-.2-.4-.4-.4-.6zM234.7 202.3v.8l-7 4.1v-.8zM225.6 206.4v.8l-7-4v-.9zM227.7 206.4v.9c-.6.3-1.5.3-2 0v-.9c.5.3 1.4.3 2 0z" class="st3"></path><path d="M235.2 200.8c.6.3.6.9 0 1.2l-.4.2h-.1l-7 4.1c-.6.3-1.5.3-2 0l-7-4c-.6-.3-.6-.9 0-1.2l7.5-4.4c.6-.3 1.5-.3 2 0l7 4.1z" class="st15"></path></g><g class="st1"><path d="M230.4 209v-.9c0-.2.1-.4.4-.5v.9c-.3.1-.4.3-.4.5zM247.2 208.1v.9c0 .2-.1.4-.4.6v-.9c.3-.1.4-.4.4-.6zM237.8 212.8v.9l-7-4.1v-.8z" class="st3"></path><path d="M237.3 213.1v.8l-7-4v-.8z" class="st3"></path><path d="M230.4 209v-.9c0 .2.1.4.4.6v.9c-.3-.1-.4-.4-.4-.6zM229.9 209.3v-.9c0 .2.1.4.4.6v.9c-.3-.1-.4-.4-.4-.6zM246.8 208.7v.9l-7 4.1v-.9zM239.8 212.8v.9c-.6.3-1.5.3-2 0v-.9c.5.3 1.4.3 2 0z" class="st3"></path><path d="M239.8 212.8v.9l-.5.2v-.8z" class="st3"></path><path d="M246.8 207.5c.6.3.6.9 0 1.2l-7 4.1c-.6.3-1.5.3-2 0l-7-4c-.5-.3-.6-.8-.1-1.1h.1l7-4.1c.6-.3 1.5-.3 2 0l7 3.9z" class="st15"></path><path d="M239.8 212.8l-.5.3c-.6.3-1.5.3-2 0l-7-4c-.6-.3-.6-.8 0-1.2l.4-.2c-.5.3-.5.8.1 1.1l7 4c.5.3 1.4.3 2 0z" class="st3"></path><path d="M239.3 213.1v.9c-.6.3-1.5.3-2 0v-.9c.5.3 1.4.3 2 0z" class="st3"></path></g><g class="st1"><path d="M242.8 216.2v-.9c0-.2.1-.4.4-.5v.9c-.3.1-.4.3-.4.5zM259.6 215.3v.9c0 .2-.1.4-.4.6v-.9c.3-.2.4-.4.4-.6zM250.2 220v.8l-7-4v-.9z" class="st3"></path><path d="M249.7 220.3v.8l-7-4v-.9z" class="st3"></path><path d="M242.8 216.2v-.9c0 .2.1.4.4.6v.9c-.3-.2-.4-.4-.4-.6zM242.3 216.5v-.9c0 .2.1.4.4.6v.9c-.3-.2-.4-.4-.4-.6zM259.2 215.9v.9l-7 4v-.8zM252.2 220v.9c-.6.3-1.5.3-2 0v-.9c.5.3 1.5.3 2 0z" class="st3"></path><path d="M252.2 220v.8l-.5.3v-.8z" class="st3"></path><path d="M259.2 214.7c.6.3.6.9 0 1.2l-7 4.1c-.6.3-1.5.3-2 0l-7-4c-.5-.3-.6-.8-.1-1.1h.1l7-4.1c.6-.3 1.5-.3 2 0l7 3.9z" class="st15"></path><path d="M252.2 220l-.5.3c-.6.3-1.5.3-2 0l-7-4c-.6-.3-.6-.8 0-1.2l.4-.2c-.5.3-.5.8.1 1.1l7 4c.5.3 1.5.3 2 0z" class="st3"></path><path d="M251.7 220.3v.9c-.6.3-1.5.3-2 0v-.9c.5.3 1.5.3 2 0z" class="st3"></path></g><g class="st1"><path d="M271.3 222v.9c0 .2-.1.4-.4.6v-.9c.2-.2.4-.4.4-.6zM270.9 222.6v.9l-.5.2v-.8zM270.4 222.9v.9-.9zM253.9 223.2v-.9c0 .2.1.4.4.6v.9c-.2-.2-.4-.4-.4-.6zM270.4 222.9v.9l-7 4v-.8zM261.3 227v.8l-7-4v-.9zM263.4 227v.9c-.6.3-1.5.3-2 0v-.9c.5.3 1.4.3 2 0z" class="st3"></path><path d="M270.9 221.4c.6.3.6.8 0 1.2l-.4.2h-.1l-7 4.1c-.6.3-1.5.3-2 0l-7-4c-.6-.3-.6-.9 0-1.2l7.5-4.4c.6-.3 1.5-.3 2 0l7 4.1z" class="st15"></path></g><g class="st1"><path d="M266.4 229.9v-.9c0-.2.1-.4.4-.6v.9c-.2.1-.4.4-.4.6zM283.3 229v.9c0 .2-.1.4-.4.6v-.9c.3-.2.4-.4.4-.6zM273.9 233.6l-.1.9-6.9-4v-.9z" class="st3"></path><path d="M273.4 233.9l-.1.9-6.9-4.1v-.8z" class="st3"></path><path d="M266.4 229.9v-.9c0 .2.1.4.4.6v.9c-.2-.2-.4-.4-.4-.6zM265.9 230.2v-.9c0 .2.1.4.4.6v.9c-.2-.2-.4-.4-.4-.6zM282.9 229.6v.8l-7 4.1v-.9zM275.9 233.6v.9c-.6.3-1.5.3-2 0v-.9c.5.4 1.4.4 2 0z" class="st3"></path><path d="M275.9 233.6v.9l-.5.3v-.9z" class="st3"></path><path d="M282.9 228.4c.6.3.6.9 0 1.2l-7 4.1c-.6.3-1.5.3-2 0l-7-4c-.6-.3-.6-.9 0-1.2l7-4.1c.6-.3 1.5-.3 2 0l7 4z" class="st15"></path><path d="M275.9 233.6l-.5.3c-.6.3-1.5.3-2 0l-7-4c-.6-.3-.6-.9 0-1.2l.5-.3c-.6.3-.5.9 0 1.2l7 4c.5.4 1.4.4 2 0z" class="st3"></path><path d="M275.4 233.9v.9c-.6.3-1.5.3-2 0v-.9c.5.3 1.4.3 2 0z" class="st3"></path></g><g class="st1"><path d="M278.1 236.6v-.9c0-.2.1-.4.4-.6v.9c-.3.2-.4.4-.4.6zM295 235.7v.9c0 .2-.1.4-.4.6v-.9c.2-.2.4-.4.4-.6zM285.5 240.4v.8l-7-4v-.9z" class="st3"></path><path d="M285 240.6v.9l-7-4v-.9z" class="st3"></path><path d="M278.1 236.6v-.9c0 .2.1.4.4.6v.9c-.3-.2-.4-.4-.4-.6zM277.6 236.9v-.9c0 .2.1.4.4.6v.9c-.3-.2-.4-.4-.4-.6zM294.5 236.3v.8l-7 4.1v-.8zM287.5 240.4v.9c-.6.3-1.5.3-2 0v-.9c.6.3 1.5.3 2 0z" class="st3"></path><path d="M287.5 240.4v.8l-.5.3v-.9z" class="st3"></path><path d="M294.5 235.1c.6.3.6.8 0 1.2l-7 4.1c-.6.3-1.5.3-2 0l-7-4c-.6-.3-.6-.8 0-1.2l7-4.1c.6-.3 1.5-.3 2 0l7 4z" class="st15"></path><path d="M287.5 240.4l-.5.3c-.6.3-1.5.3-2 0l-7-4c-.6-.3-.6-.9 0-1.2l.5-.3c-.6.3-.6.8 0 1.2l7 4c.6.3 1.5.3 2 0z" class="st3"></path><path d="M287 240.6v.9c-.6.3-1.5.3-2 0v-.9c.6.4 1.5.4 2 0z" class="st3"></path></g><g class="st1"><path d="M290 244.2v-.9c0-.2.1-.4.4-.6v.9c-.2.2-.4.4-.4.6zM304.7 252.2v.9l-14.2-8.3v-.8z" class="st3"></path><path d="M304.2 252.5v.8l-14.2-8.2v-.8z" class="st3"></path><path d="M290 244.2v-.9c0 .2.1.4.4.6v.9c-.2-.1-.4-.3-.4-.6zM289.6 244.5v-.9c0 .2.1.4.4.6v.9c-.3-.1-.5-.4-.4-.6zM314.2 247.5v.9c0 .2-.1.4-.4.6v-.9c.3-.1.4-.3.4-.6zM313.8 248.1v.9l-7 4.1v-.9zM306.8 252.2v.9c-.6.3-1.5.3-2 0v-.9c.5.3 1.4.3 2 0z" class="st3"></path><path d="M306.8 252.2v.9l-.5.3v-.9z" class="st3"></path><path d="M313.8 246.9c.6.3.6.9 0 1.2l-7 4.1c-.6.3-1.5.3-2 0l-14.3-8.2c-.6-.3-.6-.8 0-1.2l7-4.1c.6-.3 1.5-.3 2 0l14.3 8.2z" class="st15"></path><path d="M306.8 252.2l-.5.3c-.6.3-1.5.3-2 0l-14.2-8.2c-.6-.3-.6-.9 0-1.2l.5-.3c-.6.3-.6.8 0 1.2l14.3 8.2c.4.3 1.3.3 1.9 0z" class="st3"></path><path d="M306.3 252.5v.9c-.6.3-1.5.3-2 0v-.9c.5.3 1.4.3 2 0z" class="st3"></path></g><g class="st1"><path d="M140.1 172.7v-.9c0-.2.1-.4.4-.5v.9c-.3.1-.4.3-.4.5zM157.6 182.4v.8l-16.9-9.8v-.8z" class="st3"></path><path d="M157.1 182.6v.9l-16.9-9.8v-.8z" class="st3"></path><path d="M140.1 172.7v-.9c0 .3.2.5.6.7v.9c-.4-.2-.6-.5-.6-.7z" class="st3"></path><path d="M139.6 173v-.9c0 .3.2.5.6.7v.9c-.4-.2-.6-.5-.6-.7zM167.2 177.8v.9c0 .2-.1.4-.4.5v-.9c.3-.1.4-.3.4-.5z" class="st3"></path><path d="M166.9 178.4v.8l-7.1 4.1v-.8zM159.8 182.5v.9c-.6.3-1.6.3-2.2-.1v-.9c.7.3 1.7.4 2.2.1z" class="st3"></path><path d="M159.8 182.5v.8l-.5.3v-.9z" class="st3"></path><path d="M166.7 177.1c.7.4.7 1 .2 1.3l-7 4.1c-.6.3-1.6.3-2.2-.1l-16.9-9.8c-.7-.4-.7-1-.2-1.3l7-4.1c.6-.3 1.6-.3 2.2.1l16.9 9.8z" class="st15"></path><path d="M159.8 182.5l-.5.3c-.6.3-1.6.3-2.2-.1l-16.9-9.8c-.7-.4-.7-1-.2-1.3l.5-.3c-.6.3-.5.9.2 1.3l16.9 9.8c.7.3 1.7.4 2.2.1z" class="st3"></path><path d="M159.3 182.7v.9c-.6.3-1.6.3-2.2-.1v-.9c.7.4 1.7.5 2.2.1z" class="st3"></path></g><g class="st1"><path d="M163 186.5v-.9c0-.2.1-.4.4-.5v.9c-.3.1-.4.3-.4.5zM179.9 185.6v.9c0 .2-.1.4-.4.6v-.9c.3-.1.4-.4.4-.6zM170.4 190.3v.9l-7-4.1v-.8z" class="st3"></path><path d="M169.9 190.6v.8l-6.9-4v-.8z" class="st3"></path><path d="M163 186.5v-.9c0 .2.1.4.4.6v.9c-.2-.1-.4-.4-.4-.6zM162.5 186.8v-.9c0 .2.1.4.4.6v.9c-.2-.1-.4-.4-.4-.6zM179.5 186.2v.9l-7 4.1v-.9zM172.5 190.3v.9c-.6.3-1.5.3-2 0v-.9c.5.3 1.4.3 2 0z" class="st3"></path><path d="M172.5 190.3v.9l-.5.2v-.8z" class="st3"></path><path d="M179.5 185c.6.3.6.9 0 1.2l-7 4.1c-.6.3-1.5.3-2 0l-7-4c-.5-.3-.6-.8-.1-1.1h.1l7-4.1c.6-.3 1.5-.3 2 0l7 3.9z" class="st15"></path><path d="M172.5 190.3l-.5.3c-.6.3-1.5.3-2 0l-7-4c-.6-.3-.6-.8 0-1.2l.4-.2c-.5.3-.5.8.1 1.1l7 4c.5.3 1.4.3 2 0z" class="st3"></path><path d="M172 190.6v.9c-.6.3-1.5.3-2 0v-.9c.5.3 1.4.3 2 0z" class="st3"></path></g><g class="st1"><path d="M191.5 192.4v.9c0 .2-.1.4-.4.6v-.9c.3-.2.4-.4.4-.6zM191.1 192.9v.9l-.4.2v-.8zM190.7 193.2v.8l-.1.1v-.9zM174.2 193.5v-.9c0 .2.1.4.4.6v.9c-.3-.1-.4-.3-.4-.6zM190.6 193.2v.9l-7 4.1v-.9zM181.6 197.3v.9l-7-4.1v-.8zM183.6 197.3v.9c-.6.3-1.5.3-2 0v-.9c.5.3 1.5.3 2 0z" class="st3"></path><path d="M191.1 191.8c.6.3.6.8 0 1.2l-.4.3h-.1l-7 4.1c-.6.3-1.5.3-2 0l-7-4c-.6-.3-.6-.9 0-1.2l7.5-4.4c.6-.3 1.5-.3 2 0l7 4z" class="st15"></path></g><g class="st1"><path d="M186.7 200.2v-.9c0-.2.1-.4.3-.5v.9c-.2.1-.3.3-.3.5zM203.6 199.3v.9c0 .2-.1.4-.4.6v-.9c.2-.2.4-.4.4-.6zM194.1 204v.8l-7-4v-.9z" class="st3"></path><path d="M193.6 204.3v.8l-7-4v-.9z" class="st3"></path><path d="M186.7 200.2v-.9c0 .2.1.4.4.6v.9c-.3-.2-.4-.4-.4-.6zM186.2 200.5v-.9c0 .2.1.4.4.6v.9c-.3-.2-.4-.4-.4-.6zM203.2 199.9v.8l-7.1 4.1v-.8zM196.1 204v.9c-.6.3-1.5.3-2 0v-.9c.6.3 1.5.3 2 0z" class="st3"></path><path d="M196.1 204v.8l-.5.3v-.8z" class="st3"></path><path d="M203.1 198.7c.6.3.6.9 0 1.2l-7 4.1c-.6.3-1.5.3-2 0l-7-4c-.5-.3-.6-.8-.1-1.1h.1l7-4.1c.6-.3 1.5-.3 2 0l7 3.9z" class="st15"></path><path d="M196.1 204l-.5.3c-.6.3-1.5.3-2 0l-7-4c-.6-.3-.6-.8 0-1.2l.4-.2c-.5.3-.5.8.1 1.1l7 4c.6.3 1.5.3 2 0z" class="st3"></path><path d="M195.6 204.3v.9c-.6.3-1.5.3-2 0v-.9c.6.3 1.5.3 2 0z" class="st3"></path></g><g class="st1"><path d="M215.2 206v.9c0 .2-.1.4-.4.6v-.9c.3-.2.4-.4.4-.6z" class="st3"></path><path d="M214.8 206.6v.9l-.4.2v-.8zM214.4 206.9v.8l-.1.1v-.9zM197.8 207.2v-.9c0 .2.1.4.4.6v.9c-.2-.2-.4-.4-.4-.6zM214.3 206.9v.9l-7 4v-.8zM205.3 211v.8l-7-4v-.9zM207.3 211v.9c-.6.3-1.5.3-2 0v-.9c.5.3 1.4.3 2 0z" class="st3"></path><path d="M214.8 205.4c.6.3.6.8 0 1.2l-.4.3h-.1l-7 4.1c-.6.3-1.5.3-2 0l-7-4c-.6-.3-.6-.9 0-1.2l7.5-4.4c.6-.3 1.5-.3 2 0l7 4z" class="st15"></path></g><g class="st1"><path d="M227.6 213.2v.9c0 .2-.1.4-.4.6v-.9c.3-.2.4-.4.4-.6zM227.2 213.8v.8l-.4.3v-.9z" class="st3"></path><path d="M226.8 214v.9h-.1v-.8zM210.3 214.4v-.9c0 .2.1.4.4.6v.9c-.3-.2-.4-.4-.4-.6z" class="st3"></path><path d="M217.7 218.1v.9l-7-4v-.9zM226.7 214.1v.8l-7 4.1v-.8zM219.7 218.2v.9c-.6.3-1.5.3-2 0v-.9c.5.3 1.5.3 2 0z" class="st3"></path><path d="M227.2 212.6c.6.3.6.9 0 1.2l-.4.3h-.1l-7 4.1c-.6.3-1.5.3-2 0l-7-4c-.6-.3-.6-.9 0-1.2l7.5-4.4c.6-.3 1.5-.3 2 0l7 4z" class="st15"></path></g><g class="st1"><path d="M222.4 220.8v-.9c0-.2.1-.4.4-.5v.9c-.3.1-.4.3-.4.5zM239.3 219.9v.9c0 .2-.1.4-.4.6v-.9c.2-.2.4-.4.4-.6zM229.8 224.6v.8l-7-4v-.9z" class="st3"></path><path d="M229.3 224.9v.8l-7-4v-.9z" class="st3"></path><path d="M222.4 220.8v-.9c0 .2.1.4.4.6v.9c-.3-.2-.4-.4-.4-.6zM221.9 221.1v-.9c0 .2.1.4.4.6v.9c-.3-.2-.4-.4-.4-.6zM238.9 220.5v.9l-7.1 4v-.8zM231.8 224.6v.9c-.6.3-1.5.3-2 0v-.9c.6.3 1.5.3 2 0z" class="st3"></path><path d="M231.8 224.6v.8l-.5.3v-.8z" class="st3"></path><path d="M238.8 219.3c.6.3.6.9 0 1.2l-7 4.1c-.6.3-1.5.3-2 0l-7-4c-.5-.3-.6-.8-.1-1.1h.1l7-4.1c.6-.3 1.5-.3 2 0l7 3.9z" class="st15"></path><path d="M231.8 224.6l-.5.3c-.6.3-1.5.3-2 0l-7-4c-.6-.3-.6-.8 0-1.2l.4-.2c-.5.3-.5.8.1 1.1l7 4c.6.3 1.5.3 2 0z" class="st3"></path><path d="M231.3 224.9v.9c-.6.3-1.5.3-2 0v-.9c.6.3 1.5.3 2 0z" class="st3"></path></g><g class="st1"><path d="M250.8 226.5v.9c0 .2-.1.4-.4.6v-.9c.2-.1.4-.3.4-.6zM250.3 227.1v.9l-.4.2v-.8zM249.9 227.4v.8l-.1.1v-.9zM233.4 227.7v-.9c0 .2.1.4.4.6v.9c-.3-.1-.4-.4-.4-.6zM249.8 227.4v.9l-7 4.1v-.9zM240.8 231.5v.9l-7-4.1v-.8zM242.8 231.5v.9c-.6.3-1.5.3-2 0v-.9c.6.3 1.5.3 2 0z" class="st3"></path><path d="M250.3 226c.6.3.6.8 0 1.2l-.4.3h-.1l-7 4.1c-.6.3-1.5.3-2 0l-7-4c-.6-.3-.6-.9 0-1.2l7.5-4.4c.6-.3 1.5-.3 2 0l7 4z" class="st15"></path></g><g class="st1"><path d="M263 233.5v.9c0 .2-.1.4-.4.6v-.9c.3-.2.4-.4.4-.6zM262.6 234v.9l-.4.3v-.9zM262.2 234.3v.9h-.1v-.9zM245.7 234.7v-.9c0 .2.1.4.4.6v.9c-.3-.2-.4-.4-.4-.6z" class="st3"></path><path d="M262.1 234.3v.9l-7 4.1v-.9zM253.1 238.4v.9l-7-4.1v-.8zM255.1 238.4v.9c-.6.3-1.5.3-2 0v-.9c.5.3 1.5.3 2 0z" class="st3"></path><path d="M262.6 232.9c.6.3.6.9 0 1.2l-.4.2-.1.1-7 4.1c-.6.3-1.5.3-2 0l-7-4c-.6-.3-.6-.9 0-1.2l7.5-4.4c.6-.3 1.5-.3 2 0l7 4z" class="st15"></path></g><g class="st1"><path d="M276.1 241.1v.9c0 .2-.1.4-.4.6v-.9c.3-.2.4-.4.4-.6zM275.7 241.7v.8l-.4.3v-.9zM275.3 241.9v.9h-.1v-.8zM258.8 242.3v-.9c0 .2.1.4.4.6v.9c-.3-.2-.4-.4-.4-.6zM275.2 242v.8l-7 4.1v-.8zM266.2 246.1v.8l-7-4v-.9zM268.2 246.1v.9c-.6.3-1.5.3-2 0v-.9c.5.3 1.4.3 2 0z" class="st3"></path><path d="M275.7 240.5c.6.3.6.9 0 1.2l-.4.3h-.1l-7 4.1c-.6.3-1.5.3-2 0l-7-4c-.6-.3-.6-.9 0-1.2l7.5-4.4c.6-.3 1.5-.3 2 0l7 4z" class="st15"></path></g><g class="st1"><path d="M271.8 249.6v-.9c0-.2.1-.4.4-.5v.9c-.2.1-.4.3-.4.5zM288.7 248.7v.9c0 .2-.1.4-.4.6v-.9c.3-.2.4-.4.4-.6zM279.2 253.4v.8l-6.9-4v-.9z" class="st3"></path><path d="M278.8 253.6v.9l-7-4v-.9z" class="st3"></path><path d="M271.8 249.6v-.9c0 .2.1.4.4.6v.9c-.2-.2-.4-.4-.4-.6zM271.4 249.9v-.9c0 .2.1.4.4.6v.9c-.3-.2-.5-.4-.4-.6zM288.3 249.3v.8l-7 4.1v-.8zM281.3 253.4v.9c-.6.3-1.5.3-2 0v-.9c.5.3 1.4.3 2 0z" class="st3"></path><path d="M281.3 253.4v.8l-.5.3v-.9z" class="st3"></path><path d="M288.3 248.1c.6.3.6.9 0 1.2l-7 4.1c-.6.3-1.5.3-2 0l-7-4c-.5-.3-.6-.8-.1-1.1h.1l7-4.1c.6-.3 1.5-.3 2 0l7 3.9z" class="st15"></path><path d="M281.3 253.4l-.5.3c-.6.3-1.5.3-2 0l-7-4c-.6-.3-.6-.9 0-1.2l.4-.3c-.5.3-.5.8.1 1.1l7 4c.5.4 1.4.4 2 .1z" class="st3"></path><path d="M280.8 253.6v.9c-.6.3-1.5.3-2 0v-.9c.5.4 1.4.4 2 0z" class="st3"></path></g><g class="st1"><path d="M292 260.4v.8l-8.3-4.8v-.8z" class="st3"></path><path d="M283.6 256.3v-.9c0-.2.3-.4.7-.7v.9c-.4.3-.7.6-.7.7z" class="st3"></path><path d="M283.6 256.3v-.9s0 .1.1.1v.9c-.1 0-.1 0-.1-.1zM301.1 255.2v.9c0 .2-.3.4-.7.7v-.9c.4-.2.7-.5.7-.7zM283.1 256.6v-.9s0 .1.1.1v.9c-.1 0-.1 0-.1-.1zM300.4 255.9v.9l-7.1 4v-.8z" class="st3"></path><path d="M293.3 260v.9c-.6.3-1.2.5-1.4.4v-.9c.3.1.9-.1 1.4-.4z" class="st3"></path><path d="M293.3 260v.8l-.5.3v-.8z" class="st3"></path><path d="M301 255.1c.2.1-.1.5-.7.8l-7 4.1c-.6.3-1.2.5-1.4.4l-8.3-4.8c-.2-.1.1-.5.7-.8l7-4.1c.6-.3 1.2-.5 1.4-.4l8.3 4.8z" class="st15"></path><path d="M291.5 260.7v.8l-8.3-4.8v-.8z" class="st3"></path><path d="M293.3 260l-.5.3c-.6.3-1.2.5-1.4.4l-8.3-4.8c-.2-.1.1-.5.7-.8l.5-.3c-.6.3-.9.7-.7.8l8.3 4.8c.3.1.9-.1 1.4-.4z" class="st3"></path><path d="M292.8 260.3v.9c-.6.3-1.2.5-1.4.4v-.9c.3.1.9-.1 1.4-.4z" class="st3"></path></g><g class="st1"><path d="M126.6 180.2c-.2.1-.3.3-.3.5v-.9c0-.2.1-.4.3-.5v.9zM141 188.7v.9l-14.3-8.3v-.8z" class="st3"></path><path d="M140.5 189v.9l-14.3-8.3v-.8z" class="st3"></path><path d="M126.3 180.7v-.9c0 .2.1.4.4.6v.9c-.3-.1-.4-.3-.4-.6zM125.8 181v-.9c0 .2.1.4.4.6v.9c-.3-.1-.4-.4-.4-.6zM150.4 184v.9c0 .2-.1.4-.4.6v-.9c.3-.1.4-.3.4-.6zM150 184.6v.9l-.4.2v-.8zM143 188.7v.9c-.6.3-1.5.3-2 0v-.9c.5.3 1.4.3 2 0z" class="st3"></path><path d="M149.5 184.9v.9l-7 4.1v-.9z" class="st3"></path><path d="M149.6 184.9v.8l-6.6 3.9v-.9z" class="st3"></path><path d="M149.6 184.9v.9s-.1 0-.1.1v-.9l.1-.1z" class="st3"></path><path d="M150 183.5c.6.3.6.9 0 1.2l-.4.2-6.6 3.9c-.6.3-1.5.3-2 0l-14.3-8.2c-.5-.3-.6-.8-.1-1.1 0 0 .1 0 .1-.1l7-4.1c.6-.3 1.5-.3 2 0l14.3 8.2z" class="st15"></path><path d="M149.6 184.9s-.1 0-.1.1l-7 4.1c-.6.3-1.5.3-2 0l-14.3-8.2c-.6-.3-.6-.8 0-1.2l.4-.2c-.4.3-.4.8.1 1.1l14.3 8.2c.6.3 1.5.3 2 0l6.6-3.9z" class="st3"></path><path d="M142.5 189v.9c-.6.3-1.5.3-2 0v-.9c.5.3 1.4.3 2 0z" class="st3"></path></g><g class="st1"><path d="M145.1 191.6v-.9c0-.2.1-.4.4-.6v.9c-.2.2-.4.4-.4.6zM152.5 195.4v.8l-7-4 .1-.8z" class="st3"></path><path d="M152 195.7v.8l-7-4 .1-.9z" class="st3"></path><path d="M145.1 191.6v-.9c0 .2.1.4.4.6v.9c-.2-.2-.4-.4-.4-.6z" class="st3"></path><path d="M161.6 190.1c.6.3.6.9 0 1.2l-7 4.1c-.6.3-1.5.3-2 0l-7-4c-.6-.3-.6-.9 0-1.2l6.5-3.8.5-.3c.6-.3 1.5-.3 2 0l7 4z" class="st15"></path><path d="M162 190.7v.9c0 .2-.1.4-.4.6v-.9c.3-.2.4-.4.4-.6zM144.6 191.9v-.9c0 .2.1.4.4.6v.9c-.2-.2-.4-.4-.4-.6zM161.6 191.3v.9l-7 4v-.8zM154.6 195.4v.9c-.6.3-1.5.3-2 0v-.9c.5.3 1.4.3 2 0z" class="st3"></path><path d="M154.6 195.4v.8l-.5.3v-.8z" class="st3"></path><path d="M152.1 186.4l-6.5 3.8c-.6.3-.6.8 0 1.2l7 4c.6.3 1.5.3 2 0l-.5.3c-.6.3-1.5.3-2 0l-7-4c-.6-.3-.6-.9 0-1.2l7-4.1z" class="st3"></path><path d="M154.1 195.7v.9c-.6.3-1.5.3-2 0v-.9c.5.3 1.4.3 2 0z" class="st3"></path></g><g class="st1"><path d="M156.8 198.3v-.9c0-.2.1-.4.4-.6v.9c-.3.2-.4.4-.4.6zM164.2 202.1v.9l-7-4.1v-.8z" class="st3"></path><path d="M163.7 202.4v.9l-7-4.1v-.8z" class="st3"></path><path d="M156.8 198.3v-.9c0 .2.1.4.4.6v.9c-.3-.1-.4-.3-.4-.6z" class="st3"></path><path d="M173.2 196.8c.6.3.6.9 0 1.2l-.4.2-6.6 3.9c-.6.3-1.5.3-2 0l-7-4c-.6-.3-.6-.8 0-1.2l6.5-3.8.5-.3c.6-.3 1.5-.3 2 0l7 4z" class="st15"></path><path d="M173.6 197.4v.9c0 .2-.1.4-.4.6v-.9c.3-.1.4-.3.4-.6zM173.2 198v.9l-.4.2v-.8zM166.2 202.1v.9c-.6.3-1.5.3-2 0v-.9c.5.3 1.4.3 2 0z" class="st3"></path><path d="M172.7 198.3v.9l-7 4.1v-.9z" class="st3"></path><path d="M172.8 198.3v.8l-6.6 3.9v-.9z" class="st3"></path><path d="M172.8 198.3v.9s-.1 0-.1.1v-.9l.1-.1zM156.3 198.6v-.9c0 .2.1.4.4.6v.9c-.3-.1-.4-.4-.4-.6z" class="st3"></path><path d="M172.8 198.3s-.1 0-.1.1l-7 4.1c-.6.3-1.5.3-2 0l-7-4c-.6-.3-.6-.9 0-1.2l7-4.1-6.5 3.8c-.6.3-.6.8 0 1.2l7 4c.6.3 1.5.3 2 0l6.6-3.9z" class="st3"></path><path d="M165.7 202.4v.9c-.6.3-1.5.3-2 0v-.9c.5.3 1.5.3 2 0z" class="st3"></path></g><g class="st1"><path d="M168.8 205.3v-.9c0-.2.1-.4.4-.6v.9c-.3.2-.4.4-.4.6zM176.2 209.1v.8l-7-4v-.9z" class="st3"></path><path d="M175.7 209.3v.9l-7-4v-.9z" class="st3"></path><path d="M168.8 205.3v-.9c0 .2.1.4.4.6v.9c-.3-.2-.4-.4-.4-.6z" class="st3"></path><path d="M185.3 203.8c.6.3.6.9 0 1.2l-7 4.1c-.6.3-1.5.3-2 0l-7-4c-.6-.3-.6-.9 0-1.2l6.5-3.8.5-.3c.6-.3 1.5-.3 2 0l7 4z" class="st15"></path><path d="M185.7 204.4v.9c0 .2-.1.4-.4.6v-.9c.2-.2.4-.4.4-.6zM168.3 205.6v-.9c0 .2.1.4.4.6v.9c-.3-.2-.4-.4-.4-.6z" class="st3"></path><path d="M185.3 205v.8l-7.1 4.1v-.8zM178.2 209.1v.9c-.6.3-1.5.3-2 0v-.9c.6.3 1.5.3 2 0z" class="st3"></path><path d="M178.2 209.1v.8l-.5.3v-.9z" class="st3"></path><path d="M175.7 200.1l-6.5 3.8c-.6.3-.6.8 0 1.2l7 4c.6.3 1.5.3 2 0l-.5.3c-.6.3-1.5.3-2 0l-7-4c-.6-.3-.6-.9 0-1.2l7-4.1z" class="st3"></path><path d="M177.7 209.3v.9c-.6.3-1.5.3-2 0v-.9c.6.4 1.5.4 2 0z" class="st3"></path></g><g class="st1"><path d="M180.5 212.1v-.9c0-.2.1-.4.4-.6v.9c-.2.1-.4.3-.4.6zM223.7 236.5v.8l-42.8-24.7v-.8z" class="st3"></path><path d="M223.2 236.8v.8l-42.8-24.7v-.8z" class="st3"></path><path d="M180.5 212.1v-.9c0 .2.1.4.4.6v.9c-.2-.2-.4-.4-.4-.6z" class="st3"></path><path d="M232.7 231.2c.6.3.6.9 0 1.2l-.4.2-6.6 3.9c-.6.3-1.5.3-2 0L181 211.8c-.6-.3-.6-.8 0-1.2l6.5-3.8.5-.3c.6-.3 1.5-.3 2 0l42.7 24.7z" class="st15"></path><path d="M180 212.3v-.9c0 .2.1.4.4.6v.9c-.2-.1-.4-.3-.4-.6zM233.2 231.8v.9c0 .2-.1.4-.4.6v-.9c.2-.2.4-.4.4-.6zM232.7 232.4v.8l-.4.3v-.9zM225.7 236.5v.9c-.6.3-1.5.3-2 0v-.9c.5.3 1.5.3 2 0z" class="st3"></path><path d="M232.2 232.7v.8l-7 4.1v-.8z" class="st3"></path><path d="M232.3 232.6v.9l-6.6 3.8v-.8z" class="st3"></path><path d="M232.3 232.6v.9s-.1 0-.1.1v-.9c.1 0 .1-.1.1-.1zM225.2 236.8v.9c-.6.3-1.5.3-2 0v-.9c.5.3 1.5.3 2 0z" class="st3"></path><path d="M232.3 232.6s-.1 0-.1.1l-7 4.1c-.6.3-1.5.3-2 0l-42.7-24.7c-.6-.3-.6-.9 0-1.2l7-4.1-6.5 3.8c-.6.3-.6.8 0 1.2l42.7 24.7c.6.3 1.5.3 2 0l6.6-3.9z" class="st3"></path></g><g class="st1"><path d="M228.1 239.5v-.9c0-.2.1-.4.4-.6v.9c-.2.2-.4.4-.4.6zM242.8 247.5v.9l-14.3-8.3v-.8z" class="st3"></path><path d="M242.3 247.8v.8l-14.3-8.2v-.8z" class="st3"></path><path d="M228.1 239.5v-.9c0 .2.1.4.4.6v.9c-.2-.1-.4-.4-.4-.6z" class="st3"></path><path d="M251.8 242.2c.6.3.6.9 0 1.2l-.4.2-6.6 3.9c-.6.3-1.5.3-2 0l-14.3-8.2c-.6-.3-.6-.9 0-1.2l6.5-3.8.5-.3c.6-.3 1.5-.3 2 0l14.3 8.2z" class="st15"></path><path d="M227.6 239.8v-.9c0 .2.1.4.4.6v.9c-.2-.1-.4-.4-.4-.6zM252.3 242.8v.9c0 .2-.1.4-.4.6v-.9c.2-.1.4-.4.4-.6zM251.8 243.4v.9l-.3.2v-.9zM244.8 247.5v.9c-.6.3-1.5.3-2 0v-.9c.6.3 1.5.3 2 0z" class="st3"></path><path d="M251.3 243.7v.9l-7 4v-.8z" class="st3"></path><path d="M251.5 243.6v.9l-6.7 3.9v-.9z" class="st3"></path><path d="M251.5 243.6v.9s-.1 0-.1.1v-.9l.1-.1zM244.3 247.8v.9c-.6.3-1.5.3-2 0v-.9c.6.3 1.5.3 2 0z" class="st3"></path><path d="M251.5 243.6s-.1 0-.1.1l-7 4.1c-.6.3-1.5.3-2 0l-14.3-8.2c-.6-.3-.6-.9 0-1.2l7-4.1-6.5 3.8c-.6.3-.6.8 0 1.2l14.3 8.2c.6.3 1.5.3 2 0l6.6-3.9z" class="st3"></path></g><g class="st1"><path d="M247 250.4v-.9c0-.2.1-.4.4-.6v.9c-.3.2-.4.4-.4.6zM254.4 254.2v.8l-7-4v-.9z" class="st3"></path><path d="M253.9 254.5v.8l-7-4v-.9z" class="st3"></path><path d="M247 250.4v-.9c0 .2.1.4.4.6v.9c-.3-.2-.4-.4-.4-.6z" class="st3"></path><path d="M263.4 248.9c.6.3.6.9 0 1.2l-7 4.1c-.6.3-1.5.3-2 0l-7-4c-.6-.3-.6-.8 0-1.2l6.5-3.8.5-.3c.6-.3 1.5-.3 2 0l7 4z" class="st15"></path><path d="M263.8 249.5v.9c0 .2-.1.4-.4.6v-.9c.3-.2.4-.4.4-.6zM246.5 250.7v-.9c0 .2.1.4.4.6v.9c-.3-.2-.4-.4-.4-.6zM263.4 250.1v.9l-7 4v-.8zM256.4 254.2v.9c-.6.3-1.5.3-2 0v-.9c.5.3 1.4.3 2 0z" class="st3"></path><path d="M256.4 254.2v.8l-.5.3v-.8z" class="st3"></path><path d="M253.9 245.2l-6.5 3.8c-.6.3-.6.8 0 1.2l7 4c.6.3 1.5.3 2 0l-.5.3c-.6.3-1.5.3-2 0l-7-4c-.6-.3-.6-.9 0-1.2l7-4.1z" class="st3"></path><path d="M255.9 254.5v.9c-.6.3-1.5.3-2 0v-.9c.5.3 1.4.3 2 0z" class="st3"></path></g><g class="st1"><path d="M258.9 256.6c-.2.1-.3.3-.3.5v-.9c0-.2.1-.4.3-.5v.9zM275.5 256.2v.9c0 .2-.1.4-.4.6v-.9c.2-.1.4-.4.4-.6zM266 260.9v.9l-7-4.1v-.8z" class="st3"></path><path d="M265.5 261.2v.8l-7-4v-.8z" class="st3"></path><path d="M258.6 257.1v-.9c0 .2.1.4.4.6v.9c-.3-.1-.4-.4-.4-.6zM275.1 256.8v.9l-.4.2v-.9zM268 260.9v.9c-.6.3-1.5.3-2 0v-.9c.6.3 1.5.3 2 0z" class="st3"></path><path d="M274.6 257.1v.9l-7.1 4v-.8z" class="st3"></path><path d="M274.7 257v.9l-6.7 3.9v-.9z" class="st3"></path><path d="M274.7 257v.9s-.1 0-.1.1v-.9l.1-.1zM258.1 257.4v-.9c0 .2.1.4.4.6v.9c-.3-.1-.4-.4-.4-.6z" class="st3"></path><path d="M275.1 255.6c.6.3.6.9 0 1.2l-.4.2-6.6 3.9c-.6.3-1.5.3-2 0l-7-4c-.5-.3-.6-.8-.1-1.1 0 0 .1 0 .1-.1l7-4.1c.6-.3 1.5-.3 2 0l7 4z" class="st15"></path><path d="M274.7 257s-.1 0-.1.1l-7 4.1c-.6.3-1.5.3-2 0l-7-4c-.6-.3-.6-.9 0-1.2l.4-.2c-.4.3-.4.8.1 1.1l7 4c.6.3 1.5.3 2 0l6.6-3.9z" class="st3"></path><path d="M267.5 261.2v.9c-.6.3-1.5.3-2 0v-.9c.6.3 1.5.3 2 0z" class="st3"></path></g><g class="st1"><path d="M270.6 264.1v-.9c0-.2.1-.4.4-.6v.9c-.2.2-.4.4-.4.6zM278 267.8v.9l-6.9-4v-.9z" class="st3"></path><path d="M277.5 268.1v.9l-6.9-4v-.9z" class="st3"></path><path d="M270.6 264.1v-.9c0 .2.1.4.4.6v.9c-.2-.2-.4-.4-.4-.6z" class="st3"></path><path d="M287.1 262.6c.6.3.6.9 0 1.2l-7 4.1c-.6.3-1.5.3-2 0l-7-4c-.6-.3-.6-.9 0-1.2l6.5-3.8.5-.3c.6-.3 1.5-.3 2 0l7 4z" class="st15"></path><path d="M287.5 263.2v.9c0 .2-.1.4-.4.6v-.9c.3-.2.4-.4.4-.6zM270.1 264.4v-.9c0 .2.1.4.4.6v.9c-.2-.2-.4-.4-.4-.6zM287.1 263.8v.8l-7 4.1v-.9zM280.1 267.8v.9c-.6.3-1.5.3-2 0v-.9c.5.4 1.4.4 2 0z" class="st3"></path><path d="M280.1 267.8v.9l-.5.3v-.9z" class="st3"></path><path d="M277.6 258.8l-6.5 3.8c-.6.3-.6.8 0 1.2l7 4c.6.3 1.5.3 2 0l-.5.3c-.6.3-1.5.3-2 0l-7-4c-.6-.3-.6-.9 0-1.2l7-4.1z" class="st3"></path><path d="M279.6 268.1v.9c-.6.3-1.5.3-2 0v-.9c.5.4 1.4.4 2 0z" class="st3"></path></g><g><path d="M332 246.8l.1 3.4 7-4.1v-3.4z" class="st16"></path></g><g><path d="M321.1 252.8v3.4l7-4.1v-3.3z" class="st16"></path></g><g><path d="M198.6 254.7c-2.5-4.7-7.4-5.5-7.4-5.5s-10.8 7.5-12.5 12.1c-1.8 4.6-6.2 38.5-6.2 38.5-1.5 2-8.7 5.2-11.9 6 .9-.2 1.9-.6 3-1 0 0 .8 2.7 4.2 2.3 3.5-.3 5.4-1.8 6.8-1.7 1.4.1 3.3-2.8 3.1-4.3 2-6.1 6.6-20.9 8.8-28.1 0-.9.1-1.6.3-2-.1 0-1.9-6.2 11.8-16.3" class="st17"></path><path d="M186.7 271c2-4.7 13-13.3 13-13.3-.3-1.2-.6-2.1-1.1-3-13.7 10.1-11.9 16.3-11.9 16.3" class="st18"></path><path d="M207.3 263.4c.4-.5 1-1.6 1.5-2.9-2.9-2.2-6.4-3.5-9.1-2.7 0 0-11 8.6-13 13.3-.2.5-.3 1.2-.3 2-.3 8.2 5.4 32.4 5.7 33.1.3 2.2-2.3 5.3-4.3 8.2 0 1.8 1.6 2.6 3.2 2.4 1.6-.2 3.7-4.4 5-6.2 1.3-1.8 1.5-4.6 1.5-4.6-.1-5-1.8-27.4-1.9-28.8 1.3-1.4 17.9-10.8 17.9-10.8-.3-.8-.7-1.5-1.2-2.2-1.9.7-5.5-.1-5-.8M201.2 220.6c-1.4-.1-2.5-.4-3.3-.8l-3.4 6.4s-12.8 7.6-14.9 8.3c-2.2.7-3.5 1-4.7 3.1-1.2 2.1-3 2.8-3.7 3.2-.7.4 3.3 2.8 5.6 1.4s3-2.8 4.1-3.2c1.1-.4 1.8-2 1.8-2s15-5.5 16.3-6.9c.5-.6 1.7-2.3 2.9-4.2-.8-1.6-.9-3.5-.7-5.3" class="st17"></path><path d="M215.7 255.4c-.7.7-1.4 6.2-2.4 8.1-.2.4-.5.6-1 .8.5.7.9 1.5 1.2 2.2 4.6-2.3 11-8.1 11.4-12.7.2-1.7-.1-4.3-.5-7.1-3.7 3.8-8.2 8.2-8.7 8.7M231.9 232c-.9-5-1.9-6.6-2.2-9.1-.2-1.4-.9-4.1-3.3-6.8-.8 2.4-2 5.2-1.4 8.2.8 4-1.8 6.7-7 8.7.6-1.2.9-4-.9-6.4-1.4-1.8-1.6-5.9-.8-9.2-2.2 1.9-5.1 3.7-7.2 4.9-1.1-7.8 1.3-13.5 1.3-13.5h.1c-1.7-.2-2.7-1.8-3.3-3.6-.7 0-1.4.2-2 .6-3.1 2.4-9.5 11.5-9.5 11.5s.5 1.5 2.3 2.5c.8.4 1.9.8 3.3.8-.2 1.8-.1 3.7.6 5.2.4.9 1.1 1.7 2 2.3 0 0 1.5.7 3.7.5.7 1.2 3.9 6 11.7 4.6-2.2 2.2-8.5 1.4-11.9-2.1-1.7-.4-2.7-.8-3.4-1.1.4 4.1 0 8.1-2.4 10.9-2.7 3.2-10.5 8.3-10.5 8.3s4.9.8 7.4 5.5c.5.9.8 1.9 1.1 3 2.7-.8 6.2.5 9.1 2.7.3-.9.5-1.8.5-2.8-.1-2.4 1.4-4.5 2.9-4.8 0 0 10.1-13.1 10.5-13.8.1-.1.1-.4.1-.9-.4-2.2-.5-4-.1-4.8.6.3 1.3.5 2.2.7.5.1 1 .1 1.6.1 2 0 3.6-.7 3.9-.8.7-.2 1.2-.6 1.6-1.3" class="st19"></path><path d="M219.3 233.3c-7.8 1.4-11-3.4-11.7-4.6-2.2.1-3.7-.5-3.7-.5.1.6.2 1.3.2 1.9.6.3 1.7.8 3.4 1.1 3.3 3.5 9.6 4.2 11.8 2.1" class="st20"></path><path d="M217.8 206.1v-.3c-1.4 1.2-3.7 2.4-6.5 2.9h-1s-2.4 5.7-1.3 13.5c2.1-1.2 5-3 7.2-4.9.2-.9.5-1.7.8-2.4 1.5-2.9 1-7.6.8-8.8" class="st18"></path><path d="M216.1 194.2l.2 1.3c.5 1.8 1.7 4.1 2.7 5 3.2-3.6 3.3 3 .4 3.1-.2.6-.8 1.4-1.6 2.2v.3c.2 1.2.7 5.9-.7 8.8-.3.7-.6 1.5-.8 2.4-.8 3.3-.6 7.4.8 9.2 1.8 2.3 1.6 5.2.9 6.4 5.2-2 7.8-4.6 7-8.7-.6-2.9.7-5.8 1.4-8.2.2-.6.3-1.1.4-1.6 3-12.3-2-24.4-4-25.5-7.9-7.5-18.7.1-16.6 6.4 4.5.2 8.6-.7 9.9-1.1" class="st21"></path><path d="M210.5 208.7h.9c2.8-.4 5-1.6 6.5-2.9.9-.8 1.4-1.5 1.6-2.2 2.9-.1 2.8-6.7-.4-3.1-1-.9-2.2-3.2-2.7-5-.1-.5-.2-1-.2-1.3-1.4.4-5.4 1.3-9.9 1.1 0 0 0 3.2.2 4.6-.1.7 0 3.1.7 5.2.6 1.8 1.6 3.4 3.3 3.6" class="st17"></path><path d="M190.9 316.7c-1.5.2-3.2-.6-3.2-2.4v-.1c-.7 1.1-1.4 2.1-1.8 3.1 0 0 0 .1-.1.1-.6 1.5-.5 2.7.1 3.6l.6.6c.8.5 2.1.6 3.5-.2.2-.1.4-.2.6-.4 1.6-1.1 2.8-3.1 3.9-4.9.1-.2.2-.3.3-.5.3-.5.6-.9.9-1.3.1-.1.1-.2.2-.3.4-.5.7-.9 1.1-1.2.4-.3.7-.7.9-1.2.3-.6.4-1.2.4-1.8 0-.3 0-.6-.1-1-.1-.5-.2-1-.3-1.4l-.3-.9c-.1-.3-.2-.5-.3-.7 0 0-.3 2.8-1.5 4.6-1.2 2-3.3 6.1-4.9 6.3M174.5 305.5c-1.4-.1-3.3 1.4-6.8 1.7-3.5.3-4.2-2.3-4.2-2.3-1.1.4-2.1.8-3 1-.2.1-.4.1-.6.1-2.9.5-.3 5.7 5.2 5.2 2.7-.3 4.6-.9 6.1-1.5.4-.1.7-.3 1.1-.4.7-.3 1.3-.5 1.8-.6.3-.1.6-.1.9-.1.7 0 1.5-.3 2.1-.8 1.4-1.2 2.2-3.5.5-6.5.3 1.3-1.7 4.2-3.1 4.2" class="st22"></path><path d="M178.2 254.2v-.7h.4c.1-.1.1-.1.2-.1l16-9.2c.7-.4 1.8-.5 2.4-.1l23 13.3.7.1v.7c0 .3-.2.6-.6.8l-16 9.2c-.7.4-1.8.5-2.4.1l-23.3-13.5c-.2-.2-.4-.4-.4-.6z" class="st23"></path><path d="M178.6 254l23.3 13.5c.6.4 1.7.3 2.4-.1l16-9.2c.7-.4.8-1 .2-1.4l-23.3-13.5c-.6-.4-1.7-.3-2.4.1l-16 9.2c-.7.4-.8 1-.2 1.4" class="st24"></path><path d="M198.7 250.8l6.1 3.5c.2.1.4.1.6 0l4.2-2.4c.2-.1.2-.3 0-.4l-6.1-3.5c-.2-.1-.4-.1-.6 0l-4.2 2.4c-.2.2-.2.3 0 .4" class="st25"></path><path d="M187.2 258l13.6 7.9c.4.2 1 .2 1.4-.1l9.3-5.4c.4-.2.5-.6.1-.8l-13.6-7.9c-.4-.2-1-.2-1.4.1l-9.3 5.4c-.4.3-.4.6-.1.8" class="st26"></path><path d="M174.2 230.5l.5-.3c.1-.1.4-.1.6 0l23.1 13.4c.6.4 1.2 1.4 1.4 2.3l3.6 20.4c.1.5 0 .8-.1 1h-.1-.1l-.4.3-.4-.5-23-13.3c-.6-.4-1.2-1.4-1.4-2.3l-3.6-20.4v-.4l-.1-.2z" class="st27"></path><path d="M179 254.2l23.1 13.4c.6.4 1-.1.8-1l-3.6-20.4c-.2-.9-.8-1.9-1.4-2.3l-23.1-13.4c-.6-.4-1 .1-.8 1l3.6 20.4c.2.9.8 1.9 1.4 2.3" class="st23"></path><path d="M185.9 249.5c1.1 1.3 2.6 1.8 3.2 1.3.7-.6.3-2.1-.8-3.4-1.1-1.3-2.6-1.8-3.2-1.3-.6.7-.3 2.2.8 3.4" class="st2"></path><path d="M224.9 234.2c-1.4-.2-2.2-.7-2.2-.7s.2 3.2.1 4.8c0 .4-.1.7-.1.9-.4.6-10.5 13.8-10.5 13.8-1.4.3-3 2.4-2.9 4.8 0 .9-.2 1.9-.5 2.8-.5 1.3-1.1 2.4-1.5 2.9-.5.7 3.1 1.5 5 .8.4-.2.8-.4 1-.8 1-1.9 1.7-7.3 2.4-8.1.5-.4 5-4.9 8.6-8.7 2.2-2.3 4-4.4 4.4-5.2 1-2.2 1.7-8 1.7-8h-.1c-.3.1-2 .8-3.9.8-.6 0-1.1-.1-1.5-.1" class="st17"></path></g><g><g class="st1"><defs><path id="SVGID_9_" d="M91.8 108.9v-4.3c0 .8.5 1.6 1.5 2.2v4.3c-1-.7-1.5-1.5-1.5-2.2z" class="st1"></path></defs><use fill="#acc9ef" overflow="visible" xlink:href="#SVGID_9_"></use><clipPath id="SVGID_10_"><use overflow="visible" xlink:href="#SVGID_9_"></use></clipPath><g class="st28"><path d="M93.3 106.7v4.3c-1-.6-1.5-1.4-1.5-2.2v-4.3c0 .9.5 1.7 1.5 2.2" class="st23"></path></g></g><path d="M177.9 117.7l-.1 4.3-28.9 16.8v-4.2zM141.5 134.6v4.2L93.3 111v-4.3z" class="st23"></path><g class="st1"><defs><path id="SVGID_11_" d="M148.9 134.6v4.3c-2 1.2-5.3 1.2-7.4 0v-4.3c2 1.1 5.4 1.1 7.4 0z" class="st1"></path></defs><use fill="#acc9ef" overflow="visible" xlink:href="#SVGID_11_"></use><clipPath id="SVGID_12_"><use overflow="visible" xlink:href="#SVGID_11_"></use></clipPath><g class="st29"><path d="M148.9 134.6v4.3c-.3.2-.7.4-1.1.5v-4.3c.4-.2.7-.3 1.1-.5M147.8 135.1v4.3c-.3.1-.6.2-1 .2v-4.3c.3-.1.6-.1 1-.2M146.8 135.3v4.3c-.2 0-.4.1-.7.1v-4.3c.2 0 .4-.1.7-.1M146.1 135.4v4.3h-.6v-4.3h.6M145.5 135.4v4.3h-.5v-4.3h.5M145 135.4v4.3h-.5v-4.3h.5M144.5 135.4v4.3c-.2 0-.3 0-.5-.1v-4.3c.1.1.3.1.5.1M143.9 135.4v4.3c-.2 0-.3-.1-.5-.1v-4.3c.2 0 .4 0 .5.1M143.4 135.3v4.3c-.2 0-.4-.1-.5-.1v-4.3c.2 0 .3 0 .5.1M142.9 135.1v4.3c-.2-.1-.4-.1-.6-.2v-4.3c.2.1.4.2.6.2M142.2 134.9v4.3c-.3-.1-.5-.2-.7-.4v-4.3c.2.2.5.3.7.4" class="st23"></path></g></g><g><path d="M177.8 113.5c2 1.2 2 3.1 0 4.3l-29 16.8c-2 1.2-5.3 1.2-7.4 0l-48.2-27.8c-2-1.2-2-3.1 0-4.3l29-16.8c2-1.2 5.3-1.2 7.4 0l48.2 27.8z" class="st30"></path></g><g><g class="st1"><path d="M158.9 121.5l-2.8 1.7-41.8-24.1 2.9-1.7zM135.7 121.8l-2.8 1.6-30.4-17.5 2.9-1.6zM153 125l-2.8 1.6-41.8-24.1 2.9-1.6z" class="st31"></path></g><path d="M164.8 118.1l-2.8 1.7-41.8-24.1 2.9-1.7zM170.7 114.7l-2.8 1.6-41.8-24.1 2.8-1.6z" class="st31"></path></g></g><g><path d="M86.4 279.3c2 1.2 2 3.1 0 4.3l-29 16.8c-2 1.2-5.3 1.2-7.4 0L1.9 272.6c-2-1.2-2-3.1 0-4.3l29-16.8c2-1.2 5.3-1.2 7.4 0l48.1 27.8z" class="st0"></path></g><g><g class="st1"><defs><path id="SVGID_13_" d="M10.2 250.2v-4.3c0 .8.5 1.6 1.5 2.2v4.3c-1-.6-1.5-1.4-1.5-2.2z" class="st1"></path></defs><use fill="#acc9ef" overflow="visible" xlink:href="#SVGID_13_"></use><clipPath id="SVGID_14_"><use overflow="visible" xlink:href="#SVGID_13_"></use></clipPath><g class="st32"><path d="M11.7 248.1v4.3c-1-.6-1.5-1.4-1.5-2.2v-4.3c0 .8.5 1.6 1.5 2.2" class="st23"></path></g></g><path d="M96.3 259.1l-.1 4.3-28.9 16.8v-4.3zM59.9 275.9v4.3l-48.2-27.8v-4.3z" class="st23"></path><g class="st1"><defs><path id="SVGID_15_" d="M67.3 275.9v4.3c-2 1.2-5.3 1.2-7.4 0v-4.3c2 1.2 5.4 1.2 7.4 0z" class="st1"></path></defs><use fill="#acc9ef" overflow="visible" xlink:href="#SVGID_15_"></use><clipPath id="SVGID_16_"><use overflow="visible" xlink:href="#SVGID_15_"></use></clipPath><g class="st33"><path d="M67.3 275.9v4.3c-.3.2-.7.4-1.1.5v-4.3c.4-.1.8-.3 1.1-.5M66.2 276.4v4.3c-.3.1-.6.2-1 .2v-4.3c.3 0 .6-.1 1-.2M65.2 276.7v4.3c-.2 0-.4.1-.7.1v-4.3c.2-.1.5-.1.7-.1M64.5 276.8v4.3h-.6v-4.3h.6M63.9 276.8v4.3h-.5v-4.3h.5M63.4 276.8v4.3h-.5v-4.3h.5M62.9 276.8v4.3c-.2 0-.3 0-.5-.1v-4.3c.1 0 .3.1.5.1M62.4 276.7v4.3c-.2 0-.3-.1-.5-.1v-4.3c.1.1.3.1.5.1M61.8 276.6v4.3c-.2 0-.4-.1-.5-.1v-4.3c.2.1.3.1.5.1M61.3 276.5v4.3c-.2-.1-.4-.1-.6-.2v-4.3c.2.1.4.1.6.2" class="st23"></path><path d="M60.7 276.3v4.3c-.3-.1-.5-.2-.7-.4v-4.3c.1.2.4.3.7.4" class="st23"></path></g></g><g><path d="M96.2 254.8c2 1.2 2 3.1 0 4.3l-29 16.8c-2 1.2-5.3 1.2-7.4 0l-48.2-27.8c-2-1.2-2-3.1 0-4.3l29-16.8c2-1.2 5.3-1.2 7.4 0l48.2 27.8z" class="st30"></path></g><g><g class="st1"><path d="M77.3 262.9l-2.8 1.7-41.8-24.1 2.9-1.7zM54.1 263.2l-2.8 1.6-30.4-17.5 2.9-1.6zM71.4 266.3l-2.8 1.7-41.8-24.1 2.9-1.7z" class="st31"></path></g><path d="M83.2 259.5l-2.8 1.6L38.6 237l2.9-1.6zM89.1 256.1l-2.8 1.6-41.8-24.1 2.9-1.6z" class="st31"></path></g></g><g><path d="M25.5 136c.2 1.8.4 4.3.3 6-.1 2.9-.6 6.4-.6 9.7 0 3.3 1 13.3 1 15.3s.5 6.4.3 8.5c-.2 1.9-.9 3.4-1 4.7 0-.1 0-.2.1-.3 0 .1.1 1.2 1.7 1.6 1.7.5 6.4 1.9 7.5 2 0-.7.8-2.7 2.2-3-.7-.3-1.4-.6-2.1-1.1-1.7-1.2-3.2-2.2-3.2-3.7-.1-6.1 1.2-15.5 1.9-20.5.9-5.9 1.4-12.9 1.8-14.4.4-1.5 2.2-10.1 2.2-10.1-3.1 3.5-7.8 4.9-12.1 5.3M14.5 135.6s1.2 12.2 1 13.3c-.2 1.1-.2 12.9.5 22.2.6 9.3 0 13.6 0 15.5v.7s.5 3.3 1.4 3.7c.7-.5 2.7-1.4 4.9-1.1.1-.1.2-.3.1-1.4.1.3.2.7.3 1.1-.6-2.5-1.6-4.8-1.9-6.8-.3-2.4 0-7.2 1.3-15.6 1.3-8.4 1.3-19.8 1.6-21.8.2-1.4.9-6.3 1.3-9.2-5.7.4-10.5-.6-10.5-.6" class="st34"></path><path d="M34.7 183.5c-1.2-.1-5.8-1.6-7.5-2-1.6-.4-1.7-1.4-1.7-1.6 0 .1 0 .2-.1.3v.4c0 .4-.1.9-.1 1.4 0 1 .2 2 1.3 2.3 1.6.4 2-.1 3.7.3 1.2.3 3.5 1.2 5.6 1.6.4.1.7.1 1 .1h1c.3 0 .6-.1.9-.1 2-.3 3.2-1.1 3.4-2.2 0-.3-.2-.5-.6-.9-.4-.4-1-.8-1.8-1.3-.2-.1-.4-.3-.6-.4-.1 0-.2-.1-.2-.1-.1-.1-.3-.1-.4-.2-.1-.1-.2-.1-.3-.2-.1 0-.2-.1-.3-.1-.3-.1-.6-.3-.9-.4-1.6.3-2.4 2.4-2.4 3.1M22.3 189.9c-2.3-.3-4.2.6-4.9 1.1-1-.3-1.4-3.7-1.4-3.7V189.7c0 .2 0 .4.1.6v.1c0 .2.1.4.1.6 0 .2.1.4.1.6v.1c0 .2.1.4.2.6v.1c.1.2.1.4.2.6v.1l.3.6v.1c.1.2.2.4.3.5.1.2.3.3.4.5l.1.1.4.4s.1 0 .1.1c.2.1.3.2.5.3 0 0 .1 0 .1.1l.6.3h.1c.2.1.5.1.7.2 1.7.2 3-2.5 2.5-5.4l-.3-1.2v-.2c-.1-.4-.2-.7-.3-1.1.3 1.2.2 1.4.1 1.5" class="st35"></path><path d="M34.4 77s3.4 4.8 4.1 8h.1l1.2-.4s.6-4-.5-8.5-7-3.7-7-3.7c0 .1.1.2.1.4.2.8 1.1 2.4 2 4.2" class="st36"></path><path d="M38.2 85.1c.1 0 .2 0 .3-.1-.7-3.2-4.1-8-4.1-8 1.3 2.4 2.7 5.4 3.5 8.1h.3" class="st37"></path><path d="M40.6 128.9c1.2.4 3.3-1.7 4.3-2.7 1-1 .2-5.8-.5-7.9-.7-2.1-1-4.3-1.3-7.1-.4-2.8-3.5-15.4-3.7-17-.3-1.6.4-9.7.4-9.7l-1.2.4c-.2.1-.4.1-.6.2.6 2.2.7 4.2-.1 5.8-1.5 3.7-2 6.5-.7 13.7.2.9.3 1.8.4 2.6s3.6 12.1 3.1 12.6c-.9.9-1.1 2.7-1.2 3.4-.1.7-.9 1.9-.1 1.8.8 0 1-.9 1.1-1.2.1-.4.3-.8.7-1 .7 5.6-1.8 5.7-.6 6.1M15.4 105.3c.1-.3.2-.6.4-.9v-.1c.1-.3.2-.5.3-.8-3.1-3-8.5-9.1-8.5-9.1l2.8-2.7c-4.5-2.4-3.9-6.5-3.9-6.5s-7.1 7.9-6.9 9.3c.1 1.4 4.9 5.1 9 8.1 3.5 2.5 5.2 3.7 5.9 4.6.4-.7.6-1.3.9-1.9z" class="st34"></path><path d="M27.3 71.6s.1 0 .1.1c0 .8.8 1 1.8.9 0-.3 0-.7.1-1-.5.1-1.2.1-2 0" class="st38"></path><path d="M12.4 79.3C14.1 77.7 18 76 18 76s2-.9 3.1-1.9C21.4 71.7 20 67 20 67c-1.2 0-4.1-1.6-2.4-3.4.9-1 2.1.2 2.4 1-.3-1.5-.8-2.5.5-2.9 1.3-.5 9.6 1.1 10.1-6.5 0 0 .8 1.5 1.2 3.1 0 0 3.5-5.6-6.4-8.4-8-1.7-9.7 4.2-9.7 4.2s-2.6.4-2.9 5.9c-.4 5.5-.4 18-2.4 21.7.7-1.1 1.5-1.9 2-2.4" class="st39"></path><path d="M37.8 91c.8-1.5.7-3.6.1-5.8v-.1c-.8-2.7-2.2-5.7-3.5-8.1-.9-1.8-1.8-3.4-2.1-4.3 1.7 6.7-3.7 8.4-3.7 8.4v3.5s-.9-1.6-1.7-2.9C19 81.9 18 76 18 76s-3.9 1.8-5.5 3.4c-.5.5-1.4 1.3-2.2 2.2-1.7 1.8-3.6 3.7-3.6 3.7s-.6 4.1 3.9 6.5c.3.2.7.4 1.1.5l3.1-2.9s3.6 5 3.3 8.8c-.1 1.6-.9 3.2-1.8 5.3-.1.3-.2.5-.3.8.1-.3.2-.5.3-.8.7.7 1.4 1.3 1.7 1.5.3.1.5.2.8.3 1 .4 2.1.9 3 1.4.7.4 1.2.9 1.6 1.5l.2.2c.7 1 .7 3.6.1 4.2l-.1.1c-.1.1-.3.1-.4 0-.5-.3-1.2-1.5-2.8-2-.1 0-.3-.1-.4-.1-.3-.1-.6-.1-.9-.2-1.1-.4-2-.9-2.7-1.5-.5-.4-.9-.9-1.1-1.3-.1-.2-.2-.3-.4-.5.2-.7.5-1.3.7-1.9-.2.6-.5 1.3-.7 1.9-.9 2.6-1.7 5.7-1.9 9.8-.7 10.7 1.8 18.5 1.8 18.5s4.9 1 10.4.5c.2 0 .4 0 .5-.1 4.4-.5 9.1-1.9 12.2-5.4.9-6.2 1.5-13.1-.1-23.3-.1-.9-.3-1.7-.4-2.6-1.6-7-1.1-9.8.4-13.5" class="st36"></path><path d="M27.5 71.7s-.1 0-.1-.1c-2.8-.3-6.1-1.9-7.4-4.6 0 0 1.4 4.7 1.1 7.1C19.9 75 18 76 18 76s1 6 8.9 5.7c.8 1.4 1.7 2.9 1.7 2.9v-3.5s5.4-1.7 3.7-8.4c0-.1-.1-.2-.1-.4-1 .1-2.1.2-3 .3-1 .1-1.7-.1-1.7-.9" class="st40"></path><path d="M20.5 61.6c-1.3.5-.9 1.5-.5 2.9-.3-.8-1.6-2-2.4-1-1.7 1.9 1.2 3.4 2.4 3.4 1.3 2.7 4.6 4.3 7.4 4.6.7.1 1.4.1 2 0 .2 0 .5-.1.7-.2 2.7-.9 2.5-6.4 2.4-7.3-.1-.9-.4-2.7-.4-4.6 0-.4-.1-.9-.2-1.4-.4-1.5-1.2-3.1-1.2-3.1-.6 7.9-8.9 6.2-10.2 6.7M15.4 105.3c-.3.6-.5 1.3-.7 2 .2.2.3.4.4.5.2.4.6.8 1.1 1.3.7.6 1.6 1.2 2.7 1.5.3.1.6.2.9.2.1 0 .3.1.4.1 1.6.5 2.3 1.7 2.8 2 .1.1.3.1.4 0l.1-.1c.5-.7.5-3.2-.1-4.2 0-.1-.1-.1-.2-.2-.4-.6-.9-1.1-1.6-1.5-.9-.6-1.9-1-3-1.4-.3-.1-.5-.2-.8-.3-.4-.2-1-.8-1.7-1.5-.1.3-.2.5-.3.8v.1c-.2.1-.3.4-.4.7" class="st34"></path></g><g id="Person"><path d="M51.3 203.9l.8 1.3c-1 3.1-2.9 6.4-1 10.5-.2.6-.4 1.4-.6 2.5 0 0-4.1-5.3-3.8-11.2 1.3-3.1 4.6-3.1 4.6-3.1M62.9 172.3l.1-2.3c.7.5 4.5 1.1 5.1-2.7-1-.8-1.8-2.6-.9-3.3 1.2-.9 2.6-.1 3.6 1.8l.6-.6s-.8-2.2-.6-3.3c.2-1.1 1.4-2.5-.8-4.7-.7-.7.3-2.1 1.7-2.9.4-.2 1-.7 1.6-1.3 0 0 2 1.3 2.4 6.2.9 3.4 2.2 8.6-.4 10-2.3 1.3-3.6 1.6-4.5 5.7-.5-.4-1.2-.8-2.3-.9-3.3-.3-5.4-1.2-5.6-1.7" class="st41"></path><path d="M76.2 306.2s-.2 1.8 3.5 2.7c3.7.9 10 .5 11.8 4 0 0-.6 3.5-5.3 4.4-3.6.7-10.5.2-11.7.5-1.2 0-8.7 2.1-10-1.7v.6c.1 3.4 5.6 3.2 8.6 2.6.5-.7 1.7-.9 3.3-.9-1.6 0-2.7.1-3.3.9-3 .6-8.5.8-8.6-2.6-.1-3.4.5-9.2 1.2-10.5 1.4 1 3.6 1.3 5.2 1.4 1.7.1 3.9-.3 5.3-1.4" class="st42"></path><path d="M73.2 319.3c-3 .6-8.5.8-8.6-2.6v-.6c1.3 3.7 8.7 1.7 10 1.7 1.2-.3 8.1.2 11.7-.5 4.6-.9 5.3-4.4 5.3-4.4 0 .1.1.1.1.2.1.2.1.5.1.7 0 1.3-1 3.4-4.9 4.4-.3.1-.7.2-1.1.2-.6.1-1.3.2-1.9.2-1 .1-2 0-2.9 0-.6 0-1.3-.1-1.9-.1-.9-.1-1.8-.1-2.6-.1-1.6 0-2.8.1-3.3.9" class="st43"></path><path d="M100.6 202.7s2.4-3 2.7-5.4c.3-2.3.3-4 .8-3.9.6.1 1.3.6 1.4 2.2.1 1.6.1 2.4.7 2.7.6.3 8.6-1.3 9.4-1.4.7-.1 2.3.6 1.9 1.1-.5.5-1.8.9-2.2 1.6-.4.6-3 2.8-6.2 3.4-1.3.4-5.5 4.4-5.5 4.4-.1-3.7-3-4.7-3-4.7" class="st41"></path><path d="M56.5 295.4c.1-.1.4-1.7.9-4.1 0 0 3.4-1.6 4.3-.8.7.6 1.6 2.8 1.2 5.3.1-.6.1-1.2.1-1.7-.9 6.6-6.2 7.5-7.5 7.8-1.3.3-3.3 3.4-6.5 3.5-3.2.1-3.6-2-3.6-2-.3-1.2-.8-3.1.7-8.5.7.6 1.8 1.1 3.4 1.6 4.3 1.2 6.6-.6 7-1.1" class="st42"></path><path d="M48.9 305.4c3.2-.1 5.2-3.2 6.5-3.5 1.3-.3 6.6-1.1 7.5-7.8 0 .6 0 1.1-.1 1.7v.2c0 .1 0 .2-.1.3 0 .1 0 .2-.1.3 0 .1 0 .2-.1.2 0 .1-.1.2-.1.4 0 .1 0 .1-.1.2-.1.2-.2.4-.2.6-1.6 3.3-6.6 3.7-7.5 5-.3.5-.2 1.2-.2 1.2s-2.3 2.9-6.3 2.7c-2.6-.2-3.2-2.3-2.7-3.6 0 .1.3 2.2 3.5 2.1" class="st43"></path><path d="M74.4 222.2c2.7.5 4.3-.2 5.1-1.1 0 0 .5 35.2 0 39.3-.5 4.1-1.3 43.2-1.5 47.9-.1 1.1-.6 1.9-1.4 2.5-1.4 1.1-3.6 1.5-5.2 1.4-1.6-.1-3.8-.4-5.2-1.4-.8-.5-1.3-1.2-1.5-2.2-.4-2.7.7-48.8 1-51.4.2-2.6-.2-7.9-.2-7.9l-.5-15.8-6.4-2.9c-.6 5 3.2 17 3.9 19.6.8 2.6.6 8.5.6 8.5-.1.5-.2 1-.3 1.4-.5 2.6-3.9 22.4-5.6 31.2-.5 2.4-1.1 7.7-1.2 7.8-.4.5-2.7 2.2-7.1 1-1.6-.5-2.7-1-3.4-1.6-1.2-1-1.4-1.9-1.5-2.4 0-.7 5.2-37.6 5.7-40.3.5-2.4-.9-28.2.5-37.5.2-1.1.4-1.9.6-2.5 2.5 5 18.9 5.6 23.6 6.4" class="st44"></path><path d="M62.6 250.3c-.8-2.6-4.5-14.7-3.9-19.6l6.4 2.9.5 15.8V249.7c0 .1 0 .2-.1.3 0 .1-.1.2-.1.3v.1c-.1.3-.2.6-.2.9v.1c0 .2-.1.4-.1.6-.1.4-.2.9-.3 1.4-.1.2-.1.5-.2.7v.1c-.1.2-.1.5-.2.7v.1c-.1.5-.2 1-.4 1.4v.1c-.1.2-.1.5-.2.7v.1c-.1.2-.1.4-.2.7v.1c-.1.2-.1.4-.2.7-.2 0 0-5.9-.8-8.5" class="st45"></path><path d="M71.8 154.4c-1.4.8-2.4 2.1-1.7 2.9 2.2 2.2 1 3.6.8 4.7-.2 1.1.6 3.3.6 3.3l-.6.6c-1-1.9-2.4-2.7-3.6-1.8-.9.7-.2 2.5.9 3.3-.6 3.8-4.4 3.2-5.1 2.7-.3-1.7-4.3-3.9-6.3-5.9-2-2-1.6-4.3-.5-5.8.1-6.4 8.1-9.1 10.2-9.7 2.1-.6 5.2-.5 6.9-1.2 2.4 2.3 1.4 4.5.1 5.8-.7.4-1.3.8-1.7 1.1" class="st46"></path><path d="M38.8 186.3c.3-2.5 7.1-9.7 9.3-11.1 2.2-1.4 6.3-5.2 14-2.5-.4.5-.6 1.2-.6 1.7 0 .7 2.3 3 10.6 3 0 0 9.1 5.8 10.1 7.9 1 2.1 6.2 15.6 7.5 22 2.1-.6 6.3-3.4 8.2-3 1.2-.5 2.6-1.5 2.6-1.5s2.9.9 2.9 4.6l-1.5 1.7s-.9 1.9-3.3 3.9-8.9 7.3-13 6.8-5.9-8.6-5.9-8.6.2 6.2.5 7.8c.2.7 0 1.6-.7 2.3-.8.9-2.5 1.6-5.1 1.1-4.7-.9-21.1-1.4-23.3-6.4-1.8-4.1 0-7.5 1-10.5.2-.7.4-1.4.5-2 .5-3.7 1.1-10.4-.7-15.5-1.8 1.1-3.3 2.9-3.3 2.9s2.8 8.3 1.9 9.7c.3 1.8.8 3.6.8 3.6s-3.3 0-4.6 3.2c-1.3-2.3-1.8-4.1-1.8-4.1s-1.1-.4-1.9-3.5c-.9-3.4-4.5-11-4.2-13.5" class="st47"></path></g><path d="M72.2 177.4s.1-1.7 0-2.1c-.2-.7-1.5-1.1-2.9-1.3-1.2-.1-6.6-1.8-6.6-2 0-.2-1.7 1.5-1.6 2.5.2 1 4.6 3.7 11.1 2.9z" class="st44"></path><g id="Code_1_"><path d="M235 53.1l-29.6-18c-.7-.4-1.3-1.5-1.3-2.4 0-.9.6-1.3 1.3-.9l29.6 18c.7.4 1.3 1.5 1.3 2.4 0 .9-.6 1.3-1.3.9zM246.2 67.6l-40.7-24.7c-.7-.4-1.3-1.5-1.3-2.4 0-.9.6-1.3 1.3-.9l40.7 24.8c.7.4 1.3 1.5 1.3 2.4 0 .9-.6 1.3-1.3.8zM232.9 67.3L214 55.9c-.7-.4-1.3-1.5-1.3-2.4 0-.9.6-1.3 1.3-.9l18.9 11.5c.7.4 1.3 1.5 1.3 2.4-.1.9-.6 1.3-1.3.8zM248.8 84.7l-24.1-14.6c-.7-.4-1.3-1.5-1.3-2.4 0-.9.6-1.3 1.3-.8l24.1 14.6c.7.4 1.3 1.5 1.3 2.4-.1.9-.6 1.3-1.3.8zM270 97.6l-10.1-6.1c-.7-.4-1.2-1.5-1.2-2.4 0-.9.6-1.3 1.3-.8l10.1 6.1c.7.4 1.2 1.5 1.2 2.4 0 .8-.6 1.2-1.3.8zM290.9 110.2l-10.1-6.1c-.7-.4-1.2-1.5-1.2-2.3 0-.9.6-1.3 1.3-.8l10.1 6.1c.7.4 1.2 1.5 1.2 2.3-.1.8-.6 1.2-1.3.8zM264.5 101.9l-39.8-24c-.7-.4-1.3-1.5-1.3-2.4 0-.9.6-1.3 1.3-.8l39.8 24c.7.4 1.2 1.5 1.2 2.4 0 .9-.6 1.3-1.2.8zM278.3 118l-53.7-32.3c-.7-.4-1.3-1.5-1.3-2.4 0-.9.6-1.3 1.3-.8l53.7 32.4c.7.4 1.2 1.5 1.2 2.3.1.9-.5 1.2-1.2.8zM293 119.2l-17.5-10.6c-.7-.4-1.2-1.5-1.2-2.3 0-.9.6-1.3 1.3-.8l17.5 10.6c.7.4 1.2 1.5 1.2 2.3 0 .8-.6 1.2-1.3.8zM321.3 136.3L304 125.8c-.7-.4-1.2-1.5-1.2-2.3 0-.9.6-1.3 1.2-.8l17.4 10.5c.7.4 1.2 1.4 1.2 2.3 0 .8-.6 1.2-1.3.8zM232.8 99.4L214 88.1c-.7-.4-1.3-1.5-1.3-2.4 0-.9.6-1.3 1.3-.9l18.8 11.3c.7.4 1.3 1.5 1.3 2.4 0 .9-.6 1.3-1.3.9zM232.7 130.2L213.9 119c-.7-.4-1.3-1.5-1.3-2.4 0-.9.6-1.3 1.3-.9l18.8 11.2c.7.4 1.3 1.5 1.3 2.3 0 1.1-.6 1.4-1.3 1zM205.5 121.7l5.9 3.5c.7.4 1.3 0 1.3-.9s-.6-1.9-1.3-2.4l-5.9-3.5c-.7-.4-1.3 0-1.3.9s.6 2 1.3 2.4zM248.7 116.6l-24-14.4c-.7-.4-1.3-1.5-1.3-2.4 0-.9.6-1.3 1.3-.9l24 14.4c.7.4 1.3 1.5 1.2 2.4 0 1-.5 1.3-1.2.9zM292 142.6l-32.2-19.3c-.7-.4-1.2-1.5-1.2-2.3 0-.9.6-1.3 1.3-.8l32.2 19.4c.7.4 1.2 1.5 1.2 2.3-.1.7-.6 1.1-1.3.7zM264.3 133.7L224.6 110c-.7-.4-1.3-1.5-1.3-2.4 0-.9.6-1.3 1.3-.9l39.7 23.8c.7.4 1.2 1.5 1.2 2.3.1.9-.5 1.3-1.2.9zM278.2 149.6l-53.5-32c-.7-.4-1.3-1.5-1.3-2.4 0-.9.6-1.3 1.3-.9l53.6 32c.7.4 1.2 1.5 1.2 2.3-.1 1.1-.6 1.5-1.3 1zM292.8 150.7l-17.5-10.5c-.7-.4-1.2-1.5-1.2-2.3 0-.9.6-1.3 1.3-.8l17.5 10.5c.7.4 1.2 1.4 1.2 2.3 0 .9-.6 1.3-1.3.8zM343.4 181l-39.7-23.8c-.7-.4-1.2-1.4-1.2-2.3 0-.9.6-1.2 1.2-.8l39.7 23.8c.7.4 1.2 1.4 1.2 2.3.1.9-.5 1.2-1.2.8zM297.4 98.7l-40-24.3c-.7-.4-1.3-1.5-1.2-2.4 0-.9.6-1.3 1.3-.8l40 24.3c.7.4 1.2 1.5 1.2 2.3-.1 1-.7 1.3-1.3.9zM324.7 115.4l-16.4-10c-.7-.4-1.2-1.5-1.2-2.3 0-.9.6-1.3 1.2-.8l16.4 10c.7.4 1.2 1.5 1.2 2.3.1.8-.5 1.2-1.2.8z" class="st48"></path></g></g></svg> 