<svg version="1.1" id="Capa_1" xmlns="http://www.w3.org/2000/svg" xmlns:xlink="http://www.w3.org/1999/xlink" x="0px" y="0px" viewBox="0 0 250 250" style="enable-background:new 0 0 250 250;" xml:space="preserve"><style type="text/css">.st0{fill:none;} path {fill:#008ccf;}</style><use xlink:href="#FALightfal-hand-holding-usd"><path d="M16.044 8.481l3.525 1.006c0.55 0.156 0.931 0.662 0.931 1.231 0 0.706-0.575 1.281-1.281 1.281h-2.306c-0.512 0-1.006-0.162-1.412-0.456-0.188-0.137-0.45-0.094-0.613 0.075l-0.713 0.713c-0.219 0.219-0.181 0.575 0.063 0.762 0.769 0.588 1.7 0.906 2.681 0.906h0.087v1.5c0 0.275 0.225 0.5 0.5 0.5h1c0.275 0 0.5-0.225 0.5-0.5v-1.5h0.087c1.425 0 2.769-0.85 3.231-2.2 0.631-1.85-0.456-3.738-2.194-4.237l-3.694-1.056c-0.55-0.156-0.931-0.662-0.931-1.231 0-0.706 0.575-1.281 1.281-1.281h2.306c0.512 0 1.006 0.162 1.413 0.456 0.188 0.138 0.45 0.094 0.613-0.075l0.712-0.712c0.219-0.219 0.181-0.575-0.063-0.762-0.769-0.581-1.7-0.9-2.681-0.9h-0.087v-1.5c0-0.275-0.225-0.5-0.5-0.5h-1c-0.275 0-0.5 0.225-0.5 0.5v1.5h-0.219c-1.912 0-3.444 1.644-3.262 3.594 0.125 1.381 1.188 2.506 2.525 2.888zM34.894 20.85c-1.231-1.106-3.087-1.1-4.369-0.075l-3.85 3.081c-0.119 0.094-0.262 0.144-0.419 0.144h-2.6c0.288-0.6 0.406-1.294 0.3-2.019-0.25-1.744-1.85-2.981-3.613-2.981h-9.012c-1.3 0-2.563 0.419-3.6 1.2l-2.4 1.8h-4.831c-0.275 0-0.5 0.225-0.5 0.5v1c0 0.275 0.225 0.5 0.5 0.5h5.5l2.931-2.2c0.694-0.519 1.537-0.8 2.4-0.8h9.169c0.831 0 1.5 0.669 1.5 1.5s-0.669 1.5-1.5 1.5h-5.5c-0.55 0-1 0.45-1 1s0.45 1 1 1h11.262c0.606 0 1.194-0.206 1.669-0.581l3.85-3.075c0.481-0.381 1.25-0.475 1.775 0 0.631 0.569 0.581 1.531-0.056 2.038l-6.3 5.044c-0.475 0.381-1.063 0.581-1.669 0.581h-25.031c-0.275 0-0.5 0.225-0.5 0.5v1c0 0.275 0.225 0.5 0.5 0.5h25.031c1.063 0 2.087-0.363 2.913-1.025l6.306-5.044c0.763-0.613 1.219-1.525 1.25-2.5s-0.375-1.925-1.106-2.587z"></path></use></svg>