<svg xmlns="http://www.w3.org/2000/svg" viewBox="0 0 710 184"><defs><style>.cls-1{fill:#48a4d8;}.cls-2{fill:#f2a24c;}.cls-3{fill:#71be71;}.cls-4{fill:#4b6c7e;}.cls-5{fill:#a1bac4;}.cls-6{fill:#fff;}.cls-7,.cls-8{fill:none;stroke:#fff;stroke-miterlimit:10;}.cls-7{stroke-width:2px;}.cls-8{stroke-width:2.5px;}</style></defs><title>Our services</title><g id="Layer_2" data-name="Layer 2"><circle class="cls-1" cx="71.43" cy="59.67" r="54.46"/><circle class="cls-2" cx="264.98" cy="59.22" r="54.46"/><circle class="cls-3" cx="458.52" cy="59.22" r="54.46"/><circle class="cls-4" cx="652.06" cy="59.67" r="54.46"/><path class="cls-5" d="M179.51,60h-9.72v9.69h-3.2V60H156.9V56.77h9.69v-9.7h3.2v9.7h9.72Z"/><path class="cls-5" d="M373.05,60h-9.72v9.69h-3.2V60h-9.69V56.77h9.69v-9.7h3.2v9.7h9.72Z"/><path class="cls-5" d="M566.6,60h-9.72v9.69h-3.2V60H544V56.77h9.69v-9.7h3.2v9.7h9.72Z"/><path class="cls-4" d="M53.13,130a5.34,5.34,0,0,1-1.47,4.05,5.91,5.91,0,0,1-4.24,1.4h-3V124.78h3.31a5.48,5.48,0,0,1,4,1.38A5.15,5.15,0,0,1,53.13,130Zm-1.85.06q0-3.85-3.6-3.85H46.17V134h1.25Q51.28,134,51.28,130.09Z"/><path class="cls-4" d="M55.36,135.48V124.78h1.75v10.71Z"/><path class="cls-4" d="M64.28,129.68h3.94v5.38a11.39,11.39,0,0,1-1.86.45,13.14,13.14,0,0,1-1.92.13,4.83,4.83,0,0,1-3.75-1.44,5.79,5.79,0,0,1-1.32-4.06,5.41,5.41,0,0,1,1.49-4,5.59,5.59,0,0,1,4.09-1.46,8,8,0,0,1,3.18.64l-.62,1.46a6.19,6.19,0,0,0-2.61-.6,3.51,3.51,0,0,0-2.71,1.08,4.17,4.17,0,0,0-1,2.94,4.4,4.4,0,0,0,.9,3,3.25,3.25,0,0,0,2.58,1,8.49,8.49,0,0,0,1.82-.21v-2.76H64.28Z"/><path class="cls-4" d="M70.78,135.48V124.78h1.75v10.71Z"/><path class="cls-4" d="M79.11,135.48H77.36v-9.21H74.21v-1.5h8v1.5H79.11Z"/><path class="cls-4" d="M89.71,135.48l-1.07-3H84.55l-1,3H81.65l4-10.75h1.9l4,10.75ZM88.18,131l-1-2.92q-.11-.29-.3-.92t-.27-.92a16.41,16.41,0,0,1-.58,2l-1,2.79Z"/><path class="cls-4" d="M93.15,135.48V124.78H94.9V134h4.53v1.5Z"/><path class="cls-4" d="M7.47,155.48H5.72v-9.21H2.57v-1.5h8v1.5H7.47Z"/><path class="cls-4" d="M14.06,151.21v4.28H12.31V144.78h3a5,5,0,0,1,3.07.78,2.79,2.79,0,0,1,1,2.34,2.93,2.93,0,0,1-2.08,2.85l3,4.74h-2l-2.56-4.28Zm0-1.45h1.22A2.78,2.78,0,0,0,17,149.3,1.65,1.65,0,0,0,17.6,148a1.45,1.45,0,0,0-.59-1.3,3.25,3.25,0,0,0-1.79-.4H14.06Z"/><path class="cls-4" d="M29.33,155.48l-1.07-3H24.17l-1,3H21.28l4-10.75h1.9l4,10.75ZM27.8,151l-1-2.92q-.11-.29-.3-.92t-.27-.92a16.41,16.41,0,0,1-.58,2l-1,2.79Z"/><path class="cls-4" d="M41.69,155.48H39.55L34.28,147h-.06l0,.48q.1,1.36.1,2.49v5.57H32.77V144.78H34.9l5.25,8.49h0q0-.17-.06-1.23t0-1.65v-5.61h1.6Z"/><path class="cls-4" d="M50.74,152.58a2.69,2.69,0,0,1-1,2.24,4.49,4.49,0,0,1-2.85.81,6.8,6.8,0,0,1-3-.56v-1.66a8.07,8.07,0,0,0,1.56.54,6.59,6.59,0,0,0,1.53.2,2.44,2.44,0,0,0,1.53-.4,1.29,1.29,0,0,0,.49-1.06,1.33,1.33,0,0,0-.45-1,6.84,6.84,0,0,0-1.87-1,5,5,0,0,1-2.07-1.35,2.87,2.87,0,0,1-.6-1.83,2.56,2.56,0,0,1,1-2.11,4,4,0,0,1,2.56-.77,7.51,7.51,0,0,1,3.06.67L50,146.72a6.69,6.69,0,0,0-2.55-.6,2,2,0,0,0-1.29.37,1.21,1.21,0,0,0-.44,1,1.37,1.37,0,0,0,.18.71,1.79,1.79,0,0,0,.58.56,9.79,9.79,0,0,0,1.45.7,7.93,7.93,0,0,1,1.73.92,2.69,2.69,0,0,1,.81,1A2.89,2.89,0,0,1,50.74,152.58Z"/><path class="cls-4" d="M54.51,155.48H52.78V144.78h6v1.48H54.51v3.35h4v1.49h-4Z"/><path class="cls-4" d="M70.3,150.11A5.86,5.86,0,0,1,69,154.18a5.49,5.49,0,0,1-7.43,0,5.89,5.89,0,0,1-1.3-4.09A5.8,5.8,0,0,1,61.57,146a4.82,4.82,0,0,1,3.73-1.42A4.72,4.72,0,0,1,69,146,5.85,5.85,0,0,1,70.3,150.11Zm-8.17,0a4.8,4.8,0,0,0,.8,3,3.25,3.25,0,0,0,4.72,0,6.08,6.08,0,0,0,0-6,2.78,2.78,0,0,0-2.35-1,2.84,2.84,0,0,0-2.38,1A4.75,4.75,0,0,0,62.12,150.11Z"/><path class="cls-4" d="M74.29,151.21v4.28H72.54V144.78h3a5,5,0,0,1,3.07.78,2.79,2.79,0,0,1,1,2.34,2.93,2.93,0,0,1-2.08,2.85l3,4.74h-2L76,151.21Zm0-1.45h1.22a2.78,2.78,0,0,0,1.77-.45,1.65,1.65,0,0,0,.55-1.35,1.45,1.45,0,0,0-.59-1.3,3.25,3.25,0,0,0-1.79-.4H74.29Z"/><path class="cls-4" d="M86.85,155.48l-3.11-8.94h-.06q.12,2,.12,3.74v5.21H82.22V144.78h2.47l3,8.52h0l3.06-8.52h2.48v10.71H91.56v-5.3q0-.8,0-2.08t.07-1.55h-.06l-3.22,8.93Z"/><path class="cls-4" d="M102.87,155.48l-1.07-3H97.71l-1,3H94.81l4-10.75h1.9l4,10.75ZM101.34,151l-1-2.92q-.11-.29-.3-.92t-.27-.92a16.41,16.41,0,0,1-.58,2l-1,2.79Z"/><path class="cls-4" d="M109,155.48h-1.75v-9.21h-3.15v-1.5h8v1.5H109Z"/><path class="cls-4" d="M113.86,155.48V144.78h1.75v10.71Z"/><path class="cls-4" d="M127.93,150.11a5.86,5.86,0,0,1-1.31,4.06,5.49,5.49,0,0,1-7.43,0,5.89,5.89,0,0,1-1.3-4.09A5.8,5.8,0,0,1,119.2,146a4.82,4.82,0,0,1,3.73-1.42,4.72,4.72,0,0,1,3.69,1.44A5.85,5.85,0,0,1,127.93,150.11Zm-8.17,0a4.8,4.8,0,0,0,.8,3,3.25,3.25,0,0,0,4.72,0,6.08,6.08,0,0,0,0-6,2.78,2.78,0,0,0-2.35-1,2.84,2.84,0,0,0-2.38,1A4.75,4.75,0,0,0,119.76,150.11Z"/><path class="cls-4" d="M139.1,155.48H137L131.68,147h-.06l0,.48q.1,1.36.1,2.49v5.57h-1.59V144.78h2.12l5.25,8.49h0q0-.17-.06-1.23t0-1.65v-5.61h1.6Z"/><path class="cls-4" d="M30.1,166.12a2.89,2.89,0,0,0-2.37,1.07,5.61,5.61,0,0,0,0,5.93,2.94,2.94,0,0,0,2.41,1,6.29,6.29,0,0,0,1.32-.14q.64-.13,1.33-.35v1.5a8,8,0,0,1-2.86.48,4.56,4.56,0,0,1-3.61-1.42A6,6,0,0,1,25,170.13a6.58,6.58,0,0,1,.61-2.92,4.36,4.36,0,0,1,1.77-1.92,5.35,5.35,0,0,1,2.72-.67,6.74,6.74,0,0,1,3,.69l-.63,1.46a9.43,9.43,0,0,0-1.15-.45A4.13,4.13,0,0,0,30.1,166.12Z"/><path class="cls-4" d="M44.18,170.11a5.86,5.86,0,0,1-1.31,4.06,4.73,4.73,0,0,1-3.7,1.45,4.76,4.76,0,0,1-3.72-1.44,5.89,5.89,0,0,1-1.3-4.09A5.8,5.8,0,0,1,35.45,166a4.82,4.82,0,0,1,3.73-1.42A4.72,4.72,0,0,1,42.87,166,5.85,5.85,0,0,1,44.18,170.11Zm-8.17,0a4.8,4.8,0,0,0,.8,3,3.25,3.25,0,0,0,4.72,0,6.08,6.08,0,0,0,0-6,2.78,2.78,0,0,0-2.35-1,2.84,2.84,0,0,0-2.38,1A4.75,4.75,0,0,0,36,170.11Z"/><path class="cls-4" d="M55.34,175.48H53.2L47.93,167h-.06l0,.48q.1,1.36.1,2.49v5.57H46.42V164.78h2.12l5.25,8.49h0q0-.17-.06-1.23t0-1.65v-5.61h1.6Z"/><path class="cls-4" d="M64.39,172.58a2.69,2.69,0,0,1-1,2.24,4.49,4.49,0,0,1-2.85.81,6.8,6.8,0,0,1-3-.56v-1.66a8.07,8.07,0,0,0,1.56.54,6.59,6.59,0,0,0,1.53.2,2.44,2.44,0,0,0,1.53-.4,1.29,1.29,0,0,0,.49-1.06,1.33,1.33,0,0,0-.45-1,6.84,6.84,0,0,0-1.87-1,5,5,0,0,1-2.07-1.35,2.87,2.87,0,0,1-.6-1.83,2.56,2.56,0,0,1,1-2.11,4,4,0,0,1,2.56-.77,7.51,7.51,0,0,1,3.06.67l-.56,1.43a6.69,6.69,0,0,0-2.55-.6,2,2,0,0,0-1.29.37,1.21,1.21,0,0,0-.44,1,1.37,1.37,0,0,0,.18.71,1.79,1.79,0,0,0,.58.56,9.79,9.79,0,0,0,1.45.7,7.93,7.93,0,0,1,1.73.92,2.69,2.69,0,0,1,.81,1A2.89,2.89,0,0,1,64.39,172.58Z"/><path class="cls-4" d="M74.78,164.78v6.93a4.11,4.11,0,0,1-.51,2.08,3.39,3.39,0,0,1-1.47,1.37,5.12,5.12,0,0,1-2.3.48,4.31,4.31,0,0,1-3.1-1.05,3.82,3.82,0,0,1-1.11-2.9v-6.9H68v6.77a2.71,2.71,0,0,0,.62,2,2.54,2.54,0,0,0,1.89.63q2.48,0,2.48-2.6v-6.76Z"/><path class="cls-4" d="M77.45,175.48V164.78H79.2V174h4.53v1.5Z"/><path class="cls-4" d="M88.25,175.48H86.5v-9.21H83.35v-1.5h8v1.5H88.25Z"/><path class="cls-4" d="M93.08,175.48V164.78h1.75v10.71Z"/><path class="cls-4" d="M106.5,175.48h-2.15L99.08,167H99l0,.48q.1,1.36.1,2.49v5.57H97.57V164.78H99.7l5.25,8.49h0q0-.17-.06-1.23t0-1.65v-5.61h1.6Z"/><path class="cls-4" d="M113.64,169.68h3.94v5.38a11.39,11.39,0,0,1-1.86.45,13.14,13.14,0,0,1-1.92.13,4.83,4.83,0,0,1-3.75-1.44,5.79,5.79,0,0,1-1.32-4.06,5.41,5.41,0,0,1,1.49-4,5.59,5.59,0,0,1,4.09-1.46,8,8,0,0,1,3.18.64l-.62,1.46a6.19,6.19,0,0,0-2.61-.6,3.51,3.51,0,0,0-2.71,1.08,4.17,4.17,0,0,0-1,2.94,4.4,4.4,0,0,0,.9,3,3.25,3.25,0,0,0,2.58,1,8.49,8.49,0,0,0,1.82-.21v-2.76h-2.22Z"/><path class="cls-4" d="M191.25,135V124.33H193V135Z"/><path class="cls-4" d="M199.58,135h-1.75v-9.21h-3.15v-1.5h8v1.5h-3.15Z"/><path class="cls-4" d="M202.84,131.75v-1.46h3.76v1.46Z"/><path class="cls-4" d="M208.88,124.33h3.18a6,6,0,0,1,3.2.64,2.26,2.26,0,0,1,1,2,2.47,2.47,0,0,1-.48,1.56,2.16,2.16,0,0,1-1.39.78v.07a2.76,2.76,0,0,1,1.66.84,2.54,2.54,0,0,1,.53,1.7,2.75,2.75,0,0,1-1,2.26,4.33,4.33,0,0,1-2.8.82h-3.87Zm1.75,4.42h1.68a2.88,2.88,0,0,0,1.6-.35,1.33,1.33,0,0,0,.51-1.18,1.18,1.18,0,0,0-.55-1.09,3.41,3.41,0,0,0-1.73-.34h-1.52Zm0,1.42v3.39h1.86a2.74,2.74,0,0,0,1.66-.42,1.55,1.55,0,0,0,.56-1.33,1.41,1.41,0,0,0-.57-1.24,3,3,0,0,0-1.74-.4Z"/><path class="cls-4" d="M225.49,135l-1.07-3h-4.09l-1,3h-1.85l4-10.75h1.9l4,10.75ZM224,130.55l-1-2.92q-.11-.29-.3-.92t-.27-.92a16.41,16.41,0,0,1-.58,2l-1,2.79Z"/><path class="cls-4" d="M235.42,132.13a2.69,2.69,0,0,1-1,2.24,4.49,4.49,0,0,1-2.85.81,6.8,6.8,0,0,1-3-.56V133a8.07,8.07,0,0,0,1.56.54,6.59,6.59,0,0,0,1.53.2,2.44,2.44,0,0,0,1.53-.4,1.29,1.29,0,0,0,.49-1.06,1.33,1.33,0,0,0-.45-1,6.84,6.84,0,0,0-1.87-1,5,5,0,0,1-2.07-1.35,2.87,2.87,0,0,1-.6-1.83,2.56,2.56,0,0,1,1-2.11,4,4,0,0,1,2.56-.77,7.51,7.51,0,0,1,3.06.67l-.56,1.43a6.69,6.69,0,0,0-2.55-.6,2,2,0,0,0-1.29.37,1.21,1.21,0,0,0-.44,1,1.37,1.37,0,0,0,.18.71,1.79,1.79,0,0,0,.58.56,9.79,9.79,0,0,0,1.45.7,7.93,7.93,0,0,1,1.73.92,2.69,2.69,0,0,1,.81,1A2.89,2.89,0,0,1,235.42,132.13Z"/><path class="cls-4" d="M243.52,135h-6.06V124.33h6.06v1.48h-4.31v2.92h4v1.46h-4v3.36h4.31Z"/><path class="cls-4" d="M254.45,129.58a5.34,5.34,0,0,1-1.47,4.05,5.91,5.91,0,0,1-4.24,1.4h-3V124.33h3.31a5.48,5.48,0,0,1,4,1.38A5.15,5.15,0,0,1,254.45,129.58Zm-1.85.06q0-3.85-3.6-3.85h-1.52v7.77h1.25Q252.61,133.56,252.61,129.64Z"/><path class="cls-4" d="M265.2,125.68a2.89,2.89,0,0,0-2.37,1.07,5.61,5.61,0,0,0,0,5.93,2.94,2.94,0,0,0,2.41,1,6.29,6.29,0,0,0,1.32-.14q.64-.13,1.33-.35v1.5a8,8,0,0,1-2.86.48,4.56,4.56,0,0,1-3.61-1.42,6,6,0,0,1-1.26-4.08,6.58,6.58,0,0,1,.61-2.92,4.36,4.36,0,0,1,1.77-1.92,5.35,5.35,0,0,1,2.72-.67,6.74,6.74,0,0,1,3,.69l-.63,1.46a9.43,9.43,0,0,0-1.15-.45A4.13,4.13,0,0,0,265.2,125.68Z"/><path class="cls-4" d="M278.52,124.33v6.93a4.11,4.11,0,0,1-.51,2.08,3.39,3.39,0,0,1-1.47,1.37,5.12,5.12,0,0,1-2.3.48,4.31,4.31,0,0,1-3.1-1.05,3.82,3.82,0,0,1-1.11-2.9v-6.9h1.76v6.77a2.71,2.71,0,0,0,.62,2,2.54,2.54,0,0,0,1.89.63q2.48,0,2.48-2.6v-6.76Z"/><path class="cls-4" d="M287.38,132.13a2.69,2.69,0,0,1-1,2.24,4.49,4.49,0,0,1-2.85.81,6.8,6.8,0,0,1-3-.56V133a8.07,8.07,0,0,0,1.56.54,6.59,6.59,0,0,0,1.53.2,2.44,2.44,0,0,0,1.53-.4,1.29,1.29,0,0,0,.49-1.06,1.33,1.33,0,0,0-.45-1,6.84,6.84,0,0,0-1.87-1,5,5,0,0,1-2.07-1.35,2.87,2.87,0,0,1-.6-1.83,2.56,2.56,0,0,1,1-2.11,4,4,0,0,1,2.56-.77,7.51,7.51,0,0,1,3.06.67l-.56,1.43a6.69,6.69,0,0,0-2.55-.6,2,2,0,0,0-1.29.37,1.21,1.21,0,0,0-.44,1,1.37,1.37,0,0,0,.18.71,1.79,1.79,0,0,0,.58.56,9.79,9.79,0,0,0,1.45.7,7.93,7.93,0,0,1,1.73.92,2.69,2.69,0,0,1,.81,1A2.89,2.89,0,0,1,287.38,132.13Z"/><path class="cls-4" d="M293.51,135h-1.75v-9.21h-3.15v-1.5h8v1.5h-3.15Z"/><path class="cls-4" d="M307.64,129.67a5.86,5.86,0,0,1-1.31,4.06,5.49,5.49,0,0,1-7.43,0,5.89,5.89,0,0,1-1.3-4.09,5.8,5.8,0,0,1,1.31-4.07,4.82,4.82,0,0,1,3.73-1.42,4.72,4.72,0,0,1,3.69,1.44A5.85,5.85,0,0,1,307.64,129.67Zm-8.17,0a4.8,4.8,0,0,0,.8,3,3.25,3.25,0,0,0,4.72,0,6.08,6.08,0,0,0,0-6,2.78,2.78,0,0,0-2.35-1,2.84,2.84,0,0,0-2.38,1A4.75,4.75,0,0,0,299.47,129.67Z"/><path class="cls-4" d="M314.52,135l-3.11-8.94h-.06q.12,2,.12,3.74V135h-1.59V124.33h2.47l3,8.52h0l3.06-8.52h2.48V135h-1.68v-5.3q0-.8,0-2.08t.07-1.55h-.06L316.06,135Z"/><path class="cls-4" d="M329.72,135h-6.06V124.33h6.06v1.48h-4.31v2.92h4v1.46h-4v3.36h4.31Z"/><path class="cls-4" d="M333.69,130.76V135h-1.75V124.33h3a5,5,0,0,1,3.07.78,2.79,2.79,0,0,1,1,2.34A2.93,2.93,0,0,1,337,130.3l3,4.74h-2l-2.56-4.28Zm0-1.45h1.22a2.78,2.78,0,0,0,1.77-.45,1.65,1.65,0,0,0,.55-1.35,1.45,1.45,0,0,0-.59-1.3,3.25,3.25,0,0,0-1.79-.4h-1.16Z"/><path class="cls-4" d="M228.68,155h-6.06V144.33h6.06v1.48h-4.31v2.92h4v1.46h-4v3.36h4.31Z"/><path class="cls-4" d="M239.3,155h-2l-2.68-4.38L231.9,155H230l3.55-5.55-3.33-5.16h1.95l2.48,4.05,2.48-4.05H239l-3.35,5.19Z"/><path class="cls-4" d="M248,147.57a3.12,3.12,0,0,1-1.1,2.57,4.84,4.84,0,0,1-3.13.89h-1.11v4h-1.75V144.33H244a4.67,4.67,0,0,1,3,.82A3,3,0,0,1,248,147.57Zm-5.34,2h.93a3.33,3.33,0,0,0,2-.47,1.71,1.71,0,0,0,.63-1.46,1.66,1.66,0,0,0-.56-1.38,2.79,2.79,0,0,0-1.76-.45h-1.22Z"/><path class="cls-4" d="M256,155h-6.06V144.33H256v1.48h-4.31v2.92h4v1.46h-4v3.36H256Z"/><path class="cls-4" d="M259.94,150.76V155h-1.75V144.33h3a5,5,0,0,1,3.07.78,2.79,2.79,0,0,1,1,2.34,2.93,2.93,0,0,1-2.08,2.85l3,4.74h-2l-2.56-4.28Zm0-1.45h1.22a2.78,2.78,0,0,0,1.77-.45,1.65,1.65,0,0,0,.55-1.35,1.45,1.45,0,0,0-.59-1.3,3.25,3.25,0,0,0-1.79-.4h-1.16Z"/><path class="cls-4" d="M267.87,155V144.33h1.75V155Z"/><path class="cls-4" d="M278.42,155h-6.06V144.33h6.06v1.48h-4.31v2.92h4v1.46h-4v3.36h4.31Z"/><path class="cls-4" d="M289.57,155h-2.15l-5.27-8.53h-.06l0,.48q.1,1.36.1,2.49V155h-1.59V144.33h2.12l5.25,8.49h0q0-.17-.06-1.23t0-1.65v-5.61h1.6Z"/><path class="cls-4" d="M296.92,145.68a2.89,2.89,0,0,0-2.37,1.07,5.61,5.61,0,0,0,0,5.93,2.94,2.94,0,0,0,2.41,1,6.29,6.29,0,0,0,1.32-.14q.64-.13,1.33-.35v1.5a8,8,0,0,1-2.86.48,4.56,4.56,0,0,1-3.61-1.42,6,6,0,0,1-1.26-4.08,6.58,6.58,0,0,1,.61-2.92,4.36,4.36,0,0,1,1.77-1.92,5.35,5.35,0,0,1,2.72-.67,6.74,6.74,0,0,1,3,.69l-.63,1.46a9.43,9.43,0,0,0-1.15-.45A4.13,4.13,0,0,0,296.92,145.68Z"/><path class="cls-4" d="M307.84,155h-6.06V144.33h6.06v1.48h-4.31v2.92h4v1.46h-4v3.36h4.31Z"/><path class="cls-4" d="M223.64,165.68a2.89,2.89,0,0,0-2.37,1.07,5.61,5.61,0,0,0,0,5.93,2.94,2.94,0,0,0,2.41,1,6.29,6.29,0,0,0,1.32-.14q.64-.13,1.33-.35v1.5a8,8,0,0,1-2.86.48,4.56,4.56,0,0,1-3.61-1.42,6,6,0,0,1-1.26-4.08,6.58,6.58,0,0,1,.61-2.92,4.36,4.36,0,0,1,1.77-1.92,5.35,5.35,0,0,1,2.72-.67,6.74,6.74,0,0,1,3,.69l-.63,1.46a9.43,9.43,0,0,0-1.15-.45A4.13,4.13,0,0,0,223.64,165.68Z"/><path class="cls-4" d="M237.72,169.67a5.86,5.86,0,0,1-1.31,4.06,5.49,5.49,0,0,1-7.43,0,5.89,5.89,0,0,1-1.3-4.09,5.8,5.8,0,0,1,1.31-4.07,4.82,4.82,0,0,1,3.73-1.42,4.72,4.72,0,0,1,3.69,1.44A5.85,5.85,0,0,1,237.72,169.67Zm-8.17,0a4.8,4.8,0,0,0,.8,3,3.25,3.25,0,0,0,4.72,0,6.08,6.08,0,0,0,0-6,2.78,2.78,0,0,0-2.35-1,2.84,2.84,0,0,0-2.38,1A4.75,4.75,0,0,0,229.54,169.67Z"/><path class="cls-4" d="M248.89,175h-2.15l-5.27-8.53h-.06l0,.48q.1,1.36.1,2.49V175H240V164.33h2.12l5.25,8.49h0q0-.17-.06-1.23t0-1.65v-5.61h1.6Z"/><path class="cls-4" d="M257.93,172.13a2.69,2.69,0,0,1-1,2.24,4.49,4.49,0,0,1-2.85.81,6.8,6.8,0,0,1-3-.56V173a8.07,8.07,0,0,0,1.56.54,6.59,6.59,0,0,0,1.53.2,2.44,2.44,0,0,0,1.53-.4,1.29,1.29,0,0,0,.49-1.06,1.33,1.33,0,0,0-.45-1,6.84,6.84,0,0,0-1.87-1,5,5,0,0,1-2.07-1.35,2.87,2.87,0,0,1-.6-1.83,2.56,2.56,0,0,1,1-2.11,4,4,0,0,1,2.56-.77,7.51,7.51,0,0,1,3.06.67l-.56,1.43a6.69,6.69,0,0,0-2.55-.6,2,2,0,0,0-1.29.37,1.21,1.21,0,0,0-.44,1,1.37,1.37,0,0,0,.18.71,1.79,1.79,0,0,0,.58.56,9.79,9.79,0,0,0,1.45.7,7.93,7.93,0,0,1,1.73.92,2.69,2.69,0,0,1,.81,1A2.89,2.89,0,0,1,257.93,172.13Z"/><path class="cls-4" d="M268.32,164.33v6.93a4.11,4.11,0,0,1-.51,2.08,3.39,3.39,0,0,1-1.47,1.37,5.12,5.12,0,0,1-2.3.48,4.31,4.31,0,0,1-3.1-1.05,3.82,3.82,0,0,1-1.11-2.9v-6.9h1.76v6.77a2.71,2.71,0,0,0,.62,2,2.54,2.54,0,0,0,1.89.63q2.48,0,2.48-2.6v-6.76Z"/><path class="cls-4" d="M271,175V164.33h1.75v9.21h4.53V175Z"/><path class="cls-4" d="M281.79,175H280v-9.21h-3.15v-1.5h8v1.5h-3.15Z"/><path class="cls-4" d="M286.62,175V164.33h1.75V175Z"/><path class="cls-4" d="M300,175h-2.15l-5.27-8.53h-.06l0,.48q.1,1.36.1,2.49V175h-1.59V164.33h2.12l5.25,8.49h0q0-.17-.06-1.23t0-1.65v-5.61H300Z"/><path class="cls-4" d="M307.18,169.23h3.94v5.38a11.39,11.39,0,0,1-1.86.45,13.14,13.14,0,0,1-1.92.13,4.83,4.83,0,0,1-3.75-1.44,5.79,5.79,0,0,1-1.32-4.06,5.41,5.41,0,0,1,1.49-4,5.59,5.59,0,0,1,4.09-1.46,8,8,0,0,1,3.18.64l-.62,1.46a6.19,6.19,0,0,0-2.61-.6,3.51,3.51,0,0,0-2.71,1.08,4.17,4.17,0,0,0-1,2.94,4.4,4.4,0,0,0,.9,3,3.25,3.25,0,0,0,2.58,1,8.49,8.49,0,0,0,1.82-.21v-2.76h-2.22Z"/><path class="cls-4" d="M428.24,132.13a2.69,2.69,0,0,1-1,2.24,4.5,4.5,0,0,1-2.85.81,6.8,6.8,0,0,1-3-.56V133a8.07,8.07,0,0,0,1.56.54,6.59,6.59,0,0,0,1.53.2,2.44,2.44,0,0,0,1.53-.4,1.29,1.29,0,0,0,.5-1.06,1.33,1.33,0,0,0-.45-1,6.84,6.84,0,0,0-1.87-1,5,5,0,0,1-2.07-1.35,2.87,2.87,0,0,1-.6-1.83,2.56,2.56,0,0,1,1-2.11,4,4,0,0,1,2.56-.77,7.51,7.51,0,0,1,3.06.67l-.56,1.43a6.69,6.69,0,0,0-2.55-.6,2,2,0,0,0-1.29.37,1.21,1.21,0,0,0-.44,1,1.37,1.37,0,0,0,.18.71,1.79,1.79,0,0,0,.58.56,9.79,9.79,0,0,0,1.45.7,7.93,7.93,0,0,1,1.73.92,2.69,2.69,0,0,1,.81,1A2.89,2.89,0,0,1,428.24,132.13Z"/><path class="cls-4" d="M439.83,129.67a5.86,5.86,0,0,1-1.31,4.06,5.49,5.49,0,0,1-7.43,0,5.89,5.89,0,0,1-1.3-4.09,5.8,5.8,0,0,1,1.31-4.07,4.82,4.82,0,0,1,3.73-1.42,4.72,4.72,0,0,1,3.69,1.44A5.85,5.85,0,0,1,439.83,129.67Zm-8.17,0a4.8,4.8,0,0,0,.8,3,3.25,3.25,0,0,0,4.72,0,6.08,6.08,0,0,0,0-6,2.78,2.78,0,0,0-2.35-1,2.84,2.84,0,0,0-2.38,1A4.75,4.75,0,0,0,431.65,129.67Z"/><path class="cls-4" d="M442.07,135V124.33h1.75v9.21h4.53V135Z"/><path class="cls-4" d="M458.37,124.33v6.93a4.11,4.11,0,0,1-.51,2.08,3.39,3.39,0,0,1-1.47,1.37,5.12,5.12,0,0,1-2.3.48,4.31,4.31,0,0,1-3.1-1.05,3.82,3.82,0,0,1-1.11-2.9v-6.9h1.76v6.77a2.71,2.71,0,0,0,.62,2,2.54,2.54,0,0,0,1.89.63q2.48,0,2.48-2.6v-6.76Z"/><path class="cls-4" d="M464.9,135h-1.75v-9.21H460v-1.5h8v1.5H464.9Z"/><path class="cls-4" d="M469.74,135V124.33h1.75V135Z"/><path class="cls-4" d="M483.8,129.67a5.86,5.86,0,0,1-1.31,4.06,5.49,5.49,0,0,1-7.43,0,5.89,5.89,0,0,1-1.3-4.09,5.8,5.8,0,0,1,1.31-4.07,4.82,4.82,0,0,1,3.73-1.42,4.72,4.72,0,0,1,3.69,1.44A5.85,5.85,0,0,1,483.8,129.67Zm-8.17,0a4.8,4.8,0,0,0,.8,3,3.25,3.25,0,0,0,4.72,0,6.08,6.08,0,0,0,0-6,2.78,2.78,0,0,0-2.35-1,2.84,2.84,0,0,0-2.38,1A4.75,4.75,0,0,0,475.63,129.67Z"/><path class="cls-4" d="M495,135h-2.15l-5.27-8.53h-.06l0,.48q.1,1.36.1,2.49V135h-1.59V124.33h2.12l5.25,8.49h0q0-.17-.06-1.23t0-1.65v-5.61H495Z"/><path class="cls-4" d="M394.51,155V144.33h1.75V155Z"/><path class="cls-4" d="M403.63,155l-3.11-8.94h-.06q.12,2,.13,3.74V155H399V144.33h2.47l3,8.52h0l3.06-8.52H410V155h-1.68v-5.3q0-.8,0-2.08t.07-1.55h-.06L405.17,155Z"/><path class="cls-4" d="M419.86,147.57a3.12,3.12,0,0,1-1.1,2.57,4.84,4.84,0,0,1-3.13.89h-1.11v4h-1.75V144.33h3.08a4.67,4.67,0,0,1,3,.82A3,3,0,0,1,419.86,147.57Zm-5.34,2h.93a3.33,3.33,0,0,0,2-.47,1.71,1.71,0,0,0,.63-1.46,1.66,1.66,0,0,0-.56-1.38,2.79,2.79,0,0,0-1.76-.45h-1.22Z"/><path class="cls-4" d="M421.79,155V144.33h1.75v9.21h4.53V155Z"/><path class="cls-4" d="M435.92,155h-6.06V144.33h6.06v1.48h-4.31v2.92h4v1.46h-4v3.36h4.31Z"/><path class="cls-4" d="M442.78,155l-3.11-8.94h-.06q.12,2,.13,3.74V155h-1.59V144.33h2.47l3,8.52h0l3.06-8.52h2.48V155h-1.68v-5.3q0-.8,0-2.08t.07-1.55h-.06L444.33,155Z"/><path class="cls-4" d="M458,155h-6.06V144.33H458v1.48h-4.31v2.92h4v1.46h-4v3.36H458Z"/><path class="cls-4" d="M469.13,155H467l-5.27-8.53h-.06l0,.48q.1,1.36.1,2.49V155H460.2V144.33h2.12l5.25,8.49h0q0-.17-.06-1.23t0-1.65v-5.61h1.6Z"/><path class="cls-4" d="M475.7,155H474v-9.21H470.8v-1.5h8v1.5H475.7Z"/><path class="cls-4" d="M486.3,155l-1.07-3h-4.09l-1,3h-1.85l4-10.75h1.9l4,10.75Zm-1.53-4.48-1-2.92q-.11-.29-.3-.92t-.27-.92a16.42,16.42,0,0,1-.58,2l-1,2.79Z"/><path class="cls-4" d="M492.46,155h-1.75v-9.21h-3.15v-1.5h8v1.5h-3.15Z"/><path class="cls-4" d="M497.3,155V144.33H499V155Z"/><path class="cls-4" d="M511.36,149.67a5.86,5.86,0,0,1-1.31,4.06,5.49,5.49,0,0,1-7.43,0,5.89,5.89,0,0,1-1.3-4.09,5.8,5.8,0,0,1,1.31-4.07,4.82,4.82,0,0,1,3.73-1.42,4.72,4.72,0,0,1,3.69,1.44A5.85,5.85,0,0,1,511.36,149.67Zm-8.17,0a4.8,4.8,0,0,0,.8,3,3.25,3.25,0,0,0,4.72,0,6.08,6.08,0,0,0,0-6,2.78,2.78,0,0,0-2.35-1,2.84,2.84,0,0,0-2.38,1A4.75,4.75,0,0,0,503.19,149.67Z"/><path class="cls-4" d="M522.53,155h-2.15l-5.27-8.53h-.06l0,.48q.1,1.36.1,2.49V155h-1.59V144.33h2.12l5.25,8.49h0q0-.17-.06-1.23t0-1.65v-5.61h1.6Z"/><path class="cls-4" d="M621.78,132.58a2.69,2.69,0,0,1-1,2.24,4.5,4.5,0,0,1-2.85.81,6.8,6.8,0,0,1-3-.56v-1.66a8.07,8.07,0,0,0,1.56.54,6.59,6.59,0,0,0,1.53.2,2.44,2.44,0,0,0,1.53-.4,1.29,1.29,0,0,0,.5-1.06,1.33,1.33,0,0,0-.45-1,6.84,6.84,0,0,0-1.87-1,5,5,0,0,1-2.07-1.35,2.87,2.87,0,0,1-.6-1.83,2.56,2.56,0,0,1,1-2.11,4,4,0,0,1,2.56-.77,7.51,7.51,0,0,1,3.06.67l-.56,1.43a6.69,6.69,0,0,0-2.55-.6,2,2,0,0,0-1.29.37,1.21,1.21,0,0,0-.44,1,1.37,1.37,0,0,0,.18.71,1.79,1.79,0,0,0,.58.56,9.79,9.79,0,0,0,1.45.7,7.93,7.93,0,0,1,1.73.92,2.69,2.69,0,0,1,.81,1A2.89,2.89,0,0,1,621.78,132.58Z"/><path class="cls-4" d="M633.37,130.11a5.86,5.86,0,0,1-1.31,4.06,5.49,5.49,0,0,1-7.43,0,5.89,5.89,0,0,1-1.3-4.09,5.8,5.8,0,0,1,1.31-4.07,4.82,4.82,0,0,1,3.73-1.42,4.72,4.72,0,0,1,3.69,1.44A5.85,5.85,0,0,1,633.37,130.11Zm-8.17,0a4.8,4.8,0,0,0,.8,3,3.25,3.25,0,0,0,4.72,0,6.08,6.08,0,0,0,0-6,2.78,2.78,0,0,0-2.35-1,2.84,2.84,0,0,0-2.38,1A4.75,4.75,0,0,0,625.19,130.11Z"/><path class="cls-4" d="M635.61,135.48V124.78h1.75V134h4.53v1.5Z"/><path class="cls-4" d="M651.91,124.78v6.93a4.11,4.11,0,0,1-.51,2.08,3.39,3.39,0,0,1-1.47,1.37,5.12,5.12,0,0,1-2.3.48,4.31,4.31,0,0,1-3.1-1.05,3.82,3.82,0,0,1-1.11-2.9v-6.9h1.76v6.77a2.71,2.71,0,0,0,.62,2,2.54,2.54,0,0,0,1.89.63q2.48,0,2.48-2.6v-6.76Z"/><path class="cls-4" d="M658.45,135.48H656.7v-9.21h-3.15v-1.5h8v1.5h-3.15Z"/><path class="cls-4" d="M663.28,135.48V124.78H665v10.71Z"/><path class="cls-4" d="M677.35,130.11a5.86,5.86,0,0,1-1.31,4.06,5.49,5.49,0,0,1-7.43,0,5.89,5.89,0,0,1-1.3-4.09,5.8,5.8,0,0,1,1.31-4.07,4.82,4.82,0,0,1,3.73-1.42A4.72,4.72,0,0,1,676,126,5.85,5.85,0,0,1,677.35,130.11Zm-8.17,0a4.8,4.8,0,0,0,.8,3,3.25,3.25,0,0,0,4.72,0,6.08,6.08,0,0,0,0-6,2.78,2.78,0,0,0-2.35-1,2.84,2.84,0,0,0-2.38,1A4.75,4.75,0,0,0,669.17,130.11Z"/><path class="cls-4" d="M688.51,135.48h-2.15L681.1,127H681l0,.48q.1,1.36.1,2.49v5.57h-1.59V124.78h2.12l5.25,8.49h0q0-.17-.06-1.23t0-1.65v-5.61h1.6Z"/><path class="cls-4" d="M603.75,155.48l-3.11-8.94h-.06q.12,2,.12,3.74v5.21h-1.59V144.78h2.47l3,8.52h0l3.06-8.52h2.48v10.71h-1.68v-5.3q0-.8,0-2.08t.07-1.55h-.06l-3.22,8.93Z"/><path class="cls-4" d="M619.78,155.48l-1.07-3h-4.09l-1,3h-1.85l4-10.75h1.9l4,10.75ZM618.25,151l-1-2.92q-.11-.29-.3-.92t-.27-.92a16.42,16.42,0,0,1-.58,2l-1,2.79Z"/><path class="cls-4" d="M623.22,155.48V144.78H625v10.71Z"/><path class="cls-4" d="M636.63,155.48h-2.15L629.22,147h-.06l0,.48q.1,1.36.1,2.49v5.57h-1.59V144.78h2.12l5.25,8.49h0q0-.17-.06-1.23t0-1.65v-5.61h1.6Z"/><path class="cls-4" d="M643.21,155.48h-1.75v-9.21h-3.15v-1.5h8v1.5h-3.15Z"/><path class="cls-4" d="M654.1,155.48H648V144.78h6.06v1.48H649.8v2.92h4v1.46h-4V154h4.31Z"/><path class="cls-4" d="M665.25,155.48H663.1L657.84,147h-.06l0,.48q.1,1.36.1,2.49v5.57h-1.59V144.78h2.12l5.25,8.49h0q0-.17-.06-1.23t0-1.65v-5.61h1.6Z"/><path class="cls-4" d="M674.88,155.48l-1.07-3h-4.09l-1,3h-1.85l4-10.75h1.9l4,10.75ZM673.35,151l-1-2.92q-.11-.29-.3-.92t-.27-.92a16.42,16.42,0,0,1-.58,2l-1,2.79Z"/><path class="cls-4" d="M687.24,155.48h-2.15L679.82,147h-.06l0,.48q.1,1.36.1,2.49v5.57h-1.59V144.78h2.12l5.25,8.49h0q0-.17-.06-1.23t0-1.65v-5.61h1.6Z"/><path class="cls-4" d="M694.58,146.12a2.89,2.89,0,0,0-2.37,1.07,5.61,5.61,0,0,0,0,5.93,2.94,2.94,0,0,0,2.41,1,6.29,6.29,0,0,0,1.32-.14q.64-.13,1.33-.35v1.5a8,8,0,0,1-2.86.48,4.56,4.56,0,0,1-3.61-1.42,6,6,0,0,1-1.26-4.08,6.58,6.58,0,0,1,.61-2.92,4.36,4.36,0,0,1,1.77-1.92,5.35,5.35,0,0,1,2.72-.67,6.74,6.74,0,0,1,3,.69l-.63,1.46a9.44,9.44,0,0,0-1.15-.45A4.13,4.13,0,0,0,694.58,146.12Z"/><path class="cls-4" d="M705.51,155.48h-6.06V144.78h6.06v1.48H701.2v2.92h4v1.46h-4V154h4.31Z"/><path class="cls-4" d="M611.56,172.65A3,3,0,0,1,612,171a4.92,4.92,0,0,1,1.69-1.42,6.21,6.21,0,0,1-.95-1.37,2.8,2.8,0,0,1-.25-1.16,2.14,2.14,0,0,1,.79-1.76,3.29,3.29,0,0,1,2.13-.64,3.05,3.05,0,0,1,2,.63,2.1,2.1,0,0,1,.74,1.69,2.52,2.52,0,0,1-.49,1.52,5.42,5.42,0,0,1-1.65,1.36l2.53,2.45a6.62,6.62,0,0,0,1-2.3h1.77a8.07,8.07,0,0,1-1.64,3.39l2.2,2.13h-2.22l-1.09-1.06a5.27,5.27,0,0,1-3.46,1.21,4,4,0,0,1-2.64-.8A2.69,2.69,0,0,1,611.56,172.65Zm3.69,1.5a3.49,3.49,0,0,0,2.29-.78l-2.8-2.76a3.68,3.68,0,0,0-1.07.93,1.74,1.74,0,0,0-.29,1,1.49,1.49,0,0,0,.51,1.17A2,2,0,0,0,615.25,174.15Zm-1.09-7.07a1.67,1.67,0,0,0,.25.87,5,5,0,0,0,.68.87,4.2,4.2,0,0,0,1.16-.88,1.4,1.4,0,0,0,.33-.91,1,1,0,0,0-.32-.76,1.22,1.22,0,0,0-.85-.29,1.35,1.35,0,0,0-.92.3A1,1,0,0,0,614.16,167.08Z"/><path class="cls-4" d="M633.44,172.58a2.7,2.7,0,0,1-1,2.24,4.49,4.49,0,0,1-2.85.81,6.8,6.8,0,0,1-3-.56v-1.66a8.07,8.07,0,0,0,1.56.54,6.59,6.59,0,0,0,1.53.2,2.44,2.44,0,0,0,1.53-.4,1.29,1.29,0,0,0,.49-1.06,1.33,1.33,0,0,0-.45-1,6.84,6.84,0,0,0-1.87-1,5,5,0,0,1-2.07-1.35,2.87,2.87,0,0,1-.6-1.83,2.56,2.56,0,0,1,1-2.11,4,4,0,0,1,2.56-.77,7.51,7.51,0,0,1,3.06.67l-.56,1.43a6.69,6.69,0,0,0-2.55-.6,2,2,0,0,0-1.29.37,1.21,1.21,0,0,0-.44,1,1.37,1.37,0,0,0,.18.71,1.79,1.79,0,0,0,.58.56,9.79,9.79,0,0,0,1.45.7,7.93,7.93,0,0,1,1.73.92,2.69,2.69,0,0,1,.81,1A2.89,2.89,0,0,1,633.44,172.58Z"/><path class="cls-4" d="M643.83,164.78v6.93a4.1,4.1,0,0,1-.51,2.08,3.39,3.39,0,0,1-1.47,1.37,5.12,5.12,0,0,1-2.3.48,4.31,4.31,0,0,1-3.1-1.05,3.82,3.82,0,0,1-1.11-2.9v-6.9h1.76v6.77a2.71,2.71,0,0,0,.62,2,2.54,2.54,0,0,0,1.89.63q2.48,0,2.48-2.6v-6.76Z"/><path class="cls-4" d="M653.59,168a3.12,3.12,0,0,1-1.1,2.57,4.84,4.84,0,0,1-3.13.89h-1.11v4H646.5V164.78h3.08a4.67,4.67,0,0,1,3,.82A3,3,0,0,1,653.59,168Zm-5.34,2h.93a3.33,3.33,0,0,0,2-.47,1.71,1.71,0,0,0,.63-1.46,1.66,1.66,0,0,0-.56-1.38,2.79,2.79,0,0,0-1.76-.45h-1.22Z"/><path class="cls-4" d="M662.61,168a3.12,3.12,0,0,1-1.1,2.57,4.84,4.84,0,0,1-3.13.89h-1.11v4h-1.75V164.78h3.08a4.67,4.67,0,0,1,3,.82A3,3,0,0,1,662.61,168Zm-5.34,2h.93a3.33,3.33,0,0,0,2-.47,1.71,1.71,0,0,0,.63-1.46,1.66,1.66,0,0,0-.56-1.38,2.79,2.79,0,0,0-1.76-.45h-1.22Z"/><path class="cls-4" d="M674.27,170.11a5.86,5.86,0,0,1-1.31,4.06,5.49,5.49,0,0,1-7.43,0,5.89,5.89,0,0,1-1.3-4.09,5.8,5.8,0,0,1,1.31-4.07,4.82,4.82,0,0,1,3.73-1.42A4.72,4.72,0,0,1,673,166,5.85,5.85,0,0,1,674.27,170.11Zm-8.17,0a4.8,4.8,0,0,0,.8,3,3.25,3.25,0,0,0,4.72,0,6.08,6.08,0,0,0,0-6,2.78,2.78,0,0,0-2.35-1,2.84,2.84,0,0,0-2.38,1A4.75,4.75,0,0,0,666.1,170.11Z"/><path class="cls-4" d="M678.27,171.21v4.28h-1.75V164.78h3a5,5,0,0,1,3.07.78,2.79,2.79,0,0,1,1,2.34,2.93,2.93,0,0,1-2.08,2.85l3,4.74h-2L680,171.21Zm0-1.45h1.22a2.78,2.78,0,0,0,1.77-.45,1.65,1.65,0,0,0,.55-1.35,1.45,1.45,0,0,0-.59-1.3,3.25,3.25,0,0,0-1.79-.4h-1.16Z"/><path class="cls-4" d="M689.89,175.48h-1.75v-9.21H685v-1.5h8v1.5h-3.15Z"/></g><g id="Layer_3" data-name="Layer 3"><path class="cls-6" d="M54.5,38.75a3.75,3.75,0,1,0,3.75,3.75,3.76,3.76,0,0,0-3.75-3.75Zm0,5.62a1.87,1.87,0,1,1,1.88-1.88,1.88,1.88,0,0,1-1.88,1.88Zm0,0"/><path class="cls-6" d="M62.94,38.75a3.75,3.75,0,1,0,3.75,3.75,3.76,3.76,0,0,0-3.75-3.75Zm0,5.62a1.87,1.87,0,1,1,1.87-1.88,1.88,1.88,0,0,1-1.87,1.88Zm0,0"/><path class="cls-6" d="M71.37,38.75a3.75,3.75,0,1,0,3.75,3.75,3.75,3.75,0,0,0-3.75-3.75Zm0,5.62a1.87,1.87,0,1,1,1.87-1.88,1.88,1.88,0,0,1-1.87,1.88Zm0,0"/><path class="cls-6" d="M79.8,80.92H48.88V50h45v1.87a.94.94,0,1,0,1.88,0V35.94A.94.94,0,0,0,94.8,35H47.94a.94.94,0,0,0-.94.94V81.86a.94.94,0,0,0,.94.94H79.8a.94.94,0,1,0,0-1.88Zm-30.93-44h45V48.12h-45Zm0,0"/><path class="cls-6" d="M103.06,77.11H101v-15A8.13,8.13,0,0,0,92.87,54h-3.5l-.73-.73a.94.94,0,1,0-1.33,1.33l.34.34L80.27,62.3a.94.94,0,0,0-.09,1.23l3,4a.94.94,0,0,0,1,.33l4.8-1.6v2.44l-3.86,5.8A.94.94,0,0,0,85,75v2.08H82.95a.94.94,0,0,0-.94.94v6a.94.94,0,0,0,.94.94h20.11a.94.94,0,0,0,.94-.94v-6A.94.94,0,0,0,103.06,77.11ZM86.9,75.32l3.86-5.8a.94.94,0,0,0,.16-.52V65a.94.94,0,0,0-1.24-.89l-5.39,1.8-2.12-2.83,7.19-7.19h3.5a6.25,6.25,0,0,1,6.24,6.24v15H86.9Zm15.22,7.83H83.89V79h18.23v4.16Z"/><line class="cls-7" x1="54" y1="58" x2="75" y2="58"/><line class="cls-7" x1="54" y1="66" x2="75" y2="66"/><line class="cls-7" x1="54" y1="74" x2="75" y2="74"/><path class="cls-6" d="M489.08,29.27a1.18,1.18,0,0,0-1-1,32.29,32.29,0,0,0-26.8,9.21l-7.88,7.88L442,46.8a1.19,1.19,0,0,0-.68.34l-11,11a1.18,1.18,0,0,0,.62,2l8.29,1.54,1.63,1.63-3.47,1.88a1.18,1.18,0,0,0-.27,1.88l13.15,13.15a1.18,1.18,0,0,0,.84.35h.17a1.18,1.18,0,0,0,.87-.61l1.88-3.47,1.63,1.63,1.54,8.29a1.18,1.18,0,0,0,2,.62l11-11a1.18,1.18,0,0,0,.34-.68L472,63.95l7.88-7.88a32.29,32.29,0,0,0,9.21-26.8Zm-49.64,30-5.83-1.08,9.09-9.09,7.93-1Zm11.41,18.11L439.95,66.47,442.64,65l9.68,9.67Zm17.37-2.76-9.09,9.09-1.08-5.83,11.19-11.19Zm10-20.22L456.78,75.81,441.52,60.54l21.41-21.41a30.1,30.1,0,0,1,11.08-7,14.14,14.14,0,0,0,11.2,11.2,30.11,30.11,0,0,1-7,11.08ZM485.92,41a11.79,11.79,0,0,1-9.64-9.64,30.16,30.16,0,0,1,10.56-.92A30.16,30.16,0,0,1,485.92,41Zm0,0"/><path class="cls-6" d="M461.77,45.41a7.17,7.17,0,1,0,10.14,0,7.18,7.18,0,0,0-10.14,0Zm8.47,8.47a4.81,4.81,0,1,1,0-6.8,4.81,4.81,0,0,1,0,6.8Zm0,0"/><path class="cls-6" d="M442.39,75.15a1.18,1.18,0,0,0-1.67,0L430.58,85.29A1.18,1.18,0,1,0,432.25,87l10.14-10.14a1.18,1.18,0,0,0,0-1.67Zm0,0"/><path class="cls-6" d="M444,78.39,439.38,83a1.18,1.18,0,0,0,1.67,1.67l4.57-4.57A1.18,1.18,0,0,0,444,78.39Zm0,0"/><path class="cls-6" d="M437.79,85a1.18,1.18,0,1,0,1.09.73,1.19,1.19,0,0,0-1.09-.73Zm0,0"/><path class="cls-6" d="M438.88,85.77Zm0,0"/><path class="cls-6" d="M434.44,87.9l-.63.63a1.18,1.18,0,0,0,1.67,1.67l.63-.63a1.18,1.18,0,0,0-1.67-1.67Zm0,0"/><path class="cls-6" d="M433.59,77.49a1.18,1.18,0,0,0-1.67,0l-4.57,4.57A1.18,1.18,0,0,0,429,83.73l4.57-4.57a1.18,1.18,0,0,0,0-1.67Zm0,0"/><path class="cls-6" d="M435.48,77a1.18,1.18,0,1,0-1.27-.49s0,0,0,0h0a1.2,1.2,0,0,0,1.27.49Zm0,0"/><path class="cls-6" d="M438.53,74.22l.63-.63a1.18,1.18,0,1,0-1.67-1.67l-.63.63a1.18,1.18,0,1,0,1.67,1.67Zm0,0"/><path class="cls-6" d="M630.47,45.18a8.46,8.46,0,0,1-7-13,.77.77,0,0,1,.84-.42.94.94,0,0,1,.84.53l3,5a3.7,3.7,0,0,0,3.57-2.1h0l-2.94-5.25a1,1,0,0,1,0-1.05,1.34,1.34,0,0,1,.74-.53,8.62,8.62,0,0,1,6.83,2.42,8.42,8.42,0,0,1-1.26,12.92A7.56,7.56,0,0,1,630.47,45.18ZM624.38,35a6.29,6.29,0,1,0,10.51-2.63,6.21,6.21,0,0,0-3.36-1.79l2.31,4a.79.79,0,0,1,0,.95l-.21.53a6,6,0,0,1-5.67,3.26h-.53a1.07,1.07,0,0,1-.84-.53Z"/><path class="cls-6" d="M676.49,91.2a8.26,8.26,0,0,1-5.88-2.42,8.38,8.38,0,1,1,12.92-1.37,1.41,1.41,0,0,1-.95.53.94.94,0,0,1-.84-.53l-2.94-5a3.85,3.85,0,0,0-3.68,2.1l3,5.15a1,1,0,0,1,0,1.05,1.07,1.07,0,0,1-.84.53Zm0-14.71A5.86,5.86,0,0,0,673,77.54,6.25,6.25,0,0,0,672,87.21,6.21,6.21,0,0,0,675.33,89L673,85a.79.79,0,0,1,0-.95l.21-.53a5.82,5.82,0,0,1,5.67-3.26h.53a1.07,1.07,0,0,1,.84.53l2.21,3.78a6.4,6.4,0,0,0-2.42-6.93A6.29,6.29,0,0,0,676.49,76.49Z"/><path class="cls-6" d="M661.36,60.41h0a1,1,0,0,1-.74-.32l-7.46-7.46a1,1,0,0,1,0-1.47l21.64-21.54a4.31,4.31,0,0,1,6.09,0l2.84,2.84a4.31,4.31,0,0,1,0,6.09L662.09,60.1A1.14,1.14,0,0,1,661.36,60.41Zm-6-8.51,5.88,5.88L682.16,37a2.16,2.16,0,0,0,0-3l-2.84-2.84a2.16,2.16,0,0,0-3,0Z"/><path class="cls-6" d="M652.53,69.24a1,1,0,0,1-.74-.32l-7.46-7.46a1,1,0,0,1,0-1.47l2.94-2.94a1,1,0,0,1,.74-.32h0a1,1,0,0,1,.74.32l7.46,7.46a1,1,0,0,1,0,1.47l-2.84,2.94a2,2,0,0,1-.84.32Zm-5.88-8.51,5.88,5.88L654,65.14l-5.88-5.88Z"/><path class="cls-6" d="M655.58,66.19a1,1,0,0,1-.74-.32l-7.46-7.46a1,1,0,0,1-.21-1.16,1.16,1.16,0,0,1,1.05-.63c.74,0,2.31.11,2.94-.42A9.81,9.81,0,0,0,653,52a1.16,1.16,0,0,1,.63-1.05,1,1,0,0,1,1.16.21l7.46,7.46a1,1,0,0,1,.21,1.16,1.05,1.05,0,0,1-1.05.63,9.3,9.3,0,0,0-4.2,1.79c-.63.63-.53,2.1-.42,2.94a1.16,1.16,0,0,1-.63,1.05Zm-5-7.46,4,4a3.55,3.55,0,0,1,.95-2,11.74,11.74,0,0,1,3.68-2l-4.62-4.62a10,10,0,0,1-2,3.68A3.55,3.55,0,0,1,650.54,58.73Z"/><path class="cls-6" d="M622.9,91.41a1,1,0,0,1-.74-.32,1.19,1.19,0,0,1-.32-.84l.63-5a1.06,1.06,0,0,1,.42-.74l4.62-3.15a1.11,1.11,0,0,1,1.37.11l2.94,2.94a1.1,1.1,0,0,1,.11,1.37l-3.15,4.62a1.06,1.06,0,0,1-.74.42l-5,.63Zm1.58-5.57-.42,3.26,3.36-.42,2.42-3.47-1.79-1.79Z"/><path class="cls-6" d="M631.1,86.15a1,1,0,0,1-.74-.32l-2.94-2.94a1.14,1.14,0,0,1-.32-.74,1,1,0,0,1,.32-.74L646.65,62.2a1,1,0,0,1,1.47,0l2.94,2.94a1,1,0,0,1,0,1.47L631.94,85.84A1.19,1.19,0,0,1,631.1,86.15Zm-1.47-4,1.47,1.47L648.86,66l-1.47-1.47Z"/><path class="cls-6" d="M660.73,53.58a1,1,0,0,1-.74-.32,1,1,0,0,1,0-1.47l17.86-17.86a1,1,0,0,1,1.47,1.47L661.46,53.27A1,1,0,0,1,660.73,53.58Z"/><path class="cls-6" d="M669,83.84h-.11a.88.88,0,0,1-.74-.42c-3.78-5.67-6.62-9.56-8.83-11.77l-5.25-5.25a1,1,0,0,1,0-1.47l.21-.21a5.17,5.17,0,0,1,1.05-4,7.82,7.82,0,0,1,2.31-1.47,1,1,0,0,1,1.16.21l6.3,6.3h0c2.21,2.21,6,5,11.77,8.83a.79.79,0,0,1,.42.74,1.19,1.19,0,0,1-.32.84l-.11.11a1,1,0,0,1-.74.32,6.07,6.07,0,0,0-3.36,1.05,6.42,6.42,0,0,0-2.63,5.15,1,1,0,0,1-.32.74l-.11.11A1.22,1.22,0,0,1,669,83.84ZM656.42,65.77l4.52,4.52a72.7,72.7,0,0,1,7.67,9.88A8.41,8.41,0,0,1,672,75.86a8,8,0,0,1,1.89-.95A61.21,61.21,0,0,1,664,67.24l-5.78-5.78c-.53.32-.95.53-1.05.74-.63.63-.53,2.1-.42,2.94Z"/><path class="cls-6" d="M647.49,59.36a1,1,0,0,1-.74-.32l-5.25-5.25a45.31,45.31,0,0,0-11.56-8.62.79.79,0,0,1-.53-.74,1.69,1.69,0,0,1,.32-.95l.11-.11a.75.75,0,0,1,.63-.32,6.33,6.33,0,0,0,6.2-6.2,1,1,0,0,1,.32-.74l.11-.11a1.69,1.69,0,0,1,.95-.32.79.79,0,0,1,.74.53,45.62,45.62,0,0,0,8.72,11.66l6.3,6.3a1,1,0,0,1,.21,1.16,6.68,6.68,0,0,1-1.47,2.31,5.17,5.17,0,0,1-4,1.05l-.21.21a1,1,0,0,1-.84.42ZM633.41,44.65a49,49,0,0,1,9.67,7.78l4.52,4.52a1.49,1.49,0,0,1,.63-.21c.74,0,2.31.11,2.94-.42a7.39,7.39,0,0,0,.74-1.05L646,49.38a49.13,49.13,0,0,1-7.67-9.67,8.28,8.28,0,0,1-3.26,4.1A12.54,12.54,0,0,1,633.41,44.65Z"/><path class="cls-6" d="M265,42.63a10.71,10.71,0,1,0-10.71-10.71A10.73,10.73,0,0,0,265,42.63Zm0-19.26a8.54,8.54,0,1,1-8.54,8.54A8.55,8.55,0,0,1,265,23.37Zm0-1"/><path class="cls-6" d="M251.28,74.89l-6-1-2.79-5.36a1.09,1.09,0,0,0-1.93,0l-2.79,5.36-6,1a1.09,1.09,0,0,0-.6,1.83L235.5,81l-.89,6a1.09,1.09,0,0,0,1.56,1.13l5.41-2.69L247,88.13A1.09,1.09,0,0,0,248.54,87l-.89-6,4.23-4.31a1.09,1.09,0,0,0-.59-1.83Zm-5.56,5a1.09,1.09,0,0,0-.3.92l.66,4.45-4-2a1.09,1.09,0,0,0-1,0l-4,2,.66-4.45a1.09,1.09,0,0,0-.3-.92l-3.15-3.21,4.44-.74a1.09,1.09,0,0,0,.78-.57l2.08-4,2.08,4a1.09,1.09,0,0,0,.78.57l4.44.74Zm0,0"/><path class="cls-6" d="M274.69,80.89l-6-1-2.79-5.36a1.09,1.09,0,0,0-1.93,0l-2.79,5.36-6,1a1.09,1.09,0,0,0-.6,1.83L258.9,87,258,93a1.09,1.09,0,0,0,1.56,1.13L265,91.44l5.41,2.69A1.09,1.09,0,0,0,271.94,93l-.89-6,4.23-4.31a1.09,1.09,0,0,0-.6-1.83Zm-5.56,5a1.09,1.09,0,0,0-.3.92l.66,4.45-4-2a1.09,1.09,0,0,0-1,0l-4,2,.66-4.45a1.08,1.08,0,0,0-.3-.92l-3.15-3.21,4.44-.74a1.09,1.09,0,0,0,.78-.57l2.08-4,2.08,4a1.09,1.09,0,0,0,.78.57l4.44.74Zm0,0"/><path class="cls-6" d="M298.95,75.62a1.09,1.09,0,0,0-.85-.74l-6-1-2.79-5.36a1.09,1.09,0,0,0-1.93,0l-2.79,5.36-6,1a1.09,1.09,0,0,0-.59,1.83L282.31,81l-.89,6A1.09,1.09,0,0,0,283,88.13l5.41-2.69,5.41,2.69A1.09,1.09,0,0,0,295.35,87l-.89-6,4.23-4.31a1.09,1.09,0,0,0,.26-1.1Zm-6.42,4.27a1.08,1.08,0,0,0-.3.92l.66,4.45-4-2a1.09,1.09,0,0,0-1,0l-4,2,.66-4.45a1.09,1.09,0,0,0-.3-.92l-3.15-3.21,4.44-.74a1.09,1.09,0,0,0,.78-.57l2.08-4,2.08,4a1.09,1.09,0,0,0,.78.57l4.44.74Zm0,0"/><path class="cls-6" d="M265,36.84a4.92,4.92,0,0,0,3.71-1.7,1.09,1.09,0,1,0-1.64-1.43,2.74,2.74,0,0,1-4.15,0,1.09,1.09,0,1,0-1.64,1.43,4.92,4.92,0,0,0,3.71,1.7Zm0,0"/><path class="cls-8" d="M265,69.81a20.32,20.32,0,0,0,15.5-7.16V58.84a13.19,13.19,0,0,0-13.15-13.15h-4.7a13.19,13.19,0,0,0-13.15,13.15v3.82A20.32,20.32,0,0,0,265,69.81Z"/></g></svg>