<svg id="Layer_1" data-name="Layer 1" xmlns="http://www.w3.org/2000/svg" viewBox="0 0 140 50"><defs><style>.cls-1{fill:#636569;}.cls-2{fill:#0897b2;}</style></defs><title>Artboard 1</title><path class="cls-1" d="M118.08,22.85a1.24,1.24,0,1,1,1.24,1.23,1.23,1.23,0,0,1-1.24-1.23m1.24-1.14a1.13,1.13,0,1,0,1.12,1.14,1.14,1.14,0,0,0-1.12-1.14m-.25,1.79h-.23V22.16h.48c.33,0,.52.16.52.42a.4.4,0,0,1-.26.39l.33.53h-.27l-.29-.48-.28,0Zm.23-.66c.22,0,.3-.1.3-.24s-.1-.23-.3-.23h-.23v.47Z"/><path class="cls-2" d="M43.76,17.78A1.78,1.78,0,0,0,42,16H34.5l-2-2a7,7,0,0,0-9.95,0l-.67.68L7.8.6l-.63.63a9.17,9.17,0,0,0,0,13l7.56,7.55L10.52,26A8.61,8.61,0,0,0,8,32.09a8.48,8.48,0,0,0,2.59,6l.63.61L30.93,19.05a4.15,4.15,0,0,1,3-1.27ZM31.2,15.22l1,1a6.11,6.11,0,0,0-2.46,1.45h0L25,22.49a9.71,9.71,0,0,0,.07-1.21,8.53,8.53,0,0,0-2-5.36l.7-.7a5.26,5.26,0,0,1,7.43,0m-9.4,2a6.79,6.79,0,0,1-.45,8.93l-2.23,2.22a8.55,8.55,0,0,0-1.9-6.57ZM8.43,12.93a7.38,7.38,0,0,1-.59-9.77L20.57,15.9,16,20.48Zm1.4,19.14a6.85,6.85,0,0,1,1.95-4.86L16,23A6.78,6.78,0,0,1,15.5,32l-4.22,4.23a6.67,6.67,0,0,1-1.45-4.12"/><polygon class="cls-1" points="33.79 38.85 33.79 23.15 43.74 23.15 43.74 25.13 35.93 25.13 35.93 29.98 42.43 29.98 42.43 31.97 35.93 31.97 35.93 36.87 43.74 36.87 43.74 38.85 33.79 38.85"/><path class="cls-1" d="M55.48,21.59h0V38.85H53.42V37.8a4.67,4.67,0,0,1-3.21,1.43c-3.24,0-5.13-2.62-5.13-6.08A5.84,5.84,0,0,1,50.94,27a9.06,9.06,0,0,1,2.48.37V23.65a2.06,2.06,0,0,1,2.06-2.06m-4.62,7.24c-2.33,0-3.64,1.9-3.64,4.27,0,2.53,1.28,4.22,3.42,4.22a4.16,4.16,0,0,0,2.78-1.11V29.65a4,4,0,0,0-2.56-.82"/><path class="cls-1" d="M57.91,37.09a2.54,2.54,0,0,1,1.91-2.23,3.93,3.93,0,0,1-1.91-3.55A4.35,4.35,0,0,1,62.58,27a7.09,7.09,0,0,1,3,.65l3-.28.07,2L66.37,29a3.67,3.67,0,0,1,.78,2.36,4.34,4.34,0,0,1-4.6,4.22,4.91,4.91,0,0,1-1.6-.28c-.48.18-1.13.63-1.13,1.21s.45,1.08,2.61,1.08h1c3.45,0,5,1,5,3.09,0,2.54-2.74,4.42-6.21,4.42-3,0-5.35-1.31-5.35-3.37A2.73,2.73,0,0,1,59.41,39a2.16,2.16,0,0,1-1.5-1.94M59,41.26c0,1.23,1.45,2.14,3.64,2.14s3.87-.93,3.87-2.34-1.13-1.56-3.44-1.56c-.73,0-1.59,0-2.09-.1-1.15.33-2,1-2,1.86m3.66-7.36a2.43,2.43,0,0,0,2.47-2.69,2.4,2.4,0,0,0-2.64-2.59A2.49,2.49,0,0,0,60,31.34a2.46,2.46,0,0,0,2.68,2.56"/><path class="cls-1" d="M71.47,33.45a3.73,3.73,0,0,0,3.79,3.87,6.36,6.36,0,0,0,3.44-1l.38,1.91a7.53,7.53,0,0,1-3.87,1,5.66,5.66,0,0,1-5.83-6c0-3.72,2.46-6.25,5.68-6.25,2.79,0,4.4,1.75,4.4,4.49a7,7,0,0,1-.25,1.84l-7.74.05Zm6-1.66v-.18c0-1.7-.8-2.83-2.61-2.83a3.33,3.33,0,0,0-3.29,3.06Z"/><polygon class="cls-1" points="83.84 38.9 80.3 27.34 82.51 27.34 84.95 35.89 87.61 27.39 89.5 27.39 92.43 35.91 94.54 27.34 96.83 27.34 93.36 38.9 91.48 38.9 88.54 30.31 85.73 38.9 83.84 38.9"/><path class="cls-1" d="M99.55,33.45a3.73,3.73,0,0,0,3.79,3.87,6.36,6.36,0,0,0,3.44-1l.38,1.91a7.53,7.53,0,0,1-3.87,1,5.66,5.66,0,0,1-5.83-6c0-3.72,2.46-6.25,5.68-6.25,2.79,0,4.4,1.75,4.4,4.49a6.59,6.59,0,0,1-.26,1.84l-7.73.05Zm6-1.66v-.18c0-1.7-.8-2.83-2.61-2.83a3.33,3.33,0,0,0-3.29,3.06Z"/><path class="cls-1" d="M109.82,38.85V23.65a2.06,2.06,0,0,1,2.06-2.06V38.85Z"/><path class="cls-1" d="M114.77,38.85V23.65a2.07,2.07,0,0,1,2.07-2.06V38.85Z"/><path class="cls-1" d="M74.72,46.81H74v1.67h-.87V43.31H74.8c1.41,0,2.08.71,2.08,1.7,0,1.2-.81,1.8-2.16,1.8m0-2.74H74v2l.8,0c.82,0,1.23-.36,1.23-1s-.43-1-1.28-1"/><polygon class="cls-1" points="78.16 48.48 78.16 43.31 81.56 43.31 81.56 44.08 79.02 44.08 79.02 45.5 81.13 45.5 81.13 46.28 79.02 46.28 79.02 47.71 81.56 47.71 81.56 48.48 78.16 48.48"/><path class="cls-1" d="M83.81,48.48H83V43.31h1.82c1.28,0,2,.6,2,1.61a1.52,1.52,0,0,1-1,1.51l1.28,2H86L84.9,46.62l-1.09.06Zm.88-2.54c.84,0,1.2-.39,1.2-1s-.4-.89-1.21-.89H83.8V46Z"/><path class="cls-1" d="M90.84,47.09c0-.48-.38-.65-1.19-.88s-1.58-.53-1.58-1.54.7-1.48,1.8-1.48a3.22,3.22,0,0,1,1.72.45l-.25.74a3,3,0,0,0-1.46-.44c-.67,0-.95.31-.95.68s.45.64,1.21.85S91.69,46,91.69,47s-.76,1.58-1.9,1.58A3.78,3.78,0,0,1,88,48.12l.24-.76a2.87,2.87,0,0,0,1.58.49c.61,0,1-.31,1-.76"/><path class="cls-1" d="M95.41,48.6a2.52,2.52,0,0,1-2.63-2.7,2.59,2.59,0,0,1,2.63-2.71A2.52,2.52,0,0,1,98,45.87a2.6,2.6,0,0,1-2.63,2.73m0-4.67a1.76,1.76,0,0,0-1.74,1.94,1.78,1.78,0,0,0,1.77,2,2,2,0,0,0,0-3.93"/><polygon class="cls-1" points="102.94 43.31 103.77 43.31 103.77 48.53 102.84 48.53 100.21 44.57 100.23 48.48 99.39 48.48 99.39 43.31 100.35 43.31 102.96 47.22 102.94 43.31"/><path class="cls-1" d="M109.68,48.48h-.87l-.46-1.28h-2.16l-.45,1.28h-.9l1.93-5.17h1Zm-2.41-4.37-.82,2.33h1.64Z"/><polygon class="cls-1" points="110.79 48.48 110.79 43.31 111.65 43.31 111.65 47.7 114.11 47.7 114.11 48.48 110.79 48.48"/><path class="cls-1" d="M120.65,44.36a2.67,2.67,0,0,0-1.4-.42,1.71,1.71,0,0,0-1.73,1.93,1.73,1.73,0,0,0,1.74,2,2.41,2.41,0,0,0,1.44-.48l.18.83a3.35,3.35,0,0,1-1.64.41,2.46,2.46,0,0,1-2.58-2.7,2.5,2.5,0,0,1,2.59-2.71,3.41,3.41,0,0,1,1.67.41Z"/><path class="cls-1" d="M126.52,48.48h-.88l-.46-1.28H123l-.45,1.28h-.9l1.93-5.17h1Zm-2.42-4.37-.82,2.33h1.65Z"/><path class="cls-1" d="M128.48,48.48h-.86V43.31h1.82c1.28,0,2,.6,2,1.61a1.52,1.52,0,0,1-1,1.51l1.29,2h-1l-1.14-1.86-1.09.06Zm.88-2.54c.85,0,1.2-.39,1.2-1s-.4-.89-1.21-.89h-.88V46Z"/><polygon class="cls-1" points="132.97 48.48 132.97 43.31 136.37 43.31 136.37 44.08 133.83 44.08 133.83 45.5 135.94 45.5 135.94 46.28 133.83 46.28 133.83 47.71 136.37 47.71 136.37 48.48 132.97 48.48"/></svg>