<?xml version="1.0" encoding="utf-8"?>
<!-- Generator: Adobe Illustrator 22.1.0, SVG Export Plug-In . SVG Version: 6.00 Build 0)  -->
<svg version="1.1" id="Layer_1" xmlns:sketch="http://www.bohemiancoding.com/sketch/ns"
	 xmlns="http://www.w3.org/2000/svg" xmlns:xlink="http://www.w3.org/1999/xlink" x="0px" y="0px" viewBox="0 0 128 92"
	 style="enable-background:new 0 0 128 92;" xml:space="preserve">
<style type="text/css">
	.st0{fill:#808084;}
	.st1{fill:#D41E1B;}
	.st2{fill:#FF8A00;}
</style>
<title>lixar</title>
<desc>Created with Sketch.</desc>
<g id="Page-1" sketch:type="MSPage">
	<g id="logos" transform="translate(-1015.000000, -1049.000000)" sketch:type="MSArtboardGroup">
		<g id="Path-481-_x2B_-Path-490-_x2B_-Path-491" transform="translate(1065.000000, 1060.000000)" sketch:type="MSLayerGroup">
			<path id="Path-481" sketch:type="MSShapeGroup" class="st0" d="M-38,57v23.9h14.6v-4.6h-10.4V57.1L-38,57z M-14.3,57h4.3v23.8
				h-4.2L-14.3,57z M0.9,57.1l6.6,11.2L0.1,80.8h5.1l4.7-8.3l4.5,8.3l5.5,0.1l-7.7-12.6L18.9,57l-5.1,0.1L10,64.3L6,57L0.9,57.1z
				 M24.6,80.8L33.3,57h3.5l8.6,24h-5L35,64.3l-5.6,16.5H24.6z M51.9,57v23.7h4.4L56.2,61h6.6c0,0,2,1.2,2,3.2s-1.9,3-1.9,3l-4,0.1
				L65,80.8l5-0.1l-4.9-10.4c0,0,4.2-1.8,3.9-6.6S65.6,58,65.6,58c-1-0.5-2.6-1-3.7-1H51.9z"/>
			<g id="Path-490-_x2B_-Path-491" sketch:type="MSShapeGroup">
				<path id="Path-490" class="st1" d="M-49.7,5.7L14.1-11L77.9,5.6V20L14.1,37.3l-63.7-16.9L-49.7,5.7z"/>
				<path id="Path-491" class="st2" d="M-49.6,20.2v33.5L14,37.2L-49.6,20.2z M77.9,20L78,53.6L14,37.3L77.9,20z"/>
			</g>
		</g>
	</g>
</g>
</svg>
