<svg id="Layer_1" data-name="Layer 1" xmlns="http://www.w3.org/2000/svg" viewBox="0 0 210 52"><defs><style>.cls-1,.cls-2{fill:#005fad;}.cls-2{fill-rule:evenodd;}</style></defs><title>Artboard 1</title><path class="cls-1" d="M.38,2c.08.08.08.16.16.16V2.1A.08.08,0,0,0,.62,2V2.1c5.45,10.32,11,20.64,16.42,31,2,3.82,4.07,7.64,6,11.46h.08V2.75c0-.25-.08-.49,0-.65A.48.48,0,0,1,23.46,2H42.65a42.06,42.06,0,0,1,6.5.24A21,21,0,0,1,62.07,9.33a21.39,21.39,0,0,1-7,33.49,20.44,20.44,0,0,1-9,2V2.34c-5.53,10.49-11.13,21-16.66,31.46-1.55,2.92-3.09,5.85-4.64,8.7-.32.73-.73,1.46-1.05,2.11-.08.16-.16.49-.33.57a7,7,0,0,1-1.3,0H.38V2"/><path class="cls-1" d="M112.47,29.78c0-.84-.17-1-1.52-1.17a17.36,17.36,0,0,0-3.53-.51c-7.24,0-10.61,5-10.61,8.75,0,3.54,3.2,8.93,10.1,8.93,2.86,0,4.72-.84,5-1.18.68-.34.68-.51.68-.84L113,41.4c0-.34,0-.51-.5-.51a.54.54,0,0,0-.51.51c-1.18,2.19-2.36,3.7-4.88,3.7-4.21,0-6.57-4.37-6.57-8.25,0-3.53,2.19-8.08,6.74-8.08,2.52,0,3.53,1.35,4.54,2.87.34.5.51.5.68.5.33,0,.33-.17.33-.5l-.33-1.86"/><path class="cls-2" d="M117.69,38.87c0-3.36,1.51-5.38,3.53-5.38,3,0,4,3.87,4,5.89,0,3.2-1.68,5.72-3.7,5.72-2.19,0-3.87-2.86-3.87-6.23m10.43.17c0-4.21-3.53-6.23-6.73-6.23a6.49,6.49,0,1,0,.17,13A6.51,6.51,0,0,0,128.12,39Z"/><path class="cls-1" d="M131.32,42.92c0,1.51,0,1.68-1.18,1.85-.5.17-.67.17-.67.5s.17.34.51.34c.67,0,1-.17,2.69-.17s2.19.17,3,.17c.17,0,.34,0,.34-.34,0-.17,0-.33-.85-.5-1.17-.17-1.17-.34-1.17-2V30.29c0-.34.16-2,.16-2.53,0-.16,0-.5-.33-.5-.17,0-.17,0-.84.34a10.26,10.26,0,0,1-2.36.84c-.84.17-.84.17-.84.5s.17.34.67.34c.84,0,.84,1,.84,1.85V42.92"/><path class="cls-1" d="M138.56,42.92c0,1.51,0,1.68-1.18,1.85-.5.17-.84.17-.84.5s.34.34.67.34c.68,0,1-.17,2.7-.17s2.19.17,3,.17c.17,0,.33,0,.33-.34,0-.17,0-.33-.84-.5-1.18-.17-1.18-.34-1.18-2V30.29c0-.34.17-2,.17-2.53,0-.16,0-.5-.33-.5-.17,0-.17,0-.85.34a10,10,0,0,1-2.35.84c-.84.17-.84.17-.84.5s.16.34.67.34c.84,0,.84,1,.84,1.85V42.92"/><path class="cls-2" d="M148.66,36.52c-.67,0-.84,0-.84-.34a3.31,3.31,0,0,1,3.37-2.69c.33,0,2.35,0,2.35,1.68,0,.67-.84,1.35-2,1.35h-2.86m6.9.84c.51,0,.68,0,.68-.51,0-1-.84-4-5.05-4a6.55,6.55,0,0,0-6.74,6.74c0,3.87,2.7,6.23,6.4,6.23,3.54,0,5.39-2.36,5.39-2.86a.17.17,0,0,0-.17-.17c-.17,0-.17,0-.67.33a4.49,4.49,0,0,1-3,1.18c-2.87,0-4.89-2.35-4.89-5.55,0-1.35.17-1.35.68-1.35Z"/><path class="cls-2" d="M164.82,45.44c.68,0,3.71,0,3.71,1.85,0,2.36-3,2.86-4.55,2.86-2.19,0-3.7-1.17-3.7-2.69a2.14,2.14,0,0,1,1.51-2.19c.17,0,1.35.17,1.52.17h1.51m1.52-8.59c0,3.71-2.19,3.71-2.36,3.71-1.34,0-2.69-1-2.69-3.54,0-2.35,1.35-3.53,2.52-3.53C165.83,33.49,166.34,35.84,166.34,36.85Zm1.68-3a2.57,2.57,0,0,1-1.34-.33,5.93,5.93,0,0,0-2.87-.68c-3.36,0-5.38,2.19-5.38,4.38s1.68,3,2.86,3.54v.16c0,.17,0,.17-.34.34l-1.85.68a.71.71,0,0,0-.67.67c0,.67,1.34,1.68,1.51,1.85.68.51.68.51.68.67s-.51.34-.68.51c-1,.5-2.36,1.18-2.36,2.52,0,2.19,3.37,2.87,5.22,2.87,4.55,0,7.92-2.36,7.92-5,0-1.35-1-3-4.55-2.87H162.8c-.16,0-1.34-.16-1.34-.84,0-1,1.68-1,2.52-1.18,3.87,0,5.22-2.52,5.22-4a4.2,4.2,0,0,0-.34-1.68.61.61,0,0,1-.16-.34c0-.17.16-.17.5-.17h1c.34,0,.51,0,.51-.33,0,0,0-.68-.51-.68Z"/><path class="cls-2" d="M175.6,36.52c-.51,0-.68,0-.68-.34a3.32,3.32,0,0,1,3.37-2.69c.34,0,2.36,0,2.36,1.68,0,.67-.84,1.35-2,1.35h-3m7.07.84c.5,0,.67,0,.67-.51,0-1-.84-4-5.05-4a6.55,6.55,0,0,0-6.73,6.74c0,3.87,2.69,6.23,6.4,6.23,3.53,0,5.38-2.36,5.38-2.86a.17.17,0,0,0-.17-.17c-.16,0-.33,0-.67.33a4.45,4.45,0,0,1-3,1.18c-2.86,0-4.88-2.35-4.88-5.55,0-1.35.17-1.35.67-1.35Z"/><path class="cls-1" d="M86.54,4.53h.17l.17,12c0,1.35,0,2-1.35,2.19-.67,0-1,0-1,.51,0,.17.34.33.51.33.5,0,2-.16,3.36-.16,1,0,2.53.16,3,.16.17,0,.68,0,.68-.5,0-.17-.34-.34-.85-.34-1.17,0-1.34-.33-1.34-2.19L89.57,4.87c-.17-1.52,0-1.85,1.18-2,.84,0,1.18,0,1.18-.34s-.51-.34-.84-.34H87.21c-.5,0-.67,0-1.17.85L81.66,14.3,77.11,2.85c-.33-.68-.5-.68-.84-.68H71.73c-.34,0-.51.17-.51.34,0,.34.17.51,1,.51,1.35,0,1.35,0,1.35,1.34,0,3.71-.51,11.79-.51,12-.17,2-.5,2.18-1.51,2.35-.68,0-1,.17-1,.51,0,.17.33.33.5.33.51,0,1.52-.16,2.53-.16,1.18,0,2,.16,2.35.16s.85,0,.85-.5c0-.34-.34-.34-1-.34-1.35,0-1.69-.17-1.69-4.54,0-2.86.17-6.06.34-9.09h.17L80,18.34c.16.5.33.67.67.67s.5-.17.67-.84L86.54,4.53"/><path class="cls-2" d="M98,3.52A1.5,1.5,0,0,0,96.47,2,1.62,1.62,0,0,0,95,3.52a1.52,1.52,0,1,0,3,0M95.13,16.65c0,1.52,0,1.85-1.18,2-.68,0-.84.17-.84.51s.33.33.5.33c.51,0,1.69-.16,2.86-.16,1.35,0,2.53.16,2.87.16.16,0,.5,0,.5-.33s-.17-.51-.84-.51c-1.18-.17-1.18-.5-1.18-2V7.73c0-.67,0-1-.34-1-.16,0-1,.84-1.17.84a7.08,7.08,0,0,1-2.53,1.18c-.34.17-.34.34-.34.51,0,.33.34.33.51.33,1,0,1.18.51,1.18,1.85Z"/><path class="cls-2" d="M107.42,15c0,1.85-1.18,2.86-2.36,2.86-.67,0-1.35-.5-1.35-1.85,0-.51,0-1.52,1.85-2.36a4.14,4.14,0,0,1,1.52-.67.37.37,0,0,1,.34.34V15m0-3.54c0,.51-.17.68-.85,1-4.2,1.69-5.55,2.87-5.55,4.89,0,.33,0,2.35,2,2.35a6.23,6.23,0,0,0,3.87-2,.59.59,0,0,1,.34-.17l.33.51c.34.67.85,1.51,1.86,1.51,1.34,0,3-1.17,3-1.85a.36.36,0,0,0-.34-.33c-.17,0-.17,0-.5.33a1,1,0,0,1-.68.17c-.84,0-.84-.67-.84-1.51V8.57c0-1-.67-2-3.37-2-4.21,0-5.89,2.86-5.89,3.87,0,.34.34.51.67.51a2.23,2.23,0,0,0,2-1.35c.17-.67.85-2.36,2.36-2.36,1.35,0,1.52,1.35,1.52,2.36Z"/><path class="cls-1" d="M130.48,16.65c0,1.52,0,1.85-1.18,2-.5,0-.84.17-.84.51s.34.33.51.33c.5,0,1.34-.16,2.86-.16s2.35.16,2.86.16c.17,0,.5,0,.5-.33s-.16-.51-.84-.51c-1.18-.17-1.18-.5-1.18-2V10.09c0-1-.33-3.54-3.87-3.54a5.75,5.75,0,0,0-3.2,1.35,2,2,0,0,1-.84.84c-.17,0-.17,0-.67-.67a3.64,3.64,0,0,0-2.86-1.52c-1.18,0-2.19.17-3.71,1.85-.17.17-.33.34-.5.34V6.89c0-.34-.17-.51-.34-.51a.9.9,0,0,0-.67.51,5.84,5.84,0,0,1-2.86,1.68c-.17.17-.34.17-.34.34,0,.5.34.5.84.5.67,0,.67.68.67,1.86v5.38c0,1.52,0,1.85-1.17,2-.51,0-.85.17-.85.51s.34.33.51.33c.5,0,1.68-.16,2.86-.16,1.52,0,2.53.16,2.86.16.17,0,.51,0,.51-.33s-.17-.51-.84-.51c-1.18-.17-1.18-.5-1.18-2V10.76a2.07,2.07,0,0,1,.5-1.51,2.62,2.62,0,0,1,2.36-1c1.85,0,2.36,1.51,2.36,3v5.38c0,1.52,0,1.85-1.18,2-.68,0-.84.17-.84.51s.33.33.5.33c.51,0,1.35-.16,2.86-.16s2.36.16,2.87.16c.16,0,.33,0,.33-.33s-.17-.51-.84-.51c-1-.17-1-.5-1-2V10.59a2.47,2.47,0,0,1,.34-1.51,3.42,3.42,0,0,1,2.35-.84,2.16,2.16,0,0,1,2.36,2.52v5.89"/><path class="cls-2" d="M140.75,3.52A1.5,1.5,0,0,0,139.23,2a1.62,1.62,0,0,0-1.51,1.51,1.52,1.52,0,1,0,3,0m-2.86,13.13c0,1.52,0,1.85-1.18,2-.67,0-.84.17-.84.51s.33.33.5.33c.51,0,1.69-.16,2.86-.16,1.35,0,2.53.16,2.87.16.16,0,.5,0,.5-.33s-.17-.51-.84-.51c-1.18-.17-1.18-.5-1.18-2V7.73c0-.67,0-1-.34-1-.16,0-1,.84-1.17.84a7.08,7.08,0,0,1-2.53,1.18c-.34.17-.34.34-.34.51,0,.33.34.33.51.33,1,0,1.18.51,1.18,1.85Z"/><path class="cls-2" d="M154.72,5c0-1.52.17-2.19,1.85-2.19,5.9,0,7.75,4.88,7.75,8.08,0,4.38-3.2,7.91-6.9,7.91-2.19,0-2.7-1-2.7-2.86V5m-2.86,11.61c0,1.18,0,1.85-1.51,2-.51,0-.85,0-.85.34,0,.5.34.5.51.5s2.69-.16,3.2-.16c.67,0,4.37.16,5,.16,7.24,0,9.26-5.72,9.26-8.75a8.25,8.25,0,0,0-3.71-6.9c-1.68-1.18-3.7-1.69-7.24-1.69-2.52,0-7.23.34-7.23,1.18,0,.17.16.17.5.17.17,0,.84-.17,1-.17.67,0,1,.34,1,1.52Z"/><path class="cls-2" d="M175.93,15c0,1.85-1,2.86-2.35,2.86-.51,0-1.18-.5-1.18-1.85,0-.51,0-1.52,1.68-2.36.51-.17,1.18-.67,1.52-.67a.36.36,0,0,1,.33.34V15m0-3.54c0,.51,0,.68-.67,1-4.21,1.69-5.72,2.87-5.72,4.89a2.24,2.24,0,0,0,2.19,2.35c1.17,0,2.69-1,3.87-2l.17-.17c.16,0,.16,0,.5.51.34.67.84,1.51,1.85,1.51,1.18,0,2.87-1.17,2.87-1.85,0-.17,0-.33-.17-.33s-.17,0-.51.33a1.24,1.24,0,0,1-.84.17c-.67,0-.84-.67-.84-1.51V8.57c0-1-.67-2-3.2-2-4.21,0-5.89,2.86-5.89,3.87a.45.45,0,0,0,.5.51,2.42,2.42,0,0,0,2.19-1.35c.17-.67.84-2.36,2.36-2.36,1.34,0,1.34,1.35,1.34,2.36Z"/><path class="cls-2" d="M191.76,16.48c0,.51,0,1.52-2.36,1.52-2.69,0-4.37-2.36-4.37-5.39,0-3.7,2-5.39,3.87-5.39,2.86,0,2.86,2.53,2.86,3.71v5.55m2.53-12.29V1.5c0-.17,0-.5-.34-.5,0,0-.17,0-.17.16a18.38,18.38,0,0,1-3.2,1,.53.53,0,0,0-.5.51c0,.17.33.17.5.34.84,0,1,.16,1,1v3l-.17.16c-.17,0-.33,0-.33-.16a8.22,8.22,0,0,0-2.36-.51,6.78,6.78,0,0,0-6.73,6.9,5.93,5.93,0,0,0,5.89,6.23,4.4,4.4,0,0,0,3.2-1.34.49.49,0,0,1,.33-.17c.34,0,.34.17.34.33,0,1,.17,1.18.5,1.18.17,0,1.52-.67,1.86-.67,1.85-.67,1.85-.67,1.85-1.52a.16.16,0,0,0-.17-.16c-.17,0-1,.67-1.18.67s-.33-.17-.33-1Z"/><path class="cls-2" d="M201.36,10.26c-.68,0-.68,0-.68-.34a3.4,3.4,0,0,1,3.2-2.69c.51,0,2.36.16,2.36,1.68,0,.84-.68,1.35-1.85,1.35h-3m7.07.84c.33,0,.67,0,.67-.51,0-.84-.84-4-5-4a6.73,6.73,0,0,0-6.9,6.9,6.14,6.14,0,0,0,6.39,6.23c3.54,0,5.56-2.52,5.56-2.86a.37.37,0,0,0-.34-.34c-.17,0-.17,0-.5.51a4.42,4.42,0,0,1-3,1,5.15,5.15,0,0,1-5-5.39c0-1.51.33-1.51.84-1.51Z"/></svg>