<svg id="Layer_1" data-name="Layer 1" xmlns="http://www.w3.org/2000/svg" viewBox="0 0 162 50"><defs><style>.cls-1{fill:#231f20;}.cls-2{fill:#fff;}</style></defs><title>Artboard 1</title><path class="cls-1" d="M102.79,33.74A13.46,13.46,0,1,1,89.33,20.28a13.46,13.46,0,0,1,13.46,13.46m2.28,12c0-.63-.56-.79-1.15-.79s-1,.23-1,.65.45.59,1.34.74c.67.11,1.34.26,1.34,1,0,.9-.82,1.15-1.53,1.15-.94,0-1.61-.32-1.67-1.31h.38c.07.77.58,1,1.29,1,.55,0,1.12-.15,1.12-.73s-.67-.63-1.34-.74c-.87-.14-1.34-.39-1.34-1,0-.8.74-1.06,1.45-1.06s1.5.27,1.53,1.14h-.38m4.27.79a1.58,1.58,0,1,1,1.58,1.58A1.48,1.48,0,0,1,109.34,46.58Zm-.41,0a2,2,0,1,0,2-1.93,1.86,1.86,0,0,0-2,1.93m7.62-1.84h2.75v.35h-2.37v1.25h2.25v.34h-2.25v1.73h-.38V44.74m7.33.35h-1.44v-.35h3.26v.35h-1.44v3.32h-.38V45.09m10-.35h.41L133,48.41h-.44l-1.11-3.13h0l-1.09,3.13h-.44l-1.22-3.67h.42l1,3.17h0l1.09-3.17h.47l1.08,3.17h0l1-3.17m6,2.21h-1.63l.82-1.83.81,1.83Zm.64,1.46H141l-1.67-3.67h-.44l-1.67,3.67h.41l.5-1.11H140l.48,1.11m4.29-3.32h1.64c.35,0,.76.1.76.64s-.38.72-.8.72h-1.6Zm-.38,3.32h.38V46.8h1.47c.64,0,.88.22.89.86a1.69,1.69,0,0,0,.1.75h.41a1.89,1.89,0,0,1-.13-.76c0-.6-.13-.93-.65-1h0a.89.89,0,0,0,.72-.89c0-.77-.57-1-1.19-1h-2v3.67m6.87-3.67h2.92v.35h-2.54v1.25h2.45v.34h-2.45v1.38h2.58v.35h-3V44.74M13.82,29h.31a1.12,1.12,0,0,1,1,.42,1.3,1.3,0,0,1,.16,1l-.07.29a2,2,0,0,1-.63,1.05,1.78,1.78,0,0,1-1.11.38h-.29a1.17,1.17,0,0,1-1-.41A1.22,1.22,0,0,1,12,30.71l.07-.28a1.86,1.86,0,0,1,.67-1.05A1.73,1.73,0,0,1,13.85,29Zm7,5,1.43-6.67a1.18,1.18,0,0,0-.19-1.05,1.29,1.29,0,0,0-1-.38h-13A1.6,1.6,0,0,0,7,26.26a1.87,1.87,0,0,0-.6,1l-2.8,13a1.16,1.16,0,0,0,.19,1,1.31,1.31,0,0,0,1,.39H8.22a1.64,1.64,0,0,0,1.72-1.43l.76-3.5a1.63,1.63,0,0,1,1.72-1.43h6.67A1.74,1.74,0,0,0,20.24,35a2,2,0,0,0,.64-1.05l0,0m3.37-6.64a2,2,0,0,1,.61-1.05,1.63,1.63,0,0,1,1.11-.41l13,0a1.28,1.28,0,0,1,1,.44,1.08,1.08,0,0,1,.16,1l-.09.32A1.72,1.72,0,0,1,38.3,29H31.66a1.76,1.76,0,0,0-1.11.38,1.87,1.87,0,0,0-.67,1.05l-.07.29A1.22,1.22,0,0,0,30,31.79a1.11,1.11,0,0,0,.95.41h3.47a1.21,1.21,0,0,1,.95.38,1.22,1.22,0,0,1,.19,1.05l0,.29A2,2,0,0,1,34.89,35a1.78,1.78,0,0,1-1.14.41H30.28a1.72,1.72,0,0,0-1.11.38,2.06,2.06,0,0,0-.64,1l-.06.29a1.29,1.29,0,0,0,.16,1,1.11,1.11,0,0,0,.95.41l6.68,0a1.24,1.24,0,0,1,1,.45,1,1,0,0,1,.16,1l-.09.32a1.72,1.72,0,0,1-1.72,1.43h-13a1.34,1.34,0,0,1-1-.38,1.22,1.22,0,0,1-.19-1l2.8-13v0M42,27.3a1.93,1.93,0,0,1,.6-1.05,1.64,1.64,0,0,1,1.11-.41l13,0a1.28,1.28,0,0,1,1,.44,1.08,1.08,0,0,1,.16,1l-.1.32A1.71,1.71,0,0,1,56.08,29H49.44a1.78,1.78,0,0,0-1.12.38,1.86,1.86,0,0,0-.66,1.05l-.06.29a1.16,1.16,0,0,0,.18,1,1.13,1.13,0,0,0,1,.42H52.2a1.21,1.21,0,0,1,1,.38,1.19,1.19,0,0,1,.18,1.05l0,.29a2,2,0,0,1-.63,1,1.78,1.78,0,0,1-1.15.41H48.07a1.78,1.78,0,0,0-1.12.38,2,2,0,0,0-.63,1.05l-.07.29a1.33,1.33,0,0,0,.16,1,1.13,1.13,0,0,0,1,.41l6.68,0A1.29,1.29,0,0,1,55,39a1.05,1.05,0,0,1,.15,1l-.09.32a1.72,1.72,0,0,1-1.72,1.43h-13a1.34,1.34,0,0,1-1-.38,1.22,1.22,0,0,1-.19-1l2.8-13v0M71.18,41.74l-3.5,0a1.23,1.23,0,0,1-1-.44,1.05,1.05,0,0,1-.16-1L66.6,40a1,1,0,0,0-.16-1,1.14,1.14,0,0,0-1-.45h-.32A1.72,1.72,0,0,0,63.45,40l-.09.32a1.74,1.74,0,0,1-1.73,1.44H58.16a1.32,1.32,0,0,1-1-.38,1.16,1.16,0,0,1-.19-1l2.79-13a1.94,1.94,0,0,1,.61-1,1.61,1.61,0,0,1,1.11-.42l3.5,0a1.24,1.24,0,0,1,1,.45,1,1,0,0,1,.16,1l-.06.29a1.05,1.05,0,0,0,.16,1,1.16,1.16,0,0,0,1,.44h.32a1.72,1.72,0,0,0,1.72-1.43l.06-.33A1.71,1.71,0,0,1,71,25.84h3.47a1.36,1.36,0,0,1,1,.38,1.22,1.22,0,0,1,.19,1.05l-.77,3.5a1.63,1.63,0,0,1-1.71,1.43H66.52a1.72,1.72,0,0,0-1.11.38,1.81,1.81,0,0,0-.67,1.05l-.06.28A1.53,1.53,0,0,0,64.86,35a1.17,1.17,0,0,0,1,.41h6.64a1.34,1.34,0,0,1,1,.38,1.22,1.22,0,0,1,.19,1.05l-.76,3.5a1.68,1.68,0,0,1-1.75,1.43"/><path class="cls-2" d="M88.79,35.38h.31a1.15,1.15,0,0,1,1,.41,1.22,1.22,0,0,1,.19,1.05l-.07.29a1.86,1.86,0,0,1-.66,1,1.78,1.78,0,0,1-1.12.38h-.28a1.11,1.11,0,0,1-1-.42,1.22,1.22,0,0,1-.16-1l.06-.29a2.06,2.06,0,0,1,.64-1.05,1.74,1.74,0,0,1,1.11-.38Zm-6-8.11-.1.32a1.08,1.08,0,0,0,.16,1,1.28,1.28,0,0,0,1,.44l6.67,0a1.15,1.15,0,0,1,1,.41,1.33,1.33,0,0,1,.16,1.05l-.07.29a2,2,0,0,1-.63,1.05,1.78,1.78,0,0,1-1.12.38H83.16a1.74,1.74,0,0,0-1.15.42,1.92,1.92,0,0,0-.63,1l-1.33,6.66a1.19,1.19,0,0,0,.19,1,1.33,1.33,0,0,0,1,.39h13a1.61,1.61,0,0,0,1.12-.42,2,2,0,0,0,.6-1l2.8-13a1.22,1.22,0,0,0-.19-1.05,1.34,1.34,0,0,0-1-.38h-13a1.72,1.72,0,0,0-1.72,1.43"/><path class="cls-1" d="M110,37.13l.06-.32a2.06,2.06,0,0,1,.64-1.05,1.76,1.76,0,0,1,1.11-.38h.29a1.13,1.13,0,0,1,1,.41,1.19,1.19,0,0,1,.19,1.05l-.06.29a1.93,1.93,0,0,1-.67,1,1.78,1.78,0,0,1-1.11.38h-.29a1.13,1.13,0,0,1-1-.41,1.29,1.29,0,0,1-.16-1v0Zm2.79-5h-.31a1.13,1.13,0,0,1-1-.42,1.19,1.19,0,0,1-.19-1l.06-.29a1.93,1.93,0,0,1,.67-1.05,1.78,1.78,0,0,1,1.11-.38h.29a1.13,1.13,0,0,1,1,.41,1.29,1.29,0,0,1,.16,1.05l-.06.29a2.06,2.06,0,0,1-.64,1.05,1.78,1.78,0,0,1-1.11.38Zm-7.09-4.93-2.79,13a1.16,1.16,0,0,0,.19,1,1.32,1.32,0,0,0,1,.38h9.83a1.71,1.71,0,0,0,1.71-1.43l.1-.32a1.72,1.72,0,0,1,1.72-1.43h.31a1.78,1.78,0,0,0,1.15-.41,2,2,0,0,0,.63-1l0-.29a1.19,1.19,0,0,0-.2-1.05,1.32,1.32,0,0,0-1-.38h-.29a1.13,1.13,0,0,1-.95-.41,1.29,1.29,0,0,1-.16-1l.06-.29a1.93,1.93,0,0,1,.67-1.05,1.78,1.78,0,0,1,1.12-.38h.28a1.63,1.63,0,0,0,1.11-.41,2,2,0,0,0,.64-1.05l0-.29a1.19,1.19,0,0,0-.19-1.05,1.21,1.21,0,0,0-.95-.38h-.29a1.16,1.16,0,0,1-1-.44,1,1,0,0,1-.16-1l.06-.29a1,1,0,0,0-.16-1,1.26,1.26,0,0,0-1-.44l-9.86,0a1.64,1.64,0,0,0-1.11.41,1.93,1.93,0,0,0-.6,1.05v0M131.33,29h.31a1.12,1.12,0,0,1,1,.42,1.26,1.26,0,0,1,.16,1l-1.4,6.65a1.93,1.93,0,0,1-.67,1,1.78,1.78,0,0,1-1.11.38h-.29a1.13,1.13,0,0,1-.95-.41,1.33,1.33,0,0,1-.16-1l1.4-6.65a1.93,1.93,0,0,1,.67-1.05,1.76,1.76,0,0,1,1.11-.38ZM137,40.31l2.8-13a1.22,1.22,0,0,0-.19-1.05,1.36,1.36,0,0,0-1-.38h-13a1.61,1.61,0,0,0-1.11.42,1.94,1.94,0,0,0-.61,1l-2.8,13a1.22,1.22,0,0,0,.19,1,1.36,1.36,0,0,0,1,.38h13a1.65,1.65,0,0,0,1.12-.41,2.06,2.06,0,0,0,.6-1v0M149.83,29h.32a1.13,1.13,0,0,1,1,.42,1.3,1.3,0,0,1,.16,1l-1.4,6.65a1.93,1.93,0,0,1-.67,1,1.78,1.78,0,0,1-1.11.38h-.29a1.13,1.13,0,0,1-1-.41,1.29,1.29,0,0,1-.16-1l1.44-6.65a1.87,1.87,0,0,1,.67-1.05,1.76,1.76,0,0,1,1.11-.38h-.08Zm5.7,11.32,2.79-13a1.16,1.16,0,0,0-.19-1.05,1.32,1.32,0,0,0-1-.38h-13a1.61,1.61,0,0,0-1.11.42,1.86,1.86,0,0,0-.6,1l-2.8,13a1.19,1.19,0,0,0,.19,1,1.33,1.33,0,0,0,1,.38h13a1.64,1.64,0,0,0,1.11-.41,1.93,1.93,0,0,0,.6-1v0"/><path class="cls-2" d="M58,23.54c2.29-2.29,4-5.44,4-8.43a10.58,10.58,0,0,0-2-6L57.37,6.13C53.59,3,47.94,1,41.62,1S29.49,3,25.77,6.23l-2.7,3a10.46,10.46,0,0,0-1.84,5.84c0,3.19,1.82,6.14,4.39,8.5L58,23.54"/><path class="cls-1" d="M49.07,19.32a2.38,2.38,0,0,0,1.87-2A1.3,1.3,0,0,0,49.26,16a2.4,2.4,0,0,0-1.88,2,1.31,1.31,0,0,0,1.69,1.34M25.85,24.47H57.54c3.47-2.55,5.59-5.93,5.59-9.65A10.37,10.37,0,0,0,61,8.71,5.92,5.92,0,0,0,62.8,4.66,6,6,0,0,0,61,.51a7.14,7.14,0,0,1-2.79,5.23C54.29,2.55,48.34.51,41.7.51S29,2.59,25,5.84A6.81,6.81,0,0,1,22,.51a6,6,0,0,0-1.77,4.11,6,6,0,0,0,1.93,4.3,10.34,10.34,0,0,0-1.93,5.9c0,3.71,2.12,7.09,5.59,9.64ZM45.49,18a6.94,6.94,0,0,1,5.62-4c2.23-.09,3.37,1.55,2.52,3.67h-.07a6.87,6.87,0,0,1-5.6,4c-2.18.07-3.32-1.57-2.47-3.69ZM31.68,4.12c3.24-1.41,7.63,1.35,9.75,6.17s1.2,9.89-2.06,11.34-7.6-1.36-9.73-6.18-1.23-9.87,2-11.33m8.4,15.07c.94-.5,1-2.16.07-3.67s-2.34-2.34-3.26-1.8-1,2.16-.07,3.67,2.34,2.34,3.26,1.8"/></svg>