<?xml version="1.0" encoding="utf-8"?>
<!-- Generator: Adobe Illustrator 22.1.0, SVG Export Plug-In . SVG Version: 6.00 Build 0)  -->
<svg version="1.1" id="Layer_1" xmlns:sketch="http://www.bohemiancoding.com/sketch/ns"
	 xmlns="http://www.w3.org/2000/svg" xmlns:xlink="http://www.w3.org/1999/xlink" x="0px" y="0px" viewBox="0 0 183 114"
	 style="enable-background:new 0 0 183 114;" xml:space="preserve">
<style type="text/css">
	.st0{fill:#61B2E2;}
</style>
<path class="st0" d="M134.3,75.3c0.1,0.6,0.1,10.1,0,11c-0.8,0.1-1.5,0.2-2.3,0.2c-4.3,0.3-8.5,0.5-12.7-0.2c-5.1-0.8-8.2-3.9-9-9.1
	c-0.4-2.3-0.5-4.6-0.5-6.9c0-6,0-12.1,0-18.1c0-0.3,0-0.6,0-1c-2.6,0-5.1,0-7.7,0c0-3.3,0-6.5,0-9.8c2.6,0,5.1,0,7.7,0
	c0-5,0-9.9,0-14.9c5.1,0,10,0,15.1,0c0,5,0,9.9,0,14.9c3.1,0,6.1,0,9.2,0c0,3.3,0,6.5,0,9.8c-3,0-6,0-9.1,0c0,0.4,0,0.7,0,1
	c0,6.1,0,12.3,0,18.4c0,0.4,0,0.7,0,1.1c0.3,2.6,1.5,3.7,4.4,3.8c0.9,0,1.9,0,2.8-0.1C132.8,75.3,133.5,75.4,134.3,75.3z M22.6,71.8
	c0-0.3,0-0.7,0-1c0-6.3,0-12.5,0-18.8c0-0.3-0.1-0.6,0.2-0.9c3,0,6,0,9.1,0c0-3.3,0-6.5,0-9.8c-3.1,0-6.1,0-9.2,0c0-5,0-9.9,0-14.9
	c-5,0-10,0-15.1,0c0,5,0,9.9,0,14.9c-2.6,0-5,0-7.5,0c0,3.3,0,6.5,0,9.8c2.5,0,4.9,0,7.3,0c0.2,0.4,0.1,0.7,0.1,1
	c0.1,7.6-0.2,15.1,0.2,22.7c0.1,2.3,0.6,4.6,1.7,6.7c1.6,3,4.3,4.2,7.5,4.8c4.3,0.8,8.6,0.6,13,0.2c0.7-0.1,1.4,0,2.1-0.2
	c0-3.7,0-7.3,0-10.9c-1.7,0.1-3.3,0.1-4.8,0.1C24.3,75.4,23,74.4,22.6,71.8z M36.1,86.4c5,0,10,0,15,0c0-15,0-30,0-44.9
	c-5,0-10,0-15,0C36.1,56.5,36.1,71.4,36.1,86.4z M36.1,37.1c5,0,10,0,15,0c0-3.6,0-7.1,0-10.7c-5,0-10,0-15,0
	C36.1,30,36.1,33.6,36.1,37.1z M102,57.8c0.8,3.1,1.1,6.3,0.9,9.7c-11.3,0-22.6,0-33.8,0c0,4,2,8.1,6.2,9.5
	c4.6,1.5,10.4,0.4,12.6-4.3c4.6,0,9.3,0,14,0c-0.5,2.4-1.5,4.6-3,6.5c-3,4.1-7.2,6.5-12.1,7.5C80.5,88,74.2,88,68.1,85.6
	c-7.8-3.1-12.4-8.9-13.7-17.2c-0.9-5.3-0.4-10.5,2.2-15.3c3.5-6.7,9.2-10.6,16.5-12.2c5.7-1.2,11.4-0.8,16.8,1.6
	C96.5,45.5,100.3,50.9,102,57.8z M79.3,50.2c-5.5-0.3-9.3,3.8-10.1,9c6.2,0,12.4,0,18.6,0C88.2,54.8,84.1,50.4,79.3,50.2z
	 M180.6,74.7c-3.3,6.8-8.8,10.7-16,12.3c-2,0.5-4,0.5-5.8,0.5c-5.5,0-10.3-1.1-14.6-4.1c-5.4-3.8-8.5-9-9.5-15.5
	c-0.8-5.7,0-11.1,2.9-16.1c3.1-5.4,7.9-8.9,14-10.5c6.4-1.7,12.6-1.3,18.6,1.7c7,3.5,11.1,9.2,12.4,16.9
	C183.5,65,182.9,70,180.6,74.7z M158.7,51.5c-12.8,0-12.5,24.8,0,24.8C171.6,76.3,171,51.5,158.7,51.5z"/>
</svg>
