<svg id="DBO" xmlns="http://www.w3.org/2000/svg" viewBox="0 0 202.36 52.09"><defs><style>.cls-1{fill:#092694;}.cls-2{fill:#bdc720;}.cls-3{fill:#e5e9a6;}</style></defs><title>Artboard 1</title><path class="cls-1" d="M49.21,30.92c0-1.06.6-1.63,1.83-1.63H62.48c1.23,0,1.85.57,1.85,1.63s-.62,1.61-1.85,1.61H58.65V45.82c0,1.35-.62,2-1.92,2s-1.92-.66-1.92-2V32.53H51c-1.23,0-1.83-.5-1.83-1.61"/><path class="cls-1" d="M71,33.81a1.91,1.91,0,0,1,1.85,2,1.87,1.87,0,0,1-.53,1.26c-.53.45-1.22.25-2,.4-1.37.26-2.14,1.25-2.14,3v5.38c0,1.35-.61,2-1.81,2s-1.8-.66-1.8-2v-10c0-1.35.58-2,1.76-2a1.48,1.48,0,0,1,1.6,1.34,1.13,1.13,0,0,1,0,.26v1.2c.74-1.81,1.92-2.8,3.12-2.8"/><path class="cls-1" d="M85.23,33.81c1.2,0,1.81.69,1.81,2v10c0,1.38-.58,2-1.81,2-1.07,0-1.58-.53-1.65-1.66l-.06-.46A4.53,4.53,0,0,1,79.4,48c-3,0-4.47-1.56-4.47-4.66V35.85c0-1.35.61-2,1.81-2s1.81.69,1.81,2v6.4c0,1.83.54,2.68,2.09,2.68a2.61,2.61,0,0,0,2.79-2.4,2,2,0,0,0,0-.43V35.85c0-1.35.61-2,1.81-2"/><path class="cls-1" d="M92.93,47.83c-1.27,0-1.78-.71-1.78-2.24V31.89c0-2.06.43-2.88,2.29-2.88h1.33c1.86,0,2.09.74,2.6,2.73l3,11.51L103.26,32c.54-2.07.89-3,2.5-3h1.5c1.84,0,2.3.82,2.3,2.88V45.59c0,1.51-.54,2.24-1.76,2.24S106,47.14,106,45.59V32.81l-3.17,12.47c-.46,1.79-1.07,2.53-2.49,2.53s-2.08-.77-2.53-2.53L94.67,32.81V45.59c0,1.53-.54,2.24-1.77,2.24"/><path class="cls-1" d="M119.71,45.05a3.05,3.05,0,0,0,2.07-.69c.64-.55,1.07-1.06,1.86-1.06a1.38,1.38,0,0,1,1.43,1.31v.06a2.41,2.41,0,0,1-.9,1.69,6.78,6.78,0,0,1-4.79,1.7c-3.84,0-6.38-2.75-6.38-7.31s2.43-7.17,6.33-7.17,6.48,2.63,6.48,6.66c0,1.5-.59,1.55-1.92,1.55h-7.12c.08,2.12,1.12,3.26,2.93,3.26m-.27-8.44c-1.59,0-2.51,1-2.66,2.81h5.34c-.07-1.84-1-2.81-2.67-2.81Z"/><path class="cls-1" d="M128.92,36.61c-1,0-1.45-.43-1.45-1.28s.48-1.27,1.45-1.27h.59V32.23c0-1.36.58-2,1.78-2s1.82.66,1.82,2v1.83h1c1,0,1.45.41,1.45,1.27s-.49,1.28-1.45,1.28h-.92v7.5c0,.62.16.85.79.85h.6a1.16,1.16,0,0,1,1.29,1,1.61,1.61,0,0,1,0,.22c0,1.18-.8,1.66-2.5,1.66-3.11,0-3.84-1.09-3.84-3.9V36.61h-.59"/><path class="cls-1" d="M140.09,47.83c-1.2,0-1.78-.66-1.78-2V31c0-1.35.58-2,1.78-2s1.81.67,1.81,2v4.56a5,5,0,0,1,4-1.86,4.6,4.6,0,0,1,3.72,1.59,4.94,4.94,0,0,1,.74,3.29v7.24c0,1.35-.58,2-1.78,2s-1.82-.66-1.82-2V40.52c0-2.48-.07-3.84-2.11-3.84a2.62,2.62,0,0,0-2.79,2.43,3.38,3.38,0,0,0,0,.45v6.25c0,1.35-.61,2-1.81,2"/><path class="cls-1" d="M181.05,29c1.17,0,1.77.67,1.77,2V45.82c0,1.35-.6,2-1.82,2a1.44,1.44,0,0,1-1.63-1.25,1.41,1.41,0,0,1,0-.41v-.4a4.54,4.54,0,0,1-4.06,2.29c-3.29,0-5.61-2.87-5.61-7.16s2.4-7.29,5.57-7.29a4.56,4.56,0,0,1,4,2.14V31c0-1.35.59-2,1.76-2m-7.73,11.74c0,2.72,1.05,4.21,2.93,4.21s3-1.43,3-4.21c0-2.59-1.12-4-3-4S173.32,38.22,173.32,40.75Z"/><path class="cls-1" d="M186.38,38.09c0-2.73,2.1-4.51,5.56-4.51,3.24,0,5.28,1.45,5.28,2.93A1.44,1.44,0,0,1,195.8,38h-.09c-.71,0-1.22-.48-2-1.07a3.31,3.31,0,0,0-1.78-.53c-1.35,0-2,.43-2,1.28s.71,1,2.57,1.4l1.14.25c3.15.69,4.66,1.69,4.66,4.05,0,3.06-2.2,4.72-6.35,4.72-3.46,0-5.58-1.66-5.58-3.33a1.55,1.55,0,0,1,1.49-1.63H188c1,0,1.35.68,2,1.32a3.07,3.07,0,0,0,2.42.81c1.48,0,2.24-.5,2.24-1.35s-.58-1-2.16-1.38l-1.41-.33c-3.21-.76-4.69-1.86-4.69-4.08"/><path class="cls-2" d="M160.42,33.59a7.24,7.24,0,1,0,7.23,7.25h0a7.24,7.24,0,0,0-7.23-7.24m0,9.9a2.66,2.66,0,1,1,2.65-2.66,2.66,2.66,0,0,1-2.65,2.66Z"/><path class="cls-3" d="M44.84,35.22h0M29.06,24a11.27,11.27,0,1,0,8,3.3,11.25,11.25,0,0,0-8-3.3m0,27.08A15.81,15.81,0,1,1,44.84,35.19v0A15.8,15.8,0,0,1,29.06,51"/><path class="cls-2" d="M47.78,10.19a1.9,1.9,0,0,0-.49-.3c.07-.14.06-.31-.13-.54a3.48,3.48,0,0,0-2.08-1.08c-2.59-2.32-5.47-4.19-8-6.6a3.36,3.36,0,0,0-2.7-.56c-.23,0-2.14.48-1.5,1.11,2.23,2.17,4.8,3.9,7.18,5.91a58.42,58.42,0,0,0-13.43,2.39,51.23,51.23,0,0,0-17,8.07C6.33,21.13,3,25,4.49,29.54c2,6.07,10.4,9.08,15.73,11,.46.18,2.11.57,2.34-.18s-1.36-1.31-1.82-1.48C16.2,37.24,9.29,34.63,8.33,29.12c-.72-4.09,3.37-7.56,6.28-9.59a52,52,0,0,1,15.44-7,52.92,52.92,0,0,1,12.09-2.23,15.5,15.5,0,0,0-7.85,5.5c-.75,1,3.36,1.85,4.14.83a12.84,12.84,0,0,1,8.47-5.26c.5-.07,1.65-.49.88-1.11"/><path class="cls-2" d="M56.94,3a7.23,7.23,0,1,0,7.23,7.23v0A7.21,7.21,0,0,0,56.94,3m0,9.89a2.66,2.66,0,1,1,2.66-2.7,2.66,2.66,0,0,1-2.66,2.7h0Z"/></svg>