<svg xmlns="http://www.w3.org/2000/svg" xmlns:xlink="http://www.w3.org/1999/xlink" width="251" height="171" viewBox="0 0 251 171">
    <defs>
        <path id="a" d="M.186.07h12.11V7.1H.186z"/>
    </defs>
    <g fill="none" fill-rule="evenodd">
        <path fill="#CECECD" fill-rule="nonzero" d="M18.04 67.537l6.014-3.467 6.014 3.55-6.014 3.467z"/>
        <path fill="#123155" fill-rule="nonzero" d="M24.055 89.104V71.087l6.013-3.468v18.018z"/>
        <path fill="#1F60AC" fill-rule="nonzero" d="M18.04 67.537v18.017l6.015 3.55V71.087z"/>
        <path fill="#CECECD" fill-rule="nonzero" d="M9.02 79.749l6.014-3.468 6.014 3.55-6.014 3.468z"/>
        <path fill="#123155" fill-rule="nonzero" d="M15.034 94.116V83.299l6.014-3.467v10.816z"/>
        <path fill="#1F60AC" fill-rule="nonzero" d="M9.02 79.749v10.817l6.014 3.55V83.299z"/>
        <path fill="#CECECD" fill-rule="nonzero" d="M0 89.706l6.014 3.55 6.013-3.467-6.013-3.55z"/>
        <path fill="#123155" fill-rule="nonzero" d="M6.014 99.125v-5.87l6.013-3.466v5.869z"/>
        <path fill="#1F60AC" fill-rule="nonzero" d="M0 95.575l6.014 3.55v-5.869L0 89.706z"/>
        <path stroke="#1760AB" d="M204.876 96.501v7.373l-20.629 12.299 17.385 9.968"/>
        <path stroke="#1760AB" d="M165.407 153.884l74.409-45.248V39.119l-34.94-19.559v65.49"/>
        <path fill="#123155" fill-rule="nonzero" d="M217.723 74.375L192.89 59.251c-.227-.132-.412-.485-.412-.79l-.56-20.825c0-.304.727-.843.955-.712L218.25 51.58c.228.132.413.485.414.79l.017 21.224c0 .305-.731.913-.959.781"/>
        <path fill="#ADADAD" fill-rule="nonzero" d="M217.723 74.375L192.345 59.72c-.228-.132-.414-.485-.414-.79l-.017-21.223c0-.305.185-.445.413-.313l25.378 14.656c.228.131.413.485.413.79l.017 21.223c0 .305-.184.445-.412.313"/>
        <path fill="#EAEAE9" fill-rule="nonzero" d="M197.614 46.818c0 1.002-.703 1.409-1.569.907-.866-.5-1.569-1.72-1.569-2.723 0-1.002.703-1.41 1.57-.908.865.502 1.568 1.721 1.568 2.724M215.066 57.597l-15.413-8.922c-.28-.162-.508-.596-.508-.97 0-.375.227-.547.508-.385l15.413 8.92c.28.163.507.598.507.972 0 .375-.227.547-.507.385M197.614 51.975c0 1.002-.703 1.409-1.569.907-.866-.5-1.569-1.72-1.569-2.723 0-1.002.703-1.41 1.57-.908.865.502 1.568 1.721 1.568 2.724M215.066 62.754l-15.413-8.922c-.28-.162-.508-.596-.508-.97 0-.376.227-.547.508-.385l15.413 8.921c.28.162.507.597.507.972 0 .374-.227.546-.507.384M197.614 57.132c0 1.002-.703 1.409-1.569.908-.866-.502-1.569-1.721-1.569-2.724 0-1.002.703-1.409 1.57-.908.865.502 1.568 1.721 1.568 2.724M215.066 67.911l-15.413-8.921c-.28-.162-.508-.597-.508-.972 0-.374.227-.546.508-.384l15.413 8.92c.28.163.507.598.507.973 0 .374-.227.546-.507.384"/>
        <path fill="#123155" fill-rule="nonzero" d="M249.784 75.414l-11.954-6.918c-.236-.137-.45-.142-.617-.05v-.007l-1.159.671.815.299v8.726c0 .71.43 1.535.961 1.842l11.426 6.613v1.023l1.171-.676-.006-.002c.198-.121.324-.386.324-.768v-8.91c0-.71-.43-1.535-.96-1.843"/>
        <path fill="#1F60AC" fill-rule="nonzero" d="M248.603 87.578L236.65 80.66c-.53-.308-.962-1.133-.962-1.843v-8.91c0-.71.431-1.036.962-.729l11.953 6.919c.531.307.962 1.132.962 1.842v8.91c0 .71-.43 1.036-.962.729"/>
        <path fill="#CECECD" fill-rule="nonzero" d="M240.67 77.59c0 .515-.362.724-.807.466-.445-.258-.807-.885-.807-1.4 0-.516.362-.725.807-.467.445.257.807.884.807 1.4M243.113 79.003c0 .516-.361.725-.807.467-.445-.258-.806-.885-.806-1.4 0-.516.361-.725.806-.467.446.258.807.885.807 1.4M245.556 80.417c0 .516-.361.725-.807.467-.444-.257-.806-.885-.806-1.4 0-.516.362-.725.806-.467.446.257.807.885.807 1.4"/>
        <path fill="#123155" fill-rule="nonzero" d="M242.982 64.211l-11.954-6.918c-.236-.137-.45-.142-.618-.05v-.007l-1.158.671.815.299v8.726c0 .71.43 1.535.961 1.842l11.425 6.613v1.023l1.172-.676-.007-.002c.198-.121.325-.387.325-.768v-8.91c0-.71-.43-1.535-.961-1.843"/>
        <path fill="#CECECD" fill-rule="nonzero" d="M241.8 76.375l-11.953-6.919c-.53-.307-.962-1.132-.962-1.842v-8.91c0-.71.432-1.036.962-.729l11.953 6.919c.532.307.962 1.132.962 1.841v8.91c0 .71-.43 1.037-.962.73"/>
        <path fill="#F4901F" fill-rule="nonzero" d="M233.867 66.386c0 .515-.361.725-.807.467-.444-.258-.806-.885-.806-1.4 0-.516.362-.725.806-.467.446.258.807.884.807 1.4M236.31 67.8c0 .516-.36.725-.807.467-.444-.258-.805-.885-.805-1.4 0-.516.36-.725.805-.467.446.257.807.884.807 1.4M238.754 69.214c0 .516-.362.725-.807.467-.445-.258-.806-.885-.806-1.4 0-.516.361-.725.806-.467.445.257.807.884.807 1.4"/>
        <path stroke="#123155" d="M15.384 90.86l15.056 8.999M91.389 65.424l-68.476 38.964 109.558 65.216 85.233-49.394"/>
        <path fill="#666667" fill-rule="nonzero" d="M109.32 65.244l-.009 3.06L83.69 83.23l.009-3.06z"/>
        <path fill="#ADADAD" fill-rule="nonzero" d="M83.699 80.17l-.01 3.06-25.788-14.926.008-3.06z"/>
        <path fill="#EAEAE9" fill-rule="nonzero" d="M109.32 65.244L83.7 80.171l-25.79-14.927 25.622-14.927z"/>
        <path fill="#666667" fill-rule="nonzero" d="M95.101 67.746a11.386 11.386 0 0 1-2.031 1.485c-3.92 2.284-9.549 2.98-14.522 2.088-2.179-.392-4.233-1.087-5.962-2.088-2.855-1.652-4.28-3.822-4.275-5.989l-.004 1.63c-.006 2.166 1.42 4.335 4.275 5.988 1.73 1 3.782 1.696 5.961 2.087 4.974.892 10.602.197 14.522-2.087a11.338 11.338 0 0 0 2.031-1.486c1.448-1.347 2.173-2.883 2.178-4.42l.004-1.628c-.004 1.537-.73 3.072-2.177 4.42"/>
        <path fill="#ADADAD" fill-rule="nonzero" d="M93.003 57.337c5.674 3.285 5.704 8.61.067 11.894-5.638 3.285-14.809 3.285-20.483 0-5.675-3.284-5.705-8.61-.067-11.893 5.638-3.285 14.809-3.285 20.483 0"/>
        <path fill="#666667" fill-rule="nonzero" d="M64.423 45.922l-.672-.383-1.804 3.134.66.384.671.383 1.805-3.133zM62.142 44.49l-.672-.384-1.805 3.134.66.385.672.383 1.805-3.134z"/>
        <path fill="#F4901F" fill-rule="nonzero" d="M64.974 41.962l-.557-.318-1.458 2.532.59.344.558.318 1.459-2.531z"/>
        <path fill="#F4901F" fill-rule="nonzero" d="M66.144 45.608l-2.61-1.522-2.136-1.219-.911.577-.714 1.24 2.612 1.52 3.005 1.718.714-1.24-.026-.015z"/>
        <path fill="#123155" fill-rule="nonzero" d="M89.118 28.285a1.588 1.588 0 0 0-.617-.202 1.924 1.924 0 0 0-.27-.012c-.16.003-.322.024-.486.063a3.252 3.252 0 0 0-.909.372c-.342.199-.68.458-1.002.766-.418.4-.81.883-1.15 1.42-.301.478-.561.999-.763 1.544l-.034.095c-.126.354-.297.826-.505 1.39-2.035 5.512-7.57 19.905-7.89 20.736a8.866 8.866 0 0 0-.297 1.115c-.09.467-.133.912-.13 1.327.007 1.302.459 2.309 1.266 2.779l2.232 1.3c-.807-.47-1.26-1.476-1.268-2.778-.002-.415.041-.86.132-1.328.07-.36.168-.733.297-1.115.319-.83 5.854-15.223 7.89-20.737.208-.564.379-1.035.504-1.388l.035-.096c.2-.545.462-1.066.764-1.544.34-.538.73-1.02 1.149-1.42a5.34 5.34 0 0 1 1.136-.84c.258-.136.518-.238.774-.298.164-.038.327-.06.487-.064.093-.001.184.003.27.013.23.027.435.096.617.202l-2.232-1.3z"/>
        <path fill="#F4901F" fill-rule="nonzero" d="M89.068 29.807c.466-.27.941-.426 1.395-.436 1.621-.035 2.26 1.818 1.527 4.134-1.206 3.812-6.176 21.169-6.437 22.082-.744 2.22-2.29 4.156-3.903 5.09-.635.367-1.279.578-1.89.592-2.161.046-3.073-2.422-2.037-5.512.353-.916 7.042-18.31 8.395-22.126.593-1.67 1.745-3.127 2.95-3.824"/>
        <path fill="#666667" fill-rule="nonzero" d="M83.54 50.658c-.378-.22-.81-.35-1.283-.38-.822-.051-1.768.196-2.774.778-1.412.818-2.704 2.159-3.698 3.716-.496.78-.92 1.613-1.245 2.463-.474 1.235-.743 2.504-.74 3.689l.014 4.513 6.34 3.604-.014-4.514c-.003-1.185.266-2.453.74-3.689a13.78 13.78 0 0 1 1.245-2.462c.994-1.558 2.285-2.898 3.698-3.716 1.006-.583 1.952-.83 2.774-.777.473.03.904.158 1.283.379l-6.34-3.604z"/>
        <path fill="#F4901F" fill-rule="nonzero" d="M85.824 54.66c3.148-1.822 5.71-.36 5.72 3.267l.012 4.514-11.403 6.6-.012-4.514c-.01-3.627 2.534-8.045 5.683-9.867"/>
        <path fill="#123155" fill-rule="nonzero" d="M92.677 30.347l-1.385-.806a1.153 1.153 0 0 0-.37-.136c-.405-.044-12.223-2.144-15.141-2.487a65.756 65.756 0 0 1-1.238-.152l-.024-.003a1.26 1.26 0 0 0-.432.029 1.87 1.87 0 0 0-.445.17l1.384.807c.15-.079.298-.137.445-.171a1.277 1.277 0 0 1 .456-.026c.223.031 2.29.386 2.866.453l-.07-.025c4.334.746 13.23 2.172 13.583 2.211.136.026.26.072.37.136M73.566 27.005c-.188.109-.374.25-.551.42-.215.205-.416.45-.59.726a4.236 4.236 0 0 0-.387.783c-.07.187-.12.37-.155.546a2.676 2.676 0 0 0-.052.527c.004.528.19.944.53 1.142l1.384.806c-.34-.198-.526-.613-.53-1.142a2.683 2.683 0 0 1 .052-.528 3.523 3.523 0 0 1 .234-.743 4.2 4.2 0 0 1 .308-.584c.174-.276.375-.522.59-.727a2.91 2.91 0 0 1 .627-.462l-1.384-.806-.076.042"/>
        <path fill="#F4901F" fill-rule="nonzero" d="M74.95 27.811c.333-.193.672-.282.977-.239 1.353.19 15.894 2.587 16.379 2.639 1.077.2 1.374 1.7.664 3.351-.447 1.04-1.188 1.892-1.944 2.33-.444.257-.893.37-1.29.297-.456-.121-14.432-3.831-15.737-4.134-.792-.184-1.03-1.275-.499-2.513.336-.779.884-1.403 1.45-1.73"/>
        <path fill="#123155" fill-rule="nonzero" d="M75.998 28.498a1.108 1.108 0 0 0-.431-.142 1.488 1.488 0 0 0-.517.035 2.283 2.283 0 0 0-.633.26c-.179.103-.36.233-.54.39-.21.205-5.39 5.207-7.507 7.228a93.638 93.638 0 0 1-1.715 1.609 4.119 4.119 0 0 0-.98 1.505 3.389 3.389 0 0 0-.15.526c-.032.17-.05.338-.049.499 0 .15.017.294.051.428.076.3.226.509.427.626l1.746 1.017c-.2-.117-.35-.326-.426-.626a1.79 1.79 0 0 1-.05-.428c-.002-.16.015-.328.048-.499.034-.173.084-.35.15-.526.095-.26.224-.52.38-.764a3.95 3.95 0 0 1 .679-.814c.358-.323.947-.878 1.636-1.536a2301.2 2301.2 0 0 0 7.506-7.228 3.588 3.588 0 0 1 .633-.44c.185-.1.366-.168.54-.209.182-.043.356-.055.518-.035.157.018.301.065.43.141l-1.746-1.017z"/>
        <path fill="#F4901F" fill-rule="nonzero" d="M76.163 29.669c.996-.577 1.905-.325 2.161.693.301 1.2-.419 3.01-1.61 4.042-.29.221-7.935 6.443-9.414 7.677a2.81 2.81 0 0 1-.385.271c-.758.44-1.448.272-1.641-.499-.227-.9.32-2.233 1.207-3.031 1.458-1.315 8.864-8.492 9.142-8.764.18-.156.362-.286.54-.39"/>
        <path fill="#666667" fill-rule="nonzero" d="M96.002 34.396c.037-.03.076-.058.114-.086-.038.028-.077.056-.114.086m-.166.143l.1-.088c-.033.029-.067.057-.1.088M95.242 35.238l.082-.118-.082.118M95.179 35.33a4.367 4.367 0 0 0-.072.12l.072-.12m-.347.667c-.02.048-.04.096-.058.144l.012-.032c.014-.038.03-.075.046-.112m2.794-1.968c.002 0 .003.002.003.002l-.005-.003-.002-.001-6.073-3.468a.905.905 0 0 0-.405-.12c-.26-.016-.56.061-.876.246-.447.258-.856.682-1.169 1.174-.157.246-.29.51-.393.778-.15.39-.235.79-.234 1.165.002.57.202.97.525 1.158l6.08 3.472-.004-.003c.328.194.784.168 1.287-.123.994-.575 1.798-1.97 1.795-3.117-.002-.57-.203-.972-.529-1.16"/>
        <path fill="#123155" fill-rule="nonzero" d="M96.548 33.048l-1.384-.806c.136.026.26.072.37.136l1.385.807a1.145 1.145 0 0 0-.371-.137"/>
        <path fill="#123155" fill-rule="nonzero" d="M96.548 33.048l-1.384-.806c-.404-.044-12.223-2.144-15.14-2.487a61.954 61.954 0 0 1-1.239-.152c-.007-.001-.015-.003-.024-.003a1.26 1.26 0 0 0-.432.029 1.872 1.872 0 0 0-.445.171l1.384.806c.15-.079.298-.136.446-.171a1.258 1.258 0 0 1 .456-.026c.222.031 2.288.387 2.866.454l-.07-.026c4.333.746 13.229 2.173 13.582 2.211M76.359 31.573a3.83 3.83 0 0 0-.234.743 2.768 2.768 0 0 0-.052.528c.004.528.19.944.53 1.142l1.384.806c-.34-.198-.526-.613-.53-1.142a2.642 2.642 0 0 1 .053-.527 3.458 3.458 0 0 1 .233-.744 4.107 4.107 0 0 1 .897-1.31l-1.383-.807c-.214.205-.416.45-.59.727-.115.182-.22.377-.308.584"/>
        <path fill="#123155" fill-rule="nonzero" d="M77.257 30.262l1.384.806a2.89 2.89 0 0 1 .627-.462l-1.384-.806-.076.042c-.189.109-.374.25-.551.42"/>
        <path fill="#F4901F" fill-rule="nonzero" d="M79.192 30.648c.333-.192.673-.282.977-.239 1.353.19 15.894 2.587 16.379 2.64 1.077.2 1.374 1.7.664 3.35-.447 1.04-1.187 1.893-1.944 2.33-.443.257-.893.371-1.29.297-.456-.121-14.432-3.83-15.736-4.134-.793-.184-1.031-1.275-.499-2.513.335-.779.883-1.403 1.449-1.73"/>
        <path fill="#123155" fill-rule="nonzero" d="M95.461 32.317a1.585 1.585 0 0 0-.616-.202 1.932 1.932 0 0 0-.271-.012c-.16.003-.322.025-.486.063a3.26 3.26 0 0 0-.909.373c-.342.198-.68.457-1.002.765-.419.4-.81.883-1.15 1.42-.301.478-.561.999-.763 1.544l-.034.096c-.126.354-.298.825-.506 1.388-2.034 5.514-7.57 19.906-7.89 20.737a8.766 8.766 0 0 0-.296 1.115 6.733 6.733 0 0 0-.13 1.327c.007 1.302.46 2.309 1.266 2.779l2.232 1.3c-.807-.47-1.26-1.477-1.268-2.778-.002-.415.041-.86.132-1.328.07-.36.168-.732.297-1.115.319-.83 5.855-15.223 7.89-20.736.207-.564.38-1.036.504-1.389l.035-.096a8.26 8.26 0 0 1 .763-1.544c.34-.537.732-1.02 1.15-1.42a5.34 5.34 0 0 1 1.136-.84 3.26 3.26 0 0 1 .774-.298c.164-.038.326-.06.487-.063.093-.002.184.002.27.013.23.027.435.095.617.201l-2.232-1.3z"/>
        <path fill="#F4901F" fill-rule="nonzero" d="M95.41 33.839c.468-.27.942-.426 1.396-.436 1.621-.035 2.26 1.818 1.527 4.134-1.206 3.812-6.175 21.169-6.437 22.082-.744 2.22-2.29 4.156-3.904 5.09-.634.367-1.278.578-1.888.592-2.162.046-3.074-2.422-2.037-5.512.352-.916 7.041-18.309 8.395-22.126.592-1.67 1.744-3.127 2.949-3.824"/>
        <path fill="#666667" fill-rule="nonzero" d="M90.13 59.156c0-1.525-1.068-2.143-2.385-1.38-1.318.762-2.385 2.616-2.385 4.14 0 1.525 1.067 2.143 2.385 1.38 1.317-.762 2.384-2.616 2.384-4.14"/>
        <path fill="#212221" fill-rule="nonzero" d="M86.68 63.234c-.584 0-.932-.493-.932-1.318 0-1.374 1.004-3.116 2.19-3.804.311-.18.612-.274.872-.274.583 0 .931.493.931 1.317 0 1.375-1.003 3.117-2.19 3.805-.31.18-.612.274-.871.274"/>
        <path fill="#666667" fill-rule="nonzero" d="M97.836 35.358c0-1.043-.731-1.466-1.632-.944-.902.522-1.632 1.79-1.632 2.834 0 1.043.73 1.467 1.632.945.901-.522 1.632-1.79 1.632-2.835"/>
        <path fill="#212221" fill-rule="nonzero" d="M95.475 38.15c-.4 0-.637-.337-.637-.902 0-.94.686-2.133 1.499-2.604.212-.122.418-.187.596-.187.4 0 .637.337.637.902 0 .94-.686 2.133-1.499 2.603-.212.123-.419.188-.596.188"/>
        <path fill="#666667" fill-rule="nonzero" d="M80.988 31.975c0-.815-.57-1.145-1.275-.737-.704.407-1.275 1.398-1.275 2.213 0 .815.571 1.145 1.275.738.704-.408 1.275-1.398 1.275-2.214"/>
        <path fill="#212221" fill-rule="nonzero" d="M79.144 34.155c-.312 0-.498-.263-.498-.704 0-.735.536-1.666 1.17-2.033a.963.963 0 0 1 .466-.147c.312 0 .498.264.498.705 0 .734-.536 1.665-1.17 2.032a.956.956 0 0 1-.466.147"/>
        <path fill="#123155" fill-rule="nonzero" d="M123.201 70.13l5.754-3.354.137-62.535-5.754 3.352z"/>
        <g transform="translate(116.796 .493)">
            <mask id="b" fill="#fff">
                <use xlink:href="#a"/>
            </mask>
            <path fill="#EAEAE9" fill-rule="nonzero" d="M6.542 7.1l5.754-3.352L5.94.07.186 3.422z" mask="url(#b)"/>
        </g>
        <path fill="#1F60AC" fill-rule="nonzero" d="M116.983 3.915l-.137 62.535 6.355 3.68.137-62.537z"/>
        <path fill="#ADADAD" fill-rule="nonzero" d="M151.061 87.36l-27.343-15.875.047 15.11 27.343 15.876z"/>
        <path fill="#EAEAE9" fill-rule="nonzero" d="M167.163 78.206L139.819 62.33l-16.101 9.154L151.06 87.36z"/>
        <path fill="#666667" fill-rule="nonzero" d="M151.061 87.36l.047 15.11 16.102-9.153-.047-15.111zM152.842 69.898c.083-1.048-1.596-2.669-3.219-4.236-1.12-1.082-2.18-2.105-2.61-2.87-.335-.596-.368-1.14-.102-1.615.417-.744 1.586-1.274 2.909-1.32 1.663-.056 1.89.147 1.899.155 0 0-.014-.014-.02-.047l.272-.045c-.044-.273-.77-.387-2.16-.339-1.439.05-2.671.623-3.14 1.46-.313.558-.278 1.21.101 1.887.45.8 1.523 1.836 2.66 2.934 1.503 1.451 3.208 3.097 3.135 4.014l.275.022z"/>
        <path fill="#1F60AC" fill-rule="nonzero" d="M153.697 71.534c.509-1.913-1.212-3.29-2.595-4.396-.409-.326-.794-.635-1.083-.924-.572-.574-1.289-1.732-1.6-3.029-.24-1.003-.315-2.413.703-3.432.38-.383.806-.555 1.298-.526 1.509.087 3.052 2.015 3.067 2.034l.432-.344c-.069-.087-1.714-2.143-3.467-2.243-.65-.038-1.23.194-1.722.687-1.197 1.201-1.122 2.813-.847 3.954.358 1.497 1.165 2.708 1.745 3.29.311.312.709.63 1.13.966 1.322 1.058 2.821 2.257 2.405 3.82l.534.143z"/>
        <path fill="#ADADAD" fill-rule="nonzero" d="M152.89 70.094c.306 0 .546-.085.716-.255l-.097-.098c-.425.426-1.435.21-2.845-.605-1.097-.635-2.798-7.6-1.869-10.291.253-.733.681-1.06 1.272-.976 1.294.187 2.973 1.944 2.99 1.962l.1-.096c-.07-.074-1.73-1.81-3.07-2.002-.666-.097-1.145.263-1.422 1.066-.417 1.205-.351 3.442.174 5.985.403 1.953 1.102 4.093 1.756 4.472.962.557 1.737.838 2.295.838"/>
        <path fill="#232423" fill-rule="nonzero" d="M150.795 73.621l.968-.563-.011.005-.968.564z"/>
        <path fill="#123155" fill-rule="nonzero" d="M152.52 75.778l.967-.564-.865-1.61-.968.564z"/>
        <path fill="#444544" fill-rule="nonzero" d="M155.375 76.284l.968-.563-.012-.02-.968.564z"/>
        <path fill="#123155" fill-rule="nonzero" d="M155.375 76.259l.968-.564-1.672-3.106-.968.564z"/>
        <path fill="#666667" fill-rule="nonzero" d="M153.704 73.153l.968-.563-1.237-.716-.968.563z"/>
        <path fill="#1F60AC" fill-rule="nonzero" d="M152.466 72.437l-1.682 1.165.01.02-.01.005.243.398.197.341.01-.004.975 1.592.31-.176-.865-1.61 1.43-.66 1.42 2.31-.872.603.308.535.981-.46.01.016.198-.113.246-.115-.012-.019.012-.006-1.671-3.106z"/>
        <path fill="#666667" fill-rule="nonzero" d="M154.213 69.509l-.004.002a.092.092 0 0 0 .03-.057.085.085 0 0 1-.026.055zm-.098.059a1.035 1.035 0 0 1-.018.007c.034-.013.055-.028.077-.042-.019.011-.033.024-.059.035zm-.496.054a.986.986 0 0 1-.228-.048c.086.032.201.044.314.048-.03-.001-.059.003-.086 0zm.626-.178c0-.046-.049-.093-.145-.129a1.19 1.19 0 0 0-.706 0c-.128.047-.165.113-.126.173-.008-.014-.022-.028-.022-.042l.006 3.194c0 .047.048.094.145.13a.942.942 0 0 0 .227.047c.166.015.348 0 .479-.048l.017-.006a.322.322 0 0 0 .098-.059c.022-.02.032-.043.032-.065l-.005-3.195z"/>
        <path fill="#F4901F" fill-rule="nonzero" d="M154.633 59.999c-.003.029-.006.058-.016.087.01-.029.013-.058.016-.087zm-.072.2c.015-.023.026-.047.037-.072-.01.022-.017.044-.03.064l-.007.008zm-.094.106c.021-.02.038-.04.056-.061-.018.02-.034.042-.056.061zm-.11.086l-.039.024c.036-.021.065-.044.094-.067-.019.014-.034.03-.056.043zm-.802.207zm-.272-.02c-.023-.004-.042-.014-.066-.018.109.021.22.038.333.038-.09 0-.18-.007-.267-.02zm-.364-.1a1.113 1.113 0 0 1-.127-.063c.075.043.167.07.257.099-.043-.013-.09-.019-.13-.036zm-.362-.27c.019.028.046.053.072.08-.026-.027-.053-.052-.072-.08zm-.06-.116c.01.027.026.053.042.08-.016-.027-.032-.053-.041-.08zm2.14-.12v-.004.002c0-.16-.104-.32-.314-.441-.42-.246-1.103-.246-1.526-.001-.245.142-.344.334-.307.519-.005-.024-.011-.048-.012-.073l.012 10.936c0 .16.104.319.313.44.04.024.084.045.128.064.111.047.235.08.363.1.358.054.755-.001 1.036-.164a.687.687 0 0 0 .249-.223.408.408 0 0 0 .07-.223l-.012-10.932z"/>
        <path fill="#666667" fill-rule="nonzero" d="M152.428 62.079l4.71-2.735-.009 5.743-4.71 2.734z"/>
        <path fill="#EAEAE9" fill-rule="nonzero" d="M150.31 60.847l4.711-2.735 2.116 1.233-4.71 2.734z"/>
        <path fill="#ADADAD" fill-rule="nonzero" d="M152.428 62.079l-.009 5.742-2.116-1.232.008-5.742z"/>
        <path fill="#123155" fill-rule="nonzero" d="M165.559 53.732c-.28-.325-5.593-6.498-6.584-7.542-.328-.345-.434-.927-.328-1.579.09-.543.326-1.136.704-1.682.334-.482.721-.843 1.107-1.066.091-.053.182-.098.273-.136.408-.167.8-.172 1.108.008l-.842-.49c-.309-.18-.7-.176-1.108-.008a2.236 2.236 0 0 0-.273.135c-.386.223-.773.584-1.108 1.067a4.213 4.213 0 0 0-.703 1.682c-.107.651 0 1.233.328 1.578.991 1.044 6.304 7.217 6.583 7.542.072.07.15.128.232.176l.843.49a1.222 1.222 0 0 1-.232-.175"/>
        <path fill="#F4901F" fill-rule="nonzero" d="M160.458 41.863c-.386.222-.773.584-1.107 1.066-.833 1.2-.978 2.628-.376 3.261.991 1.044 6.304 7.217 6.584 7.542.495.477 1.253.44 2.02-.003.522-.302 1.049-.794 1.5-1.442 1.109-1.6 1.333-3.547.5-4.35-.326-.257-6.522-5.157-7.588-6.092-.388-.34-.959-.315-1.533.018"/>
        <path fill="#EAEAE9" fill-rule="nonzero" d="M161.478 37.915a3.672 3.672 0 0 1-.885-.243 2.811 2.811 0 0 1-.311-.155c-.508-.297-.763-.684-.764-1.072l.028 9.766c0 .388.255.776.764 1.072.098.057.201.109.31.155.272.115.572.197.886.244l-.028-9.767z"/>
        <path fill="#ADADAD" fill-rule="nonzero" d="M161.478 37.915l.028 9.767c.871.13 1.837-.003 2.522-.4.032-.017.061-.036.091-.055l-.027-9.766a2.62 2.62 0 0 1-.092.056c-.685.396-1.65.529-2.522.398"/>
        <path fill="#123155" fill-rule="nonzero" d="M164.092 37.46l.027 9.767c.23-.147.402-.313.516-.488l-.028-9.766a1.691 1.691 0 0 1-.515.488M164.607 36.973l.028 9.766a.987.987 0 0 0 .17-.544l-.028-9.766a.988.988 0 0 1-.17.544"/>
        <path fill="#003B4F" fill-rule="nonzero" d="M160.294 35.357c-1.03.596-1.036 1.563-.012 2.16 1.024.596 2.689.596 3.718 0 1.03-.597 1.036-1.563.013-2.16-1.024-.596-2.689-.596-3.719 0"/>
        <path fill="#123155" fill-rule="nonzero" d="M168.253 48.017c-.502-.293-1.188-.223-1.897.188-.36.207-.724.502-1.073.882-.476.557-9.517 11.137-11.155 12.983-.995 1.121-1.461 2.72-1.013 3.625.101.204.239.353.403.449l1.705.992a1.037 1.037 0 0 1-.404-.448c-.448-.905.018-2.504 1.013-3.625 1.638-1.846 10.68-12.426 11.156-12.983a4.64 4.64 0 0 1 1.072-.883c.709-.41 1.395-.48 1.897-.187l-1.704-.993z"/>
        <path fill="#F4901F" fill-rule="nonzero" d="M168.06 49.197c1.023-.592 2.001-.474 2.444.42.597 1.206-.007 3.37-1.351 4.833-.5.506-10.018 10.126-11.696 11.89a3.663 3.663 0 0 1-.801.646c-.772.447-1.503.375-1.836-.298-.449-.905.018-2.504 1.013-3.625 1.638-1.846 10.679-12.426 11.155-12.983.348-.38.713-.675 1.072-.883"/>
        <path fill="#123155" fill-rule="nonzero" d="M167.426 54.468c-.28-.325-5.592-6.498-6.584-7.541-.328-.346-.434-.927-.328-1.58.09-.543.326-1.136.704-1.681.334-.483.721-.843 1.107-1.067.091-.053.183-.098.273-.135.408-.168.8-.172 1.108.008l-.842-.491c-.309-.18-.7-.175-1.108-.008a2.27 2.27 0 0 0-.273.135c-.386.223-.773.585-1.107 1.067a4.206 4.206 0 0 0-.704 1.682c-.106.652 0 1.234.328 1.579.991 1.044 6.304 7.216 6.584 7.541.071.07.15.129.231.176l.843.491a1.203 1.203 0 0 1-.232-.176"/>
        <path fill="#F4901F" fill-rule="nonzero" d="M162.325 42.6c-.386.222-.773.583-1.107 1.066-.833 1.2-.977 2.627-.376 3.26.992 1.044 6.304 7.217 6.584 7.542.495.477 1.253.441 2.02-.002.522-.302 1.05-.794 1.5-1.443 1.109-1.6 1.334-3.547.5-4.349-.326-.258-6.522-5.157-7.588-6.093-.388-.34-.959-.314-1.533.018"/>
        <path fill="#123155" fill-rule="nonzero" d="M157.285 63.399a.585.585 0 0 0-.32-.07 1.01 1.01 0 0 0-.438.144c-.225.13-.434.331-.606.569a2.463 2.463 0 0 0-.358.702 1.835 1.835 0 0 0-.097.572c0 .337.12.574.31.685l.682.398c-.19-.111-.308-.348-.31-.685 0-.184.034-.38.096-.573a2.589 2.589 0 0 1 .36-.702c.172-.237.38-.438.606-.569a1 1 0 0 1 .438-.144.575.575 0 0 1 .32.07l-.683-.397z"/>
        <path fill="#F4901F" fill-rule="nonzero" d="M157.21 63.87c-.589.341-1.064 1.166-1.062 1.844.002.678.48.95 1.07.61.587-.34 1.062-1.166 1.06-1.843-.002-.677-.48-.95-1.068-.61"/>
        <path fill="#123155" fill-rule="nonzero" d="M130.692 64.578l.669-.39.004-1.562-.668.39z"/>
        <path fill="#666667" fill-rule="nonzero" d="M133.86 63.546a.574.574 0 0 1-.099.315.975.975 0 0 1-.298.282 1.2 1.2 0 0 1-.053.033c-.398.23-.958.307-1.463.23a2.11 2.11 0 0 1-.513-.14 1.494 1.494 0 0 1-.18-.09c-.295-.172-.444-.396-.444-.621l.016 2.842c.001.226.148.45.444.622.056.033.117.063.18.09.157.067.331.114.513.141.505.076 1.065 0 1.463-.231a.978.978 0 0 0 .352-.315.576.576 0 0 0 .098-.315l-.016-2.843z"/>
        <path fill="#F4901F" fill-rule="nonzero" d="M131.26 62.924c-.597.345-.6.906-.006 1.252.593.346 1.558.346 2.156 0 .597-.346.6-.906.007-1.252-.595-.346-1.56-.346-2.157 0"/>
        <path fill="#003343" fill-rule="nonzero" d="M131.674 62.46l.669-.39-.309-.178-.669.39z"/>
        <path fill="#666667" fill-rule="nonzero" d="M131.366 62.281l.668-.39v-.362l-.667.389z"/>
        <path fill="#003343" fill-rule="nonzero" d="M131.373 61.921l.668-.388-.006-.004-.668.39z"/>
        <path fill="#666667" fill-rule="nonzero" d="M131.367 61.918l.668-.39v-.007l-.668.39z"/>
        <path fill="#003343" fill-rule="nonzero" d="M132.522 62.95l.669-.389-.315-.183-.669.39z"/>
        <path fill="#666667" fill-rule="nonzero" d="M132.517 62.584l.668-.39-1.144-.662-.668.39z"/>
        <path fill="#003343" fill-rule="nonzero" d="M132.523 62.588l.668-.39-.005-.004-.669.39z"/>
        <path fill="#072029" fill-rule="nonzero" d="M132.522 62.95l.669-.389v-.363l-.668.39z"/>
        <path fill="#042530" fill-rule="nonzero" d="M132.523 62.58l.668-.389-.005.003-.669.39z"/>
        <path fill="#123155" fill-rule="nonzero" d="M133.192 62.191l-.669.39 1.093 1.89-.005 1.786.668-.39.005-1.786z"/>
        <path fill="#1F60AC" fill-rule="nonzero" d="M132.523 62.58l-.006.004-1.144-.662-.007-.004v-.006l-1.1.62-.004 1.787.448.26.004-1.564.96-.555.534.308.953 1.663-.004 1.563.454.263.005-1.786z"/>
        <path fill="#666667" fill-rule="nonzero" d="M133.004 59.068l-.003.002a.09.09 0 0 0 .031-.057.09.09 0 0 1-.028.055zm-.097.058a.335.335 0 0 0 .06-.036c-.018.013-.033.025-.06.036zm-.497.055a1.034 1.034 0 0 1-.226-.048c.086.032.2.044.314.048-.03-.001-.06.003-.088 0zm.627-.178c0-.047-.049-.093-.145-.129a1.19 1.19 0 0 0-.707 0c-.135.05-.17.12-.12.182-.013-.017-.027-.034-.027-.052l.005 3.195c0 .047.05.094.146.13a1.094 1.094 0 0 0 .227.047c.165.015.348 0 .48-.048l.016-.006a.322.322 0 0 0 .098-.059c.021-.021.032-.043.032-.065l-.005-3.195z"/>
        <path fill="#1F60AC" fill-rule="nonzero" d="M132.481 60.84c.51-1.913-1.212-3.29-2.595-4.395-.408-.327-.794-.635-1.082-.925-1.282-1.284-2.72-4.635-.898-6.46.381-.383.806-.555 1.299-.527 1.508.087 3.051 2.015 3.067 2.035l.432-.344c-.07-.088-1.715-2.143-3.467-2.244-.65-.037-1.23.194-1.722.687-1.198 1.201-1.123 2.814-.848 3.954.359 1.497 1.165 2.709 1.746 3.29.31.312.708.63 1.129.967 1.322 1.057 2.822 2.256 2.406 3.82l.533.142z"/>
        <path fill="#ADADAD" fill-rule="nonzero" d="M131.443 59.347c.114 0 .231-.011.351-.035l-.053-.272c-2.258.448-3.507-4.423-3.938-6.538-.472-2.31.416-3.895 1.32-4.55.497-.36 1.016-.463 1.355-.268.954.548.34 1.736.313 1.787l.243.13c.27-.508.531-1.611-.419-2.157-.434-.25-1.068-.141-1.655.284-.97.703-1.926 2.39-1.428 4.83.53 2.592 1.724 6.788 3.911 6.789"/>
        <path fill="#ADADAD" fill-rule="nonzero" d="M131.547 58.784c.112 0 .216-.011.307-.031l-.03-.135c-.404.09-1.284-.046-1.98-.63-.474-.399-1.028-1.15-.972-2.465.056-1.294-.394-1.876-.792-2.39-.437-.566-.816-1.054-.48-2.368.47-1.84 1.206-3.022 2.02-3.245.36-.1.705.003.997.295.733.735.682.923.681.925 0 0 .003-.006.01-.013l.093.103c.01-.01.035-.038.037-.095.004-.187-.246-.54-.723-1.018-.325-.324-.726-.442-1.132-.331-.863.237-1.635 1.456-2.117 3.345-.352 1.38.065 1.917.505 2.487.402.519.817 1.055.763 2.3-.058 1.37.523 2.157 1.022 2.576.565.475 1.276.69 1.79.69"/>
        <path fill="#F4901F" fill-rule="nonzero" d="M133.424 49.556zm-.064.194l-.007.008c.015-.023.025-.047.036-.07-.01.02-.017.042-.03.062zm-.102.114c.022-.02.039-.04.056-.06-.017.02-.034.04-.056.06zm-.11.087l-.038.022c.035-.02.063-.043.092-.065-.018.014-.033.03-.054.043zm-.801.206zm-.272-.02c-.023-.004-.043-.014-.066-.019.109.022.22.038.334.039-.09 0-.18-.007-.268-.02zm-.364-.1a1.028 1.028 0 0 1-.127-.064c.075.045.167.071.257.1-.043-.014-.09-.02-.13-.036zm-.421-.386c.006.02.019.039.028.058-.01-.02-.022-.038-.028-.058zm2.139-.124v.002c0-.16-.105-.32-.314-.442-.42-.245-1.104-.245-1.526 0-.242.14-.342.33-.308.514-.004-.023-.01-.045-.01-.068l.01 10.936c0 .16.105.319.314.44.04.024.083.045.128.064.11.047.234.08.363.1.358.053.754-.001 1.035-.164l.038-.023a.689.689 0 0 0 .211-.2.407.407 0 0 0 .07-.223l-.011-10.936z"/>
        <path fill="#666667" fill-rule="nonzero" d="M131.22 51.638l4.71-2.735-.01 5.743-4.71 2.734z"/>
        <path fill="#EAEAE9" fill-rule="nonzero" d="M129.102 50.405l4.71-2.734 2.117 1.233-4.71 2.734z"/>
        <path fill="#ADADAD" fill-rule="nonzero" d="M131.22 51.638l-.01 5.742-2.116-1.232.008-5.742z"/>
        <path fill="#9D6A28" fill-rule="nonzero" d="M144.35 43.29l-.842-.49c.072.07.15.128.232.176l.843.49a1.206 1.206 0 0 1-.233-.176"/>
        <path fill="#123155" fill-rule="nonzero" d="M137.767 35.749c-.328-.345-.434-.927-.328-1.58a4.18 4.18 0 0 1 .704-1.681c.334-.482.72-.843 1.107-1.066a2.2 2.2 0 0 1 .273-.136c.408-.167.8-.172 1.108.008l-.842-.491c-.309-.179-.7-.175-1.108-.007-.09.037-.182.082-.274.135-.385.223-.772.584-1.106 1.066a4.186 4.186 0 0 0-.704 1.682c-.106.652 0 1.234.327 1.579.992 1.044 6.305 7.217 6.584 7.542l.842.49c-.28-.325-5.592-6.498-6.583-7.541"/>
        <path fill="#F4901F" fill-rule="nonzero" d="M139.25 31.421c-.386.223-.773.585-1.107 1.067-.833 1.2-.978 2.627-.377 3.26.992 1.045 6.305 7.218 6.584 7.542.496.478 1.254.442 2.02-.002.523-.303 1.05-.795 1.5-1.443 1.11-1.6 1.334-3.547.5-4.349-.325-.257-6.521-5.157-7.588-6.093-.387-.34-.958-.314-1.533.018"/>
        <path fill="#EAEAE9" fill-rule="nonzero" d="M140.27 27.474a3.66 3.66 0 0 1-.885-.243 2.673 2.673 0 0 1-.311-.156c-.509-.296-.763-.683-.764-1.072l.028 9.766c0 .389.255.777.763 1.073.099.057.202.108.311.155.272.115.573.196.886.243l-.028-9.766z"/>
        <path fill="#ADADAD" fill-rule="nonzero" d="M140.27 27.474l.028 9.766c.87.131 1.837-.002 2.522-.399l.091-.055-.028-9.766c-.028.019-.06.037-.09.055-.686.397-1.652.53-2.523.399"/>
        <path fill="#123155" fill-rule="nonzero" d="M142.883 27.02l.028 9.766c.23-.146.401-.312.515-.488l-.027-9.767a1.685 1.685 0 0 1-.516.488"/>
        <path fill="#123155" fill-rule="nonzero" d="M143.399 26.532l.027 9.766a.99.99 0 0 0 .17-.544l-.028-9.766a.988.988 0 0 1-.17.544"/>
        <path fill="#003B4F" fill-rule="nonzero" d="M139.086 24.916c-1.03.596-1.037 1.563-.012 2.16 1.023.596 2.688.595 3.719-.001 1.03-.596 1.034-1.562.011-2.158-1.024-.597-2.688-.597-3.718-.001"/>
        <path fill="#123155" fill-rule="nonzero" d="M147.045 37.576c-.503-.293-1.189-.223-1.897.187a4.64 4.64 0 0 0-1.073.883c-.476.557-9.517 11.137-11.155 12.983-.995 1.12-1.462 2.72-1.013 3.625.101.204.24.353.404.448l1.704.993a1.04 1.04 0 0 1-.404-.448c-.449-.905.018-2.504 1.013-3.625 1.639-1.846 10.68-12.426 11.155-12.983.35-.38.714-.675 1.073-.883.708-.41 1.395-.48 1.897-.187l-1.704-.993z"/>
        <path fill="#F4901F" fill-rule="nonzero" d="M146.852 38.756c1.023-.592 2.001-.474 2.444.42.598 1.206-.007 3.37-1.351 4.833-.5.506-10.019 10.126-11.697 11.89a3.65 3.65 0 0 1-.8.646c-.773.447-1.503.374-1.837-.298-.448-.905.018-2.504 1.013-3.626 1.639-1.845 10.68-12.425 11.155-12.982a4.63 4.63 0 0 1 1.073-.883"/>
        <path fill="#9D6A28" fill-rule="nonzero" d="M146.217 44.027l-.842-.49c.073.068.15.127.233.175l.842.491a1.206 1.206 0 0 1-.233-.176"/>
        <path fill="#123155" fill-rule="nonzero" d="M139.634 36.485c-.328-.345-.434-.926-.328-1.579a4.198 4.198 0 0 1 .704-1.682c.335-.481.722-.843 1.107-1.066a2.2 2.2 0 0 1 .273-.135c.408-.168.8-.172 1.108.007l-.842-.49c-.309-.18-.7-.175-1.108-.008-.09.037-.182.082-.274.135-.385.223-.772.585-1.106 1.067a4.189 4.189 0 0 0-.704 1.682c-.107.652 0 1.233.327 1.579.992 1.043 6.305 7.216 6.584 7.54l.843.492c-.28-.325-5.593-6.498-6.584-7.542"/>
        <path fill="#F4901F" fill-rule="nonzero" d="M141.117 32.158c-.386.223-.773.584-1.107 1.066-.833 1.2-.978 2.628-.376 3.261.991 1.044 6.304 7.217 6.583 7.542.496.477 1.254.441 2.02-.002.523-.303 1.05-.795 1.5-1.444 1.11-1.599 1.334-3.546.5-4.348-.325-.258-6.521-5.157-7.587-6.093-.388-.34-.959-.315-1.533.018"/>
        <path fill="#123155" fill-rule="nonzero" d="M136.077 52.957a.585.585 0 0 0-.32-.07 1.01 1.01 0 0 0-.438.145c-.226.13-.434.332-.606.569a2.463 2.463 0 0 0-.359.702 1.851 1.851 0 0 0-.097.572c.001.337.12.573.31.685l.683.398c-.19-.112-.309-.349-.31-.686 0-.184.034-.378.097-.572a2.585 2.585 0 0 1 .359-.702c.172-.237.38-.438.605-.569.157-.09.305-.137.438-.145a.588.588 0 0 1 .32.071l-.682-.398z"/>
        <path fill="#F4901F" fill-rule="nonzero" d="M136.001 53.43c-.588.34-1.064 1.165-1.061 1.842.001.678.48.952 1.069.611.588-.34 1.063-1.166 1.061-1.843-.002-.678-.48-.951-1.069-.61"/>
        <path fill="#00435A" fill-rule="nonzero" d="M179.627 40.965l1.165-.678.009-3.24-1.165.678z"/>
        <path fill="#EAEAE9" fill-rule="nonzero" d="M179.636 37.725l1.165-.678-52.4-30.328-1.164.678z"/>
        <path fill="#123155" fill-rule="nonzero" d="M127.237 7.397l-.01 3.24 52.4 30.328.009-3.24z"/>
        <path fill="#ADADAD" fill-rule="nonzero" d="M164.953 25.967l-7.602-4.414.013 15.461 7.602 4.413z"/>
        <path fill="#EAEAE9" fill-rule="nonzero" d="M168.37 23.977l-7.603-4.413-3.416 1.989 7.602 4.414z"/>
        <path fill="#666667" fill-rule="nonzero" d="M164.953 25.967l.013 15.46 3.416-1.99-.012-15.46z"/>
        <path fill="#ADADAD" fill-rule="nonzero" d="M144.124 15.242l-7.602-4.414.013 15.46 7.602 4.414z"/>
        <path fill="#EAEAE9" fill-rule="nonzero" d="M147.54 13.252l-7.601-4.414-3.417 1.99 7.602 4.414z"/>
        <path fill="#666667" fill-rule="nonzero" d="M144.124 15.242l.013 15.46 3.417-1.99-.013-15.46z"/>
        <path fill="#00435A" fill-rule="nonzero" d="M176.594 42.696l1.165-.678.01-3.24-1.165.678z"/>
        <path fill="#EAEAE9" fill-rule="nonzero" d="M176.604 39.456l1.164-.678-52.4-30.328-1.164.679z"/>
        <path fill="#123155" fill-rule="nonzero" d="M124.204 9.128l-.009 3.24 52.4 30.328.008-3.24zM177.638 103l5.754-3.353.137-62.535-5.754 3.352z"/>
        <path fill="#EAEAE9" fill-rule="nonzero" d="M177.776 40.464l5.753-3.352-6.354-3.679-5.755 3.353z"/>
        <path fill="#1F60AC" fill-rule="nonzero" d="M171.42 36.786l-.137 62.535 6.355 3.679.137-62.536z"/>
        <path fill="#ADADAD" fill-rule="nonzero" d="M165.1 112.41l.922-.536.018-11.06-.922.536z"/>
        <path fill="#936C29" fill-rule="nonzero" d="M165.118 101.35l.922-.537-.905-.522-.92.536z"/>
        <path fill="#666667" fill-rule="nonzero" d="M164.214 100.827l-.018 11.06.904.524.018-11.06z"/>
        <path fill="#ADADAD" fill-rule="nonzero" d="M151.751 104.194l.922-.537.018-11.06-.922.537z"/>
        <path fill="#936C29" fill-rule="nonzero" d="M151.77 93.134l.922-.537-.905-.523-.922.537z"/>
        <path fill="#666667" fill-rule="nonzero" d="M150.865 92.611l-.017 11.06.903.524.018-11.06z"/>
        <path fill="#ADADAD" fill-rule="nonzero" d="M141.271 98.297l.922-.537.018-11.06-.922.537z"/>
        <path fill="#936C29" fill-rule="nonzero" d="M141.29 87.237l.921-.537-.904-.523-.922.536z"/>
        <path fill="#666667" fill-rule="nonzero" d="M140.385 86.713l-.017 11.06.903.524.018-11.06z"/>
        <path fill="#ADADAD" fill-rule="nonzero" d="M130.138 92.074l.922-.537.018-11.06-.922.537z"/>
        <path fill="#936C29" fill-rule="nonzero" d="M130.156 81.014l.922-.537-.904-.523-.922.537z"/>
        <path fill="#666667" fill-rule="nonzero" d="M129.252 80.49l-.017 11.06.903.524.018-11.06z"/>
        <path fill="#ADADAD" fill-rule="nonzero" d="M130.287 92.158l.921-.537.018-11.06-.921.537z"/>
        <path fill="#936C29" fill-rule="nonzero" d="M130.305 81.098l.922-.537-.904-.523-.922.537z"/>
        <path fill="#666667" fill-rule="nonzero" d="M129.4 80.575l-.017 11.06.904.523.018-11.06z"/>
        <path fill="#ADADAD" fill-rule="nonzero" d="M120.262 86.114l.922-.537.017-11.06-.921.536z"/>
        <path fill="#936C29" fill-rule="nonzero" d="M120.28 75.053l.921-.537-.904-.522-.921.536z"/>
        <path fill="#666667" fill-rule="nonzero" d="M119.376 74.53l-.018 11.06.904.524.018-11.06z"/>
        <path fill="#ADADAD" fill-rule="nonzero" d="M168.351 104.572l1.368-.797.003-1.458-1.366.795z"/>
        <path fill="#EAEAE9" fill-rule="nonzero" d="M168.356 103.112l1.367-.796-52.238-30.426-1.366.797z"/>
        <path fill="#666667" fill-rule="nonzero" d="M116.118 72.687l-.004 1.459 52.238 30.426.004-1.46zM104.265 81.975c-.012.135-.019.276-.019.422-.002.717.141 1.48.399 2.233l-.803-.464a7.924 7.924 0 0 1-.329-2.193c0-.12.006-.237.013-.35l.74.352z"/>
        <path fill="#212221" fill-rule="nonzero" d="M147.083 111.795l11.646-6.785-38.911-22.582-11.646 6.785z"/>
        <path fill="#666667" fill-rule="nonzero" d="M104.645 84.63c.638 1.873 1.977 3.686 3.526 4.582l38.912 22.583c.606.351 1.181.524 1.695.538l1.105.852c-.782.223-1.753.062-2.803-.546L108.17 90.056c-1.966-1.138-3.644-3.51-4.327-5.89l.803.464z"/>
        <path fill="#781915" fill-rule="nonzero" d="M108.172 89.212l11.646-6.784a6.102 6.102 0 0 1-.856-.603l-11.646 6.785c.276.23.562.432.856.602"/>
        <path fill="#8C1B1C" fill-rule="nonzero" d="M107.316 88.61l11.646-6.785a8.209 8.209 0 0 1-1.279-1.361l-11.646 6.785a8.21 8.21 0 0 0 1.28 1.36"/>
        <path fill="#A02021" fill-rule="nonzero" d="M106.037 87.249l11.646-6.785c-.736-.978-1.302-2.134-1.587-3.276l-11.647 6.785c.286 1.142.851 2.298 1.588 3.276"/>
        <path fill="#8C1B1C" fill-rule="nonzero" d="M104.45 83.973l11.646-6.785a6.451 6.451 0 0 1-.202-1.704l-11.646 6.785a6.484 6.484 0 0 0 .202 1.703"/>
        <path fill="#313131" fill-rule="nonzero" d="M104.248 82.27l11.645-6.786a3.89 3.89 0 0 1 .217-1.225l-11.646 6.785c-.128.35-.204.76-.216 1.225"/>
        <path fill="#313131" fill-rule="nonzero" d="M104.464 81.044l11.646-6.785c.197-.538.519-.937.932-1.178l-11.646 6.786c-.413.24-.735.638-.932 1.177M149.884 112.068l11.646-6.785c-.641.374-1.504.366-2.461-.093l-11.647 6.785c.958.46 1.82.467 2.462.093"/>
        <path fill="#781915" fill-rule="nonzero" d="M147.422 111.975l11.647-6.785a4.746 4.746 0 0 1-.34-.18l-11.646 6.785c.115.066.227.126.34.18"/>
        <path fill="#073B50" fill-rule="nonzero" d="M151.26 98.176c.64-.375 1.504-.366 2.465.094.112.054.226.114.341.181.295.171.583.375.86.606.463.387.895.85 1.281 1.362.736.978 1.301 2.133 1.586 3.275a6.483 6.483 0 0 1 .203 1.713 3.879 3.879 0 0 1-.217 1.23c-.197.539-.518.938-.932 1.178l-7.35 4.282c.414-.24.735-.64.932-1.178a3.891 3.891 0 0 0 .22-1.36 6.518 6.518 0 0 0-.205-1.583c-.286-1.142-.851-2.297-1.587-3.275a8.236 8.236 0 0 0-1.281-1.362 6.177 6.177 0 0 0-.86-.606 5.459 5.459 0 0 0-.341-.181c-.96-.46-1.824-.469-2.466-.094l7.35-4.282z"/>
        <path fill="#0070A6" fill-rule="nonzero" d="M146.716 102.733c-2.178-1.26-3.95-.25-3.958 2.26-.007 2.51 1.754 5.568 3.933 6.829 2.178 1.26 3.95.248 3.957-2.262.007-2.51-1.753-5.566-3.932-6.827"/>
        <path fill="#123155" fill-rule="nonzero" d="M112.764 75.952c.642-.374 1.505-.366 2.465.095.113.054.227.114.342.181.296.17.583.374.86.606.463.387.895.85 1.281 1.362.736.977 1.301 2.132 1.587 3.275a6.51 6.51 0 0 1 .202 1.712 3.876 3.876 0 0 1-.218 1.231c-.196.538-.518.937-.931 1.178l-7.35 4.282c.413-.24.735-.64.932-1.178.129-.352.205-.764.217-1.231l.002-.128a6.516 6.516 0 0 0-.205-1.584c-.285-1.143-.85-2.298-1.586-3.275a8.23 8.23 0 0 0-1.281-1.363 6.173 6.173 0 0 0-.86-.605 5.317 5.317 0 0 0-.342-.182c-.96-.46-1.823-.468-2.465-.094l7.35-4.282z"/>
        <path fill="#ADADAD" fill-rule="nonzero" d="M108.221 80.51c-2.178-1.261-3.95-.25-3.958 2.26-.007 2.51 1.754 5.567 3.933 6.829 2.178 1.26 3.95.247 3.957-2.262.008-2.51-1.753-5.566-3.932-6.827"/>
        <path fill="#666667" fill-rule="nonzero" d="M150.644 111.269l.799.46c-.322.759-.867 1.258-1.56 1.456l-1.105-.852c.813.023 1.475-.355 1.866-1.064"/>
        <path fill="#EAEAE9" fill-rule="nonzero" d="M163.17 101.302c-.338-1.353-1.007-2.72-1.878-3.878a9.704 9.704 0 0 0-1.518-1.613 7.3 7.3 0 0 0-1.017-.718l-38.911-22.582a5.558 5.558 0 0 0-.406-.215c-1.136-.545-2.158-.555-2.918-.112l-11.646 6.785c.76-.443 1.781-.433 2.918.112.134.064.55.299.687.378l38.63 22.419c.349.203.69.444 1.017.717a9.76 9.76 0 0 1 1.518 1.614c.87 1.157 1.54 2.525 1.878 3.878a7.7 7.7 0 0 1 .24 2.028 4.608 4.608 0 0 1-.257 1.456c-.233.638-.614 1.11-1.103 1.394l11.646-6.785c.49-.285.87-.757 1.103-1.393a4.62 4.62 0 0 0 .258-1.457l.002-.152a7.724 7.724 0 0 0-.243-1.876"/>
        <path fill="#666667" fill-rule="nonzero" d="M108.2 79.295l38.91 22.583c2.58 1.493 4.665 5.112 4.657 8.084-.002.69-.118 1.281-.324 1.768l-.799-.462c.248-.449.388-1.03.39-1.73.007-2.502-1.755-5.56-3.925-6.816L108.197 80.14c-2.045-1.184-3.735-.354-3.932 1.835l-.74-.352c.168-2.713 2.199-3.76 4.675-2.327"/>
        <path fill="#ADADAD" fill-rule="nonzero" d="M148.79 121.41l.923-.537.018-11.06-.922.537z"/>
        <path fill="#936C29" fill-rule="nonzero" d="M148.809 110.35l.922-.537-.905-.523-.921.537z"/>
        <path fill="#666667" fill-rule="nonzero" d="M147.905 109.827l-.018 11.06.904.524.018-11.061z"/>
        <path fill="#ADADAD" fill-rule="nonzero" d="M135.443 113.194l.922-.537.017-11.06-.921.537z"/>
        <path fill="#936C29" fill-rule="nonzero" d="M135.46 102.134l.922-.537-.904-.523-.921.537z"/>
        <path fill="#666667" fill-rule="nonzero" d="M134.556 101.61l-.017 11.06.904.524.018-11.06z"/>
        <path fill="#ADADAD" fill-rule="nonzero" d="M124.962 107.297l.922-.537.018-11.06-.922.536z"/>
        <path fill="#936C29" fill-rule="nonzero" d="M124.98 96.236l.922-.537-.904-.523-.922.537z"/>
        <path fill="#666667" fill-rule="nonzero" d="M124.076 95.713l-.018 11.06.904.524.018-11.061z"/>
        <path fill="#ADADAD" fill-rule="nonzero" d="M113.978 101.158l.922-.537.018-11.06-.922.537z"/>
        <path fill="#936C29" fill-rule="nonzero" d="M113.996 90.098l.922-.537-.905-.523-.92.536z"/>
        <path fill="#666667" fill-rule="nonzero" d="M113.092 89.574l-.018 11.06.904.524.018-11.06z"/>
        <path fill="#ADADAD" fill-rule="nonzero" d="M103.953 95.113l.922-.537.018-11.06-.923.537z"/>
        <path fill="#936C29" fill-rule="nonzero" d="M103.97 84.053l.923-.537-.904-.523-.922.537z"/>
        <path fill="#666667" fill-rule="nonzero" d="M103.067 83.53l-.018 11.06.904.524.017-11.061z"/>
        <path fill="#ADADAD" fill-rule="nonzero" d="M152.043 113.571l1.367-.796.003-1.46-1.366.797z"/>
        <path fill="#EAEAE9" fill-rule="nonzero" d="M152.046 112.112l1.368-.796-52.238-30.426-1.367.797z"/>
        <path fill="#666667" fill-rule="nonzero" d="M99.81 81.686l-.005 1.46 52.237 30.426.004-1.46z"/>
        <path fill="#ADADAD" fill-rule="nonzero" d="M99.952 141.32l-.921-.537-.018-11.06.922.536z"/>
        <path fill="#936C29" fill-rule="nonzero" d="M99.935 130.26l-.922-.538.904-.523.921.537z"/>
        <path fill="#666667" fill-rule="nonzero" d="M100.838 129.736l.018 11.06-.904.524-.017-11.06z"/>
        <path fill="#ADADAD" fill-rule="nonzero" d="M113.301 133.103l-.922-.537-.018-11.06.922.537z"/>
        <path fill="#936C29" fill-rule="nonzero" d="M113.283 122.043l-.922-.537.904-.523.921.537z"/>
        <path fill="#666667" fill-rule="nonzero" d="M114.187 121.52l.018 11.06-.904.524-.018-11.06z"/>
        <path fill="#ADADAD" fill-rule="nonzero" d="M123.781 127.205l-.922-.537-.018-11.06.922.537z"/>
        <path fill="#936C29" fill-rule="nonzero" d="M123.763 116.145l-.922-.537.905-.523.92.537z"/>
        <path fill="#666667" fill-rule="nonzero" d="M124.667 115.622l.018 11.06-.904.523-.018-11.06z"/>
        <path fill="#ADADAD" fill-rule="nonzero" d="M134.914 120.983l-.922-.537-.018-11.06.922.537z"/>
        <path fill="#936C29" fill-rule="nonzero" d="M134.896 109.923l-.922-.537.905-.523.92.537z"/>
        <path fill="#666667" fill-rule="nonzero" d="M135.8 109.4l.018 11.06-.904.523-.018-11.06z"/>
        <path fill="#ADADAD" fill-rule="nonzero" d="M145.11 115.142l-.922-.537-.018-11.06.922.536z"/>
        <path fill="#936C29" fill-rule="nonzero" d="M145.092 104.081l-.922-.537.904-.523.922.537z"/>
        <path fill="#666667" fill-rule="nonzero" d="M145.996 103.558l.017 11.06-.903.524-.018-11.06z"/>
        <path fill="#ADADAD" fill-rule="nonzero" d="M155.135 109.097l-.922-.537-.018-11.06.922.537z"/>
        <path fill="#936C29" fill-rule="nonzero" d="M155.117 98.037l-.922-.537.904-.523.922.536z"/>
        <path fill="#666667" fill-rule="nonzero" d="M156.021 97.513l.017 11.06-.903.524-.018-11.06z"/>
        <path fill="#ADADAD" fill-rule="nonzero" d="M96.701 133.48l-1.367-.796-.004-1.459 1.366.796z"/>
        <path fill="#EAEAE9" fill-rule="nonzero" d="M96.697 132.022l-1.367-.797 62.582-36.351 1.366.796z"/>
        <path fill="#666667" fill-rule="nonzero" d="M159.278 95.67l.005 1.46L96.7 133.48l-.004-1.459z"/>
        <path fill="#707171" fill-rule="nonzero" d="M171.131 104.958c.012.135.02.276.02.422.002.717-.142 1.48-.399 2.233l.802-.463a7.924 7.924 0 0 0 .33-2.194c-.001-.12-.006-.236-.013-.35l-.74.352z"/>
        <path fill="#212221" fill-rule="nonzero" d="M117.97 140.704l-11.646-6.785 49.255-28.508 11.646 6.785z"/>
        <path fill="#666667" fill-rule="nonzero" d="M170.752 107.613c-.638 1.874-1.978 3.686-3.527 4.583l-49.255 28.508c-.607.35-1.182.524-1.696.538l-1.105.852c.782.223 1.753.062 2.803-.546l49.255-28.508c1.967-1.139 3.644-3.51 4.328-5.89l-.803.463z"/>
        <path fill="#781915" fill-rule="nonzero" d="M167.225 112.196l-11.646-6.785c.293-.17.58-.373.855-.603l11.646 6.785c-.275.23-.561.433-.855.603"/>
        <path fill="#8C1B1C" fill-rule="nonzero" d="M168.08 111.593l-11.646-6.785c.463-.386.895-.85 1.28-1.36l11.646 6.784a8.231 8.231 0 0 1-1.28 1.36"/>
        <path fill="#A02021" fill-rule="nonzero" d="M169.36 110.232l-11.647-6.784c.737-.978 1.303-2.134 1.588-3.277l11.646 6.785c-.285 1.142-.851 2.299-1.587 3.276"/>
        <path fill="#8C1B1C" fill-rule="nonzero" d="M170.947 106.956l-11.646-6.785a6.485 6.485 0 0 0 .201-1.703l11.646 6.784a6.458 6.458 0 0 1-.202 1.704"/>
        <path fill="#313131" fill-rule="nonzero" d="M171.149 105.252l-11.646-6.784a3.864 3.864 0 0 0-.217-1.226l11.646 6.785c.129.35.204.761.217 1.225M170.933 104.027l-11.647-6.785c-.196-.538-.518-.936-.932-1.177l11.647 6.785c.413.24.734.64.932 1.177M115.168 140.977l-11.646-6.785c.641.374 1.504.367 2.462-.093l11.646 6.785c-.958.459-1.82.467-2.462.093"/>
        <path fill="#781915" fill-rule="nonzero" d="M117.63 140.884l-11.646-6.785a4.87 4.87 0 0 0 .34-.18l11.645 6.785a4.973 4.973 0 0 1-.34.18"/>
        <path fill="#123155" fill-rule="nonzero" d="M113.793 127.085c-.642-.375-1.505-.366-2.465.094a4.808 4.808 0 0 0-.342.181c-.295.171-.583.375-.86.606-.463.387-.895.85-1.28 1.362-.736.978-1.302 2.133-1.587 3.275a6.483 6.483 0 0 0-.203 1.712c.013.467.088.88.218 1.232.197.537.518.937.931 1.177l7.35 4.282c-.413-.24-.735-.64-.931-1.178a3.875 3.875 0 0 1-.22-1.36 6.518 6.518 0 0 1 .205-1.583c.285-1.142.85-2.297 1.586-3.275a8.186 8.186 0 0 1 1.281-1.362c.277-.231.564-.435.86-.606.115-.067.23-.127.342-.181.96-.46 1.823-.469 2.466-.095l-7.35-4.281z"/>
        <path fill="#ADADAD" fill-rule="nonzero" d="M118.336 131.642c2.179-1.26 3.95-.25 3.958 2.26.007 2.51-1.753 5.567-3.933 6.829-2.178 1.26-3.95.248-3.957-2.262-.007-2.51 1.753-5.566 3.932-6.827"/>
        <path fill="#123155" fill-rule="nonzero" d="M162.633 98.936c-.642-.375-1.506-.366-2.466.094a5.176 5.176 0 0 0-.341.181c-.296.17-.583.375-.86.606-.463.387-.896.85-1.282 1.362-.735.978-1.3 2.133-1.586 3.275a6.483 6.483 0 0 0-.203 1.713c.013.466.089.878.218 1.23.197.538.518.938.932 1.178l7.35 4.282c-.414-.24-.735-.64-.932-1.178a3.891 3.891 0 0 1-.22-1.36 6.518 6.518 0 0 1 .205-1.583c.285-1.142.85-2.297 1.586-3.275a8.189 8.189 0 0 1 1.282-1.362c.276-.231.563-.435.86-.606.114-.067.228-.127.341-.18.96-.461 1.823-.47 2.466-.095l-7.35-4.282z"/>
        <path fill="#ADADAD" fill-rule="nonzero" d="M167.175 103.493c2.179-1.26 3.951-.25 3.958 2.26.008 2.51-1.753 5.568-3.932 6.83-2.179 1.26-3.95.247-3.958-2.263-.007-2.51 1.754-5.566 3.932-6.827"/>
        <path fill="#707171" fill-rule="nonzero" d="M114.408 140.177l-.798.462c.32.758.866 1.257 1.559 1.455l1.105-.852c-.813.022-1.475-.354-1.866-1.065"/>
        <path fill="#EAEAE9" fill-rule="nonzero" d="M158.875 95.168c-.76-.443-1.783-.434-2.92.112a6.023 6.023 0 0 0-.404.214l-49.255 28.508c-.35.202-.69.444-1.018.718a9.704 9.704 0 0 0-1.517 1.613c-.872 1.157-1.542 2.525-1.879 3.878a7.73 7.73 0 0 0-.24 2.027 4.64 4.64 0 0 0 .257 1.458c.233.636.614 1.109 1.103 1.393l11.646 6.785c-.489-.285-.87-.757-1.103-1.394a4.624 4.624 0 0 1-.257-1.456 7.723 7.723 0 0 1 .24-2.028c.338-1.353 1.007-2.72 1.88-3.879a9.728 9.728 0 0 1 1.516-1.613 7.221 7.221 0 0 1 1.018-.717l49.255-28.508c.136-.079.272-.15.405-.215 1.137-.545 2.159-.554 2.919-.112l-11.646-6.784z"/>
        <path fill="#666667" fill-rule="nonzero" d="M167.197 102.279l-49.255 28.508c-2.58 1.493-4.664 5.112-4.657 8.084.003.689.118 1.281.324 1.768l.799-.462c-.248-.449-.388-1.03-.39-1.73-.007-2.502 1.755-5.56 3.926-6.816l49.255-28.508c2.045-1.184 3.736-.355 3.932 1.835l.74-.352c-.168-2.713-2.198-3.76-4.674-2.327"/>
        <path fill="#ADADAD" fill-rule="nonzero" d="M116.262 150.32l-.922-.538-.018-11.06.922.537z"/>
        <path fill="#936C29" fill-rule="nonzero" d="M116.243 139.26l-.922-.538.905-.523.921.537z"/>
        <path fill="#666667" fill-rule="nonzero" d="M117.147 138.736l.018 11.06-.903.524-.018-11.06z"/>
        <path fill="#ADADAD" fill-rule="nonzero" d="M129.61 142.103l-.922-.537-.018-11.06.922.537z"/>
        <path fill="#936C29" fill-rule="nonzero" d="M129.592 131.043l-.922-.537.904-.523.922.537z"/>
        <path fill="#666667" fill-rule="nonzero" d="M130.496 130.52l.018 11.06-.904.523-.018-11.06z"/>
        <path fill="#ADADAD" fill-rule="nonzero" d="M140.09 136.206l-.922-.537-.018-11.06.922.536z"/>
        <path fill="#936C29" fill-rule="nonzero" d="M140.072 125.145l-.922-.537.905-.523.921.537z"/>
        <path fill="#666667" fill-rule="nonzero" d="M140.976 124.622l.018 11.06-.904.524-.018-11.06z"/>
        <path fill="#ADADAD" fill-rule="nonzero" d="M151.223 129.983l-.922-.537-.018-11.06.922.537z"/>
        <path fill="#936C29" fill-rule="nonzero" d="M151.205 118.923l-.922-.537.904-.523.921.537z"/>
        <path fill="#666667" fill-rule="nonzero" d="M152.108 118.4l.018 11.06-.903.523-.018-11.06z"/>
        <path fill="#ADADAD" fill-rule="nonzero" d="M161.418 124.141l-.922-.537-.017-11.06.922.537z"/>
        <path fill="#936C29" fill-rule="nonzero" d="M161.4 113.081l-.921-.537.904-.523.921.537z"/>
        <path fill="#666667" fill-rule="nonzero" d="M162.305 112.558l.018 11.06-.904.524-.018-11.061z"/>
        <path fill="#ADADAD" fill-rule="nonzero" d="M171.444 118.097l-.922-.537-.018-11.06.922.537z"/>
        <path fill="#936C29" fill-rule="nonzero" d="M171.426 107.037l-.922-.538.904-.522.922.536z"/>
        <path fill="#666667" fill-rule="nonzero" d="M172.33 106.513l.018 11.06-.904.524-.018-11.06z"/>
        <path fill="#ADADAD" fill-rule="nonzero" d="M113.01 142.48l-1.368-.796-.003-1.459 1.366.796z"/>
        <path fill="#EAEAE9" fill-rule="nonzero" d="M113.005 141.021l-1.366-.796 62.582-36.351 1.367.796z"/>
        <path fill="#666667" fill-rule="nonzero" d="M175.588 104.67l.004 1.459-62.582 36.351-.005-1.459zM118.895 75.726a.574.574 0 0 1-.098.315.962.962 0 0 1-.299.283l-.052.033c-.398.23-.958.306-1.463.23a2.12 2.12 0 0 1-.513-.14 1.547 1.547 0 0 1-.18-.09c-.295-.172-.443-.397-.444-.622l.017 2.843c0 .225.147.45.443.622.056.033.117.063.18.09.157.066.332.114.513.141.505.076 1.065-.001 1.463-.232a.978.978 0 0 0 .352-.315.571.571 0 0 0 .098-.315l-.017-2.843z"/>
        <path fill="#F4901F" fill-rule="nonzero" d="M116.297 75.104c-.598.346-.601.907-.008 1.253.594.345 1.56.345 2.157 0 .597-.346.6-.907.006-1.253-.593-.345-1.558-.345-2.155 0"/>
        <path fill="#666667" fill-rule="nonzero" d="M127.149 79.811a.572.572 0 0 1-.1.316.973.973 0 0 1-.35.315c-.398.23-.958.307-1.463.23a2.127 2.127 0 0 1-.513-.14 1.64 1.64 0 0 1-.18-.09c-.296-.172-.443-.396-.444-.622l.016 2.843c.001.225.148.45.443.622.057.033.118.063.18.09.158.067.333.114.514.14.505.077 1.066 0 1.463-.23a.984.984 0 0 0 .352-.315.57.57 0 0 0 .097-.315l-.015-2.844z"/>
        <path fill="#F4901F" fill-rule="nonzero" d="M124.55 79.19c-.597.345-.601.906-.008 1.252.594.345 1.56.345 2.156 0 .598-.346.6-.906.008-1.252-.594-.346-1.56-.346-2.156 0"/>
        <path fill="#666667" fill-rule="nonzero" d="M135.972 85.077a.571.571 0 0 1-.098.315.975.975 0 0 1-.299.282c-.016.012-.035.022-.053.033-.397.23-.957.307-1.462.23a2.134 2.134 0 0 1-.513-.14 1.64 1.64 0 0 1-.181-.09c-.295-.172-.443-.396-.443-.621l.016 2.842c0 .226.148.45.444.622.056.034.116.063.18.09.157.067.331.114.513.142.505.075 1.065-.002 1.463-.232l.052-.032a.984.984 0 0 0 .3-.283.57.57 0 0 0 .097-.315l-.016-2.843z"/>
        <path fill="#F4901F" fill-rule="nonzero" d="M133.373 84.455c-.597.345-.6.906-.007 1.252s1.56.345 2.156 0c.598-.346.6-.906.007-1.252-.594-.346-1.559-.346-2.156 0"/>
        <path fill="#666667" fill-rule="nonzero" d="M144.225 89.162a.571.571 0 0 1-.098.315.969.969 0 0 1-.352.315c-.397.23-.957.307-1.462.232a2.158 2.158 0 0 1-.514-.142 1.584 1.584 0 0 1-.18-.09c-.295-.171-.442-.396-.443-.621l.016 2.843c.001.225.148.45.443.622.057.033.117.063.18.09.157.067.333.113.514.14.505.076 1.065 0 1.463-.231a.986.986 0 0 0 .352-.315.57.57 0 0 0 .097-.315l-.016-2.843z"/>
        <path fill="#F4901F" fill-rule="nonzero" d="M141.626 88.54c-.597.346-.6.906-.007 1.253.594.345 1.559.345 2.156-.001.598-.346.6-.906.007-1.252-.594-.346-1.559-.346-2.156 0"/>
        <path fill="#666667" fill-rule="nonzero" d="M152.26 94.284a.574.574 0 0 1-.098.315.988.988 0 0 1-.353.315c-.397.23-.957.307-1.462.231a2.135 2.135 0 0 1-.513-.141 1.544 1.544 0 0 1-.18-.09c-.296-.172-.443-.397-.444-.622l.016 2.844c.001.225.149.45.444.622.056.032.117.063.18.09.157.066.332.113.513.14.505.076 1.066 0 1.463-.231a.979.979 0 0 0 .352-.315.569.569 0 0 0 .098-.315l-.016-2.843z"/>
        <path fill="#F4901F" fill-rule="nonzero" d="M149.66 93.662c-.596.345-.6.906-.007 1.252.594.346 1.56.345 2.157 0 .598-.346.6-.906.007-1.252-.594-.346-1.56-.346-2.156 0"/>
        <path fill="#666667" fill-rule="nonzero" d="M160.513 98.37a.574.574 0 0 1-.099.314.982.982 0 0 1-.352.316c-.397.23-.957.306-1.461.23a2.132 2.132 0 0 1-.514-.14 1.64 1.64 0 0 1-.181-.09c-.294-.173-.442-.397-.443-.622l.017 2.843c0 .225.147.45.443.622.057.033.117.063.18.09.157.066.332.114.513.14.505.077 1.066 0 1.463-.23.018-.01.035-.022.052-.033a.972.972 0 0 0 .3-.283.569.569 0 0 0 .097-.315l-.015-2.843z"/>
        <path fill="#F4901F" fill-rule="nonzero" d="M157.913 97.747c-.597.346-.6.906-.006 1.253.593.345 1.558.345 2.156 0 .597-.347.6-.907.007-1.253-.594-.346-1.56-.346-2.157 0"/>
        <path fill="#666667" fill-rule="nonzero" d="M149.818 104.497a.58.58 0 0 1-.099.315.98.98 0 0 1-.351.315c-.397.23-.958.307-1.463.23a2.11 2.11 0 0 1-.513-.14 1.544 1.544 0 0 1-.18-.09c-.295-.172-.443-.397-.444-.621l.017 2.842c0 .225.147.45.443.622.056.033.117.063.18.09.157.067.332.114.513.141.505.076 1.066-.001 1.463-.231l.053-.032a.979.979 0 0 0 .299-.284.573.573 0 0 0 .098-.314l-.016-2.843z"/>
        <path fill="#F4901F" fill-rule="nonzero" d="M147.219 103.875c-.597.345-.601.906-.008 1.252.594.345 1.56.345 2.157 0 .597-.346.6-.907.007-1.252-.594-.346-1.56-.346-2.156 0"/>
        <path fill="#666667" fill-rule="nonzero" d="M139.917 110.036a.58.58 0 0 1-.1.316.98.98 0 0 1-.297.282l-.054.033c-.397.23-.957.307-1.462.23a2.134 2.134 0 0 1-.513-.14 1.64 1.64 0 0 1-.18-.09c-.296-.172-.443-.397-.444-.622l.016 2.843c0 .225.148.45.443.622.057.033.118.063.18.09.158.067.333.114.514.14.505.077 1.066 0 1.463-.23.018-.01.036-.022.052-.033a.979.979 0 0 0 .3-.283.567.567 0 0 0 .097-.314l-.015-2.844z"/>
        <path fill="#F4901F" fill-rule="nonzero" d="M137.317 109.415c-.596.345-.6.906-.007 1.252.594.345 1.56.345 2.156 0 .598-.346.6-.907.008-1.252-.594-.346-1.56-.346-2.157 0"/>
        <path fill="#666667" fill-rule="nonzero" d="M129.222 116.164a.574.574 0 0 1-.099.315.982.982 0 0 1-.298.283l-.053.032c-.398.23-.958.307-1.463.231a2.11 2.11 0 0 1-.513-.141 1.494 1.494 0 0 1-.18-.09c-.295-.171-.444-.397-.444-.621l.016 2.843c.001.225.148.45.444.622.056.032.117.063.18.09.157.066.331.113.513.14.505.076 1.065 0 1.463-.231l.052-.032a.972.972 0 0 0 .3-.283.567.567 0 0 0 .097-.315l-.015-2.843z"/>
        <path fill="#F4901F" fill-rule="nonzero" d="M126.622 115.542c-.597.346-.6.906-.007 1.253.594.345 1.56.345 2.156-.001.598-.346.6-.906.008-1.252-.595-.346-1.56-.346-2.157 0"/>
        <path fill="#666667" fill-rule="nonzero" d="M120.099 120.75a.58.58 0 0 1-.099.315.98.98 0 0 1-.351.314c-.398.23-.958.308-1.463.232a2.096 2.096 0 0 1-.513-.141 1.462 1.462 0 0 1-.18-.09c-.295-.172-.443-.397-.444-.622l.017 2.843c0 .225.147.45.443.622.056.033.117.063.18.09.157.067.332.114.513.141.505.076 1.066-.001 1.463-.231a.981.981 0 0 0 .352-.315.573.573 0 0 0 .098-.315l-.016-2.843z"/>
        <path fill="#F4901F" fill-rule="nonzero" d="M117.5 120.128c-.598.345-.601.906-.008 1.252.594.345 1.56.345 2.157 0 .597-.346.6-.906.007-1.252-.594-.346-1.56-.346-2.156 0"/>
        <path fill="#123155" fill-rule="nonzero" d="M206.697 18.57l1.301-.758-.03 10.479-1.301.758z"/>
        <path fill="#123155" fill-rule="nonzero" d="M204.389 13.19l1.301-.76 3.497 6.07-1.302.758z"/>
        <path fill="#8C969F" fill-rule="nonzero" d="M200.871 15.199l1.302-.759 3.517-2.01-1.301.759z"/>
        <path fill="#EAEAE9" fill-rule="nonzero" d="M204.389 13.19l3.496 6.068-1.189-.688-.029 10.48-4.639-2.685.03-10.479-1.187-.687z"/>
        <g fill-rule="nonzero">
            <path fill="#666667" d="M111.953 105.738l-.012 4.536-5.175 3.015.013-4.536z"/>
            <path fill="#ADADAD" d="M106.779 108.753l-.013 4.536-7.557-4.374.013-4.536z"/>
            <path fill="#EAEAE9" d="M111.953 105.738l-5.174 3.015-7.557-4.374 5.175-3.014z"/>
        </g>
        <path fill="#1F61AD" fill-rule="nonzero" d="M102.383 102.538l-1.07.624 7.556 4.373 1.071-.623z"/>
        <path fill="#1F61AD" fill-rule="nonzero" d="M108.871 107.535l1.069-.624v1.083l-1.069.62z"/>
        <g fill-rule="nonzero">
            <path fill="#666667" d="M105.06 110.135l-.012 4.536-5.175 3.014.013-4.536z"/>
            <path fill="#ADADAD" d="M99.886 113.15l-.012 4.535-7.557-4.373.012-4.536z"/>
            <path fill="#EAEAE9" d="M105.06 110.135l-5.174 3.014-7.557-4.374 5.175-3.014z"/>
        </g>
        <path fill="#1F61AD" fill-rule="nonzero" d="M95.49 106.934l-1.07.624 7.557 4.374 1.07-.624zM101.979 111.931l1.068-.623v1.083l-1.068.619z"/>
        <g fill-rule="nonzero">
            <path fill="#666667" d="M98.132 114.479l-.013 4.536-5.175 3.014.013-4.536z"/>
            <path fill="#ADADAD" d="M92.957 117.494l-.013 4.536-7.556-4.374.012-4.536z"/>
            <path fill="#EAEAE9" d="M98.132 114.479l-5.175 3.014-7.557-4.374 5.175-3.014z"/>
        </g>
        <path fill="#1F61AD" fill-rule="nonzero" d="M88.561 111.278l-1.07.624 7.556 4.374 1.071-.624z"/>
        <path fill="#1F61AD" fill-rule="nonzero" d="M95.05 116.275l1.068-.623v1.083l-1.069.619z"/>
        <g fill-rule="nonzero">
            <path fill="#666667" d="M91.239 118.875l-.013 4.536-5.175 3.014.013-4.536z"/>
            <path fill="#ADADAD" d="M86.064 121.89l-.012 4.536-7.557-4.374.012-4.536z"/>
            <path fill="#EAEAE9" d="M91.239 118.875l-5.175 3.014-7.557-4.373 5.175-3.015z"/>
        </g>
        <path fill="#1F61AD" fill-rule="nonzero" d="M81.669 115.674l-1.071.624 7.557 4.374 1.07-.624zM88.157 120.672l1.068-.624v1.083l-1.068.62z"/>
        <g fill-rule="nonzero">
            <path fill="#666667" d="M108.241 103.064l-.012 4.536-5.175 3.015.012-4.536z"/>
            <path fill="#ADADAD" d="M103.066 106.079l-.012 4.536-7.557-4.374.013-4.536z"/>
            <path fill="#EAEAE9" d="M108.241 103.064l-5.175 3.015-7.556-4.374 5.175-3.015z"/>
        </g>
        <path fill="#1F61AD" fill-rule="nonzero" d="M98.671 99.864l-1.07.623 7.556 4.374 1.07-.624z"/>
        <path fill="#1F61AD" fill-rule="nonzero" d="M105.16 104.86l1.067-.623v1.084l-1.068.618z"/>
        <g fill-rule="nonzero">
            <path fill="#666667" d="M100.07 108.165l-.013 4.535-5.175 3.015.013-4.536z"/>
            <path fill="#ADADAD" d="M94.895 111.18l-.013 4.535-7.556-4.374.012-4.536z"/>
            <path fill="#EAEAE9" d="M100.07 108.165l-5.175 3.014-7.557-4.374 5.175-3.014z"/>
        </g>
        <path fill="#1F61AD" fill-rule="nonzero" d="M90.5 104.964l-1.071.624 7.557 4.373 1.07-.623z"/>
        <path fill="#1F61AD" fill-rule="nonzero" d="M96.988 109.961l1.068-.624v1.084l-1.068.619z"/>
        <g fill-rule="nonzero">
            <path fill="#666667" d="M92.57 112.72l-.013 4.535-5.175 3.015.013-4.536z"/>
            <path fill="#ADADAD" d="M87.395 115.734l-.013 4.536-7.556-4.374.012-4.536z"/>
            <path fill="#EAEAE9" d="M92.57 112.72l-5.175 3.014-7.557-4.373 5.175-3.015z"/>
        </g>
        <path fill="#1F61AD" fill-rule="nonzero" d="M83 109.519l-1.07.623 7.556 4.374 1.07-.623zM89.488 114.516l1.068-.623v1.083l-1.068.619z"/>
        <path fill="#ADADAD" fill-rule="nonzero" d="M145.531 150.74l.024 8.28 9.446 5.503-.023-8.28z"/>
        <path fill="#666667" fill-rule="nonzero" d="M154.978 156.243l.024 8.28 13.793-7.984-.023-8.28z"/>
        <path fill="#EAEAE9" fill-rule="nonzero" d="M145.531 150.74l9.447 5.503 13.795-7.984-9.447-5.503z"/>
        <path fill="#1F61AD" fill-rule="nonzero" d="M163.002 144.897l1.954 1.139-13.794 7.984-1.955-1.138z"/>
        <path fill="#1F61AD" fill-rule="nonzero" d="M151.158 154.02l-1.951-1.139v1.978l1.951 1.129z"/>
        <path fill="#666667" fill-rule="nonzero" d="M68.432 79.304l-.027 9.557-10.904 6.352.027-9.557z"/>
        <path fill="#ADADAD" fill-rule="nonzero" d="M57.528 85.656l-.027 9.558-15.922-9.216.027-9.558z"/>
        <path fill="#EAEAE9" fill-rule="nonzero" d="M68.432 79.304l-10.904 6.352-15.922-9.216 10.903-6.352z"/>
        <path fill="#1F61AD" fill-rule="nonzero" d="M48.267 72.56l-2.257 1.314 15.923 9.216 2.257-1.315zM61.938 83.09l2.252-1.315v2.283l-2.252 1.303z"/>
        <path fill="#123155" fill-rule="nonzero" d="M66.004 117.756h.005v-2.273l-4.214-1.092-9.342-5.407c-1.573-.91-3.952-1.01-5.315-.221l-9.57 5.539-4.465 1.06v2.243c-.004.05-.003.1 0 .15v.036c.045.575.48 1.172 1.295 1.643l12.256 7.094c1.573.91 3.952 1.008 5.315.22l13.122-7.595c.643-.372.94-.874.913-1.397"/>
        <path fill="#EAEAE9" fill-rule="nonzero" d="M65.09 116.76l-13.121 7.595c-1.363.788-3.742.69-5.315-.22l-12.256-7.095c-1.573-.91-1.744-2.287-.382-3.075l13.122-7.595c1.363-.789 3.742-.69 5.315.22l12.256 7.094c1.573.91 1.744 2.287.382 3.076"/>
        <path fill="#123155" fill-rule="nonzero" d="M59.924 114.196c.001-.033.01-.066.01-.1 0-.033-.009-.066-.01-.099v-2.178l-.847-.008c-1.621-2.071-5.378-3.522-9.756-3.522-4.247 0-7.9 1.368-9.597 3.34l-1.015-.01v2.7h.02c.216 3.103 4.869 5.585 10.592 5.585 5.724 0 10.376-2.482 10.591-5.585h.012v-.123z"/>
        <path fill="#F4901F" fill-rule="nonzero" d="M59.933 111.62c0 3.208-4.751 5.808-10.612 5.808-5.86 0-10.612-2.6-10.612-5.808 0-3.207 4.751-5.808 10.612-5.808 5.86 0 10.612 2.6 10.612 5.808"/>
        <path fill="#1F60AC" fill-rule="nonzero" d="M56.594 115.848v2.477c-1.801.93-4.208 1.522-6.862 1.577l-.05-2.477-.362-5.805 7.274 4.228z"/>
        <path fill="#123155" fill-rule="nonzero" d="M234.285 119.453s-1.151-.128-.918 1.178l-14.714-8.559a3.188 3.188 0 0 0-3.039.094l-31.901 18.424c-1.292-.594-2.48-.787-3.012.084-.965 1.58-.316 2.44.23 2.97a1.92 1.92 0 0 0 .526.404l15.298 8.885c.949.476 2.072.44 2.989-.095l34.28-19.819s2.267-1.38.261-3.566"/>
        <path fill="#123155" fill-rule="nonzero" d="M234.285 119.453s-1.151-.128-.918 1.178l-14.714-8.559a3.188 3.188 0 0 0-3.039.094l-31.901 18.424c-1.292-.594-2.48-.787-3.012.084-.965 1.58-.316 2.44.23 2.97a1.92 1.92 0 0 0 .526.404l15.298 8.885c.949.476 2.072.44 2.989-.095l34.28-19.819s2.275-1.318.261-3.566"/>
        <path fill="#123155" fill-rule="nonzero" d="M234.278 119.446s-1.153-.128-.919 1.179l-14.714-8.56a3.19 3.19 0 0 0-3.039.094l-31.9 18.424c-1.292-.593-2.48-.786-3.012.085-.965 1.58-.316 2.439.228 2.97.128.142.293.273.499.388l.028.016 15.298 8.885c.95.476 2.073.44 2.989-.095l34.28-19.82s2.233-1.356.262-3.566"/>
        <path fill="#ADADAD" fill-rule="nonzero" d="M181.187 130.178l34.41-19.873a3.188 3.188 0 0 1 3.039-.094l15.301 8.9c.791.579.944 1.733.07 2.243l-34.28 19.82c-.917.534-2.04.57-2.99.095l-15.297-8.886c-1.098-.655-1.035-1.68-.253-2.205"/>
        <path fill="#666667" fill-rule="nonzero" d="M187.68 134.698l-.018-.01c-.099-.056-.087-.156.026-.221.113-.066.285-.074.382-.018l.02.01c.097.057.085.157-.028.223-.113.065-.284.073-.382.016M191.639 136.971l-3.404-1.953c-.097-.057-.086-.156.027-.222.113-.066.284-.074.383-.018l3.403 1.954c.098.057.086.156-.027.222-.113.065-.284.073-.382.017"/>
        <path fill="#ADADAD" fill-rule="nonzero" d="M207.345 137.508a.218.218 0 0 0-.16.017l-1.69.986a.402.402 0 0 0-.178.243c-.055.189.015.374.155.415a.216.216 0 0 0 .155-.016l.016-.01 1.657-.967a.392.392 0 0 0 .2-.254c.054-.189-.015-.374-.155-.414M209.953 136.02a.217.217 0 0 0-.159.018l-1.69.986a.402.402 0 0 0-.179.243c-.054.189.015.374.155.415a.214.214 0 0 0 .155-.016h.001l.015-.01 1.657-.967a.393.393 0 0 0 .2-.254c.055-.189-.015-.374-.155-.414M204.732 139.034a.217.217 0 0 0-.158.018l-.414.23a.407.407 0 0 0-.178.242c-.054.189.015.375.155.415a.216.216 0 0 0 .155-.016h.002l.014-.01.379-.21a.396.396 0 0 0 .2-.254c.054-.189-.015-.374-.155-.415"/>
        <path fill="#EAEAE9" fill-rule="nonzero" d="M232.139 119.544l-14.201-8.195a2.143 2.143 0 0 0-2.042.063l-32.89 19.015c-.524.351-.567 1.04.17 1.48l2.896 1.67.439-.256c.514-.3 1.294-.333 1.74-.075l6.412 3.696c.446.257.391.708-.124 1.007l-.437.255 3.274 1.887c.637.32 1.391.296 2.007-.063l32.803-18.977a.858.858 0 0 0-.047-1.507"/>
        <path fill="#CECECD" fill-rule="nonzero" d="M215.629 117.648l-3.396-1.797 5.091-2.494 3.395 1.762zM220.094 120.011l-3.396-1.797 5.09-2.54 3.395 1.763zM224.719 122.458l-3.396-1.796 5.088-2.587 3.395 1.762zM208.85 121.013l-3.396-1.797 5.09-2.494 3.395 1.763zM213.314 123.376l-3.395-1.797 5.089-2.54 3.395 1.763zM217.939 125.824l-3.396-1.797 5.089-2.587 3.394 1.763z"/>
        <path fill="#B9B9BA" fill-rule="nonzero" d="M195.477 127.713c1.292-.407 3.456-1.694 4.564-1.971 1.01-.255 1.3.139.784.808-.915 1.183-3.623 3.18-4.448 3.908-2.253 1.991-.612 2.124 1.739.929 1.117-.57 8.034-4.433 9.114-3.714.87.593-1.047 1.942-2.211 3.096-.44.436-.711 1.298.868.914 1.305-.319 5.068-2.236 5.958-2.743l2.086-1.314-10.892-6.774-1.93 1.266-5.99 3.924c-1.881 1.23-1.354 2.205.358 1.67"/>
        <path fill="#B9B9BA" fill-rule="nonzero" d="M213.895 127.626l.072.001-13.883 8.703-.066-.006zM211.8 126.197l.072.002-13.68 8.647-.066-.005zM209.662 124.805l.073.002-13.474 8.59-.066-.005zM207.482 123.45l.074.001-13.266 8.531-.066-.004zM205.263 122.133h.073l-13.055 8.469-.066-.004zM203 120.851h.074l-12.84 8.405-.067-.004z"/>
        <path fill="#B9B9BA" fill-rule="nonzero" d="M212.338 128.63c.012 0 .022.001.03.003.04.013.017.048-.051.078l-8.855 3.922c-.064.028-.146.04-.185.028-.038-.013-.017-.046.047-.074l8.847-3.92a.432.432 0 0 1 .167-.037"/>
        <path fill="#B9B9BA" fill-rule="nonzero" d="M206.838 128.044c.04.001.06.015.043.038l-3.36 4.511c-.021.03-.096.06-.168.07-.07.01-.11-.007-.088-.036l3.35-4.505c.021-.03.098-.064.173-.075a.275.275 0 0 1 .05-.003"/>
        <path fill="#B9B9BA" fill-rule="nonzero" d="M206.838 128.044c.016 0 .031.003.039.008.029.017-.006.052-.078.08l-11.78 4.384c-.065.023-.14.03-.168.013-.026-.017.005-.05.071-.074l11.774-4.384a.406.406 0 0 1 .142-.027"/>
        <path fill="#B9B9BA" fill-rule="nonzero" d="M200.278 126.242c.043.001.062.016.042.04l-5.227 6.191c-.024.029-.098.057-.166.064-.066.007-.101-.011-.077-.04l5.214-6.183c.024-.03.102-.06.173-.07.015-.002.03-.002.041-.002"/>
        <path fill="#B9B9BA" fill-rule="nonzero" d="M200.278 126.242c.028 0 .046.007.05.019.007.023-.049.058-.123.078l-6.941 1.873c-.071.02-.135.017-.143-.006-.007-.022.045-.056.117-.075l6.941-1.875a.361.361 0 0 1 .1-.014"/>
        <path fill="#B9B9BA" fill-rule="nonzero" d="M193.332 128.119c.026.001.044.007.048.018.009.022-.043.056-.115.075l-2.36.632c-.07.019-.134.016-.143-.006-.008-.022.043-.055.113-.073l2.36-.633a.341.341 0 0 1 .097-.013M206.55 127.967c.182-.117.42-.152.53-.077.11.075.05.23-.135.347-.183.116-.42.15-.529.075-.11-.074-.05-.229.133-.345M203.323 132.397c.178-.113.408-.142.511-.065.105.077.043.231-.136.344-.178.112-.408.14-.51.063-.104-.077-.043-.23.135-.342M194.896 132.278c.168-.107.388-.133.492-.059.105.074.054.221-.114.328-.167.107-.387.132-.49.058-.105-.074-.054-.221.112-.327"/>
        <path fill="#B9B9BA" fill-rule="nonzero" d="M193.098 128.015c.164-.108.387-.138.499-.068.11.07.066.214-.1.322-.165.107-.387.137-.498.067-.11-.07-.066-.214.099-.321M199.816 126.281c.174-.112.407-.147.52-.076.112.07.062.22-.113.333-.174.112-.406.146-.518.075-.112-.07-.063-.219.11-.332"/>
        <path fill="#123155" fill-rule="nonzero" d="M99.544 159.065c-.627.363-1.45.544-2.274.544-.824 0-1.646-.18-2.274-.544-.625-.362-.969-.849-.969-1.37 0-.522.344-1.01.97-1.371 1.253-.726 3.293-.726 4.547 0 .625.362.97.849.97 1.37 0 .522-.345 1.01-.97 1.371m5.366-2.123c-.096-.098-.263-.157-.446-.157l-1.226-.005a3.015 3.015 0 0 0-.621-.89l.8-.464c.113-.065.176-.16.176-.262 0-.101.066-1.205-.046-1.27l-1.574.175a.777.777 0 0 0-.716 0l-.874.507a8.932 8.932 0 0 0-1.537-.372l.007-.667a.273.273 0 0 0-.085-.195c-.096-.097-.263-.156-.447-.157l-2.04-.006h-.001c-.299 0-.533.152-.535.347l-.006.671a8.986 8.986 0 0 0-1.595.384l-.87-.503a.78.78 0 0 0-.716 0l-1.576-.167c-.112.064-.043 1.161-.043 1.263 0 .102.065.197.176.262l.8.463a3.056 3.056 0 0 0-.59.832l-1.227-.005h-.004c-.297 0-.53.152-.533.346l-.015 1.18a.268.268 0 0 0 .085.195c.096.098.262.157.446.158l1.225.004c.137.31.277.34.548.617l-.863-.283c-.112.065-.05 1.174-.05 1.276 0 .101.064.197.176.262l1.444.833a.779.779 0 0 0 .716 0l.871-.506c.478.164.992.29 1.529.374l-.006.658c0 .07.029.138.084.194.097.098.264.157.447.158l2.04.006h.002c.298 0 .533-.152.534-.347l.007-.656a9.026 9.026 0 0 0 1.616-.387l.877.508a.78.78 0 0 0 .716 0l1.442-.835c.112-.065.175-.16.175-.262 0-.102.061-1.213-.05-1.278l-.932.55c.255-.262.454-.542.59-.833l1.227.005h.004c.297 0 .532-.152.534-.347l.014-1.18a.271.271 0 0 0-.084-.194"/>
        <path fill="#EAEAE9" fill-rule="nonzero" d="M99.544 157.939c-.627.363-1.45.544-2.274.544-.824 0-1.646-.18-2.274-.544-.625-.362-.969-.848-.969-1.37 0-.523.344-1.01.969-1.371 1.254-.726 3.294-.726 4.548 0 .625.362.97.848.97 1.37 0 .523-.345 1.01-.97 1.371m5.366-2.123c-.096-.098-.263-.157-.446-.157l-1.226-.005a3.03 3.03 0 0 0-.621-.89l.8-.464c.113-.065.176-.16.176-.262 0-.101-.064-.197-.177-.262l-1.443-.833a.777.777 0 0 0-.716 0l-.874.507a8.932 8.932 0 0 0-1.537-.372l.007-.667a.272.272 0 0 0-.085-.195c-.096-.098-.263-.156-.447-.157l-2.04-.006h-.001c-.299 0-.533.152-.535.347l-.006.67a8.944 8.944 0 0 0-1.595.385l-.87-.503a.78.78 0 0 0-.716 0l-1.443.834c-.111.065-.176.16-.176.262 0 .102.065.197.176.262l.8.463a3.056 3.056 0 0 0-.59.832l-1.227-.005h-.004c-.297 0-.53.152-.533.346l-.015 1.18a.268.268 0 0 0 .085.195c.096.098.262.157.446.158l1.225.005c.137.308.343.604.613.88l-.803.467c-.112.064-.175.16-.175.261 0 .102.064.197.176.263l1.444.833a.777.777 0 0 0 .716 0l.871-.506c.478.164.992.29 1.529.374l-.006.658c0 .07.029.138.084.195.097.097.264.156.447.156l2.04.007h.002c.298 0 .533-.152.534-.347l.007-.656a9.026 9.026 0 0 0 1.616-.387l.877.508a.78.78 0 0 0 .716 0l1.442-.835c.111-.065.175-.16.175-.262 0-.102-.064-.197-.175-.262l-.807-.467c.255-.261.454-.541.59-.832l1.227.005h.004c.297 0 .532-.152.534-.346l.014-1.18a.271.271 0 0 0-.084-.195"/>
        <path fill="#FFF" fill-rule="nonzero" d="M118.783 162.628h-6.341a2.096 2.096 0 0 1-2.088-2.093v-2.32c0-1.152.94-2.094 2.088-2.094h6.34c1.15 0 2.09.942 2.09 2.093v2.321c0 1.151-.94 2.093-2.09 2.093"/>
        <path fill="#123155" fill-rule="nonzero" d="M118.855 162.828c-.81.469-1.875.703-2.94.703-1.064 0-2.129-.234-2.939-.703-.808-.468-1.253-1.097-1.253-1.772s.445-1.304 1.253-1.771c1.62-.939 4.258-.939 5.879 0 .807.467 1.252 1.096 1.252 1.771 0 .675-.445 1.304-1.252 1.772m6.936-2.745c-.124-.126-.34-.202-.578-.203l-1.584-.006a3.895 3.895 0 0 0-.803-1.15l1.036-.6c.144-.084.227-.207.227-.338 0-.132.086-1.558-.06-1.642l-2.035.226c-.26-.15-.666-.15-.926 0l-1.128.656a11.565 11.565 0 0 0-1.987-.482l.008-.863a.353.353 0 0 0-.11-.251c-.124-.126-.34-.202-.576-.202l-2.637-.009h-.004c-.384 0-.688.197-.69.448l-.008.868c-.724.108-1.417.275-2.063.497l-1.124-.65c-.26-.151-.666-.151-.925 0l-2.037-.217c-.145.083-.055 1.502-.055 1.634 0 .13.083.254.228.338l1.033.598c-.33.338-.586.699-.762 1.076l-1.587-.007h-.004c-.384 0-.687.197-.69.448l-.02 1.526a.352.352 0 0 0 .11.251c.124.127.34.203.577.204l1.584.006c.177.4.358.439.708.796l-1.116-.365c-.145.084-.064 1.518-.064 1.649 0 .132.083.255.228.338l1.866 1.078c.26.15.667.15.926-.001l1.125-.653c.618.212 1.282.374 1.977.482l-.008.852c-.001.091.037.178.11.252.124.126.34.201.577.202l2.636.008h.003c.385 0 .688-.196.69-.448l.009-.848a11.594 11.594 0 0 0 2.089-.5l1.133.655c.26.15.666.15.926 0l1.864-1.078c.145-.084.227-.207.227-.339 0-.13.078-1.568-.066-1.651l-1.204.71c.33-.339.587-.7.763-1.077l1.586.007h.005c.384 0 .687-.196.69-.447l.019-1.526a.35.35 0 0 0-.109-.252"/>
        <path fill="#F4901F" fill-rule="nonzero" d="M118.855 161.372c-.81.47-1.875.704-2.94.704-1.064 0-2.129-.235-2.939-.704-.808-.468-1.253-1.097-1.253-1.771 0-.675.445-1.304 1.253-1.772 1.62-.938 4.258-.938 5.879 0 .807.468 1.252 1.097 1.252 1.772 0 .674-.445 1.303-1.252 1.771m6.936-2.744c-.124-.127-.34-.203-.578-.204l-1.584-.006a3.9 3.9 0 0 0-.803-1.149l1.036-.6c.144-.084.227-.208.227-.34 0-.13-.083-.254-.228-.338l-1.867-1.076c-.26-.15-.666-.15-.926 0l-1.128.655a11.617 11.617 0 0 0-1.987-.481l.008-.863a.352.352 0 0 0-.11-.252c-.124-.126-.34-.201-.576-.202l-2.637-.008h-.004c-.384 0-.688.196-.69.448l-.008.868c-.724.108-1.417.274-2.063.497l-1.124-.652c-.26-.15-.666-.15-.925 0l-1.864 1.08c-.145.083-.228.206-.228.338 0 .13.083.255.228.339l1.033.597c-.33.339-.586.7-.763 1.077l-1.586-.007h-.004c-.384 0-.688.196-.69.447l-.02 1.526a.353.353 0 0 0 .11.252c.124.126.34.202.577.203l1.584.006c.177.4.443.782.793 1.14l-1.039.602c-.144.084-.226.207-.226.338 0 .132.083.255.228.339l1.866 1.077c.26.15.667.15.926 0l1.125-.653a11.7 11.7 0 0 0 1.977.482l-.008.852c-.001.09.037.178.11.25.124.127.34.203.577.203l2.636.009h.003c.385 0 .688-.197.69-.449l.009-.848a11.641 11.641 0 0 0 2.089-.5l1.133.656c.26.15.666.15.926 0l1.864-1.08c.145-.083.227-.206.227-.338 0-.13-.082-.254-.227-.338l-1.043-.603c.33-.339.587-.7.763-1.076l1.586.006h.005c.384 0 .687-.196.69-.447l.019-1.526a.353.353 0 0 0-.109-.251"/>
        <path fill="#123155" fill-rule="nonzero" d="M207.8 94.423c-.03.012-.058.025-.087.035a1.568 1.568 0 0 1-.239.068l-.014.002a1.686 1.686 0 0 1-.309.032l-.058.001-.083-.002-.067-.004-.07-.008a4.103 4.103 0 0 1-.078-.009l-.065-.01-.084-.016-.057-.013a2.356 2.356 0 0 1-.247-.07l-.046-.015a2.619 2.619 0 0 1-.148-.055h-.001a3.026 3.026 0 0 1-.149-.064l-.047-.022a3.086 3.086 0 0 1-.106-.052l-.053-.028a4.716 4.716 0 0 1-.468-.286l-.019-.013a5.184 5.184 0 0 1-.603-.491l-.033-.03a7.197 7.197 0 0 1-.27-.27l-.021-.023a6.972 6.972 0 0 1-.544-.657 8.151 8.151 0 0 1-.226-.325c-.045-.069-.087-.138-.13-.208-.036-.06-.074-.117-.108-.178-.017-.028-.032-.056-.048-.085a7.883 7.883 0 0 1-.164-.303l-.017-.033a7.648 7.648 0 0 1-.177-.377l-.008-.02a7.602 7.602 0 0 1-.29-.788l-.007-.023a6.127 6.127 0 0 1-.182-.793l-.001-.007a4.77 4.77 0 0 1-.046-.382l-.003-.032a4.478 4.478 0 0 1 .002-.733c0-.011.002-.021.003-.031a3.35 3.35 0 0 1 .044-.304l.008-.04a2.71 2.71 0 0 1 .07-.27l.016-.048c.026-.08.057-.158.09-.232l.01-.025c.04-.084.084-.163.131-.237l.02-.029a1.881 1.881 0 0 1 .176-.221c.04-.042.08-.082.122-.119l.053-.045c.06-.049.122-.093.188-.131l-1.263.735a1.443 1.443 0 0 0-.188.132l-.053.045a1.603 1.603 0 0 0-.122.118l-.05.055a1.987 1.987 0 0 0-.126.167l-.02.028c0 .003-.002.004-.004.006-.044.07-.086.145-.123.223l-.003.008-.011.026c-.022.05-.044.1-.064.152l-.026.08-.016.048-.014.043c-.016.054-.031.11-.043.166-.006.02-.009.041-.013.062l-.008.039-.011.059c-.01.05-.017.103-.024.156l-.01.088-.002.031-.004.038a3.308 3.308 0 0 0-.013.31v.01a4.29 4.29 0 0 0 .01.304c0 .024.003.048.005.072l.002.032a5.12 5.12 0 0 0 .022.214c.007.055.015.11.024.164v.004l.001.006a4.883 4.883 0 0 0 .062.324l.013.06.008.036.018.075a9.81 9.81 0 0 0 .082.299l.007.023.006.023.054.168.057.166.012.03a.186.186 0 0 1 .01.025c.013.035.025.07.039.104.02.053.041.106.063.158l.049.114.008.02.01.021a6.907 6.907 0 0 0 .155.33l.012.026.017.033.07.136c.03.056.063.112.094.167.016.029.031.057.048.085l.019.034c.028.049.06.096.09.144.042.07.084.14.13.207l.02.034a7.049 7.049 0 0 0 .35.484l.121.15.003.003.002.002a6.2 6.2 0 0 0 .273.31l.022.023.09.094.136.136.044.04.031.03.068.063c.048.043.095.085.144.126l.065.053.032.026.048.04a5.293 5.293 0 0 0 .266.197l.018.012a5.339 5.339 0 0 0 .275.176l.032.019.103.058.04.02a.98.98 0 0 0 .053.028l.04.02c.023.012.044.021.066.031l.047.023.02.009a3.139 3.139 0 0 0 .261.105l.016.005.047.015a1.542 1.542 0 0 0 .1.031l.057.016.044.012.046.01.057.014.03.006.054.01.066.01.023.004.054.005c.024.003.047.006.07.007l.021.003.047.001.082.003h.023l.036-.001c.034 0 .068-.002.102-.005l.03-.001c.009 0 .015-.002.023-.004.052-.005.103-.012.153-.022.004 0 .008 0 .012-.002h.002c.071-.014.14-.034.207-.057l.017-.005.015-.006c.03-.01.058-.023.087-.035.013-.006.027-.011.04-.018.042-.019.083-.04.122-.063l1.263-.736a1.39 1.39 0 0 1-.122.063c-.013.007-.027.012-.04.018"/>
        <path fill="#123155" fill-rule="nonzero" d="M208.91 92.254l-1.264.735 2.217 1.284c0 .101-.003.2-.007.298l-.005.08a5.534 5.534 0 0 1-.015.2c-.002.038-.007.075-.01.111a6.677 6.677 0 0 1-.039.282c-.007.051-.016.1-.025.15a7.541 7.541 0 0 1-.056.26l-.039.147a3.39 3.39 0 0 1-.089.283l-.034.095a3.892 3.892 0 0 1-.221.482l-.03.05a2.75 2.75 0 0 1-.26.387l-.045.054c-.06.072-.121.14-.186.205l-.02.021a2.838 2.838 0 0 1-.52.397l1.263-.737a2.466 2.466 0 0 0 .298-.204c.076-.06.15-.123.221-.192l.02-.02a2.834 2.834 0 0 0 .231-.26c.063-.08.123-.162.179-.25l.008-.01.074-.126.03-.051c.036-.065.07-.13.102-.2l.002-.003c.042-.09.08-.183.117-.278l.012-.03c.008-.02.015-.045.022-.067.02-.055.039-.11.056-.168l.017-.051c.006-.02.01-.042.017-.063l.038-.148c.006-.023.012-.043.017-.067l.013-.063.026-.13.014-.073c.005-.024.008-.05.011-.075.007-.039.013-.077.018-.117l.01-.066.01-.099.011-.112.006-.05c.004-.048.006-.098.009-.148l.005-.082.002-.023c.003-.085.005-.172.005-.26v-.015l-2.217-1.283zM200.81 84.306a2.535 2.535 0 0 1 .263-.099l.077-.025a2.84 2.84 0 0 1 .14-.035l.067-.015.04-.007c.08-.015.163-.027.247-.036l.089-.008c.057-.005.116-.007.175-.008l.094-.002c.047 0 .096.002.144.004l.109.006c.039.003.077.008.116.012.043.004.087.009.13.015a7.245 7.245 0 0 1 .25.044l.095.021a3.955 3.955 0 0 1 .247.064c.054.015.109.033.163.05l.083.027c.07.025.142.05.215.08l.032.012c.082.032.165.068.249.107.025.01.049.023.073.034.06.028.121.058.182.089l.087.045c.08.042.158.084.238.13.052.03.103.063.154.094l.104.064.126.082.108.071.12.085.115.082c.073.053.146.108.217.165l-.39 2.294 1.263-.736.39-2.294a14.594 14.594 0 0 0-.2-.153l-.017-.012-.117-.083-.1-.072a.468.468 0 0 0-.018-.011l-.109-.072-.104-.07-.021-.012a5.116 5.116 0 0 0-.104-.064l-.102-.063a10.653 10.653 0 0 0-.223-.126l-.067-.035-.087-.045c-.022-.01-.044-.023-.065-.033a7.11 7.11 0 0 0-.117-.056c-.024-.01-.049-.023-.073-.034-.01-.004-.019-.01-.028-.013a5.745 5.745 0 0 0-.216-.092l-.006-.002-.031-.012a7.305 7.305 0 0 0-.181-.068l-.035-.012c-.027-.01-.055-.018-.082-.027-.033-.01-.067-.023-.1-.032-.02-.007-.042-.012-.063-.018-.031-.01-.063-.018-.095-.026l-.067-.019c-.028-.007-.056-.012-.085-.018a3.203 3.203 0 0 0-.094-.022l-.044-.01-.098-.016a8.612 8.612 0 0 0-.108-.018c-.01 0-.022-.004-.032-.005l-.1-.01-.115-.012a.413.413 0 0 0-.028-.003c-.027-.001-.054 0-.081-.002-.049-.003-.097-.005-.144-.005-.01 0-.022-.002-.034-.001l-.06.003a3.528 3.528 0 0 0-.175.008c-.017.001-.033 0-.049.003-.014 0-.026.004-.04.005-.083.01-.166.021-.247.036-.01.002-.02.002-.03.005l-.01.002c-.022.004-.044.01-.066.016-.048.01-.094.022-.14.035-.027.007-.052.016-.078.024-.03.01-.062.018-.092.03a2.826 2.826 0 0 0-.171.07 2.377 2.377 0 0 0-.276.138l-1.263.735c.067-.04.135-.075.205-.108l.071-.03"/>
        <path fill="#123155" fill-rule="nonzero" d="M209.057 90.494l.03.073a13.576 13.576 0 0 1 .173.461c.046.127.088.255.129.382l.021.068c.042.134.08.269.116.403l.024.09c.033.13.065.259.094.388l.006.026c.03.135.055.27.078.403l.016.086c.023.138.043.274.059.41l1.263-.736a9.455 9.455 0 0 0-.045-.325l-.015-.085a2.498 2.498 0 0 0-.015-.086 11.2 11.2 0 0 0-.078-.404l-.005-.024a10.68 10.68 0 0 0-.06-.258l-.035-.131-.023-.09-.02-.073a12.134 12.134 0 0 0-.085-.291l-.012-.039a9.618 9.618 0 0 0-.15-.45l-.017-.051a14.636 14.636 0 0 0-.11-.297l-.046-.113-.03-.073-.03-.077-.111-.259-.03-.064a6.601 6.601 0 0 0-.091-.2 12.301 12.301 0 0 0-.132-.275l-.007-.014a15.838 15.838 0 0 0-.158-.308l-.04-.072c-.04-.076-.084-.151-.126-.227l-.083-.15-.045-.075-.105-.173a13.475 13.475 0 0 0-.263-.413l-.073-.112c-.023-.035-.048-.067-.072-.102a9.577 9.577 0 0 0-.164-.232c-.025-.034-.048-.07-.072-.103l-.092-.12a8.12 8.12 0 0 0-.084-.11l-.054-.07a11.692 11.692 0 0 0-.21-.26l-.007-.01-.023-.026-.177-.208-.091-.1a7.966 7.966 0 0 0-.122-.136 11.144 11.144 0 0 0-.25-.262l-1.263.736c.104.104.205.213.305.323l.067.074c.09.101.18.203.268.308.007.01.015.018.023.027a13.493 13.493 0 0 1 .829 1.119l.11.171c.052.08.102.16.152.242l.104.172c.045.075.087.15.13.226.042.076.084.15.125.227a12.141 12.141 0 0 1 .397.798l.032.071c.06.133.116.266.17.4"/>
        <path fill="#EAEAE9" fill-rule="nonzero" d="M204.415 84.812c.316.183.633.398.944.642l-.39 2.293c-.182-.14-.37-.27-.562-.381-1.793-1.038-3.253-.203-3.258 1.863-.006 2.067 1.443 4.583 3.237 5.621 1.795 1.04 3.254.206 3.26-1.86l2.217 1.283c-.01 3.454-2.486 4.869-5.483 3.133-3-1.736-5.458-6.006-5.449-9.46.01-3.455 2.485-4.87 5.484-3.134"/>
        <path fill="#ADADAD" fill-rule="nonzero" d="M206.345 86.335c.906.92 1.704 2.048 2.31 3.27.608 1.22 1.005 2.49 1.148 3.678l-2.192-.882c-.175-1.454-.977-3.033-2.055-4.13l.789-1.936z"/>
    </g>
</svg>
