<svg xmlns="http://www.w3.org/2000/svg" xmlns:xlink="http://www.w3.org/1999/xlink" width="220" height="171" viewBox="0 0 220 171">
    <defs>
        <path id="a" d="M0 .327h4.442v1.655H0z"/>
        <path id="c" d="M0 .01h4.443v2.56H0z"/>
        <path id="e" d="M.22.418h42.029v24.143H.219z"/>
    </defs>
    <g fill="none" fill-rule="evenodd">
        <path stroke="#1760AB" d="M111.655 107.09L75.612 87.786M94.102 117.55l23.927-14.257V82.955"/>
        <path stroke="#123155" d="M149.147 125.384l22.82 12.931M67.206 135.602l-12.1 6.252-41.354-24.218 11.672-5.982"/>
        <path fill="#123155" fill-rule="nonzero" d="M84.811 82.897v-2.813l-.779-.432c-.22 1.327-1.785 2.202-3.094 2.384l-8.913 5.202-3.889 1.402-12.415-6.395.287-.165c-1.062-.495-1.633-1.627-2.207-2.66l-.836.498-.497.14v2.885c0 .55.365 1.102 1.093 1.521L66 91.633c1.456.839 3.826.84 5.282 0l12.438-7.169c.717-.412 1.08-.952 1.092-1.495l-.001-.072h.001z"/>
        <path fill="#123155" fill-rule="nonzero" d="M80.938 82.036l-8.913 5.203-3.385 1.22v3.803c.956 0 1.914-.21 2.641-.63l12.438-7.167c.717-.413 1.08-.953 1.092-1.496l-.001-.072h.001v-2.812l-.711-.396h-.076c-.242 1.306-1.79 2.167-3.086 2.347"/>
        <path fill="#A0A0A0" fill-rule="nonzero" d="M56.008 82.08l11.786-6.793c.466-.269 1.225-.269 1.692 0l11.58 6.674-.128.075c1.309-.182 2.874-1.057 3.094-2.384l-12.997-7.216-3.781-.998-3.08 1.807-10.373 6.176c.574 1.032 1.145 2.164 2.207 2.659"/>
        <path fill="#A0A0A0" fill-rule="nonzero" d="M68.64 71.804l-1.386-.366-3.08 1.807-10.373 6.175c.574 1.033 1.145 2.165 2.206 2.66l11.787-6.793c.233-.135.54-.202.846-.202v-3.28z"/>
        <path fill="#123155" fill-rule="nonzero" d="M69.485 72.429c-.466-.269-1.225-.269-1.691 0l-12.438 7.168c-.466.269-.466.706 0 .975l12.438 7.168c.467.269 1.226.269 1.692 0l12.438-7.168c.466-.269.466-.706 0-.975L69.485 72.43zM66 88.775l-12.438-7.168c-1.457-.84-1.457-2.205 0-3.045l12.438-7.168c1.456-.84 3.825-.84 5.282 0l12.438 7.168c1.456.84 1.456 2.205 0 3.045l-12.438 7.168c-1.456.84-3.825.84-5.282 0z"/>
        <path fill="#CECECD" fill-rule="nonzero" d="M81.924 79.597L69.485 72.43c-.466-.269-1.225-.269-1.691 0l-12.438 7.168c-.31.18-.413.433-.309.662a.718.718 0 0 1 .31-.312l12.437-7.168c.466-.268 1.225-.268 1.691 0l12.439 7.169a.72.72 0 0 1 .31.312c.103-.23.001-.484-.31-.663"/>
        <path fill="#CECECD" fill-rule="nonzero" d="M83.72 81.607L71.28 88.775c-1.456.839-3.825.839-5.282 0l-12.438-7.168c-.651-.376-1.01-.856-1.08-1.347-.085.607.274 1.233 1.08 1.697l12.438 7.168c1.457.84 3.826.84 5.282 0l12.438-7.168c.806-.464 1.165-1.09 1.08-1.697-.07.491-.428.971-1.08 1.347"/>
        <path fill="#CECECD" fill-rule="nonzero" d="M69.837 72.226c-.66-.38-1.734-.38-2.394 0l-12.438 7.168c-.66.38-.66 1 0 1.38l12.438 7.169c.66.38 1.734.38 2.394 0l12.438-7.168c.66-.381.66-1 0-1.38l-12.438-7.169zM66.35 88.572l-12.438-7.168c-1.263-.728-1.263-1.912 0-2.64l12.438-7.167c1.263-.728 3.317-.728 4.58 0l12.438 7.168c1.262.728 1.263 1.911 0 2.64l-12.437 7.167c-1.264.728-3.318.728-4.58 0z"/>
        <path stroke="#1760AB" d="M68.025 63.924l.061-62.514L187.22 67.922v59.474l-49.229 29.808-95.204-54.156"/>
        <path fill="#123155" fill-rule="nonzero" d="M183.932 133.932s-.665-.074-.53.677l-8.488-4.917a1.847 1.847 0 0 0-1.754.054l-18.404 10.583c-.745-.34-1.43-.451-1.737.049-.558.907-.183 1.4.132 1.706a1.108 1.108 0 0 0 .303.232l8.826 5.104a1.819 1.819 0 0 0 1.724-.055l19.777-11.385s1.308-.792.15-2.048"/>
        <path fill="#123155" fill-rule="nonzero" d="M183.932 133.932s-.665-.074-.53.677l-8.488-4.917a1.847 1.847 0 0 0-1.754.054l-18.404 10.583c-.745-.34-1.43-.451-1.737.049-.558.907-.183 1.4.132 1.706a1.108 1.108 0 0 0 .303.232l8.826 5.104a1.819 1.819 0 0 0 1.724-.055l19.777-11.385s1.312-.757.15-2.048"/>
        <path fill="#123155" fill-rule="nonzero" d="M183.927 133.928s-.664-.074-.53.677l-8.488-4.917a1.847 1.847 0 0 0-1.753.054l-18.405 10.584c-.745-.341-1.43-.452-1.737.048-.557.908-.182 1.4.132 1.706.074.082.169.157.288.223l.016.01 8.826 5.103a1.817 1.817 0 0 0 1.723-.054l19.777-11.385s1.288-.78.151-2.05"/>
        <path fill="#ADADAD" fill-rule="nonzero" d="M153.298 140.093l19.852-11.417a1.847 1.847 0 0 1 1.753-.053l8.828 5.113c.456.332.544.995.04 1.288l-19.777 11.385a1.819 1.819 0 0 1-1.724.055l-8.825-5.105c-.634-.376-.597-.965-.147-1.266"/>
        <path fill="#666667" fill-rule="nonzero" d="M157.045 142.69l-.011-.007c-.057-.032-.05-.089.015-.127.065-.037.164-.042.22-.01l.011.006c.057.033.05.09-.015.127-.065.038-.164.043-.22.01M159.328 143.995l-1.963-1.122c-.057-.033-.05-.09.016-.127.065-.038.164-.043.22-.01l1.963 1.122c.057.032.05.09-.015.127-.065.038-.164.042-.22.01"/>
        <path fill="#ADADAD" fill-rule="nonzero" d="M168.39 144.303a.126.126 0 0 0-.092.01l-.976.566a.233.233 0 0 0-.103.14c-.031.108.009.215.09.238.029.01.06.005.089-.009l.01-.005.955-.556a.225.225 0 0 0 .116-.146c.031-.108-.01-.215-.09-.238M169.894 143.449a.126.126 0 0 0-.091.01l-.976.566a.232.232 0 0 0-.103.14c-.031.108.009.215.09.238.029.009.06.005.089-.01v.001l.01-.005.955-.556a.225.225 0 0 0 .116-.146c.03-.108-.01-.215-.09-.238M166.882 145.18a.127.127 0 0 0-.092.01l-.238.132a.233.233 0 0 0-.103.14c-.031.108.009.215.09.238.03.008.06.004.09-.01v.001l.009-.006.218-.12v-.001a.227.227 0 0 0 .116-.146c.03-.108-.01-.215-.09-.238"/>
        <path fill="#EAEAE9" fill-rule="nonzero" d="M182.693 133.984l-8.193-4.707a1.24 1.24 0 0 0-1.177.036l-18.974 10.922c-.303.202-.328.598.097.851l1.67.958.254-.146c.297-.172.746-.191 1.005-.043l3.698 2.123c.258.148.226.407-.071.579l-.253.146 1.89 1.084c.366.184.802.17 1.157-.036l18.924-10.902a.492.492 0 0 0-.027-.865"/>
        <path fill="#CECECD" fill-rule="nonzero" d="M173.169 132.895l-1.96-1.033 2.937-1.432 1.959 1.012zM175.744 134.252l-1.959-1.032 2.936-1.459 1.96 1.013zM178.413 135.658l-1.96-1.032 2.936-1.486 1.958 1.013zM172.13 139.623l-5.605 3.23c-.581.336-1.598.294-2.27-.093l-5.235-3.017c-.671-.388-.744-.973-.163-1.309l5.605-3.23c.582-.335 1.598-.293 2.27.094l5.235 3.017c.672.387.745.973.163 1.308"/>
        <path fill="#A0A0A0" fill-rule="nonzero" d="M165.127 136.357l4.852 2.735c.213.122.182.335-.07.476l-3.169 1.77c-.252.14-.627.157-.837.035l-4.777-2.735c-.214-.121-.188-.334.06-.475l3.1-1.77c.247-.142.623-.157.841-.036"/>
        <path fill="#CECECD" fill-rule="nonzero" d="M166.237 141.455l-.692-2.59-4.56-.465 4.906.334z"/>
        <path fill="#CECECD" fill-rule="nonzero" d="M165.177 138.72l-.392-.032-.044-2.413zM165.884 139.087l4.21.269-4.207-.134z"/>
        <path fill="#123155" fill-rule="nonzero" d="M216.49 131.117l-81.126-49.2c-.745-.428-1.35-1.578-1.35-2.57l-1.826-67.74c0-.992 2.374-2.746 3.118-2.318l82.91 47.677c.744.428 1.349 1.578 1.35 2.569l.054 69.04c.001.991-2.385 2.97-3.13 2.542"/>
        <path fill="#EAEAE9" fill-rule="nonzero" d="M216.49 131.117l-82.91-47.676c-.745-.429-1.35-1.579-1.35-2.57l-.055-69.04c0-.99.602-1.446 1.347-1.018l82.91 47.677c.744.428 1.35 1.578 1.35 2.569l.055 69.04c0 .99-.602 1.447-1.347 1.018"/>
        <path fill="#F4901F" fill-rule="nonzero" d="M139.849 61.391l-2.363-1.645c-.163-.113-.295-.401-.294-.643 0-.242.133-.346.295-.233l2.364 1.644c.163.114.294.402.294.644 0 .243-.133.347-.296.233M141.491 62.536l-.674-.47c-.164-.114-.295-.402-.295-.645 0-.242.134-.346.296-.233l.676.47c.163.114.294.403.294.646 0 .242-.133.346-.297.232M146.533 66.059l-4.034-2.82c-.163-.114-.295-.402-.294-.645 0-.242.133-.347.296-.233l4.034 2.819c.163.114.294.403.294.646-.001.243-.133.347-.296.233M138.625 62.03l-1.233-.857c-.163-.114-.294-.402-.293-.644 0-.242.132-.346.295-.233l1.233.859c.163.113.295.401.294.644 0 .241-.133.345-.296.232M141.956 64.354l-2.363-1.649c-.163-.114-.295-.402-.295-.644s.134-.346.296-.232l2.363 1.647c.164.114.295.403.295.645 0 .243-.133.347-.296.233M146.99 67.876l-4.033-2.823c-.164-.114-.295-.403-.295-.645 0-.243.134-.347.297-.233l4.033 2.822c.163.114.295.404.294.647 0 .243-.133.347-.296.232M141.537 65.589l-4.033-2.815c-.163-.113-.295-.401-.295-.643s.134-.346.297-.233l4.033 2.813c.164.114.295.403.294.646 0 .242-.133.346-.296.232M142.605 66.336l-.13-.091c-.162-.114-.294-.403-.293-.645 0-.243.132-.347.295-.233l.13.09c.164.115.295.404.294.646 0 .243-.132.347-.296.233M144.818 67.884l-1.233-.863c-.163-.114-.295-.403-.294-.646 0-.242.133-.346.296-.232l1.233.862c.163.114.294.403.293.646 0 .243-.132.347-.295.233M148.148 70.22l-2.362-1.658c-.164-.115-.296-.404-.295-.647 0-.242.134-.346.296-.232l2.363 1.657c.163.114.295.404.295.647-.001.243-.134.347-.297.233"/>
        <path fill="#1760AB" fill-rule="nonzero" d="M138.606 69.874l-1.233-.862c-.163-.113-.294-.402-.293-.644 0-.242.132-.345.295-.231l1.233.861c.163.114.295.403.294.645 0 .242-.133.345-.296.231M141.937 72.208l-2.363-1.656c-.163-.114-.295-.403-.295-.645s.134-.346.297-.232l2.363 1.656c.163.114.294.403.294.645 0 .243-.133.347-.296.232M146.971 75.747l-4.033-2.836c-.163-.115-.295-.404-.295-.646 0-.243.134-.346.297-.232l4.033 2.835c.163.114.295.404.295.648 0 .242-.134.346-.297.231M149.206 77.322l-1.233-.87c-.163-.114-.294-.404-.294-.647s.133-.347.296-.232l1.232.869c.164.114.295.405.295.648s-.133.347-.296.232M141.539 73.456l-4.034-2.828c-.163-.114-.295-.402-.295-.644s.134-.345.297-.231l4.033 2.825c.164.115.295.404.295.647 0 .241-.133.345-.296.23M142.607 74.206l-.13-.091c-.163-.115-.295-.404-.294-.646 0-.243.133-.347.296-.232l.13.091c.163.115.294.404.294.647 0 .242-.133.346-.296.231M144.819 75.762l-1.233-.867c-.163-.115-.294-.404-.294-.647 0-.242.133-.346.296-.232l1.233.867c.163.115.294.404.294.647s-.133.346-.296.232M148.15 78.108l-2.363-1.665c-.163-.115-.295-.405-.295-.648 0-.242.133-.346.296-.231l2.364 1.664c.163.116.294.405.293.649 0 .242-.132.346-.295.231M153.207 81.683l-4.033-2.852c-.163-.115-.295-.405-.295-.648s.134-.347.297-.232l4.033 2.85c.163.116.295.407.295.65 0 .244-.133.348-.297.232M139.798 73.732l-2.362-1.656c-.164-.114-.296-.403-.295-.645 0-.241.133-.345.296-.23l2.364 1.655c.163.114.294.403.293.645 0 .242-.132.346-.296.231M141.441 74.886l-.675-.474c-.163-.115-.295-.404-.294-.646 0-.242.133-.346.296-.231l.675.474c.164.114.295.404.294.646 0 .242-.133.346-.296.231M146.482 78.434l-4.033-2.84c-.164-.115-.295-.404-.295-.646 0-.243.133-.346.297-.232l4.033 2.839c.163.115.295.405.295.648-.001.243-.134.346-.297.231M147.55 79.188l-.13-.092c-.162-.115-.294-.405-.294-.648s.134-.346.297-.231l.13.091c.162.116.294.406.294.649 0 .242-.133.346-.297.23M138.575 74.366l-1.233-.864c-.163-.114-.295-.403-.294-.645 0-.242.133-.345.296-.231l1.233.864c.163.114.294.403.294.645-.001.242-.133.345-.296.231M141.905 76.706l-2.362-1.66c-.164-.115-.296-.404-.295-.646 0-.243.133-.346.296-.232l2.363 1.66c.163.115.295.404.294.647 0 .242-.133.345-.296.23M146.94 80.254l-4.034-2.844c-.163-.115-.295-.404-.294-.646 0-.243.133-.346.296-.232l4.034 2.843c.163.115.294.405.294.648-.001.243-.133.346-.296.231M149.762 80.75l-1.232-.87c-.163-.115-.295-.406-.294-.649 0-.243.133-.347.296-.231l1.232.87c.163.115.295.406.295.65 0 .242-.133.346-.297.23M153.093 83.108l-2.363-1.673c-.163-.116-.295-.406-.294-.65 0-.242.133-.346.296-.23l2.363 1.671c.163.116.295.407.294.65 0 .244-.133.348-.296.232M149.174 81.833l-1.232-.871c-.164-.115-.295-.406-.294-.649 0-.243.133-.346.296-.23l1.232.87c.163.115.295.405.294.649 0 .243-.133.346-.296.23M152.505 84.191l-2.363-1.674c-.163-.115-.295-.406-.294-.649 0-.242.133-.346.295-.23l2.364 1.672c.163.116.294.407.294.65 0 .243-.133.347-.296.231M141.482 77.935l-4.033-2.834c-.163-.115-.296-.403-.295-.645 0-.242.134-.345.297-.231l4.033 2.833c.163.115.295.405.294.647 0 .242-.133.345-.296.23M142.55 78.687l-.13-.09c-.162-.116-.294-.405-.293-.647 0-.243.132-.346.296-.232l.13.092c.163.115.294.404.293.647 0 .242-.132.346-.295.23M144.763 80.247l-1.233-.87c-.163-.114-.295-.404-.294-.646 0-.243.133-.346.296-.231l1.233.869c.163.115.294.405.293.647 0 .243-.132.346-.295.231M148.093 82.6l-2.362-1.67c-.163-.115-.296-.405-.295-.647 0-.243.133-.347.296-.232l2.363 1.669c.163.116.295.406.294.649 0 .242-.133.346-.296.23M153.151 86.184l-4.033-2.86c-.163-.115-.295-.405-.295-.648s.133-.347.297-.231l4.033 2.857c.163.117.295.408.294.651 0 .243-.133.347-.296.231"/>
        <path fill="#F4901F" fill-rule="nonzero" d="M200.743 55.426l-2.363-1.674c-.163-.115-.295-.41-.294-.658 0-.248.133-.355.295-.24l2.364 1.674c.163.115.294.41.294.658 0 .248-.133.356-.296.24M202.386 56.592l-.675-.48c-.163-.115-.295-.41-.295-.658 0-.248.133-.356.297-.24l.674.479c.164.115.295.41.295.659 0 .249-.133.356-.296.24M207.427 60.178l-4.034-2.87c-.163-.117-.295-.411-.294-.66 0-.248.133-.356.296-.24l4.034 2.869c.163.116.295.412.294.66 0 .25-.133.357-.296.24M208.495 60.94l-.13-.093c-.163-.116-.295-.412-.294-.661 0-.25.133-.357.296-.24l.13.092c.163.116.295.412.294.661 0 .25-.133.357-.296.24M199.52 56.088l-1.234-.873c-.163-.116-.294-.41-.294-.658.001-.249.133-.355.296-.24l1.233.873c.163.115.295.41.294.658 0 .248-.133.356-.296.24M202.85 58.453l-2.363-1.679c-.163-.115-.295-.41-.295-.659 0-.248.134-.355.296-.24l2.364 1.678c.163.116.294.411.294.66 0 .248-.133.356-.296.24M207.884 62.038l-4.034-2.873c-.163-.117-.294-.412-.294-.66 0-.25.133-.356.297-.24l4.033 2.872c.163.116.295.412.294.661 0 .25-.133.357-.296.24M210.707 62.518l-1.233-.88c-.163-.116-.294-.412-.294-.661 0-.25.133-.357.297-.24l1.232.879c.163.116.295.413.294.662 0 .25-.133.357-.296.24M214.037 64.9l-2.362-1.69c-.163-.116-.295-.413-.295-.662.001-.25.134-.357.296-.24l2.363 1.69c.164.116.295.413.295.662 0 .25-.133.358-.297.24M210.118 63.634l-1.232-.88c-.163-.117-.294-.413-.294-.662 0-.25.133-.357.296-.24l1.232.88c.163.116.295.413.295.662 0 .249-.133.356-.297.24M213.449 66.017l-2.363-1.691c-.163-.117-.295-.413-.294-.662 0-.25.133-.357.296-.24l2.363 1.69c.163.117.295.413.294.663 0 .25-.133.357-.296.24M202.431 59.72l-4.033-2.864c-.163-.116-.295-.41-.295-.658 0-.248.134-.356.297-.24l4.033 2.863c.163.116.295.411.294.66 0 .248-.133.356-.296.24M203.5 60.48l-.13-.091c-.163-.117-.295-.412-.294-.66 0-.25.132-.356.295-.24l.13.092c.164.116.295.411.295.66 0 .248-.134.356-.297.24M205.711 62.057l-1.232-.879c-.163-.116-.295-.412-.294-.66 0-.249.133-.356.296-.24l1.233.878c.163.117.294.412.294.66 0 .25-.133.357-.297.24M209.042 64.434l-2.363-1.687c-.163-.117-.294-.413-.294-.661 0-.25.133-.356.296-.24l2.363 1.687c.163.116.295.412.294.661 0 .25-.133.357-.296.24M214.1 68.056l-4.033-2.89c-.163-.116-.295-.412-.295-.662.001-.249.134-.356.297-.24l4.034 2.889c.163.117.294.414.293.663 0 .25-.132.357-.296.24M201.371 60.486l-.13-.092c-.162-.116-.294-.411-.294-.66 0-.248.133-.355.296-.24l.13.093c.163.116.295.411.294.66 0 .248-.133.355-.296.239M203.583 62.06l-1.232-.877c-.164-.116-.295-.411-.294-.66 0-.248.132-.355.295-.24l1.233.878c.163.116.295.411.294.66 0 .249-.133.356-.296.24M206.914 64.437l-2.363-1.686c-.163-.117-.295-.413-.295-.661 0-.249.134-.356.297-.24l2.363 1.686c.163.116.294.412.294.66 0 .25-.133.357-.296.24M208.625 65.66l-.675-.483c-.163-.116-.295-.413-.294-.662 0-.249.133-.356.296-.24l.675.483c.163.117.295.413.294.662 0 .25-.133.356-.296.24M212.028 68.096l-2.364-1.693c-.163-.116-.294-.413-.294-.662 0-.25.133-.356.296-.24l2.363 1.692c.164.117.295.414.294.663 0 .25-.132.357-.295.24M199.535 60.632l-1.232-.876c-.163-.116-.295-.41-.294-.659 0-.247.133-.355.296-.24l1.232.876c.164.116.295.411.294.66 0 .248-.132.355-.296.239M202.866 63.002l-2.362-1.682c-.164-.116-.296-.411-.295-.66 0-.248.133-.355.296-.239l2.363 1.682c.163.116.295.411.294.66 0 .248-.133.356-.296.24M207.9 66.597l-4.033-2.88c-.163-.117-.295-.413-.294-.662 0-.248.133-.355.296-.239l4.034 2.88c.163.117.294.413.294.662-.001.249-.133.356-.296.239M210.135 68.197l-1.233-.883c-.163-.117-.294-.413-.294-.662.001-.25.133-.356.296-.24l1.233.883c.163.116.295.413.294.662 0 .25-.133.357-.296.24M202.467 64.284l-4.033-2.872c-.163-.116-.295-.411-.294-.66 0-.247.133-.354.296-.238l4.034 2.87c.163.117.294.412.294.66 0 .25-.133.356-.297.24M203.536 65.046l-.13-.093c-.162-.116-.295-.412-.294-.66 0-.248.133-.356.296-.24l.13.093c.163.117.295.412.294.66 0 .25-.133.356-.296.24M205.748 66.626l-1.233-.88c-.163-.117-.294-.413-.293-.662 0-.248.132-.355.295-.239l1.233.88c.163.117.295.413.294.661 0 .25-.133.356-.296.24"/>
        <path fill="#ADADAD" fill-rule="nonzero" d="M136.224 35.612c.198.117.404.213.554.543-.203.068-.379-.147-.554-.355v-.188zM197.298 66.024c.062.063.167.137.179.188.129.573.43.742.784.845.1.03.24.097.318.201.513.67 1.023.865 1.55.947.176.028.379.136.56.322.134.139.465.38.073.385-.05.001-.097.027-.06.115.18.426.43.807.718 1.151.19.228.27.01.384.04.301.074.627.209.955.489.31.263.635.498.71.022.023-.146.125-.12.24-.048.231.142.46.286.69.435.052.034.145.116.146.14.042.665.322.343.48.396.21.073.345.122.511.473.178.377.478.713.81.884.27.138.54.267.811.417.222.123.42.274.511.635.08.311.326.447.522.573.524.336 1.056.57 1.55 1.153.176.207.24.096.238-.096-.002-.14-.023-.322.176-.164.742.59 1.515 1.037 2.208 1.843.324.377.67.742.777 1.274.03.145.104.253.198.17.276-.246.507.255.736.499.16.172.062.243-.05.232-.197-.02-.349.025-.42.227-.069.193-.156-.044-.241-.128-.312-.31-.515-.873-.937-.944-.121-.02-.109-.305-.289-.41-.064.43-.287.497-.7.08-.061-.063-.145-.113-.169-.028-.026.095.047.207.12.284.22.231.336.495.404.784.042.176.008.266-.143.16-.572-.403-1.012-.304-1.454-.232-.183.03-.325.011-.55-.254-.272-.319-1.104-.487-1.306-.32-.105.086-.208.2-.157.421.164.71-.137.905-.433 1.187-.23.219-.468.421-.713.621-.447-1.041-.308-2.024.286-2.241.386-.141.705-.411 1.132-.479.074-.011.124-.094.168-.163.048-.076.142-.165.022-.318-.111-.141-.207-.066-.25.022-.113.236-.37.16-.587.213.033-.441-.092-.628-.445-.673-.306-.04-.615-.026-.772.209-.18.266-.416.123-.677-.13-.256-.245-.487-.402-.746-.444a.888.888 0 0 1-.477-.252c-.376-.406-.656-.378-.936-.309-.386.095-.749.238-1.08.437-.107.063-.336.07-.22.312.123.262.303.57.576.69.474.206.572.385.552.937-.044 1.193-.598 1.797-1.295 2.236-.074.046-.164.08-.281.004-.154-.1-.311-.32-.452-.213-.274.206-.615.332-.807.635-.124.197.145.688.237 1.045.084.333.065.52-.197.49-.173-.02-.285-.137-.245-.332.086-.429-.309-.92-.378-1.395-.05-.346-.462-.489-.706-.381-.062-.218.183-.249-.007-.482-.132-.163-.264-.108-.367-.076-.202.064-.575-.05-.484.371.086.391.435.55.705.718.05.031.099.07.155.11-.034.142-.156.098-.235.126-.275.097-.353.32-.125.81.12.257.349.58.07.71-.08.037.03.442.08.516.266.41.079.481-.025.628-.115.162-.207.356-.343.49-.307.307-.649.542-1.218.296-.404-.175-.722-.004-1.195-.344-.367-.265-.563.31-.338.82.158.362.345.72.441 1.091.237.917.094 1.34-.503 1.454-.082.016-.193.094-.248-.15-.06-.274-.26-.519-.325-.77-.127-.485-.39-.677-.683-.75-.2-.051-.365.566-.23.875.172.395.288.797.513 1.19.298.52.355 1.006.38 1.5-.21-.128-.294-.315-.354-.477-.335-.898-.705-1.817-.665-2.634.031-.61-.182-1.297-.258-1.939-.036-.303-.165-.286-.313-.264-.316.047-.417-.065-.39-.474.044-.626-.41-1.223-.639-1.832-.015-.041-.086-.118-.101-.114-.3.082-.744-.327-1-.045-.29.32-.67.52-1.084.63-.26.07-.357.273-.353.631.006.571-.092 1.053-.444 1.385-.61-1.698-1.137-3.298-1.073-4.73-.21-.202-.211-.04-.27-.01-.066.037-.129.04-.213-.07-.073-.095-.147-.215-.085-.275.155-.15-.034-.272-.141-.443-.577-.925-1.273-1.404-1.998-1.825a1.238 1.238 0 0 1-.56-.633c-.086-.22-.22-.283-.356-.349-.408-.2-.696-.593-.928-1.087-.07-.154-.138-.314-.227-.457-.132-.212-.291-.35-.44-.29-.148.061-.028.268.033.434.185.503.406 1.01.552 1.508.146.501.354.562.6.537.162-.016.307-.075.483-.122.146.375.336.755.607 1.09.139.173.153.29.085.436-.25.535-.679.767-1.221.799-.557.032-1.13.02-1.703.01-.331-.007-.503-.187-.528-.63-.037-.648-.235-1.274-.6-1.934a1.709 1.709 0 0 1-.202-.67c-.034-.348-.087-.684-.374-1.048-.155-.197-.09-.434-.184-.66-.177-.429-.179-.964-.702-1.2-.046-.021-.116-.223-.196-.184-.103.049-.024.226.026.356.251.661.53 1.321.706 1.984.028.104.093.224.093.31.003 1.148.75 2.275 1.222 3.408.044.103.104.207.134.31.154.509.436.77.796.893.317.11.634.215.995.337-.34 1.07-.752 1.991-1.665 2.296-.257.086-.434.304-.632.485-.453.412-.483 1.114-.222 2.028.125.44.17.852.173 1.246.006.473-.152.758-.5.822-.146.027-.284.075-.425.113-.277.075-.404.271-.272.765.134.504.094.883-.301.92-.162.016-.194.21-.23.394-.245 1.286-.887 1.618-2.139 1.086-.271-.116-.554-.096-.826-.474-.137-.19-.332-.386-.151-.551.11-.1.002-.338-.065-.518-.448-1.215-.769-2.401-.874-3.55a2.269 2.269 0 0 0-.15-.617c-.33-.82-.244-1.397-.01-1.888.248-.524.159-1.195-.108-1.989-.17-.505-.323-1.002-.568-1.503-.132-.268-.118-.51-.111-.74.008-.339.038-.664.034-1.009-.004-.344-.152-.624-.469-.715-.197-.056-.327-.184-.451-.447-.19-.404-.458-.66-.757-.684-.625-.052-1.301-.495-1.952-.744-.356-.137-1.065-1.08-1.2-1.659-.174-.748-.564-1.45-.854-2.173-.077-.192-.114-.334-.058-.466.142-.334.177-.76.125-1.219-.137-1.213.438-1.627 1.04-1.996.277-.17.515-.33.477-.843-.014-.209.096-.287.214-.36.343-.21.654-.32 1.235-.062.789.352 1.564.46 2.379.863.451.224.625.494.519.937-.07.29.022.55.26.787.425.422.797.919 1.187 1.392.274.333.51.5.655.177.123-.274.358-.22.63.095.645.746 1.352 1.121 2.038 1.62.192.14.303.058.378-.072.182-.318.285-.71.346-1.14.03-.216-.025-.386-.265-.44-.371-.081-.743-.476-1.122-.644-.275-.121-.464-.464-.503-.84-.034-.33-.05-.542.297-.495.25.034.518.062.768.062.262 0 .517.157.784.434.29.3.585.582.907.72.157.068.293.086.355-.06.06-.143-.045-.324-.141-.486a12.243 12.243 0 0 0-.37-.58c-.192-.29-.396-.56-.2-.8.1-.12.003-.283-.185-.382-.42-.22-.59-.087-.462.412-.217-.126-.389-.21-.42-.578-.027-.345-.268-.439-.429-.401-.415.096-.703.4-.702.995.002.414-.137.458-.448.258a.787.787 0 0 0-.493-.126c-.196.004-.186.108-.085.344.234.553.202.61-.304.495.118-.17.183-.324-.087-.62-.128-.141-.235-.41-.283-.605-.235-.97-.897-1.73-1.39-2.573-.08-.14-.158-.272-.27-.203-.088.056-.094.164-.03.323.169.416.273.893.57 1.22.48.525.465.89.306 1.363-.034-.51-.26-.84-.552-1.174-.307-.35-.529-.788-.736-1.217-.182-.376-.388-.604-.664-.567-.12.016-.253-.034-.39-.127-.32-.217-.412-.038-.59.129-.32.299-.648.596-.995.852-.333.246-1.006-.207-1.427-.773-.178-.239-.248-.487-.193-.682.076-.264.084-.569.068-.889-.017-.315.089-.383.351-.206.256.173.513.337.768.51.4.273.611.141.55-.356-.061-.49-.264-.957-.646-1.399.483-.007.91-.031 1.327-.094.48-.072.722-.694 1.41-.286.139.082.155-.057.151-.192-.005-.159-.02-.324-.018-.478.003-.127-.03-.356.145-.225.162.12.056.234.037.33-.034.165-.022.408.125.517.368.274.725.726 1.108.793.25.043.457.009.764.248.273.212.504.098.53-.26.02-.299-.018-.698.414-.112.058.08.134.127.181.077.07-.072.073-.203.015-.346-.228-.566-.047-.575.307-.386.216.114.431.196.645.282.077.031.173.064.173-.054 0-.107-.082-.206-.16-.276-.284-.258-.56-.353-.841-.447-.204-.069-.464.025-.612-.407-.135-.39-.153-.757.06-.937.137-.115.296-.195.432-.31.104-.088.29-.14.092-.46-.195-.316-.489-.448-.566-.266-.178.421-.577.452-.866.672-.19.144-.24.455-.035.889.146.31.13.503-.076.556-.17.043-.222.222-.214.454.008.181-.029.254-.197.222-.578-.108-.574-.094-.792-.904-.019-.069-.035-.138-.056-.208-.197-.693-.198-.693-.644-.642-.375.043-.49-.16-.614-.703-.177-.767.112-.944.488-1.088.089-.034.145-.004.245.068.34.247.488.143.374-.289-.061-.232-.074-.298.1-.363.4-.15.912-.186 1.146-.535.316-.468.871 0 1.268-.076.042-.008.12.057.153.039.396-.213.825.333 1.243.635.134.097.168.124.086.265-.096.168.131.252.22.297.764.381 1.358 1.201 1.978 1.954.101.123.236.276.21.43-.028.16-.172.136-.303.096-.326-.1-.645-.328-.954-.653-.112-.118-.258-.288-.344-.23-.115.078.061.27.12.407.134.324.189.67.435.967.118.142.239.316.375.28.143-.036-.056-.266-.036-.417.314.365.548.523.682.155.054-.149.27-.12.452.007.396.274.38 0 .335-.336-.018-.134-.133-.349.018-.36.088-.005.18.143.263.238.184.21.04.202-.016.262-.063.068.003.177.071.27.136.186.27.206.373.16.315-.138.688-.085 1.085.026.09.026.204-.01.265.112.256.508.486.353.722.4.15.032.284-.125.443.276.05.126.207.12.28.066.392-.292.83.18 1.264.618.1.102.186.236.284.343.09.096.19.164.262.11.08-.06.03-.19-.027-.312a4.916 4.916 0 0 0-.16-.303c-.202-.361-.305-.643.006-.723.122-.031.183-.197.269-.305.114-.142.273-.076.46.104.19.184.191.355.147.505-.09.302.127.74.09 1.063-.03.26-.047.533-.1.775-.048.224-.124.435-.43.027-.08-.109-.202-.177-.254-.099-.069.104.07.218.139.314.297.41.544.421.742.255.136-.114.237-.28.351-.424.163-.206.315-.065.453.282.06.154.09.315.163.464.064.136.186.294.284.27.163-.038-.045-.212-.07-.323-.119-.516-.378-.899-.774-1.235-.32-.271-.342-.995-.053-1.203.098.201.181.41.294.6.116.193.29.452.426.384.138-.067-.146-.3-.138-.454.451-.017.846.373 1.04 1.037.04.134.077.253.197.287.125.036.11-.099.1-.211a1.516 1.516 0 0 0-.422-.88c-.13-.14-.207-.275-.166-.416.038-.13.16-.068.267 0 .27.169.54.347.809.534.2.139.327.163.172-.165-.177-.374-.032-.398.153-.337.644.213 1.284.37 1.953.814.4.265.74.144 1.145.429.099.07.046-.122.056-.201.04-.297.203-.38.483-.24.062.031.168.086.17.177.02.697.47.71.776.92.196.133.409.084.593.326.12.155.336.205.357.487.019.262-.06.381-.262.354-.292-.113-.43.1-.684.21.279-.029.33-.437.684-.133M152.542 42.403c-.188-.219-.197-.394-.11-.534.06-.095.158-.132.295-.039.194.133.39.397.372.573-.034.346.256.627.343.943.078.286.195.146.262.099.215-.154.311.052.387.35.005.018.005.034.009.05.05.216.044.516.246.618.222.112.34-.102.379-.324.03-.174-.009-.399.251-.18.195.166.42.313.385.634-.006.057-.019.113-.009.177.097.619.036.683-.447.509-.117-.042-.315-.247-.33-.039-.013.174.147.377.284.523.285.302.58.584.783 1.146-.356-.341-.638-.556-.857-.343-.063.061-.202-.113-.293-.24-.118-.166-.018-.199.007-.28.063-.196.092-.44-.082-.698-.175-.256-.396-.37-.626-.305l.419.487c-.01.195-.153.201-.264.151-.78-.351-.916.425-1.306.738-.178.143-.117.538.245.866.061.056.144.132.17.202.383 1.01 1.09 1.592 1.75 2.211.23.217.364.347.307.63-.095.476.237.933.546 1.361.21.293.349.189.375-.015.07-.544.114-1.107.341-1.518.022-.038.024-.123 0-.183-.23-.582-.152-1.002-.135-1.484.026-.75.304-.882.949-.208.257.268.48.618.716.934.079.105.1.213.048.271-.168.184-.025.46.14.727.186.304.386.264.567.303.108.022.195-.05.286-.09.128-.056.245-.03.285.238.069.452.34.9.468 1.35.13.466.563.67.76 1.094-.002.01.001.036-.006.038-.108.025-.277-.012-.315.083-.096.241.118.24.223.291.134.067.267.086.398.17.155.102.166.274.177.422.016.227-.017.383-.231.346a4.443 4.443 0 0 1-1.463-.512c-.58-.326-1.119-.202-1.302.256.227.158.329-.011.485-.013.17-.001.339-.01.536.124.099.067.204.166.096.257-.247.208-.208.375.188.769.05.05.103.085.126.165.017.101-.013.12-.093.049-.461-.244-.838-.152-1.254-.217a.215.215 0 0 0-.243.261c.11.511-.124.426-.397.37-.208-.04-.307.161-.43.296-.062.069-.046.407-.298-.024-.08-.136-.148.044-.125.138.236.97-.258 1.162-.683 1.392-.359.195-.456.545-.277 1.179.088.31.125.613.181.918.018.102.036.22-.062.206-.093-.013-.146-.138-.196-.237-.132-.264-.167-.517-.22-.773-.135-.65-.822-1.427-1.287-1.456-.06-.004-.154.001-.154.047 0 .529-.294.098-.48-.043-.29-.223-.554-.453-.865-.49-.608-.072-.492.623-.568 1.093-.07.426.05.958.265 1.497.23.579.627.956 1.05 1.015.144.02.213-.052.24-.204.027-.157.082-.286.227-.29.145-.006.31-.005.462.182.164.202.065.344.05.497-.005.044-.02.08-.027.122-.044.277-.282.442-.14.812.139.363.47.4.71.618.226.204.32.387.296.635-.02.206-.05.407-.044.627.016.544.356 1.053.805 1.22.12.045.263.051.353.203.387.653.467.368.651.12.127-.17.443-.1.685-.139.057.19-.158.265.06.485.16.159.176-.044.25-.08.109-.054.159-.096.326.107.355.432.743.8 1.162.974.2.082.298.248.427.491.414.78.781 1.593 1.51 2.092.58.399.689 1.105.882 1.717.05.16-.082.132-.139.177-.145.113-.307.204-.372.484.24.079.354-.043.511-.054.073-.005.162-.08.234.112.045.12-.043.138-.109.158-.081.025-.216-.058-.243.102.22.309.406.318.56.203.214-.162.426-.057.65.345.268.482.601.804.984 1.03.497.291.796.887 1.124 1.406.177.28.113.533.04.732a1.265 1.265 0 0 1-.508.657c-.222.14-.304.391-.31.749-.009.683-.058 1.337-.357 1.788-.087.131-.161.298-.358.201-.375-.184-.65-.083-.944-.04-.328.047-.518.167-.56.71-.061.797-.472 1.338-1.1 1.517-.277.08-.536-.287-.806-.527-.035.214.115.398.184.576.212.54.142.767-.266.658-.389-.105-.807-.32-.977.118-.02.05-.136.025-.211-.007-.26-.11-.264.003-.21.323.069.396-.111.64-.334.767-.256.147-.29.357-.045.804.069.127.222.284.115.358-.451.317-.629.996-1.08 1.324-.097-.19-.162-.372-.266-.51-.21-.28-.478-.523-.342-.847.08-.192-.082-.564.175-.659.184-.067-.12-.408-.209-.628-.06-.147-.277-.245-.227-.406.06-.19.17.109.257.14.12.045.128-.077.145-.17a2.807 2.807 0 0 0-.003-1.16c-.063-.285-.074-.523-.017-.74.454-1.761.647-3.713.723-5.751.011-.317-.021-.605-.273-.922-.818-1.03-1.25-2.137-1.487-3.308-.09-.439-.26-.902-.402-1.354-.074-.235-.157-.462.055-.492.039-.006.087-.074.074-.108-.376-.974.138-1.161.416-1.55.25-.347.219-.862.041-1.456-.09-.306-.23-.636-.511-.5-.065.032-.142-.005-.227-.086-.435-.413-.84-.84-1.037-1.496a2.14 2.14 0 0 0-.577-.948c-.23-.217-.446-.477-.663-.73-.348-.409-.668-.774-1.1-1.078-.645-.452-1.224-1.252-1.752-2.03a.497.497 0 0 1-.091-.203c-.007-.907-.698-1.776-.997-2.668-.162-.483-.447-.96-.585-1.454-.046-.165-.136-.336-.275-.38-.17-.054-.106.158-.11.288.01.167-.056.128-.152.007-.199-.734-.593-1.393-.973-2.092-.453-.832-.898-1.761-.94-2.625-.03-.637.019-1.232.039-1.842.003-.1-.005-.24.129-.174.407.205.258-.142.134-.407-.144-.305-.301-.673-.506-.881-.547-.554-.796-1.307-.964-1.871-.183-.619-.447-1.111-.705-1.68-.43-.952-1.063-1.309-1.61-1.892-.45-.48-.984-.743-1.402-1.363-.126-.19-.286-.21-.36-.053-.004.011-.006.026-.01.039-.052.222-.255.291-.404.106-.224-.278.09-.268.096-.502-.244-.227-.375-.174-.473.023-.256.515-.657.79-1.24.75-.085-.004-.092-.056-.073-.124.07-.055.15-.097.207-.169.18-.226.125-.382-.212-.582-.488-.29-.845-.874-1.227-1.343-.386-.473-.265-.941.175-.845.234.052.418.027.535-.146.047-.069.051-.184-.027-.32-.061-.105-.12-.083-.184-.096-.62-.128-.674-.18-1.084-1.049.245-.064.498 0 .79.329.158.178.35.301.418.125.081-.208-.163-.316-.273-.46-.102-.135-.219-.256-.31-.398-.141-.216-.394-.456-.368-.658.022-.174.299.008.433-.023.298-.069.599-.115.932-.097.366.02.725.123 1.123.503.587.563 1.201.965 1.812 1.385.69.474 1.339 1.122 2.002 1.714.211.187.187.379.245.576.038.133.08.319.217.332.101.01.07-.16.036-.273-.156-.544-.061-.584.336-.183.261.264.496.209.712.168.25-.048.495 0 .793.345.262.303.547.256.835.514.375.337.721.866 1.159.932.062.01.252.187.175.32-.18.315.12.396.27.487.402.245.823.391 1.064 1.065.055.152.22.2.191.056-.062-.299.225-.245.144-.585-.058-.238.24-.032.298.059.645.99 1.341 1.15 2.037 1.374.012.004.026.02.04.03.292.062.37-.14.335-.482M160.773 41.25c.329.334.662.129.989.582.342-.431.858.33 1.283.471.2.066.476.25.215-.269-.095-.189-.043-.213.066-.196.038.007.084-.005.114.025.798.769 1.587.545 2.394 1.36-.07.114-.296-.087-.328.142.186.201.384.253.576.34.376.173.751.317 1.129.504.155.077.381.083.424.472.011.11.187.186.294.258.141.094.286.092.529.374-.98-.339-1.93-.868-2.735-.618.26.29.443.274.62.294.443.052.887.115 1.372.417.21.131.47.146.603.558.01.032.083.098.107.097.378-.017.806.486 1.19.518.254.021.517.216.784.492-.426-.077-.751.155-1.236-.135-.108-.064-.236-.108-.281-.012-.076.16.125.211.174.314.118.24-.027.293-.114.347-.365.231-.34.465.187 1.075-.18-.093-.305-.163-.428-.22-.108-.05-.237-.108-.275-.001-.047.131.1.203.175.291.012.014.035.028.037.038.024.136-.263.126.03.388.154.139.261.307.32.513-.423-.037-.423-.037-.27.38-.157-.052-.247-.245-.362-.378-.22-.258-.442-.64-.643-.342-.006.008-.024.01-.034.002-.683-.463-.163.346-.224.532-.029.088.142.168.231.229.204.137.398.305.545.566.058.104.198.259.11.317-.108.07-.174-.12-.25-.253-.147-.257-.333-.382-.448-.248-.072.086-.234.137-.168.336.064.196.245.202.374.298.111.083.244.102.348.327-.502-.023-.998-.117-1.552-.447-.486-.29-.882-.315-1.091.124-.087.183-.277.17-.483.103-.657-.21-1.203.179-1.228.93-.01.287-.123.395-.315.42-.054.008-.147.005-.183-.042-.582-.764-1.306-1.466-1.36-2.486-.002-.031-.006-.085-.019-.097-.491-.456-.156-.575-.062-.735.144-.248.004-.329-.248-.46.48.212.204-.382.326-.556.242-.344-.24-.55-.403-.832.188-.07.346-.167.143-.579-.17-.343-.235-.09-.376-.116-.07-.806-.572-1.566-.898-2.343a.533.533 0 0 0-.283-.293c-.485-.231-.97-.476-1.455-.704-.382-.18-.413-.206-.66-.733.017-.014.03-.039.05-.039.174 0 .524.275.511.042-.017-.304-.351-.355-.544-.528-.139-.124-.296-.156-.454-.369.21-.202.537.078.8.13.076.016.152.023.232.057.319.134.598.07.581-.268-.017-.348-.368-.196-.586-.535.517-.045 1.207.389 1.54-.077.188.003.402.228.593.248M204.008 98.811c.169.792.567 1.484.588 2.16.02.636.539 1.247.791 1.878.165.413.355.833.671 1.176.155.168.136.327.136.483 0 1.226-.373 2.135-.717 3.07-.088.237-.396-.05-.522.093-.173.198-.337.018-.52-.294-.099-.17-.198-.097-.298-.127-.303-.093-.511-.285-.716-.739-.18-.4-.152-.881-.57-1.213l.059-.279c.015-.083.04-.176-.055-.276-.103-.11-.15-.026-.178.036-.159.354-.288.253-.505-.268-.205-.498-.575-.891-.948-1.068-.435-.207-.875-.4-1.269-.317-.41.086-.937-.188-1.38-.163-.194.01-.464-.326-.483-.674-.043-.796-.162-1.607-.507-2.483-.083-.21-.062-.186.11-.093.194.105.086-.18.033-.343-.221-.68-.185-.807.285-.835.272-.016.561.017.834.003.305-.015.649.021.655-.476 0-.03.012-.08.015-.078.44.274.415-.311.703-.327.105-.006.167.017.244.144.105.17.228.303.364.397.185.127.333.269.376-.069.084-.652.644-.656 1.17-.102.168.178.223.285.148.465-.208.495.173 1.444.745 1.921.157.132.184.021.232-.055.155-.245.233-.564.28-.908.031-.214.08-.409.23-.639M158.552 40.525l-.944.158c-.103.017-.21-.07-.313-.173-.425-.422-.609-.08-.964-.194.17.325.335.277.473.513-.335.214-.758.108-1.265-.16.132.392.362.48.6.654-.197.132-.407.065-.65-.106-.336-.236-.673-.457-1.008-.696-.136-.097-.363-.147-.357-.395.007-.222-.048-.641.473-.144-.284-.516-.445-.878-.772-.746-.086.034-.218-.006-.335-.05a.687.687 0 0 1-.444-.472c-.108-.345.24-.003.222-.245-.133-.2-.332-.29-.504-.455-.103-.097-.21-.211-.212-.367-.001-.129.107-.1.164-.147.45-.371.863.406 1.263.803.143.143.202.488.312.739.173.399.737.904 1.014.92.063.004.127.001.123-.09-.004-.107-.084-.158-.15-.197-.21-.126-.394-.33-.567-.552-.088-.113-.227-.248-.19-.375.04-.146.187-.043.307.053.328.265.643.471.89.28.04-.048.159-.053-.002-.215-.38-.048-.761-.248-1.142-.661-.05-.053-.116-.135-.153-.136-.439-.01-.611-.533-.936-1.017.612.368 1.045.177 1.582.514.037.023.097.034.108.01.284-.585.893-.02 1.376.237.453.24.914.576 1.374.832.208.115.432.215.58.561.076.172.223.204.343.263.12.06.244.099.36.185.16.12.355.29.376.507.02.194-.18.094-.296.09-.158-.006-.324-.03-.485-.048-.082.11-.267.086-.251.322"/>
        <path fill="#ADADAD" fill-rule="nonzero" d="M157.499 46.475c-.25-1.186-1.032-1.748-1.765-2.313-.463-.358-.943-.632-1.416-.907-.382-.223-.512-.588-.608-.978-.098-.398.11-.455.318-.493.152-.027.32-.01.482.256.153.253.202.502.12.667-.053.103-.136.154-.017.351.048.08.103.187.171.164.03-.01.039-.09.029-.149-.031-.17-.061-.335-.04-.482.038-.26.163-.366.416-.248.263.124.197.34.242.527.078.317.546.775.738.692.329-.14.582.12.816.594.063.128.14.27.226.307.417.185.632.792 1.015 1.069.163.118.412.378.212.606-.098.11.057.358.182.444.355.243.596.697.922.986.103.092.29.365.173.37-.183.005-.132.538-.483.119-.117-.14-.214-.313-.316-.473-.144-.227-.29-.329-.433-.256-.171.088-.008.297.08.472.077.152.168.3.247.451.123.235.26.47.267.714.006.203-.326.025-.196.38.02.055-.08-.024-.123-.069-.403-.425-.852-.753-1.19-1.313-.278-.459-.596-.82-.995-.913-.094-.022-.24-.066-.269-.254-.028-.185.112-.126.215-.087.133.05.268.122.403.187.112.054.183.092.196-.091.02-.315.219-.26.465-.007.156-.067.153-.08-.084-.323M197.915 93.144c-.297-.302-.653-.375-.894-.875-.448-.929-.431-1.271.212-1.433.332-.083.645-.196.921-.376.178-.116.295-.005.469.272.18.288.123.382-.021.437-.17.066-.185.172.005.476.117.19.149.426.014.588-.184.219-.45.368-.413.847.018.218-.17.097-.293.064M147.977 38.498c.184.04.404-.111.494.423.008.047.378.204.484.201.31-.008.45.3.63.57.085.127.21.34.236.158.047-.33.289-.29.526-.359-.084.298-.011.622.094.966.123.399.358.65.646.836-.126.352-.319.385-.67-.038a.855.855 0 0 0-.591-.327c-.617-.054-1.22-.266-1.778-1.268.21.103.421.212.632.31.087.04.213.125.21-.028-.002-.115-.11-.18-.187-.247-.201-.175-.403-.256-.605-.357-.19-.094-.287-.269-.364-.506-.083-.255-.004-.32.125-.353.028-.037.068-.025.118.019M201.627 94.473c.234.078.385.24.472.56.113.414.301.66.566.494.136-.084.273.004.44.17.458.458.901.939 1.317 1.475.298.385.602.743.648 1.254.025.273.27.562.454.932-.304-.177-.494-.36-.64-.683-.302-.663-.404-.744-.795-.603-.13.047-.245-.033-.374-.158-.205-.197-.405-.407-.607-.61-.062-.06-.156-.131-.11-.205.245-.402-.18-.764-.422-1.13a2.66 2.66 0 0 0-.557-.586c-.151-.124-.261-.202-.163-.38.107-.193-.213-.3-.229-.53M183.761 87.562c.175.48.178.806.12 1.084-.143.664-.31 1.307-.47 1.955a.944.944 0 0 1-.11.287c-.087.132-.243.107-.412.013-.168-.095-.215-.287-.264-.461-.115-.41-.187-.796-.015-1.045.116-.166.082-.437.07-.692-.015-.331.077-.548.323-.568.336-.028.61-.15.758-.573M200.998 83.374c.358.346.469 0 .702.092.44.176.733-.08 1.16.081.024.01.065 0 .063-.014-.054-.444.515-.149.411-.67-.03-.155.064-.285.24-.156a.6.6 0 0 1 .241.514c-.027.549-.26.922-.364 1.406-.025.116-.148.021-.24-.02-.134-.061-.274-.149-.399-.172-.397-.074-.395-.065-.684-.458-.1.043.09.202.038.234-.256.157-.512.317-.788.44-.062.027-.163-.163-.149-.244.05-.287-.137-.634-.232-1.033M172.211 58.42c.095.206.05.423.271.526.063.029.12.126.085.162-.238.255.073.605.243.902.247.43.211.89.564 1.321.14.17-.1.416-.37.317-.131-.05-.269-.144-.403-.21-.131-.064-.26-.118-.46-.207.12-.136.44-.124.034-.534-.107-.109.045-.229.141-.286.207-.125.17-.362-.072-.693-.399-.548-.42-1.033-.033-1.298M193.837 88.21c.292.184.464.386.592.655.314.664.753 1.28.993 1.975.077.22.234.441.407.602.172.16.214.305.138.43-.079.128-.041.434-.229.378-.188-.056-.291-.36-.404-.567-.365-.67-.615-1.366-.872-2.055-.17-.452-.39-.89-.625-1.418M187.894 59.777c-.392.089-.832-.02-1.28-.187-.684-.256-1.06.094-1.425.468-.169.172.054.485.162.75-.24-.064-.762-.594-.823-.861-.043-.188.07-.28.174-.288.34-.026.408-.407.582-.647.046-.064.084-.105.168-.067.3.136.571.108.861.239.534.24 1.057.426 1.58.593M177.32 52.369c.245.248.375.419.049.453-.212.023-.284.282-.397.463-.065.104-.14.226-.3-.033-.084-.135-.331-.335-.096-.418.088-.03.11-.118-.03-.26-.117-.119-.05-.137.002-.157.078-.029.244.018.158-.172-.077-.173-.244-.207-.327-.16-.256.147-.52-.361-.765-.316-.043-.31.454-.082.096-.594-.05-.073.128-.037.21-.004.07.028.17-.018.209.2.057.315.088.354.296.288.244-.077.412.074.568.436.096.148.24.085.326.274"/>
        <path fill="#ADADAD" fill-rule="nonzero" d="M147.977 38.498l-.118-.019c-.163-.277-.286-.22-.42-.182-.171.05-.348.088-.528.117-.194.03-.317-.2-.46-.406-.167-.24-.083-.283.003-.367.144-.142-.024-.706.38-.49.266.142.533.355.8.537.339.231.497.494.343.81M168.247 53.557c.429.024.78-.19 1.321.14.273.167.407.376.482.65.093.344-.165.213-.301.215a2.26 2.26 0 0 1-.563-.074c-.39-.094-.713-.398-.939-.931M155.831 41.891c.023.175-.062.23-.242.148-.729-.33-1.455-.71-2.169-1.372-.038-.036-.098-.073-.111-.11-.203-.559-.57-.923-.962-1.28.403.255.828.37 1.111 1.003.152.34.406.467.63.602.578.347 1.155.67 1.743 1.01M209.188 112.836c.104-.242.268-.359.436-.46.228-.135.449-.274.613-.507.056-.08.176-.12.309.063.104.147.083.26.026.35-.208.324-.519.518-.621.982-.05.224-.177.137-.763-.428M203.846 81.37c.194.29.426.557.68.81.108.109-.011.257-.113.267-.25.024-.512.02-.772.021-.095 0-.151-.116-.197-.22-.072-.163-.127-.386-.033-.405.204-.044.252-.24.296-.458.011-.06.054-.07.14-.016M155.346 60.554c.54.415 1.017 1.003 1.484 1.61.07.09.125.228.032.245-.165.03-.384-.026-.515-.288-.145-.29-.315-.537-.515-.712-.203-.178-.395-.708-.64-.443-.096-.135-.231-.27-.276-.403-.049-.148.097-.105.176-.099.072.007.156.054.254.09M149.637 37.746c.151.283.271.575.5.851-.401-.11-.813-.105-1.2-.373-.244-.17-.474-.681-.822-.808-.035-.012-.055-.193-.023-.267.037-.085.122-.051.203.017.183.156.369.31.545.489.577.59.582.595.797.091M161.03 54.95c-.108.179-.15.278.12.452.319.203.352.526.323.815-.013.13-.13.067-.198.094-.047.02-.124-.052-.125-.12-.01-.476-.267-.378-.442-.461-.153-.073-.308-.151-.39-.384-.083-.23.048-.263.141-.312.145-.076.286-.167.571-.084M199.74 93.404c-.494-.127-.494-.127-.222.478.12.267.182.505.065.678-.17-.193-.153-.359-.205-.522-.042-.13-.053-.317-.189-.358-.123-.038-.098.146-.096.268.003.17.019.346.03.539-.398-.724-.313-1.878.138-1.907.034.192-.34.113-.05.441.134.152.309.228.528.383M177.32 52.369a1.013 1.013 0 0 1-.327-.274c.141.093.282.085.28-.048-.012-.586.294-.127.45.059.147.173.187.213.315.14.269-.153.565.274.892.52-.285.236-.595.147-.993-.18-.2-.164-.475-.535-.618-.217M193.807 61.303c.122.087.246.18.313.354.072.185.136.31.262.211.05-.039.143-.08.2.049.095.214.059.391.021.551-.021.095-.094.095-.184.012-.373-.343-.747-.681-1.115-1.036-.167-.16-.024-.178.001-.249.128-.131.291-.11.502.108M152.226 41.17c.019.182-.066.173-.157.167-.332-.022-.548-.398-.724-.738-.04-.075.064-.358.224-.384.311-.05.406.063.501.525.03.147.11.308.156.43M211.022 112.135c-.244-.485-.425-.88-.268-1.233.055-.122.04-.149.197-.077.263.12.354.428.518.634.076.095-.083.23-.186.302-.105.073-.161.223-.261.374M171.796 59.782c0 .371-.348.563-.664.413-.117-.055-.149-.132-.133-.232a1.21 1.21 0 0 1 .354-.722c.066-.063.157-.016.255.09.141.155.2.314.188.451M199.106 87.846c.013-.084.03-.23.061-.362.032-.136.117-.19.265-.05.164.157.218.38.125.447-.328.238-.038.638.181 1.03.112.2.225.399.332.6.038.07.12.194 0 .166-.053-.013-.138.056-.187-.137-.1-.395-.338-.697-.601-.997-.183-.209-.186-.432-.176-.697M204.029 78.23c.023.618.044 1.23.273 1.923.014.04.006.116-.003.114-.487-.158-.225.333-.16.648.016.084.063.191-.023.184-.103-.01-.17-.137-.157-.226.122-.822-.365-2.006.07-2.644M197.298 66.024c-.195-.101-.191.143-.258.22-.171.198-.55.24-.836-.037-.141-.137-.19-.268-.045-.274.372-.018.667-.264 1.139.014v.077M184.873 56.158c-.142-.017-.249-.108-.38-.326-.089-.147-.32-.288-.293.015.009.103-.007.093-.065.069-.127-.053-.156-.175-.189-.299-.038-.144-.178-.324-.082-.422.065-.066.156-.068.28.037.35.292.7.575 1.05.86.059.048.113.117.105.174-.007.045-.058.067-.1.073-.102.014-.21-.107-.326-.18M197.736 94.423c-.558-.464-1.027-.848-1.493-1.245-.095-.082-.245-.223-.21-.35.04-.141.177.035.273.11.328.257.657.507.98.785.163.14.32.328.45.7M148.175 54.386l.152-.008 1.023 2.747c-.267-.272-.399-.544-.516-.835-.256-.635-.498-1.27-.66-1.904M152.637 41.095c-.014-.24.021-.35.16-.321.178.039.36.071.55.256.06.058.077.141.04.172-.176.146-.447.12-.6.315-.026.035-.101-.127-.119-.208-.021-.101-.028-.199-.03-.214M204.74 108.5c.151.13.387.187.375.486-.008.204-.048.432-.31.265-.265-.171-.288-.46-.33-.698-.054-.3.15-.084.265-.053M199.502 90.784c.215-.306.533-.07.792.023.097.035.099.215.103.321.007.185-.041.311-.19.316-.098.002-.195-.071-.232-.215-.07-.283-.23-.375-.473-.445M157.688 86.152c.049-.11.22.02.244-.134.016-.1-.012-.365.177-.15.21.24.417.553.448.863.014.145-.147.076-.255-.018-.204-.178-.405-.37-.614-.561M203.89 69.713c-.197-.158-.403-.315-.609-.323-.094-.004-.215-.107-.276-.273-.049-.13-.042-.237.012-.3.07-.084.21-.035.278.095.17.32.608.21.619.745 0 .013-.009.022-.023.056M195.827 63.32l-1.027-.295c.1-.274.229-.432.466-.372.224.057.41.3.56.667M152.307 42.915c-.015-.208-.124-.23-.231-.253-.17-.037-.245-.222-.321-.392-.045-.101-.007-.152.037-.189.1-.082.207.013.32.163.106.143.226.22.35.278.113.02.277.065.24.253-.035.175-.067.492-.395.14"/>
        <path fill="#ADADAD" fill-rule="nonzero" d="M193.237 60.793c.043-.236.24-.183.41-.159.194.028.376.252.437.478.081.297-.154.129-.274.124-.205-.059-.425-.028-.573-.443M150.332 36.678c.626.34 1.012.816 1.18 1.45-.33-.515-.82-.804-1.18-1.45M151.808 39.401c-.02.147-.088.206-.217.098a1.421 1.421 0 0 1-.458-.725c-.044-.187.143-.11.26-.026.218.156.379.371.415.653M147.906 36.389c-.13.235-.79.25-1.07.027.25-.324.645-.185 1.07-.027M158.242 63.618a1.988 1.988 0 0 1-.72-.282c-.096-.057-.26-.101-.254-.275.004-.128.118-.175.261-.089.23.138.456.3.713.646M183.73 55.589c-.186-.028-.297-.206-.412-.332-.115-.126-.28-.296-.206-.446.064-.129.23-.065.38.016.085.046.187.173.106.225-.194.123.043.322.131.537M199.795 96.119c.149-.27.351-.316.583-.306.062.002.137.047.18.145.046.1.011.157-.038.182-.185.092-.38.154-.725-.021M205.945 97.85c.068.136.011.184-.036.225-.106.092-.211.203-.407.088a.264.264 0 0 1-.114-.225c.018-.228.228-.09.346-.13.057-.02.12-.059.21.043M190.509 85.169c.15.193.2.394.203.583.002.15-.097.177-.212.085-.193-.155-.18-.34-.162-.498.013-.108.022-.24.17-.17M155.716 38.866c.178-.032.404-.132.573.128.222.343-.04.248-.18.22-.09-.018-.181-.049-.272-.078-.039-.012-.08-.036-.12-.054v-.216M159.277 55.553l.093-.05.288.415-.717.094c-.06-.411.307-.215.336-.46M148.738 36.753c.253.092.097-.436.377-.28.086.047.205.069.235.235.02.116-.06.133-.126.145-.139.025-.257.127-.486-.1M156.364 43.168c-.06-.014-.12-.02-.184-.046-.153-.063-.322-.059-.434-.336-.02-.05-.009-.142.02-.151.15-.049.304.13.454.28a.44.44 0 0 1 .144.253M158.552 40.525c-.096-.085-.241-.087-.28-.256-.04-.177.109-.128.194-.13.105 0 .224.041.337.064.008.227-.067.345-.251.322M152.307 42.915c.2.12.295.03.324-.152.02-.122-.103-.169-.17-.24l.08-.12c.289.178.292.376.199.553-.108.204-.238.372-.533-.07.033.01.067.019.1.03M140.31 40.052c.005.077.017.121.006.133-.106.113-.208.24-.418.136-.02-.01-.071-.112-.065-.13.078-.213.263-.189.477-.14M209.06 104.75c.003.11-.048.14-.12.078-.147-.124-.284-.281-.33-.49-.015-.067.05-.084.106-.043a.858.858 0 0 1 .344.456"/>
        <path fill="#ADADAD" fill-rule="nonzero" d="M193.237 60.793c.177.233.381.3.573.443a.6.6 0 0 1-.003.067c-.158.004-.318 0-.502-.108-.168-.182-.228-.329-.068-.402M184.649 55.393c.245.022.376.213.505.205a.211.211 0 0 1 .221.205c.009.156-.131.121-.233.047-.136-.098-.266-.244-.493-.457M204.068 70.484c-.155.03-.303-.007-.42-.257-.049-.103-.05-.258.006-.247.197.035.248.356.414.504M185.82 56.494c-.05.084-.1.191-.224.09-.115-.096-.133-.258-.146-.38-.014-.136.065-.125.153-.024.08.092.235.128.218.314M157.499 46.475c.067.042.135.08.202.127.095.067.195.14.229.285.021.098-.023.14-.081.15-.114.021-.204-.066-.266-.239.03-.098-.044-.213-.084-.323M186.123 61.84c-.108-.117-.234-.239-.246-.409-.007-.108.083-.066.148-.012.12.101.243.225.25.4.005.1-.076.066-.152.02M211.855 76.102c.18-.035.364-.024.632.304-.25-.02-.434-.086-.632-.304M199.256 86.102c-.135-.3-.114-.493.067-.625.108.329.015.473-.067.625M138.913 39.797l.073.124c-.259.1-.559.075-.905-.081l.832-.043M188.299 101.826c-.026.096-.09.12-.172.07a.516.516 0 0 1-.23-.39c-.01-.091.052-.114.128-.042.106.1.227.197.274.362M175.929 67.833c.21-.008.36.04.486.279.042.078.043.19-.024.188-.182-.008-.284-.232-.462-.467M139.374 52.064c.126.21.305.406.274.616-.011.08-.094.067-.157-.008-.195-.235-.057-.393-.117-.608M159.759 54.671c-.01.097-.07.091-.142.044-.126-.084-.252-.202-.29-.373-.022-.103.07-.08.139-.034.123.082.241.182.293.363M187.252 57.084c-.047.145-.19.015-.293-.006-.061-.013-.159-.06-.138-.156.03-.138.173-.067.284-.032.063.02.132.084.147.194M160.773 41.25c-.113.018-.373-.252-.304.132.014.075-.097.03-.165-.019-.166-.118-.103-.24-.125-.36.185-.037.392.125.594.247M165.235 90.407c.002.105-.055.102-.126.063a.597.597 0 0 1-.293-.354c-.034-.118.047-.098.116-.056a.706.706 0 0 1 .303.347M178.266 53.63c-.043.117-.146.045-.235-.003-.08-.042-.173-.102-.155-.23.018-.13.115-.092.213-.023a.474.474 0 0 1 .177.257M201.25 94.87c-.018.116-.107.072-.184.029-.088-.05-.214-.091-.227-.246-.01-.114.098-.077.177-.041.095.042.19.108.234.257M186.57 56.645c-.093.161-.16.26-.317.172-.063-.035-.093-.124-.068-.172.068-.127.18-.143.385 0M183.789 60.858c-.088-.053-.137-.133-.12-.211.025-.116.101-.156.223-.086.074.043.132.135.118.21-.021.125-.12.122-.221.087M157.192 85.528c-.107-.18-.264-.344-.258-.531.002-.064.077-.049.128.012.156.183.132.35.13.519M184.603 71.584c.125-.044.202.063.236.2.037.147-.063.11-.14.094-.155-.032-.143.074-.045.245.096.167.083.31.097.452.018.2.12.491-.096.488-.217-.004-.445-.132-.655-.424-.196-.274-.233-.512-.14-.7.126-.253.13-.536-.098-.951-.095-.173-.129-.38-.176-.57-.198-.798.095-1.103.723-.764.115.062.222.128.249.306.02.133-.021.181-.127.178-.33-.01-.373.237-.155.692.083.174.154.341.167.513.01.123.046.245.16.24M180.019 62.218c-.224-.09-.269-.287-.3-.47-.025-.146.054-.176.16-.103a.796.796 0 0 1 .337.526c.04.24-.152.005-.197.047M186.048 71.567a.31.31 0 0 1-.167-.26c-.008-.206.072-.324.232-.313.107.007.139.133.141.233.004.198-.04.345-.206.34M154.65 52.77c-.342-.536-.732-.69-1.105-.95.518-.382.727-.256 1.16.711.137.307.32.513.536.68.335.258.484.484.215.691-.033.026-.053.073-.09.127-.142-.223-.293-.404-.318-.644a.532.532 0 0 0-.214-.368c-.146-.104-.2.01-.264.092-.149.195-.148.537-.267.789-.244-.84-.182-1.062.346-1.127M155.325 54.675c.3-.233.837-.25 1.23-.04-.42-.016-.818.024-1.23.04"/>
        <path fill="#123155" fill-rule="nonzero" d="M85.477 53.01L50.347 32.57c-.248-.143-.449-.526-.45-.855l-.816-20.696c0-.33 1-.723 1.247-.58l35.838 19.984c.248.142.45.525.45.855l.018 20.937c0 .33-.909.936-1.157.794"/>
        <path fill="#EAEAE9" fill-rule="nonzero" d="M85.363 52.965L49.525 32.982c-.249-.143-.45-.526-.45-.856l-.018-20.936c0-.33.2-.482.448-.34l35.839 19.985c.248.142.449.525.45.855l.018 20.936c0 .33-.201.482-.449.34"/>
        <path fill="#1F60AC" fill-rule="nonzero" d="M56.977 27.249l-3.932-2.266v4.532l3.932 2.266zM63.188 27.085l-3.932-2.266v8.276l3.932 2.266zM69.4 33.03l-3.932-2.267v5.912L69.4 38.94zM75.612 34.901l-3.932-2.266v7.62l3.932 2.266zM81.823 38.941l-3.932-2.266v7.16l3.932 2.265z"/>
        <path fill="#ADADAD" fill-rule="nonzero" d="M53.805 16.687l-2.363-1.37c-.163-.094-.295-.347-.295-.564.001-.217.134-.317.296-.223l2.364 1.37c.163.094.294.347.294.565 0 .217-.133.316-.296.222M55.447 17.64l-.674-.392c-.164-.095-.296-.348-.295-.565 0-.218.133-.317.296-.222l.675.391c.163.095.295.347.295.565 0 .217-.133.316-.297.222M60.488 20.56l-4.033-2.337c-.163-.095-.295-.347-.294-.565 0-.217.133-.317.296-.222l4.034 2.338c.163.094.294.347.294.564-.001.218-.133.317-.297.223M61.557 21.18l-.13-.075c-.163-.095-.295-.347-.294-.565 0-.217.133-.317.296-.223l.13.076c.163.094.295.347.294.564 0 .218-.133.317-.296.223M52.581 17.317l-1.233-.714c-.163-.094-.294-.347-.294-.565 0-.217.133-.316.296-.222l1.233.714c.163.095.294.347.294.565 0 .217-.133.317-.296.222M55.912 19.248l-2.363-1.37c-.164-.095-.295-.347-.295-.565 0-.217.134-.316.296-.222l2.363 1.37c.164.094.295.347.294.564 0 .217-.132.317-.295.223M60.946 22.166l-4.034-2.338c-.163-.095-.294-.348-.294-.565 0-.217.133-.317.296-.222l4.034 2.338c.163.094.294.347.294.564 0 .218-.133.317-.296.223M63.769 22.462l-1.233-.714c-.163-.095-.295-.347-.294-.565 0-.217.133-.317.296-.222l1.233.714c.163.094.295.347.294.565 0 .217-.133.316-.296.222M67.1 24.393l-2.363-1.37c-.163-.094-.295-.347-.295-.565 0-.217.134-.316.296-.222l2.363 1.37c.163.094.295.347.295.564 0 .217-.134.317-.297.223M63.18 23.46l-1.232-.713c-.163-.095-.295-.348-.294-.565 0-.218.133-.317.296-.222l1.232.714c.163.094.295.347.295.565 0 .217-.133.317-.297.222M66.511 25.391l-2.363-1.37c-.163-.094-.295-.347-.294-.564 0-.217.133-.317.296-.222l2.363 1.37c.163.094.295.347.294.564 0 .217-.133.317-.296.222M55.493 20.375l-4.033-2.338c-.164-.095-.295-.347-.295-.565 0-.217.134-.317.297-.222l4.033 2.338c.163.094.295.347.294.565 0 .217-.133.316-.296.222M56.561 20.994l-.13-.075c-.162-.095-.294-.347-.294-.565 0-.217.133-.316.296-.222l.13.075c.163.094.295.347.295.565-.001.217-.134.316-.297.222M58.773 22.276l-1.232-.714c-.163-.095-.295-.348-.294-.565 0-.217.133-.317.296-.222l1.232.714c.163.095.295.348.295.565-.001.217-.134.317-.297.222M72.174 27.054l-1.232-.714c-.164-.095-.295-.348-.294-.565 0-.217.132-.317.295-.222l1.233.714c.163.095.295.348.294.565 0 .217-.133.317-.296.222M75.505 28.985l-2.363-1.37c-.163-.094-.295-.347-.295-.564 0-.218.134-.317.297-.223l2.363 1.37c.163.094.294.347.294.565 0 .217-.133.316-.296.222M80.54 31.903l-4.034-2.338c-.163-.095-.295-.348-.295-.565 0-.217.134-.317.297-.222l4.033 2.338c.163.094.295.347.295.564 0 .218-.134.317-.297.223M82.774 33.198l-1.233-.714c-.163-.095-.294-.348-.294-.565 0-.218.133-.317.296-.222l1.233.714c.163.094.294.347.294.564 0 .218-.133.317-.296.223M75.107 30.123l-4.034-2.337c-.163-.095-.295-.348-.295-.565.001-.218.134-.317.297-.223l4.034 2.338c.163.095.294.348.294.565-.001.218-.133.317-.296.222M76.175 30.743l-.13-.076c-.163-.094-.295-.347-.294-.564 0-.218.133-.317.296-.222l.13.075c.163.094.294.347.294.565 0 .217-.133.316-.296.222M78.387 32.025l-1.232-.714c-.164-.095-.295-.348-.295-.565 0-.217.133-.317.296-.223l1.233.715c.163.094.294.347.294.564 0 .218-.133.317-.296.223"/>
        <path fill="#123155" fill-rule="nonzero" d="M119.838 41.764L97.023 27.75c-.211-.122-.382-.446-.382-.727L96.018 7.96c0-.28.777-.855.988-.735l23.43 13.474c.211.121.382.446.382.726l.016 19.511c0 .28-.785.95-.996.83"/>
        <path fill="#EAEAE9" fill-rule="nonzero" d="M119.838 41.764L96.408 28.29c-.21-.12-.382-.446-.382-.725L96.01 8.053c0-.28.17-.409.381-.288l23.431 13.474c.21.121.381.446.382.726l.015 19.511c0 .28-.17.41-.38.288"/>
        <path fill="#1F60AC" fill-rule="nonzero" d="M113.357 32.062c-1.669-.962-3.022-3.302-3.022-5.225 0-1.924 1.353-2.704 3.022-1.742 1.67.962 3.023 3.301 3.023 5.225 0 1.924-1.353 2.704-3.023 1.742m0-8.868c-2.58-1.486-4.671-.281-4.671 2.692 0 2.974 2.091 6.59 4.671 8.077s4.672.281 4.672-2.693c0-2.973-2.092-6.589-4.672-8.076"/>
        <path fill="#F4901F" fill-rule="nonzero" d="M113.357 23.194v1.9c1.67.963 3.023 3.302 3.023 5.226l1.649.95c0-2.973-2.092-6.59-4.672-8.076"/>
        <path fill="#ADADAD" fill-rule="nonzero" d="M115.954 28.29c.27.679.426 1.378.426 2.03l1.649.95c0-.964-.22-1.997-.606-3.002l-1.47.023z"/>
        <path fill="#1F60AC" fill-rule="nonzero" d="M102.346 25.013c-1.67-.963-3.023-3.302-3.023-5.226s1.354-2.704 3.023-1.742c1.67.962 3.023 3.302 3.023 5.226s-1.354 2.704-3.023 1.742m0-8.868c-2.58-1.487-4.672-.282-4.672 2.692s2.092 6.59 4.672 8.076c2.58 1.487 4.672.282 4.672-2.692 0-2.973-2.092-6.59-4.672-8.076"/>
        <path fill="#F4901F" fill-rule="nonzero" d="M102.346 16.145v1.9c1.67.962 3.023 3.302 3.023 5.226s-1.354 2.704-3.023 1.742c-1.67-.962-3.023-3.302-3.023-5.226l-1.649-.95c0 2.974 2.092 6.59 4.672 8.076 2.58 1.487 4.672.282 4.672-2.692 0-2.973-2.092-6.59-4.672-8.076"/>
        <path fill="#ADADAD" fill-rule="nonzero" d="M102.346 16.145v1.9c.834.481 1.59 1.307 2.137 2.252l1.167-.67c-.845-1.462-2.013-2.739-3.304-3.482"/>
        <path fill="#123155" fill-rule="nonzero" d="M78.054 148.368l-32.85-18.585c-.26-.139-.354-.911-.065-1.09l47.355-24.896c.289-.18.734-.214.994-.075l32.883 17.315c.26.139.541.801-.107 1.185l-47.215 26.07c-.29.18-.735.214-.995.076"/>
        <path fill="#EAEAE9" fill-rule="nonzero" d="M78.032 147.707l-32.849-18.585c-.26-.138-.237-.396.052-.576l47.237-25.41c.289-.18.734-.213.995-.075l32.827 17.924c.26.14.237.397-.052.577l-47.215 26.07c-.29.18-.734.214-.995.075"/>
        <path fill="#B9B9BA" fill-rule="nonzero" d="M112.845 118.872l-1.315.774-15.607-8.387 1.313-.773zM114.722 125.028l-.888.512-28.606-15.36.887-.513zM112.8 126.133l-.894.512L83.3 111.284l.895-.512zM65.553 127.748l-.903.453-6.63-3.405.902-.452zM108.938 128.323l-.89.5-28.607-15.361.892-.5zM107.003 129.405l-.892.494-28.606-15.362.892-.494zM103.132 131.538l-.9.488-28.608-15.362.903-.49zM101.19 132.591l-.895.482-28.607-15.363.895-.483zM93.403 136.712l-.9.466-28.608-15.366.9-.465zM81.304 142.786l-.915.444-6.736-3.777.913-.441zM110.872 127.233l-.89.503-28.607-15.361.89-.503zM105.066 130.477l-.894.491-28.606-15.362.892-.49zM95.355 135.695l-.906.472-28.607-15.364.905-.473zM91.447 137.721l-.9.462-28.607-15.367.9-.46zM89.49 138.72l-.902.457L59.98 123.81l.903-.457zM83.023 141.947l-.913.447-6.736-3.776.912-.447z"/>
        <path fill="#123155" fill-rule="nonzero" d="M71.975 77.442a2.48 2.48 0 0 1-.128.052l-.048.016c-.1.034-.202.063-.308.084l-.02.004c-.075.015-.15.025-.228.033l-.08.007c-.049.004-.1.006-.15.007-.03 0-.059.002-.088.001-.04 0-.081-.002-.123-.004a2.619 2.619 0 0 1-.204-.016 3.105 3.105 0 0 1-.556-.105 3.216 3.216 0 0 1-.232-.069l-.07-.022a5.595 5.595 0 0 1-.22-.082h-.002a4.736 4.736 0 0 1-.22-.096l-.07-.032a6.82 6.82 0 0 1-.158-.077l-.08-.041a7.008 7.008 0 0 1-.695-.422 7.87 7.87 0 0 1-.515-.39 8.851 8.851 0 0 1-.858-.802l-.033-.033c-.14-.15-.275-.303-.408-.462l-.004-.005a10.99 10.99 0 0 1-.394-.503l-.002-.003a11.234 11.234 0 0 1-.335-.481c-.067-.101-.13-.205-.194-.308-.053-.087-.11-.173-.16-.263-.025-.04-.048-.083-.072-.125a11.175 11.175 0 0 1-.243-.449l-.025-.05c-.093-.184-.181-.37-.263-.557l-.013-.03c-.08-.184-.155-.37-.225-.555l-.013-.038c-.07-.19-.135-.381-.193-.573l-.01-.034a9.868 9.868 0 0 1-.148-.553l-.012-.053a8.3 8.3 0 0 1-.185-1.19 6.194 6.194 0 0 1 .003-1.086l.004-.045a4.754 4.754 0 0 1 .181-.908l.024-.071c.04-.12.084-.235.135-.344l.016-.038a3.06 3.06 0 0 1 .194-.35c.009-.015.02-.027.029-.042a2.71 2.71 0 0 1 .188-.247l.074-.082c.057-.061.118-.12.18-.175.027-.022.052-.046.079-.067.09-.071.181-.137.28-.194L63.5 66.662a2.26 2.26 0 0 0-.28.194c-.027.021-.052.045-.078.067a2.57 2.57 0 0 0-.181.175l-.075.081c-.066.078-.128.16-.187.248l-.03.041-.006.01a3.166 3.166 0 0 0-.183.33l-.005.011-.016.038a3.968 3.968 0 0 0-.095.224l-.04.12a3.043 3.043 0 0 0-.023.07c-.006.022-.014.043-.021.064-.024.08-.044.162-.064.247l-.019.09-.011.058-.018.087a4.887 4.887 0 0 0-.034.23c-.006.044-.01.089-.014.132l-.005.046-.005.055a5.743 5.743 0 0 0-.02.46v.014a8.242 8.242 0 0 0 .014.45c.002.036.006.072.009.107l.003.047a4.564 4.564 0 0 0 .033.317c.01.08.022.161.034.242l.002.007.001.008a7.528 7.528 0 0 0 .09.48l.021.089.013.053.026.11c.021.086.043.171.067.256l.054.187a3.098 3.098 0 0 0 .02.067 15.001 15.001 0 0 0 .166.496l.017.045.015.036a9.477 9.477 0 0 0 .236.585l.014.033a14.415 14.415 0 0 0 .23.487l.02.038.025.05c.035.067.068.135.104.201.045.084.093.166.14.248l.07.126.029.05c.041.072.089.14.133.212.063.103.127.207.193.308l.031.05a11.449 11.449 0 0 0 .306.434 11.093 11.093 0 0 0 .394.503l.004.005.003.003a10.088 10.088 0 0 0 .374.425l.031.033.033.034a7.99 7.99 0 0 0 .337.34l.064.06.048.044.1.094c.07.064.142.126.215.186l.095.079.048.039.071.058a8.216 8.216 0 0 0 .367.27l.029.021c.01.006.018.013.026.019a7.918 7.918 0 0 0 .457.288l.154.086.058.03.08.04.06.032c.032.016.065.03.097.045l.07.034.029.013c.064.03.128.056.191.081l.002.001c.066.026.13.05.195.073l.025.008.07.023c.033.01.066.023.099.032l.048.014.085.023.066.018.068.016.085.018.045.01.079.014.098.015c.011.002.023.005.035.006.027.004.053.006.08.008l.104.011.03.003c.024.002.047.001.07.002l.123.005h.035l.052-.002a3.14 3.14 0 0 0 .152-.007l.045-.002.034-.005c.077-.008.153-.019.227-.033l.018-.002.003-.001a2.46 2.46 0 0 0 .307-.085l.028-.007.02-.009a2.55 2.55 0 0 0 .129-.052c.02-.009.04-.016.06-.026.062-.029.122-.06.181-.093l1.878-1.09c-.06.034-.12.065-.181.094-.02.01-.04.017-.06.026"/>
        <path fill="#123155" fill-rule="nonzero" d="M73.624 74.232l-1.877 1.088 3.296 1.9c0 .15-.005.296-.011.441l-.008.12c-.005.1-.012.198-.021.295l-.017.165a7.567 7.567 0 0 1-.367 1.659l-.051.141a5.34 5.34 0 0 1-.329.713c-.014.026-.03.05-.044.075a4.668 4.668 0 0 1-.387.57l-.067.082c-.088.106-.18.208-.276.303-.011.01-.02.022-.03.032a3.97 3.97 0 0 1-.412.345 3.989 3.989 0 0 1-.361.241l1.877-1.089a4.058 4.058 0 0 0 .443-.303c.114-.088.225-.182.33-.283l.03-.032c.096-.095.188-.197.277-.303l.066-.08a4.91 4.91 0 0 0 .265-.37l.012-.016c.038-.06.074-.123.11-.186l.045-.075c.052-.095.103-.194.152-.295l.002-.006c.063-.132.12-.27.174-.411.006-.015.013-.029.018-.044.012-.032.022-.066.033-.098.029-.082.057-.165.083-.25l.025-.076.025-.093c.02-.072.039-.145.057-.219.008-.033.018-.065.025-.098l.019-.094c.014-.063.026-.127.039-.192l.021-.108c.007-.037.011-.075.018-.112l.025-.172.015-.098.015-.147.017-.165.008-.073.013-.221.008-.122.002-.033c.005-.126.009-.254.009-.384v-.023l-3.296-1.9zM61.587 62.469c.07-.03.143-.061.216-.088.057-.02.115-.04.174-.058l.116-.037c.068-.019.139-.035.208-.051.033-.008.066-.017.1-.024.019-.004.039-.005.058-.01a4.374 4.374 0 0 1 .76-.077c.046 0 .092-.003.14-.003.07 0 .142.004.213.007.054.003.108.004.162.009.057.004.115.01.174.017.064.007.128.014.194.023.053.007.107.017.16.027a5.477 5.477 0 0 1 .719.163 6.267 6.267 0 0 1 .364.114c.106.037.212.076.32.118l.048.018c.122.049.246.102.37.158l.109.051a9.295 9.295 0 0 1 .4.199c.116.061.234.125.352.193.077.044.154.092.23.138.051.031.103.062.153.094.063.04.126.08.188.122.054.035.108.07.16.106.06.04.12.083.179.125l.171.121c.108.08.216.16.324.244l-.58 3.395 1.876-1.089.58-3.395a13.5 13.5 0 0 0-.297-.226l-.025-.017-.175-.124c-.05-.035-.099-.072-.15-.106-.007-.006-.016-.01-.025-.017l-.16-.106-.157-.103-.031-.019-.153-.093c-.052-.032-.102-.064-.153-.094a12.246 12.246 0 0 0-.33-.187 8.182 8.182 0 0 0-.23-.118l-.097-.05c-.058-.029-.115-.055-.173-.082l-.11-.05-.041-.02a8.486 8.486 0 0 0-.32-.136l-.009-.003-.047-.018c-.09-.035-.18-.07-.269-.101l-.05-.016c-.042-.015-.082-.027-.123-.04-.05-.017-.1-.035-.15-.049-.03-.01-.061-.017-.092-.026a10.721 10.721 0 0 0-.142-.039l-.098-.027-.128-.028a5.252 5.252 0 0 0-.14-.031l-.065-.015c-.049-.01-.097-.015-.145-.024-.054-.009-.108-.019-.161-.026l-.048-.008-.147-.015c-.057-.006-.115-.013-.172-.017l-.041-.005-.121-.003c-.072-.004-.144-.007-.215-.008l-.049-.001c-.03 0-.06.003-.09.004a5.789 5.789 0 0 0-.261.012l-.072.004-.06.008c-.124.013-.246.03-.366.054l-.045.006-.015.003-.099.024c-.07.016-.14.032-.208.052-.04.01-.077.024-.115.036-.046.014-.092.027-.137.043-.013.004-.025.01-.038.015a4.072 4.072 0 0 0-.216.088l-.105.045a3.84 3.84 0 0 0-.306.159l-1.878 1.089c.1-.058.202-.11.307-.16l.105-.044"/>
        <path fill="#123155" fill-rule="nonzero" d="M73.845 71.628c.014.036.03.071.043.107.081.203.16.405.232.607.01.025.018.05.027.076.067.188.13.377.19.565l.032.1a15.943 15.943 0 0 1 .348 1.304l.009.039a15.116 15.116 0 0 1 .228 1.33l1.876-1.09a13.648 13.648 0 0 0-.067-.48l-.021-.125a11.681 11.681 0 0 0-.022-.127c-.01-.055-.018-.108-.029-.162a15.624 15.624 0 0 0-.088-.436l-.009-.036a16.075 16.075 0 0 0-.088-.382l-.052-.194a7.657 7.657 0 0 0-.035-.132l-.028-.108c-.04-.144-.082-.288-.126-.432l-.018-.057-.033-.101a14.254 14.254 0 0 0-.19-.565l-.026-.076-.014-.04a19.302 19.302 0 0 0-.15-.4l-.068-.166-.044-.108-.046-.114a17.67 17.67 0 0 0-.165-.384c-.013-.032-.028-.063-.043-.095l-.047-.104-.088-.191a19.726 19.726 0 0 0-.442-.884c-.019-.036-.04-.07-.06-.107a17.42 17.42 0 0 0-.187-.335c-.042-.074-.081-.15-.124-.223l-.067-.111a22.46 22.46 0 0 0-.545-.867c-.037-.055-.072-.111-.11-.166-.034-.05-.07-.1-.106-.15-.08-.116-.161-.23-.244-.344-.036-.05-.072-.103-.109-.153l-.136-.178c-.041-.054-.082-.109-.125-.163-.026-.034-.052-.07-.079-.103-.102-.13-.206-.258-.311-.384l-.013-.014c-.01-.014-.023-.027-.034-.04a14.66 14.66 0 0 0-.263-.307l-.134-.15-.1-.11-.082-.09a17.57 17.57 0 0 0-.332-.348l-.04-.04-1.877 1.089a18.632 18.632 0 0 1 .95 1.044l.036.04c.137.165.27.333.403.503l.124.163a17.315 17.315 0 0 1 .49.674c.072.104.143.21.214.316a17.875 17.875 0 0 1 .39.611c.052.085.105.17.156.256.065.11.128.222.192.334.062.111.125.222.186.335a18.882 18.882 0 0 1 .59 1.182l.047.104c.088.197.173.395.254.593"/>
        <path fill="#EAEAE9" fill-rule="nonzero" d="M66.944 63.218c.472.272.942.59 1.405.95l-.58 3.395c-.271-.208-.55-.4-.835-.565-2.667-1.536-4.835-.301-4.844 2.757-.008 3.059 2.146 6.783 4.812 8.32 2.668 1.538 4.837.304 4.845-2.754l3.296 1.9c-.015 5.111-3.694 7.205-8.151 4.636-4.458-2.569-8.112-8.889-8.098-14 .015-5.113 3.693-7.207 8.15-4.64"/>
        <path fill="#F4901F" fill-rule="nonzero" d="M69.813 65.473c1.347 1.36 2.533 3.03 3.435 4.838.903 1.806 1.493 3.687 1.705 5.445l-3.258-1.305c-.26-2.152-1.451-4.49-3.055-6.112l1.173-2.866z"/>
        <path fill="#123155" fill-rule="nonzero" d="M155.243 126.074l-7.396 4.262v-8.524l7.396-4.263z"/>
        <path fill="#CECECD" fill-rule="nonzero" d="M147.847 121.812l-7.396-4.263 7.395-4.262 7.396 4.262z"/>
        <path fill="#1760AB" fill-rule="nonzero" d="M147.847 130.336l-7.396-4.262v-8.525l7.396 4.263z"/>
        <path fill="#CECECD" fill-rule="nonzero" d="M145.183 125.731l-2.069-1.192v-2.384l2.069 1.192z"/>
        <path fill="#123155" fill-rule="nonzero" d="M45.322 49.446l-8.255-5.256c-.324-.187-1.045-.595-1.045-1.025 0-.431.721-.72 1.045-.534l8.723 5.028c.324.186.586.686.586 1.117 0 .43-.73.856-1.054.67M40.178 49.046l-3.111-1.794c-.324-.186-1.029-.669-1.029-1.1 0-.43.705-.645 1.029-.458l3.111 1.793c.324.186.586.686.586 1.117 0 .43-.262.628-.586.442M44.932 52.284l-2.643-2.022c-.323-.186-.586-.686-.586-1.117 0-.43.263-.628.586-.442l3.112 1.794c.324.186.586.686.586 1.117 0 .43-.73.857-1.055.67M51.495 56.078l-3.984-2.806c-.323-.186-.585-.686-.585-1.117 0-.43.262-.628.585-.442l4.453 2.578c.323.186.586.686.586 1.117 0 .43-.731.856-1.055.67M47.498 56.825l-10.431-6.51c-.324-.186-1.055-.458-1.055-.889l.01-.137c0-.43.72-.72 1.045-.533l10.9 6.282c.323.186.585.686.585 1.117 0 .43-.73.857-1.054.67M52.08 62.494l-15.013-9.117c-.324-.186-1.045-.592-1.045-1.023 0-.43.72-.722 1.045-.535l15.483 8.888c.323.186.585.686.585 1.117 0 .43-.73.856-1.054.67M53.39 54.082L48.2 50.606c-.324-.187-.586-.687-.586-1.118 0-.43.262-.628.586-.442l5.66 3.25c.324.186.586.685.586 1.116 0 .43-.731.857-1.055.67"/>
        <path fill="#EAEAE9" fill-rule="nonzero" d="M45.322 49.446l-8.724-5.028c-.324-.186-.586-.686-.586-1.117 0-.43.262-.628.586-.442l8.724 5.028c.323.186.586.686.586 1.117 0 .43-.263.628-.586.442M39.71 49.274l-3.112-1.793c-.324-.187-.586-.687-.586-1.117 0-.431.262-.629.586-.442l3.112 1.793c.323.187.585.687.585 1.117 0 .43-.262.629-.585.442M44.932 52.284l-3.111-1.793c-.324-.187-.586-.687-.586-1.118 0-.43.262-.628.586-.441l3.111 1.793c.324.186.586.687.586 1.117 0 .43-.262.629-.586.442M51.495 56.078l-4.452-2.577c-.323-.187-.586-.687-.586-1.118 0-.43.263-.628.586-.442l4.452 2.578c.324.187.586.686.586 1.117 0 .43-.262.628-.586.442M47.498 56.825l-10.9-6.282c-.324-.186-.586-.686-.586-1.117 0-.43.262-.628.586-.442l10.9 6.282c.323.187.585.687.585 1.118 0 .43-.262.628-.585.441M52.08 62.494l-15.482-8.888c-.324-.187-.586-.687-.586-1.117 0-.43.262-.629.586-.442l15.483 8.888c.323.186.585.686.585 1.117 0 .43-.262.628-.585.442M53.39 54.082l-5.66-3.248c-.323-.186-.585-.687-.585-1.117 0-.43.262-.629.585-.442l5.66 3.248c.324.186.586.687.586 1.117 0 .43-.262.629-.586.442"/>
        <path fill="#123155" fill-rule="nonzero" d="M25.29 80.014c0-2.544 1.538-5.466 3.434-6.526.132-.074.261-.134.39-.186.589-2.988 2.424-5.953 4.597-7.169 1.39-.776 2.64-.684 3.516.09.04.032.079.064.117.097.04.032.079.063.117.097.04.031.079.063.117.097.04.031.079.063.117.097.04.031.079.063.117.096.04.032.079.064.117.097.04.032.078.063.116.097.04.031.08.063.118.097.373.294.685.703.918 1.217.861-.452 1.634-.377 2.176.117.04.03.079.063.116.097.04.03.08.063.117.097.04.03.08.062.117.097.04.03.08.062.117.097.04.03.08.062.117.097.04.03.08.061.117.096.04.03.08.063.117.097.04.03.08.063.117.097.562.427.911 1.264.911 2.404 0 .12-.006.241-.013.362l-16.734 9.36c-.003-.053-.004-.107-.006-.16l-.11.062c-.004-.052-.005-.106-.007-.158l-.111.062c-.003-.053-.003-.106-.006-.16l-.111.063c-.003-.052-.004-.106-.006-.16l-.111.063c-.003-.052-.004-.107-.006-.159l-.11.062c-.004-.052-.005-.106-.007-.159l-.111.062c-.003-.052-.003-.106-.006-.159l-.11.063c-.004-.053-.005-.107-.007-.16l-.11.063-.007-.16-.11.063c-.007-.114-.014-.227-.014-.347"/>
        <path fill="#CECECD" fill-rule="nonzero" d="M26.356 81.232a5.772 5.772 0 0 1-.014-.347c0-2.543 1.538-5.466 3.435-6.526a3.55 3.55 0 0 1 .388-.186c.59-2.988 2.426-5.953 4.6-7.168 2.324-1.3 4.262-.168 4.703 2.528.19-.156.386-.293.586-.405 1.684-.942 3.049.125 3.049 2.383 0 .12-.006.241-.013.363l-16.734 9.358z"/>
        <path fill="#123155" fill-rule="nonzero" d="M13.752 79.512c0-1.574.951-3.382 2.124-4.038.082-.046.162-.083.24-.115.365-1.848 1.501-3.683 2.846-4.435.859-.48 1.633-.423 2.175.056l.072.06c.025.019.05.039.072.06.025.02.05.039.073.06.024.019.049.039.072.06.025.019.05.038.073.06.024.019.048.038.072.06.025.018.05.038.072.059l.073.06c.23.182.423.435.568.753.533-.28 1.01-.233 1.346.073.024.018.049.038.072.06.025.018.05.038.072.06.025.018.05.038.073.06a.932.932 0 0 1 .072.06c.025.018.05.038.073.06.024.018.049.038.072.059.025.019.049.038.072.06.025.019.05.039.073.06.348.264.563.781.563 1.487 0 .074-.003.15-.008.224l-10.353 5.79-.004-.098-.068.039-.004-.099-.069.038c-.002-.031-.002-.065-.003-.098l-.069.039-.004-.099-.068.039-.004-.098-.07.038c-.001-.032-.001-.066-.003-.098l-.068.038-.004-.098-.069.038c-.002-.032-.002-.066-.003-.098l-.069.038-.004-.098-.068.038a3.433 3.433 0 0 1-.008-.214"/>
        <path fill="#1F60AC" fill-rule="nonzero" d="M14.41 80.265a3.433 3.433 0 0 1-.007-.214c0-1.574.951-3.382 2.125-4.038.08-.045.161-.083.24-.115.365-1.849 1.5-3.683 2.845-4.435 1.438-.804 2.637-.104 2.91 1.564a2.52 2.52 0 0 1 .363-.25c1.042-.583 1.887.077 1.887 1.474 0 .074-.004.15-.01.225l-10.352 5.79z"/>
        <path fill="#EAEAE9" fill-rule="nonzero" d="M113.946 160.054c-1.64.285-4.029 1.506-5.432 1.65-1.27.131-1.891-.412-1.545-1.145.607-1.294 3.32-3.282 4.082-4.037 2.1-2.071-.48-2.472-3.194-1.393-1.27.509-8.625 3.975-10.64 2.919-1.663-.858.078-2.12.893-3.282.307-.44.029-1.403-2-1.206-1.659.16-5.544 1.75-6.4 2.181l-1.88 1.15 18.946 10.405 2.014-1.223 6.483-3.853c2.11-1.23.871-2.547-1.327-2.166"/>
        <path fill="#B9B9BA" fill-rule="nonzero" d="M87.882 156.9l-.103-.017 13.227-7.819.106.016zM91.893 158.964l-.102-.016 13.384-7.916.106.015zM95.793 161.037l-.101-.016 13.549-8.014.104.015zM99.581 163.118l-.099-.015 13.72-8.112.103.015zM103.258 165.207l-.097-.015 13.9-8.21.1.014zM106.827 167.305l-.097-.015 14.084-8.31.1.014z"/>
        <path fill="#B9B9BA" fill-rule="nonzero" d="M89.262 156.014a.294.294 0 0 1-.045-.01c-.066-.02-.062-.057.01-.08l9.717-3.087a.514.514 0 0 1 .254-.004c.067.02.064.056-.01.08L89.468 156a.494.494 0 0 1-.207.013"/>
        <path fill="#B9B9BA" fill-rule="nonzero" d="M97.509 157.676c-.06-.008-.096-.029-.089-.052l1.467-4.75c.009-.03.097-.055.196-.055.098 0 .17.025.162.056l-1.473 4.749c-.01.032-.097.057-.195.057a.493.493 0 0 1-.068-.005"/>
        <path fill="#B9B9BA" fill-rule="nonzero" d="M97.509 157.676a.21.21 0 0 1-.062-.017c-.053-.024-.028-.06.055-.08l14.244-3.34a.461.461 0 0 1 .246.01c.051.023.026.058-.057.078l-14.245 3.342a.513.513 0 0 1-.181.007"/>
        <path fill="#B9B9BA" fill-rule="nonzero" d="M107.911 161.039c-.061-.01-.096-.031-.081-.056l3.833-6.703c.018-.03.11-.054.209-.053.096.002.16.029.144.06l-3.843 6.701c-.019.032-.11.057-.205.055a.407.407 0 0 1-.057-.004"/>
        <path fill="#B9B9BA" fill-rule="nonzero" d="M107.911 161.039c-.038-.006-.068-.017-.08-.032-.022-.03.036-.063.13-.075l8.928-1.132c.094-.012.188.002.21.032.022.029-.036.063-.131.075l-8.926 1.132a.493.493 0 0 1-.13 0"/>
        <path fill="#B9B9BA" fill-rule="nonzero" d="M116.837 159.907c-.038-.006-.067-.017-.079-.031-.023-.03.035-.063.129-.075l3.137-.41c.094-.012.189.002.213.031.022.029-.037.063-.13.075l-3.137.41a.496.496 0 0 1-.133 0M97.973 157.82c-.177.106-.49.105-.698-.003-.208-.108-.234-.282-.057-.388.177-.106.49-.105.698.002.209.108.234.282.057.388M99.342 153.133c-.178.104-.495.102-.713-.004-.216-.106-.249-.275-.072-.377.176-.104.496-.102.712.003.217.106.25.275.073.378M112.092 154.544c-.182.104-.498.103-.705-.002-.208-.104-.23-.274-.049-.377.182-.104.498-.103.706.002.208.104.23.273.048.377"/>
        <path fill="#B9B9BA" fill-rule="nonzero" d="M117.229 160.077a.78.78 0 0 1-.69.001c-.195-.106-.203-.28-.018-.387a.787.787 0 0 1 .691-.002c.195.107.203.28.017.388M108.538 161.074c-.183.109-.49.109-.688 0-.196-.108-.209-.282-.026-.391.183-.108.491-.109.69 0 .196.107.208.282.024.39"/>
        <path fill="#CECECD" fill-rule="nonzero" d="M38.342 87.048l5.167-2.966 5.167 3.037-5.167 2.966z"/>
        <path fill="#123155" fill-rule="nonzero" d="M43.51 105.5l-.001-15.415 5.167-2.966v15.414z"/>
        <path fill="#1F60AC" fill-rule="nonzero" d="M38.342 87.048v15.415l5.168 3.036V90.085z"/>
        <path fill="#CECECD" fill-rule="nonzero" d="M30.592 97.496l5.167-2.967 5.167 3.037-5.167 2.967z"/>
        <path fill="#123155" fill-rule="nonzero" d="M35.76 109.787v-9.254l5.166-2.966v9.254z"/>
        <path fill="#1F60AC" fill-rule="nonzero" d="M30.592 97.496v9.254l5.167 3.037v-9.254z"/>
        <path fill="#CECECD" fill-rule="nonzero" d="M22.842 106.014l5.167-2.966 5.166 3.037-5.166 2.966z"/>
        <path fill="#123155" fill-rule="nonzero" d="M28.009 114.073v-5.021l5.166-2.967v5.021z"/>
        <path fill="#1F60AC" fill-rule="nonzero" d="M22.842 106.014v5.022l5.167 3.037v-5.022z"/>
        <path fill="#123155" fill-rule="nonzero" d="M139.313 106.595l-38.323-23.24c-.351-.203-.637-.747-.637-1.214l-.863-29.802c0-.467 1.12-1.296 1.473-1.094l39.165 22.522c.352.202.638.746.638 1.214l.026 30.414c0 .468-1.127 1.403-1.48 1.2"/>
        <path fill="#EAEAE9" fill-rule="nonzero" d="M139.313 106.595l-39.165-22.521c-.352-.203-.638-.746-.638-1.214l-.026-30.414c0-.468.284-.683.636-.48l39.165 22.52c.352.203.638.746.638 1.214l.026 30.414c0 .468-.284.684-.636.481"/>
        <path fill="#ADADAD" fill-rule="nonzero" d="M110.757 62.72l-.063 22.228-8.097-4.667.063-22.228z"/>
        <path fill="#123155" fill-rule="nonzero" d="M120.22 79.831l15.4 8.876-.03 10.588-15.4-8.876z"/>
        <path fill="#ADADAD" fill-rule="nonzero" d="M135.736 85.96l-.004 1.2-23.676-13.645.003-1.2zM135.742 83.753l-.003 1.2-23.677-13.645.003-1.2zM119.394 79.355l-.03 10.588-7.343-4.23.03-10.589z"/>
        <path fill="#F4901F" fill-rule="nonzero" d="M135.748 81.543l-.003 1.203L112.068 69.1l.004-1.202zM135.755 79.336l-.004 1.2-23.676-13.644.003-1.2zM135.758 78.33l.003-1.201-23.677-13.645-.003 1.2z"/>
        <path fill="#EAEAE9" fill-rule="nonzero" d="M126.724 91.135l1.894-.866-1.883-3.042z"/>
        <path fill="#123155" fill-rule="nonzero" d="M129.287 147.134c0 .086.063.191.142.236l.25.145c.08.045.207.045.285 0l1.854-1.069a.305.305 0 0 0 .143-.236.308.308 0 0 0-.143-.237l-.25-.143a.313.313 0 0 0-.285 0l-1.854 1.068a.306.306 0 0 0-.142.236"/>
        <path fill="#123155" fill-rule="nonzero" d="M131.818 145.973a.307.307 0 0 1 .143.237c0 .085-.064.19-.143.236l-1.854 1.068a.291.291 0 0 1-.143.035v-.569l1.872-1.078.125.071z"/>
        <path fill="#F4901F" fill-rule="nonzero" d="M129.679 147.206l-.25-.144c-.079-.045-.079-.119 0-.164l1.854-1.069a.316.316 0 0 1 .285 0l.25.144c.079.046.079.12 0 .165l-1.854 1.068a.316.316 0 0 1-.285 0"/>
        <path fill="#123155" fill-rule="nonzero" d="M127.683 146.21c0 .085.064.19.142.236l.785.452a.316.316 0 0 0 .285 0l2.12-1.222a.304.304 0 0 0 .143-.237.305.305 0 0 0-.143-.236l-.784-.452a.317.317 0 0 0-.285 0l-2.121 1.222a.304.304 0 0 0-.142.237"/>
        <path fill="#123155" fill-rule="nonzero" d="M131.015 145.203a.306.306 0 0 1 .143.237c0 .084-.063.19-.142.235l-2.121 1.223a.29.29 0 0 1-.142.034v-.722l1.972-1.174.29.167z"/>
        <path fill="#F4901F" fill-rule="nonzero" d="M130.231 144.751l.784.452c.08.046.08.12 0 .165l-2.12 1.222a.316.316 0 0 1-.286 0l-.784-.452c-.079-.046-.079-.12 0-.165l2.12-1.222a.317.317 0 0 1 .286 0"/>
        <path fill="#123155" fill-rule="nonzero" d="M121.35 144.04c0 .083.063.114.14.07l1.03-.594a.306.306 0 0 1 .28 0l4.174 2.406a.313.313 0 0 0 .28 0l2.079-1.198a.299.299 0 0 0 .139-.232.3.3 0 0 0-.14-.231l-3.912-2.255c-.078-.044-.078-.117 0-.161l.768-.443a.298.298 0 0 0 .14-.232c0-.083-.073-.154-.162-.158l-5.033-.22a.132.132 0 0 0-.142.152l.339 2.785c.01.088.02.227.02.31"/>
        <path fill="#123155" fill-rule="nonzero" d="M125.42 142.006c-.078-.044-.078-.117 0-.16l.768-.444a.3.3 0 0 0 .14-.232c0-.083-.073-.154-.162-.158l-.744-.032-1.316.756.922 1.197 1.103-.517-.711-.41zM127.254 145.922l2.079-1.198a.298.298 0 0 0 .14-.232.3.3 0 0 0-.14-.231l-.26-.15-1.973 1.078v.764a.293.293 0 0 0 .154-.03"/>
        <path fill="#EAEAE9" fill-rule="nonzero" d="M129.332 144.26l-4.175-2.405c-.077-.044-.077-.117 0-.161l1.03-.594c.079-.045.068-.084-.02-.088l-5.034-.22a.132.132 0 0 0-.142.152l.339 2.785c.011.088.082.123.16.08l1.03-.595a.31.31 0 0 1 .28 0l4.174 2.406a.307.307 0 0 0 .28 0l2.078-1.198c.077-.045.077-.117 0-.161"/>
        <path fill="#123155" fill-rule="nonzero" d="M64.902 109.636c0 .085.064.19.142.236l.25.144c.08.045.207.045.285 0l1.854-1.068a.304.304 0 0 0 .142-.237.306.306 0 0 0-.142-.236l-.25-.144a.312.312 0 0 0-.285 0l-1.854 1.069a.306.306 0 0 0-.142.236"/>
        <path fill="#123155" fill-rule="nonzero" d="M67.433 108.475a.306.306 0 0 1 .142.237c0 .084-.063.19-.142.235l-1.854 1.07a.293.293 0 0 1-.142.033v-.568l1.871-1.078.125.071z"/>
        <path fill="#1F60AC" fill-rule="nonzero" d="M65.294 109.708l-.25-.144c-.079-.045-.079-.119 0-.164l1.854-1.069a.315.315 0 0 1 .285 0l.25.144c.078.045.078.119 0 .164l-1.854 1.069a.316.316 0 0 1-.285 0"/>
        <path fill="#123155" fill-rule="nonzero" d="M63.298 108.711c0 .086.064.191.143.237l.784.452a.316.316 0 0 0 .285 0l2.121-1.223a.305.305 0 0 0 .142-.236.305.305 0 0 0-.142-.236l-.785-.452a.316.316 0 0 0-.285 0l-2.121 1.222a.306.306 0 0 0-.142.236"/>
        <path fill="#123155" fill-rule="nonzero" d="M66.63 107.705a.306.306 0 0 1 .143.236c0 .085-.063.19-.142.236L64.51 109.4a.29.29 0 0 1-.143.034v-.722l1.973-1.174.29.167z"/>
        <path fill="#1F60AC" fill-rule="nonzero" d="M65.846 107.253l.785.451c.078.046.078.12 0 .165l-2.122 1.222a.315.315 0 0 1-.284 0l-.785-.452c-.078-.045-.078-.119 0-.164l2.121-1.222a.316.316 0 0 1 .285 0"/>
        <path fill="#123155" fill-rule="nonzero" d="M56.965 106.541c0 .084.063.115.14.07l1.03-.593a.307.307 0 0 1 .28 0l4.175 2.406a.313.313 0 0 0 .279 0l2.079-1.198a.299.299 0 0 0 .14-.232.3.3 0 0 0-.14-.232l-3.913-2.254c-.078-.045-.078-.117 0-.162l.768-.443a.298.298 0 0 0 .14-.23c0-.084-.072-.155-.162-.16l-5.033-.22a.132.132 0 0 0-.142.153l.34 2.784c.01.088.019.228.019.311"/>
        <path fill="#123155" fill-rule="nonzero" d="M61.034 104.508c-.076-.045-.076-.117 0-.161l.77-.443a.3.3 0 0 0 .139-.232c0-.083-.073-.154-.161-.158l-.745-.033-1.315.756.922 1.197 1.102-.517-.712-.41zM62.869 108.424l2.079-1.198a.298.298 0 0 0 .14-.232.3.3 0 0 0-.14-.232l-.26-.149-1.973 1.077v.765a.294.294 0 0 0 .154-.031"/>
        <path fill="#EAEAE9" fill-rule="nonzero" d="M64.947 106.762l-4.174-2.406c-.078-.044-.078-.116 0-.16l1.03-.594c.078-.045.068-.084-.022-.088l-5.033-.22a.132.132 0 0 0-.142.152l.34 2.784c.01.088.081.124.158.08l1.031-.595a.31.31 0 0 1 .28 0l4.174 2.406a.307.307 0 0 0 .28 0l2.078-1.198c.077-.044.077-.116 0-.16"/>
        <g transform="translate(0 117.096)">
            <mask id="b" fill="#fff">
                <use xlink:href="#a"/>
            </mask>
            <path fill="#123155" fill-rule="nonzero" d="M.65 1.607C.218 1.357 0 1.03 0 .702V.327h4.442v.375c0 .328-.216.655-.65.905-.868.5-2.274.5-3.141 0" mask="url(#b)"/>
        </g>
        <g transform="translate(0 116.133)">
            <mask id="d" fill="#fff">
                <use xlink:href="#c"/>
            </mask>
            <path fill="#EAEAE9" fill-rule="nonzero" d="M.65 2.195c-.867-.5-.867-1.31 0-1.81.868-.5 2.274-.5 3.142 0 .868.5.868 1.31 0 1.81s-2.274.5-3.141 0" mask="url(#d)"/>
        </g>
        <path fill="#123155" fill-rule="nonzero" d="M5.55 115.882c-.434-.25-.652-.578-.652-.906v-.375h4.443v.375c0 .328-.217.656-.65.906-.868.5-2.274.5-3.142 0"/>
        <path fill="#F4901F" fill-rule="nonzero" d="M5.55 115.507c-.868-.5-.868-1.31 0-1.81.867-.5 2.273-.5 3.14 0 .868.5.868 1.31 0 1.81-.867.5-2.273.5-3.14 0"/>
        <path fill="#123155" fill-rule="nonzero" d="M10.448 113.06c-.434-.25-.651-.578-.651-.905v-.376h4.442v.376c0 .327-.216.655-.65.905-.868.5-2.274.5-3.141 0"/>
        <path fill="#EAEAE9" fill-rule="nonzero" d="M10.448 112.685c-.868-.5-.868-1.31 0-1.81.867-.5 2.273-.5 3.14 0 .868.5.868 1.31 0 1.81-.867.5-2.273.5-3.14 0"/>
        <path fill="#123155" fill-rule="nonzero" d="M15.346 110.238c-.434-.25-.65-.578-.65-.905v-.375h4.442v.374c0 .328-.217.656-.65.906-.868.5-2.274.5-3.142 0"/>
        <path fill="#EAEAE9" fill-rule="nonzero" d="M15.346 109.863c-.867-.5-.867-1.31 0-1.81.868-.5 2.274-.5 3.141 0 .868.5.868 1.31 0 1.81-.867.5-2.273.5-3.14 0"/>
        <g transform="translate(82.982 145.991)">
            <mask id="f" fill="#fff">
                <use xlink:href="#e"/>
            </mask>
            <path fill="#EAEAE9" fill-rule="nonzero" d="M23.094 23.905c.885.51 2.323.51 3.208 0l15.045-8.97c.402-.232.623-.532.623-.845 0-.313-.221-.612-.623-.843L19.824 1.075c-.884-.51-2.323-.51-3.207 0L1.12 9.835c-.4.231-.622.53-.622.844 0 .313.221.612.622.844l21.974 12.382zm1.604.656c-.63 0-1.263-.139-1.743-.416L.981 11.763c-.491-.282-.762-.668-.762-1.084 0-.417.27-.802.762-1.085L16.477.834c.961-.554 2.525-.555 3.487 0l21.523 12.172c.491.283.761.667.762 1.084 0 .416-.27.802-.762 1.085l-15.046 8.97c-.48.277-1.112.416-1.743.416z" mask="url(#f)"/>
        </g>
    </g>
</svg>
