<?xml version="1.0" encoding="utf-8"?>
<!-- Generator: Adobe Illustrator 21.1.0, SVG Export Plug-In . SVG Version: 6.00 Build 0)  -->
<svg version="1.1" id="Layer_1" xmlns:sketch="http://www.bohemiancoding.com/sketch/ns"
	 xmlns="http://www.w3.org/2000/svg" xmlns:xlink="http://www.w3.org/1999/xlink" x="0px" y="0px" viewBox="0 0 84 84"
	 style="enable-background:new 0 0 84 84;" xml:space="preserve">
<style type="text/css">
	.st0{fill:#EEEEEE;}
	.st1{fill:#FFFFFF;}
	.st2{fill:#005EB8;}
	.st3{fill:none;stroke:#F2EDED;}
</style>
<g sketch:type="MSShapeGroup">
	<g id="path-1">
		<path class="st0" d="M41,81.8C19.6,81.8,2.2,64.4,2.2,43v-2c0-21.4,17.3-38.7,38.7-38.7h2c21.4,0,38.8,17.4,38.8,38.8v2
			c0,21.4-17.4,38.8-38.8,38.8L41,81.8L41,81.8z"/>
		<path class="st1" d="M43,3.2c20.8,0,37.8,16.9,37.8,37.8v2c0,20.8-16.9,37.8-37.8,37.8h-2c-20.8,0-37.8-17-37.8-37.9v-2
			c0-20.8,16.9-37.7,37.7-37.7L43,3.2 M43,1.2h-2C19.1,1.2,1.2,18.9,1.2,40.9v2c0,22,17.8,39.8,39.8,39.8h2
			c21.9,0,39.7-17.8,39.7-39.8v-2C82.8,18.9,65,1.2,43,1.2L43,1.2z"/>
	</g>
</g>
<g>
	<path class="st2" d="M27.8,32.8v-1.6"/>
</g>
<g>
	<path id="path-1_1_" class="st3" d="M41,1.2h2c22,0,39.8,17.7,39.8,39.7v2c0,22-17.8,39.8-39.8,39.8h-2
		c-21.9,0-39.8-17.8-39.8-39.8v-2C1.2,18.9,19.1,1.2,41,1.2z"/>
</g>
<g>
	<g>
		<path class="st2" d="M61.2,24.7H22.8c-0.6,0-1.1,0.5-1.1,1.1v32.5c0,0.6,0.5,1.1,1.1,1.1h38.4c0.6,0,1.1-0.5,1.1-1.1V25.7
			C62.3,25.1,61.8,24.7,61.2,24.7z M35.6,27.9c0.7,0,1.4,0.6,1.4,1.5c0,0.9-0.6,1.5-1.4,1.5c-0.9,0-1.5-0.6-1.5-1.5
			C34.1,28.5,34.7,27.9,35.6,27.9z M31.1,27.9c0.7,0,1.5,0.6,1.5,1.5c0,0.9-0.6,1.5-1.5,1.5s-1.5-0.6-1.5-1.5
			C29.7,28.5,30.4,27.9,31.1,27.9z M26.9,27.9c0.9,0,1.5,0.6,1.5,1.5c0,0.9-0.6,1.5-1.5,1.5c-0.7,0-1.5-0.6-1.5-1.5
			C25.4,28.5,26,27.9,26.9,27.9z M59.4,56.5H24.6V34.1h34.8V56.5z M59.4,30.1H39.1v-1.5h20.3V30.1z"/>
	</g>
	<g>
		<path class="st2" d="M37,49.4l-8-3.6v-1.4l8-4v2.4L32.1,45l4.9,2V49.4z"/>
		<path class="st2" d="M45.6,39l-4.3,11.9h-2.7L42.8,39H45.6z"/>
		<path class="st2" d="M47,47l4.9-2L47,42.8v-2.4l8,4v1.4l-8,3.6V47z"/>
	</g>
</g>
</svg>
