<?xml version="1.0" encoding="UTF-8" standalone="no"?>
<svg
   xmlns:dc="http://purl.org/dc/elements/1.1/"
   xmlns:cc="http://creativecommons.org/ns#"
   xmlns:rdf="http://www.w3.org/1999/02/22-rdf-syntax-ns#"
   xmlns:svg="http://www.w3.org/2000/svg"
   xmlns="http://www.w3.org/2000/svg"
   xmlns:sodipodi="http://sodipodi.sourceforge.net/DTD/sodipodi-0.dtd"
   xmlns:inkscape="http://www.inkscape.org/namespaces/inkscape"
   version="1.1"
   id="Capa_1"
   x="0px"
   y="0px"
   width="512px"
   height="512px"
   viewBox="0 0 97.054 97.054"
   style="enable-background:new 0 0 97.054 97.054;"
   xml:space="preserve"
   class=""
   sodipodi:docname="simple-orange.svg"
   inkscape:version="0.92.4 (5da689c313, 2019-01-14)"><metadata
   id="metadata19"><rdf:RDF><cc:Work
       rdf:about=""><dc:format>image/svg+xml</dc:format><dc:type
         rdf:resource="http://purl.org/dc/dcmitype/StillImage" /><dc:title /></cc:Work></rdf:RDF></metadata><defs
   id="defs17" /><sodipodi:namedview
   pagecolor="#ffffff"
   bordercolor="#666666"
   borderopacity="1"
   objecttolerance="10"
   gridtolerance="10"
   guidetolerance="10"
   inkscape:pageopacity="0"
   inkscape:pageshadow="2"
   inkscape:window-width="3840"
   inkscape:window-height="2066"
   id="namedview15"
   showgrid="false"
   inkscape:zoom="0.32593203"
   inkscape:cx="-1848.0868"
   inkscape:cy="1780.17"
   inkscape:window-x="-11"
   inkscape:window-y="-11"
   inkscape:window-maximized="1"
   inkscape:current-layer="Capa_1" /><g
   id="g12"
   transform="rotate(90,48.527,48.527)"
   style="fill-opacity:1;fill:#008ccf"><g
     id="g10"
     style="fill-opacity:1;fill:#008ccf">
	<g
   id="g8"
   style="fill-opacity:1;fill:#008ccf">
		<path
   d="m 63.027,0 h -29 v 29 h 29 z m -5,24 h -19 V 5 h 19 z"
   data-original="#000000"
   class="active-path"
   data-old_color="#000000"
   id="path2"
   inkscape:connector-curvature="0"
   style="fill:#008ccf;fill-opacity:1" />
		<rect
   x="46.026001"
   y="33.952"
   width="5"
   height="28.844999"
   data-original="#000000"
   class="active-path"
   data-old_color="#000000"
   id="rect4"
   style="fill:#008ccf;fill-opacity:1" />
		<path
   d="m 48.527,66.804 c -8.34,0 -15.125,6.785 -15.125,15.125 0,8.341 6.785,15.125 15.125,15.125 8.34,0 15.125,-6.784 15.125,-15.125 0,-8.34 -6.785,-15.125 -15.125,-15.125 z m 0,25.25 c -5.583,0 -10.125,-4.542 -10.125,-10.125 0,-5.583 4.542,-10.125 10.125,-10.125 5.583,0 10.125,4.542 10.125,10.125 0,5.583 -4.542,10.125 -10.125,10.125 z"
   data-original="#000000"
   class="active-path"
   data-old_color="#000000"
   id="path6"
   inkscape:connector-curvature="0"
   style="fill:#008ccf;fill-opacity:1" />
	</g>
</g></g> </svg>