<?xml version="1.0" encoding="utf-8"?>
<!-- Generator: Adobe Illustrator 21.1.0, SVG Export Plug-In . SVG Version: 6.00 Build 0)  -->
<svg version="1.1" id="design" xmlns="http://www.w3.org/2000/svg" xmlns:xlink="http://www.w3.org/1999/xlink" x="0px" y="0px"
	 viewBox="0 0 835 280" style="enable-background:new 0 0 835 280;" xml:space="preserve">
<style type="text/css">
	.st0{fill:#F7F7F7;}
	.st1{fill:#D8D8D8;}
	.st2{fill:#BDDDF4;}
	.st3{fill:#D6EEFC;}
	.st4{fill:#0A84F2;}
	.st5{fill:#FBB040;}
	.st6{fill:#005EB8;}
	.st7{fill:#FFFFFF;}
	.st8{clip-path:url(#SVGID_2_);}
	.st9{fill:#FFD3AE;}
	.st10{fill:#ED8B00;}
	.st11{fill:#2C3233;}
	.st12{fill:#B5785D;}
	.st13{fill:none;}
	.st14{fill:none;stroke:#005EB8;stroke-width:2.5;stroke-miterlimit:10;}
	.st15{fill:#FDDFB3;}
	.st16{fill:#95C8EC;}
	.st17{fill:#B0BEC5;}
	.st18{fill:#2A9DF2;}
	.st19{fill:#D9EAF5;}
	.st20{fill:#B1D4EA;}
	.st21{fill:#EFEFEF;}
	.st22{fill:#3F535C;}
	.st23{fill:#3A3A3A;}
	.st24{fill:#0E1111;}
	.st25{fill:#9AD3E5;}
	.st26{fill:#476C85;}
	.st27{fill:#C6CEDB;}
	.st28{fill:#DDE4ED;}
	.st29{clip-path:url(#SVGID_5_);}
	.st30{fill:none;stroke:#0071BC;stroke-width:1.66;stroke-miterlimit:10;}
	.st31{fill:#2F3E45;}
	.st32{fill:#02355E;}
	.st33{fill:#F4A031;}
	.st34{fill:none;stroke:#FFFFFF;stroke-width:1.5;stroke-miterlimit:10;}
	.st35{clip-path:url(#SVGID_7_);}
	.st36{fill:none;stroke:#EFEFEF;stroke-width:3.5;stroke-miterlimit:10;}
	.st37{fill:none;stroke:#D6EEFC;stroke-width:3.5;stroke-miterlimit:10;}
</style>
<g>
	<ellipse class="st0" cx="418.2" cy="265.6" rx="292.3" ry="13.9"/>
	<circle class="st1" cx="239.2" cy="153" r="4.5"/>
	<g>
		<rect x="412.1" y="229.4" class="st2" width="86.4" height="30.3"/>
		<path class="st3" d="M316.3,50.2h278c7.9,0,14.2,6.4,14.2,14.2v151.3c0,7.9-6.4,14.2-14.2,14.2h-278c-7.9,0-14.2-6.4-14.2-14.2
			V64.5C302.1,56.6,308.4,50.2,316.3,50.2z"/>
		<rect x="311.5" y="58.5" class="st4" width="287.5" height="146"/>
		<path class="st3" d="M525.5,259.5H385.2c-3,0-5.5,2.5-5.5,5.5c0,3,2.5,5.5,5.5,5.5h140.3c3,0,5.5-2.5,5.5-5.5
			C531,262,528.5,259.5,525.5,259.5z"/>
		<rect x="324.1" y="20" class="st5" width="262.4" height="184.5"/>
		<rect x="324.1" y="0" class="st6" width="262.4" height="20"/>
		<rect x="341" y="32.2" class="st7" width="226.7" height="158.7"/>
		<rect x="418.9" y="43.4" class="st1" width="29.9" height="4.2"/>
		<rect x="452.8" y="43.4" class="st1" width="37.2" height="4.2"/>
		<rect x="497.7" y="43.4" class="st1" width="13.6" height="4.2"/>
		<rect x="418.9" y="50.1" class="st1" width="10.8" height="4.2"/>
		<rect x="435.2" y="50.1" class="st1" width="31.3" height="4.2"/>
		<rect x="418.9" y="67" class="st1" width="29.9" height="4.2"/>
		<rect x="452.8" y="67" class="st1" width="37.2" height="4.2"/>
		<rect x="497.7" y="67" class="st1" width="13.6" height="4.2"/>
		<rect x="418.9" y="73.7" class="st1" width="10.8" height="4.2"/>
		<rect x="435.2" y="73.7" class="st1" width="31.3" height="4.2"/>
		<rect x="418.9" y="96.8" class="st1" width="29.9" height="4.2"/>
		<rect x="452.8" y="96.8" class="st1" width="37.2" height="4.2"/>
		<rect x="497.7" y="96.8" class="st1" width="13.6" height="4.2"/>
		<rect x="418.9" y="103.5" class="st1" width="10.8" height="4.2"/>
		<rect x="435.2" y="103.5" class="st1" width="31.3" height="4.2"/>
		<rect x="418.9" y="119.4" class="st1" width="29.9" height="4.2"/>
		<rect x="452.8" y="119.4" class="st1" width="37.2" height="4.2"/>
		<rect x="497.7" y="119.4" class="st1" width="13.6" height="4.2"/>
		<rect x="418.9" y="126.2" class="st1" width="10.8" height="4.2"/>
		<rect x="435.2" y="126.2" class="st1" width="31.3" height="4.2"/>
		<rect x="418.9" y="143" class="st1" width="29.9" height="4.2"/>
		<rect x="452.8" y="143" class="st1" width="37.2" height="4.2"/>
		<rect x="497.7" y="143" class="st1" width="13.6" height="4.2"/>
		<rect x="418.9" y="149.7" class="st1" width="10.8" height="4.2"/>
		<rect x="435.2" y="149.7" class="st1" width="31.3" height="4.2"/>
		<rect x="350.1" y="165.4" class="st1" width="22.7" height="4.2"/>
		<rect x="375.8" y="165.4" class="st1" width="28.2" height="4.2"/>
		<rect x="409.9" y="165.4" class="st1" width="10.3" height="4.2"/>
		<rect x="350.1" y="172.1" class="st1" width="8.2" height="4.2"/>
		<rect x="362.4" y="172.1" class="st1" width="23.8" height="4.2"/>
		<rect x="521.8" y="90" class="st1" width="34" height="4.7"/>
		<rect x="521.8" y="43.1" class="st1" width="34" height="37.4"/>
		<rect x="521.8" y="103.1" class="st1" width="34" height="4.7"/>
		<rect x="521.8" y="116.3" class="st1" width="34" height="4.7"/>
		<rect x="521.8" y="129.3" class="st1" width="34" height="4.7"/>
		<rect x="521.8" y="142.5" class="st1" width="34" height="4.7"/>
		<rect x="521.8" y="155.6" class="st1" width="34" height="4.7"/>
		<rect x="521.8" y="168.8" class="st1" width="34" height="4.7"/>
		<rect x="527.2" y="47.7" class="st7" width="23.2" height="4.7"/>
		<rect x="527.2" y="55.5" class="st7" width="23.2" height="4.7"/>
		<rect x="527.2" y="63.3" class="st7" width="23.2" height="4.7"/>
		<rect x="527.2" y="71.1" class="st7" width="23.2" height="4.7"/>
		<ellipse transform="matrix(0.6908 -0.7231 0.7231 0.6908 67.9144 295.8849)" class="st3" cx="379.9" cy="68.5" rx="19" ry="19"/>
		<g>
			<g>
				<g>
					<defs>
						
							<ellipse id="SVGID_1_" transform="matrix(0.5364 -0.844 0.844 0.5364 118.2948 352.362)" cx="379.9" cy="68.5" rx="19" ry="19"/>
					</defs>
					<clipPath id="SVGID_2_">
						<use xlink:href="#SVGID_1_"  style="overflow:visible;"/>
					</clipPath>
					<g class="st8">
						<path class="st9" d="M403.5,114.8c-0.5,0.4-1.1,0.5-0.7,0.9c0.4,0.4,1.9-0.5,2-0.8c0.2-0.5,0.3-1,0.1-1.6
							C404.4,113.9,403.9,114.4,403.5,114.8z"/>
						<path class="st9" d="M404.7,113.4c-0.5,1.9-1,2.6-0.9,3.4c0,0.4,3.3,1.2,3.7-0.4c0-0.1,0.2-1.1,0.5-2.4
							C406.9,113.7,405.8,113.5,404.7,113.4z"/>
						<path class="st9" d="M386.9,74.8c-1.2,0.5-6.3,6-5.8,6.5c2.6,2.6,12.6,8.3,16.9,12c5.3,4.6,6.6-0.7,5.4-2.6
							C400.3,85.6,389.6,73.5,386.9,74.8z"/>
						<path class="st9" d="M402.4,89.6c-2.4-0.5-3.4,0.9-3.6,2.2c0,0.3,0,0.5,0,0.7c0.7,3.8,5.8,17.5,5.9,21.6
							c1.1-0.2,2.2-0.2,3.2,0C408.2,111.9,404.9,90.2,402.4,89.6z"/>
						<path class="st10" d="M386,72.3c-1.2,0.6-6.8,9.1-6.6,9.3c1.3,1.3,18.6,12.2,19,12.5c0.5,1.6,1.3,3.3,2,5.6
							c1.6,4.8,3.6,10.8,3.7,13.1l4.7-0.5c-0.4-5.8-2.7-18.8-5.1-22.6C401.2,85.6,389.5,70.5,386,72.3z"/>
						<path class="st11" d="M361,105.8c0,0-0.5,6.5-0.5,12.1c4,1.5,8.2,2.3,12.5,2.4l1.9-5.6c0,0,2.6,5.7,3.6,5.7
							c5.6,0.1,11.2-0.5,15.1-2.7l-2.1-8.5L361,105.8z"/>
						<path class="st12" d="M377.8,62.3c0.2,1.7-0.5,6.4-1.1,7.3c1.3,3.2,6.4,3.4,6.8,1.6c-0.7-2,0.3-5.7,0.3-6
							C382.5,65.2,378.3,62.6,377.8,62.3z"/>
						<path class="st10" d="M391.8,80.6c0.7-2.9-0.5-6-3.1-7.6c-0.8-0.5-5.2-2-5.2-2c-0.5,0.7-1.5,1.1-2.4,1.2
							c-1.8-0.2-4.5-2.6-4.5-2.6s-3.9,0.9-5.2,1.2c-3.9,0.8-5.9,4.3-6.9,7.5c-2.3,7.3-4,24.1-4.4,28.5c-0.1,0.7,0.3,1.5,0.9,1.9
							c7.5,4.9,26.8,3.9,30.2,2.4C394,110,390,89.4,391.8,80.6z"/>
						<path class="st9" d="M358.7,120.8c0-0.2,0-2.2-0.1-3.1c-0.1-0.7-0.2-1.6-0.4-2.3c-1.1-0.2-2.2-0.2-3.3-0.2
							c0.1,1.3,0.8,5.2,0.8,5.3c0,1.6,0.5,2,0.8,1.6c0.1-0.1,0.5,1,0.8,0.8c0.1,0.2,0.4,0.3,0.5,0.2c0.3-0.2,0.5-0.5,0.7-0.7
							C358.7,122,358.7,121.5,358.7,120.8z"/>
						<path class="st9" d="M368.9,73.9c-2.9-0.8-11.3,13.1-13.4,18.4c-0.8,2.1,1.4,7,5.8,1.6c3.6-4.4,12.5-11.8,14.5-14.8
							C376.2,78.6,370.2,74.3,368.9,73.9z"/>
						<path class="st9" d="M360.2,92.7c-0.4-1.2-1.6-2.6-3.9-1.6c-2.5,1.1-2.2,18-1.4,24.7c1.1-0.2,2.2-0.2,3.3-0.1
							c-0.6-4,2-18.4,2.1-22.3C360.4,93.2,360.3,93,360.2,92.7z"/>
						<path class="st10" d="M369.7,71.7c-3.8-1.1-13.1,15.2-14.8,19.5c-1.7,4.1-1.6,17.7-0.9,23.5l4.7-0.3
							c-0.3-2.3,0.6-8.5,1.4-13.5c0.4-2.3,0.6-4.5,0.8-6.1c5.9-4,11.1-9,15.4-14.7C377.1,78.7,370.9,72.1,369.7,71.7z"/>
						<path class="st11" d="M391.8,73.3c-1.2-0.6-4.2-1.9-3.4-5.7c0.6-2.2,0.4-4.5-0.6-6.5c-0.9-1.8-4.7,1.7-4.7,1.7
							c0.6,1.6,0.4,3.8,0,6c-0.4,2.1-2,3.6,0.1,6.6C386.9,80.6,393.3,74.1,391.8,73.3z"/>
						<path class="st12" d="M383,55.9c-2.5,0.1-4.5,2.6-4.4,5l0.1,2.6c0.1,1.9,3,4.7,4.7,4.3c3.8-0.9,4.4-7.9,4.2-8.8
							C387.2,56.9,385.4,55.9,383,55.9z"/>
						<path class="st11" d="M374.5,54.4c-2.7,3-3.7,7.2-2.5,11.1c1.4,4.3-1.6,5.2-2.6,6.7c-3.9,6.4,10.3,7.8,10.2,1.9
							c0-2.3-1.1-6.2-1.7-8.6c-0.7-3.1,1-6.5,1-6.5c1.6,0.4,3.4,0.6,5,0.8c0.9,0.1,3.3,0,3.3,0s-0.1,1.8-0.5,3.8
							c2.1-1.9,1.9-7.3-0.4-9.4C383.2,50.9,377.8,51,374.5,54.4z"/>
						<path class="st12" d="M377.4,61.4c0.1,0.7,0.5,1.5,1.2,1.8c0.5-0.9,0.8-1.8,1.2-2.8c-0.3-0.2-0.6-0.4-1-0.4
							C378.2,59.9,377.4,60.7,377.4,61.4z"/>
					</g>
				</g>
			</g>
		</g>
		<path class="st13" d="M522.5,76.4c0.5,0.3,1.1,0.5,1.7,0.6c0.2,0,0.5,0,0.8,0l-1.3-1.8L522.5,76.4z"/>
		<path class="st14" d="M377.3,95.2c-13.7-1.3-24.2-12.8-24.2-26.5c0-0.3,0-0.6,0-0.9"/>
		<polygon class="st6" points="357.1,73.2 353.1,68.5 348.4,72.5 348.7,68.8 353.4,64.8 357.4,69.5 		"/>
		<path class="st14" d="M406,63.3c2.9,14.5-6.4,28.5-20.9,31.4c-0.8,0.2-1.6,0.3-2.4,0.4"/>
		<path class="st14" d="M354.3,60.6c4.4-14.1,19.4-22,33.4-17.6c7.1,2.2,12.9,7.2,16.1,13.9"/>
		<polygon class="st6" points="397.8,54 403.5,56.2 405.8,50.5 407.3,53.9 405,59.6 399.3,57.4 		"/>
		<polygon class="st6" points="387.4,89.4 385.1,95.1 390.7,97.4 387.4,98.9 381.7,96.6 384,90.9 		"/>
		<path class="st7" d="M336.2,7.4c-0.6,0-1.2,0.3-1.6,0.8c-0.4,0.7-0.6,1.5-0.6,2.2c0,2,0.8,3,2.3,3c0.4,0,0.9-0.1,1.3-0.2
			c0.4-0.1,0.9-0.3,1.3-0.5V15c-0.9,0.4-1.9,0.6-2.9,0.6c-1.3,0.1-2.6-0.4-3.6-1.3c-0.9-1.1-1.3-2.5-1.2-3.9c0-1,0.2-1.9,0.6-2.8
			c0.4-0.8,1-1.4,1.7-1.9c0.8-0.4,1.7-0.7,2.6-0.6c1.1,0,2.2,0.2,3.2,0.7L338.4,8c-0.4-0.2-0.7-0.3-1.1-0.5
			C337.1,7.5,336.6,7.4,336.2,7.4z"/>
		<path class="st7" d="M344.4,11.8v3.7h-2.8V5.2h3.4c2.8,0,4.2,1,4.2,3c0,1.2-0.7,2.3-1.7,2.8l3,4.5h-3.3l-2.2-3.7H344.4z
			 M344.4,9.7h0.5c1,0,1.5-0.4,1.5-1.3c0-0.7-0.5-1-1.4-1h-0.5L344.4,9.7L344.4,9.7z"/>
		<path class="st7" d="M356.7,15.5l-2.1-7.4h-0.1c0.1,1.3,0.1,2.2,0.1,2.9v4.5h-2.5V5.2h3.7l2.1,7.3h0.1l2.1-7.3h3.7v10.3h-2.5V11
			c0-0.2,0-0.5,0-0.8s0-1,0.1-2.1h-0.1l-2.1,7.4H356.7z"/>
	</g>
	<g>
		
			<rect x="10.8" y="212.6" transform="matrix(1 -3.316084e-03 3.316084e-03 1 -0.7132 4.465646e-02)" class="st15" width="4.7" height="5"/>
		
			<rect x="31.6" y="212.5" transform="matrix(1 -3.316084e-03 3.316084e-03 1 -0.7127 0.1138)" class="st3" width="4.7" height="5"/>
		
			<rect x="38.5" y="212.5" transform="matrix(1 -3.316084e-03 3.316084e-03 1 -0.7127 0.1367)" class="st1" width="4.7" height="5"/>
		
			<rect x="45.7" y="212.5" transform="matrix(1 -3.316084e-03 3.316084e-03 1 -0.7127 0.1605)" class="st16" width="4.7" height="5"/>
		
			<rect x="52.6" y="212.5" transform="matrix(1 -3.316084e-03 3.316084e-03 1 -0.7126 0.1833)" class="st16" width="4.7" height="5"/>
		
			<rect x="59.6" y="212.4" transform="matrix(1 -3.316084e-03 3.316084e-03 1 -0.7123 0.2065)" class="st16" width="4.7" height="5"/>
		
			<rect x="66.5" y="212.4" transform="matrix(1 -3.316084e-03 3.316084e-03 1 -0.7122 0.2293)" class="st17" width="4.7" height="5"/>
		
			<rect x="73.3" y="212.4" transform="matrix(1 -3.316084e-03 3.316084e-03 1 -0.7122 0.2522)" class="st16" width="4.7" height="5"/>
		
			<rect x="80.3" y="212.4" transform="matrix(1 -3.316084e-03 3.316084e-03 1 -0.7121 0.2753)" class="st18" width="4.7" height="5"/>
		
			<rect x="87.2" y="212.4" transform="matrix(1 -3.316084e-03 3.316084e-03 1 -0.7121 0.2982)" class="st18" width="4.7" height="5"/>
		
			<rect x="94.1" y="212.3" transform="matrix(1 -3.316084e-03 3.316084e-03 1 -0.7117 0.321)" class="st16" width="4.7" height="5"/>
		
			<rect x="101.2" y="212.3" transform="matrix(1 -3.316084e-03 3.316084e-03 1 -0.7117 0.3445)" class="st4" width="4.7" height="5"/>
		
			<rect x="108.1" y="212.3" transform="matrix(1 -3.316084e-03 3.316084e-03 1 -0.7117 0.3673)" class="st15" width="4.7" height="5"/>
		
			<rect x="24.4" y="203.7" transform="matrix(1 -3.316084e-03 3.316084e-03 1 -0.6836 8.994970e-02)" class="st19" width="4.7" height="5"/>
		
			<rect x="31.4" y="203.7" transform="matrix(1 -3.316084e-03 3.316084e-03 1 -0.6836 0.1131)" class="st1" width="4.7" height="5"/>
		<rect x="38.3" y="203.7" transform="matrix(1 -3.316084e-03 3.316084e-03 1 -0.6836 0.136)" class="st5" width="4.7" height="5"/>
		<rect x="44.7" y="203.6" class="st20" width="4.7" height="5"/>
		
			<rect x="52.4" y="203.7" transform="matrix(1 -3.316084e-03 3.316084e-03 1 -0.6835 0.1826)" class="st20" width="4.7" height="5"/>
		
			<rect x="59.4" y="203.7" transform="matrix(1 -3.316084e-03 3.316084e-03 1 -0.6835 0.2058)" class="st17" width="4.7" height="5"/>
		<rect x="65.5" y="203.6" class="st20" width="4.7" height="5"/>
		
			<rect x="73.1" y="203.7" transform="matrix(1 -3.316084e-03 3.316084e-03 1 -0.6834 0.2515)" class="st20" width="4.7" height="5"/>
		
			<rect x="80.1" y="203.7" transform="matrix(1 -3.316084e-03 3.316084e-03 1 -0.6833 0.2746)" class="st5" width="4.7" height="5"/>
		<rect x="87" y="203.7" transform="matrix(1 -3.316084e-03 3.316084e-03 1 -0.6833 0.2975)" class="st18" width="4.7" height="5"/>
		
			<rect x="93.9" y="203.7" transform="matrix(1 -3.316084e-03 3.316084e-03 1 -0.6833 0.3203)" class="st18" width="4.7" height="5"/>
		<rect x="101" y="203.7" transform="matrix(1 -3.316084e-03 3.316084e-03 1 -0.6832 0.3438)" class="st4" width="4.7" height="5"/>
		
			<rect x="107.9" y="203.7" transform="matrix(1 -3.316084e-03 3.316084e-03 1 -0.6832 0.3666)" class="st3" width="4.7" height="5"/>
		
			<rect x="114.9" y="203.7" transform="matrix(1 -3.316084e-03 3.316084e-03 1 -0.6832 0.3898)" class="st4" width="4.7" height="5"/>
		
			<rect x="17.7" y="195" transform="matrix(1 -3.316084e-03 3.316084e-03 1 -0.6549 6.739637e-02)" class="st17" width="4.7" height="5"/>
		
			<rect x="24.5" y="195" transform="matrix(1 -3.316084e-03 3.316084e-03 1 -0.6549 9.023275e-02)" class="st17" width="4.7" height="5"/>
		<rect x="31.4" y="195" transform="matrix(1 -3.316084e-03 3.316084e-03 1 -0.6548 0.1131)" class="st16" width="4.7" height="5"/>
		<rect x="38.3" y="195" transform="matrix(1 -3.316084e-03 3.316084e-03 1 -0.6548 0.1359)" class="st16" width="4.7" height="5"/>
		
			<rect x="45.6" y="194.9" transform="matrix(1 -3.316084e-03 3.316084e-03 1 -0.6544 0.1601)" class="st20" width="4.7" height="5"/>
		
			<rect x="52.5" y="194.9" transform="matrix(1 -3.316084e-03 3.316084e-03 1 -0.6544 0.1829)" class="st15" width="4.7" height="5"/>
		
			<rect x="59.4" y="194.9" transform="matrix(1 -3.316084e-03 3.316084e-03 1 -0.6543 0.2057)" class="st15" width="4.7" height="5"/>
		
			<rect x="66.4" y="194.9" transform="matrix(1 -3.316084e-03 3.316084e-03 1 -0.6543 0.2289)" class="st3" width="4.7" height="5"/>
		
			<rect x="73.2" y="194.8" transform="matrix(1 -3.316084e-03 3.316084e-03 1 -0.6539 0.2517)" class="st17" width="4.7" height="5"/>
		
			<rect x="80.1" y="194.8" transform="matrix(1 -3.316084e-03 3.316084e-03 1 -0.6539 0.2746)" class="st18" width="4.7" height="5"/>
		
			<rect x="87.1" y="194.8" transform="matrix(1 -3.316084e-03 3.316084e-03 1 -0.6538 0.2977)" class="st18" width="4.7" height="5"/>
		<rect x="94" y="194.8" transform="matrix(1 -3.316084e-03 3.316084e-03 1 -0.6538 0.3206)" class="st16" width="4.7" height="5"/>
		<rect x="52.5" y="186" transform="matrix(1 -3.316084e-03 3.316084e-03 1 -0.6249 0.1829)" class="st15" width="4.7" height="5"/>
		<rect x="59.5" y="186" transform="matrix(1 -3.316084e-03 3.316084e-03 1 -0.6249 0.206)" class="st15" width="4.7" height="5"/>
		
			<rect x="17.7" y="177.3" transform="matrix(1 -3.316084e-03 3.316084e-03 1 -0.596 6.729860e-02)" class="st15" width="4.7" height="5"/>
		
			<rect x="24.5" y="177.3" transform="matrix(1 -3.316084e-03 3.316084e-03 1 -0.5959 9.013532e-02)" class="st15" width="4.7" height="5"/>
		
			<rect x="31.4" y="177.3" transform="matrix(1 -3.316084e-03 3.316084e-03 1 -0.5959 0.113)" class="st15" width="4.7" height="5"/>
		
			<rect x="38.3" y="177.3" transform="matrix(1 -3.316084e-03 3.316084e-03 1 -0.5959 0.1358)" class="st17" width="4.7" height="5"/>
		<rect x="45.6" y="177.2" transform="matrix(1 -3.316084e-03 3.316084e-03 1 -0.5955 0.16)" class="st15" width="4.7" height="5"/>
		
			<rect x="52.5" y="177.2" transform="matrix(1 -3.316084e-03 3.316084e-03 1 -0.5955 0.1828)" class="st20" width="4.7" height="5"/>
		
			<rect x="59.4" y="177.2" transform="matrix(1 -3.316084e-03 3.316084e-03 1 -0.5954 0.2056)" class="st5" width="4.7" height="5"/>
		
			<rect x="66.4" y="177.2" transform="matrix(1 -3.316084e-03 3.316084e-03 1 -0.5954 0.2288)" class="st20" width="4.7" height="5"/>
		
			<rect x="73.2" y="177.2" transform="matrix(1 -3.316084e-03 3.316084e-03 1 -0.5953 0.2516)" class="st16" width="4.7" height="5"/>
		
			<rect x="80.1" y="177.1" transform="matrix(1 -3.316084e-03 3.316084e-03 1 -0.595 0.2745)" class="st18" width="4.7" height="5"/>
		
			<rect x="17.3" y="228.2" transform="matrix(1 -3.316084e-03 3.316084e-03 1 -0.7648 6.625403e-02)" class="st15" width="4.7" height="5"/>
		
			<rect x="44.7" y="228.2" transform="matrix(1 -3.316084e-03 3.316084e-03 1 -0.7646 0.1573)" class="st15" width="4.7" height="5"/>
		
			<rect x="51.6" y="228.2" transform="matrix(1 -3.316084e-03 3.316084e-03 1 -0.7646 0.1801)" class="st15" width="4.7" height="5"/>
		
			<rect x="58.5" y="228.2" transform="matrix(1 -3.316084e-03 3.316084e-03 1 -0.7645 0.2029)" class="st17" width="4.7" height="5"/>
		
			<rect x="65.8" y="228.1" transform="matrix(1 -3.316084e-03 3.316084e-03 1 -0.7642 0.2271)" class="st15" width="4.7" height="5"/>
		
			<rect x="72.6" y="228.1" transform="matrix(1 -3.316084e-03 3.316084e-03 1 -0.7641 0.2499)" class="st20" width="4.7" height="5"/>
		
			<rect x="79.5" y="228.1" transform="matrix(1 -3.316084e-03 3.316084e-03 1 -0.7641 0.2728)" class="st5" width="4.7" height="5"/>
		
			<rect x="86.5" y="228.1" transform="matrix(1 -3.316084e-03 3.316084e-03 1 -0.7641 0.2959)" class="st20" width="4.7" height="5"/>
		
			<rect x="93.4" y="228.1" transform="matrix(1 -3.316084e-03 3.316084e-03 1 -0.764 0.3188)" class="st16" width="4.7" height="5"/>
		<rect x="111" y="228" transform="matrix(1 -3.316084e-03 3.316084e-03 1 -0.7636 0.377)" class="st18" width="4.7" height="5"/>
		
			<rect x="10.5" y="168.5" transform="matrix(1 -3.316084e-03 3.316084e-03 1 -0.5669 4.342112e-02)" class="st15" width="4.7" height="5"/>
		
			<rect x="17.5" y="168.5" transform="matrix(1 -3.316084e-03 3.316084e-03 1 -0.5669 6.658845e-02)" class="st15" width="4.7" height="5"/>
		
			<rect x="24.3" y="168.5" transform="matrix(1 -3.316084e-03 3.316084e-03 1 -0.5668 8.942483e-02)" class="st19" width="4.7" height="5"/>
		
			<rect x="31.2" y="168.4" transform="matrix(1 -3.316084e-03 3.316084e-03 1 -0.5665 0.1123)" class="st3" width="4.7" height="5"/>
		
			<rect x="38.1" y="168.4" transform="matrix(1 -3.316084e-03 3.316084e-03 1 -0.5664 0.1351)" class="st3" width="4.7" height="5"/>
		
			<rect x="45.4" y="168.4" transform="matrix(1 -3.316084e-03 3.316084e-03 1 -0.5664 0.1593)" class="st15" width="4.7" height="5"/>
		
			<rect x="52.3" y="168.4" transform="matrix(1 -3.316084e-03 3.316084e-03 1 -0.5663 0.1821)" class="st3" width="4.7" height="5"/>
		
			<rect x="59.2" y="168.3" transform="matrix(1 -3.316084e-03 3.316084e-03 1 -0.566 0.2049)" class="st20" width="4.7" height="5"/>
		
			<rect x="66.1" y="168.3" transform="matrix(1 -3.316084e-03 3.316084e-03 1 -0.5659 0.2278)" class="st20" width="4.7" height="5"/>
		<rect x="73" y="168.3" transform="matrix(1 -3.316084e-03 3.316084e-03 1 -0.5659 0.2509)" class="st16" width="4.7" height="5"/>
		
			<rect x="79.9" y="168.3" transform="matrix(1 -3.316084e-03 3.316084e-03 1 -0.5659 0.2738)" class="st18" width="4.7" height="5"/>
		
			<rect x="86.9" y="168.3" transform="matrix(1 -3.316084e-03 3.316084e-03 1 -0.5658 0.2969)" class="st18" width="4.7" height="5"/>
		
			<rect x="93.8" y="168.2" transform="matrix(1 -3.316084e-03 3.316084e-03 1 -0.5654 0.3198)" class="st18" width="4.7" height="5"/>
		
			<rect x="100.9" y="168.2" transform="matrix(1 -3.316084e-03 3.316084e-03 1 -0.5654 0.3433)" class="st4" width="4.7" height="5"/>
		
			<rect x="107.8" y="168.2" transform="matrix(1 -3.316084e-03 3.316084e-03 1 -0.5654 0.3661)" class="st4" width="4.7" height="5"/>
		
			<rect x="38.2" y="159.7" transform="matrix(1 -3.316084e-03 3.316084e-03 1 -0.5376 0.1354)" class="st1" width="4.7" height="5"/>
		
			<rect x="45.5" y="159.7" transform="matrix(1 -3.316084e-03 3.316084e-03 1 -0.5376 0.1595)" class="st20" width="4.7" height="5"/>
		
			<rect x="52.4" y="159.7" transform="matrix(1 -3.316084e-03 3.316084e-03 1 -0.5375 0.1824)" class="st3" width="4.7" height="5"/>
		
			<rect x="59.3" y="159.6" transform="matrix(1 -3.316084e-03 3.316084e-03 1 -0.5372 0.2052)" class="st17" width="4.7" height="5"/>
		
			<rect x="66.2" y="159.6" transform="matrix(1 -3.316084e-03 3.316084e-03 1 -0.5371 0.2281)" class="st16" width="4.7" height="5"/>
		
			<rect x="73.1" y="159.6" transform="matrix(1 -3.316084e-03 3.316084e-03 1 -0.5371 0.2512)" class="st20" width="4.7" height="5"/>
		<rect x="80" y="159.6" transform="matrix(1 -3.316084e-03 3.316084e-03 1 -0.5371 0.2741)" class="st16" width="4.7" height="5"/>
		<rect x="87" y="159.5" transform="matrix(1 -3.316084e-03 3.316084e-03 1 -0.5367 0.2972)" class="st5" width="4.7" height="5"/>
		
			<rect x="93.9" y="159.5" transform="matrix(1 -3.316084e-03 3.316084e-03 1 -0.5367 0.3201)" class="st17" width="4.7" height="5"/>
		<rect x="101" y="159.5" transform="matrix(1 -3.316084e-03 3.316084e-03 1 -0.5366 0.3436)" class="st4" width="4.7" height="5"/>
		
			<rect x="107.9" y="159.5" transform="matrix(1 -3.316084e-03 3.316084e-03 1 -0.5366 0.3664)" class="st17" width="4.7" height="5"/>
		
			<rect x="114.9" y="159.5" transform="matrix(1 -3.316084e-03 3.316084e-03 1 -0.5365 0.3896)" class="st17" width="4.7" height="5"/>
		
			<rect x="31.4" y="150.9" transform="matrix(1 -3.316084e-03 3.316084e-03 1 -0.5085 0.1128)" class="st1" width="4.7" height="5"/>
		
			<rect x="38.3" y="150.9" transform="matrix(1 -3.316084e-03 3.316084e-03 1 -0.5085 0.1357)" class="st1" width="4.7" height="5"/>
		
			<rect x="52.4" y="150.8" transform="matrix(1 -3.316084e-03 3.316084e-03 1 -0.5081 0.1823)" class="st3" width="4.7" height="5"/>
		
			<rect x="59.4" y="150.8" transform="matrix(1 -3.316084e-03 3.316084e-03 1 -0.508 0.2055)" class="st20" width="4.7" height="5"/>
		<rect x="66.3" y="150.8" transform="matrix(1 -3.316084e-03 3.316084e-03 1 -0.508 0.2283)" class="st3" width="4.7" height="5"/>
		
			<rect x="73.2" y="150.7" transform="matrix(1 -3.316084e-03 3.316084e-03 1 -0.5076 0.2515)" class="st3" width="4.7" height="5"/>
		
			<rect x="80.1" y="150.7" transform="matrix(1 -3.316084e-03 3.316084e-03 1 -0.5076 0.2743)" class="st3" width="4.7" height="5"/>
		<rect x="86.4" y="151.3" class="st18" width="4.7" height="5"/>
		<rect x="93.9" y="150.7" transform="matrix(1 -3.316084e-03 3.316084e-03 1 -0.5075 0.32)" class="st18" width="4.7" height="5"/>
		<rect x="101" y="150.6" transform="matrix(1 -3.316084e-03 3.316084e-03 1 -0.5072 0.3435)" class="st4" width="4.7" height="5"/>
		
			<rect x="107.9" y="150.6" transform="matrix(1 -3.316084e-03 3.316084e-03 1 -0.5071 0.3663)" class="st5" width="4.7" height="5"/>
		
			<rect x="10.6" y="141.8" transform="matrix(1 -3.316084e-03 3.316084e-03 1 -0.4785 4.360542e-02)" class="st21" width="4.7" height="5"/>
		
			<rect x="66.2" y="141.6" transform="matrix(1 -3.316084e-03 3.316084e-03 1 -0.4776 0.228)" class="st20" width="4.7" height="5"/>
		
			<rect x="73.1" y="141.6" transform="matrix(1 -3.316084e-03 3.316084e-03 1 -0.4775 0.2511)" class="st5" width="4.7" height="5"/>
		<rect x="80" y="141.6" transform="matrix(1 -3.316084e-03 3.316084e-03 1 -0.4775 0.274)" class="st18" width="4.7" height="5"/>
		<rect x="87" y="141.5" transform="matrix(1 -3.316084e-03 3.316084e-03 1 -0.4771 0.2971)" class="st16" width="4.7" height="5"/>
		<rect x="93.9" y="141.5" transform="matrix(1 -3.316084e-03 3.316084e-03 1 -0.4771 0.32)" class="st5" width="4.7" height="5"/>
		
			<rect x="100.9" y="141.5" transform="matrix(1 -3.316084e-03 3.316084e-03 1 -0.477 0.3431)" class="st4" width="4.7" height="5"/>
		
			<rect x="107.8" y="141.5" transform="matrix(1 -3.316084e-03 3.316084e-03 1 -0.477 0.366)" class="st16" width="4.7" height="5"/>
		<rect x="38" y="132.8" transform="matrix(1 -3.316084e-03 3.316084e-03 1 -0.4486 0.1346)" class="st1" width="4.7" height="5"/>
		
			<rect x="52.1" y="132.8" transform="matrix(1 -3.316084e-03 3.316084e-03 1 -0.4485 0.1812)" class="st20" width="4.7" height="5"/>
		
			<rect x="59.1" y="132.8" transform="matrix(1 -3.316084e-03 3.316084e-03 1 -0.4485 0.2044)" class="st20" width="4.7" height="5"/>
		<rect x="66" y="132.8" transform="matrix(1 -3.316084e-03 3.316084e-03 1 -0.4484 0.2272)" class="st20" width="4.7" height="5"/>
		
			<rect x="72.9" y="132.7" transform="matrix(1 -3.316084e-03 3.316084e-03 1 -0.4481 0.2504)" class="st20" width="4.7" height="5"/>
		
			<rect x="79.8" y="132.7" transform="matrix(1 -3.316084e-03 3.316084e-03 1 -0.448 0.2732)" class="st17" width="4.7" height="5"/>
		
			<rect x="86.8" y="132.6" transform="matrix(1 -3.316084e-03 3.316084e-03 1 -0.4477 0.2964)" class="st17" width="4.7" height="5"/>
		
			<rect x="93.7" y="132.6" transform="matrix(1 -3.316084e-03 3.316084e-03 1 -0.4476 0.3192)" class="st17" width="4.7" height="5"/>
		
			<rect x="100.7" y="132.6" transform="matrix(1 -3.316084e-03 3.316084e-03 1 -0.4476 0.3424)" class="st4" width="4.7" height="5"/>
		
			<rect x="107.7" y="132.5" transform="matrix(1 -3.316084e-03 3.316084e-03 1 -0.4472 0.3656)" class="st5" width="4.7" height="5"/>
		
			<rect x="114.6" y="132.6" transform="matrix(1 -3.316084e-03 3.316084e-03 1 -0.4475 0.3884)" class="st4" width="4.7" height="5"/>
		<rect x="31.2" y="124.3" transform="matrix(1 -3.316084e-03 3.316084e-03 1 -0.4202 0.112)" class="st1" width="4.7" height="5"/>
		
			<rect x="38.1" y="124.2" transform="matrix(1 -3.316084e-03 3.316084e-03 1 -0.4198 0.1349)" class="st15" width="4.7" height="5"/>
		
			<rect x="45.3" y="124.2" transform="matrix(1 -3.316084e-03 3.316084e-03 1 -0.4198 0.1587)" class="st15" width="4.7" height="5"/>
		
			<rect x="52.2" y="124.2" transform="matrix(1 -3.316084e-03 3.316084e-03 1 -0.4197 0.1815)" class="st15" width="4.7" height="5"/>
		
			<rect x="59.2" y="124.2" transform="matrix(1 -3.316084e-03 3.316084e-03 1 -0.4197 0.2047)" class="st20" width="4.7" height="5"/>
		
			<rect x="66.1" y="124.2" transform="matrix(1 -3.316084e-03 3.316084e-03 1 -0.4196 0.2275)" class="st5" width="4.7" height="5"/>
		<rect x="73" y="124.1" transform="matrix(1 -3.316084e-03 3.316084e-03 1 -0.4193 0.2507)" class="st20" width="4.7" height="5"/>
		
			<rect x="79.9" y="124.1" transform="matrix(1 -3.316084e-03 3.316084e-03 1 -0.4192 0.2735)" class="st16" width="4.7" height="5"/>
		
			<rect x="86.8" y="124.1" transform="matrix(1 -3.316084e-03 3.316084e-03 1 -0.4192 0.2964)" class="st5" width="4.7" height="5"/>
		
			<rect x="93.7" y="124.1" transform="matrix(1 -3.316084e-03 3.316084e-03 1 -0.4192 0.3192)" class="st18" width="4.7" height="5"/>
		<rect x="100.8" y="124" transform="matrix(1 -3.316084e-03 3.316084e-03 1 -0.4188 0.3427)" class="st4" width="4.7" height="5"/>
		<rect x="107.7" y="124" transform="matrix(1 -3.316084e-03 3.316084e-03 1 -0.4188 0.3655)" class="st4" width="4.7" height="5"/>
		
			<rect x="59.2" y="115.3" transform="matrix(1 -3.316084e-03 3.316084e-03 1 -0.3902 0.2046)" class="st20" width="4.7" height="5"/>
		<rect x="73" y="115.3" transform="matrix(1 -3.316084e-03 3.316084e-03 1 -0.3901 0.2506)" class="st20" width="4.7" height="5"/>
		
			<rect x="79.9" y="115.2" transform="matrix(1 -3.316084e-03 3.316084e-03 1 -0.3898 0.2735)" class="st18" width="4.7" height="5"/>
		
			<rect x="86.9" y="115.2" transform="matrix(1 -3.316084e-03 3.316084e-03 1 -0.3897 0.2966)" class="st18" width="4.7" height="5"/>
		
			<rect x="93.8" y="115.2" transform="matrix(1 -3.316084e-03 3.316084e-03 1 -0.3897 0.3195)" class="st16" width="4.7" height="5"/>
		
			<rect x="100.9" y="115.1" transform="matrix(1 -3.316084e-03 3.316084e-03 1 -0.3893 0.343)" class="st4" width="4.7" height="5"/>
		
			<rect x="107.8" y="115.1" transform="matrix(1 -3.316084e-03 3.316084e-03 1 -0.3893 0.3658)" class="st4" width="4.7" height="5"/>
		
			<rect x="114.7" y="115.1" transform="matrix(1 -3.316084e-03 3.316084e-03 1 -0.3893 0.3887)" class="st4" width="4.7" height="5"/>
		
			<rect x="17.4" y="106.5" transform="matrix(1 -3.316084e-03 3.316084e-03 1 -0.3613 6.591661e-02)" class="st15" width="4.7" height="5"/>
		
			<rect x="24.2" y="106.4" transform="matrix(1 -3.316084e-03 3.316084e-03 1 -0.361 8.875168e-02)" class="st19" width="4.7" height="5"/>
		
			<rect x="31.2" y="106.4" transform="matrix(1 -3.316084e-03 3.316084e-03 1 -0.3609 0.1119)" class="st16" width="4.7" height="5"/>
		
			<rect x="38.1" y="106.3" transform="matrix(1 -3.316084e-03 3.316084e-03 1 -0.3606 0.1348)" class="st16" width="4.7" height="5"/>
		
			<rect x="45.3" y="106.4" transform="matrix(1 -3.316084e-03 3.316084e-03 1 -0.3608 0.1586)" class="st16" width="4.7" height="5"/>
		
			<rect x="52.2" y="106.4" transform="matrix(1 -3.316084e-03 3.316084e-03 1 -0.3608 0.1814)" class="st16" width="4.7" height="5"/>
		
			<rect x="59.2" y="106.3" transform="matrix(1 -3.316084e-03 3.316084e-03 1 -0.3604 0.2046)" class="st5" width="4.7" height="5"/>
		
			<rect x="66.1" y="106.3" transform="matrix(1 -3.316084e-03 3.316084e-03 1 -0.3604 0.2274)" class="st20" width="4.7" height="5"/>
		<rect x="73" y="106.2" transform="matrix(1 -3.316084e-03 3.316084e-03 1 -0.36 0.2506)" class="st16" width="4.7" height="5"/>
		<rect x="79.9" y="106.2" transform="matrix(1 -3.316084e-03 3.316084e-03 1 -0.36 0.2734)" class="st18" width="4.7" height="5"/>
		
			<rect x="86.8" y="106.3" transform="matrix(1 -3.316084e-03 3.316084e-03 1 -0.3603 0.2963)" class="st16" width="4.7" height="5"/>
		
			<rect x="93.7" y="106.3" transform="matrix(1 -3.316084e-03 3.316084e-03 1 -0.3602 0.3191)" class="st16" width="4.7" height="5"/>
		
			<rect x="100.8" y="106.3" transform="matrix(1 -3.316084e-03 3.316084e-03 1 -0.3602 0.3426)" class="st16" width="4.7" height="5"/>
		
			<rect x="24" y="97.7" transform="matrix(1 -3.316084e-03 3.316084e-03 1 -0.3322 8.804318e-02)" class="st17" width="4.7" height="5"/>
		<rect x="31" y="97.5" transform="matrix(1 -3.316084e-03 3.316084e-03 1 -0.3315 0.1112)" class="st16" width="4.7" height="5"/>
		<rect x="37.9" y="97.5" transform="matrix(1 -3.316084e-03 3.316084e-03 1 -0.3314 0.134)" class="st1" width="4.7" height="5"/>
		
			<rect x="45.1" y="97.5" transform="matrix(1 -3.316084e-03 3.316084e-03 1 -0.3314 0.1579)" class="st16" width="4.7" height="5"/>
		<rect x="52" y="97.4" transform="matrix(1 -3.316084e-03 3.316084e-03 1 -0.331 0.1807)" class="st20" width="4.7" height="5"/>
		<rect x="59" y="97.4" transform="matrix(1 -3.316084e-03 3.316084e-03 1 -0.331 0.2039)" class="st16" width="4.7" height="5"/>
		
			<rect x="65.9" y="97.4" transform="matrix(1 -3.316084e-03 3.316084e-03 1 -0.3309 0.2267)" class="st20" width="4.7" height="5"/>
		
			<rect x="72.8" y="97.4" transform="matrix(1 -3.316084e-03 3.316084e-03 1 -0.3309 0.2499)" class="st20" width="4.7" height="5"/>
		
			<rect x="79.7" y="97.4" transform="matrix(1 -3.316084e-03 3.316084e-03 1 -0.3309 0.2727)" class="st18" width="4.7" height="5"/>
		
			<rect x="24.1" y="88.9" transform="matrix(1 -3.316084e-03 3.316084e-03 1 -0.303 8.832458e-02)" class="st17" width="4.7" height="5"/>
		<rect x="31.1" y="88.8" transform="matrix(1 -3.316084e-03 3.316084e-03 1 -0.3027 0.1115)" class="st1" width="4.7" height="5"/>
		<rect x="38" y="88.8" transform="matrix(1 -3.316084e-03 3.316084e-03 1 -0.3026 0.1343)" class="st1" width="4.7" height="5"/>
		
			<rect x="45.2" y="88.8" transform="matrix(1 -3.316084e-03 3.316084e-03 1 -0.3026 0.1582)" class="st16" width="4.7" height="5"/>
		<rect x="52.1" y="88.7" transform="matrix(1 -3.316084e-03 3.316084e-03 1 -0.3022 0.181)" class="st16" width="4.7" height="5"/>
		
			<rect x="59.1" y="88.7" transform="matrix(1 -3.316084e-03 3.316084e-03 1 -0.3022 0.2042)" class="st20" width="4.7" height="5"/>
		<rect x="66" y="88.7" transform="matrix(1 -3.316084e-03 3.316084e-03 1 -0.3022 0.227)" class="st20" width="4.7" height="5"/>
		
			<rect x="72.8" y="88.8" transform="matrix(1 -3.316084e-03 3.316084e-03 1 -0.3024 0.2498)" class="st17" width="4.7" height="5"/>
		<rect x="79.8" y="88.7" transform="matrix(1 -3.316084e-03 3.316084e-03 1 -0.3021 0.273)" class="st17" width="4.7" height="5"/>
		
			<rect x="10.3" y="80.2" transform="matrix(1 -3.316084e-03 3.316084e-03 1 -0.274 4.227329e-02)" class="st3" width="4.7" height="5"/>
		
			<rect x="17.3" y="80.1" transform="matrix(1 -3.316084e-03 3.316084e-03 1 -0.2736 6.543932e-02)" class="st3" width="4.7" height="5"/>
		
			<rect x="24.1" y="80.1" transform="matrix(1 -3.316084e-03 3.316084e-03 1 -0.2736 8.827569e-02)" class="st19" width="4.7" height="5"/>
		<rect x="31.1" y="80.1" transform="matrix(1 -3.316084e-03 3.316084e-03 1 -0.2735 0.1114)" class="st5" width="4.7" height="5"/>
		<rect x="38" y="80" transform="matrix(1 -3.316084e-03 3.316084e-03 1 -0.2732 0.1343)" class="st1" width="4.7" height="5"/>
		<rect x="45.2" y="80" transform="matrix(1 -3.316084e-03 3.316084e-03 1 -0.2731 0.1581)" class="st20" width="4.7" height="5"/>
		<rect x="52.1" y="80" transform="matrix(1 -3.316084e-03 3.316084e-03 1 -0.2731 0.1809)" class="st20" width="4.7" height="5"/>
		<rect x="59.1" y="80" transform="matrix(1 -3.316084e-03 3.316084e-03 1 -0.2731 0.2041)" class="st5" width="4.7" height="5"/>
		<rect x="66" y="80" transform="matrix(1 -3.316084e-03 3.316084e-03 1 -0.273 0.2269)" class="st20" width="4.7" height="5"/>
		
			<rect x="17.4" y="71.1" transform="matrix(1 -3.316084e-03 3.316084e-03 1 -0.2438 6.572074e-02)" class="st19" width="4.7" height="5"/>
		
			<rect x="24.2" y="71.1" transform="matrix(1 -3.316084e-03 3.316084e-03 1 -0.2438 8.855746e-02)" class="st19" width="4.7" height="5"/>
		<rect x="31.2" y="71.1" transform="matrix(1 -3.316084e-03 3.316084e-03 1 -0.2438 0.1117)" class="st1" width="4.7" height="5"/>
		<rect x="38.1" y="71.1" transform="matrix(1 -3.316084e-03 3.316084e-03 1 -0.2437 0.1346)" class="st1" width="4.7" height="5"/>
		<rect x="45.4" y="71" transform="matrix(1 -3.316084e-03 3.316084e-03 1 -0.2434 0.1587)" class="st16" width="4.7" height="5"/>
		<rect x="52.3" y="71" transform="matrix(1 -3.316084e-03 3.316084e-03 1 -0.2433 0.1816)" class="st20" width="4.7" height="5"/>
		<rect x="59.2" y="71" transform="matrix(1 -3.316084e-03 3.316084e-03 1 -0.2433 0.2044)" class="st20" width="4.7" height="5"/>
		<rect x="66.1" y="71" transform="matrix(1 -3.316084e-03 3.316084e-03 1 -0.2432 0.2272)" class="st20" width="4.7" height="5"/>
		<rect x="31.1" y="61.9" transform="matrix(1 -3.316084e-03 3.316084e-03 1 -0.2133 0.1113)" class="st1" width="4.7" height="5"/>
		
			<rect x="45.3" y="61.9" transform="matrix(1 -3.316084e-03 3.316084e-03 1 -0.2132 0.1583)" class="st20" width="4.7" height="5"/>
		
			<rect x="52.2" y="61.9" transform="matrix(1 -3.316084e-03 3.316084e-03 1 -0.2132 0.1812)" class="st20" width="4.7" height="5"/>
		
			<rect x="59.2" y="61.8" transform="matrix(1 -3.316084e-03 3.316084e-03 1 -0.2128 0.2043)" class="st20" width="4.7" height="5"/>
		<rect x="66.1" y="61.8" transform="matrix(1 -3.316084e-03 3.316084e-03 1 -0.2128 0.2272)" class="st5" width="4.7" height="5"/>
		<rect x="73" y="61.8" transform="matrix(1 -3.316084e-03 3.316084e-03 1 -0.2128 0.2503)" class="st3" width="4.7" height="5"/>
		<rect x="79.9" y="61.8" transform="matrix(1 -3.316084e-03 3.316084e-03 1 -0.2127 0.2732)" class="st3" width="4.7" height="5"/>
		
			<rect x="53.3" y="53.1" transform="matrix(1 -3.316084e-03 3.316084e-03 1 -0.1841 0.1848)" class="st19" width="4.7" height="5"/>
		<rect x="60.2" y="53.1" transform="matrix(1 -3.316084e-03 3.316084e-03 1 -0.184 0.2076)" class="st19" width="4.7" height="5"/>
		<rect x="67.2" y="53.1" transform="matrix(1 -3.316084e-03 3.316084e-03 1 -0.184 0.2308)" class="st1" width="4.7" height="5"/>
		<rect x="74" y="53.1" transform="matrix(1 -3.316084e-03 3.316084e-03 1 -0.184 0.2536)" class="st1" width="4.7" height="5"/>
		<rect x="81.2" y="53" transform="matrix(1 -3.316084e-03 3.316084e-03 1 -0.1836 0.2774)" class="st17" width="4.7" height="5"/>
		<rect x="88.1" y="53" transform="matrix(1 -3.316084e-03 3.316084e-03 1 -0.1835 0.3003)" class="st17" width="4.7" height="5"/>
		<rect x="95.1" y="53" transform="matrix(1 -3.316084e-03 3.316084e-03 1 -0.1835 0.3234)" class="st20" width="4.7" height="5"/>
		<rect x="102" y="53" transform="matrix(1 -3.316084e-03 3.316084e-03 1 -0.1835 0.3463)" class="st17" width="4.7" height="5"/>
		<rect x="109" y="52.9" transform="matrix(1 -3.316084e-03 3.316084e-03 1 -0.1831 0.3694)" class="st20" width="4.7" height="5"/>
		
			<rect x="115.9" y="52.9" transform="matrix(1 -3.316084e-03 3.316084e-03 1 -0.1831 0.3923)" class="st3" width="4.7" height="5"/>
		
			<rect x="122.7" y="52.9" transform="matrix(1 -3.316084e-03 3.316084e-03 1 -0.183 0.4151)" class="st18" width="4.7" height="5"/>
		<rect x="73.8" y="44.4" transform="matrix(1 -3.316084e-03 3.316084e-03 1 -0.1552 0.2529)" class="st1" width="4.7" height="5"/>
		<rect x="88" y="44.3" transform="matrix(1 -3.316084e-03 3.316084e-03 1 -0.1548 0.2999)" class="st20" width="4.7" height="5"/>
		<rect x="94.9" y="44.3" transform="matrix(1 -3.316084e-03 3.316084e-03 1 -0.1547 0.3227)" class="st5" width="4.7" height="5"/>
		
			<rect x="101.8" y="44.3" transform="matrix(1 -3.316084e-03 3.316084e-03 1 -0.1547 0.3456)" class="st17" width="4.7" height="5"/>
		
			<rect x="108.8" y="44.2" transform="matrix(1 -3.316084e-03 3.316084e-03 1 -0.1543 0.3687)" class="st20" width="4.7" height="5"/>
		
			<rect x="115.7" y="44.2" transform="matrix(1 -3.316084e-03 3.316084e-03 1 -0.1543 0.3916)" class="st18" width="4.7" height="5"/>
		
			<rect x="122.6" y="44.2" transform="matrix(1 -3.316084e-03 3.316084e-03 1 -0.1542 0.4147)" class="st5" width="4.7" height="5"/>
		
			<rect x="129.5" y="44.2" transform="matrix(1 -3.316084e-03 3.316084e-03 1 -0.1542 0.4376)" class="st18" width="4.7" height="5"/>
		
			<rect x="136.6" y="44.1" transform="matrix(1 -3.316084e-03 3.316084e-03 1 -0.1538 0.4611)" class="st4" width="4.7" height="5"/>
		
			<rect x="143.5" y="44.1" transform="matrix(1 -3.316084e-03 3.316084e-03 1 -0.1538 0.4839)" class="st4" width="4.7" height="5"/>
		<rect x="88" y="35.4" transform="matrix(1 -3.316084e-03 3.316084e-03 1 -0.1253 0.2998)" class="st20" width="4.7" height="5"/>
		
			<rect x="101.9" y="35.4" transform="matrix(1 -3.316084e-03 3.316084e-03 1 -0.1252 0.3459)" class="st20" width="4.7" height="5"/>
		
			<rect x="108.8" y="35.4" transform="matrix(1 -3.316084e-03 3.316084e-03 1 -0.1252 0.3687)" class="st20" width="4.7" height="5"/>
		
			<rect x="115.8" y="35.4" transform="matrix(1 -3.316084e-03 3.316084e-03 1 -0.1251 0.3919)" class="st17" width="4.7" height="5"/>
		
			<rect x="122.6" y="35.3" transform="matrix(1 -3.316084e-03 3.316084e-03 1 -0.1248 0.4147)" class="st15" width="4.7" height="5"/>
		
			<rect x="129.5" y="35.3" transform="matrix(1 -3.316084e-03 3.316084e-03 1 -0.1247 0.4375)" class="st18" width="4.7" height="5"/>
		<rect x="136.6" y="35.3" transform="matrix(1 -3.316084e-03 3.316084e-03 1 -0.1247 0.461)" class="st4" width="4.7" height="5"/>
		
			<rect x="143.5" y="35.3" transform="matrix(1 -3.316084e-03 3.316084e-03 1 -0.1247 0.4839)" class="st5" width="4.7" height="5"/>
		
			<rect x="81.1" y="26.6" transform="matrix(1 -3.316084e-03 3.316084e-03 1 -9.587727e-02 0.277)" class="st20" width="4.7" height="5"/>
		
			<rect x="88" y="26.6" transform="matrix(1 -3.316084e-03 3.316084e-03 1 -9.583946e-02 0.2998)" class="st20" width="4.7" height="5"/>
		
			<rect x="94.9" y="26.6" transform="matrix(1 -3.316084e-03 3.316084e-03 1 -9.580167e-02 0.3226)" class="st16" width="4.7" height="5"/>
		
			<rect x="101.8" y="26.6" transform="matrix(1 -3.316084e-03 3.316084e-03 1 -9.576353e-02 0.3455)" class="st20" width="4.7" height="5"/>
		
			<rect x="108.8" y="26.6" transform="matrix(1 -3.316084e-03 3.316084e-03 1 -9.572541e-02 0.3686)" class="st15" width="4.7" height="5"/>
		
			<rect x="115.7" y="26.5" transform="matrix(1 -3.316084e-03 3.316084e-03 1 -9.535631e-02 0.3915)" class="st15" width="4.7" height="5"/>
		
			<rect x="122.6" y="26.5" transform="matrix(1 -3.316084e-03 3.316084e-03 1 -9.531785e-02 0.4146)" class="st15" width="4.7" height="5"/>
		
			<rect x="143.5" y="26.4" transform="matrix(1 -3.316084e-03 3.316084e-03 1 -9.487251e-02 0.4838)" class="st4" width="4.7" height="5"/>
		
			<rect x="150.4" y="26.4" transform="matrix(1 -3.316084e-03 3.316084e-03 1 -9.483438e-02 0.5066)" class="st4" width="4.7" height="5"/>
		<rect x="45.8" y="17.5" class="st21" width="4.7" height="5"/>
		
			<rect x="59.8" y="17.5" transform="matrix(1 -3.316084e-03 3.316084e-03 1 -6.587704e-02 0.2061)" class="st19" width="4.7" height="5"/>
		
			<rect x="66.8" y="17.5" transform="matrix(1 -3.316084e-03 3.316084e-03 1 -6.583858e-02 0.2293)" class="st3" width="4.7" height="5"/>
		<rect x="73.5" y="17.5" class="st1" width="4.7" height="5"/>
		
			<rect x="80.8" y="17.5" transform="matrix(1 -3.316084e-03 3.316084e-03 1 -6.576101e-02 0.2759)" class="st16" width="4.7" height="5"/>
		
			<rect x="87.8" y="17.5" transform="matrix(1 -3.316084e-03 3.316084e-03 1 -6.572289e-02 0.2991)" class="st20" width="4.7" height="5"/>
		
			<rect x="94.7" y="17.5" transform="matrix(1 -3.316084e-03 3.316084e-03 1 -6.568476e-02 0.3219)" class="st16" width="4.7" height="5"/>
		
			<rect x="101.6" y="17.5" transform="matrix(1 -3.316084e-03 3.316084e-03 1 -6.564696e-02 0.3448)" class="st17" width="4.7" height="5"/>
		
			<rect x="108.6" y="17.5" transform="matrix(1 -3.316084e-03 3.316084e-03 1 -6.560850e-02 0.3679)" class="st17" width="4.7" height="5"/>
		
			<rect x="115.5" y="17.5" transform="matrix(1 -3.316084e-03 3.316084e-03 1 -6.557070e-02 0.3908)" class="st18" width="4.7" height="5"/>
		
			<rect x="122.4" y="17.5" transform="matrix(1 -3.316084e-03 3.316084e-03 1 -6.553224e-02 0.4139)" class="st17" width="4.7" height="5"/>
		<rect x="129.1" y="17.5" class="st17" width="4.7" height="5"/>
		
			<rect x="136.4" y="17.5" transform="matrix(1 -3.316084e-03 3.316084e-03 1 -6.545567e-02 0.4603)" class="st15" width="4.7" height="5"/>
		<rect x="143.1" y="17.5" class="st17" width="4.7" height="5"/>
		
			<rect x="24.2" y="9.3" transform="matrix(1 -3.316084e-03 3.316084e-03 1 -3.893335e-02 8.821768e-02)" class="st21" width="4.7" height="5"/>
		
			<rect x="39.1" y="9.2" transform="matrix(1 -3.316084e-03 3.316084e-03 1 -3.852059e-02 0.1375)" class="st21" width="4.7" height="5"/>
		
			<rect x="46.1" y="9.2" transform="matrix(1 -3.316084e-03 3.316084e-03 1 -3.848213e-02 0.1607)" class="st3" width="4.7" height="5"/>
		
			<rect x="53" y="9.2" transform="matrix(1 -3.316084e-03 3.316084e-03 1 -3.844433e-02 0.1835)" class="st3" width="4.7" height="5"/>
		
			<rect x="59.9" y="9.1" transform="matrix(1 -3.316084e-03 3.316084e-03 1 -3.807557e-02 0.2064)" class="st19" width="4.7" height="5"/>
		
			<rect x="66.9" y="9.1" transform="matrix(1 -3.316084e-03 3.316084e-03 1 -3.803712e-02 0.2295)" class="st1" width="4.7" height="5"/>
		
			<rect x="73.7" y="9.1" transform="matrix(1 -3.316084e-03 3.316084e-03 1 -3.799932e-02 0.2524)" class="st1" width="4.7" height="5"/>
		
			<rect x="80.9" y="9.1" transform="matrix(1 -3.316084e-03 3.316084e-03 1 -3.795956e-02 0.2762)" class="st20" width="4.7" height="5"/>
		
			<rect x="87.8" y="9.1" transform="matrix(1 -3.316084e-03 3.316084e-03 1 -3.792176e-02 0.299)" class="st17" width="4.7" height="5"/>
		
			<rect x="94.8" y="9" transform="matrix(1 -3.316084e-03 3.316084e-03 1 -3.755234e-02 0.3222)" class="st16" width="4.7" height="5"/>
		
			<rect x="101.7" y="9" transform="matrix(1 -3.316084e-03 3.316084e-03 1 -3.751454e-02 0.345)" class="st15" width="4.7" height="5"/>
		
			<rect x="108.7" y="9" transform="matrix(1 -3.316084e-03 3.316084e-03 1 -3.747608e-02 0.3682)" class="st5" width="4.7" height="5"/>
		
			<rect x="115.6" y="9" transform="matrix(1 -3.316084e-03 3.316084e-03 1 -3.743828e-02 0.391)" class="st18" width="4.7" height="5"/>
		
			<rect x="122.5" y="8.9" transform="matrix(1 -3.316084e-03 3.316084e-03 1 -3.706886e-02 0.4142)" class="st15" width="4.7" height="5"/>
		
			<rect x="129.4" y="8.9" transform="matrix(1 -3.316084e-03 3.316084e-03 1 -3.703106e-02 0.4371)" class="st15" width="4.7" height="5"/>
		
			<rect x="136.4" y="8.9" transform="matrix(1 -3.316084e-03 3.316084e-03 1 -3.699261e-02 0.4602)" class="st4" width="4.7" height="5"/>
		
			<rect x="143.3" y="8.9" transform="matrix(1 -3.316084e-03 3.316084e-03 1 -3.695481e-02 0.4831)" class="st17" width="4.7" height="5"/>
		
			<rect x="66.9" y="0.3" transform="matrix(1 -3.316084e-03 3.316084e-03 1 -8.912127e-03 0.2295)" class="st1" width="4.7" height="5"/>
		
			<rect x="73.7" y="0.2" transform="matrix(1 -3.316084e-03 3.316084e-03 1 -8.543366e-03 0.2523)" class="st3" width="4.7" height="5"/>
		
			<rect x="87.9" y="0.2" transform="matrix(1 -3.316084e-03 3.316084e-03 1 -8.465480e-03 0.2993)" class="st15" width="4.7" height="5"/>
		
			<rect x="94.8" y="0.2" transform="matrix(1 -3.316084e-03 3.316084e-03 1 -8.427679e-03 0.3222)" class="st20" width="4.7" height="5"/>
		
			<rect x="101.7" y="0.2" transform="matrix(1 -3.316084e-03 3.316084e-03 1 -8.389877e-03 0.345)" class="st17" width="4.7" height="5"/>
		
			<rect x="108.7" y="0.1" transform="matrix(1 -3.316084e-03 3.316084e-03 1 -8.020459e-03 0.3682)" class="st17" width="4.7" height="5"/>
		
			<rect x="115.6" y="0.1" transform="matrix(1 -3.316084e-03 3.316084e-03 1 -7.982657e-03 0.391)" class="st17" width="4.7" height="5"/>
		
			<rect x="122.5" y="0.1" transform="matrix(1 -3.316084e-03 3.316084e-03 1 -7.944203e-03 0.4142)" class="st17" width="4.7" height="5"/>
		
			<rect x="129.4" y="0.1" transform="matrix(1 -3.316084e-03 3.316084e-03 1 -7.906070e-03 0.437)" class="st18" width="4.7" height="5"/>
		
			<rect x="136.5" y="0" transform="matrix(1 -3.316084e-03 3.316084e-03 1 -7.536333e-03 0.4605)" class="st4" width="4.7" height="5"/>
		
			<rect x="143.4" y="0" transform="matrix(1 -3.316084e-03 3.316084e-03 1 -7.498531e-03 0.4833)" class="st5" width="4.7" height="5"/>
		
			<rect x="150.3" y="0" transform="matrix(1 -3.316084e-03 3.316084e-03 1 -7.460730e-03 0.5062)" class="st4" width="4.7" height="5"/>
		<rect x="88.4" y="78.3" class="st16" width="28.9" height="2"/>
		<polygon class="st16" points="114.5,88.9 131.2,79.3 114.5,69.7 		"/>
		<rect x="174.4" y="16" class="st16" width="28.8" height="2"/>
		<polygon class="st16" points="200.5,26.7 217.2,17 200.5,7.3 		"/>
	</g>
	<g>
		<polygon class="st5" points="713.3,57.9 716.2,63.9 722.8,64.9 718.1,69.5 719.2,76.1 713.3,73.1 707.4,76.1 708.6,69.5 
			703.8,64.9 710.4,63.9 		"/>
		<polygon class="st5" points="736.1,57.9 739.1,63.9 745.7,64.9 740.9,69.5 742,76.1 736.1,73.1 730.3,76.1 731.3,69.5 726.6,64.9 
			733.2,63.9 		"/>
		<polygon class="st5" points="759,57.9 762,63.9 768.5,64.9 763.8,69.5 764.9,76.1 759,73.1 753.1,76.1 754.2,69.5 749.5,64.9 
			756,63.9 		"/>
		<polygon class="st5" points="781.9,57.9 784.8,63.9 791.4,64.9 786.6,69.5 787.8,76.1 781.9,73.1 776,76.1 777.1,69.5 772.3,64.9 
			778.9,63.9 		"/>
		<polygon class="st5" points="804.8,57.9 807.7,63.9 814.3,64.9 809.5,69.5 810.6,76.1 804.8,73.1 798.8,76.1 800,69.5 795.2,64.9 
			801.8,63.9 		"/>
	</g>
	<g>
		<g>
			<path class="st9" d="M589.2,146c0.9-0.6,1.6-1.4,2.3-2.3c0.2,0.8,0.1,1.7-0.2,2.5c-0.3,0.4-3,1.6-3.3,1.1
				C587.4,146.8,588.5,146.6,589.2,146z"/>
			<path class="st9" d="M596.6,145.1c-0.5,1.9-0.9,3.6-0.9,3.7c-0.7,2.5-6,1-6,0.4c-0.1-1.4,0.9-2.4,1.8-5.5
				C593.2,144.1,594.9,144.5,596.6,145.1z"/>
			<path class="st9" d="M589.1,105.1c4.2,1.2,8.1,36.4,7.5,40c-1.7-0.3-3.5-0.4-5.2-0.1c0.1-6.7-7.3-29.1-8.2-35.3
				c-0.1-0.4-0.1-0.8,0-1.2C583.5,106.4,585.3,104,589.1,105.1z"/>
			<path class="st2" d="M563.6,75.8c5.9-2.7,24.1,22.2,27.8,28.6c3.7,6.2,6.4,28,6.7,37.4l-7.7,0.6c0-3.8-2.9-13.6-5.2-21.5
				c-1.1-3.6-2-7.1-2.7-9.7c-0.6-0.4-28-18.8-30.1-21C552.1,90.1,561.6,76.7,563.6,75.8z"/>
			<path class="st22" d="M555.6,271.5l-4.3-2c0,0-0.8,1.4-1.5,2.3c-1.3,1.7-7.9,3.3-7.7,5.7c0.1,1.2,2.6,2.1,4.6,2
				c1.7,0,3.3-0.4,4.8-1c1.2-0.5,3.8-1.8,4.2-2.5c0.4-0.9,0.4-1.9,0-2.7C556,271.9,555.6,271.5,555.6,271.5z"/>
			<path class="st22" d="M539.3,266.2l-4.5-1.4c0,0-0.6,0.1-1.3,1.1c-0.9,0.4-1.5,1.1-1.8,2c-0.2,0.8,1.1,3.1,1.4,4.7
				c0.6,1.6,1.6,2.9,2.9,4c1.5,1.4,4,2.4,4.8,1.6c1.7-1.6-2.1-7.2-1.9-9.4C539,267.7,539.3,266.2,539.3,266.2z"/>
			<path class="st11" d="M553.3,141.9c-2.9,17.3-0.2,47.4,0.9,71.3c0.5,10.6-20.5,52.4-20.5,52.4c1.4,1.5,3.5,2.2,5.4,1.7
				c0,0,30.9-36.7,32.9-53.2c4.1-34.4,9.1-77.4,8.8-80.2C577.5,135,563,143,553.3,141.9z"/>
			<path class="st23" d="M529.9,136c-0.4,5.4,20.4,134.2,20.4,134.2c0.1,0.2,4.7,2.1,6.6-0.2c0,0-0.3-30,1.9-58.5
				c1.9-24.6-1.2-75.1-1.2-75.1C547.8,137.8,533.3,137.2,529.9,136z"/>
			<path class="st9" d="M549.4,61.2c-0.7,0.6-7.5,5.1-9.5,4.9c0.1,0.6,1.9,6.4,0.8,9.7c0.8,2.9,9.1,2.3,11-2.9
				C550.6,71.6,549.2,64,549.4,61.2z"/>
			<path class="st9" d="M452.3,68.3c-0.1-0.3-0.1-0.7,0.2-0.9c0.5-0.3,1.1-0.4,1.6-0.4c0.9,0.4,1.7,0.9,2.5,1.4
				c0.2,0.1,3,1.9,4.2,2.8c1,0.7,1.9,1.6,2.8,2.4c-0.7,1.6-1.5,3.2-2.5,4.7c-1.7-1.3-6.6-5.6-6.7-5.6c-2.3-1.3-2.4-2.4-1.6-2.6
				C452.8,70.1,451.7,68.7,452.3,68.3z"/>
			<path class="st9" d="M495.9,89.3c0.3,0.2,0.6,0.5,0.9,0.8c1.3,1.5,2.1,4.4-1.2,6.7c-3.6,2.5-26.7-12.2-35.3-19
				c1.2-1.3,2.1-2.8,2.9-4.4C468.3,77.6,490.5,86,495.9,89.3z"/>
			<path class="st2" d="M494.8,87.6c0.7-0.2,24.1-8.6,42.8-10.2c2.1-0.2-5.2,15.3-6.7,16.8c-5.3,5.4-28.9,5.9-36.3,4.7
				c-7.1-1.1-25.8-12.7-33.2-18.5l4.4-6.4C468.7,76.4,492.4,86.5,494.8,87.6z"/>
			<path class="st9" d="M540.5,51.3c-3.8,0-6.7,1.8-7.2,5.4c-0.2,1.3,1.2,12.7,7.5,14c2.6,0.5,7.3-4.3,7.2-7.3c0,0,0-4.1,0-4.2
				C547.9,55.1,544.5,51.2,540.5,51.3z"/>
			<path class="st24" d="M546.2,46c-8.4-5.2-20,3.2-18.9,10.9c0.2,1.7,2.6,5.5,17.9-0.8c2.4,2.4,4.3,8.4,4.3,8.4
				C553.4,59.4,552.6,50,546.2,46z"/>
			<path class="st3" d="M532.3,79.4c2.4-1.2,4.8-2.3,7.3-3.2l0.3,6.8l4-5.5c0.3,0,0.5,0,0.8,0c0.6-0.1,1.2-0.3,1.8-0.6l5.5,5.9
				l4.3-9.1c1.6,0.3,3.2,0.6,4.1,0.7c6.4,1.1,9.8,6.6,11.7,11.8c4.3,11.8,8.1,38.8,9.1,46.1c0.2,1.2-0.3,2.4-1.3,3.1
				c-11.8,8.5-43.3,8.1-49,5.9c-4.4-1.7,0.7-35.2-2.8-49.4C526.4,87.2,528.2,82.1,532.3,79.4z"/>
			<polygon class="st6" points="548.6,84.6 554.1,134.9 547.1,128 545.3,84.6 			"/>
			<polygon class="st6" points="545.3,85.1 548.6,84.8 549.8,79.3 549.2,77.5 542.4,78.3 541.8,80 			"/>
			<path class="st25" d="M550.7,73.7c0.6-0.5,1-0.9,1-0.9l3.2,0.6l1.3,0.2l-4.3,9.1l-5.5-5.9C547.9,76,549.4,75,550.7,73.7z"/>
			<path class="st25" d="M543.8,77.5l-4,5.5l-0.3-6.8l1.1-0.4C541.5,76.6,542.6,77.2,543.8,77.5z"/>
		</g>
		<path class="st9" d="M547.7,57.6c-0.6,0.1-1.2,0.3-1.6,0.7c0.6,1.5,1.4,3,2.1,4.5c1.1-0.6,1.8-1.7,1.8-3
			C549.8,58.7,548.7,57.5,547.7,57.6z"/>
	</g>
	<g>
		<g>
			<rect x="203" y="113.8" class="st11" width="26" height="58.4"/>
			<rect x="205.3" y="119.1" class="st26" width="21.3" height="8.9"/>
			<rect x="205.3" y="130.1" class="st26" width="21.3" height="5.3"/>
			<rect x="228.9" y="113.8" class="st26" width="39.9" height="58.4"/>
		</g>
		<g>
			<g>
				<rect x="376.8" y="182" class="st27" width="2.9" height="97.4"/>
				<rect x="339" y="182" class="st27" width="2.9" height="97.4"/>
				<rect x="197.3" y="182" class="st1" width="2.9" height="97.4"/>
				<rect x="330.8" y="171.3" class="st28" width="56.8" height="10.9"/>
				<rect x="235.1" y="182" class="st1" width="2.9" height="97.4"/>
				<rect x="192.2" y="171.3" class="st27" width="138.6" height="10.9"/>
			</g>
			<g>
				<polygon class="st6" points="323.4,98.7 319.4,103.1 323.8,107 320.4,107.2 315.9,103.3 319.8,98.9 				"/>
				<rect x="302.1" y="156.6" class="st24" width="29.2" height="13.3"/>
				<path class="st11" d="M270.1,98h93.8c2.7,0,4.8,2.1,4.8,4.8v51.1c0,2.7-2.1,4.8-4.8,4.8h-93.8c-2.7,0-4.8-2.1-4.8-4.8v-51.1
					C265.4,100.1,267.5,98,270.1,98z"/>
				<rect x="268.5" y="100.8" class="st3" width="97" height="49.3"/>
				<path class="st11" d="M339.5,168h-47.3c-1.1-0.1-1.9,0.7-2,1.7s0.7,1.9,1.7,2c0.1,0,0.2,0,0.3,0h47.3c1.1,0.1,1.9-0.7,2-1.7
					s-0.7-1.9-1.7-2C339.7,168,339.6,168,339.5,168z"/>
				<rect x="274.9" y="107.2" class="st5" width="5.7" height="42.9"/>
				<rect x="268.5" y="100.8" class="st1" width="6.4" height="49.4"/>
				<g>
					<rect x="275.8" y="108.7" class="st7" width="3.8" height="3.4"/>
					<rect x="275.8" y="113.6" class="st7" width="3.8" height="3.4"/>
					<rect x="275.8" y="118.5" class="st7" width="3.8" height="3.4"/>
					<rect x="275.8" y="123.3" class="st7" width="3.8" height="3.4"/>
					<rect x="275.8" y="128.2" class="st7" width="3.8" height="3.4"/>
					<rect x="275.8" y="133.1" class="st7" width="3.8" height="3.4"/>
					<rect x="275.8" y="140.3" class="st7" width="3.8" height="7.3"/>
				</g>
				<rect x="268.5" y="100.8" class="st4" width="97" height="6.4"/>
				<path class="st7" d="M283.6,102.5h-9.5c-0.9,0-1.4,0.7-1.4,1.4c0,0.8,0.7,1.4,1.4,1.4h9.5c0.9,0,1.4-0.7,1.4-1.4
					C285,103.2,284.5,102.5,283.6,102.5z"/>
				<path class="st7" d="M298.1,102.5h-9.5c-0.9,0-1.4,0.7-1.4,1.4c0,0.8,0.7,1.4,1.4,1.4l0,0h9.5c0.9,0,1.4-0.7,1.4-1.4
					C299.5,103.2,299,102.5,298.1,102.5z"/>
				<path class="st7" d="M312.5,102.5H303c-0.9,0-1.4,0.7-1.4,1.4c0,0.8,0.7,1.4,1.4,1.4h9.5c0.9,0,1.4-0.7,1.4-1.4
					C313.9,103.2,313.4,102.5,312.5,102.5L312.5,102.5z"/>
				<path class="st7" d="M327,102.5h-9.5c-0.9,0-1.4,0.7-1.4,1.4c0,0.8,0.7,1.4,1.4,1.4h9.5c0.9,0,1.4-0.7,1.4-1.4
					C328.5,103.2,327.8,102.5,327,102.5z"/>
				<path class="st7" d="M341.4,102.5h-9.5c-0.9,0-1.4,0.7-1.4,1.4c0,0.8,0.7,1.4,1.4,1.4h9.5c0.9,0,1.4-0.7,1.4-1.4
					C342.9,103.2,342.3,102.5,341.4,102.5z"/>
				<g>
					<g>
						
							<ellipse id="SVGID_3_" transform="matrix(0.5364 -0.844 0.844 0.5364 32.1509 314.2913)" class="st7" cx="302.1" cy="127.9" rx="11.8" ry="11.8"/>
					</g>
					<g>
						<g>
							<defs>
								
									<ellipse id="SVGID_4_" transform="matrix(0.5364 -0.844 0.844 0.5364 32.1509 314.2913)" cx="302.1" cy="127.9" rx="11.8" ry="11.8"/>
							</defs>
							<clipPath id="SVGID_5_">
								<use xlink:href="#SVGID_4_"  style="overflow:visible;"/>
							</clipPath>
							<g class="st29">
								<path class="st9" d="M310.9,158.3c0.3,0.2,0.7,0.3,0.5,0.6c-0.2,0.3-1.2-0.3-1.2-0.5c-0.2-0.3-0.2-0.6-0.1-1
									C310.2,157.6,310.5,157.9,310.9,158.3z"/>
								<path class="st9" d="M310.6,159.5c0,0.2-2,0.7-2.3-0.2c0-0.1-0.2-0.7-0.3-1.4c0.7-0.2,1.3-0.4,2-0.5
									C310.3,158.6,310.7,159,310.6,159.5z"/>
								<path class="st10" d="M306,130.2c-0.8,0.4-4.2,5.7-4.1,5.9c0.9,0.8,11.6,7.7,11.8,7.8c0.3,1,0.8,2,1.2,3.5
									c1,3.1,2.3,6.7,2.3,8.2l3-0.4c-0.2-3.6-1.6-11.7-3.2-14C315.5,138.7,308.2,129.1,306,130.2z"/>
								<path class="st11" d="M290.4,152.7c0,0-0.4,4-0.4,7.5c2.5,0.9,5.2,1.4,7.8,1.4l1.2-3.5c0,0,1.6,3.5,2.3,3.6
									c3.5,0.1,7-0.3,9.4-1.7l-1.2-5.2L290.4,152.7z"/>
								<path class="st12" d="M300.9,123.8c0.2,1.1-0.3,4-0.7,4.5c0.8,1.9,4,2.1,4.2,0.9c-0.5-1.2,0.2-3.6,0.2-3.7
									C303.8,125.8,301.2,124.1,300.9,123.8z"/>
								<path class="st10" d="M309.6,135.4c0.5-1.8-0.3-3.7-1.9-4.8c-0.6-0.3-3.3-1.2-3.3-1.2c-0.4,0.5-0.9,0.7-1.4,0.8
									c-1.2-0.2-2.8-1.6-2.8-1.6s-2.4,0.6-3.3,0.8c-2.5,0.6-3.6,2.7-4.3,4.7c-1.4,4.6-2.5,15.1-2.7,17.9c-0.1,0.5,0.2,0.9,0.6,1.2
									c4.7,3.1,16.7,2.4,18.9,1.5C311,153.7,308.6,140.8,309.6,135.4z"/>
								<path class="st9" d="M338.7,162c0-0.1,0-1.3,0.1-1.9c0.1-0.5,0.2-0.9,0.2-1.3c0.7-0.1,1.3-0.2,2-0.1
									c-0.1,0.8-0.6,3.3-0.6,3.4c0,1-0.3,1.2-0.6,1.1c-0.1-0.1-0.3,0.6-0.6,0.5c-0.1,0.1-0.2,0.2-0.4,0.2
									c-0.2-0.1-0.4-0.2-0.5-0.5C338.7,162.7,338.7,162.4,338.7,162z"/>
								<path class="st9" d="M289.8,144.5c-0.2-0.9-1.2-1.3-2-1.2c-0.2,0.1-0.3,0.1-0.4,0.2c-1.6,0.7-1.3,11.2-0.9,15.4
									c0.7-0.1,1.3-0.2,2-0.1c-0.4-2.5,1.2-11.5,1.2-13.9C289.9,144.8,289.9,144.6,289.8,144.5z"/>
								<path class="st10" d="M295.8,129.8c-2.4-0.7-8.1,9.4-9.2,12.1c-1.2,2.7-1,11-0.6,14.6l3-0.2c-0.2-1.4,0.4-5.3,0.9-8.4
									c0.2-1.4,0.4-2.8,0.6-3.7c3.7-2.5,6.9-5.6,9.6-9.1C300.4,134.2,296.7,130,295.8,129.8z"/>
								<path class="st11" d="M307.5,127.2c0.4-1.3,0.2-2.8-0.4-4c-0.6-1.2-2.9,1.1-3,1.1c0.3,1.2,0.3,2.5,0,3.7
									c-0.2,1.2-1.2,2.2,0.1,4.1c2.3,3.2,6.2-0.9,5.4-1.4C308.9,130.3,306.9,129.6,307.5,127.2z"/>
								<path class="st12" d="M304.2,119.9c-1.6,0.2-2.8,1.5-2.7,3.1l0.1,1.6c0,1.2,1.9,3,2.9,2.7c2.3-0.6,2.7-5,2.7-5.5
									C306.7,120.6,305.5,119.9,304.2,119.9z"/>
								<path class="st11" d="M298.8,118.9c-1.7,1.8-2.3,4.4-1.6,6.9c0.9,2.7-1,3.3-1.6,4.1c-2.4,3.9,6.4,4.8,6.4,1.2
									c-0.2-1.8-0.6-3.6-1.1-5.3c-0.2-1.3,0-2.8,0.6-4c1.1,0.2,2,0.4,3.1,0.5c0.6,0.1,2,0,2,0s-0.1,1.2-0.3,2.3
									c1.3-1.2,1.2-4.6-0.2-5.9C304.2,116.7,300.9,116.8,298.8,118.9z"/>
								<path class="st12" d="M300.6,123.4c0.1,0.5,0.4,0.9,0.8,1.2c0.2-0.6,0.5-1.2,0.7-1.7c-0.2-0.2-0.4-0.2-0.6-0.2
									C301.1,122.4,300.7,123,300.6,123.4z"/>
							</g>
						</g>
					</g>
				</g>
				<rect x="323.8" y="118.9" class="st7" width="6.4" height="1.1"/>
				<rect x="323.8" y="121.5" class="st7" width="9.9" height="1.1"/>
				<rect x="333.2" y="118.9" class="st7" width="9.5" height="1.1"/>
				<rect x="344.6" y="118.9" class="st7" width="5" height="1.1"/>
				<rect x="343.3" y="121.5" class="st7" width="11.1" height="1.1"/>
				<rect x="323.8" y="124.1" class="st7" width="6.4" height="1.1"/>
				<rect x="323.8" y="126.6" class="st7" width="20.2" height="1.1"/>
				<rect x="333.2" y="124.1" class="st7" width="12.4" height="1.1"/>
				<rect x="348" y="124.1" class="st7" width="6.5" height="1.1"/>
				<rect x="346.5" y="126.6" class="st7" width="11.5" height="1.1"/>
				<rect x="335.8" y="121.5" class="st7" width="4.7" height="1.1"/>
				<rect x="323.8" y="132.3" class="st7" width="6.4" height="1.1"/>
				<rect x="323.8" y="134.9" class="st7" width="9.9" height="1.1"/>
				<rect x="333.2" y="132.3" class="st7" width="9.5" height="1.1"/>
				<rect x="344.6" y="132.3" class="st7" width="5" height="1.1"/>
				<rect x="343.3" y="134.9" class="st7" width="11.1" height="1.1"/>
				<rect x="323.8" y="137.5" class="st7" width="6.4" height="1.1"/>
				<rect x="323.8" y="140" class="st7" width="20.2" height="1.1"/>
				<rect x="333.2" y="137.5" class="st7" width="12.4" height="1.1"/>
				<rect x="335.8" y="134.9" class="st7" width="4.7" height="1.1"/>
				<path class="st30" d="M300.5,144.9c-8.7-0.9-15.5-8.2-15.5-17c0-0.2,0-0.4,0-0.6"/>
				<polygon class="st6" points="287.6,130.8 285.1,127.8 282.2,130.4 282.3,128 285.2,125.5 287.8,128.4 				"/>
				<path class="st30" d="M318.8,124.4c1.8,9.2-4.1,18.2-13.3,20.2c-0.5,0.1-1,0.2-1.4,0.2"/>
				<polygon class="st6" points="307.1,141.8 304.5,144.8 307.4,147.4 305.1,147.6 302.1,145 304.7,142 				"/>
				<path class="st30" d="M285.8,122.8c2.8-9,12.4-14,21.4-11.1c4.5,1.4,8.2,4.6,10.3,8.8"/>
				<polygon class="st6" points="313.7,118.5 317.3,120 318.8,116.4 319.7,118.5 318.3,122.1 314.6,120.7 				"/>
				<path class="st11" d="M270.2,98.4c-0.5,0-1,0.1-1.3,0.3c-1.8,1.1-1.8,2.3-1.3,3.5c1.2-1.2,2.7-2.3,4.3-2.9
					C271.4,98.8,270.8,98.5,270.2,98.4z"/>
				<rect x="268.5" y="107.2" class="st6" width="6.3" height="42.9"/>
			</g>
			<g>
				<g>
					<path class="st9" d="M257.6,86.6c0.5,0.1,0.3,2.3,0,2.6c-1,0.7-1.4,0.2-2.1,1c0.6-0.8,1-1.8,1.4-2.7
						C256.9,87,256.9,86.3,257.6,86.6z"/>
					<path class="st9" d="M261.5,85.9c0.8-0.5,1.6-1,2.4-1.4c0.6,0,1.1,0.1,1.6,0.4c0.2,0.2,0.3,0.6,0.2,0.9
						c0.6,0.4-0.6,1.7-0.4,1.7c0.7,0.2,0.6,1.2-1.6,2.5c-0.1,0.1-4.9,4.2-6.4,5.4c-1-1.4-1.8-2.9-2.4-4.5c0.8-0.8,1.7-1.6,2.7-2.3
						C258.6,87.7,261.3,86,261.5,85.9z"/>
				</g>
				<g>
					<path class="st9" d="M220.2,134.5c0.2,0.4-1.5,1.7-2,1.7c-1.2-0.2-1-0.9-2.1-1c1-0.1,2-0.4,3-0.8
						C219.5,134.2,220,133.8,220.2,134.5z"/>
					<path class="st9" d="M223.3,137c0.9,0.2,1.8,0.5,2.6,0.9c0.4,0.4,0.6,0.9,0.7,1.4c0,0.3-0.3,0.6-0.6,0.7
						c0.1,0.7-1.6,0.7-1.6,0.8c0.3,0.7-0.5,1.2-2.9,0.4c-0.1,0-6.3-0.9-8.3-1.3c0.4-1.7,1-3.3,1.8-4.8c1.2,0.1,2.4,0.2,3.5,0.5
						C220.1,135.9,223.1,136.9,223.3,137z"/>
				</g>
				<path class="st4" d="M192.2,95.3c2.9,0.2,8.7,1.8,14.8,3.5c5.5,1.7,11.1,3,16.7,4.1c0.7,0.1,1.4,0.2,2.1,0.4
					c2.4-1.1,5.6-2.5,9-4c7.4-3.2,16.7-7.2,19.5-9.6l4.4,6.2c-7.2,5.7-25.6,17.4-32.5,18.5c-7.3,1.2-34.9,2.1-36.6-4
					c-0.6-2.1,0.3-13,1.7-14.6C191.3,95.4,191.8,95.3,192.2,95.3z"/>
				<path class="st24" d="M162.3,271.9l4-2.1c0,0,0.8,1.3,1.5,2.1c1.3,1.6,7.7,2.7,7.7,5c0,1.1-2.4,2.1-4.3,2.2
					c-1.6,0.1-3.2-0.2-4.7-0.6c-1.1-0.4-3.8-1.4-4.2-2.1c-0.4-0.8-0.5-1.8-0.2-2.6C161.9,272.3,162.3,271.9,162.3,271.9z"/>
				<path class="st9" d="M167.3,269.5c-0.4,0.7-0.2,1.6,0.4,2.2c-0.6,0.9-1.4,1.7-2.3,2.2c-0.8,0.5-3.3-0.4-3.3-0.4
					c-0.1-1-0.2-2-0.1-3.1L167.3,269.5z"/>
				<path class="st11" d="M177.3,144.5c0.4,2.7,10.1,38.7,7.3,72.6c-2.4,29.1-17.4,53.3-17.4,53.3c0,0.2-3.9,2.3-5.8,0.2
					c0-5.1,6.9-52.8,6.8-53.3c-4.7-16.2-15.5-44.3-17.4-45.8v-24.8C160.4,147.3,174.1,145.9,177.3,144.5z"/>
				<path class="st24" d="M132.3,272.1l4.1-1.9c0,0,0.7,1.3,1.4,2.2c1.2,1.7,7.5,3.3,7.3,5.6c-0.1,1.1-2.5,2-4.5,1.9
					c-1.6,0.1-3.2-0.3-4.6-1c-1.2-0.9-3.6-1.7-4-2.5c-0.4-0.8-0.4-1.8,0-2.6C132,272.6,132.3,272.1,132.3,272.1z"/>
				<path class="st9" d="M137.3,270.1c-0.2,0.8,0,1.7,0.5,2.4c-0.6,0.9-1.5,1.6-2.5,2c-0.9,0.4-3.2-0.7-3.2-0.7
					c-0.1-1.3,0-3.1,0-3.1L137.3,270.1z"/>
				<path class="st11" d="M137,141.1c8.2-3.5,20.1,1.1,23.3,5.3c0.2,2.7,3.1,38.8-1.1,72.6c-2.1,17.7-21.7,42.3-21.7,52.1
					c-0.1,0.2-4.1,2-5.8-0.3c0-24.1,11.2-53.2,11.2-53.2C140.8,196.4,125.1,163.6,137,141.1z"/>
				<path class="st9" d="M188.9,82.6c-0.1,0.5-2.8,5.8-2.3,9.1c-1.2,2.7-9,0.8-9.9-4.5c1.2-1.1,3.7-8.1,4-10.7
					C181.2,77.1,187,82.4,188.9,82.6z"/>
				<path class="st9" d="M182.4,74.9c0.7-3.8,3.7-6.5,7.5-5.9c3.6,0.6,6.8,2.3,6.7,5.8c0,1.3-3.1,11.8-9.2,12.1
					c-2.6,0.1-6.2-5.2-5.7-8L182.4,74.9z"/>
				<path class="st4" d="M168.4,87.4c2.1-0.3,8.4-0.2,8.4-0.2s3.3,4.6,6,5.5c1.8,0.6,3.9-1.1,3.9-1.1s6.3,3.7,7.3,4.7
					c4.1,3.9-0.2,12-1.5,17.2c-0.5,1.8-4.7,16.5-9.9,50.4c-4.1,12.4-27.4,11.6-43.2,0.6l1.8-17.6l-6.2,15.9
					c-1.1-0.4-3.4-0.9-4.3-1.2C136.6,110,150,90.2,168.4,87.4z"/>
				<path class="st31" d="M183.1,61.6c8.2-5.1,19.7,3.1,18.6,10.7c-0.2,1.7-2.5,5.4-17.6-0.7c-2.4,2.4-4.2,8.2-4.2,8.2
					C176,74.8,176.8,65.5,183.1,61.6z"/>
				<path class="st9" d="M182.1,73.2c0.6,0,1.1,0.2,1.6,0.5c-0.5,1.5-1,3-1.6,4.4c-1.1-0.5-1.9-1.5-2-2.7
					C180.1,74.5,181.1,73.2,182.1,73.2z"/>
				<path class="st18" d="M168.4,93.7c0.5,0,0.9,0.1,1.2,0.5c1.9,2.2,4.8,7.4,7.9,13c2.7,5.1,5.6,10,8.8,14.8
					c0.4,0.6,0.8,1.2,1.2,1.8c2.5,0.9,5.7,2.2,9.1,3.6c7.5,3,16.9,6.8,20.5,7.2l-1.4,7.5c-9.2-1.1-30.3-6-36-10.3
					c-6-4.3-26-23.4-22.9-28.9C158,100.9,166.4,93.8,168.4,93.7z"/>
			</g>
			<g>
				<path class="st9" d="M245.7,267.9c-0.5,2.9-1.4,5.7-1.4,5.7c-2.1-0.6-4.1-1.6-5.9-3c0,0,1.3-2,2.1-3.8
					C242.8,264.8,245.4,267.9,245.7,267.9z"/>
				<path class="st32" d="M270.6,226.5C256.5,252,246,269.7,246,269.7c-1.3-1.9-3.6-2.8-5.8-2.2c0,0,7-20.3,15.3-44.6
					C260.9,206.8,276.4,216,270.6,226.5z"/>
				<path class="st23" d="M238.8,270.4L238.8,270.4c1.1-1.1,2.6-1.4,4-0.9h0.1c1.1,0.5,1.7,1.6,1.6,2.7c0,1.1-0.3,2.2-0.8,3.2
					c-1.3,1.6-2.9,3-4.6,4.2c-1.5,0.5-3.2,0.5-4.7,0.2c-1.9-0.3-4.2-1.5-4.1-2.7C230.6,274.8,237.3,271.8,238.8,270.4z"/>
				<path class="st11" d="M239.7,272.1c1.9-1.3,5.1,0.9,2.9,4c-1.1,1.4-2.4,2.6-3.9,3.5c-1.3,0.4-2.7,0.4-4,0.1
					c-1.6-0.2-3.5-1.3-3.4-2.2C231.5,275.6,237.8,273.4,239.7,272.1z"/>
				<path class="st9" d="M287.7,167.5c1.4,0.3,4.4,1.2,4.7,1.3c0.9,0.2,1.8,0.5,2.6,0.9c0.4,0.4,0.6,0.9,0.7,1.4
					c0,0.3-0.3,0.6-0.6,0.7c0.1,0.7-1.6,0.7-1.5,0.8c0.3,0.7-0.5,1.2-2.9,0.4c-0.1,0-6.4-0.9-8.3-1.3c0.4-1.7,1-3.3,1.8-4.8
					C285.4,167.1,286.6,167.3,287.7,167.5z"/>
				<path class="st16" d="M239.6,120.6c2.2,5.3,4.4,10.1,7.1,15.8c2.4,5.2,5.1,10.3,8,15.2c0.4,0.6,0.7,1.2,1.1,1.8
					c2.4,1.1,5.6,2.5,8.9,4.1c7.3,3.4,16.5,7.7,20.1,8.3l-1.8,7.4c-9.1-1.6-29.9-7.7-35.3-12.2c-5.7-4.7-22.3-22.5-20.7-28.7
					C229.7,122,239.4,120.3,239.6,120.6z"/>
				<path class="st32" d="M237,184.2c8.2,0.4,51.1,15.8,68.5,26.2c7.4,4.5,4.3,12.4-3.8,11.9c-23.6-1.4-54.8-0.5-68.7-10.5
					C211,196,232.6,184,237,184.2z"/>
				<path class="st9" d="M282.7,267.4c-0.3,1-0.5,2.1-0.5,3.2c-1.3,1.1-3.1,1.7-4.8,1.6c-0.3-1.7-0.3-3.4-0.1-5.1
					C277.5,267.1,280.5,265.4,282.7,267.4z"/>
				<path class="st32" d="M308.7,222.7c-14.2,25.6-25.8,46.9-25.8,46.9c-0.9-1.6-3.7-2.8-5.9-2.1c0,0,8.2-24.1,16.5-48.3
					C298.9,203,314.5,212.2,308.7,222.7z"/>
				<path class="st23" d="M282.2,269.3c0.2,0.4,0.6,0.8,0.9,1.1c1.5,1.4,8.2,4.4,8.5,6.7c0.1,1.1-2.1,2.4-4.1,2.7
					c-1.6,0.4-3.2,0.3-4.7-0.2c-1.4-0.6-4.1-3.6-4.6-4.2c-1.3-1.5-0.8-4.3-0.8-4.3C278.5,268.4,282.2,269.3,282.2,269.3z"/>
				<path class="st11" d="M282.2,272.1c1.9,1.4,8.2,3.5,8.4,5.4c0.1,0.9-1.8,2-3.4,2.2c-1.3,0.3-2.7,0.3-4-0.1
					c-1.5-1-2.8-2.2-3.9-3.5C277.1,273,280.4,270.7,282.2,272.1z"/>
				<path class="st21" d="M223.8,183.4c9.5,1.2,18.9,2.5,28.3,2.7c5.7,0.2,11.3-0.5,16.8-2c0,8.9,1.8,10.2,5.7,12.6
					c-2.8,9.7-8.4,12.4-13.3,14c-12.8,4.2-44.7-5.4-45.6-5.5c0.1-7.6,0.7-15.3,1.6-22.8C219.5,182.8,221.6,183.1,223.8,183.4z"/>
				<path class="st9" d="M312.8,165c0.3,0.4-1.1,2-1.6,2.1c-1.2,0-1.2-0.7-2.3-0.5c1-0.3,1.9-0.8,2.7-1.4
					C312,164.9,312.4,164.4,312.8,165z"/>
				<path class="st9" d="M311.5,166.4c1.4,0,4.6,0.3,4.8,0.3c0.9,0,1.8,0.2,2.7,0.3c0.5,0.3,0.9,0.7,1.1,1.2c0,0.3-0.1,0.7-0.4,0.8
					c0.3,0.6-1.4,1-1.3,1.1c0.4,0.6-0.2,1.3-2.7,1.1c-0.2,0-6.4,0.5-8.4,0.5c0.1-1.7,0.3-3.4,0.7-5.1
					C309.2,166.6,310.3,166.5,311.5,166.4z"/>
				<path class="st9" d="M243.6,106.1c0.3,2.7-0.5,10-1.5,11.4c2.1,4.9,10.1,5,10.7,2.1c-1.2-3.1,0.2-8.8,0.2-9.4
					C251,110.5,244.2,106.6,243.6,106.1z"/>
				<path class="st9" d="M251,96.6c-3.9,0.2-6.3,3.5-6.1,7.4l0.2,4c0.2,2.9,4.9,7.2,7.3,6.6c5.9-1.6,6.6-12.6,6.4-13.8
					C258,97.4,254.5,96.5,251,96.6z"/>
				<path class="st33" d="M256.3,95.2c0,0-8.1-5.2-13.4-0.5c-8.1,7.1,1.2,15.6,1.2,15.6c-0.5-2.6,2.6-12.6,11-12.3
					c0,0,4.5,2.2,3,8.9C261,105.6,262.5,96.5,256.3,95.2z"/>
				<path class="st9" d="M242.9,104.7c0.1,1.2,0.9,2.2,1.9,2.8c0.7-1.4,1.2-2.9,1.8-4.4c-0.5-0.3-1-0.5-1.6-0.6
					C244,102.4,243,103.7,242.9,104.7z"/>
				<path class="st18" d="M234,119.5c2-0.5,8.1-2.1,8.1-2.1s1.2,1.7,4.9,2.4c1.9,0.4,4,0.3,5.8-0.4c0,0,7,2.1,8.2,2.9
					c4.9,2.9,4.9,4.9,5.3,11.7c0.2,3.1,0.2,51.4,7.9,62.6c-0.3,0.5-3,7.1-9.3,8.7l-1.5-13.7l-1.4,14.3c-14.8,3.2-26-2.7-37.9-4.5
					l-1.1-17.9l-3.4,17.3c-1.1-0.1-2.1-0.3-3.1-0.3c0.2-27.3,7.8-68.6,8.1-69.8C225.7,125.3,227.9,121,234,119.5z"/>
				<path class="st5" d="M222.7,100.3c-0.7,7.4-2.4,8-4.6,10.3c-10.7,11.2,8.8,28,10.4,20.5c0.6-3-7.7-5.6,2.5-11.8
					c11.2-6.9,6.2-12.1,5.1-16c-4.3-15,3.5-12.3,5.6-9.5c1.3,1.7,2.1,0.8,2.3-0.8C244.5,86.5,224.9,76,222.7,100.3z"/>
				<path class="st16" d="M265.2,126.3c2,5.4,3.9,10.3,6.4,16.1c2.5,5.8,8.1,16.8,8.4,17.4c2.4,1.1,24.6,5.1,28.1,5.9l-0.9,7.4
					c-9-0.8-30.4-1.3-35.7-6.1c-5.5-4.9-23.4-24.8-21.1-30.7C252.6,130.1,265,125.8,265.2,126.3z"/>
				<g>
					<polygon class="st1" points="211.8,225.9 193.2,279.9 191.1,279.9 209.7,225.9 					"/>
					<polygon class="st1" points="243.1,225.9 224.5,279.9 222.4,279.9 241,225.9 					"/>
					<path class="st1" d="M207.6,146c13,0,25.6,10.6,27.9,23.6l8.2,33.8c1.4,7.7,9.8,13.2,17.6,13.2h17c2.6,0,4.6,2.1,4.6,4.6
						c0,2.6-2.1,4.6-4.6,4.6l-69.9,0.1c-3.3,0-6-2.3-6.7-5.5l-13.3-50.8C186,156.6,194.6,146,207.6,146z"/>
					<path class="st21" d="M207.6,146c13,0,25.6,10.6,27.9,23.6l8.2,33.8c1.4,7.7,9.8,13.2,17.6,13.2h17c2.5,0,4.6,2.1,4.6,4.6
						s-2.1,4.6-4.6,4.6H276c-0.7-1.7-2.4-2.8-4.3-2.8h-17c-7.8,0-16.2-5.5-17.6-13.2L229,176c-2.4-13-15-23.6-27.9-23.6
						c-3.7,0-7.3,0.9-10.5,2.7C194,149.6,200,146,207.6,146z"/>
					<polygon class="st21" points="283.8,279.9 281.7,279.9 263.2,225.9 265.3,225.9 					"/>
					<polygon class="st21" points="252.5,279.9 250.4,279.9 231.8,225.9 233.9,225.9 					"/>
				</g>
			</g>
		</g>
	</g>
	<g>
		<path class="st2" d="M637.9,120.4h48.2c6,0,10.8,4.9,10.8,10.8v48.2c0,6-4.9,10.8-10.8,10.8h-48.2c-6,0-10.8-4.9-10.8-10.8v-48.1
			C627.1,125.3,631.9,120.4,637.9,120.4z"/>
		<path class="st2" d="M718.2,120.4h48.2c6,0,10.8,4.9,10.8,10.8v48.2c0,6-4.9,10.8-10.8,10.8h-48.2c-6,0-10.8-4.9-10.8-10.8v-48.1
			C707.5,125.3,712.3,120.4,718.2,120.4z"/>
		<path class="st2" d="M637.9,200.7h48.2c6,0,10.8,4.9,10.8,10.8v48.2c0,6-4.9,10.8-10.8,10.8h-48.2c-6,0-10.8-4.9-10.8-10.8v-48.2
			C627.1,205.5,631.9,200.7,637.9,200.7z"/>
		<path class="st2" d="M718.2,200.7h48.2c6,0,10.8,4.9,10.8,10.8v48.2c0,6-4.9,10.8-10.8,10.8h-48.2c-6,0-10.8-4.9-10.8-10.8v-48.2
			C707.5,205.5,712.3,200.7,718.2,200.7z"/>
		<g>
			<g>
				<path class="st9" d="M654.9,232.5L654.9,232.5c-1.5,0.8-3.4,0.8-4.9,0l0,0v-2.2c1.5,0.8,3.4,0.8,4.9,0V232.5z"/>
				<path class="st9" d="M650,230.4c-1.4-0.7-2.3-2-2.6-3.6l-0.3-1l0,0c-0.7-0.1-1.1-0.7-1.1-1.4c0-0.1,0-0.2,0-0.3
					c0.1-0.4,0.5-0.8,0.9-0.8l0,0c0.1,0.1,0.2,0.1,0.4,0.1c0.4,0,0.7-0.3,0.7-0.7l0.1-2c0.6,0,1.3,0,1.9-0.1l0,0
					c3.1,2.8,7.8,2.6,7.8,2.6l0,0c0.4,0,0.8,0.4,0.9,0.8c0,0.1,0,0.2,0,0.3c0,0.7-0.5,1.2-1.1,1.4l0,0l-0.3,1
					c-0.3,1.6-1.4,3-2.8,3.7C653.2,231.2,651.4,231.1,650,230.4z"/>
				<path class="st24" d="M657.9,223.4L657.9,223.4c0,0-4.7,0.2-7.8-2.6c1-0.1,2-0.2,2.9-0.5c0,0,1.6,2,4.9,2.2L657.9,223.4
					L657.9,223.4z"/>
				<path class="st24" d="M647,223.4v-2.8c0-3,2.5-5.5,5.5-5.5c3,0,5.5,2.5,5.5,5.5v1.9c-3.3-0.2-4.9-2.2-4.9-2.2
					c-1,0.3-2,0.4-2.9,0.5l0,0c-0.6,0.1-1.3,0.1-1.9,0.1l-0.1,2c0,0.4-0.3,0.7-0.7,0.7C647.2,223.5,647.1,223.5,647,223.4L647,223.4
					z"/>
				<path class="st6" d="M660.9,236.5v2.8h-17v-2.8c0-0.2,0-0.4,0.1-0.6v-0.1c0.3-0.9,1-1.7,1.9-2l4-1.3c1.5,0.8,3.4,0.8,4.9,0
					l4,1.3c0.9,0.3,1.6,1,1.9,2v0.1C660.9,236.1,660.9,236.3,660.9,236.5z"/>
			</g>
			<g>
				<path class="st7" d="M650.9,245.7c-8.9-0.8-15.7-8.3-15.7-17.2V228h1.5v0.6c0,8.2,6.1,14.9,14.3,15.7L650.9,245.7z"/>
				<polygon class="st7" points="638.4,231.3 636,228.5 633.1,230.9 633.2,228.7 636.1,226.2 638.6,229.1 				"/>
				<path class="st7" d="M654.4,245.7l-0.2-1.5c0.5-0.1,0.9-0.1,1.4-0.2c8.5-1.7,14.1-10,12.4-18.6l1.5-0.3
					c1.9,9.4-4.2,18.5-13.5,20.4C655.5,245.5,654.9,245.6,654.4,245.7z"/>
				<path class="st7" d="M637.4,223.8l-1.5-0.5c2.8-9.1,12.6-14.2,21.7-11.4c4.6,1.4,8.4,4.7,10.4,9l-1.4,0.7
					c-1.9-3.9-5.3-6.9-9.5-8.2C648.9,210.8,640,215.5,637.4,223.8z"/>
				<polygon class="st7" points="663.6,219.5 667.1,220.9 668.5,217.3 669.5,219.4 668,223 664.5,221.6 				"/>
				<polygon class="st7" points="657.2,241.4 655.8,244.9 659.3,246.3 657.2,247.2 653.7,245.8 655.1,242.3 				"/>
			</g>
			<g>
				<path class="st6" d="M689.4,236.8c0,3-1.1,5.9-3,8.2l2.1,5l-7.4-1.3c-0.9,0.3-1.8,0.6-2.7,0.7c0-0.4,0.1-0.8,0.1-1.3
					c0-2.1-0.5-4.1-1.5-5.9l0,0l0.5-0.2c4.6-1.9,6.1-5.2,5.6-7.7c-0.3-1.7-1.5-2.8-3.1-2.8c-0.9,0-1.8,0.4-2.7,1
					c-0.9-0.7-1.9-1-2.7-1c-1.5,0-2.7,1.1-3.1,2.8c-0.2,0.9-0.1,1.8,0.2,2.7c-1.9-1-3.9-1.5-6.1-1.5c-0.6,0-1.1,0-1.7,0.1
					c0.7-7,6.9-12,13.9-11.4C684.4,224.9,689.4,230.4,689.4,236.8z"/>
				<path class="st5" d="M683.2,234.2c0.5,2.5-1.1,5.9-5.6,7.7l-0.5,0.2l0,0c-1.2-2.2-3-4-5.1-5.2c-0.3-0.9-0.4-1.8-0.2-2.7
					c0.3-1.7,1.5-2.8,3.1-2.8c0.9,0,1.8,0.4,2.7,1c0.9-0.7,1.9-1,2.7-1C681.7,231.5,682.8,232.6,683.2,234.2z"/>
				<path class="st4" d="M664.1,235.5c0.6-0.1,1.1-0.1,1.7-0.1c7,0,12.7,5.7,12.7,12.7l0,0c0,0.4,0,0.8-0.1,1.3
					c-0.7,7-6.9,12-13.8,11.4c-1.1-0.1-2.1-0.4-3.2-0.7l-7.4,1.3l2.1-5c-4.5-5.3-3.9-13.3,1.4-17.9
					C659.5,236.8,661.8,235.8,664.1,235.5L664.1,235.5z M672.5,248.3c0-0.5-0.4-0.9-0.9-0.9l0,0h-3.3c-0.4,0-0.7-0.3-0.7-0.6
					c-0.1-0.5,0-1.1,0.2-1.6c0.1-0.2,0.2-0.5,0.2-0.7c0-0.3,0.1-0.5,0.1-0.8v-0.3c0-0.9-0.7-1.6-1.6-1.6l-0.2,1.1
					c-0.2,1.2-0.7,2.4-1.4,3.4c-0.4,0.6-1.1,0.9-1.8,0.9h-0.8V246h-3.3v8.4h3.3v-1.1h0.8c1,0,1.9,0.3,2.7,0.8
					c0.4,0.2,0.8,0.4,1.3,0.5c0.5,0.1,0.9,0.1,1.4,0.1h2.7c0.5,0,0.9-0.4,0.9-0.9s-0.4-0.9-0.9-0.9l0,0h0.4c0.5,0,0.9-0.4,0.9-0.9
					s-0.4-0.9-0.9-0.9l0,0c0.5,0,0.9-0.4,0.9-0.9s-0.4-0.9-0.9-0.9l0,0l0,0h0.1C672.1,249.2,672.5,248.8,672.5,248.3L672.5,248.3z"
					/>
				<path class="st9" d="M671.6,249.2L671.6,249.2c0.5,0,0.9,0.4,0.9,1c0,0.6-0.4,0.9-0.9,0.9l0,0l0,0c0.5,0,0.9,0.4,0.9,0.9
					s-0.4,0.9-0.9,0.9h-0.4c0.5,0,0.9,0.4,0.9,0.9s-0.4,0.9-0.9,0.9l0,0h-2.7c-0.5,0-0.9,0-1.4-0.1c-0.5-0.1-0.9-0.2-1.3-0.5
					c-0.8-0.5-1.8-0.8-2.7-0.8h-0.8v-6.2h0.8c0.7,0,1.4-0.4,1.8-0.9c0.7-1,1.2-2.2,1.4-3.4l0.2-1.1c0.9,0,1.6,0.7,1.6,1.6v0.3
					c0,0.3,0,0.5-0.1,0.8c0,0.3-0.1,0.5-0.2,0.7c-0.2,0.5-0.3,1.1-0.2,1.6c0,0.4,0.3,0.6,0.7,0.6h3.3c0.5,0,0.9,0.4,0.9,0.9
					C672.5,248.8,672.1,249.2,671.6,249.2L671.6,249.2z"/>
				<polygon class="st10" points="662.4,253.5 662.4,254.5 659.1,254.5 659.1,246.1 662.4,246.1 662.4,247.3 				"/>
			</g>
		</g>
		<g>
			<path class="st24" d="M743.7,254.8c-0.2,0-0.4-0.2-0.4-0.4v-24.1c0-0.2,0.2-0.4,0.4-0.4c0.2,0,0.4,0.2,0.4,0.4v24.1
				C744.1,254.6,743.9,254.8,743.7,254.8z"/>
			<path class="st18" d="M749.6,233.3c0,3.2-2.6,5.9-5.9,5.9C743.7,236,746.3,233.3,749.6,233.3z"/>
			<path class="st18" d="M749.6,241.4c0,3.2-2.6,5.9-5.9,5.9C743.7,244.1,746.3,241.4,749.6,241.4z"/>
			<path class="st4" d="M742,243.2c1.1,1.1,1.7,2.6,1.7,4.2c-3.2,0-5.9-2.6-5.9-5.9C739.4,241.4,740.9,242,742,243.2z"/>
			<path class="st4" d="M742,235.1c1.1,1.1,1.7,2.6,1.7,4.2c-3.2,0-5.9-2.6-5.9-5.9C739.4,233.3,740.9,234,742,235.1z"/>
			<circle class="st6" cx="743.7" cy="222.5" r="8.5"/>
			<g>
				<path class="st10" d="M724.3,254.6v-0.2c0,1.3,2.7,2.4,6,2.4c3.3,0,6-1.1,6-2.4v2.4c0,1.3-2.7,2.4-6,2.4c-3.3,0-6-1.1-6-2.4
					V254.6z"/>
				<path class="st5" d="M736.2,251.9v2.4c0,1.3-2.7,2.4-6,2.4c-3.3,0-6-1.1-6-2.4v-2.4c0,1.3,2.7,2.4,6,2.4
					C733.5,254.3,736.2,253.3,736.2,251.9z"/>
				<path class="st10" d="M736.2,249.6v2.4c0,1.3-2.7,2.4-6,2.4c-3.3,0-6-1.1-6-2.4v-2.4c0,1.3,2.7,2.4,6,2.4
					C733.5,252,736.2,250.9,736.2,249.6z"/>
				<path class="st5" d="M727.6,247.4c0.9-0.2,1.7-0.2,2.6-0.2c3.3,0,6,1.1,6,2.4c0,1.3-2.7,2.4-6,2.4c-3.3,0-6-1.1-6-2.4
					C724.3,248.6,725.6,247.8,727.6,247.4z"/>
				<path class="st5" d="M727.6,245.2v2.2c-2,0.4-3.4,1.2-3.4,2.2v0.2c-0.9,0.2-1.7,0.2-2.6,0.2c-3.3,0-6-1.1-6-2.4v-2.4
					c0,1.3,2.7,2.4,6,2.4C724.9,247.6,727.6,246.6,727.6,245.2z"/>
				<path class="st10" d="M727.6,242.9v2.4c0,1.3-2.7,2.4-6,2.4c-3.3,0-6-1.1-6-2.4v-2.4c0,1.3,2.7,2.4,6,2.4
					C724.9,245.2,727.6,244.2,727.6,242.9z"/>
				<path class="st5" d="M727.6,240.5v2.4c0,1.3-2.7,2.4-6,2.4c-3.3,0-6-1.1-6-2.4v-2.4c0,1.3,2.7,2.4,6,2.4
					C724.9,242.9,727.6,241.8,727.6,240.5z"/>
				<path class="st10" d="M727.6,238.1v2.4c0,1.3-2.7,2.4-6,2.4c-3.3,0-6-1.1-6-2.4v-2.4c0,1.3,2.7,2.4,6,2.4
					C724.9,240.5,727.6,239.4,727.6,238.1z"/>
				<ellipse class="st5" cx="721.6" cy="238.1" rx="6" ry="2.4"/>
				<path class="st5" d="M724.3,254.6L724.3,254.6c-0.9,0.2-1.7,0.3-2.6,0.3c-3.3,0-6-1.1-6-2.4v-2.4c0,1.3,2.7,2.4,6,2.4
					c0.9,0,1.8-0.1,2.6-0.2V254.6z"/>
				<path class="st10" d="M724.3,251.9v0.2c-0.9,0.2-1.7,0.2-2.6,0.2c-3.3,0-6-1.1-6-2.4v-2.4c0,1.3,2.7,2.4,6,2.4
					c0.9,0,1.8-0.1,2.6-0.2V251.9z"/>
			</g>
			<g>
				<path class="st10" d="M769,248.4v2.4c0,1.3-2.7,2.4-6,2.4c-3.3,0-6-1.1-6-2.4v-2.4c0,1.3,2.7,2.4,6,2.4
					C766.3,250.7,769,249.7,769,248.4z"/>
				<path class="st5" d="M769,246v2.4c0,1.3-2.7,2.4-6,2.4c-3.3,0-6-1.1-6-2.4V246c0,1.3,2.7,2.4,6,2.4
					C766.3,248.4,769,247.3,769,246z"/>
				<path class="st10" d="M769,243.6v2.4c0,1.3-2.7,2.4-6,2.4c-3.3,0-6-1.1-6-2.4v-2.4c0,1.3,2.7,2.4,6,2.4
					C766.3,246,769,244.9,769,243.6z"/>
				<ellipse class="st5" cx="763.1" cy="243.6" rx="6" ry="2.4"/>
			</g>
			<path class="st10" d="M763.1,254.3v2.4c0,1.3-2.7,2.4-6,2.4c-3.3,0-6-1.1-6-2.4v-2.4c0,1.3,2.7,2.4,6,2.4
				C760.5,256.7,763.1,255.7,763.1,254.3z"/>
			<path class="st5" d="M763.1,251.9v2.4c0,1.3-2.7,2.4-6,2.4c-3.3,0-6-1.1-6-2.4v-2.4c0,1.3,2.7,2.4,6,2.4
				C760.5,254.3,763.1,253.3,763.1,251.9z"/>
			<path class="st10" d="M763.1,249.6v2.4c0,1.3-2.7,2.4-6,2.4c-3.3,0-6-1.1-6-2.4v-2.4c0,1.3,2.7,2.4,6,2.4
				C760.5,251.9,763.1,250.9,763.1,249.6z"/>
			<ellipse class="st5" cx="757.1" cy="249.6" rx="6" ry="2.4"/>
			<g>
				<path class="st7" d="M747,224.2c0,0.7-0.2,1.2-0.8,1.7s-1.2,0.7-2.1,0.8v1.4h-0.9v-1.4c-1.1,0-2-0.2-2.8-0.6v-1.7
					c0.3,0.2,0.8,0.3,1.4,0.5s1,0.2,1.5,0.2v-2l-0.5-0.2c-0.9-0.3-1.5-0.7-1.8-1.1c-0.3-0.5-0.6-0.9-0.6-1.5c0-0.7,0.2-1.1,0.8-1.6
					c0.6-0.5,1.2-0.7,2.1-0.8v-1h0.9v1c1,0,1.9,0.2,2.7,0.6l-0.7,1.6c-0.7-0.3-1.4-0.5-2.1-0.6v1.9c0.9,0.3,1.5,0.6,1.8,0.9
					c0.3,0.3,0.7,0.6,0.8,0.8C746.7,223.3,747,223.8,747,224.2z M742.3,220.2c0,0.2,0.1,0.3,0.2,0.5c0.1,0.1,0.3,0.2,0.7,0.3v-1.6
					C742.7,219.6,742.3,219.9,742.3,220.2z M745.1,224.3c0-0.2-0.1-0.3-0.2-0.5s-0.3-0.2-0.7-0.5v1.7
					C744.7,225,745.1,224.7,745.1,224.3z"/>
			</g>
			<g>
				<g>
					<line class="st34" x1="721.6" y1="232.8" x2="721.6" y2="213.8"/>
					<g>
						<polygon class="st7" points="724.2,216.8 721.6,214.2 719.1,216.8 719.1,214.6 721.6,212.1 724.2,214.6 						"/>
					</g>
				</g>
			</g>
			<g>
				<g>
					<line class="st34" x1="763.1" y1="237.9" x2="763.1" y2="223.2"/>
					<g>
						<polygon class="st7" points="765.7,226.2 763.1,223.6 760.6,226.2 760.6,224 763.1,221.5 765.7,224 						"/>
					</g>
				</g>
			</g>
		</g>
		<g>
			<polygon class="st5" points="755.7,150.3 746.3,165.3 746.3,173.8 740,170.3 740,165.3 730.6,150.3 744,150.3 749.9,150.3 			"/>
			<path class="st7" d="M749.9,150.2v0.2h-5.8v-0.2c0-1.6,1.3-2.9,2.9-2.9S749.9,148.6,749.9,150.2L749.9,150.2z"/>
			<circle class="st7" cx="744.1" cy="137" r="2.9"/>
			<circle class="st4" cx="743.2" cy="179.3" r="4"/>
			<circle class="st10" cx="736.7" cy="142.9" r="2.9"/>
			<circle class="st7" cx="724.6" cy="154.9" r="1.8"/>
			<circle class="st7" cx="755.7" cy="132.9" r="1.8"/>
			<circle class="st7" cx="720.7" cy="140.3" r="8.5"/>
			<circle class="st6" cx="764.3" cy="145.6" r="8.5"/>
			<path class="st5" d="M768.6,145.6C768.6,145.6,768.6,145.5,768.6,145.6c0.2-0.3,0.2-0.5,0.2-0.6v-0.2v-0.2c0-0.2,0-0.2,0-0.3
				v-0.2c0-0.2,0-0.3,0-0.5c0,0,0,0,0-0.2c-0.3-1.4-1.2-2.2-2.3-2.2c-0.6,0-1.4,0.3-2,0.8l0,0l0,0c-0.6-0.5-1.4-0.8-2-0.8
				c-1.2,0-2.2,0.8-2.3,2.2c0,0,0,0,0,0.2c0,0.2,0,0.3,0,0.5v0.2c0,0.2,0,0.2,0,0.3v0.2v0.2c0,0.2,0,0.5,0.2,0.6l0,0v0.2l0,0
				c0.5,1.4,1.7,2.8,3.7,3.7c0,0.2,0.2,0.3,0.2,0.3l0,0l0.3-0.2l0.3,0.2l0,0c0-0.2,0.2-0.3,0.2-0.3
				C766.9,148.4,768.1,147,768.6,145.6L768.6,145.6L768.6,145.6z"/>
			<g>
				<defs>
					<circle id="SVGID_6_" cx="720.7" cy="140.3" r="8.5"/>
				</defs>
				<clipPath id="SVGID_7_">
					<use xlink:href="#SVGID_6_"  style="overflow:visible;"/>
				</clipPath>
				<g class="st35">
					<path class="st24" d="M725,143.1c0.1,0.7,0,1.5-0.4,2s-1.1,0.9-1.9,0.9l0,0l-0.4-0.1v-1.1c1.3-0.6,2.2-2,2.2-3.5l0,0h0.1
						L725,143.1z"/>
					<path class="st24" d="M719.2,144.9v1.1l-0.6,0.2l0,0c-0.7-0.1-1.3-0.4-1.8-1c-0.4-0.6-0.6-1.3-0.3-2l0.4-1.7l0,0l0,0
						c0,1,0.3,1.9,1,2.6C718.3,144.5,718.7,144.7,719.2,144.9z"/>
					<path class="st6" d="M718.7,146.2l0.6-0.2l1.6,1.6v1.8l-3-2.9L718.7,146.2z"/>
					<path class="st6" d="M723.8,146.5l-3,2.9l0,0v-1.8l0,0l1.6-1.6l0.4,0.1l0.2,0.1L723.8,146.5z"/>
					<path class="st9" d="M720.8,147.6l-1.6-1.6v-1.1c0.3,0.2,0.8,0.2,1.2,0.2h0.7c0.4,0,0.9-0.1,1.2-0.2v1.1L720.8,147.6
						L720.8,147.6z"/>
					<path class="st9" d="M716.9,141.5c-0.4-0.1-0.7-0.4-0.7-0.9c0-0.1,0-0.1,0-0.2c0.1-0.3,0.3-0.4,0.6-0.6v-0.4l0.1,0.1
						c0.2,0.2,0.4,0.2,0.7,0.1c0.1-0.1,0.2-0.1,0.3-0.2c0.1-0.1,0.2-0.2,0.3-0.3c0.7,0,1.8-0.1,2.9-0.9c0.9,0.9,2.1,1.5,3.5,1.5l0,0
						v0.2c0.3,0,0.6,0.2,0.6,0.6c0,0.1,0,0.1,0,0.2c0,0.3-0.2,0.7-0.6,0.8h-0.1l0,0c0,1.5-0.9,2.9-2.2,3.5c-0.3,0.2-0.8,0.2-1.2,0.2
						h-0.7c-0.4,0-0.9-0.1-1.2-0.2c-0.4-0.2-0.9-0.6-1.2-0.9C717.3,143.4,717,142.5,716.9,141.5L716.9,141.5
						C717,141.5,716.9,141.5,716.9,141.5z"/>
					<path class="st24" d="M721.2,138.2c-1.1,0.8-2.2,0.9-2.9,0.9c-0.1,0-0.3,0.1-0.3,0.3c-0.1,0.1-0.1,0.2-0.3,0.2
						c-0.2,0.1-0.4,0.1-0.7-0.1l-0.1-0.1v-1.3c0-1.5,0.8-2.7,2-3.4c1.2-0.7,2.7-0.7,3.9,0c1.2,0.7,1.9,2,1.9,3.5v1.6l0,0
						C723.4,139.7,722.1,139.1,721.2,138.2z"/>
					<path class="st6" d="M720.8,149.4v1.8h-6v-2.4c0-0.8,0.6-1.6,1.2-1.8l1.7-0.6L720.8,149.4z"/>
					<path class="st6" d="M726.7,148.9v2.4h-6v-1.8l0,0l3-2.9l1.7,0.6C726.3,147.4,726.7,148.1,726.7,148.9z"/>
				</g>
			</g>
		</g>
		<g>
			<g>
				<path class="st18" d="M666.1,171.4l-4.6,4.6c-5.4,5.4-14,5.4-19.4,0c-5.4-5.4-5.4-14,0-19.4l4.6-4.6l5,5l-4.6,4.6
					c-2.6,2.6-2.6,6.8,0,9.4c2.6,2.6,6.8,2.6,9.4,0l4.6-4.6L666.1,171.4z"/>
				<path class="st4" d="M647.2,170.9c-2.6-2.6-2.6-6.8,0-9.4l4.6-4.6l-5-5l-4.6,4.6c-5.4,5.4-5.4,14,0,19.4L647.2,170.9z"/>
				<path class="st5" d="M669,168.4l-2.9,2.9l-5-5l2.9-2.9L669,168.4z"/>
				<path class="st18" d="M671.5,165.9l-2.5,2.5l-5-5l2.5-2.5c0.7-0.7,1.8-0.7,2.5,0l2.5,2.5C672.2,164.1,672.2,165.3,671.5,165.9z"
					/>
				<path class="st10" d="M649.7,149l5,5l-2.9,2.9l-5-5L649.7,149z"/>
				<path class="st4" d="M657.2,151.5l-2.5,2.5l-5-5l2.5-2.5c0.7-0.7,1.8-0.7,2.5,0l2.5,2.5C657.9,149.8,657.9,150.9,657.2,151.5z"
					/>
			</g>
			<g>
				<path class="st9" d="M666.1,142.2L666.1,142.2c-1.1,0.6-2.3,0.6-3.4,0l0,0v-1.6c1.1,0.6,2.3,0.6,3.4,0V142.2z"/>
				<path class="st9" d="M662.7,140.7c-1-0.6-1.7-1.4-1.8-2.4l-0.2-0.7l0,0c-0.4-0.1-0.8-0.4-0.8-1c0-0.1,0-0.1,0-0.2
					c0.1-0.3,0.3-0.6,0.7-0.6l0,0c0.1,0,0.2,0.1,0.2,0.1c0.2,0,0.6-0.2,0.6-0.4l0.1-1.4c0.4,0,0.9,0,1.3,0l0,0
					c2.2,2,5.5,1.9,5.5,1.9l0,0c0.3,0,0.6,0.2,0.7,0.6c0,0.1,0,0.1,0,0.2c0,0.4-0.3,0.9-0.8,1l0,0l-0.2,0.7c-0.2,1.1-1,2.1-2,2.6
					C664.9,141.2,663.7,141.2,662.7,140.7z"/>
				<path class="st24" d="M668.2,135.8L668.2,135.8c0,0-3.3,0.1-5.5-1.9c0.7,0,1.4-0.2,2.1-0.3c0,0,1.1,1.4,3.4,1.6V135.8z"/>
				<path class="st24" d="M660.5,135.8v-2c0-2.1,1.8-3.9,3.9-3.9c2.1,0,3.9,1.8,3.9,3.9v1.3c-2.3-0.1-3.4-1.6-3.4-1.6
					c-0.7,0.2-1.3,0.3-2.1,0.3l0,0c-0.4,0-0.9,0-1.3,0l-0.1,1.4c0,0.2-0.2,0.4-0.6,0.4C660.7,135.9,660.6,135.8,660.5,135.8
					L660.5,135.8z"/>
				<path class="st6" d="M670.3,145v1.9h-11.9V145c0-0.1,0-0.3,0-0.4c0,0,0,0,0-0.1c0.2-0.7,0.7-1.2,1.3-1.3l2.9-0.9
					c1.1,0.6,2.3,0.6,3.4,0l2.9,0.9c0.7,0.2,1.1,0.7,1.3,1.3c0,0,0,0,0,0.1C670.3,144.8,670.3,144.9,670.3,145z"/>
			</g>
			<g>
				<path class="st24" d="M682.8,153.1c0.1,0.7,0,1.5-0.4,2s-1.1,0.9-1.9,0.9l0,0l-0.4-0.1v-1.1c1.3-0.6,2.2-2,2.2-3.5l0,0h0.1
					L682.8,153.1z"/>
				<path class="st24" d="M677,154.9v1.1l-0.6,0.2l0,0c-0.7-0.1-1.3-0.4-1.8-1c-0.4-0.6-0.6-1.3-0.3-2l0.4-1.7l0,0l0,0
					c0,1,0.3,1.9,1,2.6C676.1,154.5,676.4,154.7,677,154.9z"/>
				<path class="st6" d="M676.4,156.2l0.6-0.2l1.6,1.6v1.8l-3-2.9L676.4,156.2z"/>
				<path class="st6" d="M681.6,156.5l-3,2.9l0,0v-1.8l0,0l1.6-1.6l0.4,0.1l0.2,0.1L681.6,156.5z"/>
				<path class="st9" d="M678.5,157.6l-1.6-1.6v-1.1c0.3,0.2,0.8,0.2,1.2,0.2h0.7c0.4,0,0.9-0.1,1.2-0.2v1.1L678.5,157.6
					L678.5,157.6z"/>
				<path class="st9" d="M674.6,151.5c-0.4-0.1-0.7-0.4-0.7-0.9c0-0.1,0-0.1,0-0.2c0.1-0.3,0.3-0.4,0.6-0.6v-0.4l0.1,0.1
					c0.2,0.2,0.4,0.2,0.7,0.1c0.1-0.1,0.2-0.1,0.3-0.2c0.1-0.1,0.2-0.2,0.3-0.3c0.7,0,1.8-0.1,2.9-0.9c0.9,0.9,2.1,1.5,3.5,1.5l0,0
					v0.2c0.3,0,0.6,0.2,0.6,0.6c0,0.1,0,0.1,0,0.2c0,0.3-0.2,0.7-0.6,0.8h-0.1l0,0c0,1.5-0.9,2.9-2.2,3.5c-0.3,0.2-0.8,0.2-1.2,0.2
					h-0.7c-0.4,0-0.9-0.1-1.2-0.2c-0.4-0.2-0.9-0.6-1.2-0.9C675.1,153.4,674.7,152.5,674.6,151.5L674.6,151.5
					C674.7,151.5,674.6,151.5,674.6,151.5z"/>
				<path class="st24" d="M679,148.2c-1.1,0.8-2.2,0.9-2.9,0.9c-0.1,0-0.3,0.1-0.3,0.3c-0.1,0.1-0.1,0.2-0.3,0.2
					c-0.2,0.1-0.4,0.1-0.7-0.1l-0.1-0.1v-1.3c0-1.5,0.8-2.7,2-3.4c1.2-0.7,2.7-0.7,3.9,0c1.2,0.7,1.9,2,1.9,3.5v1.6l0,0
					C681.1,149.7,679.9,149.1,679,148.2z"/>
				<path class="st6" d="M678.5,159.4v1.8h-6v-2.4c0-0.8,0.6-1.6,1.2-1.8l1.7-0.6L678.5,159.4z"/>
				<path class="st6" d="M684.5,158.9v2.4h-6v-1.8l0,0l3-2.9l1.7,0.6C684,157.4,684.5,158.1,684.5,158.9z"/>
			</g>
			<line class="st34" x1="651.8" y1="142.6" x2="651.8" y2="135.8"/>
			<line class="st34" x1="648.6" y1="145.1" x2="643.8" y2="140.3"/>
			<g>
				<line class="st34" x1="675.7" y1="167.6" x2="682.4" y2="167.6"/>
				<line class="st34" x1="673.1" y1="170.7" x2="677.9" y2="175.5"/>
			</g>
		</g>
	</g>
	<g>
		<path class="st6" d="M639.4,21.2h-5.7V10.1c0-1.3,0-2.6,0.1-3.7c-0.4,0.4-0.8,0.9-1.3,1.3l-2.4,2l-2.9-3.6l7.2-5.8h5.1V21.2z"/>
		<path class="st6" d="M659.1,21.2H644v-3.7l5.1-5.2c1.5-1.5,2.4-2.6,2.9-3.1c0.4-0.6,0.8-1,0.9-1.4c0.2-0.4,0.3-0.8,0.3-1.3
			c0-0.5-0.2-1-0.5-1.3c-0.4-0.3-0.8-0.5-1.5-0.5c-0.7,0-1.3,0.2-2,0.6c-0.7,0.4-1.4,0.9-2.3,1.7l-3.1-3.6c1.1-1,2-1.7,2.7-2.1
			c0.7-0.4,1.5-0.7,2.4-1c0.9-0.2,1.8-0.3,2.9-0.3c1.4,0,2.6,0.2,3.6,0.7c1.1,0.5,1.9,1.2,2.5,2c0.6,0.9,0.9,1.9,0.9,3
			c0,0.8-0.1,1.6-0.3,2.3c-0.2,0.7-0.5,1.4-1,2.1c-0.4,0.7-1,1.4-1.7,2.1c-0.7,0.7-2.2,2.2-4.5,4.2v0.1h7.9V21.2z"/>
		<path class="st6" d="M677.6,8l3.6-7.7h6.1L680.4,13v8.2h-5.7v-8l-6.9-12.9h6.1L677.6,8z"/>
		<path class="st6" d="M702,21.2h-12.4V0.3H702v4.5h-6.8v3.3h6.3v4.5h-6.3v3.9h6.8V21.2z"/>
		<path class="st6" d="M718.4,21.2l-1-3.9h-6.8l-1.1,3.9h-6.2l6.8-21h7.5l6.9,21H718.4z M716.2,12.7l-0.9-3.4
			c-0.2-0.8-0.5-1.7-0.8-3c-0.3-1.2-0.5-2.1-0.6-2.6c-0.1,0.5-0.3,1.3-0.5,2.4c-0.3,1.1-0.8,3.3-1.7,6.6H716.2z"/>
		<path class="st6" d="M732.5,13.6v7.6h-5.6V0.3h6.8c5.7,0,8.5,2.1,8.5,6.2c0,2.4-1.2,4.3-3.5,5.6l6.1,9.1h-6.4l-4.4-7.6H732.5z
			 M732.5,9.4h1.1c2,0,3-0.9,3-2.6c0-1.4-1-2.2-2.9-2.2h-1.1V9.4z"/>
		<path class="st6" d="M760.4,14.9c0,1.3-0.3,2.4-1,3.5c-0.7,1-1.6,1.8-2.8,2.3c-1.2,0.6-2.7,0.8-4.4,0.8c-1.4,0-2.6-0.1-3.5-0.3
			c-0.9-0.2-1.9-0.5-2.9-1v-5c1.1,0.6,2.2,1,3.4,1.3c1.2,0.3,2.2,0.5,3.2,0.5c0.8,0,1.5-0.1,1.8-0.4c0.4-0.3,0.6-0.7,0.6-1.1
			c0-0.3-0.1-0.5-0.2-0.8c-0.2-0.2-0.4-0.4-0.8-0.7c-0.3-0.2-1.3-0.7-2.8-1.3c-1.4-0.6-2.4-1.2-3.1-1.8c-0.7-0.6-1.2-1.2-1.5-2
			c-0.3-0.8-0.5-1.6-0.5-2.7c0-1.9,0.7-3.4,2.1-4.5c1.4-1.1,3.3-1.6,5.8-1.6c2.2,0,4.4,0.5,6.6,1.5l-1.7,4.4c-2-0.9-3.6-1.3-5.1-1.3
			c-0.7,0-1.3,0.1-1.6,0.4s-0.5,0.6-0.5,1c0,0.4,0.2,0.8,0.6,1.1c0.4,0.3,1.6,0.9,3.5,1.8c1.8,0.8,3.1,1.7,3.8,2.6
			C760,12.3,760.4,13.4,760.4,14.9z"/>
		<path class="st18" d="M627.4,44.6V30.7h3.8v13.9H627.4z"/>
		<path class="st18" d="M647.5,44.6h-4.9l-5.1-9.8h-0.1c0.1,1.5,0.2,2.7,0.2,3.5v6.3h-3.3V30.7h4.9l5.1,9.7h0.1
			c-0.1-1.4-0.1-2.5-0.1-3.4v-6.3h3.4V44.6z"/>
		<path class="st18" d="M661.8,33.6c-0.9,0-1.6,0.4-2.1,1.1c-0.5,0.7-0.8,1.7-0.8,3c0,2.7,1,4,3.1,4c0.6,0,1.2-0.1,1.8-0.3
			c0.6-0.2,1.2-0.4,1.7-0.6V44c-1.2,0.5-2.5,0.8-3.9,0.8c-2.1,0-3.7-0.6-4.8-1.8c-1.1-1.2-1.7-3-1.7-5.3c0-1.4,0.3-2.7,0.8-3.8
			c0.5-1.1,1.3-1.9,2.3-2.5c1-0.6,2.2-0.9,3.6-0.9c1.5,0,2.9,0.3,4.3,1l-1.2,3c-0.5-0.2-1-0.4-1.5-0.6
			C662.9,33.7,662.4,33.6,661.8,33.6z"/>
		<path class="st18" d="M672,39.6v5.1h-3.8V30.7h4.6c3.8,0,5.7,1.4,5.7,4.1c0,1.6-0.8,2.9-2.4,3.7l4.1,6.1h-4.3l-3-5.1H672z
			 M672,36.7h0.7c1.3,0,2-0.6,2-1.7c0-1-0.6-1.4-1.9-1.4H672V36.7z"/>
		<path class="st18" d="M687.5,44.6l-2.8-10h-0.1c0.1,1.7,0.2,3,0.2,4v6.1h-3.3V30.7h5l2.9,9.9h0.1l2.8-9.9h5v13.9h-3.5v-6.1
			c0-0.3,0-0.7,0-1.1c0-0.4,0.1-1.3,0.1-2.9h-0.1l-2.8,10H687.5z"/>
		<path class="st18" d="M711.6,33.6c-0.9,0-1.6,0.4-2.1,1.1c-0.5,0.7-0.8,1.7-0.8,3c0,2.7,1,4,3.1,4c0.6,0,1.2-0.1,1.8-0.3
			s1.2-0.4,1.7-0.6V44c-1.2,0.5-2.5,0.8-3.9,0.8c-2.1,0-3.7-0.6-4.8-1.8c-1.1-1.2-1.7-3-1.7-5.3c0-1.4,0.3-2.7,0.8-3.8
			c0.5-1.1,1.3-1.9,2.3-2.5c1-0.6,2.2-0.9,3.6-0.9c1.5,0,2.9,0.3,4.3,1l-1.2,3c-0.5-0.2-1-0.4-1.5-0.6
			C712.7,33.7,712.2,33.6,711.6,33.6z"/>
		<path class="st18" d="M731.1,37.6c0,2.3-0.6,4.1-1.7,5.3c-1.2,1.2-2.8,1.8-5.1,1.8c-2.2,0-3.9-0.6-5-1.8c-1.2-1.2-1.7-3-1.7-5.4
			c0-2.3,0.6-4.1,1.7-5.3c1.2-1.2,2.8-1.8,5.1-1.8c2.2,0,3.9,0.6,5,1.8C730.5,33.5,731.1,35.3,731.1,37.6z M721.5,37.6
			c0,2.7,0.9,4,2.8,4c1,0,1.7-0.3,2.1-1c0.5-0.7,0.7-1.7,0.7-3.1c0-1.4-0.2-2.4-0.7-3.1c-0.5-0.7-1.2-1-2.1-1
			C722.5,33.6,721.5,34.9,721.5,37.6z"/>
		<path class="st18" d="M746.9,44.6H742l-5.1-9.8h-0.1c0.1,1.5,0.2,2.7,0.2,3.5v6.3h-3.3V30.7h4.9l5.1,9.7h0.1
			c-0.1-1.4-0.1-2.5-0.1-3.4v-6.3h3.4V44.6z"/>
		<path class="st18" d="M759,40.4c0,0.9-0.2,1.6-0.7,2.3c-0.4,0.7-1.1,1.2-1.9,1.6c-0.8,0.4-1.8,0.6-2.9,0.6c-0.9,0-1.7-0.1-2.3-0.2
			c-0.6-0.1-1.3-0.4-2-0.7v-3.4c0.7,0.4,1.5,0.7,2.2,0.9c0.8,0.2,1.5,0.3,2.1,0.3c0.6,0,1-0.1,1.2-0.3c0.3-0.2,0.4-0.4,0.4-0.7
			c0-0.2-0.1-0.4-0.2-0.5c-0.1-0.1-0.3-0.3-0.5-0.4c-0.2-0.1-0.8-0.4-1.9-0.9c-0.9-0.4-1.6-0.8-2-1.2c-0.5-0.4-0.8-0.8-1-1.3
			c-0.2-0.5-0.3-1.1-0.3-1.8c0-1.3,0.5-2.3,1.4-3c0.9-0.7,2.2-1.1,3.9-1.1c1.4,0,2.9,0.3,4.4,1l-1.2,2.9c-1.3-0.6-2.4-0.9-3.4-0.9
			c-0.5,0-0.8,0.1-1.1,0.3s-0.3,0.4-0.3,0.6c0,0.3,0.1,0.5,0.4,0.7c0.3,0.2,1,0.6,2.3,1.2c1.2,0.5,2,1.1,2.5,1.7
			C758.8,38.7,759,39.5,759,40.4z"/>
		<path class="st18" d="M773,30.7v8.4c0,1.8-0.5,3.2-1.5,4.2c-1,1-2.5,1.5-4.5,1.5c-1.9,0-3.4-0.5-4.4-1.5c-1-1-1.5-2.4-1.5-4.2
			v-8.5h3.8v8.2c0,1,0.2,1.7,0.6,2.1c0.4,0.4,0.9,0.7,1.6,0.7c0.8,0,1.3-0.2,1.7-0.7c0.3-0.4,0.5-1.2,0.5-2.2v-8.2H773z"/>
		<path class="st18" d="M775.9,44.6V30.7h3.8v10.9h5.4v3H775.9z"/>
		<path class="st18" d="M793.5,44.6h-3.8V33.8h-3.4v-3.1h10.6v3.1h-3.4V44.6z"/>
		<path class="st18" d="M798.8,44.6V30.7h3.8v13.9H798.8z"/>
		<path class="st18" d="M818.9,44.6H814l-5.1-9.8h-0.1c0.1,1.5,0.2,2.7,0.2,3.5v6.3h-3.3V30.7h4.9l5.1,9.7h0.1
			c-0.1-1.4-0.1-2.5-0.1-3.4v-6.3h3.4V44.6z"/>
		<path class="st18" d="M827.5,36.5h6V44c-1.6,0.6-3.4,0.8-5.4,0.8c-2.1,0-3.8-0.6-5-1.9c-1.2-1.2-1.8-3-1.8-5.3
			c0-2.2,0.6-4,1.9-5.3c1.3-1.3,3.1-1.9,5.4-1.9c0.9,0,1.7,0.1,2.5,0.2s1.5,0.4,2,0.6l-1.2,3c-1-0.5-2.1-0.7-3.3-0.7
			c-1.1,0-1.9,0.4-2.5,1.1c-0.6,0.7-0.9,1.7-0.9,3.1c0,1.3,0.3,2.3,0.8,3c0.5,0.7,1.3,1,2.3,1c0.6,0,1.1-0.1,1.5-0.2v-2.2h-2.5V36.5
			z"/>
	</g>
	<g>
		<line class="st36" x1="242.1" y1="1" x2="242.1" y2="13.6"/>
		<line class="st36" x1="235.8" y1="7.3" x2="248.3" y2="7.3"/>
	</g>
	<g>
		<line class="st36" x1="821.4" y1="194.4" x2="821.4" y2="207"/>
		<line class="st36" x1="815.1" y1="200.7" x2="827.7" y2="200.7"/>
	</g>
	<g>
		<line class="st37" x1="273.5" y1="31.2" x2="273.5" y2="43.8"/>
		<line class="st37" x1="267.2" y1="37.5" x2="279.8" y2="37.5"/>
	</g>
	<g>
		<line class="st37" x1="84.6" y1="257.9" x2="84.6" y2="270.5"/>
		<line class="st37" x1="78.3" y1="264.2" x2="90.9" y2="264.2"/>
	</g>
	<g>
		<line class="st37" x1="651.4" y1="82" x2="651.4" y2="94.5"/>
		<line class="st37" x1="645.1" y1="88.2" x2="657.7" y2="88.2"/>
	</g>
	<g>
		<line class="st37" x1="7.8" y1="40.3" x2="7.8" y2="52.9"/>
		<line class="st37" x1="1.5" y1="46.6" x2="14.1" y2="46.6"/>
	</g>
</g>
</svg>
