<svg xmlns="http://www.w3.org/2000/svg" viewBox="0 0 172 172" width="128" height="128"><g fill="none" stroke-miterlimit="10" font-family="none" font-weight="none" font-size="none" text-anchor="none" style="mix-blend-mode:normal"><path d="M0 172V0h172v172z"/><path d="M79.444 5.375a8.091 8.091 0 0 0-7.821 6.1l-3.15 12.545a64.1 64.1 0 0 0-13.91 5.773l-11.08-6.65-.005-.005a8.075 8.075 0 0 0-4.137-1.145c-2.13 0-4.186.848-5.695 2.357l-9.296 9.27-.005.005a8.079 8.079 0 0 0-1.202 9.858l6.645 11.091a64.061 64.061 0 0 0-5.779 13.952l-12.535 3.123h-.005a8.087 8.087 0 0 0-6.094 7.795v13.112a8.091 8.091 0 0 0 6.1 7.821l12.545 3.15a64.087 64.087 0 0 0 5.768 13.91l-6.65 11.08a8.086 8.086 0 0 0 1.207 9.863l9.275 9.27v.005a8.055 8.055 0 0 0 9.837 1.202l11.101-6.65a63.96 63.96 0 0 0 13.905 5.773l3.128 12.546v.005c.899 3.57 4.144 6.094 7.827 6.094h13.138a8.091 8.091 0 0 0 7.821-6.1l3.15-12.545a63.968 63.968 0 0 0 13.91-5.768l11.106 6.65v-.005a8.036 8.036 0 0 0 4.137 1.15c2.13 0 4.19-.851 5.7-2.357l9.27-9.27c2.609-2.61 3.115-6.7 1.207-9.863l-6.645-11.091a64.061 64.061 0 0 0 5.779-13.952l12.53-3.118h.005c3.562-.892 6.082-4.121 6.094-7.795V79.444a8.074 8.074 0 0 0-6.094-7.821l-12.546-3.15a63.968 63.968 0 0 0-5.768-13.91l6.645-11.101a8.097 8.097 0 0 0-1.207-9.868v-.005l-9.27-9.239a8.094 8.094 0 0 0-5.7-2.357 8.036 8.036 0 0 0-4.137 1.15v-.005l-11.107 6.65a63.964 63.964 0 0 0-13.904-5.768l-3.129-12.546a8.087 8.087 0 0 0-7.82-6.099zm0 5.375h13.138c1.257 0 2.305.82 2.609 2.031l3.48 13.963a2.688 2.688 0 0 0 1.948 1.958 58.705 58.705 0 0 1 15.568 6.461c.85.505 1.908.503 2.756-.005l12.361-7.406h.006a2.663 2.663 0 0 1 1.37-.384c.74 0 1.383.267 1.905.788l9.264 9.238a2.648 2.648 0 0 1 .405 3.296l-.006.006-7.406 12.361a2.688 2.688 0 0 0-.005 2.761 58.712 58.712 0 0 1 6.467 15.569 2.688 2.688 0 0 0 1.947 1.942l13.968 3.506a2.638 2.638 0 0 1 2.026 2.604V92.55a2.645 2.645 0 0 1-2.026 2.588l-13.952 3.48a2.688 2.688 0 0 0-1.958 1.947 58.746 58.746 0 0 1-6.467 15.605 2.688 2.688 0 0 0 .005 2.756l7.407 12.356v.01c.65 1.08.49 2.391-.405 3.287l-9.27 9.27a2.615 2.615 0 0 1-1.9.782c-.483 0-.955-.135-1.37-.384h-.005l-12.361-7.406a2.688 2.688 0 0 0-2.761-.005 58.712 58.712 0 0 1-15.569 6.467 2.688 2.688 0 0 0-1.942 1.947l-3.506 13.968a2.647 2.647 0 0 1-2.609 2.031H79.418c-1.255 0-2.3-.816-2.609-2.026l-3.485-13.968a2.688 2.688 0 0 0-1.948-1.958 58.67 58.67 0 0 1-15.563-6.461 2.688 2.688 0 0 0-2.756.005l-12.367 7.406a2.681 2.681 0 0 1-1.375.384 2.608 2.608 0 0 1-1.895-.782h-.005l-9.27-9.27c-.892-.891-1.053-2.203-.399-3.291v-.006l7.407-12.345c.508-.848.51-1.906.005-2.756a58.817 58.817 0 0 1-6.462-15.569 2.688 2.688 0 0 0-1.947-1.942l-13.968-3.506a2.647 2.647 0 0 1-2.031-2.609V79.46a2.659 2.659 0 0 1 2.031-2.599l13.952-3.48a2.688 2.688 0 0 0 1.958-1.947 58.746 58.746 0 0 1 6.467-15.605 2.688 2.688 0 0 0-.005-2.756l-7.407-12.356v-.01a2.635 2.635 0 0 1 .4-3.281l9.295-9.27.006-.005a2.592 2.592 0 0 1 1.894-.783c.478 0 .957.135 1.376.384l12.345 7.406c.848.508 1.906.51 2.756.005a58.816 58.816 0 0 1 15.569-6.461 2.688 2.688 0 0 0 1.942-1.953l3.506-13.968a2.647 2.647 0 0 1 2.609-2.031zm21.516 26.518c-1.179 0-2.22.769-2.567 1.895l-1.664 5.113a2.688 2.688 0 1 0 5.113 1.658l1.663-5.112a2.688 2.688 0 0 0-2.545-3.554zM86 37.625c-4.948 0-9.726.754-14.225 2.136a2.688 2.688 0 1 0 1.575 5.134A42.98 42.98 0 0 1 86 43a2.688 2.688 0 1 0 0-5.375zm28.492 6.52a2.688 2.688 0 0 0-2.231 1.138l-3.16 4.352a2.689 2.689 0 1 0 4.351 3.16l3.155-4.352a2.688 2.688 0 0 0-2.115-4.299zM59.225 46.4a2.688 2.688 0 0 0-1.685.541C45.493 55.735 37.625 69.949 37.625 86c0 26.685 21.69 48.375 48.375 48.375A2.688 2.688 0 1 0 86 129c-23.78 0-43-19.22-43-43 0-14.297 6.988-26.89 17.71-34.717a2.688 2.688 0 0 0-1.485-4.882zm18.629 5.722a2.688 2.688 0 0 0-.588.084C62.203 56.089 51.063 69.75 51.063 86c0 3.251.477 6.376 1.296 9.333a2.688 2.688 0 0 0 3.932 1.611l17.778-10.262a2.688 2.688 0 0 0 1.323-2 10.631 10.631 0 0 1 4.162-7.227 2.688 2.688 0 0 0 1.066-2.142V54.81a2.688 2.688 0 0 0-2.766-2.687zm16.083 0a2.688 2.688 0 0 0-2.562 2.682v20.508c0 .841.395 1.634 1.066 2.142a10.64 10.64 0 0 1 4.162 7.227 2.688 2.688 0 0 0 1.323 2l17.736 10.236.042.026c.038.02.077.04.116.058a2.684 2.684 0 0 0 .23.105c.037.017.074.032.11.047.048.015.095.03.143.042a2.683 2.683 0 0 0 .152.042c.071.015.143.028.215.037a2.691 2.691 0 0 0 .913-.026 2.688 2.688 0 0 0 2.053-1.911v-.005-.005c.063-.226.097-.459.1-.693.71-2.759 1.202-5.629 1.202-8.635 0-16.25-11.139-29.914-26.204-33.798a2.688 2.688 0 0 0-.797-.08zm31.305 2.735a2.688 2.688 0 0 0-1.685.535l-4.352 3.155a2.689 2.689 0 1 0 3.16 4.351l4.352-3.16a2.688 2.688 0 0 0-1.475-4.881zm-49.997 4.041v15.474c-2.323 2.157-3.941 4.927-4.672 8.12l-13.537 7.811c-.221-1.43-.599-2.819-.599-4.304 0-12.485 7.9-22.763 18.808-27.1zm21.505 0c10.91 4.34 18.813 14.616 18.813 27.101 0 1.488-.382 2.877-.604 4.31l-13.537-7.816c-.732-3.195-2.346-5.968-4.672-8.126zm35.137 9.454c-.242.015-.48.063-.709.142l-5.112 1.663a2.688 2.688 0 1 0 1.658 5.113l5.113-1.664a2.688 2.688 0 0 0-.682-5.254 2.686 2.686 0 0 0-.268 0zM86 80.625a5.375 5.375 0 1 0 0 10.75 5.375 5.375 0 0 0 0-10.75zm43 2.688a2.688 2.688 0 1 0 0 5.375h5.375a2.688 2.688 0 1 0 0-5.376zM80.735 95.668a2.688 2.688 0 0 0-1.354.362l-17.133 9.889a2.688 2.688 0 0 0-1.244 4.467c.04.04.091.07.131.11l-.005.01c.055.05.032.015.079.053l.005.005.021.016.01.01c6.324 6.364 15.08 10.347 24.755 10.347 9.385 0 17.797-3.883 24.072-9.916a2.69 2.69 0 0 0 .504-.289c.069-.044.023 0 .136-.089l-.01-.01c.062-.052.121-.106.178-.163.03-.03.076-.043.105-.074a2.688 2.688 0 0 0-1.191-4.456l-17.17-9.91a2.688 2.688 0 0 0-2.404-.147 10.68 10.68 0 0 1-4.22.866c-1.503 0-2.922-.31-4.22-.866a2.688 2.688 0 0 0-1.045-.215zm46.202.918a2.688 2.688 0 0 0-.871 5.255l5.112 1.664a2.688 2.688 0 1 0 1.659-5.113l-5.113-1.664a2.688 2.688 0 0 0-.787-.142zm-45.677 4.567c1.526.48 3.06.971 4.74.971 1.68 0 3.218-.49 4.745-.971L104 108.807c-5.032 3.983-11.072 6.756-17.999 6.756s-12.967-2.774-17.999-6.756zm26.513 5.008c-.002 0-.019.02-.021.02l-.032.011a.882.882 0 0 0 .053-.031zm12.829 2.409a2.688 2.688 0 0 0-1.397 4.881l4.352 3.155a2.688 2.688 0 1 0 3.16-4.346l-4.352-3.16a2.688 2.688 0 0 0-1.763-.53zm-9.464 9.5a2.688 2.688 0 0 0-2.037 4.294l3.16 4.352a2.688 2.688 0 1 0 4.346-3.16l-3.155-4.352a2.688 2.688 0 0 0-2.314-1.133zm-11.942 6.1a2.688 2.688 0 0 0-2.467 3.553l1.664 5.113a2.688 2.688 0 1 0 5.112-1.659l-1.663-5.112a2.688 2.688 0 0 0-2.646-1.895z" fill="#e67e22"/></g></svg>