<?xml version="1.0" encoding="utf-8"?>
<!-- Generator: Adobe Illustrator 22.0.1, SVG Export Plug-In . SVG Version: 6.00 Build 0)  -->
<svg version="1.1" id="Layer_1" xmlns="http://www.w3.org/2000/svg" xmlns:xlink="http://www.w3.org/1999/xlink" x="0px" y="0px"
	 viewBox="0 0 960 311.9" style="enable-background:new 0 0 960 311.9;" xml:space="preserve">
<style type="text/css">
	.st0{fill:#546E7A;}
	.st1{fill:#64BCE8;}
	.st2{fill:#3F535C;}
	.st3{fill:#FFFFFF;}
	.st4{fill:#E4F2FB;}
	.st5{fill:none;stroke:#3FA8EF;stroke-miterlimit:10;}
	.st6{fill:#E4F2FB;stroke:#3FA8EF;stroke-miterlimit:10;}
	.st7{fill:#57A7DB;}
	.st8{fill:#71BE71;}
	.st9{fill:#F4AE7A;}
	.st10{fill:none;stroke:#A3D1EE;stroke-miterlimit:10;}
	.st11{fill:#95C8EC;}
	.st12{clip-path:url(#SVGID_2_);fill:#E4F2FB;}
	.st13{fill:#0F9BD7;}
	.st14{fill-rule:evenodd;clip-rule:evenodd;fill:#FFFFFF;}
	.st15{fill:#D9F1FC;}
	.st16{fill:#E0F4FF;}
	.st17{fill:#1A89C6;}
	.st18{fill:#3FA8EF;}
	.st19{fill:#00A1E0;}
	.st20{fill:#F49F86;}
	.st21{fill:#F6B591;}
	.st22{fill:#212955;}
	.st23{fill:#F7B58F;}
	.st24{fill:#FAB88E;}
	.st25{fill:#0A3C5F;}
	.st26{fill:none;stroke:#FFFFFF;stroke-miterlimit:10;}
	.st27{fill:#0A3C5D;}
	.st28{fill:#212B54;}
	.st29{fill:#F9B75F;}
	.st30{fill:none;stroke:#3FA8EF;stroke-width:3;stroke-linecap:round;stroke-linejoin:round;stroke-miterlimit:10;}
	.st31{fill:#F7B690;}
	.st32{fill:#F8B691;}
	.st33{fill:#F2B490;}
	.st34{fill:#212A53;}
	.st35{fill:#202B53;}
	.st36{fill:#222B53;}
	.st37{fill:#10385B;}
	.st38{fill:#F0A189;}
	.st39{fill:#F6B590;}
	.st40{fill:#222B54;}
	.st41{fill:#F6B690;}
	.st42{fill:#1E2750;}
	.st43{fill:#EDE19B;}
	.st44{fill:#61B6D8;}
	.st45{fill:#EA8E21;}
	.st46{fill:#FAD5C0;}
	.st47{fill:#F6B791;}
	.st48{fill:#F6B891;}
	.st49{fill:#B6E0F4;}
	.st50{fill:#FCF7EF;}
	.st51{fill:#FEFEFE;}
	.st52{fill:#4B5675;}
	.st53{fill:#FFD3BA;}
	.st54{fill:#FEFEFB;}
	.st55{fill:#0071BC;}
	.st56{fill:#EDBFB2;}
	.st57{opacity:0.6;fill:#95C8EC;enable-background:new    ;}
	.st58{fill:none;stroke:#3FA8EF;stroke-width:4;stroke-miterlimit:10;}
	.st59{fill:none;stroke:#043B98;stroke-width:2;stroke-linecap:round;stroke-linejoin:round;stroke-miterlimit:10;}
	.st60{fill:#E4F2FB;stroke:#3FA8EF;stroke-linecap:round;stroke-linejoin:round;stroke-miterlimit:10;}
	.st61{fill:#3FA8EF;stroke:#3FA8EF;stroke-linecap:round;stroke-linejoin:round;stroke-miterlimit:10;}
	.st62{fill:none;stroke:#3FA8EF;stroke-linecap:round;stroke-linejoin:round;stroke-miterlimit:10;}
</style>
<g>
	<g>
		<g>
			<g>
				<g>
					<g>
						<path class="st0" d="M682.2,27.1c0-15-12.3-27.1-27.1-27.1H276c-14.8,0-27,12.1-27,27v253.6h433.3L682.2,27.1L682.2,27.1
							L682.2,27.1z"/>
					</g>
				</g>
			</g>
			<path class="st1" d="M632.1,16.1H298.8c-33.4,0-34,1.7-34,23.3h401.6C666.5,17.1,665.5,16.1,632.1,16.1z"/>
			<g>
				<g>
					<g>
						<path class="st2" d="M206.2,280.7c0.2,13.3,7.4,30.9,16.3,30.9h486.3c8.7,0,16.1-17.7,16.3-30.9H206.2z"/>
					</g>
				</g>
			</g>
			<path class="st0" d="M512.9,298c0,2.3-1.9,4-4,4h-86.6c-2.3,0-4-1.9-4-4l0,0c0-2.3,1.9-4,4-4h86.6
				C511,293.4,512.9,295.5,512.9,298L512.9,298z"/>
		</g>
		<path class="st3" d="M273.4,265.7h384.7c5.9,0,10.4-4.7,10.4-10.4V25.4c0-5.9-4.7-10.4-10.4-10.4H273.4c-5.9,0-10.4,4.7-10.4,10.4
			v229.9C262.9,261.2,267.5,265.7,273.4,265.7z"/>
		<rect x="272.4" y="102.3" class="st4" width="98.3" height="159.3"/>
		<rect x="272.2" y="102.3" class="st5" width="98.5" height="159.8"/>
		<rect x="379.3" y="102.3" class="st5" width="280.4" height="159.3"/>
		<rect x="272.2" y="67.2" class="st6" width="387.2" height="25.8"/>
		<path class="st7" d="M646,86h-35.9c-1.3,0-2.3-1.1-2.3-2.3v-7.4c0-1.3,1.1-2.3,2.3-2.3H646c1.3,0,2.3,1.1,2.3,2.3v7.4
			C648.2,85,647.3,86,646,86z"/>
		<circle class="st8" cx="293.7" cy="131.3" r="9.1"/>
		<circle class="st8" cx="325.2" cy="131.3" r="9.1"/>
		<path class="st7" d="M300.1,178.4h-13.9c-1.3,0-2.7-1.3-2.7-2.7v-13.9c0-1.3,1.3-2.7,2.7-2.7h13.9c1.3,0,2.7,1.3,2.7,2.7v13.9
			C302.8,177.3,301.6,178.4,300.1,178.4z"/>
		<path class="st7" d="M328.4,178.4h-13.9c-1.3,0-2.7-1.3-2.7-2.7v-13.9c0-1.3,1.3-2.7,2.7-2.7h13.9c1.3,0,2.7,1.3,2.7,2.7v13.9
			C331.1,177.3,329.7,178.4,328.4,178.4z"/>
		<path class="st7" d="M356.3,178.4h-13.7c-1.3,0-2.7-1.3-2.7-2.7v-13.9c0-1.3,1.3-2.7,2.7-2.7h13.9c1.3,0,2.7,1.3,2.7,2.7v13.9
			C359,177.3,357.8,178.4,356.3,178.4z"/>
		<path class="st7" d="M300.5,211.4h-13.9c-1.3,0-2.7-1.3-2.7-2.7v-13.9c0-1.3,1.3-2.7,2.7-2.7h13.9c1.3,0,2.7,1.3,2.7,2.7v13.9
			C303.2,210.3,301.8,211.4,300.5,211.4z"/>
		<path class="st9" d="M292.2,251.7l-8.4-8.4c-0.9-0.9-0.9-2.3,0-3.2l8.4-8.4c0.9-0.9,2.3-0.9,3.2,0l8.4,8.4c0.9,0.9,0.9,2.3,0,3.2
			l-8.4,8.4C294.4,252.6,293.1,252.6,292.2,251.7z"/>
		<path class="st9" d="M319.9,251.7l-8.4-8.4c-0.9-0.9-0.9-2.3,0-3.2l8.4-8.4c0.9-0.9,2.3-0.9,3.2,0l8.4,8.4c0.9,0.9,0.9,2.3,0,3.2
			l-8.4,8.4C322.1,252.6,320.8,252.6,319.9,251.7z"/>
		<path class="st9" d="M348,251.7l-8.4-8.4c-0.9-0.9-0.9-2.3,0-3.2l8.4-8.4c0.9-0.9,2.3-0.9,3.2,0l8.4,8.4c0.9,0.9,0.9,2.3,0,3.2
			l-8.4,8.4C350.2,252.6,348.7,252.6,348,251.7z"/>
		<line class="st5" x1="283.8" y1="147.7" x2="360.1" y2="147.7"/>
		<line class="st5" x1="283.8" y1="222.3" x2="360.1" y2="222.3"/>
		<rect x="283.2" y="77.1" class="st3" width="135.1" height="7.8"/>
		<rect x="389.1" y="111.8" class="st4" width="89.2" height="7.4"/>
		<line class="st10" x1="389.1" y1="129.3" x2="648.2" y2="129.3"/>
		<g>
			<rect x="397.8" y="142" class="st4" width="55.1" height="89.6"/>
			<rect x="398.1" y="142" class="st10" width="54.9" height="89.6"/>
			<circle class="st8" cx="425.6" cy="163.4" r="10.8"/>
			<rect x="403" y="181.1" class="st3" width="41.2" height="5.7"/>
			<rect x="403" y="192.7" class="st3" width="44.8" height="5.7"/>
			<rect x="403" y="203.5" class="st3" width="32.8" height="5.7"/>
			<rect x="403" y="215.2" class="st3" width="41.2" height="5.7"/>
			<g>
				<polyline class="st10" points="452.9,163.4 512.9,163.4 628.1,163.4 				"/>
				<polyline class="st10" points="512.9,161.3 512.9,200.8 627.6,200.8 				"/>
				<polyline class="st10" points="551.1,200.8 551.1,237.8 625.5,237.8 				"/>
			</g>
			<path class="st9" d="M511.4,173.1l-8.4-8.4c-0.9-0.9-0.9-2.3,0-3.2l8.4-8.4c0.9-0.9,2.3-0.9,3.2,0l8.4,8.4c0.9,0.9,0.9,2.3,0,3.2
				l-8.4,8.4C513.7,174.1,512.1,174.1,511.4,173.1z"/>
			<path class="st4" d="M549.5,173.1l-8.4-8.4c-0.9-0.9-0.9-2.3,0-3.2l8.4-8.4c0.9-0.9,2.3-0.9,3.2,0l8.4,8.4c0.9,0.9,0.9,2.3,0,3.2
				l-8.4,8.4C551.8,174.1,550.3,174.1,549.5,173.1z"/>
			<path class="st4" d="M481.6,172.7h-13.9c-1.3,0-2.7-1.3-2.7-2.7v-13.7c0-1.3,1.3-2.7,2.7-2.7h13.9c1.3,0,2.7,1.3,2.7,2.7v13.9
				C484.1,171.6,482.9,172.7,481.6,172.7z"/>
			<circle class="st8" cx="625.5" cy="163.4" r="9.1"/>
			<path class="st9" d="M586.9,173.1l-8.4-8.4c-0.9-0.9-0.9-2.3,0-3.2l8.4-8.4c0.9-0.9,2.3-0.9,3.2,0l8.4,8.4c0.9,0.9,0.9,2.3,0,3.2
				l-8.4,8.4C589.2,174.1,587.7,174.1,586.9,173.1z"/>
			<path class="st9" d="M511.4,210.7l-8.4-8.4c-0.9-0.9-0.9-2.3,0-3.2l8.4-8.4c0.9-0.9,2.3-0.9,3.2,0l8.4,8.4c0.9,0.9,0.9,2.3,0,3.2
				l-8.4,8.4C513.7,211.6,512.1,211.6,511.4,210.7z"/>
			<path class="st4" d="M557.7,210.3h-13.9c-1.3,0-2.7-1.3-2.7-2.7v-13.9c0-1.3,1.3-2.7,2.7-2.7h13.9c1.3,0,2.7,1.3,2.7,2.7v13.9
				C560.4,209.2,559.4,210.3,557.7,210.3z"/>
			<path class="st4" d="M557.7,247.3h-13.9c-1.3,0-2.7-1.3-2.7-2.7v-13.9c0-1.3,1.3-2.7,2.7-2.7h13.9c1.3,0,2.7,1.3,2.7,2.7v13.9
				C560.4,246,559.4,247.3,557.7,247.3z"/>
			<path class="st9" d="M586.9,210.7l-8.4-8.4c-0.9-0.9-0.9-2.3,0-3.2l8.4-8.4c0.9-0.9,2.3-0.9,3.2,0l8.4,8.4c0.9,0.9,0.9,2.3,0,3.2
				l-8.4,8.4C589.2,211.6,587.7,211.6,586.9,210.7z"/>
			<path class="st9" d="M586.9,247.7l-8.4-8.4c-0.9-0.9-0.9-2.3,0-3.2l8.4-8.4c0.9-0.9,2.3-0.9,3.2,0l8.4,8.4c0.9,0.9,0.9,2.3,0,3.2
				l-8.4,8.4C589.2,248.5,587.7,248.5,586.9,247.7z"/>
			<circle class="st8" cx="625.5" cy="200.8" r="9.1"/>
			<circle class="st8" cx="625.5" cy="237.8" r="9.1"/>
		</g>
	</g>
	<path class="st5" d="M539.2,50H390.9c-1.9,0-3.6-1.5-3.6-3.6v-9.9c0-1.9,1.5-3.6,3.6-3.6h148.2c1.9,0,3.6,1.5,3.6,3.6v9.9
		C542.8,48.5,541,50,539.2,50z"/>
	<g>
		<g>
			<g>
				<g>
					<circle id="SVGID_10_" class="st11" cx="641.6" cy="40.5" r="12.3"/>
				</g>
			</g>
			<g>
				<g>
					<g>
						<defs>
							<circle id="SVGID_1_" cx="641.6" cy="40.5" r="12.3"/>
						</defs>
						<clipPath id="SVGID_2_">
							<use xlink:href="#SVGID_1_"  style="overflow:visible;"/>
						</clipPath>
						<circle class="st12" cx="641.6" cy="52.1" r="8.7"/>
					</g>
				</g>
			</g>
		</g>
		<circle class="st4" cx="641.6" cy="38" r="3.8"/>
	</g>
	<rect x="608" y="36.9" class="st11" width="8.7" height="8.7"/>
	<rect x="594.7" y="36.9" class="st11" width="8.7" height="8.7"/>
	<rect x="581" y="36.9" class="st11" width="8.7" height="8.7"/>
	<circle class="st5" cx="396" cy="40.5" r="3"/>
	<line class="st5" x1="398.3" y1="42.4" x2="401.3" y2="45.7"/>
	<g>
		<path class="st13" d="M298.7,23.5c2.1-2.1,4.9-3.5,8.1-3.5c4.2,0,7.9,2.3,9.8,5.8c1.7-0.8,3.6-1.2,5.5-1.2
			c7.6,0,13.7,6.2,13.7,13.8c0,7.6-6.1,13.8-13.7,13.8c-0.9,0-1.8-0.1-2.7-0.3c-1.7,3.1-5,5.1-8.7,5.1c-1.6,0-3.1-0.4-4.4-1
			c-1.7,4.1-5.8,7-10.5,7c-4.9,0-9.1-3.1-10.7-7.5c-0.7,0.1-1.4,0.2-2.2,0.2c-5.9,0-10.6-4.8-10.6-10.7c0-4,2.1-7.4,5.3-9.3
			c-0.7-1.5-1-3.2-1-4.9c0-6.8,5.5-12.3,12.4-12.3C292.8,18.6,296.4,20.6,298.7,23.5"/>
		<path class="st3" d="M281.4,41.7c0,0.1,0,0.1,0,0.1c0.1,0.1,0.2,0.1,0.4,0.2c0.6,0.3,1.3,0.4,1.9,0.4c1.3,0,2.1-0.7,2.1-1.8v0
			c0-1-0.9-1.4-1.8-1.7l-0.1,0c-0.6-0.2-1.2-0.4-1.2-0.8v0c0-0.4,0.3-0.6,0.8-0.6c0.6,0,1.2,0.2,1.7,0.4c0,0,0.1,0.1,0.2,0
			c0-0.1,0.2-0.7,0.3-0.7c0-0.1,0-0.1-0.1-0.1c-0.5-0.3-1.2-0.5-1.9-0.5l-0.1,0c-1.2,0-2,0.7-2,1.8v0c0,1.1,0.9,1.4,1.8,1.7l0.1,0
			c0.6,0.2,1.2,0.4,1.2,0.8v0c0,0.4-0.4,0.7-0.9,0.7c-0.2,0-0.9,0-1.7-0.5c-0.1-0.1-0.1-0.1-0.2-0.1c0,0-0.1-0.1-0.2,0.1L281.4,41.7
			z"/>
		<path class="st3" d="M300.5,41.7c0,0.1,0,0.1,0,0.1c0.1,0.1,0.2,0.1,0.4,0.2c0.6,0.3,1.3,0.4,1.9,0.4c1.3,0,2.1-0.7,2.1-1.8v0
			c0-1-0.9-1.4-1.8-1.7l-0.1,0c-0.6-0.2-1.2-0.4-1.2-0.8v0c0-0.4,0.3-0.6,0.8-0.6c0.6,0,1.2,0.2,1.7,0.4c0,0,0.1,0.1,0.2,0
			c0-0.1,0.2-0.7,0.3-0.7c0-0.1,0-0.1-0.1-0.1c-0.5-0.3-1.2-0.5-1.9-0.5l-0.1,0c-1.2,0-2,0.7-2,1.8v0c0,1.1,0.9,1.4,1.8,1.7l0.1,0
			c0.6,0.2,1.2,0.4,1.2,0.8v0c0,0.4-0.4,0.7-0.9,0.7c-0.2,0-0.9,0-1.7-0.5c-0.1-0.1-0.1-0.1-0.2-0.1c0,0-0.1-0.1-0.2,0.1L300.5,41.7
			z"/>
		<path class="st3" d="M314.6,38.4c-0.1-0.4-0.3-0.7-0.5-0.9c-0.2-0.3-0.5-0.5-0.8-0.6c-0.3-0.2-0.7-0.2-1.2-0.2
			c-0.4,0-0.8,0.1-1.2,0.2c-0.3,0.2-0.6,0.4-0.8,0.6c-0.2,0.3-0.4,0.6-0.5,0.9c-0.1,0.4-0.2,0.8-0.2,1.2c0,0.4,0.1,0.8,0.2,1.2
			c0.1,0.4,0.3,0.7,0.5,0.9c0.2,0.3,0.5,0.5,0.8,0.6c0.3,0.2,0.7,0.2,1.2,0.2c0.4,0,0.8-0.1,1.2-0.2c0.3-0.2,0.6-0.4,0.8-0.6
			c0.2-0.3,0.4-0.6,0.5-0.9c0.1-0.4,0.2-0.8,0.2-1.2C314.8,39.1,314.7,38.7,314.6,38.4 M313.5,39.5c0,0.6-0.1,1.1-0.3,1.5
			c-0.2,0.3-0.6,0.5-1.1,0.5c-0.5,0-0.8-0.2-1.1-0.5c-0.2-0.4-0.3-0.8-0.3-1.5c0-0.6,0.1-1.1,0.3-1.5c0.2-0.3,0.6-0.5,1.1-0.5
			c0.5,0,0.8,0.2,1.1,0.5C313.4,38.4,313.5,38.9,313.5,39.5"/>
		<path class="st14" d="M323.6,41.4c0-0.1-0.1-0.1-0.1-0.1c-0.2,0.1-0.3,0.1-0.5,0.1c-0.2,0-0.4,0-0.6,0c-0.5,0-0.9-0.2-1.2-0.5
			c-0.3-0.3-0.5-0.8-0.5-1.5c0-0.6,0.2-1.1,0.4-1.4c0.3-0.4,0.7-0.5,1.2-0.5c0.4,0,0.8,0.1,1.2,0.2c0,0,0.1,0,0.1-0.1
			c0.1-0.3,0.2-0.5,0.3-0.7c0-0.1,0-0.1-0.1-0.1c-0.1-0.1-0.5-0.1-0.7-0.2c-0.2,0-0.5-0.1-0.8-0.1c-0.5,0-0.9,0.1-1.2,0.2
			c-0.3,0.2-0.6,0.4-0.9,0.6c-0.2,0.3-0.4,0.6-0.5,0.9c-0.1,0.4-0.2,0.8-0.2,1.2c0,0.9,0.2,1.6,0.7,2.2c0.5,0.5,1.2,0.8,2.1,0.8
			c0.6,0,1.1-0.1,1.5-0.3c0,0,0.1,0,0-0.1L323.6,41.4z"/>
		<path class="st14" d="M329.2,38.2c-0.1-0.3-0.3-0.7-0.5-0.9c-0.2-0.3-0.5-0.4-0.7-0.5c-0.3-0.1-0.7-0.2-1.1-0.2
			c-0.5,0-0.9,0.1-1.2,0.2c-0.3,0.2-0.6,0.4-0.8,0.6c-0.2,0.3-0.4,0.6-0.5,1c-0.1,0.4-0.2,0.8-0.2,1.2c0,0.4,0.1,0.8,0.2,1.2
			c0.1,0.4,0.3,0.7,0.5,0.9c0.2,0.3,0.6,0.5,0.9,0.6c0.4,0.1,0.8,0.2,1.3,0.2c1.1,0,1.6-0.2,1.9-0.4c0,0,0.1-0.1,0-0.2l-0.2-0.7
			c0-0.1-0.1-0.1-0.1-0.1c-0.3,0.1-0.6,0.3-1.5,0.3c-0.6,0-1-0.2-1.3-0.4c-0.3-0.3-0.4-0.7-0.4-1.2l3.7,0c0,0,0.1,0,0.1-0.1
			C329.3,39.7,329.4,39,329.2,38.2 M325.5,38.9c0.1-0.4,0.1-0.6,0.3-0.9c0.2-0.3,0.6-0.5,1.1-0.5s0.8,0.2,1,0.5
			c0.2,0.2,0.2,0.5,0.2,0.9L325.5,38.9z"/>
		<path class="st14" d="M299.6,38.2c-0.1-0.3-0.3-0.7-0.5-0.9c-0.2-0.3-0.5-0.4-0.7-0.5c-0.3-0.1-0.7-0.2-1.1-0.2
			c-0.5,0-0.9,0.1-1.2,0.2c-0.3,0.2-0.6,0.4-0.8,0.6c-0.2,0.3-0.4,0.6-0.5,1c-0.1,0.4-0.2,0.8-0.2,1.2c0,0.4,0.1,0.8,0.2,1.2
			c0.1,0.4,0.3,0.7,0.5,0.9c0.2,0.3,0.6,0.5,0.9,0.6c0.4,0.1,0.8,0.2,1.3,0.2c1.1,0,1.6-0.2,1.9-0.4c0,0,0.1-0.1,0-0.2l-0.2-0.7
			c0-0.1-0.1-0.1-0.1-0.1c-0.3,0.1-0.6,0.3-1.5,0.3c-0.6,0-1-0.2-1.3-0.4c-0.3-0.3-0.4-0.7-0.4-1.2l3.7,0c0,0,0.1,0,0.1-0.1
			C299.7,39.7,299.9,39,299.6,38.2 M296,38.9c0.1-0.4,0.1-0.6,0.3-0.9c0.2-0.3,0.6-0.5,1.1-0.5s0.8,0.2,1,0.5
			c0.2,0.2,0.2,0.5,0.2,0.9L296,38.9z"/>
		<path class="st3" d="M289.5,38.8c-0.1,0-0.3,0-0.6,0c-0.3,0-0.6,0-0.9,0.1c-0.3,0.1-0.5,0.2-0.8,0.4c-0.2,0.2-0.4,0.4-0.5,0.6
			s-0.2,0.5-0.2,0.8c0,0.3,0.1,0.6,0.2,0.8c0.1,0.2,0.3,0.4,0.5,0.6c0.2,0.1,0.5,0.3,0.8,0.3c0.3,0.1,0.6,0.1,1,0.1
			c0.4,0,0.8,0,1.1-0.1c0.4-0.1,0.8-0.2,0.9-0.2c0.1,0,0.3-0.1,0.3-0.1c0.1,0,0.1-0.1,0.1-0.1l0-3.4c0-0.7-0.2-1.3-0.6-1.6
			c-0.4-0.3-1-0.5-1.7-0.5c-0.3,0-0.7,0-1,0.1c0,0-0.8,0.2-1.1,0.4c0,0-0.1,0,0,0.1l0.3,0.7c0,0.1,0.1,0.1,0.1,0.1s0,0,0.1,0
			c0.7-0.4,1.6-0.4,1.6-0.4c0.4,0,0.7,0.1,0.9,0.2c0.2,0.2,0.3,0.4,0.3,0.9v0.2C289.8,38.8,289.5,38.8,289.5,38.8 M288,41.4
			c-0.1-0.1-0.2-0.1-0.2-0.2c-0.1-0.1-0.1-0.3-0.1-0.5c0-0.3,0.1-0.6,0.3-0.7c0,0,0.3-0.3,1.1-0.3c0.5,0,1,0.1,1,0.1v1.7
			c0,0-0.5,0.1-1,0.1C288.3,41.6,288,41.4,288,41.4"/>
		<path class="st14" d="M319.2,36.9c0-0.1,0-0.1-0.1-0.1c-0.1,0-0.4-0.1-0.6-0.1c-0.5,0-0.7,0-1,0.2c-0.2,0.1-0.5,0.3-0.6,0.5l0-0.4
			c0-0.1,0-0.1-0.1-0.1h-0.9c-0.1,0-0.1,0-0.1,0.1v5.5c0,0.1,0,0.1,0.1,0.1h1c0.1,0,0.1,0,0.1-0.1v-2.7c0-0.4,0-0.7,0.1-1
			c0.1-0.2,0.2-0.4,0.3-0.5c0.1-0.1,0.3-0.2,0.5-0.3c0.2-0.1,0.4-0.1,0.5-0.1c0.2,0,0.4,0.1,0.4,0.1c0.1,0,0.1,0,0.1-0.1
			C319,37.5,319.2,37,319.2,36.9"/>
		<path class="st14" d="M310.1,34.3c-0.1,0-0.2-0.1-0.4-0.1c-0.1,0-0.3,0-0.5,0c-0.7,0-1.2,0.2-1.6,0.6c-0.4,0.4-0.6,0.9-0.7,1.7
			l0,0.2h-0.8c0,0-0.1,0-0.1,0.1l-0.1,0.8c0,0.1,0,0.1,0.1,0.1h0.8l-0.8,4.6c-0.1,0.4-0.1,0.7-0.2,0.9c-0.1,0.2-0.2,0.4-0.3,0.5
			c-0.1,0.1-0.2,0.2-0.3,0.3c-0.1,0-0.3,0.1-0.4,0.1c-0.1,0-0.2,0-0.3,0c-0.1,0-0.1,0-0.2-0.1c0,0-0.1,0-0.1,0.1
			c0,0.1-0.2,0.7-0.3,0.7c0,0.1,0,0.1,0.1,0.1c0.1,0,0.2,0.1,0.3,0.1c0.2,0,0.4,0.1,0.5,0.1c0.3,0,0.6,0,0.9-0.1
			c0.3-0.1,0.5-0.3,0.7-0.5c0.2-0.2,0.3-0.5,0.5-0.8c0.1-0.3,0.2-0.8,0.3-1.2l0.8-4.7h1.2c0,0,0.1,0,0.1-0.1l0.1-0.8
			c0-0.1,0-0.1-0.1-0.1h-1.2c0,0,0.1-0.4,0.2-0.8c0.1-0.2,0.2-0.3,0.3-0.4c0.1-0.1,0.2-0.2,0.3-0.2c0.1,0,0.2-0.1,0.4-0.1
			c0.1,0,0.2,0,0.3,0c0.1,0,0.2,0,0.2,0c0.1,0,0.1,0,0.2-0.1l0.3-0.8C310.2,34.4,310.1,34.3,310.1,34.3"/>
		<path class="st14" d="M293.6,42.3c0,0.1,0,0.1-0.1,0.1h-1c-0.1,0-0.1-0.1-0.1-0.1v-7.9c0-0.1,0-0.1,0.1-0.1h1c0.1,0,0.1,0,0.1,0.1
			V42.3z"/>
	</g>
</g>
<g>
	<path class="st15" d="M80.6,172.8l-1,3.6c0,0-7.5,4.2-7.4,4.5l1,6.4c0,0.4,8.5,2.5,8.5,2.5l1.9,3.3c0,0-2.2,8.1-1.9,8.5l5.1,3.9
		c0.3,0.3,7.5-4.3,7.5-4.3l3.6,1c0,0,4.3,7.5,4.6,7.5l6.4-0.9c0.4,0,2.2-8.3,2.2-8.3l3.3-1.9c0,0,8.3,2.5,8.7,2l3.9-5.1
		c0.3-0.3-4.5-7.5-4.5-7.5l1-3.6c0,0,7.5-4.2,7.4-4.5l-1-6.4c0-0.4-8.5-2.5-8.5-2.5l-1.9-3.3c0,0,2.2-8.1,1.9-8.5l-5.1-3.9
		c-0.3-0.3-7.5,4.3-7.5,4.3l-3.6-1c0,0-4.3-7.5-4.6-7.5l-6.4,0.9c-0.4,0-2.2,8.3-2.2,8.3l-3.3,1.9c0,0-8.3-2.5-8.7-2l-3.9,4.9
		C75.9,165.6,80.6,172.8,80.6,172.8z M94.1,174.7c3-4.1,9-4.8,13.2-1.6s4.9,9,1.9,13.2c-3,4.1-9,4.8-13.2,1.6S91.1,178.9,94.1,174.7
		z"/>
	<path class="st16" d="M137.9,204.6l-0.5,1.6c0,0-3.4,1.8-3.3,2l0.5,2.8c0,0.2,3.9,1.1,3.9,1.1l0.8,1.5c0,0-1,3.6-0.8,3.9l2.3,1.7
		c0.1,0.1,3.4-1.9,3.4-1.9l1.6,0.5c0,0,1.9,3.4,2,3.4l2.8-0.3c0.2,0,1-3.6,1-3.6l1.5-0.8c0,0,3.6,1.1,3.9,0.9l1.7-2.3
		c0.1-0.1-2-3.4-2-3.4l0.5-1.6c0,0,3.4-1.8,3.3-2l-0.6-3.1c0-0.2-3.9-1.1-3.9-1.1l-0.8-1.5c0,0,1-3.6,0.8-3.9l-2.3-1.7
		c-0.1-0.1-3.4,1.9-3.4,1.9l-1.6-0.5c0,0-1.9-3.4-2-3.4l-2.8,0.3c-0.2,0-1,3.6-1,3.6l-1.5,0.8c0,0-3.6-1.1-3.9-0.9l-1.7,2.2
		C135.7,201.4,137.9,204.6,137.9,204.6z M143.8,205.4c1.4-1.8,4-2.2,5.9-0.7c1.8,1.4,2.2,4,0.8,5.9c-1.4,1.8-4,2.2-5.9,0.7
		C142.7,209.8,142.5,207.3,143.8,205.4z"/>
	<path class="st16" d="M856.7,180.5l-0.5,1.6c0,0-3.4,1.8-3.3,2l0.5,2.8c0,0.2,3.9,1.1,3.9,1.1l0.8,1.5c0,0-1,3.6-0.8,3.9l2.3,1.7
		c0.1,0.1,3.4-1.9,3.4-1.9l1.6,0.5c0,0,1.9,3.4,2,3.4l2.8-0.3c0.2,0,1-3.6,1-3.6l1.5-0.8c0,0,3.6,1.1,3.9,0.9l1.7-2.3
		c0.1-0.1-2-3.4-2-3.4l0.5-1.6c0,0,3.4-1.8,3.3-2l-0.6-3.1c0-0.2-3.9-1.1-3.9-1.1l-0.8-1.5c0,0,1-3.6,0.8-3.9l-2.3-1.7
		c-0.1-0.1-3.4,1.9-3.4,1.9l-1.6-0.5c0,0-1.9-3.4-2-3.4l-2.8,0.3c-0.2,0-1,3.6-1,3.6l-1.5,0.8c0,0-3.6-1.1-3.9-0.9l-1.7,2.2
		C854.5,177.3,856.7,180.5,856.7,180.5z M862.6,181.3c1.4-1.8,4-2.2,5.9-0.7c1.8,1.4,2.2,4,0.8,5.9c-1.4,1.8-4,2.2-5.9,0.7
		S861.2,183.2,862.6,181.3z"/>
	<path class="st16" d="M931.6,17.8l-0.3,1.1c0,0-2.3,1.2-2.2,1.4l0.3,1.9c0,0.2,2.6,0.8,2.6,0.8l0.5,1c0,0-0.7,2.4-0.5,2.6l1.5,1.1
		c0.1,0.1,2.3-1.3,2.3-1.3l1.1,0.3c0,0,1.3,2.3,1.4,2.3l1.9-0.2c0.2,0,0.7-2.4,0.7-2.4l1-0.5c0,0,2.4,0.8,2.6,0.6l1.1-1.5
		c0.1-0.1-1.4-2.3-1.4-2.3l0.3-1.1c0,0,2.3-1.2,2.2-1.4l-0.4-2c0-0.2-2.6-0.8-2.6-0.8l-0.5-1c0,0,0.7-2.4,0.5-2.6l-1.5-1.1
		c-0.1-0.1-2.3,1.3-2.3,1.3l-1.1-0.3c0,0-1.3-2.3-1.4-2.3l-1.9,0.2c-0.2,0-0.7,2.4-0.7,2.4l-1,0.5c0,0-2.4-0.8-2.6-0.6l-1.1,1.4
		C930.2,15.7,931.6,17.8,931.6,17.8z M935.5,18.3c0.9-1.2,2.6-1.4,3.9-0.5c1.2,0.9,1.4,2.6,0.5,3.9c-0.9,1.2-2.6,1.4-3.9,0.5
		C934.7,21.3,934.6,19.6,935.5,18.3z"/>
</g>
<g>
	<path class="st17" d="M821,274H687.6c-23.1,0-42-18.8-42-42s18.8-42,42-42H821v-37.8H687.6c-43.9,0-79.8,35.9-79.8,79.8l0,0
		c0,43.9,35.9,79.8,79.8,79.8H821L821,274L821,274z"/>
	<path class="st18" d="M607.8,232L607.8,232h37.8c0-23.1,18.8-42,42-42H821v-37.8H687.6C643.7,152.3,607.8,188.2,607.8,232z"/>
	<rect x="769.8" y="274" class="st19" width="51.2" height="37.8"/>
	<rect x="769.8" y="152.2" class="st19" width="51.2" height="37.8"/>
	<polygon class="st20" points="731.1,214 728.5,220.4 722.1,218.1 727.6,208.6 	"/>
	<path class="st21" d="M738.2,204.6c0,0,0.3,8.6-3.9,10.7c-4.2,2.1-7.9-4.3-8.6-5.7c-0.6-1.3-1.6-3.4-1.6-3.4s4.8-5.8,4.9-5.8
		s6.8,1.1,7.1,1.3C736.3,201.9,738.2,204.6,738.2,204.6z"/>
	<path class="st22" d="M742.6,204.4c1.6-2.8-2.7-2.5-3.8-3s0.8-3.9-1.7-5.1s-2.5,1.5-4,1.2s-2.4-3.4-4.1-2.9s-1.9,2.2-3.2,3.3
		s-4.9,0.4-4.8,2.4s1.7,1.9,2.1,3c0.4,1.1-1.6,3-0.2,4.9c1.4,1.9,2.2,2.4,3.1,2.1c0.9-0.3,1.1-2-0.4-2.8s0.1-2.6,2.5-1.6
		s-0.3-3.3,2.2-3.1s3.1,3.3,6.7,3.2S741.8,205.8,742.6,204.4z"/>
	<path class="st23" d="M768.3,291.3c0.2,0.4,1.6,5.4,1.6,5.4l3.3,0.1c0,0,1.2-2.4,1.1-2.5s-1.6-4.2-1.6-4.2L768.3,291.3z"/>
	<polygon class="st24" points="778.2,288.5 778.7,290.4 779,291.8 777.1,292.8 774.4,292.8 772.7,288.5 775.7,287.6 	"/>
	<path class="st25" d="M774.4,292.8c0,0,3.6-1.3,4.3-2.4c6.7,0.4,7,0.9,9,0.7c1.9-0.2,4.6,0.1,4.4,4.5c-3.6,0.6-17.7,2.1-17.7,2.1
		S773.3,294.9,774.4,292.8z"/>
	<path class="st26" d="M780.1,293.9c0-0.1,0.2-3.4,0.2-3.4"/>
	<line class="st26" x1="782.3" y1="293.5" x2="782.8" y2="290.8"/>
	<path class="st27" d="M769.8,295.5c0,0,3.6-1.3,4.3-2.4c6.7,0.4,7,0.9,9,0.7c2-0.2,4.6,0.1,4.4,4.5c-3.6,0.6-17.7,2.1-17.7,2.1
		S768.7,297.5,769.8,295.5z"/>
	<path class="st26" d="M775.5,296.6c0-0.1,0.2-3.4,0.2-3.4"/>
	<line class="st26" x1="778" y1="296.5" x2="778.1" y2="293.5"/>
	<path class="st28" d="M772.7,288.5h5.5c0,0,3.2-23.7,0.8-33.8s-3.8-11.5-15.2-10s-6.4,12.3-6.4,12.3l9.3,6.8l3.2,14L772.7,288.5z"
		/>
	<path class="st25" d="M708.9,258.9c0,0,0.7,20.7,20.4,20.5c19.6-0.2,32-14.7,32-14.7s3.9,24.3,6.4,27.1c3,0.1,5.8-0.5,5.8-0.5
		s3-24.3,1.4-32.3s-4.9-16.5-20-12.3S708.9,258.9,708.9,258.9z"/>
	<path class="st29" d="M725.2,217.1c3.3-0.2,10.6,5.9,10.7,18.6c0.1,12.6,0.1,12.6,0.1,12.6s19.9-8.6,25.9-8.3s7,3.2,7.2,5.6
		c0.1,2.4-1.2,1.7-1.4-0.2c-0.2-1.8-1.7,1.4-3.9,1.2c-2.2-0.3-2.6-2-4.8-1.3c-2.2,0.8-18.3,10.2-20.6,11.1c-2.3,0.9-5.5,1.6-13.3,2
		c-7.9,0.3-15.7,0.5-16.3,0.5C709.3,240,712.6,218,725.2,217.1z"/>
	<polyline class="st30" points="784.8,226 773.8,249.2 754.7,244.9 	"/>
	<path class="st31" d="M761.9,239.9c-6-0.3-25.9,8.3-25.9,8.3s0,0-0.1-11.7c-3,0.1-10.3,0.4-10.3,0.4s0.1,21,7.2,20.8
		c2.7-0.4,4.3-0.8,5.7-1.4c2.3-0.9,18.4-10.3,20.6-11.1c2.2-0.8,2.6,1,4.8,1.3s3.6-3,3.9-1.2c0.2,1.8,1.6,2.6,1.4,0.2
		C769,243.1,767.9,240.2,761.9,239.9z"/>
</g>
<g>
	<path class="st32" d="M940.3,303.8v-4.2h6.8l0.1,4.2c0,0-1.7,2.5-1.8,2.5c-0.2,0-3.5-0.2-3.7-0.2
		C941.4,306.1,940.3,303.8,940.3,303.8z"/>
	<path class="st33" d="M895.9,302.4l0.3-3.8h7l-0.5,3.8l-2.3,2.4c0,0-3.2,0.1-3.4,0C896.9,304.7,895.9,302.4,895.9,302.4z"/>
	<path class="st34" d="M947.2,303.8c-0.4-0.4-2,1.6-6.9,0c-6,4.3-9,5.2-11.4,5.4c-2.5,0.2-2.4,3.4-2.4,3.4s7.2,0,9.2,0
		s5.3-2.4,7.5-2.4c0,1.6,0,2.3,0,2.3h5.4C948.6,312.4,948.8,305.5,947.2,303.8z"/>
	<path class="st35" d="M902.8,302.4c-0.4-0.4-2,1.6-6.9,0c-6,4.3-9,5.2-11.4,5.4c-2.5,0.2-2.4,3.4-2.4,3.4s7.2,0,9.2,0
		s5.3-2.4,7.5-2.4c0,1.6,0,2.3,0,2.3h5.4C904.2,311,904.5,304.1,902.8,302.4z"/>
	<path class="st36" d="M893,159.5h20.9v62.4c0,0-9.3,77.1-9.7,78.5c-3.3,0.3-9.5,0-9.5,0S892.7,162.6,893,159.5z"/>
	<path class="st37" d="M934.5,159.5h-31.4c0,0,0.5,29.7,12.2,66.9c11.6,37.2,22.2,73.2,22.2,73.2l11.1,0.8c0,0-12.5-72.5-13.1-90
		C934.9,192.9,934.5,159.5,934.5,159.5z"/>
	<path class="st38" d="M915.7,68.3l0.5-12.6c0,0-2.6-0.4-2.9-0.3c-0.3,0.1-12.6,4.8-12.6,4.8s0.2,18.1,0,18.5s0.3,5.6,0.3,5.6
		s1.6,3.3,5.6,2.6c4-0.7,7.1-2.2,7.6-5.8C914.7,77.4,915.7,68.3,915.7,68.3z"/>
	<path class="st39" d="M896.9,50.6c0,0-2.8,12.1-1,19.1s10.9,2.5,11.3,2.1c0.4-0.4,3.1-20.4,3.1-20.4l-5-2.8L896.9,50.6z"/>
	<path class="st40" d="M917,65.8c-0.9,6.4-2.9,8.7-2.6,3.4s1.3-12.6-1.2-11.8c-2.4,0.8-2.5,7.6-1.8,12.6s-7.7,10.9-12.3,10.3
		c-4.6-0.7-4.7-7.3-4.1-11.2c0.6-3.9,3.3,1.7,6.4,1.3c3.2-0.4,5.4-6,5.6-12.3c0.2-6.3-0.3-8.1-5.2-6.3c-4.9,1.7-10,1-9.7-3.1
		s1.8-3.8,5.9-2.4s8.8-3,13.8-1.5S919.1,51.4,917,65.8z"/>
	<path class="st41" d="M930.7,162.6c0,0-0.4,12.5-9.5,12.9s-7.9-2.8-3.4-5.5c4.5-2.8,7.6-9.9,7.6-9.9L930.7,162.6z"/>
	<path class="st9" d="M863.6,53.4c0,0,16.8,11,21.6,10.5c4.8-0.6,7.7-0.7,7.7,4.7s-1.6,5.8-6,5c-4.4-0.9-18.3,0.6-23.7,6.4
		C860.7,69.7,863.6,53.4,863.6,53.4z"/>
	<ellipse class="st42" cx="862" cy="66.4" rx="4" ry="14.1"/>
	<path class="st43" d="M865.8,61.6c0.2,1.5,0.2,3.1,0.2,4.7c0,1.7-0.1,3.3-0.2,4.7c-1.9-0.7-3.3-2.6-3.3-4.7S863.9,62.4,865.8,61.6z
		"/>
	<path class="st9" d="M887.7,72.1c0,0,1.2,14.3-2.9,16.3s-9.3,2.6-9.3,2.6s0.1-5.1,0.4-5.5c0.3-0.4,4.4-4,4.4-4s1.4-7.5,0.4-9.4
		S887.7,72.1,887.7,72.1z"/>
	<path class="st39" d="M870.4,93.8c0,0,1.1-11.1,7.5-12.8c6.4-1.7,6.6,3.7,1.7,5.2s-1.3,5.5,1.5,3.3s1.6,2-3.3,4.1
		C872.9,95.8,870.4,93.8,870.4,93.8z"/>
	<path class="st44" d="M895.3,87.4c0,0-15.2,29.7-17,30.7s-1-19.4,0-24.5c-3.6-0.2-9.9,0.3-9.9,0.3s-11.7,32.2-5.2,45.1
		s29-10.5,29-10.5s6.9-9.2,7.1-10.2C899.6,117.4,895.3,87.4,895.3,87.4z"/>
	<path class="st11" d="M893,159.5h30.3l0,0c1.6,3.2,5.1,4.8,8.8,4.4c9.3-14.6,15.4-33,17.7-38.7c2.2-5.7-8.9-23.5-17.9-35.1
		S914.2,81,914.2,81l-13.5,1.2c0,0-8,0-8.5,23S893,159.5,893,159.5z M916,102.5L916,102.5L916,102.5z M916.8,103.2L916.8,103.2
		C916.7,103.2,916.7,103.2,916.8,103.2C916.7,103.2,916.7,103.2,916.8,103.2z M913.8,100.5L913.8,100.5L913.8,100.5z M913.5,100.2
		L913.5,100.2L913.5,100.2z"/>
	<g>
		<path class="st44" d="M923.3,159.5c0.7-2.7,1.4-5.4,2.1-8.1c0.7-2.7,1.3-5.4,2-8.1c1.2-5.4,2.5-10.9,3-16.4
			c0.1-1.4,0.2-2.8,0.2-4.1c0-1.4-0.5-2.6-1.1-3.8c-1.2-2.4-3-4.6-4.7-6.8c-1.8-2.2-3.6-4.2-5.6-6.2c-1.9-2-3.9-4-5.9-6
			c4.3,3.6,8.3,7.5,12,11.7c1.8,2.1,3.6,4.3,4.9,6.9c0.4,0.6,0.6,1.3,0.9,2c0.2,0.7,0.3,1.5,0.4,2.2c0.1,1.4,0,2.9-0.1,4.3
			c-0.3,2.8-0.8,5.6-1.4,8.3c-0.6,2.7-1.2,5.5-1.9,8.2C926.6,148.8,925.1,154.2,923.3,159.5z"/>
	</g>
</g>
<g>
	<polygon class="st29" points="191.9,35.1 182.4,54.5 161,57.6 176.5,72.6 172.8,93.9 191.9,83.9 211,93.9 207.3,72.6 222.8,57.6 
		201.4,54.5 	"/>
	<polygon class="st45" points="172.8,93.9 176.5,72.6 161,57.6 182.4,54.5 191.9,35.1 191.9,83.9 	"/>
	<polygon class="st46" points="198.8,298.2 198.8,307.6 193.7,308.5 194.3,298.2 	"/>
	<path class="st47" d="M268.9,271.1c0,0-6.5-3-6.6-3s-1.4,4.1-1.4,4.1l5.6,3.5L268.9,271.1z"/>
	<path class="st18" d="M198.8,305.9c0,0,0.6,3.2,0.2,5.8c-2.6,0-16.8,0-16.8,0s0.1-5.8,4-5.8s3.9,0.2,5.7,0.2s1.9-0.4,1.9-0.4
		L198.8,305.9z"/>
	<path class="st18" d="M268.2,270.5c0,0,3.2,0.7,5.4,2.1c-1,2.4-6.6,15.5-6.6,15.5s-5.3-2.3-3.7-5.9c1.5-3.6,1.7-3.5,2.4-5.1
		s0.3-1.9,0.3-1.9L268.2,270.5z"/>
	<path class="st41" d="M246.3,178.2c0,0,11.3,26.4,12.5,27.5c1.2,1.2,8-1.2,9.1,5.3s-3.9,6-6,2.1c-2.1-4-3.9,1.5-8.7-7.1
		c-4.9-8.6-14.1-23.4-14.1-23.4v-4.1L246.3,178.2z"/>
	<path class="st48" d="M179.8,117.1c0,0-6.8-4.3-7.7-6.2c-0.9-1.9,2.6-26.1,4.5-28s6.4-4.1,7.6-4.2c1.2-0.2,1.4-2.3-3-0.9
		s-6.8,0.3-8.6,5.1c-1.8,4.8-9.1,25.3-9.6,28.1s-0.8,5.4,3.8,9s7.6,1,7.6,1L179.8,117.1z"/>
	<path class="st17" d="M225.7,199.6c0,0,6.4,5.4,5.5,15.2s-5.3,26.5,2.8,32.2s29.5,21.1,29.5,21.1s-1,4.9-1.9,4.9
		s-35.4-5.3-43.8-20.3c-8.4-15-8.7-34.6-8.7-34.6l1.7-16.7L225.7,199.6z"/>
	<path class="st18" d="M216.7,204.2c0,0,3.3,12.7-7.7,25.2c-10.9,12.5-8.7,21.8-6,34.7c2.8,13-3,35.7-3,35.7l-5.3,0.1
		c0,0-8.8-49.7-9.5-61.6c-0.7-12,0.7-37.6,8.8-43.9C202.3,188.2,216.7,204.2,216.7,204.2z"/>
	<path class="st49" d="M246.3,178.2l-7.2,4.4l-12.9-17c0,0-0.3,30.4,0.8,35.4c-5.5,6-22.9,4.1-34.1-3.9c-1.2-16.9-2.1-51.2-1.9-51.7
		c0.1-0.5-2.3-6-7.5-9.8c-5.1-3.7-16.6-15.7-16.6-15.7s11.3-3.6,12.9-2.8s21.4,13.5,21.4,13.5l19.2,8.6l7.3,1.9
		C227.6,141.1,237.9,153.6,246.3,178.2z"/>
	
		<rect x="171.8" y="74.3" transform="matrix(0.9839 -0.1787 0.1787 0.9839 -10.7659 33.2531)" class="st29" width="14.9" height="4.2"/>
	<polygon class="st50" points="186.9,77.1 186.9,77.1 191.9,74.1 186.2,73 186.2,73 	"/>
	
		<rect x="170.7" y="75.8" transform="matrix(0.9839 -0.1787 0.1787 0.9839 -11.1569 31.8595)" class="st51" width="1.2" height="4.2"/>
	<path class="st52" d="M170.7,80.1l0.4-0.1l-0.8-4.2l-0.4,0.1c-0.6,0.1-1,0.7-0.9,1.3l0.4,1.9C169.5,79.8,170.1,80.2,170.7,80.1z"/>
	<polygon class="st52" points="189.4,73.6 191.9,74.1 189.7,75.4 	"/>
	<path class="st48" d="M180.6,72c-2.9,0.2-3.5,2.6-3.5,2.6l5.2-0.9c0,0,0.6,0.3,1.2,0.1C184.2,73.7,186.3,71.7,180.6,72z"/>
	<path class="st40" d="M222.9,102.7c-12.2-5.9-18.8,12.6-21.1,22.1s-12.6,5.9-18.3,17.5c-5.7,11.6,1.8,17,9.5,16.5s3.2,7.6,16.2,6
		c13-1.5,18.1-17.8,20.3-35S230.3,106.3,222.9,102.7z"/>
</g>
<g>
	<rect x="734.8" y="79.9" class="st29" width="73.6" height="44.6"/>
	<rect x="701.2" y="19.7" class="st18" width="44.2" height="27.4"/>
	<rect x="664.1" y="60.9" class="st18" width="54.5" height="33.6"/>
	<g>
		<path class="st17" d="M664.1,62.3c4.8,2.6,9.4,5.5,13.9,8.2c4.6,2.7,9.3,5.7,13.7,8.7h-1c4.6-3.1,9.1-6.3,13.7-9.3l7-4.6
			c2.4-1.5,4.6-2.9,7-4.5c-2.2,1.7-4.5,3.4-6.5,5.1l-6.7,5c-4.5,3.3-8.9,6.5-13.5,9.6l-0.5,0.3l-0.5-0.3c-4.5-2.9-9.1-6-13.5-9.1
			C672.9,68.6,668.4,65.5,664.1,62.3z"/>
	</g>
	<g>
		<path class="st17" d="M701.2,19.7c3.9,2.2,7.7,4.6,11.5,7c3.8,2.4,7.5,5,11.1,7.5h-1c3.8-2.6,7.4-5.1,11.1-7.5l5.7-3.6
			c1.9-1.2,3.8-2.4,5.8-3.4c-1.7,1.4-3.6,2.7-5.3,4.1l-5.3,3.9c-3.6,2.7-7.2,5.3-11,7.9l-0.5,0.3l-0.5-0.3c-3.6-2.6-7.4-5.1-11-7.9
			C708.2,25.2,704.6,22.5,701.2,19.7z"/>
	</g>
	<g>
		<path class="st45" d="M734.8,79.9c6.5,3.8,12.9,7.9,19.2,12.2c6.3,4.1,12.5,8.6,18.7,12.9h-2.1c6.2-4.3,12.3-8.7,18.7-12.9
			c6.3-4.1,12.7-8.2,19.2-12c-5.7,5-11.7,9.6-17.7,14.2s-12,9.1-18.2,13.5l-1,0.7l-1-0.7c-6.2-4.5-12.2-8.9-18.2-13.5
			C746.4,89.5,740.4,84.9,734.8,79.9z"/>
	</g>
</g>
<g>
	<circle class="st11" cx="50.9" cy="90.9" r="50.9"/>
	<path class="st53" d="M65.1,86.6C62.8,72.4,61.9,73,50.9,73S39,72.4,36.7,86.6c-3-3.2-7.8-3.2-7.8,4.3s4.5,7.3,5.8,5.6
		c1.1,7.3,7.3,15.7,16.2,15.7s15.1-8.4,16.2-15.7c1.3,1.7,5.8,1.9,5.8-5.6S68,83.4,65.1,86.6z"/>
	<path class="st54" d="M50.9,98.9h-6c0,0,1.1,5.6,6,5.6s6-5.6,6-5.6H50.9z"/>
	<path class="st55" d="M50.9,141.8c11.2,0,21.4-3.5,29.8-9.7c-0.2-0.2-13.4-9.3-29.8-9.3c-16.6,0-29.6,9.1-29.8,9.3
		C29.5,138.2,39.9,141.8,50.9,141.8z"/>
	<path class="st55" d="M31.9,84.7c1.7-0.6,3.5,0.2,5,1.9C39.1,72.4,40.1,73,51.1,73S63,72.4,65.3,86.6c1.3-1.5,3.2-2.2,4.7-1.9
		c1.1-3.2,2.6-24,2.6-24s-3.9-5.8-20.5-5.8C25.7,54.7,31.9,84.7,31.9,84.7L31.9,84.7z"/>
	<path class="st56" d="M50.9,112.3c-3.2,0-6-1.1-8.2-2.6v14c2.6-0.4,5.4-0.7,8.2-0.7s5.6,0.4,8.2,0.7v-14
		C56.9,111.2,54.1,112.3,50.9,112.3z"/>
	<path class="st57" d="M106.1,55.6V39.2V8.1c0-2.2,1.7-3.9,3.9-3.9h51.5c2.2,0,3.9,1.7,3.9,3.9v31.1c0,2.2-1.7,3.9-3.9,3.9h-45.7
		L106.1,55.6z"/>
	<ellipse class="st19" cx="135.7" cy="29.9" rx="2.6" ry="3.4"/>
	<ellipse class="st19" cx="123.2" cy="29.9" rx="2.6" ry="3.4"/>
	<ellipse class="st19" cx="148.2" cy="29.9" rx="2.6" ry="3.4"/>
</g>
<g>
	<circle class="st18" cx="57.4" cy="253.8" r="7"/>
	<circle class="st58" cx="57.4" cy="253.8" r="19.1"/>
	<circle class="st58" cx="57.4" cy="253.8" r="28.2"/>
	<circle class="st58" cx="57.4" cy="253.8" r="37.7"/>
	<line class="st59" x1="122.1" y1="240.2" x2="57.4" y2="253.8"/>
	<polyline class="st59" points="64.5,258.5 57.4,253.8 62.1,246.7 	"/>
	<polyline class="st59" points="115.8,247.3 108.5,242.8 113.2,235.5 	"/>
	<polyline class="st59" points="120,246.4 112.9,241.7 117.6,234.6 	"/>
	<polyline class="st59" points="124.8,245.8 117.7,241.1 122.4,234 	"/>
</g>
<g>
	<path class="st60" d="M835,27.8c0-7.2-5.9-13.3-13.3-13.3c-7.2,0-13.3,5.9-13.3,13.3c0,3.1,1.1,5.9,2.8,8l0,0
		c3.9,6,4.3,12.3,4.3,12.3h6.2h6.2c0,0,0.5-6.5,4.3-12.3l0,0C833.9,33.5,835,30.8,835,27.8z"/>
	<polygon class="st61" points="815.6,48.2 815.6,55.1 820.3,59.6 823.1,59.6 827.9,55.1 827.9,48.2 	"/>
	<path class="st62" d="M818.6,48.2c0,0,0.3-12.5-3.9-19.7"/>
	<path class="st62" d="M828.7,28.6c-4.2,7.2-3.9,19.7-3.9,19.7"/>
	<path class="st62" d="M815.1,29.2c0,0,0.9-1.5,2.2-1.5c1.4,0,1.2,3.5,2.8,3.5c1.5,0,1.2-2.6,2.6-2.6c1.4,0,0.8,1.9,1.9,1.9
		c1.1,0,1.2-4.2,4-1.7"/>
	<line class="st62" x1="804.1" y1="12.7" x2="808.5" y2="17.6"/>
	<line class="st62" x1="798.6" y1="21.7" x2="804.8" y2="23.4"/>
	<line class="st62" x1="798.9" y1="33.4" x2="804.9" y2="30.6"/>
	<line class="st62" x1="840.1" y1="12.7" x2="835.8" y2="17.6"/>
	<line class="st62" x1="845.8" y1="21.7" x2="839.6" y2="23.4"/>
	<line class="st62" x1="845.3" y1="33.4" x2="839.5" y2="30.6"/>
</g>
</svg>
