<?xml version="1.0" encoding="utf-8"?>
<!-- Generator: Adobe Illustrator 19.1.1, SVG Export Plug-In . SVG Version: 6.00 Build 0)  -->
<svg version="1.1" id="Layer_1" xmlns:sketch="http://www.bohemiancoding.com/sketch/ns"
	 xmlns="http://www.w3.org/2000/svg" xmlns:xlink="http://www.w3.org/1999/xlink" x="0px" y="0px" viewBox="-57 59 84 84"
	 style="enable-background:new -57 59 84 84;" xml:space="preserve">
<style type="text/css">
	.st0{fill:#EEEEEE;}
	.st1{fill:#FFFFFF;}
	.st2{fill:none;stroke:#F2EDED;}
	.st3{fill:none;stroke:#005EB8;stroke-width:2;stroke-miterlimit:10;}
	.st4{fill:#005EB8;}
</style>
<g sketch:type="MSShapeGroup">
	<g id="path-1">
		<path class="st0" d="M-16,140.7c-21.4,0-38.8-17.4-38.8-38.8v-2c0-21.4,17.4-38.8,38.8-38.8h2c21.4,0,38.8,17.4,38.8,38.8v2
			c0,21.4-17.4,38.8-38.8,38.8H-16z"/>
		<path class="st1" d="M-14,62.2c20.8,0,37.8,16.9,37.8,37.8v2c0,20.8-16.9,37.8-37.8,37.8h-2c-20.8,0-37.8-16.9-37.8-37.8v-2
			c0-20.8,16.9-37.8,37.8-37.8L-14,62.2 M-14,60.2h-2c-22,0-39.8,17.8-39.8,39.8v2c0,22,17.8,39.8,39.8,39.8h2
			c22,0,39.8-17.8,39.8-39.8v-2C25.8,78,8,60.2-14,60.2L-14,60.2z"/>
	</g>
</g>
<g>
	<path id="path-1_1_" class="st2" d="M-16,60.2h2C8,60.2,25.8,78,25.8,100v2c0,22-17.8,39.8-39.8,39.8h-2c-22,0-39.8-17.8-39.8-39.8
		v-2C-55.7,78-37.9,60.2-16,60.2z"/>
</g>
<g>
	<line class="st3" x1="-13.9" y1="96.6" x2="-13.9" y2="84.4"/>
	<line class="st3" x1="2.3" y1="96" x2="-12.6" y2="103.8"/>
	<line class="st3" x1="2" y1="118.4" x2="-13.5" y2="113.3"/>
	<line class="st3" x1="-27.8" y1="116.8" x2="-14.9" y2="113.3"/>
	<line class="st3" x1="-31.9" y1="99.2" x2="-14.9" y2="103.8"/>
	<g>
		<g>
			<g>
				<path class="st4" d="M-13.9,100.6c-2,0-3.6-1.6-3.6-3.6c0-2,1.6-3.6,3.6-3.6c2,0,3.6,1.6,3.6,3.6
					C-10.3,99-11.9,100.6-13.9,100.6z"/>
				<path class="st0" d="M-13.9,94c1.7,0,3,1.4,3,3s-1.4,3-3,3s-3-1.4-3-3h0C-17,95.3-15.6,94-13.9,94 M-13.9,92.8
					c-2.3,0-4.2,1.9-4.2,4.2c0,2.3,1.9,4.2,4.2,4.2c2.3,0,4.2-1.9,4.2-4.2S-11.6,92.8-13.9,92.8L-13.9,92.8z"/>
			</g>
			<g>
				<path class="st4" d="M-16.5,119c-0.8,0-1.5-0.7-1.5-1.5v-6l-1.4-2.2c-0.2-0.2-0.2-0.5-0.2-0.8v-4.6c0-1.6,1-2.9,2.5-3.4
					c0,0,0.8-0.2,0.8-0.2c0.1,0,0.3-0.1,0.4-0.1c0.3,0,0.6,0.1,0.9,0.3l1.2,0.9l1.2-0.9c0.3-0.2,0.6-0.3,0.9-0.3
					c0.1,0,0.3,0,0.4,0.1c0,0,0.8,0.2,0.8,0.2c1.5,0.5,2.5,1.9,2.5,3.4v4.6c0,0.3-0.1,0.6-0.2,0.8l-1.4,2.2v6c0,0.8-0.7,1.5-1.5,1.5
					H-16.5z"/>
				<path class="st0" d="M-16,100.8c0.2,0,0.4,0.1,0.5,0.2l1.5,1.1l1.5-1.1c0.2-0.1,0.4-0.2,0.5-0.2c0.1,0,0.2,0,0.3,0
					c0,0,0.8,0.2,0.8,0.2h0c1.2,0.4,2.1,1.6,2.1,2.9v4.6c0,0.2-0.1,0.4-0.1,0.5l-1.5,2.3v6.2c0,0.5-0.4,0.9-0.9,0.9h-5.1
					c-0.5,0-0.9-0.4-0.9-0.9v-6.2l-1.5-2.3c-0.1-0.1-0.1-0.3-0.1-0.5v-4.6c0-1.3,0.8-2.4,2.1-2.9c0,0,0.8-0.2,0.8-0.2
					C-16.2,100.8-16.1,100.8-16,100.8 M-16,99.6c-0.2,0-0.4,0-0.6,0.1c0,0-0.8,0.2-0.8,0.2c-1.7,0.6-2.9,2.2-2.9,4v4.6
					c0,0.4,0.1,0.8,0.3,1.2l1.3,2v5.8c0,1.2,0.9,2.1,2.1,2.1h5.1c1.2,0,2.1-0.9,2.1-2.1v-5.8l1.3-2c0.2-0.3,0.3-0.7,0.3-1.2v-4.6
					c0-1.8-1.2-3.4-2.9-4c0,0-0.8-0.2-0.8-0.2c-0.2-0.1-0.4-0.1-0.6-0.1c-0.5,0-0.9,0.1-1.3,0.4l-0.8,0.6l-0.8-0.6
					C-15.1,99.7-15.5,99.6-16,99.6L-16,99.6z"/>
			</g>
		</g>
	</g>
	<g>
		<path class="st4" d="M-13.9,88.4c-2.6,0-4.8-2.1-4.8-4.8s2.1-4.8,4.8-4.8c2.6,0,4.8,2.1,4.8,4.8S-11.3,88.4-13.9,88.4z"/>
		<path class="st0" d="M-13.9,79.4c2.3,0,4.3,1.9,4.3,4.3c0,2.3-1.9,4.3-4.3,4.3s-4.3-1.9-4.3-4.3C-18.2,81.3-16.3,79.4-13.9,79.4
			 M-13.9,78.4c-2.9,0-5.3,2.4-5.3,5.3c0,2.9,2.4,5.3,5.3,5.3s5.3-2.4,5.3-5.3C-8.7,80.7-11,78.4-13.9,78.4L-13.9,78.4z"/>
	</g>
	<g>
		<path class="st4" d="M-31.9,104.3c-2.8,0-5.1-2.3-5.1-5.1s2.3-5.1,5.1-5.1s5.1,2.3,5.1,5.1S-29.1,104.3-31.9,104.3z"/>
		<path class="st0" d="M-31.9,94.6c2.6,0,4.6,2.1,4.6,4.6s-2.1,4.6-4.6,4.6s-4.6-2.1-4.6-4.6S-34.5,94.6-31.9,94.6 M-31.9,93.6
			c-3.1,0-5.6,2.5-5.6,5.6s2.5,5.6,5.6,5.6s5.6-2.5,5.6-5.6S-28.8,93.6-31.9,93.6L-31.9,93.6z"/>
	</g>
	<g>
		<path class="st4" d="M2.3,100c-2.2,0-4-1.8-4-4s1.8-4,4-4s4,1.8,4,4S4.5,100,2.3,100z"/>
		<path class="st0" d="M2.3,92.4c2,0,3.5,1.6,3.5,3.5c0,2-1.6,3.5-3.5,3.5s-3.5-1.6-3.5-3.5C-1.2,94,0.4,92.4,2.3,92.4 M2.3,91.4
			c-2.5,0-4.5,2-4.5,4.5c0,2.5,2,4.5,4.5,4.5s4.5-2,4.5-4.5C6.8,93.5,4.8,91.4,2.3,91.4L2.3,91.4z"/>
	</g>
	<g>
		<path class="st4" d="M-27.8,120.9c-2.2,0-4-1.8-4-4s1.8-4,4-4s4,1.8,4,4S-25.6,120.9-27.8,120.9z"/>
		<path class="st0" d="M-27.8,113.3c2,0,3.5,1.6,3.5,3.5s-1.6,3.5-3.5,3.5s-3.5-1.6-3.5-3.5S-29.8,113.3-27.8,113.3 M-27.8,112.3
			c-2.5,0-4.5,2-4.5,4.5s2,4.5,4.5,4.5s4.5-2,4.5-4.5S-25.3,112.3-27.8,112.3L-27.8,112.3z"/>
	</g>
	<g>
		<path class="st4" d="M2.3,123.1c-2.6,0-4.8-2.1-4.8-4.8s2.1-4.8,4.8-4.8s4.8,2.1,4.8,4.8S4.9,123.1,2.3,123.1z"/>
		<path class="st0" d="M2.3,114.1c2.3,0,4.3,1.9,4.3,4.3c0,2.3-1.9,4.3-4.3,4.3s-4.3-1.9-4.3-4.3C-1.9,116,0,114.1,2.3,114.1
			 M2.3,113.1c-2.9,0-5.3,2.4-5.3,5.3c0,2.9,2.4,5.3,5.3,5.3s5.3-2.4,5.3-5.3C7.6,115.5,5.2,113.1,2.3,113.1L2.3,113.1z"/>
	</g>
</g>
</svg>
