<?xml version="1.0" encoding="utf-8"?>
<!-- Generator: Adobe Illustrator 21.0.2, SVG Export Plug-In . SVG Version: 6.00 Build 0)  -->
<svg version="1.1" id="Layer_1" xmlns:sketch="http://www.bohemiancoding.com/sketch/ns"
	 xmlns="http://www.w3.org/2000/svg" xmlns:xlink="http://www.w3.org/1999/xlink" x="0px" y="0px" viewBox="0 0 84 84"
	 style="enable-background:new 0 0 84 84;" xml:space="preserve">
<style type="text/css">
	.st0{fill:#EEEEEE;stroke:#FFFFFF;stroke-width:4;}
	.st1{fill:none;stroke:#F2EDED;}
	.st2{fill:#005EB8;}
</style>
<g id="Rectangle-290">
	<g sketch:type="MSShapeGroup">
		<path id="path-1" class="st0" d="M41,1h2c22.1,0,40,17.9,40,40v2c0,22.1-17.9,40-40,40h-2C18.9,83,1,65.1,1,43v-2
			C1,18.9,18.9,1,41,1z"/>
	</g>
	<g>
		<path id="path-1_1_" class="st1" d="M41,1h2c22.1,0,40,17.9,40,40v2c0,22.1-17.9,40-40,40h-2C18.9,83,1,65.1,1,43v-2
			C1,18.9,18.9,1,41,1z"/>
	</g>
</g>
<path class="st2" d="M62.2,37.3l-3.2-0.5c-0.3-1.1-0.8-2.1-1.3-3.1l1.9-2.6c0.8-1.1,0.7-2.6-0.3-3.6l-2.8-2.8
	c-0.5-0.5-1.2-0.8-2-0.8c-0.6,0-1.1,0.2-1.6,0.5l-2.6,1.9c-1-0.5-2.1-1-3.2-1.3l-0.5-3.1c-0.2-1.3-1.4-2.3-2.7-2.3h-4
	c-1.4,0-2.5,1-2.7,2.3L36.6,25c-1.1,0.3-2.1,0.8-3.1,1.3L31,24.4c-0.5-0.3-1-0.5-1.6-0.5c-0.7,0-1.4,0.3-2,0.8l-2.8,2.8
	c-1,1-1.1,2.5-0.3,3.6l1.9,2.6c-0.5,1-0.9,2-1.3,3.1l-3.1,0.5c-1.3,0.2-2.3,1.4-2.3,2.7v4c0,1.4,1,2.5,2.3,2.7l3.2,0.5
	c0.3,1.1,0.8,2.1,1.3,3.1L24.4,53c-0.8,1.1-0.7,2.6,0.3,3.6l2.8,2.8c0.5,0.5,1.2,0.8,2,0.8c0.6,0,1.1-0.2,1.6-0.5l2.6-1.9
	c1,0.5,1.9,0.9,3,1.2l0.5,3.2c0.2,1.3,1.4,2.3,2.7,2.3h4c1.4,0,2.5-1,2.7-2.3l0.5-3.2c1.1-0.3,2.1-0.8,3.1-1.3l2.6,1.9
	c0.5,0.3,1,0.5,1.6,0.5c0.7,0,1.4-0.3,2-0.8l2.8-2.8c1-1,1.1-2.5,0.3-3.6l-1.9-2.6c0.5-1,1-2,1.3-3.1l3.2-0.5
	c1.3-0.2,2.3-1.4,2.3-2.7v-4C64.5,38.7,63.6,37.5,62.2,37.3L62.2,37.3z M61.5,43.9c0,0.1-0.1,0.2-0.2,0.2l-3.9,0.6
	c-0.5,0.1-0.9,0.4-1,0.9c-0.3,1.3-0.9,2.6-1.6,3.8c-0.2,0.4-0.2,0.9,0.1,1.3l2.3,3.2c0.1,0.1,0.1,0.2,0,0.3l-2.7,2.7
	c-0.1,0.1-0.1,0.1-0.2,0.1c-0.1,0-0.1,0-0.1,0l-3.2-2.3c-0.4-0.3-0.9-0.3-1.3-0.1c-1.2,0.7-2.5,1.2-3.8,1.6c-0.5,0.1-0.8,0.5-0.9,1
	l-0.7,3.9c0,0.1-0.1,0.2-0.2,0.2h-3.9c-0.1,0-0.2-0.1-0.2-0.2l-0.6-3.9c-0.1-0.5-0.4-0.9-0.9-1c-1.3-0.3-2.6-0.9-3.8-1.5
	c-0.2-0.1-0.4-0.2-0.6-0.2c-0.2,0-0.5,0.1-0.7,0.2L30,57.2c0,0-0.1,0-0.1,0c0,0-0.1,0-0.2-0.1l-2.7-2.7c-0.1-0.1-0.1-0.2,0-0.3
	l2.3-3.2c0.3-0.4,0.3-0.9,0.1-1.4c-0.7-1.2-1.3-2.5-1.6-3.8c-0.1-0.5-0.5-0.8-1-0.9l-3.9-0.7c-0.1,0-0.2-0.1-0.2-0.2v-3.9
	c0-0.1,0.1-0.2,0.2-0.2l3.8-0.6c0.5-0.1,0.9-0.4,1-0.9c0.3-1.3,0.9-2.6,1.6-3.9c0.2-0.4,0.2-0.9-0.1-1.3L26.8,30
	c-0.1-0.1-0.1-0.2,0-0.3l2.7-2.7c0.1-0.1,0.1-0.1,0.2-0.1c0.1,0,0.1,0,0.1,0l3.2,2.3c0.4,0.3,0.9,0.3,1.4,0.1
	c1.2-0.7,2.5-1.3,3.8-1.6c0.5-0.1,0.8-0.5,0.9-1l0.7-3.9c0-0.1,0.1-0.2,0.2-0.2h3.9c0.1,0,0.2,0.1,0.2,0.2l0.6,3.8
	c0.1,0.5,0.4,0.9,0.9,1c1.4,0.3,2.7,0.9,3.9,1.6c0.4,0.2,0.9,0.2,1.3-0.1l3.2-2.3c0,0,0.1,0,0.1,0c0,0,0.1,0,0.2,0.1l2.7,2.7
	c0.1,0.1,0.1,0.2,0,0.3l-2.3,3.2c-0.3,0.4-0.3,0.9-0.1,1.3c0.7,1.2,1.2,2.5,1.6,3.8c0.1,0.5,0.5,0.8,1,0.9l3.9,0.7
	c0.1,0,0.2,0.1,0.2,0.2L61.5,43.9L61.5,43.9z M62,44"/>
<g>
	<path class="st2" d="M53.5,41.9c0-1.8-0.5-3.5-1.2-5L46.9,40c0.2,0.5,0.3,1,0.3,1.5L53.5,41.9z"/>
	<path class="st2" d="M46.1,38.7l5.4-3.2c-1.9-2.9-5.1-4.8-8.8-5v6.3C44.1,37,45.3,37.7,46.1,38.7z"/>
	<path class="st2" d="M41.2,30.5c-1.9,0.1-3.6,0.7-5.1,1.6l3.6,5.1c0.5-0.2,1-0.4,1.6-0.5V30.5z"/>
	<path class="st2" d="M38.4,38.1L34.8,33c-1.4,1.1-2.5,2.5-3.3,4.2l5.8,2.3C37.7,38.9,38,38.5,38.4,38.1z"/>
	<path class="st2" d="M42,47.3c-2.9,0-5.3-2.4-5.3-5.3c0-0.4,0.1-0.8,0.1-1.2L31,38.6c-0.3,1.1-0.5,2.2-0.5,3.4
		c0,6.4,5.2,11.5,11.5,11.5c5.9,0,10.7-4.4,11.4-10.1l-6.2-0.4C46.7,45.5,44.6,47.3,42,47.3z"/>
</g>
</svg>
