<?xml version="1.0" encoding="utf-8"?>
<!-- Generator: Adobe Illustrator 16.2.0, SVG Export Plug-In . SVG Version: 6.00 Build 0)  -->
<!DOCTYPE svg PUBLIC "-//W3C//DTD SVG 1.1//EN" "http://www.w3.org/Graphics/SVG/1.1/DTD/svg11.dtd">
<svg version="1.1" id="Layer_1" xmlns:sketch="http://www.bohemiancoding.com/sketch/ns"
	 xmlns="http://www.w3.org/2000/svg" xmlns:xlink="http://www.w3.org/1999/xlink" x="0px" y="0px" width="84px" height="84px"
	 viewBox="0 0 84 84" enable-background="new 0 0 84 84" xml:space="preserve">
<g sketch:type="MSShapeGroup">
	<g id="path-1">
		<path fill="#EEEEEE" d="M41.007,81.741c-21.37,0-38.756-17.386-38.756-38.756v-1.988c0-21.37,17.386-38.756,38.756-38.756h1.988
			c21.37,0,38.756,17.386,38.756,38.756v1.988c0,21.37-17.386,38.756-38.756,38.756H41.007z"/>
		<path fill="#FFFFFF" d="M42.995,3.241c20.817,0,37.756,16.938,37.756,37.756v1.988c0,20.818-16.938,37.756-37.756,37.756h-1.988
			c-20.819,0-37.756-16.938-37.756-37.756v-1.988c0-20.819,16.938-37.756,37.756-37.756H42.995 M42.995,1.241h-1.988
			c-21.956,0-39.756,17.8-39.756,39.756v1.988c0,21.957,17.8,39.756,39.756,39.756h1.988c21.957,0,39.756-17.799,39.756-39.756
			v-1.988C82.751,19.041,64.952,1.241,42.995,1.241L42.995,1.241z"/>
	</g>
</g>
<g>
	<path id="path-1_1_" fill="none" stroke="#F2EDED" d="M41.007,1.25h1.988c21.957,0,39.756,17.8,39.756,39.756v1.988
		c0,21.957-17.799,39.756-39.756,39.756h-1.988c-21.956,0-39.756-17.799-39.756-39.756v-1.988C1.251,19.05,19.051,1.25,41.007,1.25z
		"/>
</g>
<g>
	<g>
		<path fill="#1F60AC" d="M25.146,27.688h12.902c0.678,0,1.228-0.549,1.228-1.228c0-0.677-0.549-1.227-1.228-1.227H25.146
			c-0.677,0-1.227,0.55-1.227,1.227C23.919,27.139,24.469,27.688,25.146,27.688L25.146,27.688z M25.146,27.688"/>
		<path fill="#1F60AC" d="M25.146,32.511h8.091c0.679,0,1.228-0.55,1.228-1.228c0-0.677-0.549-1.227-1.228-1.227h-8.091
			c-0.677,0-1.227,0.55-1.227,1.227C23.919,31.961,24.469,32.511,25.146,32.511L25.146,32.511z M25.146,32.511"/>
		<path fill="#1F60AC" d="M25.146,37.188h5.224c0.678,0,1.227-0.55,1.227-1.229c0-0.678-0.549-1.227-1.227-1.227h-5.224
			c-0.677,0-1.227,0.55-1.227,1.227C23.919,36.638,24.469,37.188,25.146,37.188L25.146,37.188z M25.146,37.188"/>
		<path fill="#1F60AC" d="M30.37,58.168h-5.224c-0.677,0-1.227,0.551-1.227,1.227c0,0.68,0.55,1.23,1.227,1.23h5.224
			c0.678,0,1.227-0.551,1.227-1.23C31.597,58.719,31.048,58.168,30.37,58.168L30.37,58.168z M30.37,58.168"/>
	</g>
	<path fill="#1F60AC" d="M39.586,60.749c-0.176-0.061-0.345-0.146-0.485-0.287L26.806,48.166c-0.004-0.004-0.004-0.01-0.008-0.014
		h12.789V60.749z"/>
	<path fill="#1F60AC" d="M27.555,46.088l20.104-20.104v19.553c0,0.294-0.255,0.551-0.551,0.551H27.555z"/>
	<path fill="#1F60AC" d="M41.572,60.087V48.234h5.004c0.819,0,1.592-0.319,2.171-0.898c0.578-0.58,0.898-1.353,0.898-2.172v-4.548
		h11.779L41.572,60.087z"/>
	<path fill="#1F60AC" d="M49.646,38.494V25.707c0.003,0.003,0.008,0.004,0.011,0.007L61.951,38.01
		c0.141,0.141,0.23,0.309,0.289,0.485L49.646,38.494z"/>
	<path fill="#1F60AC" d="M50.179,38.014"/>
</g>
</svg>
