<?xml version="1.0" encoding="utf-8"?>
<!-- Generator: Adobe Illustrator 19.1.1, SVG Export Plug-In . SVG Version: 6.00 Build 0)  -->
<svg version="1.1" id="Layer_1" xmlns:sketch="http://www.bohemiancoding.com/sketch/ns"
	 xmlns="http://www.w3.org/2000/svg" xmlns:xlink="http://www.w3.org/1999/xlink" x="0px" y="0px" viewBox="-57 59 84 84"
	 style="enable-background:new -57 59 84 84;" xml:space="preserve">
<style type="text/css">
	.st0{fill:#EEEEEE;}
	.st1{fill:#FFFFFF;}
	.st2{fill:none;stroke:#F2EDED;}
	.st3{fill:#005EB8;}
</style>
<g sketch:type="MSShapeGroup">
	<g id="path-1">
		<path class="st0" d="M-16,140.7c-21.4,0-38.8-17.4-38.8-38.8v-2c0-21.4,17.4-38.8,38.8-38.8h2c21.4,0,38.8,17.4,38.8,38.8v2
			c0,21.4-17.4,38.8-38.8,38.8H-16z"/>
		<path class="st1" d="M-14,62.2c20.8,0,37.8,16.9,37.8,37.8v2c0,20.8-16.9,37.8-37.8,37.8h-2c-20.8,0-37.8-16.9-37.8-37.8v-2
			c0-20.8,16.9-37.8,37.8-37.8L-14,62.2 M-14,60.2h-2c-22,0-39.8,17.8-39.8,39.8v2c0,22,17.8,39.8,39.8,39.8h2
			c22,0,39.8-17.8,39.8-39.8v-2C25.8,78,8,60.2-14,60.2L-14,60.2z"/>
	</g>
</g>
<g>
	<path id="path-1_1_" class="st2" d="M-16,60.2h2C8,60.2,25.8,78,25.8,100v2c0,22-17.8,39.8-39.8,39.8h-2c-22,0-39.8-17.8-39.8-39.8
		v-2C-55.7,78-37.9,60.2-16,60.2z"/>
</g>
<path class="st3" d="M-9.3,81.7h-15.5c-2.1,0-3.7,1.7-3.7,3.7V117c0,2.1,1.7,3.7,3.7,3.7h15.5c2.1,0,3.7-1.7,3.7-3.7V85.5
	C-5.5,83.4-7.2,81.7-9.3,81.7z M-20.9,84h7.8c0.3,0,0.5,0.2,0.5,0.5s-0.2,0.5-0.5,0.5h-7.8c-0.3,0-0.5-0.2-0.5-0.5
	C-21.4,84.2-21.2,84-20.9,84z M-17,119.1c-0.7,0-1.3-0.6-1.3-1.3c0-0.7,0.6-1.3,1.3-1.3c0.7,0,1.3,0.6,1.3,1.3
	C-15.7,118.5-16.3,119.1-17,119.1z M-7.3,115.2h-19.4V86.8h19.4C-7.3,86.8-7.3,115.2-7.3,115.2z"/>
<g>
	<path class="st3" d="M-11.7,105.4c-1.2,0-2.2-1-2.2-2.2V91.9c0-1.2,1-2.2,2.2-2.2H5.9c1.2,0,2.2,1,2.2,2.2v11.3
		c0,1.2-1,2.2-2.2,2.2H-11.7z"/>
	<path class="st0" d="M5.9,90.6c0.7,0,1.2,0.6,1.2,1.2v11.3c0,0.7-0.6,1.2-1.2,1.2h-17.6c-0.7,0-1.2-0.6-1.2-1.2V91.9
		c0-0.7,0.6-1.2,1.2-1.2H5.9 M5.9,88.6h-17.6c-1.8,0-3.2,1.5-3.2,3.2v11.3c0,1.8,1.5,3.2,3.2,3.2H5.9c1.8,0,3.2-1.5,3.2-3.2V91.9
		C9.1,90.1,7.7,88.6,5.9,88.6L5.9,88.6z"/>
</g>
<polyline class="st3" points="-12.1,100.1 -15.3,107.1 -7.6,103.6 "/>
</svg>
