<?xml version="1.0" encoding="utf-8"?>
<!-- Generator: Adobe Illustrator 16.2.0, SVG Export Plug-In . SVG Version: 6.00 Build 0)  -->
<!DOCTYPE svg PUBLIC "-//W3C//DTD SVG 1.1//EN" "http://www.w3.org/Graphics/SVG/1.1/DTD/svg11.dtd">
<svg version="1.1" id="Layer_1" xmlns:sketch="http://www.bohemiancoding.com/sketch/ns"
	 xmlns="http://www.w3.org/2000/svg" xmlns:xlink="http://www.w3.org/1999/xlink" x="0px" y="0px" width="84px" height="84px"
	 viewBox="0 0 84 84" enable-background="new 0 0 84 84" xml:space="preserve">
<g sketch:type="MSShapeGroup">
	<g id="path-1">
		<path fill="#EEEEEE" d="M41.007,81.75c-21.37,0-38.756-17.386-38.756-38.756v-1.988c0-21.37,17.386-38.756,38.756-38.756h1.988
			c21.37,0,38.756,17.386,38.756,38.756v1.988c0,21.37-17.386,38.756-38.756,38.756H41.007z"/>
		<path fill="#FFFFFF" d="M42.995,3.25c20.817,0,37.756,16.938,37.756,37.756v1.988c0,20.818-16.938,37.756-37.756,37.756h-1.988
			c-20.819,0-37.756-16.938-37.756-37.756v-1.988c0-20.819,16.938-37.756,37.756-37.756H42.995 M42.995,1.25h-1.988
			c-21.956,0-39.756,17.8-39.756,39.756v1.988c0,21.957,17.8,39.756,39.756,39.756h1.988c21.957,0,39.756-17.799,39.756-39.756
			v-1.988C82.751,19.05,64.952,1.25,42.995,1.25L42.995,1.25z"/>
	</g>
</g>
<g>
	<path id="path-1_1_" fill="none" stroke="#F2EDED" d="M41.007,1.25h1.988c21.957,0,39.756,17.8,39.756,39.756v1.988
		c0,21.957-17.799,39.756-39.756,39.756h-1.988c-21.956,0-39.756-17.799-39.756-39.756v-1.988C1.251,19.05,19.051,1.25,41.007,1.25z
		"/>
</g>
<g>
	<path fill="#005EB8" d="M48.887,48.519c0,0,0,0,0-0.988c0-4.052-3.309-7.358-7.362-7.358l0,0c-4.05,0-7.358,3.306-7.358,7.358
		v0.988C34.167,48.519,40.634,53.179,48.887,48.519z"/>
	<path fill="#005EB8" d="M45.543,34.912c0,2.161-1.754,3.982-3.985,3.982c-2.228,0-4.05-1.821-4.05-3.982
		c0-2.226,1.823-4.05,4.05-4.05C43.789,30.862,45.543,32.686,45.543,34.912L45.543,34.912z"/>
	<g>
		<g>
			
				<rect x="22.995" y="25.926" transform="matrix(0.7071 0.7071 -0.7071 0.7071 27.4839 -11.7001)" fill="#005EB8" width="9.74" height="2.8"/>
		</g>
		<g>
			<polygon fill="#005EB8" points="25.067,30.268 30.809,30.27 30.807,24.528 33.244,26.964 33.244,32.705 27.503,32.705 			"/>
		</g>
	</g>
	<g>
		<g>
			
				<rect x="54.737" y="22.456" transform="matrix(0.7068 0.7074 -0.7074 0.7068 35.7863 -31.6986)" fill="#005EB8" width="2.799" height="9.739"/>
		</g>
		<g>
			<polygon fill="#005EB8" points="53.195,24.528 53.194,30.269 58.936,30.267 56.499,32.705 50.759,32.705 50.759,26.964 			"/>
		</g>
	</g>
	<g>
		<g>
			
				<rect x="51.267" y="55.275" transform="matrix(0.7071 0.7072 -0.7072 0.7071 56.5225 -23.0951)" fill="#005EB8" width="9.74" height="2.799"/>
		</g>
		<g>
			<polygon fill="#005EB8" points="58.936,53.732 53.194,53.731 53.195,59.472 50.759,57.035 50.759,51.296 56.499,51.296 			"/>
		</g>
	</g>
	<g>
		<g>
			
				<rect x="26.465" y="51.804" transform="matrix(0.707 0.7072 -0.7072 0.707 48.2437 -3.1017)" fill="#005EB8" width="2.8" height="9.74"/>
		</g>
		<g>
			<polygon fill="#005EB8" points="30.807,59.472 30.809,53.731 25.067,53.732 27.503,51.296 33.244,51.296 33.244,57.035 			"/>
		</g>
	</g>
</g>
</svg>
