<?xml version="1.0" encoding="utf-8"?>
<!-- Generator: Adobe Illustrator 19.1.1, SVG Export Plug-In . SVG Version: 6.00 Build 0)  -->
<svg version="1.1" id="Layer_1" xmlns:sketch="http://www.bohemiancoding.com/sketch/ns"
	 xmlns="http://www.w3.org/2000/svg" xmlns:xlink="http://www.w3.org/1999/xlink" x="0px" y="0px" viewBox="-57 59 84 84"
	 style="enable-background:new -57 59 84 84;" xml:space="preserve">
<style type="text/css">
	.st0{fill:#EEEEEE;}
	.st1{fill:#FFFFFF;}
	.st2{fill:none;stroke:#F2EDED;}
	.st3{fill:#005EB8;}
	.st4{fill:none;stroke:#005EB8;stroke-width:2;stroke-miterlimit:10;}
</style>
<g sketch:type="MSShapeGroup">
	<g id="path-1">
		<path class="st0" d="M-16,140.7c-21.4,0-38.8-17.4-38.8-38.8v-2c0-21.4,17.4-38.8,38.8-38.8h2c21.4,0,38.8,17.4,38.8,38.8v2
			c0,21.4-17.4,38.8-38.8,38.8H-16z"/>
		<path class="st1" d="M-14,62.2c20.8,0,37.8,16.9,37.8,37.8v2c0,20.8-16.9,37.8-37.8,37.8h-2c-20.8,0-37.8-16.9-37.8-37.8v-2
			c0-20.8,16.9-37.8,37.8-37.8L-14,62.2 M-14,60.2h-2c-22,0-39.8,17.8-39.8,39.8v2c0,22,17.8,39.8,39.8,39.8h2
			c22,0,39.8-17.8,39.8-39.8v-2C25.8,78,8,60.2-14,60.2L-14,60.2z"/>
	</g>
</g>
<g>
	<path id="path-1_1_" class="st2" d="M-16,60.2h2C8,60.2,25.8,78,25.8,100v2c0,22-17.8,39.8-39.8,39.8h-2c-22,0-39.8-17.8-39.8-39.8
		v-2C-55.7,78-37.9,60.2-16,60.2z"/>
</g>
<g>
	<g>
		<path class="st3" d="M-8.7,94.4c0,1.4,1.2,2.6,2.6,2.6s2.6-1.2,2.6-2.6c0-1.4-1.2-2.6-2.6-2.6S-8.7,92.9-8.7,94.4L-8.7,94.4z"/>
		<path class="st3" d="M-3.5,97.8c0,0-0.7-0.2-0.7-0.2c-0.2-0.1-0.5,0-0.7,0.1l-1.3,1l-1.3-1c-0.2-0.1-0.5-0.2-0.7-0.1
			c0,0-0.7,0.2-0.7,0.2c-1,0.3-1.8,1.3-1.8,2.4v3.9c0,0.2,0,0.3,0.1,0.4l1.3,2v5.2c0,0.4,0.3,0.8,0.8,0.8H-4c0.4,0,0.8-0.3,0.8-0.8
			v-5.2l1.3-2c0.1-0.1,0.1-0.3,0.1-0.4v-3.9C-1.7,99.1-2.4,98.2-3.5,97.8L-3.5,97.8z"/>
	</g>
	<g>
		<path class="st3" d="M-26.4,94.4c0,1.4,1.2,2.6,2.6,2.6s2.6-1.2,2.6-2.6c0-1.4-1.2-2.6-2.6-2.6S-26.4,92.9-26.4,94.4L-26.4,94.4z"
			/>
		<path class="st3" d="M-21.2,97.8c0,0-0.7-0.2-0.7-0.2c-0.2-0.1-0.5,0-0.7,0.1l-1.3,1l-1.3-1c-0.2-0.1-0.5-0.2-0.7-0.1
			c0,0-0.7,0.2-0.7,0.2c-1,0.3-1.8,1.3-1.8,2.4v3.9c0,0.2,0,0.3,0.1,0.4l1.3,2v5.2c0,0.4,0.3,0.8,0.8,0.8h4.4c0.4,0,0.8-0.3,0.8-0.8
			v-5.2l1.3-2c0.1-0.1,0.1-0.3,0.1-0.4v-3.9C-19.5,99.1-20.2,98.2-21.2,97.8L-21.2,97.8z"/>
	</g>
	<g>
		<g>
			<path class="st3" d="M-15,95c-1.9,0-3.5-1.6-3.5-3.5S-16.9,88-15,88s3.5,1.6,3.5,3.5S-13,95-15,95z"/>
			<path class="st0" d="M-15,88.5c1.7,0,3,1.4,3,3s-1.4,3-3,3s-3-1.4-3-3C-18,89.8-16.7,88.5-15,88.5 M-15,87.5c-2.2,0-4,1.8-4,4
				c0,2.2,1.8,4,4,4c2.2,0,4-1.8,4-4C-10.9,89.3-12.8,87.5-15,87.5L-15,87.5z"/>
		</g>
		<g>
			<path class="st3" d="M-17.5,113.4c-0.8,0-1.4-0.6-1.4-1.4v-6l-1.5-2.2c-0.2-0.2-0.2-0.5-0.2-0.8v-4.6c0-1.5,1-2.9,2.4-3.3
				l0.8-0.2c0.1,0,0.3-0.1,0.4-0.1c0.3,0,0.6,0.1,0.8,0.3L-15,96l1.2-0.9c0.2-0.2,0.5-0.3,0.8-0.3c0.1,0,0.3,0,0.4,0.1
				c0,0,0.8,0.2,0.8,0.2c1.4,0.5,2.4,1.8,2.4,3.3v4.6c0,0.3-0.1,0.5-0.2,0.8L-11,106v6c0,0.8-0.6,1.4-1.4,1.4H-17.5z"/>
			<path class="st0" d="M-17,95.3c0.2,0,0.4,0.1,0.5,0.2l1.5,1.1l1.5-1.1c0.2-0.1,0.3-0.2,0.5-0.2c0.1,0,0.2,0,0.3,0
				c0,0,0.8,0.2,0.8,0.2c1.2,0.4,2.1,1.6,2.1,2.9v4.6c0,0.2-0.1,0.4-0.1,0.5l-1.5,2.3v6.2c0,0.5-0.4,0.9-0.9,0.9h-5.1
				c-0.5,0-0.9-0.4-0.9-0.9v-6.2l-1.5-2.3c-0.1-0.1-0.1-0.3-0.1-0.5v-4.6c0-1.3,0.8-2.4,2.1-2.9c0,0,0.8-0.2,0.8-0.2
				C-17.2,95.3-17.1,95.3-17,95.3 M-17,94.3c-0.2,0-0.4,0-0.6,0.1c0,0-0.8,0.2-0.8,0.2c-1.6,0.5-2.7,2.1-2.7,3.8v4.6
				c0,0.4,0.1,0.7,0.3,1l1.4,2.1v5.9c0,1.1,0.9,1.9,1.9,1.9h5.1c1.1,0,1.9-0.9,1.9-1.9v-5.9l1.4-2.1c0.2-0.3,0.3-0.7,0.3-1v-4.6
				c0-1.7-1.1-3.3-2.7-3.8c0,0-0.8-0.2-0.8-0.2c-0.2-0.1-0.4-0.1-0.6-0.1c-0.4,0-0.8,0.1-1.1,0.4l-0.9,0.7l-0.9-0.7
				C-16.2,94.4-16.6,94.3-17,94.3L-17,94.3z"/>
		</g>
	</g>
</g>
<g>
	<line class="st4" x1="-15" y1="77" x2="-15" y2="85.1"/>
	<line class="st4" x1="-15" y1="116.9" x2="-15" y2="125"/>
	<line class="st4" x1="-30.9" y1="100.9" x2="-39" y2="100.9"/>
	<line class="st4" x1="9" y1="101" x2="0.9" y2="101"/>
</g>
<circle class="st4" cx="-15" cy="101" r="19.6"/>
</svg>
