<svg xmlns="http://www.w3.org/2000/svg" viewBox="0 0 268.73 73.8"><defs><style>.cls-1{fill:#262f3e;}.cls-2{fill:#f7971d;}</style></defs><title>AWS Partner Network</title><g id="Layer_2" data-name="Layer 2"><g id="Layer_1-2" data-name="Layer 1"><path class="cls-1" d="M92.73,36.3a26.82,26.82,0,0,0,4.7,1.7,27,27,0,0,0,6.3.7,22.14,22.14,0,0,0,5.9-.8,13.26,13.26,0,0,0,4.6-2.3,9.83,9.83,0,0,0,3-3.7,10.58,10.58,0,0,0,1-4.8,8.72,8.72,0,0,0-1.9-5.7c-1.3-1.7-3.3-3-6.4-4L104,15.5a11.5,11.5,0,0,1-4.5-2.3,4.11,4.11,0,0,1-1.3-2.9,3.86,3.86,0,0,1,2-3.7,11.45,11.45,0,0,1,5.4-1.1,18.6,18.6,0,0,1,7.9,1.6,5.39,5.39,0,0,0,1.6.5c.6,0,.9-.4.9-1.3v-2a3.19,3.19,0,0,0-.3-1.4,3.85,3.85,0,0,0-1.3-1,9.76,9.76,0,0,0-1.7-.7c-.7-.2-1.5-.4-2.3-.6a20.24,20.24,0,0,0-2.6-.4,26.45,26.45,0,0,0-2.7-.2,16.56,16.56,0,0,0-5.1.7,12.33,12.33,0,0,0-4.3,2.1,10,10,0,0,0-2.9,3.3,9.77,9.77,0,0,0-1.1,4.6,9.54,9.54,0,0,0,2.1,6,13.49,13.49,0,0,0,6.6,4.2l6,1.9a10.82,10.82,0,0,1,4.2,2.2,4,4,0,0,1,1.1,2.9,4.47,4.47,0,0,1-2.1,3.9,11.08,11.08,0,0,1-6,1.4,27.15,27.15,0,0,1-4.9-.5,15.89,15.89,0,0,1-4.5-1.5,6.89,6.89,0,0,0-1-.4,2,2,0,0,0-.7-.1c-.6,0-.9.4-.9,1.3v2.1a4.25,4.25,0,0,0,.2,1.1c-.3.3.1.7.9,1.1"/><path class="cls-1" d="M23.33,16.3a32.53,32.53,0,0,0-4.4-.3c-4.2,0-7.5,1-10,3.2a10.52,10.52,0,0,0-3.8,8.5,10.48,10.48,0,0,0,3,7.9c2,2,4.7,2.9,8.2,2.9a15.12,15.12,0,0,0,12-5.6,13.57,13.57,0,0,0,1.3,2.4,7,7,0,0,0,1.5,1.9,1.76,1.76,0,0,0,1.3.6,1.93,1.93,0,0,0,1-.3l2.7-1.9a1.7,1.7,0,0,0,.8-1.3,1.61,1.61,0,0,0-.3-.9,25.28,25.28,0,0,1-1.4-2.9,9.68,9.68,0,0,1-.4-3.7V13.4c0-4.5-1.1-7.8-3.4-10.1S25.53,0,20.63,0a22,22,0,0,0-6.4.8,18.78,18.78,0,0,0-5.1,1.9A2.58,2.58,0,0,0,8,3.5,2.58,2.58,0,0,0,7.73,5V7c0,.8.3,1.3.8,1.3a1.76,1.76,0,0,0,.6-.1c.3-.1.7-.2,1.5-.5A37.32,37.32,0,0,1,15,6.3a22.84,22.84,0,0,1,4.4-.5c3.1,0,5.4.6,6.7,1.9s2,3.4,2,6.6v3c-1.8-.5-3.4-.7-4.8-1M28,23.5a12.77,12.77,0,0,1-.4,3.6,6.59,6.59,0,0,1-1.4,2.6,8.42,8.42,0,0,1-3.9,2.6A13.33,13.33,0,0,1,18,33a5.77,5.77,0,0,1-4.3-1.5,5.71,5.71,0,0,1-1.5-4.4c0-2.1.6-3.7,2-4.7a9.44,9.44,0,0,1,6.1-1.7c1.3,0,2.5.1,3.9.2s2.6.4,3.8.6Z"/><path class="cls-1" d="M48.63,35.5a2.93,2.93,0,0,0,.8,1.6,2.2,2.2,0,0,0,1.6.4h3.6a2.67,2.67,0,0,0,1.7-.4,3.34,3.34,0,0,0,.8-1.7L63.43,9l6.4,26.4a3,3,0,0,0,.8,1.7c.3.3.8.4,1.7.4h3.6a2.36,2.36,0,0,0,1.6-.4,2.93,2.93,0,0,0,.8-1.6l9.9-31.8c.1-.4.2-.7.3-1s.1-.4.1-.6a.9.9,0,0,0-1-1h-3.9a2.36,2.36,0,0,0-1.6.4,3.37,3.37,0,0,0-.8,1.6l-7.1,27.5L67.73,3.1c-.2-.8-.4-1.4-.8-1.6a3,3,0,0,0-1.7-.4h-3.3a2.67,2.67,0,0,0-1.7.4,3.37,3.37,0,0,0-.8,1.6L53,30.3,46.13,3.1a2.93,2.93,0,0,0-.8-1.6,2.83,2.83,0,0,0-1.6-.4h-4a.9.9,0,0,0-1,1A10,10,0,0,0,39,3.8Z"/><path class="cls-2" d="M109.53,55.4a122.1,122.1,0,0,1-46.6,9.5,122.49,122.49,0,0,1-61-16.2c-1.6-.8-2.6.6-1.4,1.8a90.62,90.62,0,0,0,61,23.3c16.8,0,36.5-5.3,50-15.3,2.2-1.5.3-4-2-3.1"/><path class="cls-2" d="M100.93,49.9c-1.1.8-.9,2,.3,1.9,4.4-.5,14-1.7,15.8.5s-1.9,11.3-3.6,15.4c-.5,1.3.5,1.8,1.7.8,7.2-6.1,9.1-18.7,7.6-20.6-1.3-1.9-14-3.5-21.8,2"/><path class="cls-1" d="M155.33,29.1a.47.47,0,0,1-.5-.5V6.4a.47.47,0,0,1,.5-.5h.6a.47.47,0,0,1,.5.5l.1,1.4a13.52,13.52,0,0,1,2.9-1.8,7.1,7.1,0,0,1,2.9-.5,5.86,5.86,0,0,1,5,2.3c1.3,1.6,1.8,3.6,1.8,6.3a9.77,9.77,0,0,1-1.9,6.4,6.32,6.32,0,0,1-5.2,2.4,7.48,7.48,0,0,1-5.4-2.2v8a.47.47,0,0,1-.5.5h-.8v-.1ZM162,21a5,5,0,0,0,4.1-1.8c1-1.2,1.4-2.9,1.4-5.2,0-4.6-1.8-6.9-5.2-6.9a8.57,8.57,0,0,0-5.4,2.1v9.5a11.48,11.48,0,0,0,2.6,1.7,4.63,4.63,0,0,0,2.5.6"/><path class="cls-1" d="M177.33,22.7a4.63,4.63,0,0,1-5-4.7,4.56,4.56,0,0,1,1.7-3.8,6.63,6.63,0,0,1,4.4-1.4,16.24,16.24,0,0,1,4.7.7V10.8a3.47,3.47,0,0,0-.9-2.8,5,5,0,0,0-3.1-.8,18.45,18.45,0,0,0-4.8.8.9.9,0,0,1-.5.1c-.2,0-.3-.1-.3-.4V7.2c0-.2,0-.3.1-.4s.2-.2.3-.2a16.64,16.64,0,0,1,5.4-1,6.32,6.32,0,0,1,4.3,1.3,4.67,4.67,0,0,1,1.4,3.7V22.2a.47.47,0,0,1-.5.5h-.8a.47.47,0,0,1-.5-.5l-.1-1.4a10.05,10.05,0,0,1-5.8,1.9m.3-1.7a9.72,9.72,0,0,0,2.7-.5,11.5,11.5,0,0,0,2.9-1.5V14.9a16.49,16.49,0,0,0-4.3-.6c-3,0-4.6,1.1-4.6,3.6a3.2,3.2,0,0,0,.8,2.3,4.15,4.15,0,0,0,2.5.8"/><path class="cls-1" d="M190.63,22.4a.47.47,0,0,1-.5-.5V6.4a.47.47,0,0,1,.5-.5h.6a.47.47,0,0,1,.5.5l.2,1.9a10.13,10.13,0,0,1,2.4-2,5.92,5.92,0,0,1,2.7-.5h.8a.47.47,0,0,1,.5.5v.8c0,.1,0,.2-.1.2s-.1.1-.2.1h-1.2a6.69,6.69,0,0,0-2.6.5A6,6,0,0,0,192,9.7v12a.47.47,0,0,1-.5.5h-.9v.2Z"/><path class="cls-1" d="M207,22.6a3.66,3.66,0,0,1-2.9-1,4.5,4.5,0,0,1-1-3V7.6h-2.6a.47.47,0,0,1-.5-.5V6.7c0-.2,0-.3.1-.4s.2-.1.4-.2l2.6-.2.2-4.3c0-.2.1-.3.1-.4a.37.37,0,0,1,.3-.1h.6a.47.47,0,0,1,.5.5V5.9h4.7a.47.47,0,0,1,.5.5V7a.47.47,0,0,1-.5.5h-4.7V18.4a3.09,3.09,0,0,0,.5,1.9,2.55,2.55,0,0,0,1.9.5,9.85,9.85,0,0,0,1.7-.2,4.33,4.33,0,0,0,.5-.1c.1,0,.2-.1.3-.1s.3.1.3.4v.5c0,.4-.1.6-.3.7a4.91,4.91,0,0,1-2.7.6"/><path class="cls-1" d="M214.23,22.4a.47.47,0,0,1-.5-.5V6.4a.47.47,0,0,1,.5-.5h.6a.47.47,0,0,1,.5.5l.1,1.4a15.19,15.19,0,0,1,3.3-1.8,10.16,10.16,0,0,1,3.4-.6,4.92,4.92,0,0,1,3.7,1.3,5.18,5.18,0,0,1,1.3,3.7V21.7a.47.47,0,0,1-.5.5h-.8a.47.47,0,0,1-.5-.5V11.1a5,5,0,0,0-.8-3.1,3.42,3.42,0,0,0-2.6-.9,11.35,11.35,0,0,0-6.4,2.1V21.8a.47.47,0,0,1-.5.5C215,22.4,214.23,22.4,214.23,22.4Z"/><path class="cls-1" d="M239.23,22.8a7.55,7.55,0,0,1-5.9-2.2c-1.3-1.5-2-3.7-2-6.6,0-2.7.6-4.9,2-6.4a7,7,0,0,1,5.5-2.3,6,6,0,0,1,4.6,1.7,7,7,0,0,1,1.6,4.9,10.93,10.93,0,0,1-.1,2c-.1.3-.2.5-.5.5h-11.1c0,2.3.5,4,1.5,5a6,6,0,0,0,4.5,1.7,13.75,13.75,0,0,0,4.5-.8,3.93,3.93,0,0,1,.6-.2c.1,0,.2,0,.2.1a.37.37,0,0,1,.1.3V21a.78.78,0,0,1-.3.7,11,11,0,0,1-5.2,1.1m4.1-9.8V12a5.52,5.52,0,0,0-1.1-3.6,4.36,4.36,0,0,0-3.3-1.3c-3.4,0-5.2,2-5.4,5.9Z"/><path class="cls-1" d="M249.73,22.4a.47.47,0,0,1-.5-.5V6.4a.47.47,0,0,1,.5-.5h.6a.47.47,0,0,1,.5.5l.2,1.9a10.13,10.13,0,0,1,2.4-2,5.92,5.92,0,0,1,2.7-.5h.8a.47.47,0,0,1,.5.5v.8c0,.1,0,.2-.1.2s-.1.1-.2.1h-1.2a6.69,6.69,0,0,0-2.6.5,6,6,0,0,0-2.2,1.8v12a.47.47,0,0,1-.5.5h-.9Z"/><path class="cls-1" d="M155.33,58.6a.47.47,0,0,1-.5-.5V42.7a.47.47,0,0,1,.5-.5h.6a.47.47,0,0,1,.5.5l.1,1.4a15.19,15.19,0,0,1,3.3-1.8,10.16,10.16,0,0,1,3.4-.6,4.92,4.92,0,0,1,3.7,1.3,5.18,5.18,0,0,1,1.3,3.7V58.2a.47.47,0,0,1-.5.5h-.8a.47.47,0,0,1-.5-.5V47.6a5,5,0,0,0-.8-3.1,3.27,3.27,0,0,0-2.6-.9,11.35,11.35,0,0,0-6.4,2.1V58.3a.47.47,0,0,1-.5.5h-.8Z"/><path class="cls-1" d="M180.33,59.1a7.55,7.55,0,0,1-5.9-2.2c-1.3-1.5-2-3.7-2-6.6,0-2.7.6-4.9,2-6.4a7,7,0,0,1,5.5-2.3,6,6,0,0,1,4.6,1.7,7,7,0,0,1,1.6,4.9,10.93,10.93,0,0,1-.1,2c-.1.3-.2.5-.5.5h-11.1c0,2.3.5,4,1.5,5a6.18,6.18,0,0,0,4.5,1.7,13.75,13.75,0,0,0,4.5-.8,3.93,3.93,0,0,1,.6-.2c.1,0,.2,0,.2.1a.37.37,0,0,1,.1.3v.5a.78.78,0,0,1-.3.7,11.58,11.58,0,0,1-5.2,1.1m4-9.9v-1a5.52,5.52,0,0,0-1.1-3.6,4.36,4.36,0,0,0-3.3-1.3c-3.4,0-5.2,2-5.4,5.9Z"/><path class="cls-1" d="M195.33,58.8a3.66,3.66,0,0,1-2.9-1,4.5,4.5,0,0,1-1-3V43.9h-2.7a.47.47,0,0,1-.5-.5v-.3c0-.2,0-.3.1-.4s.2-.1.4-.2l2.6-.2.2-4.3c0-.2.1-.3.1-.4a.37.37,0,0,1,.3-.1h.6a.47.47,0,0,1,.5.5v4.3h4.7a.47.47,0,0,1,.5.5v.6a.47.47,0,0,1-.5.5H193V54.7a3.09,3.09,0,0,0,.5,1.9,2.55,2.55,0,0,0,1.9.5,9.85,9.85,0,0,0,1.7-.2,4.33,4.33,0,0,0,.5-.1c.1,0,.2-.1.3-.1s.3.1.3.4v.5c0,.4-.1.6-.3.7a5.39,5.39,0,0,1-2.6.5"/><path class="cls-1" d="M206,58.6a.55.55,0,0,1-.6-.4l-5.2-15.3a1.09,1.09,0,0,1-.1-.5c0-.2.1-.3.4-.3h1c.3,0,.4.1.5.4l4.5,13.8,4-13.8a.55.55,0,0,1,.6-.4h1.3a.55.55,0,0,1,.6.4l3.9,13.9,4.6-13.9a.51.51,0,0,1,.5-.4h.9c.2,0,.4.1.4.3a1.34,1.34,0,0,1-.1.5l-5.3,15.2a.55.55,0,0,1-.6.4h-1a.55.55,0,0,1-.6-.4l-4-13.9-3.9,13.9a.55.55,0,0,1-.6.4H206v.1Z"/><path class="cls-1" d="M233.13,59.1c-2.4,0-4.3-.7-5.5-2.3a9.27,9.27,0,0,1-2-6.4c0-2.7.6-4.9,2-6.4a6.83,6.83,0,0,1,5.5-2.3c2.4,0,4.3.7,5.5,2.3a9.27,9.27,0,0,1,2,6.4c0,2.7-.6,4.9-2,6.4a7,7,0,0,1-5.5,2.3m0-1.7c3.8,0,5.6-2.3,5.6-7s-1.9-7-5.6-7-5.6,2.3-5.6,7,1.8,7,5.6,7"/><path class="cls-1" d="M245.33,58.6a.47.47,0,0,1-.5-.5V42.7a.47.47,0,0,1,.5-.5h.6a.47.47,0,0,1,.5.5l.2,1.9a10.13,10.13,0,0,1,2.4-2,5.92,5.92,0,0,1,2.7-.5h.8a.47.47,0,0,1,.5.5v.8c0,.1,0,.2-.1.2s-.1.1-.2.1h-1.2a6.69,6.69,0,0,0-2.6.5,6,6,0,0,0-2.2,1.8V58a.47.47,0,0,1-.5.5h-.9v.1Z"/><path class="cls-1" d="M256.63,58.6a.47.47,0,0,1-.5-.5V34.9a.47.47,0,0,1,.5-.5h.8a.47.47,0,0,1,.5.5V49.4l7.8-7a1.14,1.14,0,0,1,.8-.3h1.1c.2,0,.4.1.4.3a.91.91,0,0,1-.3.5l-7.9,7,8.6,7.9c.2.2.3.3.3.4s-.1.3-.4.3h-1.4a.91.91,0,0,1-.7-.3l-8.3-7.7V58a.47.47,0,0,1-.5.5h-.8Z"/></g></g></svg>