<?xml version="1.0" encoding="utf-8"?>
<!-- Generator: Adobe Illustrator 22.0.1, SVG Export Plug-In . SVG Version: 6.00 Build 0)  -->
<svg version="1.1" id="Layer_1" xmlns="http://www.w3.org/2000/svg" xmlns:xlink="http://www.w3.org/1999/xlink" x="0px" y="0px"
	 viewBox="0 0 150 50" style="enable-background:new 0 0 150 50;" xml:space="preserve">
<style type="text/css">
	.st0{fill:#E30613;}
	.st1{fill:#1D1D1B;}
	.st2{fill:#2A4E85;}
	.st3{font-family:'ArialMT';}
	.st4{font-size:19.6462px;}
</style>
<g>
	<path class="st0" d="M13.2,40.1c-8,0-11.9-3.9-11.9-11.5V12c0-7.7,4-11.5,11.9-11.5h7.7c8,0,11.9,3.9,11.9,11.5v0.5h-8.6V12
		c0-5-2.5-5-3.4-5h-7.7c-0.8,0-3.4,0-3.4,5v16.6c0,5,2.5,5,3.4,5h7.7c0.8,0,3.4,0,3.4-5V28h8.6v0.5c0,7.7-4,11.5-11.9,11.5
		C20.9,40.1,13.2,40.1,13.2,40.1z"/>
	<path class="st0" d="M20.9,1c7.7,0,11.4,3.7,11.4,11h-7.7c0-3.7-1.3-5.6-3.8-5.6h-7.7c-2.5,0-3.8,1.9-3.8,5.6v16.6
		c0,3.7,1.3,5.6,3.8,5.6h7.7c2.5,0,3.8-1.9,3.8-5.6h7.7c0,7.3-3.8,11-11.4,11h-7.7c-7.7,0-11.4-3.7-11.4-11V12c0-7.3,3.8-11,11.4-11
		L20.9,1 M20.9,0.1h-7.7c-4.1,0-7.2,1-9.2,3c-2.1,2-3.1,5-3.1,9v16.6c0,4,1,6.9,3.1,9c2.1,2,5.2,3,9.2,3h7.7c4.1,0,7.2-1,9.2-3
		c2.1-2,3.1-5,3.1-9v-0.9h-0.9h-7.7h-0.9v0.9c0,4.5-2,4.5-2.8,4.5h-7.7c-0.8,0-2.8,0-2.8-4.5V12c0-4.5,2-4.5,2.8-4.5h7.7
		c0.7,0,2.8,0,2.8,4.5v0.9h0.9h7.7h0.9V12c0-4-1-6.9-3.1-9C28.1,1,25,0.1,20.9,0.1"/>
	<rect x="37.3" y="0.5" class="st0" width="8.6" height="39.6"/>
	<path class="st0" d="M45.3,39.6h-7.7V1h7.7V39.6z M46.4,0.1h-0.9h-7.7h-0.9V1v38.7v0.9h0.9h7.7h0.9v-0.9V1V0.1z"/>
	<path class="st0" d="M62.5,40.1c-8,0-11.9-3.9-11.9-11.5V12c0-7.7,4-11.5,11.9-11.5h7.7c8,0,11.9,3.9,11.9,11.5v16.6
		c0,7.7-4,11.5-11.9,11.5C70.2,40.1,62.5,40.1,62.5,40.1z M62.5,7c-0.8,0-3.4,0-3.4,5v16.6c0,5,2.5,5,3.4,5h7.7c0.8,0,3.4,0,3.4-5
		V12c0-5-2.5-5-3.4-5H62.5z"/>
	<path class="st0" d="M70.1,1c7.7,0,11.4,3.7,11.4,11v16.6c0,7.3-3.8,11-11.4,11h-7.7c-7.7,0-11.4-3.7-11.4-11V12
		c0-7.3,3.8-11,11.4-11L70.1,1 M62.5,34.1h7.7c2.5,0,3.8-1.9,3.8-5.6V12c0-3.7-1.3-5.6-3.8-5.6h-7.7c-2.5,0-3.8,1.9-3.8,5.6v16.6
		C58.6,32.2,59.9,34.1,62.5,34.1 M70.1,0.1h-7.7c-4.1,0-7.2,1-9.2,3c-2.1,2-3.1,5-3.1,9v16.6c0,4,1,6.9,3.1,9c2.1,2,5.2,3,9.2,3h7.7
		c4.1,0,7.2-1,9.2-3c2.1-2,3.1-5,3.1-9V12c0-4-1-6.9-3.1-9C77.3,1,74.1,0.1,70.1,0.1 M62.5,33.1c-0.8,0-2.8,0-2.8-4.5V12
		c0-4.5,2-4.5,2.8-4.5h7.7c0.8,0,2.8,0,2.8,4.5v16.6c0,4.5-2,4.5-2.8,4.5C70.2,33.1,62.5,33.1,62.5,33.1z"/>
	<path class="st1" d="M6.2,42.9h0.6h0.6l2.9,6.4H10H9.5L8.8,48H5l-0.6,1.4H3.8H3.3L6.2,42.9z M5.3,47.3h3.2L7,43.7l0,0L5.3,47.3z"/>
	<path class="st1" d="M10.9,49.6H9.3l-0.6-1.4H5.2l-0.6,1.4H2.9l3.2-7.1h1.8L10.9,49.6z M9.7,49H10l-2.6-5.7l-0.1,0.3l1.8,4H4.8
		l1.8-4l-0.1-0.3l-2.6,5.8h0.3l0.6-1.5h4.3L9.7,49z M5.8,46.9h2.3L7,44.4L5.8,46.9z M6.4,43.2h0.9v-0.1L6.4,43.2L6.4,43.2z"/>
	<path class="st1" d="M11.4,42.9h0.5h2.7c1.2,0,1.9,0.1,2.2,0.3c0.4,0.2,0.5,0.7,0.5,1.4v0.5c0,0.6-0.2,1.2-0.6,1.4
		c-0.4,0.2-1.2,0.4-2.2,0.4h-2.2v2.4h-0.5h-0.5v-6.4H11.4z M12.3,46.2h2c0.8,0,1.4-0.1,1.7-0.2c0.2-0.1,0.4-0.4,0.4-0.8v-0.5
		c0-0.4-0.1-0.7-0.4-0.8c-0.2-0.1-0.8-0.2-1.7-0.2h-2V46.2z"/>
	<path class="st1" d="M12.6,49.6H11v-7.1h3.6c1.2,0,2,0.1,2.4,0.4c0.5,0.3,0.7,0.8,0.7,1.7v0.5c0,0.7-0.3,1.4-0.7,1.7
		c-0.4,0.3-1.3,0.4-2.4,0.4h-1.9v2.4H12.6z M11.7,49H12v-2.4h2.5c1.3,0,1.8-0.2,2-0.3c0.3-0.2,0.4-0.5,0.4-1v-0.5
		c0-0.5-0.1-0.9-0.4-1.2c-0.2-0.1-0.7-0.3-2.1-0.3h-2.9V49H11.7z M14.4,46.5h-2.3v-3.2h2.3c1.2,0,1.6,0.1,1.8,0.2
		c0.2,0.1,0.5,0.4,0.5,1.2v0.5c0,0.7-0.3,1-0.5,1.2C15.9,46.5,15.2,46.5,14.4,46.5 M12.6,45.9h1.7c1,0,1.4-0.1,1.5-0.2
		c0.1-0.1,0.2-0.2,0.2-0.5v-0.5c0-0.3-0.1-0.5-0.2-0.5c-0.1-0.1-0.4-0.2-1.5-0.2h-1.7V45.9z"/>
	<path class="st1" d="M18.4,42.9h0.5h2.7c1.2,0,1.9,0.1,2.2,0.3c0.4,0.2,0.6,0.7,0.6,1.4v0.5c0,0.6-0.2,1.2-0.6,1.4
		c-0.4,0.2-1.2,0.4-2.2,0.4h-2.2v2.4h-0.5h-0.5V42.9z M19.4,46.2h2c0.8,0,1.4-0.1,1.7-0.2c0.2-0.1,0.4-0.4,0.4-0.8v-0.5
		c0-0.4-0.1-0.7-0.4-0.8c-0.2-0.1-0.8-0.2-1.7-0.2h-2V46.2z"/>
	<path class="st1" d="M19.7,49.6h-1.7v-7.1h3.6c1.2,0,2,0.1,2.4,0.4c0.5,0.3,0.7,0.8,0.7,1.7v0.5c0,0.7-0.3,1.4-0.7,1.7
		c-0.4,0.3-1.3,0.4-2.4,0.4h-1.9V49.6z M18.7,49H19v-2.4h2.5c1.3,0,1.8-0.2,2-0.3c0.3-0.2,0.4-0.5,0.4-1v-0.5c0-0.5-0.1-0.9-0.4-1.2
		c-0.2-0.1-0.7-0.3-2.1-0.3h-2.9V49H18.7z M21.4,46.5h-2.3v-3.2h2.3c1.2,0,1.6,0.1,1.8,0.2s0.5,0.4,0.5,1.2v0.5c0,0.7-0.3,1-0.5,1.2
		C22.9,46.5,22.4,46.5,21.4,46.5 M19.7,45.9h1.7c1,0,1.4-0.1,1.5-0.2s0.2-0.2,0.2-0.5v-0.5c0-0.3-0.1-0.5-0.2-0.5
		c-0.1-0.1-0.4-0.2-1.5-0.2h-1.7V45.9z"/>
	<polygon class="st1" points="25.4,49.3 25.4,42.9 25.9,42.9 26.5,42.9 26.5,48.6 30.4,48.6 30.4,49 30.4,49.3 	"/>
	<path class="st1" d="M30.8,49.6h-5.7v-7.1h1.7v5.8h4V49.6z M25.8,49h4.3l0,0h-4v-5.8h-0.3C25.8,43.2,25.8,49,25.8,49z"/>
	<polygon class="st1" points="31.3,42.9 31.7,42.9 32.2,42.9 32.2,49.3 31.7,49.3 31.3,49.3 	"/>
	<path class="st1" d="M32.5,49.6H31v-7.1h1.7v7.1H32.5z M31.6,49h0.3v-5.8h-0.3V49z"/>
	<path class="st1" d="M39.9,47.1c0,0.9-0.2,1.6-0.6,1.8c-0.4,0.3-1.3,0.4-2.6,0.4s-2.2-0.2-2.6-0.5c-0.4-0.3-0.6-1.2-0.6-2.3v-0.8
		c0-1.2,0.2-2,0.6-2.3c0.4-0.3,1.3-0.5,2.6-0.5c1.3,0,2.2,0.1,2.6,0.4s0.6,0.8,0.6,1.8l0,0h-0.9c0-0.6-0.1-1-0.4-1.2
		c-0.3-0.2-0.8-0.3-1.7-0.3c-1,0-1.7,0.1-1.9,0.4c-0.3,0.2-0.4,0.8-0.4,1.8v0.8c0,0.9,0.1,1.6,0.4,1.8c0.3,0.2,0.9,0.4,1.9,0.4
		c0.8,0,1.5-0.1,1.7-0.3c0.3-0.2,0.4-0.6,0.4-1.3h0.9V47.1z"/>
	<path class="st1" d="M36.6,49.7c-1.4,0-2.3-0.2-2.8-0.6s-0.7-1.3-0.7-2.5v-0.8c0-1.3,0.2-2.1,0.7-2.5c0.4-0.4,1.4-0.6,2.8-0.6
		c1.4,0,2.3,0.1,2.7,0.5c0.5,0.3,0.7,1,0.7,2v0.3h-0.3h-1.4v-0.3c0-0.5-0.1-0.8-0.3-0.9C38,44.1,37.6,44,36.5,44
		c-1.3,0-1.6,0.2-1.7,0.3c-0.1,0.1-0.3,0.4-0.3,1.6v0.8c0,1.2,0.2,1.5,0.3,1.6s0.4,0.3,1.7,0.3c1,0,1.4-0.1,1.6-0.2
		c0.2-0.1,0.3-0.5,0.3-0.9v-0.3h1.7v0.3c0,1-0.2,1.8-0.7,2.1C38.9,49.5,38.1,49.7,36.6,49.7 M36.6,43.1c-1.6,0-2.1,0.2-2.4,0.4
		c-0.2,0.2-0.5,0.7-0.5,2.1v0.8c0,1.4,0.3,1.9,0.5,2.1s0.8,0.4,2.4,0.4s2.2-0.2,2.4-0.4c0.3-0.2,0.4-0.6,0.4-1.3h-0.3
		c0,0.6-0.2,0.9-0.5,1.2c-0.3,0.2-0.9,0.3-1.9,0.3c-1.2,0-1.8-0.1-2.1-0.4c-0.3-0.3-0.5-0.9-0.5-2v-0.8c0-1,0.2-1.7,0.5-2
		C34.9,43.3,35.6,43.2,36.6,43.1c1,0,1.7,0.2,2,0.4c0.3,0.2,0.5,0.6,0.5,1.2h0.3c0-0.6-0.2-0.9-0.4-1.2
		C38.8,43.3,38.2,43.1,36.6,43.1"/>
	<path class="st1" d="M43.4,42.9h0.6h0.6l2.9,6.4h-0.5h-0.5L46,48h-3.9l-0.6,1.4h-0.5h-0.5L43.4,42.9z M42.5,47.3h3.2l-1.6-3.7l0,0
		L42.5,47.3z"/>
	<path class="st1" d="M48.2,49.6h-1.8l-0.6-1.4h-3.5l-0.6,1.4h-1.8l3.2-7.1h1.8L48.2,49.6z M46.9,49h0.3l-2.6-5.7l-0.1,0.3l1.8,4H42
		l1.8-4l-0.1-0.3L41,49.1h0.3l0.6-1.4h4.3L46.9,49z M43,46.9h2.3l-1.2-2.5L43,46.9z M43.6,43.2h0.9v-0.1L43.6,43.2L43.6,43.2z"/>
	<polygon class="st1" points="50.6,43.6 47.9,43.6 47.9,43.2 47.9,42.9 54,42.9 54,43.2 54,43.6 51.5,43.6 51.5,49.3 51,49.3 
		50.6,49.3 	"/>
	<path class="st1" d="M51.8,49.6h-1.7v-5.8h-2.5v-1.4h6.8v1.4h-2.5v5.8H51.8z M50.9,49h0.3v-5.8h2.5l0,0h-5.5l0,0h2.6V49z"/>
	<polygon class="st1" points="55,42.9 55.5,42.9 55.9,42.9 55.9,49.3 55.5,49.3 55,49.3 	"/>
	<path class="st1" d="M56.2,49.6h-1.7v-7.1h1.7V49.6z M55.3,49h0.3v-5.8h-0.3V49z"/>
	<path class="st1" d="M58,48.8c-0.4-0.4-0.6-1.3-0.6-2.7c0-1.4,0.2-2.3,0.6-2.7c0.4-0.4,1.4-0.6,2.8-0.6s2.4,0.2,2.8,0.6
		c0.4,0.4,0.6,1.3,0.6,2.6l0,0c0,1.4-0.2,2.3-0.6,2.7c-0.4,0.4-1.4,0.6-2.8,0.6C59.4,49.4,58.4,49.2,58,48.8 M62.8,48.3
		c0.2-0.3,0.4-0.9,0.4-2.2c0-1.2-0.1-1.9-0.4-2.2c-0.2-0.3-0.9-0.4-2.1-0.4s-1.8,0.1-2.1,0.4c-0.2,0.3-0.4,1-0.4,2.2
		s0.1,1.9,0.4,2.2c0.2,0.3,0.9,0.4,2.1,0.4S62.6,48.6,62.8,48.3"/>
	<path class="st1" d="M60.8,49.7c-1.6,0-2.5-0.2-3-0.6s-0.7-1.5-0.7-2.9s0.2-2.5,0.7-2.9s1.5-0.7,3-0.7s2.5,0.2,3,0.7
		c0.5,0.4,0.7,1.4,0.7,2.9l0,0c0,1.5-0.2,2.4-0.7,2.9C63.4,49.5,62.4,49.7,60.8,49.7 M60.8,43.1c-1.7,0-2.3,0.3-2.6,0.5
		c-0.2,0.2-0.5,0.8-0.5,2.4s0.3,2.2,0.5,2.4c0.2,0.2,0.8,0.5,2.6,0.5c1.7,0,2.3-0.3,2.6-0.5c0.2-0.2,0.5-0.8,0.5-2.4l0,0
		c0-1.6-0.3-2.2-0.5-2.4C63.1,43.4,62.5,43.1,60.8,43.1 M60.8,49c-1.3,0-2-0.2-2.3-0.5c-0.2-0.2-0.5-0.7-0.5-2.4
		c0-1.7,0.3-2.2,0.5-2.4c0.3-0.3,1-0.5,2.3-0.5s2,0.2,2.3,0.5s0.5,1.2,0.5,2.4c0,1.3-0.1,2.1-0.5,2.4C62.8,48.9,62.1,49,60.8,49
		 M60.8,43.9c-1.4,0-1.7,0.2-1.8,0.3c-0.1,0.1-0.3,0.5-0.3,2s0.2,1.9,0.3,2s0.4,0.3,1.8,0.3s1.8-0.2,1.8-0.3c0.1-0.1,0.3-0.4,0.3-2
		c0-1.5-0.2-1.9-0.3-2C62.5,44.1,62.2,43.9,60.8,43.9"/>
	<polygon class="st1" points="66.6,49.3 66.2,49.3 65.7,49.3 65.7,42.9 66.4,42.9 67.1,42.9 71.6,48.6 71.6,42.9 72.1,42.9 
		72.6,42.9 72.6,49.3 71.8,49.3 71.1,49.3 66.6,43.6 	"/>
	<path class="st1" d="M72.9,49.6h-2l-4-5.1v5.1h-1.6v-7.1h2l4,5v-5h1.6V49.6z M71.9,49h0.3v-5.8h-0.3V49z M71.3,49h0.2L67,43.2h-0.2
		L71.3,49z M66,49h0.3v-5.8H66V49z"/>
	<path class="st1" d="M78.9,44.7c0-0.5-0.1-0.8-0.3-0.9c-0.2-0.1-0.7-0.2-1.7-0.2s-1.5,0.1-1.7,0.2s-0.3,0.4-0.3,0.8
		s0.1,0.7,0.2,0.8c0.1,0.1,0.4,0.2,0.9,0.2h1.7c0.9,0,1.6,0.1,1.8,0.3c0.3,0.2,0.4,0.7,0.4,1.5c0,0.8-0.2,1.4-0.5,1.7
		c-0.3,0.2-1.2,0.3-2.5,0.3s-2.2-0.1-2.5-0.4c-0.3-0.2-0.5-0.8-0.5-1.8h0.9c0,0.6,0.1,1,0.3,1.2c0.2,0.1,0.8,0.2,1.8,0.2
		c0.9,0,1.6-0.1,1.8-0.2c0.2-0.1,0.3-0.5,0.3-1c0-0.4-0.1-0.7-0.2-0.8c-0.2-0.1-0.5-0.2-1-0.2H76c-0.8,0-1.5-0.1-1.7-0.3
		c-0.3-0.2-0.4-0.7-0.4-1.5c0-0.7,0.2-1.3,0.5-1.5c0.3-0.2,1.2-0.3,2.4-0.3c1.3,0,2.1,0.1,2.4,0.3c0.3,0.2,0.5,0.7,0.5,1.6h-0.9
		V44.7z"/>
	<path class="st1" d="M76.9,49.7c-1.5,0-2.3-0.1-2.7-0.4s-0.6-0.9-0.6-2V47h1.6v0.3c0,0.7,0.2,0.9,0.2,0.9c0.1,0,0.3,0.2,1.6,0.2
		s1.6-0.1,1.6-0.1s0.2-0.1,0.2-0.7c0-0.4-0.1-0.5-0.1-0.6c0,0-0.2-0.1-0.8-0.1H76c-0.9,0-1.6-0.1-1.9-0.4s-0.5-0.8-0.5-1.8
		c0-0.9,0.2-1.5,0.6-1.8c0.2-0.1,0.8-0.3,2.6-0.3c1.4,0,2.2,0.1,2.6,0.4s0.7,0.8,0.7,1.8v0.3h-1.6v-0.3c0-0.5-0.1-0.6-0.2-0.7
		C78.3,44.1,78,44,77,44c-1.2,0-1.5,0.1-1.6,0.1s-0.1,0.2-0.1,0.5c0,0.5,0.1,0.6,0.1,0.6s0.1,0.1,0.7,0.1h1.7c1,0,1.7,0.1,2,0.4
		s0.5,0.8,0.5,1.7c0,0.9-0.2,1.6-0.7,1.9C79.1,49.6,78.2,49.7,76.9,49.7 M74.1,47.6c0,0.6,0.2,1,0.4,1.2c0.2,0.1,0.7,0.3,2.3,0.3
		c1.7,0,2.2-0.2,2.3-0.3c0.2-0.2,0.4-0.6,0.4-1.4c0-0.8-0.2-1-0.3-1.2c-0.1-0.1-0.5-0.3-1.6-0.3H76c-0.6,0-0.9-0.1-1.2-0.3
		c-0.2-0.2-0.3-0.5-0.3-1.2s0.2-0.9,0.5-1.2c0.2-0.1,0.5-0.2,1.9-0.2c1.3,0,1.7,0.1,1.8,0.2c0.3,0.2,0.4,0.4,0.5,0.9h0.3
		c0-0.5-0.2-0.8-0.4-0.9C79,43.2,78.4,43,77,43c-1.6,0-2.1,0.2-2.3,0.3c-0.2,0.1-0.3,0.5-0.3,1.2c0,0.8,0.2,1.2,0.3,1.3
		c0.1,0.1,0.4,0.3,1.5,0.3h1.7c0.6,0,1,0.1,1.3,0.3c0.2,0.2,0.4,0.5,0.4,1c0,0.7-0.2,1.2-0.5,1.4c-0.2,0.1-0.6,0.2-1.9,0.2
		c-1.4,0-1.8-0.1-1.9-0.3c-0.3-0.2-0.4-0.5-0.5-1.2h-0.5V47.6z"/>
	<text transform="matrix(0.8599 0 0 1 82.541 20.2368)" class="st2 st3 st4"> </text>
	<g>
		<path class="st2" d="M88.2,10.3v-9h-2.8V0.2h7v1.2h-2.8v9H88.2z"/>
		<path class="st2" d="M93.4,5.4c0-0.8,0.1-1.7,0.4-2.5s0.7-1.5,1.4-2c0.6-0.5,1.4-0.7,2.3-0.7c0.9,0,1.7,0.2,2.3,0.7s1,1.2,1.4,1.9
			c0.3,0.7,0.4,1.6,0.4,2.5c0,0.8-0.1,1.7-0.4,2.5s-0.7,1.5-1.4,2c-0.6,0.5-1.4,0.7-2.3,0.7c-0.9,0-1.7-0.2-2.3-0.7s-1-1.2-1.4-1.9
			C93.5,7.1,93.4,6.2,93.4,5.4z M100.4,5.3c0-1.2-0.2-2-0.6-2.7c-0.5-0.9-1.3-1.4-2.2-1.4c-0.7,0-1.3,0.2-1.7,0.6s-0.7,0.9-0.9,1.6
			c-0.2,0.6-0.3,1.4-0.3,2s0.1,1.3,0.3,1.9s0.5,1.2,0.9,1.6s0.9,0.6,1.7,0.6c0.6,0,1.3-0.2,1.7-0.6c0.4-0.4,0.7-0.9,0.9-1.6
			C100.4,6.5,100.4,5.9,100.4,5.3z"/>
		<path class="st2" d="M103.9,10.3V0.3h3.4c1,0,1.9,0.2,2.4,0.6c0.3,0.3,0.6,0.6,0.7,1s0.2,0.8,0.2,1.4c0,0.8-0.3,1.6-0.8,2.1
			s-1.4,0.8-2.4,0.8h-2.3v4.1H103.9z M107.4,5.2c0.7,0,1.3-0.2,1.6-0.5s0.5-0.8,0.5-1.4c0-0.7-0.2-1.3-0.7-1.6
			c-0.3-0.2-0.7-0.4-1.4-0.4h-2.2v3.9C105.2,5.2,107.4,5.2,107.4,5.2z"/>
		<path class="st2" d="M119.9,3.9h-1.2V3.7c0-0.1,0-0.2,0-0.3c0-0.7,0.2-1.5,0.7-2.1s1.5-0.9,2.8-0.9c2.3,0,3.5,0.8,3.6,2.5
			c0,0.5-0.1,0.9-0.3,1.4c-0.2,0.3-0.4,0.6-0.7,0.9c-0.3,0.2-0.8,0.5-1.6,0.9s-1.2,0.5-1.2,0.5c-0.7,0.3-1.3,0.7-1.6,0.9
			c-0.3,0.3-0.5,0.7-0.5,1.3v0.4h5.9v1h-7V9c0-0.5,0.1-0.9,0.2-1.3c0.1-0.3,0.3-0.6,0.7-0.9c0.4-0.3,0.7-0.5,1-0.7
			c0.3-0.2,0.7-0.4,1.5-0.7c0.7-0.3,1.2-0.6,1.6-0.8c0.5-0.4,0.8-0.8,0.8-1.5c0-0.5-0.2-0.9-0.6-1.4c-0.3-0.3-0.8-0.4-1.7-0.4
			c-0.9,0-1.6,0.2-2,0.7c-0.3,0.3-0.4,0.8-0.4,1.4c0,0.1,0,0.3,0,0.4C119.9,3.8,119.9,3.9,119.9,3.9L119.9,3.9z"/>
		<path class="st2" d="M134.6,1.3h-4.9L129.5,4c0.1-0.1,0.3-0.3,0.7-0.5s0.9-0.3,1.7-0.3c0.2,0,0.5,0,0.8,0.1c0.5,0.1,1,0.3,1.4,0.5
			c0.4,0.3,0.6,0.7,0.8,1.2c0.2,0.5,0.3,1,0.3,1.6c0,1.2-0.3,2.1-0.8,2.7s-1.5,0.9-2.7,0.9c-1,0-1.8-0.2-2.3-0.5s-0.8-0.7-0.9-1.2
			c-0.1-0.4-0.2-0.7-0.2-1h1.3c0,1.2,0.7,1.8,2.3,1.8s2.4-0.9,2.4-2.8c0-1.7-0.8-2.5-2.4-2.5c-0.7,0-1.4,0.2-1.7,0.5
			c-0.3,0.3-0.5,0.6-0.6,0.8h-1.2l0.4-5.1h6.1v1.2H134.6z"/>
	</g>
	<g>
		<path class="st2" d="M93.6,19c0-2.1-0.8-3.1-2.3-3.1c-1.7,0-2.4,1.7-2.4,4.9c0,1.4,0.2,2.5,0.5,3.4s1,1.3,2.1,1.3
			c0.7,0,1.3-0.3,1.7-0.8s0.6-1.2,0.7-2l3.1,0.2c-0.1,1-0.4,2.1-0.9,2.8c-0.5,0.8-1.2,1.5-2,1.9c-0.8,0.4-1.8,0.6-2.8,0.6
			c-0.9,0-1.8-0.2-2.6-0.6s-1.4-0.9-1.9-1.7c-0.5-0.7-0.9-1.5-1.2-2.4c-0.2-0.9-0.4-1.9-0.4-2.8c0-2.2,0.5-4,1.6-5.3
			c1-1.5,2.6-2.2,4.5-2.2c1.7,0,2.9,0.5,3.9,1.5c0.9,0.9,1.5,2.4,1.7,4.2L93.6,19z"/>
		<path class="st2" d="M105.3,21.9V28h-3.1v-6.2l-4.3-8.5h3.7l2.6,5.6l2.6-5.6h2.8L105.3,21.9z"/>
		<path class="st2" d="M117.5,13.4c0.7,0,1.4,0,1.8,0.1c0.5,0.1,0.9,0.2,1.4,0.5c1.2,0.7,1.7,1.8,1.7,3.1c0,0.8-0.2,1.5-0.6,2
			s-1,0.9-1.8,1.2v0.1c0.8,0.2,1.6,0.5,2.1,1.3c0.5,0.6,0.7,1.5,0.7,2.4c0,1.3-0.5,2.3-1.7,3.1c-0.4,0.3-0.9,0.5-1.5,0.6
			s-1.3,0.1-2.1,0.1h-6.1V13.3h6.1V13.4z M114.7,19.1h2.1c0.8,0,1.4-0.1,1.7-0.3c0.4-0.3,0.5-0.7,0.5-1.4s-0.2-1-0.6-1.4
			c-0.3-0.1-0.9-0.2-1.9-0.2h-1.9v3.2H114.7z M114.7,25.3h2.2c0.8,0,1.5-0.1,1.8-0.3c0.5-0.4,0.7-0.8,0.7-1.6c0-0.3-0.1-0.5-0.2-0.8
			s-0.3-0.4-0.5-0.6c-0.3-0.2-0.8-0.3-1.6-0.3h-2.3v3.7H114.7z"/>
		<path class="st2" d="M128.4,16.2v2.9h5.1v2.7h-5.1v3.2h6.6v2.8h-9.7V13.3h9.7v2.8h-6.6V16.2z"/>
		<path class="st2" d="M140.9,28h-3.1V13.4h5.8c0.8,0,1.5,0,2,0.1s1,0.3,1.5,0.6c0.5,0.4,0.9,0.9,1.3,1.6c0.3,0.6,0.4,1.4,0.4,2.1
			c0,0.8-0.2,1.6-0.6,2.3c-0.4,0.7-1,1.2-1.7,1.5l2.5,6.5h-3.6l-2.1-5.8h-2.3L140.9,28L140.9,28z M140.9,19.7h1.8
			c0.9,0,1.6-0.1,2-0.3c0.5-0.3,0.8-0.9,0.8-1.7c0-0.3-0.1-0.6-0.2-0.8c-0.1-0.3-0.3-0.5-0.5-0.6c-0.3-0.2-0.7-0.3-1.4-0.3h-0.7H141
			v3.8H140.9z"/>
	</g>
	<g>
		<path class="st2" d="M89.1,48.4c-0.1,0.5-0.3,0.8-0.6,1.2c-0.3,0.3-0.7,0.4-1.2,0.4s-0.8-0.1-1.2-0.4c-0.3-0.2-0.5-0.5-0.6-0.9
			s-0.2-0.8-0.2-1.3c0-0.4,0.1-0.8,0.2-1.3s0.4-0.6,0.6-0.9c0.3-0.2,0.7-0.3,1.2-0.3c0.3,0,0.6,0.1,0.8,0.2c0.2,0.1,0.4,0.3,0.6,0.5
			c0.1,0.2,0.2,0.5,0.3,0.8l-0.5,0.1c-0.2-0.7-0.6-1.2-1.2-1.2s-0.8,0.2-1,0.6s-0.3,0.8-0.3,1.4s0.1,0.8,0.2,1.3
			c0.1,0.2,0.2,0.4,0.4,0.5c0.2,0.1,0.4,0.2,0.6,0.2c0.6,0,1-0.4,1.3-1.2L89.1,48.4z"/>
		<path class="st2" d="M89.8,47.5c0-0.4,0.1-0.8,0.2-1.3c0.1-0.4,0.3-0.7,0.6-0.9c0.3-0.2,0.6-0.3,1.2-0.3c0.4,0,0.8,0.1,1.2,0.3
			c0.3,0.2,0.5,0.5,0.6,0.9s0.2,0.7,0.2,1.2s-0.1,0.8-0.2,1.3c-0.1,0.4-0.4,0.7-0.6,0.9c-0.3,0.2-0.6,0.4-1,0.4s-0.8-0.1-1.2-0.3
			c-0.3-0.2-0.5-0.5-0.6-0.9C89.9,48.4,89.8,48,89.8,47.5z M93.1,47.4c0-0.5-0.1-0.9-0.3-1.4c-0.2-0.4-0.6-0.6-1-0.6
			c-0.3,0-0.6,0.1-0.8,0.3c-0.2,0.2-0.3,0.4-0.4,0.7c-0.1,0.3-0.1,0.6-0.1,0.9s0,0.6,0.1,0.9s0.2,0.5,0.4,0.7
			c0.2,0.2,0.4,0.3,0.7,0.3c0.3,0,0.6-0.1,0.8-0.3c0.2-0.2,0.3-0.4,0.4-0.7C93.1,48.1,93.1,47.7,93.1,47.4z"/>
		<path class="st2" d="M95.3,49.9h-0.5v-4.8h0.9l1.5,3.9l1.5-3.9h0.8v4.8h-0.6v-4.2l0,0l-1.6,4.2h-0.4l-1.6-4.2l0,0
			C95.3,45.8,95.3,49.9,95.3,49.9z"/>
		<path class="st2" d="M100.7,49.9v-4.8h1.6c0.5,0,0.9,0.1,1.2,0.3c0.2,0.1,0.3,0.3,0.3,0.5c0.1,0.2,0.1,0.4,0.1,0.6
			c0,0.4-0.1,0.7-0.4,1c-0.3,0.2-0.6,0.4-1.2,0.4h-1v2h-0.5V49.9z M102.2,47.4c0.3,0,0.6-0.1,0.7-0.2c0.2-0.2,0.2-0.4,0.2-0.6
			c0-0.3-0.1-0.6-0.3-0.7c-0.2-0.1-0.4-0.2-0.6-0.2h-1v1.9h1V47.4z"/>
		<path class="st2" d="M107.3,49.9l-0.5-1.5H105l-0.4,1.5H104l1.6-4.8h0.7l1.6,4.8H107.3z M105.9,45.8l-0.7,2.3h1.5L105.9,45.8z"/>
		<path class="st2" d="M111.6,49.9l-2.5-4.2v4.2h-0.5v-4.8h0.7l2.3,4v-4h0.5v4.8H111.6z"/>
		<path class="st2" d="M113.4,49.9v-4.8h0.6v4.8H113.4z"/>
		<path class="st2" d="M118.4,49.9h-3.1v-4.8h3v0.5h-2.4v1.6h2v0.5h-2v1.8h2.5V49.9z"/>
		<path class="st2" d="M119.4,48.5c0.1,0.2,0.2,0.4,0.3,0.5c0.1,0.1,0.3,0.2,0.5,0.3c0.2,0.1,0.4,0.1,0.6,0.1c0.4,0,0.6-0.1,0.8-0.2
			c0.2-0.1,0.3-0.4,0.3-0.6c0-0.4-0.3-0.6-0.8-0.7l-0.8-0.2c-0.4-0.1-0.7-0.2-0.8-0.4c-0.2-0.2-0.4-0.5-0.4-0.9s0.2-0.7,0.5-1
			c0.3-0.2,0.7-0.3,1.2-0.3s0.7,0.1,1,0.3c0.3,0.2,0.5,0.5,0.6,0.8l-0.5,0.1c0-0.2-0.2-0.4-0.4-0.6c-0.2-0.2-0.5-0.2-0.7-0.2
			s-0.5,0.1-0.7,0.2s-0.3,0.3-0.3,0.5c0,0.2,0.1,0.4,0.2,0.5c0.1,0.1,0.3,0.2,0.6,0.3l0.7,0.2c0.4,0.1,0.7,0.2,0.8,0.4
			c0.3,0.2,0.4,0.5,0.4,0.9s-0.2,0.8-0.5,1.2c-0.3,0.2-0.7,0.3-1.3,0.3c-1,0-1.7-0.4-2-1.4L119.4,48.5z"/>
		<path class="st2" d="M126.2,47.5h2.7v0.5h-2.7V47.5z"/>
		<path class="st2" d="M133.4,46.8h-0.5v-0.1c0-0.1,0-0.1,0-0.2c0-0.4,0.1-0.7,0.3-1s0.6-0.4,1.4-0.5c1.2,0,1.7,0.4,1.7,1.3
			c0,0.2,0,0.5-0.1,0.6c-0.1,0.2-0.2,0.3-0.3,0.4s-0.4,0.2-0.7,0.4c-0.3,0.2-0.5,0.3-0.5,0.3c-0.3,0.2-0.6,0.3-0.7,0.5
			c-0.1,0.1-0.2,0.3-0.2,0.6v0.2h2.8v0.5h-3.4v-0.6c0-0.2,0-0.4,0.1-0.6c0.1-0.2,0.2-0.3,0.3-0.5c0.2-0.1,0.3-0.3,0.5-0.3
			c0.1-0.1,0.4-0.2,0.7-0.3c0.3-0.1,0.5-0.3,0.7-0.4c0.3-0.2,0.4-0.4,0.4-0.7c0-0.3-0.1-0.5-0.3-0.6c-0.1-0.1-0.4-0.2-0.8-0.2
			c-0.4,0-0.7,0.1-0.9,0.3c-0.1,0.2-0.2,0.4-0.2,0.6C133.4,46.6,133.4,46.7,133.4,46.8L133.4,46.8L133.4,46.8z"/>
		<path class="st2" d="M140.9,47.5c0,0.4-0.1,0.8-0.2,1.3c-0.1,0.3-0.3,0.6-0.6,0.9c-0.3,0.2-0.6,0.3-1.2,0.3
			c-1.3,0-1.9-0.8-1.9-2.4c0-0.4,0.1-0.8,0.2-1.3c0.1-0.3,0.3-0.6,0.6-0.8c0.3-0.2,0.6-0.3,1.2-0.3s0.8,0.1,1.2,0.3
			c0.3,0.2,0.5,0.5,0.6,0.8C140.9,46.7,140.9,47,140.9,47.5z M139,45.5c-0.5,0-0.8,0.2-0.9,0.5c-0.2,0.3-0.2,0.8-0.2,1.4
			s0.1,1,0.2,1.5c0.2,0.4,0.5,0.5,0.9,0.5c0.8,0,1.3-0.6,1.3-2c0-0.5-0.1-1-0.2-1.4C139.9,45.8,139.6,45.5,139,45.5z"/>
		<path class="st2" d="M143.8,49.9h-0.5v-4.2l-1,0.8V46l1-0.8h0.5V49.9z"/>
		<path class="st2" d="M147.1,48.4c-0.3,0-0.6-0.1-0.8-0.2s-0.4-0.3-0.5-0.6c-0.1-0.2-0.2-0.5-0.2-0.9s0.1-0.7,0.2-0.9
			c0.2-0.2,0.3-0.4,0.6-0.5c0.2-0.1,0.5-0.2,0.8-0.2c0.5,0,0.8,0.1,1.2,0.3s0.4,0.5,0.5,0.8c0.1,0.4,0.1,0.8,0.1,1.3
			c0,0.6-0.1,1.3-0.4,1.7c-0.3,0.4-0.7,0.6-1.4,0.7c-0.6,0-1.2-0.1-1.4-0.4s-0.3-0.5-0.3-0.8h0.6c0,0,0,0.1,0,0.2s0.1,0.2,0.1,0.3
			c0.1,0.1,0.2,0.2,0.3,0.2c0.1,0.1,0.3,0.1,0.6,0.1c0.4,0,0.7-0.2,0.9-0.5s0.3-0.7,0.3-1c0-0.1,0-0.2,0-0.2c0,0.1-0.2,0.2-0.4,0.4
			C147.9,48.3,147.6,48.4,147.1,48.4z M148.5,46.7c0-0.8-0.4-1.3-1.2-1.3c-0.7,0-1,0.4-1,1.3c0,0.4,0.1,0.7,0.3,0.9
			c0.2,0.2,0.4,0.3,0.8,0.3c0.3,0,0.6-0.1,0.8-0.3C148.4,47.4,148.5,47.1,148.5,46.7z"/>
	</g>
	<g>
		<path class="st2" d="M90.8,34.6c-0.2-0.7-0.8-1.2-1.6-1.2c-0.8,0-1.3,0.3-1.3,0.9c0,0.5,0.4,0.8,1.4,0.9c0.7,0.2,1.2,0.3,1.5,0.4
			c0.3,0.1,0.6,0.2,0.8,0.4c0.8,0.5,1.2,1.4,1.2,2.3c0,1-0.4,1.8-1.2,2.4c-0.6,0.5-1.6,0.8-2.6,0.8c-0.9,0-1.7-0.2-2.4-0.6
			c-0.6-0.4-1.2-1.2-1.3-2l2-0.5c0.2,0.9,0.8,1.4,1.9,1.4c0.4,0,0.7-0.1,1-0.2c0.3-0.2,0.4-0.4,0.4-0.8c0-0.3-0.1-0.6-0.4-0.7
			c-0.3-0.1-0.6-0.2-1.2-0.4c-0.6-0.1-1.3-0.3-1.7-0.5s-0.8-0.5-1.2-0.9c-0.3-0.4-0.4-0.9-0.4-1.6c0-0.9,0.3-1.7,0.9-2.3
			c0.6-0.5,1.4-0.8,2.3-0.8c1.8,0,2.9,0.7,3.5,2.3L90.8,34.6z"/>
		<path class="st2" d="M96.7,33.7v2h3.5v1.9h-3.5v2.2h4.4v1.9h-6.5v-9.9h6.5v1.9H96.7z"/>
		<path class="st2" d="M107.8,35.6c0-1.4-0.5-2.1-1.6-2.1s-1.7,1-1.7,3.2c0,0.9,0.1,1.7,0.3,2.2c0.2,0.6,0.7,0.8,1.5,0.8
			c0.5,0,0.8-0.2,1.2-0.5c0.2-0.3,0.4-0.8,0.5-1.4l2.1,0.1c-0.1,0.7-0.3,1.4-0.6,1.9c-0.3,0.5-0.7,0.9-1.4,1.3
			c-0.5,0.3-1.2,0.4-1.9,0.4c-0.6,0-1.3-0.1-1.8-0.4s-0.9-0.6-1.3-1.2s-0.6-1-0.7-1.6c-0.2-0.6-0.2-1.3-0.2-1.9c0-1.5,0.3-2.6,1-3.6
			s1.7-1.5,3-1.5c1.2,0,2,0.3,2.6,0.9c0.6,0.6,0.9,1.6,1.2,2.8L107.8,35.6z"/>
		<path class="st2" d="M119,37.8c0,0.7,0,1.4-0.1,1.8s-0.3,0.8-0.6,1.3c-0.6,0.7-1.6,1-2.8,1s-2.2-0.3-2.8-0.8
			c-0.4-0.4-0.6-0.8-0.7-1.3c-0.1-0.5-0.2-1.2-0.2-1.9v-6h2.3v6c0,0.7,0.1,1.3,0.2,1.6c0.2,0.4,0.7,0.6,1.4,0.6c0.6,0,1-0.2,1.4-0.5
			c0.2-0.3,0.2-0.8,0.2-1.7v-6h1.9L119,37.8L119,37.8z"/>
		<path class="st2" d="M123.3,41.7h-2.1v-9.9h3.9c0.5,0,0.9,0,1.4,0.1c0.3,0.1,0.7,0.2,1,0.4c0.4,0.2,0.6,0.6,0.8,1
			c0.2,0.4,0.3,0.9,0.3,1.4c0,0.5-0.1,1-0.4,1.6c-0.3,0.4-0.6,0.8-1.2,0.9l1.7,4.3h-2.4l-1.5-3.9h-1.6V41.7z M123.3,36.1h1.2
			c0.6,0,1-0.1,1.4-0.2c0.3-0.2,0.5-0.6,0.5-1.2c0-0.2,0-0.4-0.1-0.6c-0.1-0.2-0.2-0.3-0.3-0.4c-0.2-0.1-0.5-0.2-0.8-0.2h-0.5h-1.2
			v2.6H123.3z"/>
		<path class="st2" d="M132.5,41.7h-2.1v-9.9h2.1V41.7z"/>
		<path class="st2" d="M140.8,33.8h-2.3v7.9h-2.1v-7.9h-2.3v-2h6.7V33.8z"/>
		<path class="st2" d="M146.6,37.5v4.1h-2.1v-4.1l-2.8-5.7h2.5l1.8,3.8l1.8-3.8h1.9L146.6,37.5z"/>
	</g>
</g>
</svg>
