<?xml version="1.0" encoding="utf-8"?>
<!-- Generator: Adobe Illustrator 21.1.0, SVG Export Plug-In . SVG Version: 6.00 Build 0)  -->
<svg version="1.1" id="Layer_1" xmlns="http://www.w3.org/2000/svg" xmlns:xlink="http://www.w3.org/1999/xlink" x="0px" y="0px"
	 viewBox="0 0 200 153" style="enable-background:new 0 0 200 153;" xml:space="preserve">
<style type="text/css">
	.st0{fill:#FFFFFF;}
	.st1{fill:#19323C;}
	.st2{fill:#162E33;}
	.st3{fill:#223B44;}
	.st4{fill:#BBA35E;}
	.st5{fill:#FEFEFE;}
</style>
<g>
	<polygon class="st0" points="163.4,113.1 163.4,39.9 100,3.3 36.6,39.9 36.6,113.1 100,149.7 	"/>
	<g>
		<path class="st1" d="M200,77.2c0,0.1,0,0.2,0,0.3c0,0-0.1,0-0.1,0c-0.2-0.2-0.4-0.2-0.7-0.2c-6.7,0-13.3,0-20,0
			c-0.8,0-0.8,0.1-0.8,0.8c0,3.5,0,7,0,10.5c0,0.3,0.1,0.6,0.2,0.8c0.4,0.6,0.4,0.6-0.2,1.1c-2.7,0-5.3,0-8,0c-0.8,0-0.8,0-0.8,0.8
			c0,2.9,0,5.8,0,8.8c0,0.3-0.1,0.6,0.2,0.8c-0.2,0.2-0.2,0.6-0.5,0.8c-0.1-0.3-0.1-0.6-0.1-1c0-3.1,0-6.1,0-9.2c0-1.1,0-1-1-1
			c-1.5,0-3,0-4.4,0c-1.4,0-1.2-0.2-1.2,1.2c0,6.3,0,12.5,0,18.8c0,0.6-0.2,1-0.7,1.3c-5.8,3.2-11.6,6.5-17.3,9.8
			c-7.9,4.5-15.8,8.9-23.7,13.4c-6.6,3.7-13.1,7.4-19.7,11.1c-0.6,0.3-0.9,0.3-1.5,0c-9.8-5.6-19.7-11.1-29.5-16.7
			c-10.4-5.9-20.8-11.8-31.3-17.6c-0.5-0.3-0.7-0.6-0.7-1.2c0-3.1,0-6.3,0-9.4c0-3.2,0-6.4,0-9.7c0-1.1,0-1-1-1c-1.6,0-3.2,0-4.8,0
			c-1,0-1-0.1-1,1c0,7.1,0,14.2,0,21.3c0,1,0.1,1.8,1.1,2.1c-0.1,0.1-0.2,0.1-0.3,0.1c-0.9-0.2-1.2-0.8-1.2-1.7c0.1-3,0-5.9,0-8.9
			c0-1,0.1-0.9-0.9-0.9c-7.9,0-15.8,0-23.6,0c-1.9,0-3.7,0-5.6,0c-0.3,0-0.7,0-1-0.1c0-0.1,0-0.1,0-0.2c0.1,0.1,0.2,0,0.3,0
			c0.3,0.3,0.6,0.2,0.9,0.2c9.6,0,19.2,0,28.8,0c0.2,0,0.4,0,0.6,0c0.3,0,0.4-0.1,0.4-0.4c0-0.4,0-0.8,0-1.2c0-3.4,0-6.9,0-10.3
			c0-0.2,0-0.4,0-0.7c0-0.2-0.1-0.4-0.4-0.4c-0.2,0-0.4,0-0.7,0c-2.7,0-5.4,0-8.2,0c-0.3-0.2-0.4-0.4-0.2-0.7
			c0.2-0.3,0.2-0.5,0.2-0.9c0-4.1,0-8.1,0-12.2c0-0.3,0-0.7,0-1c0-4.3,0-8.5,0-12.8c0-0.9-0.1-0.9,0.9-0.9c2.5,0,5.1,0,7.6,0
			c0.8,0,0.7,0,0.7-0.7c0-2.9,0-5.8,0-8.7c0-4.6,0-9.2,0-13.8c0-0.3-0.2-0.6,0.1-0.8c0.1,0,0.2,0,0.3,0.1c-0.2,0.3-0.1,0.7-0.1,1
			c0,7.2,0,14.5,0,21.7c0,0.2,0,0.4,0,0.6c0,0.3,0.1,0.5,0.5,0.5c1.9,0,3.8,0,5.7,0c0.4,0,0.5-0.2,0.5-0.5c0-0.2,0-0.4,0-0.6
			c0-4.3,0-8.6,0-13c0-2,0-4,0-6c0-0.5,0.1-0.9,0.6-1.1c0.5-0.2,1-0.6,1.5-0.8c7.4-4.2,14.8-8.3,22.2-12.5
			c5.8-3.3,11.6-6.5,17.4-9.8c6.5-3.7,13.1-7.4,19.6-11.1c0.6-0.4,1.1-0.4,1.7,0c6.1,3.5,12.2,6.9,18.3,10.4
			c7.9,4.4,15.7,8.9,23.6,13.3c6.1,3.5,12.2,6.9,18.3,10.3c0.8,0.5,1.1,1,1.1,1.9c0,6.2,0,12.5,0,18.7c0,0.9,0,0.9,0.8,0.9
			c1.7,0,3.4,0,5.1,0c0.7,0,0.7,0,0.7-0.7c0-0.2,0-0.4,0-0.6c0-7.1,0-14.2,0-21.3c0-0.2,0-0.5,0-0.7c0-0.3-0.1-0.5-0.4-0.7
			c0.1-0.1,0.2-0.1,0.3-0.1c0.6,0.1,0.4,0.5,0.4,0.9c0,6.5,0,13,0,19.5c0,1.1,0,2.1,0,3.2c0,0.4,0.1,0.6,0.6,0.6c1.3,0,2.6,0,3.9,0
			c1.4,0,2.7,0,4.1,0c0.4,0,0.6,0.1,0.5,0.5c0,0.2,0,0.4,0,0.6c0,4.3,0,8.6,0,12.9c0,0.2,0,0.4,0,0.7c0,0.2,0.1,0.4,0.3,0.3
			c0.2,0,0.4,0,0.7,0c5.4,0,10.9,0,16.3,0C197.2,77.3,198.6,77.2,200,77.2z M100.2,90.7c-8.2,0-16.5,0-24.7,0c-10.7,0-21.4,0-32,0
			c-0.9,0-0.8-0.1-0.8,0.8c0,0,0,0.1,0,0.1c0,5.5,0,11,0,16.6c0,0.6,0.2,0.9,0.7,1.2C62,119.9,80.7,130.4,99.4,141
			c0.6,0.3,1,0.3,1.6,0c18.7-10.6,37.4-21.1,56.1-31.7c0.5-0.3,0.7-0.6,0.7-1.2c0-5.5,0-10.9,0-16.4c0-1.2,0.1-1-1-1
			C137.9,90.7,119.1,90.7,100.2,90.7z M100.2,62.2c18.8,0,37.6,0,56.5,0c0.2,0,0.5,0,0.7,0c0.3,0,0.4-0.1,0.4-0.4c0-0.1,0-0.3,0-0.4
			c0-5.5,0-11.1,0-16.6c0-0.6-0.2-0.9-0.7-1.1c-18.8-10.6-37.5-21.2-56.3-31.8c-0.5-0.3-0.8-0.2-1.2,0C80.8,22.4,62.1,33,43.3,43.6
			c-0.5,0.3-0.7,0.6-0.7,1.1c0,5.5,0,10.9,0,16.4c0,1.2-0.2,1.1,1.1,1.1C62.6,62.2,81.4,62.2,100.2,62.2z"/>
		<path class="st2" d="M0,76.9c0.4,0,0.8,0,1.1,0c6.6,0,13.1,0,19.7,0c0.3,0,0.7,0,1,0c0,4.1,0,8.1,0,12.2c0,0.3-0.1,0.6-0.2,0.9
			c-0.2,0.3-0.1,0.6,0.2,0.7c0.1,0.5,0.6,0.8,0.9,1.2c1,1.3,2,2.5,3,3.8c1.1,1.4,2.2,2.7,3.3,4.1c0.6,0.8,1.2,1.6,1.9,2.3
			c0,0.4,0,0.8,0,1.2c0,0.3-0.1,0.4-0.4,0.4c-0.2,0-0.4,0-0.6,0c-9.6,0-19.2,0-28.8,0c-0.3,0-0.7,0.1-0.9-0.2
			c0.1-0.3,0.3-0.5,0.4-0.8c2.2-3.7,4.3-7.4,6.5-11.1c0.3-0.6,0.3-1,0-1.6c-2.1-4.1-4.5-8.1-6.7-12.2c-0.1-0.2-0.3-0.4-0.6-0.5
			C0,77.1,0,77,0,76.9z"/>
		<path class="st3" d="M100.3,0c0.2,0.2,0.4,0.3,0.7,0.4c22.4,12.4,44.8,24.7,67.2,37.1c0.3,0.2,0.6,0.3,0.8,0.5
			c-0.1,0-0.2,0-0.3,0.1c-0.1,0-0.3-0.1-0.4-0.2c-5.9-3.2-11.7-6.5-17.6-9.7c-8.4-4.6-16.8-9.3-25.2-13.9
			c-8.2-4.5-16.4-9.1-24.7-13.6c-0.5-0.3-0.8-0.2-1.3,0c-5.5,3-10.9,6.1-16.4,9.1c-5,2.7-9.9,5.5-14.9,8.2
			c-6.5,3.6-13.1,7.2-19.6,10.9c-4.5,2.5-9.1,5-13.6,7.5c-1.2,0.6-2.3,1.3-3.5,1.9c-0.1-0.1-0.2-0.1-0.3-0.1
			c0.2-0.2,0.5-0.3,0.8-0.5C54.4,25.3,76.9,12.9,99.3,0.5c0.2-0.1,0.6-0.1,0.7-0.5C100.1,0,100.2,0,100.3,0z"/>
		<path class="st3" d="M100,153c0.1-0.4-0.3-0.4-0.5-0.5c-3-1.6-5.9-3.3-8.9-4.9c-19.3-10.6-38.5-21.3-57.8-31.9
			c-0.2-0.1-0.4-0.3-0.6-0.4c0.1,0,0.2,0,0.3-0.1c0.3,0.1,0.5,0.3,0.8,0.4c3.1,1.7,6.2,3.4,9.2,5.1c5.6,3.1,11.2,6.2,16.9,9.3
			c7,3.8,13.9,7.7,20.9,11.5c6.2,3.4,12.5,6.9,18.7,10.3c1.6,0.9,1,0.9,2.6,0c4.9-2.7,9.8-5.4,14.7-8.1c5-2.7,9.9-5.5,14.9-8.2
			c6.7-3.7,13.5-7.4,20.2-11.2c3.9-2.2,7.8-4.3,11.7-6.5c1.5-0.8,3-1.7,4.6-2.5c0.1,0.1,0.2,0.1,0.3,0.1c-0.9,0.6-1.9,1.1-2.9,1.7
			c-21.4,11.8-42.7,23.6-64.1,35.4c-0.3,0.1-0.6,0.2-0.7,0.5C100.2,153,100.1,153,100,153z"/>
		<path class="st1" d="M168,115.4c-0.1,0-0.2,0-0.3-0.1c0.2-0.1,0.4-0.3,0.6-0.3c0.6-0.2,0.8-0.7,0.8-1.4c0-3.4,0-6.9,0-10.3
			c0-0.3-0.1-0.7,0.1-1c0.3,0.4,0.7,0.5,1.2,0.5c6.1,0,12.1,0,18.2,0c3.5,0,6.9,0,10.4,0c0.3,0,0.7,0.1,0.9-0.2c0.1,0,0.1,0,0.1,0
			c0,0.1,0,0.2,0,0.3c-0.3-0.1-0.5,0-0.8,0c-9.6,0-19.2,0-28.8,0c-0.1,0-0.2,0-0.3,0c-0.6,0-0.6,0-0.6,0.6c0,3.4,0,6.7,0,10.1
			c0,1.3,0.2,0.9-0.9,1.5C168.4,115.3,168.2,115.4,168,115.4z"/>
		<path class="st4" d="M169.1,102.3c-0.1,0.3-0.1,0.6-0.1,1c0,3.4,0,6.9,0,10.3c0,0.7-0.2,1.1-0.8,1.4c-0.2,0.1-0.4,0.2-0.6,0.3
			c-1.6,0.7-3.1,1.7-4.6,2.5c-3.9,2.1-7.8,4.3-11.7,6.5c-6.7,3.7-13.5,7.4-20.2,11.2c-5,2.7-9.9,5.5-14.9,8.2
			c-4.9,2.7-9.8,5.4-14.7,8.1c-1.6,0.9-1.1,0.9-2.6,0c-6.2-3.4-12.5-6.9-18.7-10.3c-7-3.8-13.9-7.7-20.9-11.5
			c-5.6-3.1-11.2-6.2-16.9-9.3c-3.1-1.7-6.2-3.4-9.2-5.1c-0.3-0.1-0.5-0.3-0.8-0.4c-1-0.4-1.1-1.1-1.1-2.1c0-7.1,0-14.2,0-21.3
			c0-1.1,0-1,1-1c1.6,0,3.2,0,4.8,0c1,0,1-0.1,1,1c0,3.2,0,6.4,0,9.7c0,3.1,0,6.3,0,9.4c0,0.6,0.2,0.9,0.7,1.2
			c10.4,5.9,20.8,11.7,31.3,17.6c9.8,5.6,19.7,11.1,29.5,16.7c0.5,0.3,0.9,0.3,1.5,0c6.6-3.7,13.1-7.4,19.7-11.1
			c7.9-4.5,15.8-8.9,23.7-13.4c5.8-3.3,11.6-6.5,17.3-9.8c0.6-0.3,0.7-0.7,0.7-1.3c0-6.3,0-12.5,0-18.8c0-1.4-0.1-1.2,1.2-1.2
			c1.5,0,3,0,4.4,0c1,0,1-0.1,1,1c0,3.1,0,6.1,0,9.2c0,0.3-0.1,0.7,0.1,1C169.1,102,169.1,102.2,169.1,102.3z"/>
		<path class="st4" d="M31.5,38.4c1.2-0.6,2.4-1.3,3.5-1.9c4.5-2.5,9.1-5,13.6-7.5c6.5-3.6,13.1-7.2,19.6-10.9
			c5-2.7,9.9-5.5,14.9-8.2c5.5-3,10.9-6,16.4-9.1c0.5-0.3,0.8-0.3,1.3,0c8.2,4.6,16.4,9.1,24.7,13.6c8.4,4.6,16.8,9.3,25.2,13.9
			c5.9,3.2,11.7,6.5,17.6,9.7c0.1,0.1,0.2,0.1,0.4,0.2c0.2,0.2,0.4,0.3,0.4,0.7c0,0.2,0,0.5,0,0.7c0,7.1,0,14.2,0,21.3
			c0,0.2,0,0.4,0,0.6c0,0.7,0,0.7-0.7,0.7c-1.7,0-3.4,0-5.1,0c-0.8,0-0.8,0-0.8-0.9c0-6.2,0-12.5,0-18.7c0-0.9-0.2-1.4-1.1-1.9
			c-6.1-3.4-12.2-6.9-18.3-10.3c-7.9-4.4-15.7-8.9-23.6-13.3c-6.1-3.4-12.2-6.9-18.3-10.4c-0.6-0.4-1.1-0.3-1.7,0
			c-6.5,3.7-13.1,7.4-19.6,11.1c-5.8,3.3-11.6,6.5-17.4,9.8c-7.4,4.2-14.8,8.3-22.2,12.5c-0.5,0.3-1,0.6-1.5,0.8
			c-0.5,0.2-0.6,0.6-0.6,1.1c0,2,0,4,0,6c0,4.3,0,8.6,0,13c0,0.2,0,0.4,0,0.6c0,0.4-0.1,0.5-0.5,0.5c-1.9,0-3.8,0-5.7,0
			c-0.4,0-0.5-0.2-0.5-0.5c0-0.2,0-0.4,0-0.6c0-7.2,0-14.5,0-21.7C31.4,39.1,31.3,38.7,31.5,38.4z"/>
		<path class="st2" d="M169.1,102.3c-0.1-0.2-0.1-0.3,0-0.5c0.3-0.2,0.3-0.6,0.5-0.8c0.5-0.6,0.9-1.1,1.4-1.7
			c0.8-0.9,1.5-1.8,2.3-2.7c0.8-0.9,1.6-1.9,2.4-2.9c0.9-1.1,1.8-2,2.6-3.1c0.6-0.5,0.6-0.5,0.2-1.1c-0.2-0.3-0.2-0.5-0.2-0.8
			c0-3.5,0-7,0-10.5c0-0.8,0.1-0.8,0.8-0.8c6.7,0,13.3,0,20,0c0.2,0,0.5-0.1,0.7,0.2c0,0.3-0.2,0.5-0.3,0.7
			c-1.8,3.1-3.6,6.1-5.3,9.2c-0.4,0.8-0.8,1.5-1.3,2.3c-0.3,0.5-0.3,0.9,0,1.4c2.2,3.5,4.3,7.1,6.5,10.6c0.2,0.3,0.4,0.5,0.4,0.8
			c-0.3,0.3-0.6,0.2-0.9,0.2c-3.5,0-6.9,0-10.4,0c-6.1,0-12.1,0-18.2,0C169.9,102.8,169.4,102.7,169.1,102.3z"/>
		<path class="st3" d="M31,102c-0.8-0.7-1.3-1.5-1.9-2.3c-1.1-1.4-2.2-2.7-3.3-4.1c-1-1.3-2.1-2.5-3-3.8c-0.3-0.4-0.8-0.6-0.9-1.2
			c2.7,0,5.4,0,8.2,0c0.2,0,0.4,0,0.7,0c0.2,0,0.3,0.1,0.4,0.4c0,0.2,0,0.4,0,0.7C31,95.1,31,98.6,31,102z"/>
		<path class="st3" d="M178.4,90.7c-0.8,1.1-1.7,2.1-2.6,3.1c-0.8,1-1.6,1.9-2.4,2.9c-0.8,0.9-1.5,1.8-2.3,2.7
			c-0.5,0.6-0.9,1.1-1.4,1.7c-0.3-0.2-0.2-0.5-0.2-0.8c0-2.9,0-5.8,0-8.8c0-0.8,0-0.8,0.8-0.8C173,90.7,175.7,90.7,178.4,90.7z"/>
		<path class="st3" d="M104.8,103.9c1.3,0.9,1.7,2.7,0.9,4c-0.4,0.6-0.9,0.9-1.6,0.9c-0.7,0-1.5,0-2.2,0c-0.6,0-0.6,0-0.6-0.6
			c0-2.3,0-4.6,0-6.9c0-0.4,0-0.8,0-1.1c0-0.3,0.1-0.4,0.4-0.4c0.7,0,1.4,0,2.1,0c1,0.1,1.7,0.6,1.9,1.4
			C106,102.1,105.9,103.4,104.8,103.9z M102.6,106.1c0,0.4,0,0.9,0,1.3c0,0.3,0.1,0.4,0.4,0.4c1.3,0.1,1.8-0.4,1.8-1.7
			c0-0.1,0-0.2,0-0.3c-0.1-1-0.5-1.4-1.5-1.4c-0.7,0-0.7,0-0.7,0.7C102.6,105.5,102.6,105.8,102.6,106.1z M102.6,102.1
			c0,0.3,0,0.6,0,0.9c0,0.4,0.2,0.5,0.5,0.5c0.3,0,0.5,0,0.8-0.1c0.3-0.1,0.5-0.3,0.7-0.6c0.5-1.3-0.1-2.2-1.4-2.2c0,0-0.1,0-0.1,0
			c-0.3,0-0.5,0.1-0.5,0.4C102.6,101.4,102.6,101.8,102.6,102.1z"/>
		<path class="st3" d="M99,104.2c-0.1,0.9,0.1,1.7-0.1,2.6c-0.3,1.8-2.3,2.7-3.9,1.7c-0.5-0.3-0.8-0.8-0.9-1.3
			c-0.1-0.4-0.1-0.9-0.2-1.3c0-1.1,0-2.2,0-3.3c0-0.3,0-0.5,0.1-0.8c0.3-1.9,2.1-2.8,3.8-1.9c0.6,0.3,0.9,0.9,1,1.5
			C99.1,102.3,98.9,103.3,99,104.2z M97.7,104.7c0-1.2,0-2,0-2.8c-0.1-0.9-0.4-1.2-1.2-1.2c-0.8,0-1.1,0.3-1.2,1.2
			c0,0.1,0,0.2,0,0.3c0,1.3,0,2.7,0,4c0,0.3,0,0.6,0.1,0.9c0.1,0.4,0.4,0.6,0.8,0.7c0.8,0.1,1.3-0.2,1.4-1
			C97.8,106,97.6,105.1,97.7,104.7z"/>
		<path class="st3" d="M85.1,108.1c-0.3,0.4-0.6,0.7-1.2,0.8c-1.2,0.2-2.2-0.4-2.5-1.6c-0.1-0.3-0.2-0.7-0.2-1c0-1.3,0-2.6,0-3.9
			c0-0.1,0-0.2,0-0.2c0.2-2.3,1.6-2.7,3.4-2.3c0.7,0.2,1.1,0.8,1.3,1.5c0,0.2,0.1,0.4,0.1,0.7c0,0.7-0.3,1-1,0.7
			c-0.2-0.1-0.2-0.2-0.2-0.3c0-0.2,0-0.4,0-0.6c-0.1-0.8-0.4-1.1-1-1.1c-0.7,0-1.2,0.3-1.2,1c-0.1,1.7-0.1,3.4,0,5.1
			c0,0.7,0.4,1,1,1.1c0.6,0.1,1.1-0.2,1.2-0.9c0.1-0.3,0.1-0.6,0.1-0.9c0.1-0.8,0-0.8-0.8-0.9c-0.4,0-0.4-0.2-0.4-0.5
			c0-0.2,0-0.4,0.3-0.4c0.1,0,0.1,0,0.2,0c0.6,0,1.3-0.2,1.7,0.1c0.4,0.3,0.1,1.1,0.1,1.6c0,0.7,0,1.5,0,2.2c0,0.2,0.1,0.5-0.3,0.5
			c-0.3,0-0.6,0-0.6-0.4C85.3,108.3,85.3,108.1,85.1,108.1z"/>
		<path class="st3" d="M107.9,120.3c-0.9-0.8-1.1-1.9-0.7-3c0.3-0.9,1-1.4,2-1.3c1,0,1.7,0.4,2,1.3c0.3,1.1,0.2,2.2-0.8,3.1
			c0.3,0.3,0.7,0.7,0.9,1.1c0.3,0.9,0.2,1.7-0.1,2.6c-0.3,0.8-1.1,1.3-2.2,1.2c-1-0.1-1.7-0.6-1.9-1.6
			C106.7,122.3,107,121.4,107.9,120.3z M108.1,122.6c0,0.4,0,0.7,0.2,1c0.2,0.4,0.5,0.6,0.9,0.6c0.4,0,0.8-0.2,0.9-0.6
			c0.2-0.7,0.3-1.4,0-2.1c-0.2-0.4-0.5-0.6-0.9-0.6c-0.4,0-0.7,0.2-0.9,0.6C108.1,121.9,108.1,122.3,108.1,122.6z M108.2,118.2
			c0,0.4,0.1,0.8,0.2,1.1c0.2,0.3,0.4,0.5,0.8,0.5c0.3,0,0.6-0.2,0.7-0.5c0.2-0.6,0.3-1.2,0.1-1.8c-0.1-0.4-0.4-0.6-0.8-0.6
			c-0.4,0-0.7,0.2-0.8,0.6C108.3,117.8,108.3,118,108.2,118.2z"/>
		<path class="st3" d="M99.1,120.6c0,0.7,0,1.4,0,2c0,0.4,0,0.7-0.1,1.1c-0.3,1-1,1.5-2.1,1.5c-1.1,0-1.8-0.5-2.2-1.5
			c-0.1-0.4-0.2-0.7-0.2-1.1c0-1.3,0-2.6,0-3.9c0-0.2,0-0.3,0-0.5c0.2-2,1.6-2.4,3-2.1c0.9,0.2,1.4,1,1.4,1.9
			C99.1,118.9,99,119.7,99.1,120.6C99,120.6,99.1,120.6,99.1,120.6z M97.9,120.6c0-0.7,0-1.4,0-2c0-0.3,0-0.6-0.1-0.9
			c-0.2-0.5-0.4-0.7-0.9-0.7c-0.5,0-0.8,0.2-0.9,0.7c-0.1,0.3-0.1,0.6-0.1,1c0,1.3,0,2.6,0,3.8c0,0.4,0,0.8,0.2,1.2
			c0.2,0.4,0.5,0.5,0.9,0.5c0.3,0,0.6-0.2,0.8-0.5c0.1-0.3,0.2-0.7,0.2-1C97.8,122,97.9,121.3,97.9,120.6z"/>
		<path class="st3" d="M112.9,108.7c-1.2,0.1-1.2,0.1-1.4-1c-0.2-1.3-0.2-1.3-1.6-1.2c-0.3,0-0.5,0.1-0.5,0.5
			c-0.1,0.4-0.2,0.9-0.2,1.3c-0.1,0.4-0.2,0.6-0.6,0.5c-0.2,0-0.4,0-0.6,0c-0.1-0.5,0.1-0.8,0.2-1.2c0.5-2.4,1-4.7,1.5-7
			c0.2-0.8,0.2-0.8,1-0.8c0.4,0,0.5,0.2,0.5,0.5c0.2,1,0.4,2,0.6,3C112.1,105,112.5,106.8,112.9,108.7z M109.6,105.6
			c0.4,0,0.7,0,1,0c0.3,0,0.4-0.1,0.4-0.4c-0.2-1-0.4-2.1-0.6-3.1c0,0-0.1,0-0.1,0C110.1,103.1,109.9,104.3,109.6,105.6z"/>
		<path class="st3" d="M89.4,124.1c0.9,0,1.6,0,2.3,0c0.4,0,0.5,0.2,0.5,0.5c0,0.4-0.1,0.5-0.5,0.5c-1.1,0-2.2,0-3.4,0
			c-0.4,0-0.5-0.1-0.5-0.5c0-0.3,0.1-0.6,0.3-0.8c0.8-1.3,1.6-2.5,2.4-3.8c0.4-0.6,0.6-1.3,0.5-2c-0.1-0.6-0.3-0.9-0.8-1
			c-0.6-0.1-0.9,0.2-1.1,0.9c0,0.2-0.1,0.3-0.1,0.5c0,0.2,0.1,0.5-0.2,0.6c-0.3,0.1-0.6,0-0.9,0c-0.1,0-0.1-0.2-0.1-0.3
			c0-0.7,0.1-1.3,0.4-1.9c0.2-0.4,0.6-0.6,1-0.7c0.5-0.1,1.1-0.1,1.6,0c0.7,0.2,1.1,0.6,1.2,1.3c0.3,1,0.1,2-0.5,2.9
			c-0.6,1-1.3,2-1.9,3C89.8,123.5,89.6,123.7,89.4,124.1z"/>
		<path class="st3" d="M88.6,104.2c0-1.3,0-2.7,0-4c0-0.2-0.1-0.4,0.2-0.5c0.3-0.1,0.7-0.1,1,0.1c0.2,0.1,0.1,0.4,0.1,0.5
			c0,1.6,0,3.2,0,4.8c0,0.7,0,1.4,0,2.1c0,0.6,0,0.6,0.6,0.6c0.4,0,0.9,0,1.3,0c0.4,0,0.4,0.2,0.4,0.5c0,0.2,0,0.4-0.3,0.4
			c-0.9,0-1.9,0-2.8,0c-0.4,0-0.5-0.1-0.5-0.5C88.6,106.9,88.6,105.5,88.6,104.2z"/>
		<path class="st3" d="M114.9,104.2c0-1.3,0-2.6,0-3.9c0-0.6,0-0.6,0.6-0.6c0.7,0,0.7,0,0.7,0.6c0,2.2,0,4.4,0,6.5
			c0,0.2,0,0.3,0,0.5c-0.1,0.5,0.2,0.6,0.6,0.5c0.4,0,0.9,0,1.3,0c0.4,0,0.4,0.2,0.4,0.5c0,0.3-0.1,0.4-0.4,0.4c-0.9,0-1.8,0-2.7,0
			c-0.4,0-0.5-0.1-0.5-0.5C114.9,106.9,114.9,105.6,114.9,104.2z"/>
		<path class="st3" d="M101.2,117.9c-0.2-0.8-0.1-0.8,0.5-1c0.4-0.1,0.8-0.3,1.1-0.6c0.2-0.2,0.4-0.2,0.6-0.2c0.5,0,0.5,0,0.5,0.5
			c0,2.7,0,5.3,0,8c0,0.2,0.1,0.4-0.2,0.5c-0.3,0-0.7,0.1-0.9-0.1c-0.2-0.1-0.1-0.4-0.1-0.5c0-1.9,0-3.8,0-5.6c0-0.4,0-0.7,0-1.1
			C102.2,117.6,101.7,118,101.2,117.9z"/>
		<path class="st3" d="M98.6,49c0,1.8,0,3.7,0,5.5c0,0.2,0.1,0.5-0.2,0.6c-0.3,0.1-0.5,0.1-0.8,0c-0.2-0.1-0.1-0.3-0.1-0.5
			c0-1.7,0-3.4,0.1-5.1c0-1.1,0.1-2.2,0.1-3.4c0-0.6,0-0.6,0.6-0.6c0.8,0,0.8,0,0.9,0.8c0.4,2,0.9,4,1.3,6c0,0.2,0.1,0.4,0.3,0.6
			c0.5-2.2,1-4.5,1.5-6.7c0.1-0.2,0-0.5,0.3-0.6c0.3-0.1,0.7-0.1,1.1,0c0.2,0.1,0.1,0.3,0.1,0.5c0,1.1,0,2.2,0,3.3
			c0,1.7,0.1,3.4,0.1,5.2c0,0.2,0.1,0.4-0.1,0.5c-0.3,0.1-0.6,0.1-0.9,0c-0.2-0.1-0.1-0.3-0.1-0.4c0-1.1,0-2.3,0-3.4
			c0-0.6,0-1.1,0-1.7c0-0.1,0-0.3-0.2-0.4c-0.3,0.7-0.4,1.5-0.6,2.3c-0.3,1.1-0.5,2.1-0.8,3.2c-0.1,0.3,0,0.6-0.5,0.6
			c-0.5,0-0.5-0.3-0.6-0.6c-0.4-1.6-0.8-3.3-1.1-4.9c0-0.2-0.1-0.4-0.2-0.6C98.8,49,98.7,49,98.6,49z"/>
		<path class="st3" d="M60.8,50c1.4,0.9,1.8,2.8,1,4.1c-0.4,0.6-0.9,0.9-1.6,1c-0.9,0.1-1.8,0-2.7,0c-0.3,0-0.4-0.1-0.4-0.4
			c0-0.7,0-1.3,0-2c0-2.2,0-4.3,0-6.5c0-0.8-0.1-0.7,0.8-0.7c0.6,0,1.1,0,1.7,0c1.7,0,2.4,0.9,2.3,2.7C61.8,49.2,61.6,49.5,60.8,50z
			 M58.5,52.3c0,0.5,0,0.9,0,1.4c0,0.3,0.1,0.4,0.4,0.4c0.2,0,0.3,0,0.5,0c1,0,1.4-0.4,1.4-1.4c0-0.1,0-0.3,0-0.4
			c0-1.3-0.6-1.9-2-1.8c-0.3,0-0.4,0.1-0.4,0.4C58.5,51.4,58.5,51.9,58.5,52.3z M58.5,48.1C58.5,48.1,58.5,48.1,58.5,48.1
			c0,0.3,0,0.6,0,0.9c0,0.6,0,0.6,0.6,0.6c0.1,0,0.2,0,0.3,0c0.9-0.1,1.2-0.4,1.3-1.3c0.1-1.3-0.3-1.7-1.6-1.7c-0.1,0-0.2,0-0.2,0
			c-0.3,0-0.4,0.1-0.4,0.4C58.5,47.3,58.5,47.7,58.5,48.1z"/>
		<path class="st3" d="M75.1,49.9c1.3,0.9,1.6,2.1,1.2,3.6c-0.3,1-1,1.5-2,1.6c-0.8,0-1.6,0-2.4,0c-0.4,0-0.5-0.1-0.5-0.5
			c0-1.9,0-3.8,0-5.6c0-1,0-1.9,0-2.9c0-0.4,0.2-0.6,0.6-0.5c0.7,0,1.4,0,2.1,0c1.3,0.1,2,0.7,2.1,2C76.2,48.6,76.1,49.5,75.1,49.9z
			 M72.7,52.3C72.7,52.3,72.7,52.3,72.7,52.3c0,0.3,0,0.5,0,0.8c0,1.1-0.2,1,1,1c0.9,0,1.3-0.4,1.3-1.3c0-0.2,0-0.3,0-0.5
			c0-1.3-0.7-1.9-2-1.8c-0.3,0-0.4,0.1-0.4,0.4C72.7,51.4,72.7,51.9,72.7,52.3z M72.7,48C72.7,48,72.7,48,72.7,48c0,0.4,0,0.8,0,1.2
			c0,0.2,0.1,0.3,0.3,0.3c1.3,0.2,1.9-0.3,1.9-1.6c0-0.1,0-0.3,0-0.4c-0.1-0.5-0.3-0.8-0.8-0.9c-0.2-0.1-0.5-0.1-0.7-0.1
			c-0.6,0-0.6,0-0.6,0.6C72.7,47.4,72.7,47.7,72.7,48z"/>
		<path class="st3" d="M124.1,51.5c0-1.7,0-3.3,0-4.9c0-0.2,0-0.3,0-0.5c0-0.5,0.5-0.8,1-0.6c0.1,0,0.1,0.1,0.2,0.2
			c0,0.1,0,0.2,0,0.2c0,3,0,6,0,9c-0.9,0.2-0.9,0.2-1.2-0.5c-0.7-1.6-1.4-3.2-2-4.8c-0.1-0.2-0.1-0.4-0.4-0.6c0,0.7,0,1.3,0,2
			c0,1.1,0,2.3,0,3.4c0,0.7,0,0.7-0.7,0.7c-0.1,0-0.3,0-0.4,0c-0.1-0.2-0.1-0.3-0.1-0.5c0-2.8,0-5.6,0-8.4c0-0.2-0.2-0.6,0.2-0.7
			c0.5-0.1,0.7,0,0.9,0.5c0.7,1.6,1.3,3.1,2,4.7C123.7,50.9,123.8,51.2,124.1,51.5z"/>
		<path class="st3" d="M89.8,50.3c0-0.8,0-1.6,0-2.5c0-0.9,0.4-1.7,1.3-2.1c1-0.4,2-0.4,3,0.2c0.7,0.5,0.9,1.3,1,2.1
			c0,1.6,0,3.1,0,4.7c0,0.1,0,0.2,0,0.2c-0.3,2-1.9,2.9-3.8,2.1c-0.9-0.4-1.3-1.1-1.4-2.1C89.8,52.1,89.8,51.2,89.8,50.3
			C89.8,50.3,89.8,50.3,89.8,50.3z M93.6,50.4c0-0.9,0-1.8,0-2.7c0-0.8-0.4-1.1-1.2-1.1c-0.8,0-1.1,0.3-1.2,1.1c0,0.2,0,0.3,0,0.5
			c0,1.5,0,2.9,0,4.4c0,0.3,0,0.6,0.1,0.9c0.2,0.4,0.5,0.7,0.9,0.7c0.9,0.1,1.4-0.3,1.4-1.2C93.7,52.1,93.6,51.2,93.6,50.4z"/>
		<path class="st3" d="M101.9,28.5c0,0.8,0,1.5,0,2.2c0,0.5,0,1-0.2,1.4c-0.3,0.7-0.8,1.2-1.5,1.4c-0.5,0.1-1.1,0.1-1.6,0
			c-0.9-0.2-1.4-0.7-1.7-1.6c-0.1-0.3-0.2-0.6-0.2-0.9c-0.1-1.6-0.1-3.2,0-4.8c0-0.3,0.1-0.6,0.2-0.9c0.1-0.3,0.2-0.6,0.5-0.8
			c0.9-0.8,1.9-0.9,3-0.6c1,0.3,1.4,1,1.5,1.9C101.9,26.8,101.8,27.7,101.9,28.5z M100.5,28.7C100.5,28.7,100.5,28.7,100.5,28.7
			c0-0.9,0-1.8,0-2.7c0-0.8-0.5-1.1-1.2-1.1c-0.7,0-1.1,0.3-1.2,1.1c-0.1,1.8-0.1,3.6,0,5.5c0,0.1,0,0.2,0.1,0.3
			c0.2,0.4,0.4,0.7,0.9,0.7c0.9,0.1,1.4-0.3,1.5-1.3C100.5,30.4,100.5,29.5,100.5,28.7z"/>
		<path class="st3" d="M83.9,50.3c0,0.9-0.1,1.9,0.1,2.8c0.1,0.7,0.4,1,0.9,1c0.8,0.1,1.2-0.2,1.3-1c0.1-0.4,0.1-0.8,0-1.1
			c0-0.4,0.2-0.5,0.5-0.5c0.8,0,0.8,0,0.8,0.8c0,0.3,0,0.7-0.1,1c-0.3,1.3-1,1.9-2.3,1.9c-1.4,0-2.2-0.6-2.5-1.9
			c-0.1-0.4-0.2-0.9-0.1-1.3c0-1.1,0-2.3,0-3.4c0-0.5,0.1-1,0.2-1.5c0.2-0.9,0.8-1.5,1.7-1.7c0.4-0.1,0.9-0.1,1.3,0
			c1,0.2,1.5,0.7,1.8,1.7c0.1,0.5,0.1,0.9,0.1,1.4c0,0.4-0.2,0.5-0.5,0.5c-0.1,0-0.2,0-0.3,0c-0.3,0-0.5-0.1-0.5-0.5
			c0-0.3,0-0.7,0-1c-0.1-0.7-0.4-1-1.1-1c-0.7,0-1.1,0.3-1.2,1C83.8,48.5,83.9,49.4,83.9,50.3z"/>
		<path class="st3" d="M112.9,55c0.5-2.2,0.9-4.5,1.4-6.7c0.2-0.8,0.3-1.5,0.5-2.3c0.1-0.3,0.2-0.5,0.6-0.5c0.8,0.1,0.8-0.2,1,0.8
			c0.6,2.7,1.1,5.3,1.7,8c0.1,0.2,0.1,0.5,0.1,0.7c-0.1,0-0.1,0.1-0.2,0.1c-1.1,0.1-1.1,0.1-1.3-1c0-0.1,0-0.2-0.1-0.2
			c-0.1-0.4,0-0.9-0.3-1.1c-0.5-0.2-1.1-0.1-1.6-0.1c-0.2,0-0.2,0.2-0.3,0.3c-0.1,0.5-0.2,1-0.3,1.4c0,0.4-0.2,0.6-0.7,0.6
			C113.4,55.1,113.2,55.2,112.9,55z M115.7,47.9c0,0-0.1,0-0.1,0c-0.2,0.9-0.3,1.8-0.5,2.6c-0.3,1.3-0.3,1.1,1,1.1
			c0.1,0,0.2-0.1,0.3-0.1C116.1,50.4,115.9,49.2,115.7,47.9z"/>
		<path class="st3" d="M141.3,48.2c-0.1-0.3-0.1-0.6-0.2-0.8c-0.2-0.8-0.8-1.1-1.6-0.9c-0.6,0.2-0.8,0.9-0.5,1.6
			c0.1,0.3,0.3,0.5,0.6,0.7c0.6,0.5,1.2,1,1.7,1.5c0.7,0.7,1.2,1.4,1.2,2.4c0,1.2-0.6,2.1-1.7,2.3c-1.2,0.3-2.3-0.2-2.8-1.3
			c-0.2-0.3-0.2-0.7-0.3-1c-0.1-0.3,0-0.5,0.4-0.6c0.7-0.2,0.7-0.2,0.9,0.6c0.2,0.9,0.6,1.3,1.3,1.3c0.5,0,0.9-0.3,0.9-0.8
			c0.1-0.7-0.2-1.3-0.7-1.8c-0.6-0.6-1.3-1.2-2-1.7c-0.9-0.8-1.1-1.8-0.8-2.9c0.1-0.4,0.3-0.8,0.7-1c0.8-0.6,1.7-0.6,2.7-0.2
			c0.8,0.3,1.1,1.1,1.2,1.9c0.1,0.3,0,0.4-0.3,0.5C141.9,48.1,141.6,48.2,141.3,48.2z"/>
		<path class="st3" d="M65.8,54c0.9,0,1.7,0,2.5,0c0.2,0,0.4-0.1,0.5,0.2c0.1,0.3,0.1,0.5,0,0.8c0,0.1-0.2,0.1-0.4,0.1
			c-1.3,0-2.5,0-3.8,0c-0.4,0-0.4-0.2-0.4-0.4c0-0.4,0.1-0.7,0.3-1c0.9-1.3,1.7-2.7,2.6-4c0.5-0.7,0.7-1.5,0.5-2.3
			c-0.1-0.7-0.6-1-1.2-0.8c-0.3,0.1-0.5,0.2-0.6,0.5c-0.1,0.2-0.2,0.5-0.2,0.8c0,0.2,0.1,0.5-0.1,0.7c-0.3,0.2-0.6,0.1-1,0.1
			c-0.2,0-0.2-0.1-0.2-0.3c0-0.9,0-1.8,0.9-2.4c0.8-0.6,1.7-0.6,2.6-0.2c0.8,0.3,1.1,1,1.2,1.8c0.1,1-0.1,1.8-0.7,2.6
			c-0.6,1-1.3,2-1.9,2.9C66.2,53.3,66.1,53.6,65.8,54z"/>
		<path class="st3" d="M104.4,28.7c0-1.4,0-2.8,0-4.2c0-0.6,0-0.6,0.6-0.6c0.7,0,1.4,0,2.1,0c1.1,0,1.7,0.6,2,1.7
			c0.1,0.5,0.1,1,0,1.5c-0.2,1.2-0.9,1.8-2.1,1.8c-0.4,0-0.9-0.2-1.2,0.1c-0.3,0.3-0.1,0.8-0.1,1.3c0,0.8,0,1.7,0,2.5
			c0,0.5-0.2,0.6-0.6,0.5c-0.1,0-0.1,0-0.2,0c-0.6,0-0.6,0.1-0.6-0.6C104.4,31.5,104.4,30.1,104.4,28.7z M107.8,26.5
			c0-1.3-0.3-1.6-1.7-1.6c-0.3,0-0.5,0.1-0.5,0.5c0,0.6,0,1.1,0,1.7c0,1,0.2,1.2,1.2,0.9C107.6,27.8,107.8,27.4,107.8,26.5z"/>
		<path class="st3" d="M106.5,50.3c0-1.4,0-2.8,0-4.2c0-0.6,0-0.6,0.6-0.6c0.7,0,1.4,0,2,0c1.2,0,1.8,0.6,2.1,1.7
			c0.1,0.5,0.1,1,0,1.5c-0.2,1.1-0.9,1.7-2.1,1.8c-0.4,0-0.9-0.2-1.2,0.1c-0.3,0.3-0.1,0.8-0.1,1.3c0,0.8,0,1.7,0,2.5
			c0,0.5-0.2,0.6-0.6,0.5c-0.1,0-0.2,0-0.2,0c-0.4,0.1-0.6-0.1-0.6-0.5C106.6,53.2,106.5,51.7,106.5,50.3z M107.9,48.1
			C107.9,48.1,107.9,48.1,107.9,48.1c0,0.4,0,0.8,0,1.2c0,0.2,0.1,0.4,0.3,0.3c0.2,0,0.5,0,0.7,0c0.7-0.1,1-0.4,1-1.1
			c0-0.4,0-0.8,0-1.1c-0.1-0.6-0.3-0.8-0.9-0.9c-0.2,0-0.4,0-0.7,0c-0.4,0-0.6,0.1-0.6,0.5C107.9,47.4,107.9,47.8,107.9,48.1z"/>
		<path class="st3" d="M132,50.3c0-1.4,0-2.8,0-4.3c0-0.4,0-0.6,0.5-0.5c1,0,1.9,0,2.9,0c0.4,0,0.5,0.2,0.4,0.5c0,0.3,0,0.5-0.4,0.5
			c-0.5,0-1,0-1.6,0c-0.3,0-0.4,0.1-0.4,0.4c0,0.8,0,1.5,0,2.3c0,0.3,0.1,0.4,0.4,0.4c0.3,0,0.7,0,1,0c0.4,0,0.5,0.1,0.5,0.5
			c0,0.4-0.2,0.5-0.5,0.5c-0.4,0-1-0.2-1.3,0.1c-0.3,0.3-0.1,0.9-0.1,1.4c0,0.5,0,1,0,1.6c0,0.3,0.1,0.4,0.4,0.4c0.5,0,1,0,1.6,0
			c0.4,0,0.4,0.2,0.4,0.5c0,0.3,0,0.5-0.4,0.5c-1,0-1.9,0-2.9,0c-0.4,0-0.5-0.1-0.5-0.5C132,53.2,132,51.8,132,50.3z"/>
		<path class="st3" d="M91.8,29.1c0-1.2,0-2.5,0-3.7c0-0.4-0.1-0.6-0.5-0.5c-0.2,0-0.3,0-0.5,0c-0.6,0-0.6-0.1-0.6-0.6
			c0-0.3,0.1-0.4,0.4-0.4c1.3,0,2.5,0,3.8,0c0.3,0,0.4,0.2,0.4,0.5c0,0.3,0,0.6-0.4,0.6c-0.4,0-0.9-0.2-1.1,0.1
			c-0.3,0.3-0.1,0.8-0.1,1.3c0,2.2,0,4.4,0,6.6c0,0.2,0.1,0.5-0.1,0.6c-0.4,0.1-0.8,0.1-1.1,0c-0.2-0.1-0.1-0.3-0.1-0.4
			C91.8,31.7,91.8,30.4,91.8,29.1z"/>
		<path class="st3" d="M128,55.1c-0.1-0.2-0.1-0.3-0.1-0.5c0-2.8,0-5.6,0-8.4c0-0.2-0.1-0.4,0.1-0.6c0.1-0.1,1.1,0,1.1,0
			c0,0.1,0.1,0.1,0.1,0.2c0,0.2,0,0.3,0,0.5c0,2.7,0,5.3,0,8c0,0.8,0,0.8-0.8,0.8C128.3,55.1,128.2,55.1,128,55.1z"/>
	</g>
	<path class="st5" d="M76.5,84.5c-4.3,0-7.9-3.9-7.6-8.8c0.3-3.8,2.5-6.6,6-7.5c3-0.8,5.8-0.1,8.1,2.1c0.5,0.5,0.5,0.5,0,1
		c-0.3,0.3-0.6,0.6-0.9,0.9c-0.5,0.5-0.5,0.5-1,0C80,71,78.6,70.5,77,70.5c-2.5,0-4.6,1.6-5.2,4.1c-0.3,1.3-0.3,2.6,0.2,3.8
		c1.5,4,6.2,4.4,8.8,2.2c0.3-0.2,0.5-0.7,0.8-0.6c0.4,0,0.6,0.5,0.9,0.7c0.1,0.1,0.2,0.2,0.3,0.3c0.8,0.8,0.8,0.8-0.1,1.6
		C81.1,83.8,79.3,84.5,76.5,84.5z"/>
	<path class="st5" d="M124,73.6c0.7-0.4,1.4-0.6,2.2-0.7c2.9-0.4,5.1,1.4,5.3,4.3c0.2,2.2,0,4.5,0.1,6.7c0,0.1,0,0.2-0.1,0.3
		c-0.7,0-1.5,0-2.2,0c-0.5,0-0.5-0.2-0.5-0.6c0-1.7,0-3.5,0-5.2c0-0.4,0-0.8-0.1-1.1c-0.2-1.2-1-1.8-2.3-1.7
		c-1.6,0.2-2.5,1.2-2.5,2.8c0,1.7,0,3.5,0,5.2c0,0.6,0,0.6-0.6,0.6c-0.6,0-1.2,0-1.8,0c-0.3,0-0.4-0.1-0.4-0.4c0-0.2,0-0.4,0-0.6
		c0-4.9,0-9.9,0-14.8c0-0.2,0-0.4,0-0.6c0-0.3,0.1-0.4,0.4-0.4c0.6,0,1.1,0,1.7,0c0.6,0,0.6,0,0.6,0.6c0,1.6,0,3.2,0,4.8
		C123.9,73,123.9,73.3,124,73.6z"/>
	<path class="st5" d="M100.6,78.7c0,1.6,0,3.3,0,4.9c0,0.4-0.1,0.6-0.5,0.6c-0.6,0-1.2,0-1.8,0c-0.1,0-0.2,0-0.2,0
		c-0.4-0.6-0.8-0.1-1.2,0.1c-1.1,0.5-2.2,0.5-3.4,0.2C92,84,91,83,90.5,81.6c-0.2-0.6-0.3-1.2-0.3-1.8c0-2,0-4.1,0-6.1
		c0-0.6,0-0.6,0.6-0.6c0.5,0,0.9,0,1.4,0c0.4,0,0.5,0.1,0.5,0.5c0,0.2,0,0.3,0,0.5c0,1.8,0,3.6,0,5.4c0,0.5,0.1,0.9,0.3,1.4
		c0.3,0.7,0.9,1.1,1.6,1.2c1.9,0.2,3.3-1,3.3-2.9c0-1.4,0-2.8,0-4.3c0-0.6-0.2-1.3,0.1-1.7c0.4-0.4,1.1-0.1,1.7-0.1
		c0.1,0,0.3,0,0.4,0c0.4-0.1,0.6,0.1,0.6,0.6c0,0.1,0,0.3,0,0.4C100.6,75.5,100.6,77.1,100.6,78.7z"/>
	<path class="st5" d="M120,82.5c-1.9,2.1-5.1,2.4-7.3,1.5c-2.5-1.1-3.8-3.5-3.5-6.3c0.3-2.4,2.2-4.4,4.8-4.8c2.1-0.4,4,0.1,5.7,1.5
		c0.3,0.3,0.3,0.4,0,0.7c-0.4,0.4-0.8,0.7-1.2,1.1c-0.3,0.3-0.5,0.3-0.8,0c-0.9-0.8-2-1-3.2-0.8c-1.6,0.4-2.7,1.7-2.6,3.3
		c0.1,1.7,1.4,3,3,3.1c1.1,0.1,2-0.1,2.8-0.9c0.3-0.3,0.5-0.3,0.7,0C118.9,81.5,119.4,82,120,82.5z"/>
	<path class="st5" d="M103.4,79.7c0-1.3,0-2.6,0-3.9c0-0.4-0.1-0.6-0.6-0.6c-1.2,0-1.2,0-1.2-1.2c0-0.1,0-0.1,0-0.2
		c0-0.8,0-0.8,0.8-0.8c1.1,0,1,0.1,1-1c0-0.8,0-1.6,0-2.5c0-0.4,0.1-0.5,0.5-0.5c0.7,0,1.4,0,2.1,0c0.4,0,0.5,0.1,0.5,0.5
		c0,1,0,1.9,0,2.9c0,0.4,0.1,0.6,0.5,0.6c0.4,0,0.8,0,1.1,0c0.3,0,0.4,0.1,0.4,0.4c0,0.5,0.2,1.2-0.1,1.6c-0.3,0.4-1,0.1-1.5,0.1
		c-0.5,0-0.5,0.2-0.5,0.6c0,2.4,0,4.9,0,7.3c0,0.2,0,0.4,0,0.6c0.1,0.4-0.2,0.5-0.5,0.5c-0.7,0-1.4,0-2.1,0c-0.4,0-0.5-0.1-0.5-0.5
		C103.4,82.3,103.4,81,103.4,79.7z"/>
	<path class="st5" d="M84.6,75.7c0-2.6,0-5.1,0-7.7c0-0.7,0-0.7,0.7-0.7c0.6,0,1.2,0,1.8,0c0.6,0,0.6,0,0.7,0.7c0,0.1,0,0.2,0,0.2
		c0,5,0,10,0,15c0,0.2,0,0.4,0,0.6c0,0.3-0.1,0.3-0.3,0.3c-0.8,0-1.6,0-2.5,0c-0.2,0-0.3-0.1-0.3-0.3c0-0.2,0-0.4,0-0.6
		C84.6,80.7,84.6,78.2,84.6,75.7z"/>
	<path class="st4" d="M117.2,78.6c0,1.1-0.8,2-2,2c-1.1,0-2.1-0.8-2.1-1.9c0-1.1,0.9-2,2-2C116.2,76.6,117.2,77.5,117.2,78.6z"/>
</g>
</svg>
