<svg id="Layer_1" data-name="Layer 1" xmlns="http://www.w3.org/2000/svg" xmlns:xlink="http://www.w3.org/1999/xlink" viewBox="0 0 213 100"><defs><style>.cls-1{fill:none;}.cls-2{fill:#00558b;}.cls-3{fill:#fff;}.cls-4{clip-path:url(#clip-path);}.cls-5{fill:#96ca4f;}.cls-6{fill:#58b6e7;}</style><clipPath id="clip-path"><rect class="cls-1" x="122.42" y="5.88" width="77.95" height="69.29"/></clipPath></defs><title>ibm-silver-business-partner</title><rect class="cls-2" y="5.88" width="200.37" height="88.24"/><path class="cls-3" d="M96,44.2a2.17,2.17,0,1,0,2.17,2.17h0A2.17,2.17,0,0,0,96,44.2m0,4.06a1.89,1.89,0,1,1,1.81-2s0,.05,0,.08a1.84,1.84,0,0,1-1.78,1.89h0"/><path class="cls-3" d="M97.15,45.81c0-.42-.22-.64-.86-.64H95.23v2.45h.31V46.51h.56l.7,1.11h.36l-.72-1.11c.42,0,.75-.19.75-.67M96,46.28h-.45v-.86h.7c.31,0,.61,0,.61.42s-.5.45-.86.45"/><path class="cls-3" d="M50.09,16.31a9.35,9.35,0,0,0-5.57-2.42h-18v2.42H50.09"/><path class="cls-3" d="M26.52,20.85H52.6A6.26,6.26,0,0,0,52,18.43H26.52Z"/><path class="cls-3" d="M52.82,23H45.33v2.39h7.15a7.85,7.85,0,0,0,.33-2.42"/><rect class="cls-3" x="31.25" y="22.96" width="7.01" height="2.42"/><path class="cls-3" d="M31.25,29.81H49.42a9,9,0,0,0,2-2.39H31.25Z"/><path class="cls-3" d="M51.57,34.35A12,12,0,0,0,49.4,32H31.25v2.39H51.54"/><path class="cls-3" d="M31.25,38.88h7.12V36.49H31.25Z"/><path class="cls-3" d="M45.44,36.49v2.42H53a7,7,0,0,0-.45-2.42Z"/><path class="cls-3" d="M26.52,43.31H51.79a5.18,5.18,0,0,0,.92-2.39H26.52Z"/><path class="cls-3" d="M26.52,47.87H44.11a8.77,8.77,0,0,0,6.09-2.39H26.52Z"/><polyline class="cls-3" points="87.52 22.96 76.17 22.96 75.3 25.39 87.52 25.39 87.52 22.96"/><polygon class="cls-3" points="54.82 20.85 69.91 20.85 69.07 18.43 54.82 18.43 54.82 20.85"/><rect class="cls-3" x="80.62" y="31.95" width="6.9" height="2.39"/><polygon class="cls-3" points="59.44 25.39 71.52 25.39 70.69 22.96 59.44 22.96 59.44 25.39"/><rect class="cls-3" x="80.62" y="36.46" width="6.87" height="2.39"/><rect class="cls-3" x="80.62" y="40.91" width="11.52" height="2.39"/><polygon class="cls-3" points="73.33 47.84 73.63 47.84 74.5 45.45 72.49 45.45 73.33 47.84"/><rect class="cls-3" x="54.82" y="45.45" width="11.52" height="2.42"/><polyline class="cls-3" points="68.32 16.31 67.46 13.89 54.82 13.89 54.82 16.31 68.32 16.31"/><polygon class="cls-3" points="71.71 43.31 75.25 43.31 76.06 40.91 70.88 40.91 71.71 43.31"/><polyline class="cls-3" points="73.11 29.81 72.24 27.42 59.44 27.42 59.44 29.81 66.34 29.81 66.34 27.97 66.98 29.81 73.11 29.81"/><rect class="cls-3" x="59.44" y="36.46" width="6.9" height="2.39"/><rect class="cls-3" x="59.44" y="31.95" width="6.9" height="2.39"/><rect class="cls-3" x="54.82" y="40.91" width="11.52" height="2.39"/><rect class="cls-3" x="80.62" y="45.45" width="11.52" height="2.42"/><polygon class="cls-3" points="76.92 20.85 92.14 20.85 92.14 18.43 77.75 18.43 76.92 20.85"/><polygon class="cls-3" points="78.5 16.31 92.14 16.31 92.14 13.89 79.37 13.89 78.5 16.31"/><path class="cls-3" d="M70.18,38.88h6.62l.86-2.42H69.32l.86,2.39"/><path class="cls-3" d="M68.65,34.35h9.74S79.2,32,79.23,32H67.73l.86,2.42"/><path class="cls-3" d="M87.52,29.81V27.42H74.58l-.81,2.39H80L80.62,28v1.84Z"/><polyline class="cls-3" points="8.02 45.45 8.02 47.87 24.41 47.87 24.38 45.45 8.02 45.45"/><rect class="cls-3" x="12.61" y="27.42" width="7.04" height="2.39"/><rect class="cls-3" x="12.61" y="22.96" width="7.04" height="2.39"/><rect class="cls-3" x="12.61" y="31.95" width="7.04" height="2.39"/><rect class="cls-3" x="8.01" y="18.43" width="16.36" height="2.39"/><rect class="cls-3" x="8.01" y="13.89" width="16.36" height="2.42"/><rect class="cls-3" x="12.61" y="36.46" width="7.04" height="2.39"/><path class="cls-3" d="M24.38,40.91H8v2.39H24.38V40.91"/><g class="cls-4"><polygon class="cls-5" points="164.35 74.8 143.33 62.69 143.33 38.4 159.34 29.16 159.74 29.85 144.14 38.87 144.14 62.22 164.35 73.87 184.57 62.22 184.57 38.63 185.38 38.63 185.38 62.69 164.35 74.8"/><polygon class="cls-5" points="164.35 69.26 148.12 59.9 148.12 41.18 159.37 34.69 159.77 35.39 148.93 41.65 148.93 59.44 164.35 68.33 179.96 59.32 180.36 60.02 164.35 69.26"/><polygon class="cls-5" points="180.56 54.05 179.76 54.05 179.76 41.65 168.94 35.39 169.34 34.69 180.56 41.18 180.56 54.05"/><rect class="cls-5" x="194.87" y="56.51" width="0.81" height="23.78" transform="translate(38.44 203.35) rotate(-60.01)"/><polygon class="cls-5" points="205.37 69.15 189.36 59.9 189.36 41.18 200.58 34.69 200.99 35.39 190.17 41.65 190.17 59.44 205.77 68.45 205.37 69.15"/><rect class="cls-5" x="163.95" y="2.93" width="0.81" height="23.82"/><polygon class="cls-5" points="184.98 39.1 168.94 29.85 169.34 29.16 184.98 38.17 200.58 29.16 200.99 29.85 184.98 39.1"/><rect class="cls-5" x="168.74" y="5.29" width="0.81" height="18.67"/><polygon class="cls-5" points="184.98 33.59 173.7 27.07 174.1 26.37 184.98 32.66 195.88 26.34 196.28 27.04 184.98 33.59"/><polygon class="cls-6" points="164.35 27.16 143.33 15.02 143.33 2.93 144.14 2.93 144.14 14.55 164.35 26.23 184.57 14.55 184.57 2.93 185.38 2.93 185.38 15.02 164.35 27.16"/><polygon class="cls-6" points="169.34 18.75 168.94 18.05 179.76 11.79 179.76 2.93 180.56 2.93 180.56 12.26 169.34 18.75"/><polygon class="cls-6" points="164.15 21.5 148.12 12.26 148.12 2.93 148.93 2.93 148.93 11.79 164.56 20.81 164.15 21.5"/><polygon class="cls-6" points="205.37 21.5 189.36 12.26 189.36 2.93 190.17 2.93 190.17 11.79 205.77 20.81 205.37 21.5"/><path class="cls-6" d="M143.73,62.92l-21-12.12V26.46l21-12.12,21,12.12V50.8ZM123.52,50.34,143.73,62,164,50.34V26.93L143.73,15.28,123.52,26.93Z"/><polygon class="cls-6" points="143.53 57.21 127.52 47.97 127.52 29.22 143.73 19.86 159.97 29.21 159.97 47.97 148.75 54.45 148.35 53.76 159.17 47.5 159.17 29.68 143.73 20.79 128.33 29.68 128.33 47.5 143.94 56.51 143.53 57.21"/><path class="cls-6" d="M185,62.92,164,50.78V26.46l21-12.12,21,12.12V50.78ZM164.76,50.31,185,62l20.19-11.68V26.93L185,15.28,164.76,26.93Z"/><polygon class="cls-6" points="189.94 54.45 189.53 53.76 200.58 47.38 200.98 48.08 189.94 54.45"/><polygon class="cls-6" points="184.78 57.21 168.74 47.97 168.74 29.22 184.98 19.86 200.99 29.1 200.58 29.8 184.98 20.79 169.55 29.68 169.55 47.5 185.18 56.51 184.78 57.21"/><rect class="cls-5" x="163.95" y="2.93" width="0.81" height="20.82"/><rect class="cls-5" x="168.74" y="2.93" width="0.81" height="18.23"/><rect class="cls-5" x="189.36" y="41.42" width="0.81" height="14.39"/><rect class="cls-5" x="143.33" y="38.63" width="0.81" height="20.18"/><rect class="cls-5" x="148.12" y="41.42" width="0.81" height="14.39"/></g><path class="cls-2" d="M204.09,89.36h-1.73v-.56h4.12v.56h-1.73v4.73h-.64Zm3.31-.58h1.09l1.73,4.31,1.67-4.31H213v5.32h-.7V89.36h0l-1.89,4.7H210l-1.86-4.7h0v4.7h-.7Z"/><path class="cls-2" d="M204.09,89.36h-1.73v-.56h4.12v.56h-1.73v4.73h-.64Zm3.31-.58h1.09l1.73,4.31,1.67-4.31H213v5.32h-.7V89.36h0l-1.89,4.7H210l-1.86-4.7h0v4.7h-.7Z"/><rect class="cls-5" x="184.57" y="38.63" width="0.81" height="19.79"/><path class="cls-3" d="M12.13,57.64a4.81,4.81,0,0,1,3.2,1,3.42,3.42,0,0,1,1.2,2.78H15a2.56,2.56,0,0,0-2.64-2.48l-.31,0a3.23,3.23,0,0,0-2,.53,1.78,1.78,0,0,0-.7,1.5,1.42,1.42,0,0,0,.53,1.09,9.35,9.35,0,0,0,3.31,1A6.26,6.26,0,0,1,16,64.32,2.78,2.78,0,0,1,17,66.57a3,3,0,0,1-1.36,2.62,5.79,5.79,0,0,1-3.28.95A5.4,5.4,0,0,1,8.74,69a3.81,3.81,0,0,1-1.31-3.06h1.5a2.59,2.59,0,0,0,1,2.11,4,4,0,0,0,2.5.75,3.81,3.81,0,0,0,2.23-.56,1.86,1.86,0,0,0,.78-1.61,1.59,1.59,0,0,0-.75-1.39,7.46,7.46,0,0,0-2.59-.86,7.76,7.76,0,0,1-3.45-1.28,2.56,2.56,0,0,1-.83-2A3.09,3.09,0,0,1,9,58.59,4.84,4.84,0,0,1,12.13,57.64Z"/><path class="cls-3" d="M19.84,57.92v1.73H18.42V57.92Zm0,3.28v8.68H18.42V61.26Z"/><path class="cls-3" d="M23.13,57.92v12H21.71v-12Z"/><path class="cls-3" d="M25.66,61.2l2.42,7.21h0l2.37-7.21h1.47L28.8,69.88H27.27L24.13,61.2Z"/><path class="cls-3" d="M36.12,61a3.45,3.45,0,0,1,2.78,1.31,5.57,5.57,0,0,1,1,3.45v.17H33.56a2.78,2.78,0,0,0,.72,2,2.62,2.62,0,0,0,2,.75A2,2,0,0,0,38.49,67h1.39a3.48,3.48,0,0,1-1.25,2.2,3.9,3.9,0,0,1-2.45.75,3.7,3.7,0,0,1-3.09-1.34A5.06,5.06,0,0,1,32,65.38a4.56,4.56,0,0,1,1.14-3.2A3.76,3.76,0,0,1,36.12,61Zm2.39,3.67a2.62,2.62,0,0,0-.75-1.75,2.37,2.37,0,0,0-1.75-.7,2.31,2.31,0,0,0-1.67.67,2.78,2.78,0,0,0-.78,1.78Z"/><path class="cls-3" d="M46,61v1.5a3,3,0,0,0-2.37.83A3.84,3.84,0,0,0,42.88,66v3.92H41.46V61.26H42.8v1.81h0a3.17,3.17,0,0,1,3-2Z"/><path class="cls-3" d="M13.19,73.5a3.87,3.87,0,0,1,3,.89,3.06,3.06,0,0,1,.81,2,2.68,2.68,0,0,1-1.75,2.67h0a2.78,2.78,0,0,1,1.7,1A3,3,0,0,1,17.5,82a3.23,3.23,0,0,1-1,2.45,3.53,3.53,0,0,1-2.53,1H8.1V73.5ZM13,78.62a3.14,3.14,0,0,0,1.84-.45,1.67,1.67,0,0,0,.61-1.45,1.81,1.81,0,0,0-.53-1.42A2.78,2.78,0,0,0,13,74.84H9.68v3.78Zm.78,5.57a2.2,2.2,0,0,0,1.56-.56,2.06,2.06,0,0,0,.61-1.56q0-2-2.78-2H9.68v4Z"/><path class="cls-3" d="M20.37,76.79v5.87a1.67,1.67,0,0,0,.47,1.22,1.73,1.73,0,0,0,1.28.47A2.42,2.42,0,0,0,24,83.63a2.78,2.78,0,0,0,.64-1.92V76.79h1.42v8.63H24.74V84h0A3,3,0,0,1,22,85.61a2.78,2.78,0,0,1-3-3.06V76.79Z"/><path class="cls-3" d="M30.83,76.59a4.12,4.12,0,0,1,2.59.67,2.78,2.78,0,0,1,.92,2H32.92a1.39,1.39,0,0,0-.45-1.06,2.45,2.45,0,0,0-1.39-.36,2.78,2.78,0,0,0-1.39.36.92.92,0,0,0,0,1.59,4,4,0,0,0,1.31.5l1.34.31a4.4,4.4,0,0,1,1.89.83A1.92,1.92,0,0,1,34.87,83a2.34,2.34,0,0,1-1,2,4.48,4.48,0,0,1-2.78.72A4.29,4.29,0,0,1,28.5,85a2.78,2.78,0,0,1-1-2.2h1.42A1.53,1.53,0,0,0,29.53,84a2.78,2.78,0,0,0,1.7.45q2.09,0,2.09-1.28a1,1,0,0,0-.5-.89,7.43,7.43,0,0,0-2.17-.7,5.23,5.23,0,0,1-2.28-.89,1.92,1.92,0,0,1-.7-1.56,2.14,2.14,0,0,1,.86-1.78A3.78,3.78,0,0,1,30.83,76.59Z"/><path class="cls-3" d="M37.54,73.5v1.73H36.12V73.5Zm0,3.28v8.63H36.12V76.79Z"/><path class="cls-3" d="M43.61,76.59q3,0,3,3.09v5.73H45.17V79.54a1.7,1.7,0,0,0-.45-1.2,1.73,1.73,0,0,0-1.31-.47,2.39,2.39,0,0,0-1.89.72,2.78,2.78,0,0,0-.67,1.92v4.93H39.43V76.81h1.39v1.42h0A3.06,3.06,0,0,1,43.61,76.59Z"/><path class="cls-3" d="M52,76.59a3.45,3.45,0,0,1,2.78,1.31,5.57,5.57,0,0,1,1,3.45v.17h-6.6a2.78,2.78,0,0,0,.72,2,2.62,2.62,0,0,0,2,.75,2,2,0,0,0,2.23-1.7h1.39a3.48,3.48,0,0,1-1.25,2.2,3.9,3.9,0,0,1-2.45.75,3.7,3.7,0,0,1-3.09-1.34A5.06,5.06,0,0,1,47.78,81a4.56,4.56,0,0,1,1.14-3.2A3.76,3.76,0,0,1,52,76.59Zm2.39,3.7a2.62,2.62,0,0,0-.75-1.75,2.37,2.37,0,0,0-1.75-.7,2.31,2.31,0,0,0-1.67.67,2.78,2.78,0,0,0-.78,1.78Z"/><path class="cls-3" d="M60.14,76.59a4.12,4.12,0,0,1,2.59.67,2.78,2.78,0,0,1,.92,2H62.22a1.39,1.39,0,0,0-.61-1.06,2.45,2.45,0,0,0-1.39-.36,2.78,2.78,0,0,0-1.34.28.92.92,0,0,0,0,1.59,4,4,0,0,0,1.31.5l1.34.31a4.4,4.4,0,0,1,1.89.83,1.92,1.92,0,0,1,.64,1.56,2.34,2.34,0,0,1-1,2,4.48,4.48,0,0,1-2.78.72,4.29,4.29,0,0,1-2.62-.72,2.78,2.78,0,0,1-1-2.2h1.42A1.53,1.53,0,0,0,58.72,84a2.78,2.78,0,0,0,1.7.45q2.09,0,2.09-1.28a1,1,0,0,0-.5-.89,7.43,7.43,0,0,0-2.17-.7,5.23,5.23,0,0,1-2.28-.89,1.92,1.92,0,0,1-.7-1.56,2.14,2.14,0,0,1,.89-1.78A3.78,3.78,0,0,1,60.14,76.59Z"/><path class="cls-3" d="M68.51,76.59a4.12,4.12,0,0,1,2.59.67,2.78,2.78,0,0,1,.92,2H70.6A1.39,1.39,0,0,0,70,78.23a2.45,2.45,0,0,0-1.39-.36,2.78,2.78,0,0,0-1.34.28.92.92,0,0,0,0,1.59,4,4,0,0,0,1.31.5l1.34.31a4.4,4.4,0,0,1,1.89.83,1.92,1.92,0,0,1,.64,1.56,2.34,2.34,0,0,1-1,2,4.48,4.48,0,0,1-2.78.72,4.29,4.29,0,0,1-2.62-.72,2.78,2.78,0,0,1-1-2.2h1.42A1.53,1.53,0,0,0,67.09,84a2.78,2.78,0,0,0,1.7.45q2.09,0,2.09-1.28a1,1,0,0,0-.5-.89,7.43,7.43,0,0,0-2.17-.7,5.23,5.23,0,0,1-2.28-.89,1.92,1.92,0,0,1-.7-1.56,2.14,2.14,0,0,1,.89-1.78A3.78,3.78,0,0,1,68.51,76.59Z"/><path class="cls-3" d="M83.29,73.5a3.73,3.73,0,0,1,2.59.89,3.4,3.4,0,0,1,1,2.64,3.51,3.51,0,0,1-.92,2.62,3.45,3.45,0,0,1-2.56.92H79.56v4.87H78V73.5Zm-.45,5.7a2.78,2.78,0,0,0,1.78-.53A2,2,0,0,0,85.27,77q0-2.2-2.53-2.2H79.56v4.37Z"/><path class="cls-3" d="M91.53,76.59q3.23,0,3.23,2.31v4.9q0,.47.45.47a1.2,1.2,0,0,0,.45,0v1.11a2.06,2.06,0,0,1-1,.22q-1.2,0-1.2-1.34a3.78,3.78,0,0,1-3,1.34A3.2,3.2,0,0,1,88.3,85a2.2,2.2,0,0,1-.75-1.81,2.37,2.37,0,0,1,.75-1.84,7.15,7.15,0,0,1,3.48-1A2.78,2.78,0,0,0,93,79.93a.83.83,0,0,0,.33-.7q0-1.42-1.92-1.42a2.62,2.62,0,0,0-1.59.39,1.59,1.59,0,0,0-.58,1.25H87.85Q88.13,76.59,91.53,76.59ZM89,83.1a1.11,1.11,0,0,0,.45.95,2,2,0,0,0,1.22.33,3,3,0,0,0,1.89-.56,1.67,1.67,0,0,0,.75-1.36V81a2.25,2.25,0,0,1-1,.36l-1.45.22a2.78,2.78,0,0,0-1.39.5A1.31,1.31,0,0,0,89,83.1Z"/><path class="cls-3" d="M101.49,76.59v1.64a3,3,0,0,0-2.37.83,3.84,3.84,0,0,0-.75,2.62v3.87H97V76.92h1.34v1.81h0a3.17,3.17,0,0,1,3-2Z"/><path class="cls-3" d="M105.44,74.2v2.59h1.73V78h-1.73v5.4a.81.81,0,0,0,.14.56,2,2,0,0,0,.75.17h.81v1.25H106a2.42,2.42,0,0,1-1.53-.36A1.84,1.84,0,0,1,104,83.6V78h-1.47V76.79H104V74.2Z"/><path class="cls-3" d="M112.71,76.59q3,0,3,3.09v5.73h-1.42V79.54a1.7,1.7,0,0,0-.45-1.2,1.73,1.73,0,0,0-1.31-.47,2.39,2.39,0,0,0-1.86.72,2.78,2.78,0,0,0-.67,1.92v4.93h-1.42V76.81h1.34v1.42h0A3.06,3.06,0,0,1,112.71,76.59Z"/><path class="cls-3" d="M121,76.59a3.45,3.45,0,0,1,2.78,1.31,5.57,5.57,0,0,1,1,3.45v.17h-6.37a2.78,2.78,0,0,0,.72,2,2.62,2.62,0,0,0,2,.75,2,2,0,0,0,2.23-1.7h1.39a3.48,3.48,0,0,1-1.25,2.2,3.9,3.9,0,0,1-2.45.75A3.7,3.7,0,0,1,118,84.19a5.06,5.06,0,0,1-1-3.17,4.56,4.56,0,0,1,1.14-3.2A3.76,3.76,0,0,1,121,76.59Zm2.42,3.7a2.62,2.62,0,0,0-.75-1.75,2.37,2.37,0,0,0-1.75-.7,2.31,2.31,0,0,0-1.67.67,2.78,2.78,0,0,0-.78,1.78Z"/><path class="cls-3" d="M130.88,76.59v1.64a3,3,0,0,0-2.37.83,3.84,3.84,0,0,0-.75,2.62v3.87h-1.42V76.92h1.34v1.81h0a3.17,3.17,0,0,1,3-2Z"/></svg>