<?xml version="1.0" encoding="utf-8"?>
<!-- Generator: Adobe Illustrator 22.0.1, SVG Export Plug-In . SVG Version: 6.00 Build 0)  -->
<svg version="1.1" id="Layer_1" xmlns="http://www.w3.org/2000/svg" xmlns:xlink="http://www.w3.org/1999/xlink" x="0px" y="0px"
	 viewBox="0 0 148 50" style="enable-background:new 0 0 148 50;" xml:space="preserve">
<style type="text/css">
	.st0{fill:#080808;}
	.st1{fill:#777471;}
	.st2{fill:#E34C22;}
	.st3{fill:#6DBB29;}
	.st4{fill:#599DD5;}
	.st5{fill:#F3BF00;}
	.st6{fill:#7F6D1F;}
</style>
<title>MS_Gold_partner</title>
<g>
	<path class="st0" d="M14.8,28.4h-1.7v-9.7c0-0.8,0-1.7,0.1-2.8h0c-0.1,0.5-0.3,0.9-0.4,1.4L7.9,28.4H7.1l-4.9-11
		c-0.2-0.5-0.3-1-0.4-1.5h0c0.1,0.6,0.1,1.5,0.1,2.8v9.7H0.1V14h2.2L6.8,24c0.3,0.6,0.5,1.1,0.7,1.7h0.1c0.3-0.9,0.6-1.5,0.7-1.8
		l4.5-10h2.1V28.4"/>
	<path class="st0" d="M19.5,28.4h-1.6V18.1h1.6V28.4 M19.8,14.4c0,0.3-0.1,0.6-0.3,0.8c-0.4,0.4-1.1,0.4-1.5,0
		c-0.2-0.2-0.3-0.5-0.3-0.8c0-0.3,0.1-0.5,0.3-0.7c0.2-0.2,0.5-0.3,0.8-0.3c0.3,0,0.6,0.1,0.8,0.3C19.7,13.9,19.8,14.1,19.8,14.4"/>
	<path class="st0" d="M29.3,27.9c-0.9,0.5-1.8,0.7-2.8,0.7c-0.9,0-1.8-0.2-2.5-0.6c-0.7-0.4-1.4-1.1-1.7-1.8
		c-0.4-0.8-0.6-1.7-0.6-2.7c0-1.7,0.5-3.1,1.5-4.1c1-1,2.3-1.6,3.9-1.5c0.8,0,1.6,0.2,2.4,0.5v1.7c-0.7-0.5-1.6-0.8-2.4-0.8
		c-1,0-1.9,0.4-2.6,1.1c-0.7,0.8-1,1.7-1,2.9c0,1.2,0.3,2.2,0.9,2.8c0.7,0.7,1.6,1.1,2.5,1c0.9,0,1.8-0.3,2.5-0.9L29.3,27.9"/>
	<path class="st0" d="M36.6,19.8c-0.4-0.2-0.8-0.4-1.3-0.3c-0.7,0-1.3,0.3-1.8,1c-0.5,0.7-0.7,1.6-0.7,2.7v5.2h-1.6V18.1h1.6v2.1h0
		c0.2-0.6,0.6-1.2,1.1-1.7c0.4-0.4,1-0.6,1.6-0.6c0.3,0,0.7,0,1,0.1L36.6,19.8"/>
	<path class="st0" d="M45.3,23.3c0-1.3-0.3-2.3-0.9-3c-0.6-0.7-1.4-1-2.5-1c-1.1,0-1.9,0.4-2.5,1.1c-0.6,0.7-0.9,1.7-0.9,3
		c0,1.2,0.3,2.2,0.9,2.9c0.6,0.7,1.5,1,2.5,1c1.1,0,1.9-0.3,2.5-1C45,25.5,45.3,24.6,45.3,23.3 M47,23.2c0,1.6-0.5,2.9-1.4,3.9
		s-2.2,1.5-3.7,1.5c-1.5,0-2.7-0.5-3.6-1.5c-0.9-1-1.4-2.2-1.4-3.8c0-1.7,0.5-3,1.4-4s2.2-1.5,3.8-1.5c1.5,0,2.7,0.5,3.6,1.4
		C46.5,20.2,47,21.6,47,23.2"/>
	<path class="st0" d="M54.6,25.6c0,0.8-0.4,1.7-1,2.2c-0.7,0.6-1.6,0.8-2.7,0.8c-0.9,0-1.8-0.2-2.5-0.6v-1.8c0.7,0.6,1.7,1,2.7,1
		c1.3,0,2-0.5,2-1.4c0-0.4-0.1-0.7-0.4-0.9c-0.3-0.2-0.8-0.6-1.7-1c-0.9-0.4-1.6-0.8-1.9-1.3c-0.9-1.2-0.7-2.9,0.5-3.9
		c0.7-0.6,1.7-0.9,2.6-0.9c0.8,0,1.5,0.2,2.2,0.5V20c-0.7-0.5-1.5-0.7-2.3-0.7c-0.5,0-0.9,0.1-1.3,0.4c-0.3,0.2-0.5,0.6-0.5,1
		c0,0.4,0.1,0.8,0.4,1.1c0.3,0.2,0.8,0.5,1.6,0.9c1,0.4,1.7,0.9,2.1,1.3C54.4,24.4,54.6,25,54.6,25.6"/>
	<path class="st0" d="M64.2,23.3c0-1.3-0.3-2.3-0.9-3c-0.6-0.7-1.4-1-2.5-1c-1.1,0-1.9,0.4-2.5,1.1c-0.6,0.7-0.9,1.7-0.9,3
		c0,1.2,0.3,2.2,0.9,2.9c0.6,0.7,1.6,1.1,2.5,1c1.1,0,1.9-0.3,2.5-1C63.9,25.5,64.2,24.6,64.2,23.3 M65.8,23.2
		c0,1.6-0.5,2.9-1.4,3.9c-0.9,1-2.2,1.5-3.7,1.5c-1.5,0-2.7-0.5-3.6-1.5c-0.9-1-1.4-2.2-1.4-3.8c0-1.7,0.5-3,1.4-4
		c0.9-1,2.2-1.5,3.8-1.5c1.5,0,2.7,0.5,3.6,1.4C65.4,20.2,65.8,21.6,65.8,23.2"/>
	<path class="st0" d="M72.6,14.6c-0.3-0.2-0.7-0.3-1.1-0.3c-1.2,0-1.7,0.7-1.7,2.2v1.6h2.4v1.4h-2.4v8.9h-1.6v-8.9h-1.7v-1.4h1.7
		v-1.7c0-1,0.3-1.9,0.9-2.5c0.6-0.6,1.5-1,2.3-1c0.4,0,0.8,0,1.2,0.2L72.6,14.6"/>
	<path class="st0" d="M78.6,28.3c-0.5,0.2-1,0.4-1.5,0.3c-1.8,0-2.7-1-2.7-3v-6.1h-1.8v-1.4h1.8v-2.5l1.6-0.5v3.1h2.6v1.4H76v5.8
		c0,0.7,0.1,1.2,0.4,1.5c0.2,0.3,0.6,0.4,1.2,0.4c0.4,0,0.8-0.1,1.1-0.3V28.3"/>
	<path class="st0" d="M91.8,18.4c0-1.9-1.1-2.9-3.4-2.9h-2v5.9h1.8c1.2,0,2-0.3,2.7-0.8S91.8,19.4,91.8,18.4 M93.6,18.3
		c0,1.4-0.5,2.5-1.4,3.4c-1,0.9-2.2,1.3-3.8,1.3h-1.9v5.5h-1.7V14h4c1.5,0,2.7,0.4,3.6,1.1C93.1,15.9,93.6,16.9,93.6,18.3"/>
	<path class="st0" d="M100.5,23.2L98,23.5c-0.9,0.1-1.4,0.3-1.8,0.6c-0.3,0.3-0.5,0.7-0.5,1.4c0,0.5,0.2,0.9,0.6,1.2
		c0.4,0.3,0.9,0.5,1.4,0.5c0.8,0,1.5-0.3,2-0.9c0.5-0.6,0.8-1.4,0.8-2.2V23.2 M102.2,28.4h-1.6v-1.6h0c-0.7,1.2-1.8,1.9-3.2,1.9
		c-1,0-1.8-0.3-2.4-0.8c-0.6-0.6-0.9-1.4-0.9-2.2c0-1.9,1.1-3,3.4-3.4l3.1-0.4c0-1.7-0.7-2.6-2.1-2.6c-1.2,0-2.4,0.4-3.4,1.3v-1.7
		c0.5-0.3,1-0.5,1.5-0.7c0.6-0.2,1.3-0.3,1.9-0.3c2.4,0,3.6,1.3,3.6,3.9L102.2,28.4"/>
	<path class="st0" d="M110.1,19.8c-0.4-0.2-0.8-0.4-1.3-0.3c-0.7,0-1.3,0.3-1.8,1c-0.5,0.7-0.7,1.6-0.7,2.7v5.2h-1.6V18.1h1.6v2.1h0
		c0.2-0.6,0.6-1.2,1.1-1.7c0.4-0.4,1-0.6,1.6-0.6c0.3,0,0.7,0,1,0.1L110.1,19.8"/>
	<path class="st0" d="M117.8,28.3c-0.5,0.2-1,0.4-1.5,0.3c-1.8,0-2.7-1-2.7-3v-6.1h-1.8v-1.4h1.8v-2.5l1.6-0.5v3.1h2.6v1.4h-2.6v5.8
		c0,0.7,0.1,1.2,0.4,1.5c0.2,0.3,0.6,0.4,1.2,0.4c0.4,0,0.8-0.1,1.1-0.3L117.8,28.3"/>
	<path class="st0" d="M128.6,28.4H127v-5.9c0-2.2-0.8-3.3-2.4-3.3c-0.8,0-1.5,0.3-2,0.9c-0.6,0.6-0.8,1.5-0.8,2.3v5.9h-1.6V18.1h1.6
		v1.7h0c0.8-1.3,1.9-2,3.4-2c1.1,0,2,0.4,2.6,1.1c0.6,0.7,0.9,1.8,0.9,3.1L128.6,28.4"/>
	<path class="st0" d="M137.7,22.3c0-1-0.2-1.7-0.7-2.2c-0.5-0.5-1.2-0.8-1.9-0.8c-0.7,0-1.4,0.3-2,0.8c-0.6,0.6-0.9,1.4-1,2.2
		L137.7,22.3 M139.4,23.7h-7.3c0,1.2,0.3,2,0.9,2.7s1.4,0.9,2.4,0.9c1.2,0,2.3-0.4,3.2-1.1v1.5c-0.9,0.7-2.1,1-3.6,1
		s-2.6-0.5-3.4-1.4c-0.8-0.9-1.2-2.3-1.2-3.9c0-1,0.2-1.9,0.6-2.8c0.4-0.8,1-1.5,1.7-2c0.7-0.5,1.6-0.7,2.4-0.7
		c1.3,0,2.4,0.4,3.1,1.3c0.7,0.9,1.1,2.1,1.1,3.6L139.4,23.7"/>
	<path class="st0" d="M146.7,19.8c-0.4-0.2-0.8-0.4-1.3-0.3c-0.7,0-1.3,0.3-1.8,1c-0.5,0.7-0.7,1.6-0.7,2.7v5.2h-1.6V18.1h1.6v2.1h0
		c0.2-0.6,0.6-1.2,1.1-1.7c0.4-0.4,1-0.6,1.6-0.6c0.3,0,0.7,0,1,0.1L146.7,19.8"/>
	<path class="st1" d="M112.6,46.2l-0.3,0.9h0c-0.1-0.3-0.2-0.6-0.3-0.9l-1.7-4.3h-1.7v6.8h1.1v-4.2c0-0.3,0-0.6,0-0.9
		c0-0.2,0-0.3,0-0.4h0c0.1,0.3,0.1,0.4,0.2,0.6l2,4.9h0.8l2-5c0.1-0.2,0.1-0.4,0.1-0.5h0c0,0.5,0,0.9-0.1,1.2v4.3h1.2v-6.8h-1.6
		L112.6,46.2"/>
	<polyline class="st1" points="117,48.7 118.1,48.7 118.1,45.1 118.1,43.9 117,43.9 117,46.8 117,48.7 	"/>
	<path class="st1" d="M117.6,41.8c-0.2,0-0.4,0.1-0.5,0.2c-0.1,0.1-0.2,0.3-0.2,0.5c0,0.2,0.1,0.3,0.2,0.5c0.3,0.2,0.7,0.2,1,0
		c0.1-0.1,0.2-0.3,0.2-0.5c0-0.2-0.1-0.3-0.2-0.5C117.9,41.9,117.8,41.8,117.6,41.8"/>
	<path class="st1" d="M122.2,43.8c-0.2,0-0.4-0.1-0.6-0.1c-0.5,0-1,0.1-1.4,0.3c-0.4,0.2-0.7,0.5-0.9,0.9c-0.2,0.4-0.3,0.9-0.3,1.4
		c0,0.4,0.1,0.9,0.3,1.3c0.2,0.4,0.5,0.7,0.9,0.9c0.4,0.2,0.8,0.3,1.2,0.3c0.5,0,1-0.1,1.4-0.3h0v-1l0,0c-0.2,0.1-0.4,0.2-0.6,0.3
		c-0.2,0.1-0.4,0.1-0.5,0.1c-0.4,0-0.8-0.1-1.1-0.4c-0.3-0.3-0.4-0.7-0.4-1.2c0-0.4,0.1-0.9,0.4-1.2c0.3-0.3,0.7-0.5,1.1-0.4
		c0.4,0,0.8,0.1,1.1,0.4l0,0V44h0C122.5,43.9,122.4,43.9,122.2,43.8"/>
	<path class="st1" d="M125.9,43.8c-0.3,0-0.5,0.1-0.8,0.3c-0.2,0.2-0.4,0.4-0.4,0.7h0v-0.8h-1.1v4.9h1.1v-2.5c0-0.4,0.1-0.7,0.3-1
		c0.2-0.2,0.4-0.4,0.7-0.4c0.1,0,0.2,0,0.3,0.1c0.1,0,0.2,0.1,0.3,0.1l0,0v-1.2h0C126.2,43.8,126.1,43.8,125.9,43.8"/>
	<path class="st1" d="M129.9,47.5c-0.2,0.3-0.6,0.4-1,0.4c-0.4,0-0.7-0.1-1-0.4c-0.3-0.3-0.4-0.7-0.4-1.2c0-0.4,0.1-0.9,0.4-1.2
		c0.2-0.3,0.6-0.4,1-0.4c0.4,0,0.7,0.1,0.9,0.4c0.3,0.3,0.4,0.8,0.3,1.2C130.3,46.7,130.2,47.1,129.9,47.5 M129,43.8
		c-0.7,0-1.4,0.2-1.9,0.7c-0.5,0.5-0.7,1.2-0.7,1.9c0,0.7,0.2,1.3,0.7,1.8c0.5,0.5,1.1,0.7,1.8,0.7c0.7,0,1.4-0.2,1.9-0.7
		c0.5-0.5,0.7-1.2,0.7-1.9c0-0.7-0.2-1.3-0.6-1.8C130.3,44,129.7,43.7,129,43.8"/>
	<path class="st1" d="M134,45.9c-0.2-0.1-0.5-0.2-0.7-0.4c-0.1-0.1-0.1-0.2-0.1-0.4c0-0.1,0.1-0.3,0.2-0.3c0.1-0.1,0.3-0.1,0.5-0.1
		c0.2,0,0.4,0,0.6,0.1c0.2,0.1,0.4,0.1,0.5,0.2l0,0V44h0c-0.2-0.1-0.3-0.1-0.5-0.1c-0.2,0-0.4-0.1-0.6-0.1c-0.5,0-1,0.1-1.3,0.4
		c-0.3,0.3-0.5,0.7-0.5,1.1c0,0.2,0,0.4,0.1,0.6c0.1,0.2,0.2,0.3,0.3,0.5c0.2,0.2,0.4,0.3,0.7,0.4c0.2,0.1,0.4,0.2,0.6,0.3
		c0.1,0.1,0.2,0.1,0.3,0.2c0.1,0.1,0.1,0.2,0.1,0.3c0,0.3-0.2,0.5-0.7,0.5c-0.2,0-0.4,0-0.6-0.1c-0.2-0.1-0.4-0.2-0.6-0.3l0,0v1.1h0
		c0.2,0.1,0.4,0.1,0.6,0.2c0.2,0,0.4,0.1,0.7,0.1c0.5,0,1-0.1,1.4-0.4c0.3-0.3,0.5-0.7,0.5-1.1c0-0.3-0.1-0.6-0.3-0.8
		C134.6,46.2,134.3,46,134,45.9"/>
	<path class="st1" d="M139.2,47.5c-0.2,0.3-0.6,0.4-1,0.4c-0.4,0-0.7-0.1-1-0.4c-0.3-0.3-0.4-0.7-0.4-1.2c0-0.4,0.1-0.9,0.4-1.2
		c0.2-0.3,0.6-0.4,1-0.4c0.4,0,0.7,0.1,0.9,0.4c0.3,0.3,0.4,0.8,0.3,1.2C139.5,46.7,139.4,47.1,139.2,47.5 M138.3,43.8
		c-0.7,0-1.4,0.2-1.9,0.7c-0.5,0.5-0.7,1.2-0.7,1.9c0,0.7,0.2,1.3,0.7,1.8c0.5,0.5,1.1,0.7,1.8,0.7c0.7,0,1.4-0.2,1.9-0.7
		c0.5-0.5,0.7-1.2,0.7-1.9c0-0.7-0.2-1.3-0.6-1.8C139.6,44,138.9,43.7,138.3,43.8"/>
	<path class="st1" d="M146.8,44.8v-0.9h-1.2v-1.4h0l-1.1,0.3h0v1.1h-1.7v-0.6c0-0.2,0.1-0.5,0.2-0.6c0.1-0.1,0.3-0.2,0.5-0.2
		c0.2,0,0.3,0,0.5,0.1l0,0v-1h0c-0.2-0.1-0.4-0.1-0.6-0.1c-0.3,0-0.6,0.1-0.9,0.2c-0.3,0.1-0.5,0.4-0.6,0.6
		c-0.2,0.3-0.2,0.6-0.2,0.9v0.7h-0.8v0.9h0.8v3.9h1.2v-3.9h1.7v2.5c0,1,0.5,1.5,1.4,1.5c0.2,0,0.3,0,0.5-0.1c0.1,0,0.2-0.1,0.4-0.1
		h0v-0.9l0,0c-0.1,0-0.1,0.1-0.2,0.1c-0.1,0-0.2,0-0.2,0c-0.2,0-0.4,0-0.5-0.2c-0.1-0.2-0.2-0.4-0.2-0.6v-2.3L146.8,44.8"/>
	<polyline class="st2" points="99.3,45.1 93.9,45.1 93.9,39.7 99.3,39.7 99.3,45.1 	"/>
	<polyline class="st3" points="105.2,45.1 99.8,45.1 99.8,39.7 105.2,39.7 105.2,45.1 	"/>
	<polyline class="st4" points="99.3,51 93.9,51 93.9,45.6 99.3,45.6 99.3,51 	"/>
	<polyline class="st5" points="105.2,51 99.8,51 99.8,45.6 105.2,45.6 105.2,51 	"/>
	<path class="st6" d="M6,8.1C5.2,8.5,4.4,8.7,3.6,8.7c-0.6,0-1.3-0.2-1.8-0.5C1.2,8,0.8,7.5,0.5,7C0.3,6.4,0.1,5.7,0.1,5.1
		c0-1,0.3-2,1-2.7c0.7-0.7,1.7-1.1,2.7-1.1c0.7,0,1.4,0.1,2,0.4v0.9C5.2,2.2,4.5,2,3.8,2c-0.5,0-1,0.1-1.4,0.4
		C1.9,2.7,1.6,3,1.4,3.5C1.1,3.9,1,4.5,1,5c0,0.9,0.2,1.6,0.7,2.1c0.5,0.5,1.2,0.8,2,0.8c0.5,0,1-0.1,1.5-0.3v-2H3.6V4.9H6V8.1"/>
	<path class="st6" d="M11.6,6c0-0.6-0.1-1.1-0.4-1.5C10.9,4.2,10.4,4,10,4C9.5,4,9,4.2,8.7,4.6C8.4,5,8.2,5.5,8.3,6.1
		c0,0.5,0.1,1,0.5,1.4C9,7.9,9.5,8,10,8c0.5,0,0.9-0.2,1.2-0.5C11.5,7.1,11.7,6.6,11.6,6 M12.5,6c0,0.7-0.2,1.4-0.7,2
		c-0.5,0.5-1.2,0.8-1.9,0.7C9.2,8.8,8.6,8.5,8.1,8C7.6,7.5,7.4,6.8,7.4,6.1c0-0.9,0.2-1.5,0.7-2C8.6,3.6,9.3,3.3,10,3.3
		c0.7,0,1.3,0.2,1.8,0.7C12.3,4.5,12.5,5.2,12.5,6"/>
	<polyline class="st6" points="14.8,8.6 14,8.6 14,1 14.8,1 14.8,8.6 	"/>
	<path class="st6" d="M20.3,6.3V5.5c0-0.4-0.1-0.8-0.4-1.1c-0.3-0.3-0.6-0.4-1-0.4c-0.5,0-0.9,0.2-1.2,0.6c-0.3,0.4-0.5,1-0.4,1.5
		c0,0.5,0.1,1,0.4,1.4C17.9,7.8,18.3,8,18.7,8c0.4,0,0.8-0.2,1.1-0.5C20.1,7.2,20.3,6.7,20.3,6.3 M21.1,8.6h-0.8V7.7h0
		c-0.6,1-1.9,1.3-2.8,0.7c-0.2-0.1-0.3-0.2-0.5-0.4c-0.4-0.5-0.6-1.2-0.6-1.9c0-0.7,0.2-1.5,0.6-2.1c0.4-0.5,1-0.8,1.7-0.8
		c0.6,0,1.2,0.3,1.5,0.8h0V1h0.8L21.1,8.6"/>
</g>
</svg>
