<?xml version="1.0" encoding="utf-8"?>
<!-- Generator: Adobe Illustrator 21.1.0, SVG Export Plug-In . SVG Version: 6.00 Build 0)  -->
<svg version="1.1" id="design" xmlns="http://www.w3.org/2000/svg" xmlns:xlink="http://www.w3.org/1999/xlink" x="0px" y="0px"
	 viewBox="0 0 215 33" style="enable-background:new 0 0 215 33;" xml:space="preserve">
<style type="text/css">
	.st0{fill:#E31C23;}
	.st1{fill:#F4F4F4;}
</style>
<g>
	<g>
		<path d="M167.6,0.8v2.1H165V0.8H167.6z"/>
		<g>
			<rect y="0" class="st0" width="146" height="32.9"/>
			<path d="M157.9,0.6c0.5,0,1,0.1,1.7,0.3c1.7,0.3,2.7,1.8,2.6,3.5c-0.1,0-0.1,0-0.3,0h-2.2c0-0.1,0-0.1-0.1-0.3
				c-0.1-1.2-1.2-1.9-2.3-1.7c-0.3,0-0.5,0.1-0.8,0.3c-0.6,0.3-1,0.9-0.9,1.5c0,0.6,0.4,1.2,1,1.3c0.8,0.3,1.7,0.4,2.5,0.8
				c0.5,0.1,0.9,0.3,1.4,0.5c1.7,0.6,2.5,2.5,1.8,4c-0.1,0.4-0.4,0.9-0.8,1.2c-0.6,0.6-1.5,1.2-2.5,1.3c-1.4,0.4-2.8,0.3-4.3-0.1
				c-1.5-0.5-2.5-2.1-2.2-3.7h2.6c0,0.1,0,0.3,0.1,0.4c0,0.9,0.5,1.7,1.4,1.8c1,0.3,2.1,0,2.8-0.6c0.5-0.5,0.4-1.4-0.1-1.9
				c-0.1-0.1-0.3-0.3-0.5-0.3c-0.8-0.3-1.4-0.4-2.2-0.6c-0.6-0.3-1.3-0.4-1.8-0.8c-2.7-1.2-2.2-4.6-0.3-5.7c0.5-0.3,1.2-0.5,1.7-0.8
				c0.3-0.1,1-0.1,1.3-0.1C157.7,0.6,157.8,0.6,157.9,0.6z"/>
			<path d="M155.9,32.1h-2.6V19.9c0.4,0,0.6,0,1,0c1.5,0,3.2,0,4.8,0.1c1.8,0.1,3.1,1.7,3,3.5l0,0c0,2.1-1.2,3.5-3,3.6
				c-1,0.1-1.9,0.1-3.1,0.1c0,0.8,0,1.5,0,2.3S155.9,31.2,155.9,32.1z M155.7,25.5c0.8,0,1.5-0.1,2.5-0.3c0.8-0.3,1.2-0.9,1-1.7
				c0-0.8-0.4-1.3-1-1.4c-0.8-0.1-1.7-0.1-2.5-0.3V25.5z"/>
			<path d="M194,9.5h-5.7c-0.3,0.9,0.1,1.9,1,2.2c0.3,0.1,0.5,0.1,0.8,0.1c0.5,0,1-0.4,1.2-0.8c0.1-0.1,0.3-0.3,0.4-0.4
				c0.6,0,1.3,0,1.9,0c0,0.9-0.5,1.7-1.2,2.2c-1.5,0.9-3.5,0.9-5,0c-0.6-0.5-1.2-1.2-1.3-1.9c-0.3-1.2-0.3-2.3,0-3.5
				c0.5-1.9,2.3-3.2,4.4-3c1.9,0.1,3.4,1.7,3.5,3.6C194,8.3,194,8.8,194,9.5z M191.4,7.8c0.1-0.6-0.3-1.3-0.8-1.7
				c-0.5-0.3-1.2-0.3-1.5,0.1c-0.5,0.4-0.8,1-0.8,1.7h3.1V7.8z"/>
			<path d="M207.4,28.4h-5.7c-0.3,1.4,0.8,2.6,2.1,2.2c0.4-0.1,0.6-0.4,0.9-0.8c0.1-0.3,0.3-0.4,0.5-0.4c0.6,0,1.2,0,1.8,0
				c0,1-0.5,1.9-1.4,2.3c-1.4,0.6-3,0.6-4.4,0c-0.9-0.4-1.4-1.2-1.7-2.1c-0.4-1.2-0.4-2.5,0-3.7c0.5-1.9,2.2-3.1,4.1-3
				s3.5,1.7,3.6,3.6C207.4,27.3,207.4,27.8,207.4,28.4z M201.8,26.8h3c0-1.2-0.5-1.8-1.4-1.9C202.3,25,201.8,25.6,201.8,26.8
				L201.8,26.8z"/>
			<path d="M163.5,26c-0.1-0.9,0.4-1.7,1.2-2.1c1.4-0.8,3.2-0.8,4.6,0c0.8,0.4,1.2,1.2,1.2,1.9c0,0.9,0.1,1.9,0.1,3
				c0,1.2,0,2.2,0,3.4h-2.1l-0.1-1c-0.6,1-1.9,1.4-3.1,1.3c-1,0-1.9-0.8-2.2-1.7c-0.4-1,0-2.2,0.9-3c0.8-0.6,1.8-0.9,2.8-0.9
				c0.4,0,0.8,0,1.2,0c0.3-0.9,0-1.7-0.8-1.8c-0.6-0.3-1.3,0.1-1.4,0.8l0,0c-0.1,0.1-0.3,0.4-0.4,0.4C164.9,26,164.3,26,163.5,26z
				 M168.4,27.9c-0.6,0-1.3,0.1-1.9,0.3c-0.6,0.1-1,0.6-1,1.3c0,0.5,0.4,1,1,1.2c0.6,0.1,1.3-0.3,1.5-0.8
				C168.3,29.2,168.3,28.6,168.4,27.9L168.4,27.9z"/>
			<path d="M196.9,32.1h-2.5c0-0.4,0-0.8,0-1.2c0-1.4,0-3,0-4.3c0.1-0.8-0.4-1.4-1.2-1.5l0,0c-0.8-0.1-1.5,0.4-1.7,1.2
				c-0.1,0.4-0.1,0.6-0.1,1c0,1.5,0,3.1,0,4.6H189v-8.5h2.3l0.1,1c0.1-0.1,0.1-0.1,0.3-0.3c0.9-1,2.5-1.4,3.7-0.9
				c0.8,0.3,1.4,1,1.4,1.8C196.9,27.5,196.9,29.7,196.9,32.1z"/>
			<path d="M175.6,4.6c0.9,0,1.7,0,2.5,0c0.1,0,0.3,0.3,0.4,0.4c0.5,1.5,1,3.1,1.5,4.6c0,0.1,0.1,0.4,0.3,0.6c0.1-0.4,0.3-0.8,0.4-1
				c0.5-1.4,0.9-2.8,1.4-4.3c0.1-0.4,0.3-0.5,0.6-0.5c0.6,0,1.2,0,1.8,0c0,0.3-0.1,0.4-0.1,0.5c-0.9,2.5-1.8,5-2.7,7.5
				c-0.1,0.4-0.3,0.5-0.6,0.5c-0.6,0-1.3,0-1.9,0c-0.3,0-0.4-0.1-0.5-0.4c-0.9-2.6-1.8-5-2.8-7.6L175.6,4.6z"/>
			<path d="M181.8,25.2h-1.5v-1.7h1.5c0-0.5,0-0.9,0-1.3c0-0.1,0.1-0.4,0.1-0.4c0.8-0.3,1.4-0.5,2.3-0.9v2.6h1.9v1.7
				c-0.4,0-0.9,0-1.4,0s-0.6,0.1-0.6,0.6c0,1,0,2.1,0,3.1c0,1.2,0.3,1.4,1.4,1.4h0.5c0,0.4,0,0.9,0,1.3c0,0.1-0.1,0.4-0.3,0.4
				c-0.9,0.1-1.7,0.1-2.6,0.1c-1-0.1-1.5-0.9-1.5-2.1c0-1.3,0-2.7,0-4C181.8,25.7,181.8,25.5,181.8,25.2z"/>
			<path d="M173.4,13.1H171V0.9h2.5V13.1z"/>
			<path d="M212.3,32.1h-2.5v-8.5h2.2l0.1,1.4c0.5-1,1.7-1.7,2.8-1.5v2.2c-0.4,0-0.8,0-1.2,0.1c-0.8,0-1.4,0.8-1.4,1.5l0,0
				c0,1.4,0,2.7,0,4.1C212.3,31.7,212.3,31.8,212.3,32.1z"/>
			<path d="M201.6,4.4v2.2c-0.3,0-0.5,0-0.9,0c-0.9-0.1-1.7,0.5-1.8,1.4c0,0.1,0,0.1,0,0.3c0,1.3,0,2.6,0,3.9c0,0.3,0,0.5,0,0.8
				h-2.5V4.4h2.2l0.1,1.5C199.2,4.9,200.4,4.3,201.6,4.4z"/>
			<path d="M178.6,23.4v2.2c-0.4,0-0.8,0-1.3,0.1c-0.8,0-1.4,0.8-1.4,1.5c0,1.3,0,2.6,0,3.9c0,0.3,0,0.5,0,0.9h-2.5v-8.4h2.2
				l0.1,1.3c0.4-0.4,0.8-0.8,1.2-1C177.6,23.5,178.1,23.4,178.6,23.4z"/>
			<path d="M165.2,4.6h2.3v8.5h-2.3V4.6z"/>
			<g id="layer1">
				<g id="g16337">
					<path id="path16197" class="st1" d="M63.5,18.9h8.4l-4.4-7.1l-8.1,12.9h-3.7l9.9-15.5c0.4-0.6,1.2-1,1.9-1c0.8,0,1.4,0.4,1.9,1
						l9.9,15.5h-3.7l-1.8-3h-8.5L63.5,18.9z M102,21.7V8.3h-3.1v14.8c0,0.4,0.1,0.8,0.5,1.2c0.3,0.3,0.8,0.5,1.2,0.5h14.3l1.8-3
						L102,21.7z M50,19.3c3.1,0.1,5.7-2.3,5.7-5.3s-2.3-5.7-5.3-5.7c-0.1,0-0.3,0-0.4,0H36.2v16.4h3.1V11.1h10.5
						c1.4,0,2.7,1.2,2.7,2.7c0,1.4-1.2,2.7-2.7,2.7h-8.9l9.4,8.3h4.5l-6.3-5.3H50V19.3z M16.8,24.7c-4.5,0-8.1-3.6-8.1-8.1
						s3.6-8.1,8.1-8.1h9.6c4.5,0,8.1,3.6,8.1,8.1s-3.6,8.1-8.1,8.1C26.3,24.7,16.8,24.7,16.8,24.7z M26.1,21.7c3,0,5.3-2.3,5.3-5.3
						s-2.3-5.3-5.3-5.3h-9c-3,0-5.3,2.3-5.3,5.3s2.3,5.3,5.3,5.3H26.1z M85.9,24.7c-4.5,0-8.1-3.6-8.1-8.1s3.6-8.1,8.1-8.1l0,0h11.4
						l-1.8,3h-9.3c-3,0-5.3,2.3-5.3,5.3s2.3,5.3,5.3,5.3h11.4l-1.8,3L85.9,24.7z M124.5,21.7c-2.3,0-4.4-1.5-5-3.9h13.4l1.8-3h-15.4
						c0.6-2.3,2.7-3.9,5-3.9h9.3l1.8-3h-11.2c-4.5,0-8.1,3.6-8.3,8.1c0,4.5,3.6,8.1,8.1,8.3l0,0h9.7l1.8-3L124.5,21.7"/>
					<path id="path16199" class="st1" d="M137.3,10c0-0.8,0.6-1.4,1.4-1.4s1.4,0.6,1.4,1.4c0,0.8-0.6,1.4-1.4,1.4
						S137.3,10.8,137.3,10z M138.7,11.8c1,0,1.8-0.8,1.8-1.8s-0.8-1.8-1.8-1.8s-1.8,0.8-1.8,1.8l0,0C136.9,11,137.7,11.8,138.7,11.8
						L138.7,11.8z M138.6,8.9c0.1,0,0.4,0,0.5,0.1c0.3,0.1,0.4,0.3,0.4,0.5v0.1c0,0.1-0.1,0.3-0.3,0.4h-0.1l0.5,0.9h-0.5l-0.4-0.8
						h-0.3V11H138V8.9H138.6z M138.7,9.8c0.1,0,0.3,0,0.4-0.1V9.6c0-0.1-0.1-0.3-0.1-0.3c-0.1,0-0.3,0-0.4,0h-0.1V10L138.7,9.8"/>
				</g>
			</g>
		</g>
	</g>
</g>
</svg>
