<?xml version="1.0" encoding="utf-8"?>
<!-- Generator: Adobe Illustrator 22.0.1, SVG Export Plug-In . SVG Version: 6.00 Build 0)  -->
<svg version="1.1" id="CARD" xmlns="http://www.w3.org/2000/svg" xmlns:xlink="http://www.w3.org/1999/xlink" x="0px" y="0px"
	 viewBox="0 0 143 50" style="enable-background:new 0 0 143 50;" xml:space="preserve">
<style type="text/css">
	.st0{fill:#AAB0B6;}
	.st1{fill:#6428B4;}
</style>
<path class="st0" d="M141.5,50H1.5c-0.8,0-1.4-0.6-1.4-1.4V1.4C0.1,0.6,0.7,0,1.5,0h140c0.8,0,1.4,0.6,1.4,1.4v47.1
	C142.9,49.4,142.3,50,141.5,50z"/>
<path class="st1" d="M123.6,15h-6.1c-0.2,0-0.4,0.1-0.4,0.4v2.5h8.6v0.7c0,1.2-0.9,2.1-2.1,2.1h-6.4v2.5c0,0.2,0.1,0.4,0.4,0.4h8.2
	v0.7c0,1.2-0.9,2.1-2.1,2.1h-7.1c-1.2,0-2.1-0.9-2.1-2.1v-10c0-1.2,0.9-2.1,2.1-2.1h9.3v0.7C125.8,14.1,124.9,15,123.6,15z
	 M108.7,21.6l2.8,4.8H109c-0.5,0-1-0.3-1.2-0.7l-2.1-3.6h-5.6v2.1c0,1.2-0.9,2.1-2.1,2.1h-0.7V14.3c0-1.2,0.9-2.1,2.1-2.1h7
	c2.8,0,5.1,2.1,5.1,4.9C111.5,19.1,110.4,20.8,108.7,21.6z M100.1,15.4v3.9h6.4c1.2,0,2.2-1,2.1-2.3c-0.1-1.1-1-2-2.1-2h-5.9
	C100.3,15,100.1,15.2,100.1,15.4z M53.8,12.7l-4.9,4.9c-0.1,0.1-0.4,0.1-0.6,0l-4.8-4.8c-0.4-0.4-0.9-0.6-1.4-0.6l0,0
	c-1.1,0-2,0.9-2,2v12.2h0.7c1.2,0,2.1-0.9,2.1-2.1v-7.6c0-0.1,0.2-0.3,0.4-0.1l3.9,3.9c0.9,0.9,2.2,0.9,3,0l3.9-3.9
	c0.1-0.1,0.4,0,0.4,0.1v9.8h0.7c1.2,0,2.1-0.9,2.1-2.1V14.1c0-1.1-0.9-2-2-2l0,0C54.6,12.1,54.1,12.4,53.8,12.7z M37.2,24.3V12.1
	h-0.7c-1.2,0-2.1,0.9-2.1,2.1v12.1h0.7C36.3,26.4,37.2,25.5,37.2,24.3z M31.5,17.2c-0.1,2.7-2.3,4.9-5,4.9h-6.4v2.1
	c0,1.2-0.9,2.1-2.1,2.1h-0.7V14.3c0-1.2,0.9-2.1,2.1-2.1h7C29.1,12.1,31.6,14.4,31.5,17.2z M28.6,17.3c0.1-1.2-0.9-2.3-2.1-2.3h-6
	c-0.2,0-0.4,0.2-0.4,0.4v3.9h6.4C27.6,19.3,28.6,18.4,28.6,17.3z M94.4,19.3c0,3.9-3.2,7.1-7.1,7.1c-2.5,0-4.6-1.3-5.9-3.2l-0.9-1.4
	l-1.9,2.9c-1.8,2.7-4.9,4.5-8.4,4.5c-5.5,0-10-4.5-10-10s4.5-10,10-10c3.5,0,6.5,1.8,8.3,4.4l0.3,0.4l-1.7,2.6L76,15.2
	c-1.3-1.9-3.4-3.1-5.9-3.1c-3.9,0-7.1,3.2-7.1,7.1s3.2,7.1,7.1,7.1c2.5,0,4.6-1.3,5.9-3.2l5.2-7.9c1.3-1.9,3.5-3.2,5.9-3.2
	C91.1,12.1,94.4,15.4,94.4,19.3z M91.5,19.3c0-2.4-1.9-4.3-4.3-4.3c-1.5,0-2.8,0.8-3.6,1.9l-1.6,2.4l1.6,2.4
	c0.8,1.1,2.1,1.9,3.6,1.9C89.6,23.6,91.5,21.6,91.5,19.3z M130.5,13.8l0.3,0.5h-0.3c0,0,0,0-0.1,0l-0.2-0.4h-0.6v0.3
	c0,0.1-0.1,0.1-0.1,0.1h-0.1v-1.1c0-0.1,0.1-0.2,0.2-0.2h0.6c0.3,0,0.5,0.2,0.5,0.4C130.8,13.6,130.6,13.7,130.5,13.8z M129.6,13.2
	v0.4h0.6c0.1,0,0.2-0.1,0.2-0.2c0-0.1-0.1-0.2-0.2-0.2L129.6,13.2C129.7,13.1,129.6,13.2,129.6,13.2z M130.1,12.4
	c-0.6,0-1.1,0.5-1.1,1.1c0,0.6,0.5,1.1,1.1,1.1s1.1-0.5,1.1-1.1C131.2,12.9,130.7,12.4,130.1,12.4 M130.1,12.1
	c0.8,0,1.4,0.6,1.4,1.4c0,0.8-0.6,1.4-1.4,1.4s-1.4-0.6-1.4-1.4C128.6,12.8,129.3,12.1,130.1,12.1L130.1,12.1z M30.6,40.7
	c1.5,0,2.6-0.8,2.6-2.1c0-1.4-1.2-1.8-2.3-2.1c-1.1-0.3-1.4-0.6-1.4-1c0-0.4,0.4-0.7,0.9-0.7c0.7,0,1.1,0.4,1.4,0.9L33,35
	c-0.5-1-1.4-1.6-2.5-1.6c-1.2,0-2.3,0.8-2.3,2.1c0,1.4,1.1,1.8,2.1,2.1c1.1,0.3,1.5,0.5,1.5,1c0,0.4-0.3,0.7-1.1,0.7
	c-0.9,0-1.4-0.4-1.6-1.1l-1.2,0.7C28.3,40,29.2,40.7,30.6,40.7z M35.1,33.6v7h1.4v-7H35.1z M40.2,39.3v-5.7h-1.4v7h4.1v-1.3H40.2z
	 M45.6,40.6h1.7l2.4-7h-1.5l-1.7,5.4l-1.7-5.4h-1.5L45.6,40.6z M52.7,39.3v-1.6h2.6v-1.3h-2.6v-1.5h2.9v-1.4h-4.3v7h4.4v-1.3H52.7z
	 M61.6,40.6h1.5l-1.6-2.6c0.8-0.4,1.4-1.1,1.4-2.1c0-1.3-1.1-2.3-2.4-2.3h-2.8v7h1.4v-2.4h1.1L61.6,40.6z M59.1,34.9h1.4
	c0.5,0,0.9,0.4,0.9,1s-0.4,1.1-0.9,1.1h-1.4V34.9z M70.9,33.6h-2.6v7h1.4v-2.3h1.2c1.4,0,2.4-1.1,2.4-2.4S72.3,33.6,70.9,33.6z
	 M70.9,37h-1.2v-2.1h1.2c0.6,0,1,0.4,1,1.1C72,36.5,71.6,37,70.9,37z M79.2,40.6h1.5l-2.5-7h-1.7l-2.4,7h1.5l0.4-1.3h2.8L79.2,40.6z
	 M76.4,38l0.9-2.9l0.9,2.9H76.4z M86.1,40.6h1.5l-1.6-2.6c0.8-0.4,1.4-1.1,1.4-2.1c0-1.3-1.1-2.3-2.4-2.3h-2.8v7h1.4v-2.4h1.1
	L86.1,40.6z M83.7,34.9h1.4c0.5,0,0.9,0.4,0.9,1s-0.4,1.1-0.9,1.1h-1.4V34.9z M94.1,33.6h-5.1v1.3h1.9v5.7h1.4v-5.7h1.9V33.6z
	 M99.8,33.6v4.3l-3-4.3h-1.1v7h1.4v-4.3l3,4.3h1.1v-7H99.8z M104.9,39.3v-1.6h2.6v-1.3h-2.6v-1.5h2.9v-1.4h-4.3v7h4.4v-1.3H104.9z
	 M113.8,40.6h1.5l-1.6-2.6c0.8-0.4,1.4-1.1,1.4-2.1c0-1.3-1.1-2.3-2.4-2.3h-2.8v7h1.4v-2.4h1.1L113.8,40.6z M111.3,34.9h1.4
	c0.5,0,0.9,0.4,0.9,1s-0.4,1.1-0.9,1.1h-1.4V34.9z"/>
</svg>
