<svg xmlns="http://www.w3.org/2000/svg" viewBox="0 0 50 50"><defs><style>.cls-1{fill:#c99028;}.cls-2{fill:#fff;}.cls-3{fill:#17303a;}.cls-4{fill:#fefefe;}.cls-5{fill:#ff3d2e;}</style></defs><title>the-clutch-1000-global-list-2019</title><g id="Layer_2" data-name="Layer 2"><g id="Layer_1-2" data-name="Layer 1"><circle class="cls-1" cx="25" cy="25" r="25"/><circle class="cls-2" cx="25" cy="25" r="24.17"/><circle class="cls-3" cx="25" cy="25" r="22.99"/><circle class="cls-4" cx="25" cy="25" r="17.2"/><path class="cls-3" d="M30.82,29.66a6.81,6.81,0,0,1-4.43,1.54,6.21,6.21,0,0,1-6.55-5.85q0-.19,0-.39c0-3.61,2.69-6.13,6.56-6.13a7,7,0,0,1,4.49,1.54l.83.67,3.68-3.47-1-.78a12.39,12.39,0,0,0-8-2.88c-6.8,0-11.73,4.64-11.73,11s5,11.17,11.73,11.17a12.26,12.26,0,0,0,8.12-2.91l.89-.79-3.72-3.46Z"/><path class="cls-5" d="M26.18,21.3A3.73,3.73,0,1,1,22.25,25a3.83,3.83,0,0,1,3.93-3.72"/><path class="cls-4" d="M8.46,11.45l2.73,2.16-.44.55L8,12l-.45.57-.46-.37,1.34-1.69.46.37Z"/><path class="cls-4" d="M12.94,11.76l-1.23-1.29-.58.56,1.23,1.29-.51.48L9,9.86l.51-.48,1.17,1.23.58-.56L10.13,8.82l.51-.48,2.81,2.95Z"/><path class="cls-4" d="M13.86,11,11.5,7.64l1.63-1.17.34.48-1.06.76.65.9L14,8l.35.49-.92.66.68,1,1.06-.76.34.48Z"/><path class="cls-4" d="M15.86,5a1.47,1.47,0,0,1,.47-.14.92.92,0,0,1,.38,0,.75.75,0,0,1,.3.19,1.12,1.12,0,0,1,.21.32l-.55.43a.64.64,0,0,0-.24-.29.33.33,0,0,0-.33,0,.38.38,0,0,0-.16.13.33.33,0,0,0-.06.16.51.51,0,0,0,0,.17.83.83,0,0,0,.05.15L16.82,8l.07.11a.34.34,0,0,0,.11.1.33.33,0,0,0,.15,0,.39.39,0,0,0,.19,0q.35-.16.15-.62l.34-.1.34-.11a1,1,0,0,1,0,.78,1.08,1.08,0,0,1-.61.58,1.16,1.16,0,0,1-.86.11,1,1,0,0,1-.55-.57l-.85-1.84A1.65,1.65,0,0,1,15.2,6a.9.9,0,0,1,0-.4.88.88,0,0,1,.21-.36A1.34,1.34,0,0,1,15.86,5Z"/><path class="cls-4" d="M18.94,8.13l-1.2-3.89L18.41,4l1,3.33L20.63,7l.17.56Z"/><path class="cls-4" d="M22.67,3.13l.47,3A1.11,1.11,0,0,1,23,7a1.12,1.12,0,0,1-.78.4,1.14,1.14,0,0,1-.86-.13,1,1,0,0,1-.38-.7l-.48-3.05.69-.11.48,3.06a.48.48,0,0,0,.13.27.42.42,0,0,0,.6-.1.54.54,0,0,0,0-.33l-.47-3Z"/><path class="cls-4" d="M25,3.62,25,7.1h-.7l-.06-3.48h-.73V3.05l2.16,0V3.6Z"/><path class="cls-4" d="M27.63,3.15a1.48,1.48,0,0,1,.47.12.93.93,0,0,1,.31.23.75.75,0,0,1,.16.32,1.09,1.09,0,0,1,0,.38l-.7.08a.64.64,0,0,0-.05-.37.33.33,0,0,0-.28-.17.38.38,0,0,0-.2,0,.33.33,0,0,0-.13.11.5.5,0,0,0-.08.15.84.84,0,0,0,0,.16l-.24,2.06a.8.8,0,0,0,0,.13.35.35,0,0,0,0,.14.32.32,0,0,0,.1.12.39.39,0,0,0,.18.06q.38,0,.45-.45l.34.09.34.08a1,1,0,0,1-.37.69,1.08,1.08,0,0,1-.82.18,1.16,1.16,0,0,1-.79-.35,1,1,0,0,1-.18-.77l.23-2a1.64,1.64,0,0,1,.1-.42.9.9,0,0,1,.23-.33.89.89,0,0,1,.37-.2A1.35,1.35,0,0,1,27.63,3.15Z"/><path class="cls-4" d="M30.08,7.83l.46-1.72-.78-.21L29.3,7.62l-.68-.18L29.69,3.5l.68.18-.44,1.64.78.21.45-1.64.68.18L30.76,8Z"/><path class="cls-4" d="M33,9l1.51-3-.75.12.3-.61.8-.13.59.29L33.59,9.28Z"/><path class="cls-4" d="M36.32,10.05a.83.83,0,0,1-.27.26.8.8,0,0,1-.33.11.89.89,0,0,1-.35,0,1.28,1.28,0,0,1-.35-.17,1.31,1.31,0,0,1-.29-.26.9.9,0,0,1-.17-.31.8.8,0,0,1,0-.34.82.82,0,0,1,.14-.35l1.35-2a.84.84,0,0,1,.27-.26.8.8,0,0,1,.33-.11,1,1,0,0,1,.35,0,1.24,1.24,0,0,1,.35.17,1.07,1.07,0,0,1,.46.59.79.79,0,0,1-.13.69Zm.79-2.41a.23.23,0,0,0,0-.2A.31.31,0,0,0,37,7.27a.33.33,0,0,0-.21-.06.22.22,0,0,0-.17.11l-1.38,2a.22.22,0,0,0,0,.2.33.33,0,0,0,.14.18.31.31,0,0,0,.21.06.23.23,0,0,0,.17-.11Z"/><path class="cls-4" d="M38.27,11.76A.82.82,0,0,1,38,12a.81.81,0,0,1-.34.06.9.9,0,0,1-.34-.09,1.27,1.27,0,0,1-.32-.21,1.31,1.31,0,0,1-.25-.3.91.91,0,0,1-.12-.33.82.82,0,0,1,0-.34.83.83,0,0,1,.19-.32l1.61-1.79a.85.85,0,0,1,.3-.22.8.8,0,0,1,.34-.06.93.93,0,0,1,.35.08,1.25,1.25,0,0,1,.33.22,1.08,1.08,0,0,1,.38.65.79.79,0,0,1-.23.66Zm1.11-2.28a.23.23,0,0,0,.06-.19.31.31,0,0,0-.11-.19.33.33,0,0,0-.2-.09.22.22,0,0,0-.19.08l-1.64,1.83a.22.22,0,0,0-.06.19.33.33,0,0,0,.11.19.31.31,0,0,0,.2.09.23.23,0,0,0,.18-.08Z"/><path class="cls-4" d="M40,13.71a.8.8,0,0,1-.67.19.9.9,0,0,1-.33-.13,1.29,1.29,0,0,1-.29-.26,1.28,1.28,0,0,1-.21-.33.9.9,0,0,1-.08-.35.81.81,0,0,1,.3-.63l1.84-1.55a.84.84,0,0,1,.33-.18.8.8,0,0,1,.35,0,.94.94,0,0,1,.33.13,1.25,1.25,0,0,1,.29.26,1.07,1.07,0,0,1,.28.69.79.79,0,0,1-.32.62Zm1.41-2.11a.23.23,0,0,0,.09-.18.31.31,0,0,0-.08-.2.33.33,0,0,0-.19-.12.22.22,0,0,0-.2.05l-1.88,1.58a.22.22,0,0,0-.09.18.33.33,0,0,0,.09.21.31.31,0,0,0,.18.11.23.23,0,0,0,.19-.06Z"/><path class="cls-4" d="M12.09,43.36a1.16,1.16,0,0,1-.53-.68,1,1,0,0,1,.21-.76l1.17-1.66a1.54,1.54,0,0,1,.3-.32.9.9,0,0,1,.78-.18,1.31,1.31,0,0,1,.46.22,1.12,1.12,0,0,1,.52.68.89.89,0,0,1-.17.7l0,0-.63-.3a.65.65,0,0,0,.13-.35.33.33,0,0,0-.16-.29.37.37,0,0,0-.19-.08.33.33,0,0,0-.17,0,.5.5,0,0,0-.14.1l-.11.12-1.19,1.69a.37.37,0,0,0-.06.11.41.41,0,0,0,0,.21.32.32,0,0,0,.16.22.47.47,0,0,0,.29.1.29.29,0,0,0,.23-.13l.46-.65-.33-.24.32-.45.91.64-.75,1.06a.88.88,0,0,1-.67.42A1.21,1.21,0,0,1,12.09,43.36Z"/><path class="cls-4" d="M13.82,44.44l1.9-3.6.62.33-1.62,3.08,1.11.58-.28.52Z"/><path class="cls-4" d="M18.68,45.44a1.11,1.11,0,0,1-.53.66,1.13,1.13,0,0,1-.88,0,1.13,1.13,0,0,1-.69-.53,1,1,0,0,1,0-.79l.7-1.92a1.47,1.47,0,0,1,.21-.39.89.89,0,0,1,.3-.26.86.86,0,0,1,.4-.09,1.42,1.42,0,0,1,.5.1,1.61,1.61,0,0,1,.46.25.79.79,0,0,1,.24.32.83.83,0,0,1,.05.38,1.67,1.67,0,0,1-.1.44Zm0-2.15a.58.58,0,0,0,0-.31.33.33,0,0,0-.24-.23.35.35,0,0,0-.36.05.5.5,0,0,0-.11.13,1,1,0,0,0-.07.15L17.25,45a.48.48,0,0,0,0,.3.42.42,0,0,0,.57.2.54.54,0,0,0,.2-.27Z"/><path class="cls-4" d="M21.34,45a.61.61,0,0,1,.33.41,1.35,1.35,0,0,1,0,.57,1.07,1.07,0,0,1-1.46,1l-.92-.19.84-4,1,.21A1,1,0,0,1,22,44.24a1.08,1.08,0,0,1-.21.46.68.68,0,0,1-.43.23Zm-.32.79a.66.66,0,0,0,0-.44.51.51,0,0,0-.37-.22L20.37,45l-.26,1.24.27.06a.56.56,0,0,0,.28,0,.41.41,0,0,0,.18-.11A.58.58,0,0,0,21,46,2.14,2.14,0,0,0,21,45.75Zm.31-1.64a.56.56,0,0,0,0-.42.58.58,0,0,0-.38-.21l-.22,0-.22,1,.22,0a.52.52,0,0,0,.42,0A.55.55,0,0,0,21.33,44.11Z"/><path class="cls-4" d="M24,47.4l-.12-.86-.83-.06L23,46.9l-.11.42-.71,0,.59-2,.59-2,.78.05.64,4.12Zm-.4-3.16-.19.83c-.07.27-.14.55-.21.84l.62,0-.18-1.71Z"/><path class="cls-4" d="M25.58,47.42l-.25-4.06.7,0,.21,3.47,1.25-.08,0,.59Z"/><path class="cls-4" d="M29.47,43.36a.3.3,0,0,0-.2.18.76.76,0,0,0,0,.45l-.69.09a1.1,1.1,0,0,1,.08-.85,1,1,0,0,1,1.87.24,1.45,1.45,0,0,1,.05.48,2.48,2.48,0,0,1-.09.49L30,46.24,31.1,46l.14.57-1.9.46-.13-.54.33-1.1.32-1.1a.82.82,0,0,0,0-.32,2,2,0,0,0-.05-.31.71.71,0,0,0,0-.11.32.32,0,0,0-.07-.1.3.3,0,0,0-.11-.07A.28.28,0,0,0,29.47,43.36Z"/><path class="cls-4" d="M33.76,44.76a.82.82,0,0,1,.06.37.81.81,0,0,1-.1.33.91.91,0,0,1-.23.27,1.28,1.28,0,0,1-.33.19,1.33,1.33,0,0,1-.38.09.92.92,0,0,1-.35,0,.8.8,0,0,1-.5-.49L31,43.23a.84.84,0,0,1-.06-.37.81.81,0,0,1,.1-.33.93.93,0,0,1,.23-.27,1.25,1.25,0,0,1,.34-.2,1.07,1.07,0,0,1,.75,0,.79.79,0,0,1,.49.5Zm-1.54-2a.23.23,0,0,0-.14-.14.31.31,0,0,0-.22,0,.33.33,0,0,0-.17.14.22.22,0,0,0,0,.2l.89,2.29a.22.22,0,0,0,.15.14.33.33,0,0,0,.22,0,.31.31,0,0,0,.17-.14.23.23,0,0,0,0-.2Z"/><path class="cls-4" d="M35.59,44.75l-1.6-3-.33.68-.32-.6.35-.73.58-.31,1.93,3.58Z"/><path class="cls-4" d="M37,41.83a.54.54,0,0,1-.19.22.75.75,0,0,1-.52.16.79.79,0,0,1-.51-.39l-.41-.58a1.1,1.1,0,0,1-.16-.34.81.81,0,0,1,0-.35.87.87,0,0,1,.14-.34,1.3,1.3,0,0,1,.33-.32,1,1,0,0,1,.73-.24.8.8,0,0,1,.56.36l.3.42a2.13,2.13,0,0,1,.35.72L38,43.24l-.6.43L37,41.83Zm-.63-.39a.21.21,0,0,0,.17.1.33.33,0,0,0,.21-.07.26.26,0,0,0,.13-.2.33.33,0,0,0-.06-.21l-.45-.64a.21.21,0,0,0-.17-.1.34.34,0,0,0-.21.07.35.35,0,0,0-.13.17.2.2,0,0,0,0,.2Z"/></g></g></svg>