<?xml version="1.0" encoding="UTF-8"?>
<svg width="30px" height="20px" viewBox="0 0 30 20" version="1.1" xmlns="http://www.w3.org/2000/svg" xmlns:xlink="http://www.w3.org/1999/xlink">
    <!-- Generator: sketchtool 64 (101010) - https://sketch.com -->
    <title>FF67FAA0-F45D-4406-AE69-4D7A1F9692E1</title>
    <desc>Created with sketchtool.</desc>
    <g id="Contact-US-Modal" stroke="none" stroke-width="1" fill="none" fill-rule="evenodd">
        <g id="ScnSoft-COM-ContactUs-Page-US-1440-empty" transform="translate(-515.000000, -813.000000)" fill-rule="nonzero">
            <g id="Group-2" transform="translate(135.000000, 736.000000)">
                <g id="Contacts" transform="translate(0.000000, 75.000000)">
                    <g id="european-union" transform="translate(380.000000, 2.000000)">
                        <path d="M29.4827344,20 L0.517265625,20 C0.231621094,20 0,19.7643159 0,19.4736607 L0,0.526339324 C0,0.235684113 0.231621094,0 0.517265625,0 L29.482793,0 C29.7684375,0 30.0000586,0.235684113 30.0000586,0.526339324 L30.0000586,19.4736607 C30.0000586,19.7643755 29.7683789,20 29.4827344,20 Z" id="Path" fill="#41479B"></path>
                        <g id="Group" transform="translate(7.000000, 2.000000)" fill="#FFE15A">
                            <path d="M7.82753906,0.0987890625 L8.03496094,0.720644531 L8.69044922,0.725742187 C8.77535156,0.726386719 8.81050781,0.834667969 8.74224609,0.885117187 L8.21490234,1.27453125 L8.41259766,1.89949219 C8.43820313,1.98035156 8.34609375,2.04738281 8.27701172,1.99798828 L7.74375,1.61677734 L7.21048828,1.99798828 C7.14146484,2.04732422 7.04929688,1.98041016 7.07490234,1.89949219 L7.27259766,1.27453125 L6.74525391,0.885117187 C6.67699219,0.834667969 6.71214844,0.726386719 6.79705078,0.725742187 L7.45253906,0.720644531 L7.65996094,0.0987890625 C7.68673828,0.01828125 7.80070313,0.01828125 7.82753906,0.0987890625 Z" id="Path"></path>
                            <path d="M7.82753906,13.4500781 L8.03496094,14.0719336 L8.69044922,14.0770312 C8.77535156,14.0776758 8.81050781,14.185957 8.74224609,14.2364063 L8.21490234,14.6258203 L8.41259766,15.2507813 C8.43820313,15.3316406 8.34609375,15.3986719 8.27701172,15.3492773 L7.74375,14.9680664 L7.21048828,15.3492773 C7.14146484,15.3986133 7.04929688,15.3316992 7.07490234,15.2507813 L7.27259766,14.6258203 L6.74525391,14.2364063 C6.67699219,14.185957 6.71214844,14.0776758 6.79705078,14.0770312 L7.45253906,14.0719336 L7.65996094,13.4500781 C7.68673828,13.3695703 7.80070313,13.3695703 7.82753906,13.4500781 Z" id="Path"></path>
                            <path d="M14.5031836,6.77443359 L14.7106055,7.39628906 L15.3660937,7.40138672 C15.4509961,7.40203125 15.4861523,7.5103125 15.4178906,7.56076172 L14.8905469,7.95017578 L15.0882422,8.57513672 C15.1138477,8.65599609 15.0217383,8.72302734 14.9526563,8.67363281 L14.4193945,8.29242188 L13.8861328,8.67363281 C13.8171094,8.72296875 13.7249414,8.65605469 13.7505469,8.57513672 L13.9482422,7.95017578 L13.4208984,7.56076172 C13.3526367,7.5103125 13.387793,7.40203125 13.4726953,7.40138672 L14.1281836,7.39628906 L14.3356055,6.77443359 C14.3623828,6.69392578 14.4763477,6.69392578 14.5031836,6.77443359 Z" id="Path"></path>
                            <path d="M1.15183594,6.77443359 L1.35925781,7.39628906 L2.01474609,7.40138672 C2.09964844,7.40203125 2.13480469,7.5103125 2.06654297,7.56076172 L1.53919922,7.95017578 L1.73689453,8.57513672 C1.7625,8.65599609 1.67039062,8.72302734 1.60130859,8.67363281 L1.06804687,8.29242188 L0.534785156,8.67363281 C0.465761719,8.72296875 0.37359375,8.65605469 0.399199219,8.57513672 L0.596894531,7.95017578 L0.0695507812,7.56076172 C0.0012890625,7.5103125 0.0364453125,7.40203125 0.121347656,7.40138672 L0.776835937,7.39628906 L0.984257812,6.77443359 C1.01109375,6.69392578 1.12505859,6.69392578 1.15183594,6.77443359 Z" id="Path"></path>
                            <path d="M2.15402344,3.28833984 L2.36144531,3.91019531 L3.01693359,3.91529297 C3.10183594,3.9159375 3.13699219,4.02421875 3.06873047,4.07466797 L2.54138672,4.46408203 L2.73908203,5.08904297 C2.7646875,5.16990234 2.67257812,5.23693359 2.60349609,5.18753906 L2.07023437,4.80632812 L1.53697266,5.18753906 C1.46794922,5.236875 1.37578125,5.16996094 1.40138672,5.08904297 L1.59908203,4.46408203 L1.07173828,4.07466797 C1.00347656,4.02421875 1.03863281,3.9159375 1.12353516,3.91529297 L1.77902344,3.91019531 L1.98644531,3.28833984 C2.01328125,3.20783203 2.12712891,3.20783203 2.15402344,3.28833984 Z" id="Path"></path>
                            <path d="M13.7165625,9.96398438 L13.9239844,10.5858398 L14.5794727,10.5909375 C14.664375,10.591582 14.6995312,10.6998633 14.6312695,10.7503125 L14.1039258,11.1397266 L14.3016211,11.7646875 C14.3272266,11.8455469 14.2351172,11.9125781 14.1660352,11.8631836 L13.6327734,11.4819727 L13.0995117,11.8631836 C13.0304883,11.9125195 12.9383203,11.8456055 12.9639258,11.7646875 L13.1616211,11.1397266 L12.6342773,10.7503125 C12.5660156,10.6998633 12.6011719,10.591582 12.6860742,10.5909375 L13.3415625,10.5858398 L13.5489844,9.96398438 C13.5758203,9.88347656 13.6897266,9.88347656 13.7165625,9.96398438 Z" id="Path"></path>
                            <path d="M11.2731445,0.844863281 L11.4805664,1.46671875 L12.1360547,1.47181641 C12.220957,1.47246094 12.2561133,1.58074219 12.1878516,1.63119141 L11.6605078,2.02060547 L11.8582031,2.64556641 C11.8838086,2.72642578 11.7916992,2.79345703 11.7226172,2.7440625 L11.1893555,2.36285156 L10.6560938,2.7440625 C10.5870703,2.79339844 10.4949023,2.72648437 10.5205078,2.64556641 L10.7182031,2.02060547 L10.1908594,1.63119141 C10.1225977,1.58074219 10.1577539,1.47246094 10.2426563,1.47181641 L10.8981445,1.46671875 L11.1055664,0.844863281 C11.1323438,0.764355469 11.2461914,0.764355469 11.2731445,0.844863281 Z" id="Path"></path>
                            <path d="M4.59744141,12.4074609 L4.80486328,13.0293164 L5.46035156,13.0344141 C5.54525391,13.0350586 5.58041016,13.1433398 5.51214844,13.1937891 L4.98480469,13.5832031 L5.1825,14.2081641 C5.20810547,14.2890234 5.11599609,14.3560547 5.04691406,14.3066602 L4.51365234,13.9254492 L3.98039063,14.3066602 C3.91136719,14.3559961 3.81919922,14.289082 3.84480469,14.2081641 L4.0425,13.5832031 L3.51515625,13.1937891 C3.44689453,13.1433398 3.48205078,13.0350586 3.56695312,13.0344141 L4.22244141,13.0293164 L4.42986328,12.4074609 C4.45669922,12.3269531 4.57054687,12.3269531 4.59744141,12.4074609 Z" id="Path"></path>
                            <path d="M13.5489844,3.28833984 L13.3415625,3.91019531 L12.6860742,3.91529297 C12.6011719,3.9159375 12.5660156,4.02421875 12.6342773,4.07466797 L13.1616211,4.46408203 L12.9639258,5.08904297 C12.9383203,5.16990234 13.0304297,5.23693359 13.0995117,5.18753906 L13.6327734,4.80632812 L14.1660352,5.18753906 C14.2350586,5.236875 14.3272266,5.16996094 14.3016211,5.08904297 L14.1039258,4.46408203 L14.6312695,4.07466797 C14.6995312,4.02421875 14.664375,3.9159375 14.5794727,3.91529297 L13.9239844,3.91019531 L13.7165625,3.28833984 C13.6897266,3.20783203 13.5758203,3.20783203 13.5489844,3.28833984 Z" id="Path"></path>
                            <path d="M1.98644531,9.96398438 L1.77902344,10.5858398 L1.12353516,10.5909375 C1.03863281,10.591582 1.00347656,10.6998633 1.07173828,10.7503125 L1.59908203,11.1397266 L1.40138672,11.7646875 C1.37578125,11.8455469 1.46789062,11.9125781 1.53697266,11.8631836 L2.07023438,11.4819727 L2.60349609,11.8631836 C2.67251953,11.9125195 2.7646875,11.8456055 2.73908203,11.7646875 L2.54138672,11.1397266 L3.06873047,10.7503125 C3.13699219,10.6998633 3.10183594,10.591582 3.01693359,10.5909375 L2.36144531,10.5858398 L2.15402344,9.96398438 C2.12712891,9.88347656 2.01328125,9.88347656 1.98644531,9.96398438 Z" id="Path"></path>
                            <path d="M4.42986328,0.844863281 L4.22244141,1.46671875 L3.56695313,1.47181641 C3.48205078,1.47246094 3.44689453,1.58074219 3.51515625,1.63119141 L4.0425,2.02060547 L3.84480469,2.64556641 C3.81919922,2.72642578 3.91130859,2.79345703 3.98039063,2.7440625 L4.51365234,2.36285156 L5.04691406,2.7440625 C5.1159375,2.79339844 5.20810547,2.72648437 5.1825,2.64556641 L4.98480469,2.02060547 L5.51214844,1.63119141 C5.58041016,1.58074219 5.54525391,1.47246094 5.46035156,1.47181641 L4.80486328,1.46671875 L4.59744141,0.844863281 C4.57054687,0.764355469 4.45669922,0.764355469 4.42986328,0.844863281 Z" id="Path"></path>
                            <path d="M11.1055078,12.4074609 L10.8980859,13.0293164 L10.2425977,13.0344141 C10.1576953,13.0350586 10.1225391,13.1433398 10.1908008,13.1937891 L10.7181445,13.5832031 L10.5204492,14.2081641 C10.4948437,14.2890234 10.5869531,14.3560547 10.6560352,14.3066602 L11.1892969,13.9254492 L11.7225586,14.3066602 C11.791582,14.3559961 11.88375,14.289082 11.8581445,14.2081641 L11.6604492,13.5832031 L12.187793,13.1937891 C12.2560547,13.1433398 12.2208984,13.0350586 12.1359961,13.0344141 L11.4805078,13.0293164 L11.2730859,12.4074609 C11.2461914,12.3269531 11.1323437,12.3269531 11.1055078,12.4074609 Z" id="Path"></path>
                        </g>
                    </g>
                </g>
            </g>
        </g>
    </g>
</svg>