<svg xmlns="http://www.w3.org/2000/svg" viewBox="0 0 569.05 351.4"><defs><style>.cls-1{fill:green;}.cls-2{fill:#f9f9f9;}.cls-3{fill:#be0026;}.cls-4{fill:#810126;}.cls-5{fill:#bfbfbf;}.cls-6{fill:#fe0000;}.cls-7{fill:#239e46;}.cls-8{fill:#fefefe;}.cls-9{fill:#be0025;}.cls-10,.cls-11,.cls-12,.cls-13,.cls-14,.cls-15,.cls-16,.cls-19,.cls-20,.cls-21,.cls-22,.cls-24,.cls-25,.cls-26,.cls-27,.cls-28,.cls-29,.cls-30,.cls-31,.cls-32{fill:#fff;}.cls-10,.cls-11,.cls-12,.cls-13,.cls-14,.cls-15,.cls-16,.cls-17,.cls-18,.cls-19,.cls-20,.cls-21,.cls-22,.cls-23,.cls-24,.cls-25,.cls-26,.cls-27,.cls-28,.cls-29,.cls-30,.cls-31,.cls-32{stroke:#db161b;}.cls-10{stroke-width:0.11px;}.cls-11{stroke-width:0.1px;}.cls-12{stroke-width:0.06px;}.cls-13,.cls-23{stroke-width:0.38px;}.cls-14{stroke-width:0.1px;}.cls-15{stroke-width:0.16px;}.cls-16,.cls-17{stroke-width:0.13px;}.cls-17,.cls-18{fill:none;}.cls-18{stroke-width:0.13px;}.cls-19{stroke-width:0.13px;}.cls-20{stroke-width:0.11px;}.cls-21{stroke-width:0.13px;}.cls-22{stroke-width:0.13px;}.cls-23{fill:#db161b;}.cls-24{stroke-width:0.12px;}.cls-25{stroke-width:1.7px;}.cls-26{stroke-width:1.7px;}.cls-27{stroke-width:0.07px;}.cls-28{stroke-width:0.12px;}.cls-29{stroke-width:0.1px;}.cls-30{stroke-width:0.11px;}.cls-31{stroke-width:0.1px;}.cls-32{stroke-width:0.1px;}</style></defs><title>gcc-2</title><g id="Layer_2" data-name="Layer 2"><g id="Layer_1-2" data-name="Layer 1"><rect class="cls-1" x="380.77" y="178.03" width="187.87" height="58.09"/><rect class="cls-2" x="380.77" y="236.13" width="187.44" height="58.13"/><polygon class="cls-3" points="568.92 351.4 380.77 351.4 380.77 294.26 569.05 294.26 568.92 351.4"/><path d="M380.77,178c15.95,19.19,32.53,38.91,48.47,58.09v58.13c-15.95,19-32.53,38.14-48.47,57.14Z"/><rect class="cls-4" x="189.8" y="178.03" width="188.95" height="173.32"/><polygon class="cls-2" points="190.82 350.33 190.82 179.05 237.38 179.05 263.53 196.66 234.45 213.79 263.92 230.9 234.88 250.21 263.44 265.06 235.27 283.78 264.21 298.62 235.76 316.7 263.14 333.24 237.79 350.33 190.82 350.33"/><path class="cls-5" d="M237.07,180.07l24.55,16.53L235.44,212l-3,1.77,3,1.75L262,231,235.75,248.4l-2.88,1.91,3.07,1.6,25.5,13.26L236.16,282l-2.9,1.93,3.1,1.59,25.8,13.23L245.94,309,236.6,315l-2.78,1.77,2.82,1.7,13.67,8.25,10.93,6.6-23.76,16H191.84V180.07h45.23m.62-2H189.8V351.35h48.3L265,333.19,237.7,316.68l28.56-18.16-29-14.86L265.44,265,236.88,250.1l29-19.26-29.38-17.06,29-17.06L237.7,178Z"/><rect class="cls-6" y="178.03" width="187.7" height="173.32"/><polygon class="cls-2" points="1.05 350.3 1.05 179.09 50.16 179.09 77.96 196.68 46.97 213.8 78.37 230.91 47.43 250.22 77.86 265.07 47.85 283.78 78.67 298.62 48.37 316.69 77.54 333.23 50.59 350.3 1.05 350.3"/><path class="cls-5" d="M49.86,180.14l26,16.48L48.14,211.95l-3.36,1.86,3.37,1.84L76.28,231l-27.8,17.35-3.22,2L48.67,252l27,13.19L48.92,281.88l-3.25,2,3.45,1.66,27.33,13.16-15.88,9.48-11.18,6.67-3.11,1.86,3.15,1.79,22.25,12.61,3.82,2.16-25.21,16H2.11V180.14H49.86m.61-2.11H0V351.35H50.9l28.69-18.17-29.12-16.5,30.43-18.16L50,283.66,80,265,49.6,250.1l30.86-19.26-31.3-17.05L80,196.74,50.47,178Z"/><rect class="cls-3" x="380.72" y="0.86" width="48.52" height="173.5"/><rect class="cls-7" x="429.24" y="0.86" width="139.39" height="55.93"/><rect x="429.24" y="118.68" width="139.39" height="55.68"/><rect class="cls-2" x="429.24" y="56.79" width="139.39" height="61.89"/><rect class="cls-7" width="187.7" height="174.36"/><path class="cls-8" d="M44.39,64.53c-.22,3.2-.51,8.81,2.21,9.38,3.26.32,1.46-5.53,2.65-6.61.22-.53.63-.53.67.14v5a2.39,2.39,0,0,0,1.86,2.43c.85-.06,1.42,0,1.76.79.14,2.88.26,5.73.41,8.61,0,0,2,.57,2.09-4.82.1-3.18-.63-5.86-.2-6.46,0-.61.79-.65,1.32-.34.87.61,1.26,1.34,2.57,1.05,2-.57,3.24-1.54,3.28-3.1a13.88,13.88,0,0,0-.91-4.44c.08-.26-.41-1-.3-1.24.34.57.91.51,1,0a4.45,4.45,0,0,0-1.74-2.72c-.73-.63-1.78-.49-2.17.83a7.18,7.18,0,0,0,1.66,4.78A4.68,4.68,0,0,1,61,70.18a1.25,1.25,0,0,1-1.66-.32s-1.62-1.22-1.62-1.48c.43-2.74.08-3-.14-3.81a5,5,0,0,0-1.07-2.11.74.74,0,0,0-1.22,0c-.71,1.24-.36,3.89.14,5.09s.93,1.78.67,1.78c-.22.61-.67.47-1-.24a18.12,18.12,0,0,1-.57-4.66c-.14-1.24-.3-3.85-1.11-4.52-.49-.67-1.22-.34-1.48.28A25.64,25.64,0,0,0,52,63.74a36.66,36.66,0,0,1,1,5.71c.08,2.69-1.56,1.18-1.48-.16a11.87,11.87,0,0,0-.06-5.17c-.26-.69-.57-.87-1.22-.75-.53,0-1.84,1.4-2.21,3.81a18.44,18.44,0,0,0-.45,2.31c-.18,1.24-1,2.11-1.58-.16-.49-1.66-.79-5.75-1.62-4.8Zm90.27,27.05c.22.26.36.53,0,1-.37.33-.61.51-1,.83-.16.3-.26.75.26.89,1,.28,3.2-1.18,3.2-1.22a.67.67,0,0,0,.22-.79c-.22-.24-.69-.1-1-.14-.16,0-.65-.08-.41-.53a3.49,3.49,0,0,0,.41-.77c.14-.34,0-.57-.53-.75a4.61,4.61,0,0,0-1.4,0c-.35.06-.47.22-.53.63,0,.61.4.57.79.83ZM98.23,90.12a7.18,7.18,0,0,1,1.5-1.3,1,1,0,0,1,1,.18c.08.51-.32,1-.18,1.68.1.28.18.59.69.47a3.77,3.77,0,0,1,2.41-.73c.65,0,.67,1.12.26,1.12a20.51,20.51,0,0,0-3.3,1.15.76.76,0,0,1-1-.12,1,1,0,0,1-.1-1c0-.55-.18-.85-.63-.79s-.65.3-.81-.08-.1-.45.12-.61Zm31-11.55c.91.45,1.28,3.14,1.17,3.87,0,1.42-.87,2.55-1.24,2.37s0-1.76-.14-2.33c-.2-.79-1-2.27-.85-2.7a.9.9,0,0,1,1.05-1.22Zm-4.74,0c.12-.12,5.33-3.81,5.33-3.81.53-.2.41,1.9.16,1.88.1.41-5.13,4-5.49,3.83-.26.18-.53-1.44,0-1.9ZM86.6,59.34a15.36,15.36,0,0,0-.45,3c-.16.73.79,1.05,1.22.1a8.87,8.87,0,0,0,.69-3.22c-.2-1.13-1-1.09-1.46.16Zm-6-1.07a3.63,3.63,0,0,0-1.52,2.55c0,.67-.16.67.28,1.09s.65.43,1.28.08a1.33,1.33,0,0,0,.61-.91c.16-.75-.79.36-.91-.49s.41-1.09,1-1.86c0-.51,0-.89-.71-.47ZM73.15,68a2.33,2.33,0,0,0-.77,3.08,1.52,1.52,0,0,0,1.62.51c1,.14,1.54-1.82,1.54-1.82s0-.55-1.11.51c-.49.08-.55-.1-.67-.36a2.53,2.53,0,0,1,.14-1.54c.18-.49-.2-.69-.75-.36ZM47.58,59c1.28.41,1.36,2.29,1.28,2.86-.18,1-.65,2.11-1,2s0-1.5-.18-1.92c-.18-.61-1.28-1.7-1.15-2-.26-.69.49-1,1-.87ZM71,81.2c.89.32,1.4,2.21,1.3,2.76-.18,1-.65,2-1,1.88s.08-1.46-.1-1.86c-.06-1-1.3-1.52-1.26-1.95-.24-.81.49-1,1-.83ZM139.2,62.54c.93.45,1.46,3,1.36,3.73-.18,1.34-.67,2.78-1,2.59s.08-2-.1-2.53c-.2-.81-1.46-2.25-1.34-2.67a.87.87,0,0,1,1.09-1.11ZM122,85.82a31.88,31.88,0,0,0-.2-5.39c-.08-1.42-1.64-13.09-2-14.18-.36-2,1.54-.26,1.32-1.46-.65-1.52-2.29-3.73-2.8-5-.32-.57-.18-1.07-.89-.14a11.38,11.38,0,0,0-.61,5.11c1.64,8.61,3.34,16.47,3.08,24.66.77,0,1.68-1.78,2.07-3.57Zm-12.68-26.2c1,.41,1.72,2.45,1.48,3.44-.2,1.24-.73,2.55-1.11,2.39s.28-1.24-.12-2.35c-.22-.73-1.58-2.07-1.44-2.45-.28-.83.59-1.2,1.19-1Zm9.44,25c-2,2.21-1.09,5.88-.65,6.67A5.1,5.1,0,0,0,120.54,94a1.7,1.7,0,0,0,2.53-.26c1.15-1.2,1.15-4.24,1.7-4.84a1,1,0,0,1,1.8-.43,4.28,4.28,0,0,0,1.62,1.4,2.75,2.75,0,0,0,3.63.26,4.1,4.1,0,0,0,1.92-2.35c.55-1.44.28-9,.16-13.27.81,1.13,1.62,2.31,2.41,3.48a86.38,86.38,0,0,1,.38,10.88c-.08.69,2.43-2.09,2.43-3.4,0-1.14,0-2.19,0-3.16,1.22,1.94,2.39,3.93,3.5,5.94.69-.36.45-4.29,0-4.84-1.15-1.92-2.67-4.05-3.83-5.69-.22-2.07-.55-4.54-.69-5.27-.22-1.18-.43-2.92-.77-4.3a16.8,16.8,0,0,1-.28-2.45c.14-.38.65,0,.91-.43s-1.32-4.8-2.19-6.06c-.3-.57-.87-.36-1.56.55-.65.59-.41,2-.16,3.28.65,3.32,1.22,6.71,1.66,10.09-.83-1.24-1.86-2.76-2.86-4.19-.08-.38-.12-.65-.12-.65s-.14-2.74-.26-3.36c0-.26-.08-.34.2-.3a1.56,1.56,0,0,0,.49.34c.3.06.55-.45.38-.89-.89-1.66-1.8-3.3-2.67-4.94-.22-.22-.51-.45-.85.06a2,2,0,0,0-.67,1.46c.1,1.18.3,2.37.38,3.55l.08.47-.3-.36c-2.27-2.39,1.05-.38-.42-2.23a16.09,16.09,0,0,0-2.72-2.63c-.53-.34-.85-1-1,.12a25.23,25.23,0,0,0-.08,3,4.07,4.07,0,0,0,.91,1.86c1.52,1.86,3.08,3.85,4.64,5.94.32,4.23.43,8.13.75,12.36,0,1.82-.61,4.24-1.13,4.46,0,0-.81.47-1.36-.06a15.91,15.91,0,0,1-2-2.61,1.19,1.19,0,0,0-1.9,0c-1.58,1.52-2.29,4.38-3.36,6.34-.26.45-1.05.81-1.93,0-2.19-3-.91-7.27-1.18-6.18Zm-9.95-14.47c1.11.53,3.24.3,3.14-1.52,0-.16,0-.69,0-.83-.24-.55-.87-.41-1,.14-.06.18.06.47-.1.57s-.45,0-.43-.47a.76.76,0,0,0-.2-.43c-.06-.06-.1-.06-.24-.06s-.14,0-.24.16a3.11,3.11,0,0,0-.08.43c0,.18-.08.24-.22.26s-.1,0-.22-.06-.16-.1-.16-.22a1.6,1.6,0,0,0-.06-.47,1.22,1.22,0,0,0-.28-.14c-.61,0-.67.71-.63,1,0,.06-.06,1.3.77,1.66ZM89.62,75.89c1.13.53,3.81.24,3.16-1.5,0-.16,0-.71-.06-.85-.22-.53-.85-.41-1,.16,0,.16.08.47-.08.57s-.47,0-.45-.47a1.09,1.09,0,0,0-.18-.45.46.46,0,0,0-.26-.06c-.14,0-.14.06-.22.18a1.45,1.45,0,0,0-.08.43c0,.16-.1.24-.22.26s-.12,0-.24-.06-.16-.1-.16-.24a1.58,1.58,0,0,0-.06-.45.43.43,0,0,0-.28-.14c-.61,0-.65.69-.61,1,0,.06-.08,1.32.75,1.66ZM56.69,62c1.13.55,3.24.32,3.16-1.5,0-.16,0-.71-.06-.85-.22-.53-.85-.41-1,.16-.06.18.06.47-.08.57s-.47,0-.45-.47a.82.82,0,0,0-.18-.43.34.34,0,0,0-.26-.08c-.14,0-.14.06-.22.18a1.46,1.46,0,0,0-.1.43c0,.18-.08.24-.22.26s-.1,0-.22-.06-.16-.1-.16-.24a1.58,1.58,0,0,0-.06-.45.43.43,0,0,0-.28-.14c-.61,0-.65.71-.63,1,0,0-.06,1.3.77,1.64ZM88,83.55h.1a28.8,28.8,0,0,0,4.09.47c1.13.06,1.68,1,.63,1.32s-2,.65-2,2.17c.12.75.1,1.13,0,1.32a0,0,0,0,1,0,0v0h0v0h0l-.06,0h0c-.26,0-.63-.2-.91-.34a5.59,5.59,0,0,1-2.72-4,1,1,0,0,1,1-1.05Zm9.08-8.25a1.44,1.44,0,0,1,.75.2,1,1,0,0,1,.61.81v0l0,0v0l0,0v0l-.06.06a1,1,0,0,1-1-.08c-.39-.24-.63-.57-.61-.81v0s0-.06,0-.08a.07.07,0,0,0,0,0h0s0,0,.06,0a.54.54,0,0,1,.24-.1ZM82.85,71.76s0,0,0,0h0a5.69,5.69,0,0,1-.55.49c-.49.55-.57,1-.53,2,0,.12.91,2.63,1.68,4.38A13.54,13.54,0,0,1,84,84.61a14.5,14.5,0,0,1-6,6.22,3,3,0,0,1-2.47,0h0a1.52,1.52,0,0,1-.65-1.42h0c2-1.4,4.23-2.49,6-6.2a6.35,6.35,0,0,0,.18-4.46,4.26,4.26,0,0,0-1-2.07h0c.34-.16,1.2.49,1.34.06a6.49,6.49,0,0,0-1.72-3.16,1.43,1.43,0,0,0-2.09-.12c-.73.41-.89,1.84-.55,3.12.38,1,1.44,1.11,2.19,3h0a3.57,3.57,0,0,1-.12,2c-.3,1-4.21,4-4.5,4.21l0,0v0h0v0h0v0h0v0a5.54,5.54,0,0,0,0-.61c0-.57.22-1.86.2-2.11h0v0h0c-1.3.83-1.72,3.38-2,4.15-3.26,2.25-7,4-9.12,6.22-1.11,1.74,7.68-2,8.71-2.43l0,0a6.1,6.1,0,0,0,.79,1.62,4.66,4.66,0,0,0,4.74,1.54c3.16-1.15,5-3.3,6.85-5.71.26-.38.69-.69,1.07-.38,1.28,2.86,5,4.88,9.73,5.11,1.09-1.34.57-2,.12-2.29-.14-.08-2.37-1-2.71-1.82s.3-1.52,1.38-2a47.84,47.84,0,0,0,9-1.72,7.87,7.87,0,0,1,1-3.08,1.55,1.55,0,0,1,.51-.55h0v0h0v0a.15.15,0,0,0,0-.08l-.49-.28-9.77,0a1,1,0,0,1-.26-.14l0,0v0h0v0h0v-.1h0a.61.61,0,0,1,.3-.2c2.33-.3,6.46-1,6.75-5,0-2.07-.89-3.42-3.43-3.81a3.47,3.47,0,0,0-3,4c-.08.53.18,1.58-.36,1.7-3.59.32-7.5,2.57-7.62,4.17h0l0,0h0l0,0h-.06l0,0a.92.92,0,0,1-.47-1,19.2,19.2,0,0,0-2.47-8.33c-.51-.51-.71-.71-.87-.73h-.06Zm-5.61-9.85c-1.68,4.76,1,10,2.78,9.46,1.3.55,2.13-1.95,2.67-4.7.36-.75.65-.83.83-.45,0,3.65.26,4.44,1.2,5.55a3.06,3.06,0,0,0,4,.08c.12-.14,1.62-1.64,1.62-1.64a1,1,0,0,1,1.36-.06c.49.45.43,1.24,1.48,1.76.89.36,2.8.08,3.24-.69.59-1,.75-1.36,1-1.76.42-.57,1.15-.3,1.15-.12s-.49.63-.2,1.2c.51.38.63.14.91.06,1.05-.51,1.86-2.82,1.86-2.82,0-.85-.45-.79-.75-.61s-.43.32-.83.59c-.53.06-1.52.41-2-.37s-.51-2.21-.89-3.14c0-.06-.69-1.46-.06-1.56.32.06,1,.24,1.09-.32.34-.55-.71-2.13-1.42-2.9a1.52,1.52,0,0,0-2.29-.08c-.57.55-.49,1.13-.61,1.7a2.6,2.6,0,0,0,.55,2.29c.57,1.13,1.62,2.61,1.28,4.66a1.84,1.84,0,0,1-1.68.85c-.45-.1-1.18-.28-1.56-3.14-.28-2.17.06-5.19-.85-6.61-.32-.85-.57-1.68-1.38-.22a3.39,3.39,0,0,0-.49,3.24,9.41,9.41,0,0,1,.53,5.07,10.44,10.44,0,0,1-1,1.36,1.59,1.59,0,0,1-2.07.28,2.21,2.21,0,0,1-1.24-1.72c.06-1.88.16-4.94-.18-5.59a1,1,0,0,0-1.68-.34c-1.72,1.56-2.55,4.19-3.08,6.28-.47,1.54-1,1.09-1.32.49-.87-.81-.93-7.11-2-6.08Zm30.54,25.71a94.47,94.47,0,0,0-.12-9.52c0-.65-.06-1.42-.1-2.23,2,3.34,4,6.87,5.94,10.74.71-.34.57-4.32.14-4.86-1.54-3.34-3.69-6.65-4.38-7.9-.24-.47-1.07-1.74-2.09-3.22-.18-2.11-.37-3.87-.51-4.42-.33-2.21.91.24.75-1.05-.41-2.21-1.64-3.71-3.08-5.75-.47-.65-.45-.79-1.18.16a4.27,4.27,0,0,0-.3,2.53c-.18-.26-.43-.59-.75-1-1.26-1.07-1.34-1.15-2.37-2-.53-.36-1.8-1-2,.08a6.35,6.35,0,0,0,.12,2.35,8.33,8.33,0,0,0,1.32,2c1.88,2.53,3.69,5.09,5.45,7.72.26,1.94.47,3.85.61,5.75a119.87,119.87,0,0,1,.1,13.78c.79,0,2-1.28,2.47-3.16Zm-4.64-24.23c0,.2.08.43.12.65l.3,1.4c-.43-.61-.75-1-.91-1.22-.93-1.09,0-.71.49-.83ZM126.94,74.8c-1.05,0-3.22-2-3.85-3.2a2.15,2.15,0,0,1,.12-1.7c.39-.24,1-.53,1.42-.26,0,0,.47.63.36.73.57.26.81.1.87-.12,0-.41-.16-.65-.16-1.09a1.2,1.2,0,0,1,2.13-.63,4.65,4.65,0,0,1,.59,2.15c0,.34-.57-.06-.89,0s-.38.45-.43.77c0,.89-.16,2.29-.16,3.34Zm11,18.07c-1.66,1-1.66,2-.32,2.09,2.29-.26,5-.45,6.89-3.28a10.74,10.74,0,0,0,1.11-4.26c.18-7.72-.1-15.26-1.26-20.83a13.2,13.2,0,0,1-.22-2c.16-.36.91,0,1.18-.41s-1.95-3.38-2.76-4.66c-.3-.59-.4-1-.87.06a5.92,5.92,0,0,0-.49,3.63,199.16,199.16,0,0,1,2.31,23.54,7.36,7.36,0,0,1-.45,1.94,16.83,16.83,0,0,1-2.27,2.63c-.75.55-2.35,1.09-2.86,1.5Zm-31.08,0c-.3.34.75,1.8,2.13,1.8,2.31-.26,4.34-1.56,6.2-5A8.71,8.71,0,0,0,116.57,86,82.69,82.69,0,0,0,115,66.67a3.24,3.24,0,0,1,.08-1.36c.14-.18.65,0,.91-.45s-1-3.73-1.86-5c-.28-.57-.39-1-.87.08a7.16,7.16,0,0,0-.81,3.63c1.09,7.6,1.44,14.24,2.17,21.84a3.14,3.14,0,0,1-.55,2.23,21.46,21.46,0,0,1-7.25,5.27ZM45.06,85.84c-1.6,2.55-1.74,6.36-.85,7.52A1.89,1.89,0,0,0,46,94c1-.45,1.46-2.49,1.22-3.24-.32-.53-.59-.61-.93-.16-.71,1.44-1,.45-1.07-.34a19.26,19.26,0,0,1,.2-4.05c.18-1.14,0-.79-.36-.32Zm29.06-25a.84.84,0,0,1,.75.55c.16.36.08.71-.18.79a.81.81,0,0,1-.79-.55c-.16-.36-.08-.73.18-.79Zm.2-1.52a2.28,2.28,0,0,0-1,.28A1.93,1.93,0,0,0,73,62.16c.57.26,1.13.83.75,1.16-1.62,1.72-5.82,4.6-6,5.13a0,0,0,0,0,0,0v0h0l0,0h0v0h0a12.36,12.36,0,0,0,3.12,0l0,0h0c.91-.34,5.19-5.25,5.19-5.25l-.65-.51a.37.37,0,0,1,0-.61,1.72,1.72,0,0,0,.18-2.61,2.83,2.83,0,0,0-1.3-.24ZM60.16,77.47A.72.72,0,0,1,61,78a.9.9,0,0,1-.16.87v0h0c-.1.16-.51.1-.79.1a.77.77,0,0,1-.71-.36c-.1-.3.2-.61.32-.83h0s0-.06.06-.08a.82.82,0,0,1,.47-.2Zm4.05-17.91c-.16,0-.34.12-.55.16a1.61,1.61,0,0,0-1.15,2c.83,5,1.38,8.83,2.19,13.84.12.59-.36,1.36-1,1.28-1.07-.73-1.34-2.21-3.18-2.13a3.59,3.59,0,0,0-3.06,2.86,7.37,7.37,0,0,0,0,3.26,2.71,2.71,0,0,0,3.06.77c.81-.34,1.48-1.16,1.76-1h0c.18.32,0,2.92-3.81,4.94-2.33,1-4.19,1.28-5.19-.61-.61-1.2.06-5.71-1.46-4.68C47.31,91.9,62.37,93.5,64,80.78c.12-.37.45-.73.69-.63a.48.48,0,0,1,.22.43c-.34,11.55-11.63,12.32-13.56,8.71a11.21,11.21,0,0,1-.65-3.91c-.1-.69-.26-1.09-.47-1.24-.47-.34-1.07.55-1.2,2.11a13.14,13.14,0,0,0-.14,2.8c.59,9.12,15.12,5.19,17.49-2.33,1.15-3.89,0-6.83.36-7.19h0l0,0h0a.07.07,0,0,0,0,0c1.46,1.56,3.49.2,3.93-.32a.65.65,0,0,1,1-.1,2.33,2.33,0,0,0,3.51-1,29.89,29.89,0,0,0,.49-4.32,4.13,4.13,0,0,0-1.56.65.28.28,0,0,0-.1.2c-.06.41-.14.83-.2,1.24,0,0,0,.06,0,.1a.74.74,0,0,1-.14.12c-.26.14-.71.06-.73-.32-.36-1.58-1.78-1.78-2.65.67-.59.49-1.66.57-1.78-.14.16-1.66-.51-1.86-1.84-1.09-.43-3.26-.85-6.38-1.28-9.64.55,0,1.05.41,1.56-.24-.55-1.7-1.7-5.19-2.35-5.51h0a.24.24,0,0,0-.1-.1.07.07,0,0,0,0,0s0,0,0,0l-.08,0a.28.28,0,0,0-.18,0ZM53.31,77.62c-2.88,1.42-5.69,2.74-8.53,4.11.1-1.95,4.05-5.43,6.75-5.49,1.76.06,1.32.69,1.78,1.38Z"/><path class="cls-8" d="M122.1,121.82h0c2.74.13,5.3,0,8,.16a1,1,0,0,1-.07,1.36s0,0,0,0H130l-2.29-.07s0-.09,0-.13c-.22-.62-1.74-.58-2.12-.09v0a.07.07,0,0,0,0,0,.07.07,0,0,0,0,0v.07a.11.11,0,0,0,0,.07,20.44,20.44,0,0,1-3.5-.07c-.33-.45-.31-1.25.11-1.42ZM120.83,115h0a1.71,1.71,0,0,0-.58,3.14c-18.79,0-47.61-.33-53.8-.33-3.45,0-14.38-.4-14.61-.4,2.34,3.43,5.74,4.12,10.2,4.19,8.35,0,47-.09,58-.09a3.85,3.85,0,0,0,.69,4,.08.08,0,0,0,0,0,.08.08,0,0,0,.07,0h0c.73.18,1-.36,1.31-.73a75.76,75.76,0,0,0,8.44,0v0c.42.6.82,1.18,1.6,1.07,1.38-.29,2.45-.42,2.49-3.21,0,0-.13-4.74-3.25-4.45-.73.11-2.8.31-2.8.31-2.41-.27-4.16-.31-6.84-.4.24-.33.67-1.6.13-2.07a.75.75,0,0,0-.62-.13h0v0h0s0,0,0-.07h0a6.08,6.08,0,0,1-.29-.82h0v0h0Z"/><polygon class="cls-9" points="378.63 56.13 378.63 118.23 238.55 118.23 238.55 174.36 189.8 174.36 189.8 0 238.55 0 238.55 56.13 378.63 56.13"/><rect class="cls-2" x="238.55" width="140.07" height="56.13"/><rect class="cls-1" x="238.55" y="118.23" width="140.07" height="56.13"/><path id="_301" data-name="301" class="cls-10" d="M202.73,30.28h5.46a.6.6,0,0,1,.55.65v3.26a.6.6,0,0,1-.55.65h-5.46a.6.6,0,0,1-.54-.65V30.93A.6.6,0,0,1,202.73,30.28Z"/><path id="_300" data-name="300" class="cls-11" d="M202.87,30.47h5.18a.56.56,0,0,1,.52.59v3a.56.56,0,0,1-.52.59h-5.18a.56.56,0,0,1-.52-.59v-3A.56.56,0,0,1,202.87,30.47Z"/><path id="_299" data-name="299" class="cls-12" d="M205.25,31.61h.31v.18l.26.17.2-.21.24.16-.23.18.06.25h.29v.33l-.23,0-.11.21.26.24-.2.19-.21-.21-.31.08v.3l-.34,0,0-.29-.29-.15-.16.21-.24-.15.14-.24-.17-.15h-.24V32.3l.24,0,.17-.25-.2-.19.26-.22.19.18.31-.05Z"/><ellipse id="_298" data-name="298" class="cls-13" cx="205.34" cy="32.51" rx="0.34" ry="0.37"/><path id="_297" data-name="297" class="cls-14" d="M202.19,30.66l-.5.57"/><path id="_296" data-name="296" class="cls-14" d="M202.53,30.66l-.5.57"/><path id="_295" data-name="295" class="cls-14" d="M202.87,30.66l-.5.57"/><path id="_294" data-name="294" class="cls-14" d="M203.2,30.66l-.5.57"/><path id="_293" data-name="293" class="cls-14" d="M203.54,30.66l-.5.57"/><path id="_292" data-name="292" class="cls-14" d="M203.87,30.66l-.5.57"/><path id="_291" data-name="291" class="cls-14" d="M205.21,30.66l-.5.57"/><path id="_290" data-name="290" class="cls-14" d="M205.55,30.66l-.5.57"/><path id="_289" data-name="289" class="cls-14" d="M205.88,30.66l-.5.57"/><path id="_288" data-name="288" class="cls-14" d="M206.22,30.66l-.5.57"/><path id="_287" data-name="287" class="cls-14" d="M206.56,30.66l-.5.57"/><path id="_286" data-name="286" class="cls-14" d="M206.89,30.66l-.5.57"/><path id="_285" data-name="285" class="cls-14" d="M205.55,30.66l-.5.57"/><path id="_284" data-name="284" class="cls-14" d="M207.23,30.66l-.5.57"/><path id="_283" data-name="283" class="cls-14" d="M207.56,30.66l-.5.57"/><path id="_282" data-name="282" class="cls-14" d="M207.9,30.66l-.5.57"/><path id="_281" data-name="281" class="cls-14" d="M208.24,30.66l-.5.57"/><path id="_280" data-name="280" class="cls-14" d="M207.73,30.66l.5.57"/><path id="_279" data-name="279" class="cls-14" d="M207.4,30.66l.5.57"/><path id="_278" data-name="278" class="cls-14" d="M207.06,30.66l.5.57"/><path id="_277" data-name="277" class="cls-14" d="M206.72,30.66l.5.57"/><path id="_276" data-name="276" class="cls-14" d="M206.39,30.66l.5.57"/><path id="_275" data-name="275" class="cls-14" d="M206.05,30.66l.5.57"/><path id="_274" data-name="274" class="cls-14" d="M205.71,30.66l.5.57"/><path id="_273" data-name="273" class="cls-14" d="M205.38,30.66l.5.57"/><path id="_272" data-name="272" class="cls-14" d="M205,30.66l.5.57"/><path id="_271" data-name="271" class="cls-14" d="M204.71,30.66l.5.57"/><path id="_270" data-name="270" class="cls-14" d="M203.37,30.66l.5.57"/><path id="_269" data-name="269" class="cls-14" d="M203,30.66l.5.57"/><path id="_268" data-name="268" class="cls-14" d="M205.38,30.66l.5.57"/><path id="_267" data-name="267" class="cls-14" d="M202.7,30.66l.5.57"/><path id="_266" data-name="266" class="cls-14" d="M202.36,30.66l.5.57"/><path id="_265" data-name="265" class="cls-14" d="M202,30.66l.5.57"/><path id="_264" data-name="264" class="cls-14" d="M201.69,30.66l.5.57"/><path id="_263" data-name="263" class="cls-14" d="M202.19,33.88l-.5.57"/><path id="_262" data-name="262" class="cls-14" d="M202.53,33.88l-.5.57"/><path id="_261" data-name="261" class="cls-14" d="M202.87,33.88l-.5.57"/><path id="_260" data-name="260" class="cls-14" d="M203.2,33.88l-.5.57"/><path id="_259" data-name="259" class="cls-14" d="M203.54,33.88l-.5.57"/><path id="_258" data-name="258" class="cls-14" d="M203.87,33.88l-.5.57"/><path id="_257" data-name="257" class="cls-14" d="M205.21,33.88l-.5.57"/><path id="_256" data-name="256" class="cls-14" d="M205.55,33.88l-.5.57"/><path id="_255" data-name="255" class="cls-14" d="M205.88,33.88l-.5.57"/><path id="_254" data-name="254" class="cls-14" d="M206.22,33.88l-.5.57"/><path id="_253" data-name="253" class="cls-14" d="M206.56,33.88l-.5.57"/><path id="_252" data-name="252" class="cls-14" d="M206.89,33.88l-.5.57"/><path id="_251" data-name="251" class="cls-14" d="M205.55,33.88l-.5.57"/><path id="_250" data-name="250" class="cls-14" d="M207.23,33.88l-.5.57"/><path id="_249" data-name="249" class="cls-14" d="M207.56,33.88l-.5.57"/><path id="_248" data-name="248" class="cls-14" d="M207.9,33.88l-.5.57"/><path id="_247" data-name="247" class="cls-14" d="M208.24,33.88l-.5.57"/><path id="_246" data-name="246" class="cls-14" d="M207.73,33.88l.5.57"/><path id="_245" data-name="245" class="cls-14" d="M207.4,33.88l.5.57"/><path id="_244" data-name="244" class="cls-14" d="M207.06,33.88l.5.57"/><path id="_243" data-name="243" class="cls-14" d="M206.72,33.88l.5.57"/><path id="_242" data-name="242" class="cls-14" d="M206.39,33.88l.5.57"/><path id="_241" data-name="241" class="cls-14" d="M206.05,33.88l.5.57"/><path id="_240" data-name="240" class="cls-14" d="M205.71,33.88l.5.57"/><path id="_239" data-name="239" class="cls-14" d="M205.38,33.88l.5.57"/><path id="_238" data-name="238" class="cls-14" d="M205,33.88l.5.57"/><path id="_237" data-name="237" class="cls-14" d="M204.71,33.88l.5.57"/><path id="_236" data-name="236" class="cls-14" d="M203.37,33.88l.5.57"/><path id="_235" data-name="235" class="cls-14" d="M203,33.88l.5.57"/><path id="_234" data-name="234" class="cls-14" d="M205.38,33.88l.5.57"/><path id="_233" data-name="233" class="cls-14" d="M202.7,33.88l.5.57"/><path id="_232" data-name="232" class="cls-14" d="M202.36,33.88l.5.57"/><path id="_231" data-name="231" class="cls-14" d="M202,33.88l.5.57"/><path id="_230" data-name="230" class="cls-14" d="M201.69,33.88l.5.57"/><path id="_229" data-name="229" class="cls-10" d="M230.17,30.28H224.7a.6.6,0,0,0-.54.65v3.26a.6.6,0,0,0,.54.65h5.46a.6.6,0,0,0,.54-.65V30.93A.6.6,0,0,0,230.17,30.28Z"/><path id="_228" data-name="228" class="cls-11" d="M230,30.47h-5.18a.56.56,0,0,0-.52.59v3a.56.56,0,0,0,.52.59H230a.56.56,0,0,0,.52-.59v-3A.56.56,0,0,0,230,30.47Z"/><path id="_227" data-name="227" class="cls-12" d="M227.65,31.61h-.31v.18l-.26.17-.2-.21-.24.16.23.18-.06.25h-.29v.33l.23,0,.11.21-.26.24.2.19.21-.21.31.08v.3l.34,0,0-.29.29-.15.16.21.24-.15-.14-.24.17-.15h.24V32.3l-.24,0-.17-.25.2-.19-.26-.22-.19.18-.31-.05Z"/><ellipse id="_226" data-name="226" class="cls-13" cx="227.56" cy="32.51" rx="0.34" ry="0.37"/><path id="_225" data-name="225" class="cls-14" d="M229.7,30.66l.5.57"/><path id="_224" data-name="224" class="cls-14" d="M229.37,30.66l.5.57"/><path id="_223" data-name="223" class="cls-14" d="M229,30.66l.5.57"/><path id="_222" data-name="222" class="cls-14" d="M228.69,30.66l.5.57"/><path id="_221" data-name="221" class="cls-14" d="M228.36,30.66l.5.57"/><path id="_220" data-name="220" class="cls-14" d="M228,30.66l.5.57"/><path id="_219" data-name="219" class="cls-14" d="M227.69,30.66l.5.57"/><path id="_218" data-name="218" class="cls-14" d="M227.35,30.66l.5.57"/><path id="_217" data-name="217" class="cls-14" d="M227,30.66l.5.57"/><path id="_216" data-name="216" class="cls-14" d="M226.68,30.66l.5.57"/><path id="_215" data-name="215" class="cls-14" d="M226.34,30.66l.5.57"/><path id="_214" data-name="214" class="cls-14" d="M226,30.66l.5.57"/><path id="_213" data-name="213" class="cls-14" d="M227.35,30.66l.5.57"/><path id="_212" data-name="212" class="cls-14" d="M225.67,30.66l.5.57"/><path id="_211" data-name="211" class="cls-14" d="M225.33,30.66l.5.57"/><path id="_210" data-name="210" class="cls-14" d="M225,30.66l.5.57"/><path id="_209" data-name="209" class="cls-14" d="M224.66,30.66l.5.57"/><path id="_208" data-name="208" class="cls-14" d="M225.16,30.66l-.5.57"/><path id="_207" data-name="207" class="cls-14" d="M225.5,30.66l-.5.57"/><path id="_206" data-name="206" class="cls-14" d="M225.84,30.66l-.5.57"/><path id="_205" data-name="205" class="cls-14" d="M226.17,30.66l-.5.57"/><path id="_204" data-name="204" class="cls-14" d="M226.51,30.66l-.5.57"/><path id="_203" data-name="203" class="cls-14" d="M226.85,30.66l-.5.57"/><path id="_202" data-name="202" class="cls-14" d="M227.18,30.66l-.5.57"/><path id="_201" data-name="201" class="cls-14" d="M227.52,30.66l-.5.57"/><path id="_200" data-name="200" class="cls-14" d="M227.85,30.66l-.5.57"/><path id="_199" data-name="199" class="cls-14" d="M228.19,30.66l-.5.57"/><path id="_198" data-name="198" class="cls-14" d="M228.53,30.66l-.5.57"/><path id="_197" data-name="197" class="cls-14" d="M228.86,30.66l-.5.57"/><path id="_196" data-name="196" class="cls-14" d="M227.52,30.66l-.5.57"/><path id="_195" data-name="195" class="cls-14" d="M229.2,30.66l-.5.57"/><path id="_194" data-name="194" class="cls-14" d="M229.53,30.66l-.5.57"/><path id="_193" data-name="193" class="cls-14" d="M229.87,30.66l-.5.57"/><path id="_192" data-name="192" class="cls-14" d="M230.21,30.66l-.5.57"/><path id="_191" data-name="191" class="cls-14" d="M229.7,33.88l.5.57"/><path id="_190" data-name="190" class="cls-14" d="M229.37,33.88l.5.57"/><path id="_189" data-name="189" class="cls-14" d="M229,33.88l.5.57"/><path id="_188" data-name="188" class="cls-14" d="M228.69,33.88l.5.57"/><path id="_187" data-name="187" class="cls-14" d="M228.36,33.88l.5.57"/><path id="_186" data-name="186" class="cls-14" d="M228,33.88l.5.57"/><path id="_185" data-name="185" class="cls-14" d="M227.69,33.88l.5.57"/><path id="_184" data-name="184" class="cls-14" d="M227.35,33.88l.5.57"/><path id="_183" data-name="183" class="cls-14" d="M227,33.88l.5.57"/><path id="_182" data-name="182" class="cls-14" d="M226.68,33.88l.5.57"/><path id="_181" data-name="181" class="cls-14" d="M226.34,33.88l.5.57"/><path id="_180" data-name="180" class="cls-14" d="M226,33.88l.5.57"/><path id="_179" data-name="179" class="cls-14" d="M227.35,33.88l.5.57"/><path id="_178" data-name="178" class="cls-14" d="M225.67,33.88l.5.57"/><path id="_177" data-name="177" class="cls-14" d="M225.33,33.88l.5.57"/><path id="_176" data-name="176" class="cls-14" d="M225,33.88l.5.57"/><path id="_175" data-name="175" class="cls-14" d="M224.66,33.88l.5.57"/><path id="_174" data-name="174" class="cls-14" d="M225.16,33.88l-.5.57"/><path id="_173" data-name="173" class="cls-14" d="M225.5,33.88l-.5.57"/><path id="_172" data-name="172" class="cls-14" d="M225.84,33.88l-.5.57"/><path id="_171" data-name="171" class="cls-14" d="M226.17,33.88l-.5.57"/><path id="_170" data-name="170" class="cls-14" d="M226.51,33.88l-.5.57"/><path id="_169" data-name="169" class="cls-14" d="M226.85,33.88l-.5.57"/><path id="_168" data-name="168" class="cls-14" d="M227.18,33.88l-.5.57"/><path id="_167" data-name="167" class="cls-14" d="M227.52,33.88l-.5.57"/><path id="_166" data-name="166" class="cls-14" d="M227.85,33.88l-.5.57"/><path id="_165" data-name="165" class="cls-14" d="M228.19,33.88l-.5.57"/><path id="_164" data-name="164" class="cls-14" d="M228.53,33.88l-.5.57"/><path id="_163" data-name="163" class="cls-14" d="M228.86,33.88l-.5.57"/><path id="_162" data-name="162" class="cls-14" d="M227.52,33.88l-.5.57"/><path id="_161" data-name="161" class="cls-14" d="M229.2,33.88l-.5.57"/><path id="_160" data-name="160" class="cls-14" d="M229.53,33.88l-.5.57"/><path id="_159" data-name="159" class="cls-14" d="M229.87,33.88l-.5.57"/><path id="_158" data-name="158" class="cls-14" d="M230.21,33.88l-.5.57"/><path id="_157" data-name="157" class="cls-15" d="M212.47,39.82c-8.16,10.09-11.63,11.36-10,12.18s6.88-4.39,12.35-11.31,8.81-13.07,7.18-13.88S221.14,29.09,212.47,39.82Z"/><path id="_156" data-name="156" class="cls-16" d="M205.6,47.15l2.86.95c-2.69,3.22-5.71,4.55-6.55,4s1.51-1.9,3.7-4.93Z"/><path id="_155" data-name="155" class="cls-16" d="M205.6,47.53l2.35.76c-2.62,3.1-5.21,4-5.88,3.6S203.47,50.45,205.6,47.53Z"/><path id="_154" data-name="154" class="cls-17" d="M214.38,39.38s0,.27,0,.35a2.6,2.6,0,0,1,0,.3c0,.08,0,.16-.11.19a.34.34,0,0,1-.17.16.89.89,0,0,1-.21.14.35.35,0,0,1-.25,0l-.19-.16c0-.07,0-.18,0-.26a1.36,1.36,0,0,1,0,.3.62.62,0,0,1-.08.26"/><path id="_153" data-name="153" class="cls-17" d="M213.61,40.95l0,0c0,.06,0,0-.08,0a.85.85,0,0,0-.27-.09h-.29a.77.77,0,0,0-.27,0c-.06.07-.15.1-.21.16a.41.41,0,0,0-.13.19c-.06.06-.09.16-.15.21s-.07.1-.1.19a.29.29,0,0,1,.23.09c.09.05-.07,0-.1-.09a.41.41,0,0,0-.19,0c-.09,0-.15,0-.25,0a.2.2,0,0,1-.15,0"/><path id="_152" data-name="152" class="cls-17" d="M212.48,42.12s-.24,0-.31,0A.32.32,0,0,1,212,42c0-.06,0,.11,0,.19s0,.14-.1.23a2.3,2.3,0,0,1-.19.14.63.63,0,0,1-.19.12.79.79,0,0,0-.19.12c-.07.06-.06.12-.1.21a.31.31,0,0,0,.08.24.65.65,0,0,0,.13.21c.05.11.11.16,0,.19s-.11,0-.19,0"/><path id="_151" data-name="151" class="cls-17" d="M211.16,43.75l-.31-.12h-.29c-.11,0-.14,0-.23.09a.6.6,0,0,1-.19.17,1.66,1.66,0,0,0-.17.26,1,1,0,0,0,0,.3c0,.14,0,.16,0,.28a.76.76,0,0,0,.13.28s0,0,0,0"/><path id="_150" data-name="150" class="cls-18" d="M210.17,45.37a1,1,0,0,0-.06.11c-.07.09-.07.09-.18.09s-.08,0-.15-.08a2,2,0,0,1-.1-.18,1.75,1.75,0,0,0-.07-.17c0-.06-.06-.1-.09-.15a.19.19,0,0,0-.07,0c.08,0,.09.05.15.11s.05.11.07.17a1.85,1.85,0,0,1,0,.24.73.73,0,0,1,0,.26.78.78,0,0,1-.1.13.93.93,0,0,0-.1.15l-.13.11a.35.35,0,0,1-.16.07.36.36,0,0,1-.18-.07l-.15-.13a.59.59,0,0,1-.1-.15.15.15,0,0,0-.18,0,.46.46,0,0,0-.1.13l-.09.08"/><path id="_149" data-name="149" class="cls-18" d="M208.54,46.13l.15.12a1.76,1.76,0,0,1,.07.25,1.65,1.65,0,0,1,0,.32,1.78,1.78,0,0,1-.09.3,1.48,1.48,0,0,1-.17.14l-.24,0a.3.3,0,0,1-.22,0,.58.58,0,0,1-.2-.09c-.07,0-.11-.09-.18-.14s-.09-.13-.15-.21a1.07,1.07,0,0,1-.11-.21c0,.1.07.18.09.28a.59.59,0,0,1,.07.25,1.31,1.31,0,0,1,0,.32,1.41,1.41,0,0,1,0,.28v.07"/><path id="_148" data-name="148" class="cls-17" d="M205.81,48.21v0c0-.09,0,0,0,.13a.27.27,0,0,0,.3.07c.1-.09.09-.16.27-.2a.56.56,0,0,1,.33.13.47.47,0,0,1,.24.23c0,.11.06.19-.06.23a.67.67,0,0,1-.33.14c-.14,0-.24,0-.3.07s-.09.18-.09.37a2.72,2.72,0,0,0-.06.3.47.47,0,0,1-.27.07c0-.1-.07-.29-.09-.4a1.11,1.11,0,0,0-.09-.37.86.86,0,0,0-.21-.23.37.37,0,0,0-.18-.13c.12.07.13.14.15.3a.45.45,0,0,1-.3.1.28.28,0,0,1-.27-.17,2.12,2.12,0,0,1-.09.37c-.06.1-.09.2-.15.33s.08.17.09.37,0,.26.12.33.07.06.15.07a.59.59,0,0,1-.39-.1c-.09-.06-.15-.14-.24-.2a1.1,1.1,0,0,0-.36-.2c-.14,0-.24,0-.3.07a.61.61,0,0,0-.18.33.55.55,0,0,0,0,.4.35.35,0,0,1,0,.33c-.07.11-.17.12-.33.17a.92.92,0,0,1-.3-.07"/><path id="_147" data-name="147" class="cls-19" d="M221.77,30.72c3.62-7.9,6-14.63,5.36-15s-4.13,5.72-7.75,13.62Z"/><path id="_146" data-name="146" class="cls-20" d="M221.53,30.58c3.49-7.62,5.9-14.06,5.37-14.37s-3.79,5.63-7.28,13.25"/><path id="_145" data-name="145" class="cls-21" d="M220.93,26.6c-.43.89-.87,1.91-1.31,2.86l1.91,1.11c.44-1,.91-2,1.31-2.86Z"/><path id="_144" data-name="144" class="cls-21" d="M221.09,26.91c-.42.89-.72,1.57-1.16,2.53l1.43.83c.44-1,.76-1.62,1.16-2.53Z"/><polygon id="_143" data-name="143" class="cls-22" points="222.13 27.94 221.18 27.39 220.33 29.24 221.29 29.79 222.13 27.94"/><path id="_142" data-name="142" class="cls-21" d="M222.13,27.94l-1.8,1.3"/><path id="_141" data-name="141" class="cls-21" d="M221.29,29.79l-.11-2.41"/><path id="_140" data-name="140" class="cls-21" d="M226.45,18.51l-1-.56"/><path id="_139" data-name="139" class="cls-23" d="M226.33,17a.34.34,0,0,0-.21.39.26.26,0,0,0,.33.21.34.34,0,0,0,.21-.39A.26.26,0,0,0,226.33,17Z"/><path id="_138" data-name="138" class="cls-15" d="M220.43,39.82c8.16,10.09,11.63,11.36,10,12.18s-6.88-4.39-12.35-11.31-8.81-13.07-7.18-13.88S211.76,29.09,220.43,39.82Z"/><path id="_137" data-name="137" class="cls-16" d="M227.29,47.15l-2.86.95c2.69,3.22,5.71,4.55,6.55,4s-1.51-1.9-3.7-4.93Z"/><path id="_136" data-name="136" class="cls-16" d="M227.29,47.53l-2.35.76c2.62,3.1,5.21,4,5.88,3.6S229.42,50.45,227.29,47.53Z"/><path id="_135" data-name="135" class="cls-17" d="M218.52,39.38s0,.27,0,.35a2.58,2.58,0,0,0,0,.3c0,.08,0,.16.1.19a.34.34,0,0,0,.17.16.88.88,0,0,0,.21.14.35.35,0,0,0,.25,0l.19-.16c0-.07,0-.18,0-.26a1.34,1.34,0,0,0,0,.3.61.61,0,0,0,.08.26"/><path id="_134" data-name="134" class="cls-17" d="M219.29,40.95l0,0c0,.06,0,0,.08,0a.85.85,0,0,1,.27-.09H220a.77.77,0,0,1,.27,0c.06.07.15.1.21.16a.41.41,0,0,1,.13.19c.06.06.09.16.15.21s.07.1.1.19a.29.29,0,0,0-.23.09c-.09.05.07,0,.1-.09a.41.41,0,0,1,.19,0c.09,0,.15,0,.25,0a.2.2,0,0,0,.15,0"/><path id="_133" data-name="133" class="cls-17" d="M220.42,42.12s.24,0,.31,0a.32.32,0,0,0,.19-.17c0-.06,0,.11,0,.19s0,.14.1.23a2.28,2.28,0,0,0,.19.14.63.63,0,0,0,.19.12.78.78,0,0,1,.19.12c.07.06.06.12.1.21a.31.31,0,0,1-.08.24.65.65,0,0,1-.13.21c-.05.11-.11.16,0,.19s.11,0,.19,0"/><path id="_132" data-name="132" class="cls-17" d="M221.73,43.75l.31-.12h.29c.11,0,.14,0,.23.09a.6.6,0,0,0,.19.17,1.6,1.6,0,0,1,.17.26,1,1,0,0,1,0,.3c0,.14,0,.16,0,.28a.76.76,0,0,1-.13.28s0,0,0,0"/><path id="_131" data-name="131" class="cls-18" d="M222.73,45.37a1,1,0,0,1,.06.11c.07.09.07.09.18.09s.08,0,.15-.08a1.93,1.93,0,0,0,.1-.18,1.76,1.76,0,0,1,.07-.17c0-.06.06-.1.09-.15a.19.19,0,0,1,.07,0c-.08,0-.09.05-.15.11s-.05.11-.07.17a1.8,1.8,0,0,0,0,.24.74.74,0,0,0,0,.26.77.77,0,0,0,.1.13.91.91,0,0,1,.11.15l.13.11a.35.35,0,0,0,.16.07.36.36,0,0,0,.18-.07l.15-.13a.58.58,0,0,0,.1-.15.15.15,0,0,1,.18,0,.46.46,0,0,1,.1.13l.09.08"/><path id="_130" data-name="130" class="cls-18" d="M224.36,46.13l-.15.12a1.79,1.79,0,0,0-.07.25,1.68,1.68,0,0,0,0,.32,1.75,1.75,0,0,0,.09.3,1.55,1.55,0,0,0,.17.14l.24,0a.3.3,0,0,0,.22,0,.58.58,0,0,0,.2-.09c.07,0,.11-.09.18-.14s.09-.13.15-.21a1.05,1.05,0,0,0,.11-.21c0,.1-.07.18-.09.28a.59.59,0,0,0-.07.25,1.33,1.33,0,0,0,0,.32,1.44,1.44,0,0,0,0,.28v.07"/><path id="_129" data-name="129" class="cls-17" d="M227.09,48.21v0c0-.09,0,0,0,.13a.27.27,0,0,1-.3.07c-.1-.09-.09-.16-.27-.2a.56.56,0,0,0-.33.13.47.47,0,0,0-.24.23c0,.11-.06.19.06.23a.67.67,0,0,0,.33.14c.14,0,.24,0,.3.07s.09.18.09.37a2.9,2.9,0,0,1,.06.3.47.47,0,0,0,.27.07c0-.1.07-.29.09-.4a1.12,1.12,0,0,1,.09-.37.86.86,0,0,1,.21-.23.37.37,0,0,1,.18-.13c-.12.07-.13.14-.15.3a.45.45,0,0,0,.3.1.28.28,0,0,0,.27-.17,2.09,2.09,0,0,0,.09.37c.06.1.09.2.15.33s-.08.17-.09.37,0,.26-.12.33-.07.06-.15.07a.59.59,0,0,0,.39-.1c.09-.06.15-.14.24-.2a1.11,1.11,0,0,1,.36-.2c.14,0,.24,0,.3.07a.61.61,0,0,1,.18.33.56.56,0,0,1,0,.4.35.35,0,0,0,0,.33c.07.11.17.12.33.17a.92.92,0,0,0,.3-.07"/><path id="_128" data-name="128" class="cls-19" d="M211.12,30.72c-3.62-7.9-6-14.63-5.36-15s4.13,5.72,7.75,13.62Z"/><path id="_127" data-name="127" class="cls-20" d="M211.36,30.58c-3.49-7.62-5.9-14.06-5.37-14.37s3.79,5.63,7.28,13.25"/><path id="_126" data-name="126" class="cls-21" d="M212,26.6c.43.89.87,1.91,1.31,2.86l-1.91,1.11c-.44-1-.91-2-1.31-2.86Z"/><path id="_125" data-name="125" class="cls-21" d="M211.8,26.91c.42.89.72,1.57,1.16,2.53l-1.43.83c-.44-1-.76-1.62-1.16-2.53Z"/><polygon id="_124" data-name="124" class="cls-22" points="210.76 27.94 211.72 27.39 212.57 29.24 211.61 29.79 210.76 27.94"/><path id="_123" data-name="123" class="cls-21" d="M210.76,27.94l1.8,1.3"/><path id="_122" data-name="122" class="cls-21" d="M211.61,29.79l.11-2.41"/><path id="_121" data-name="121" class="cls-21" d="M206.44,18.51l1-.56"/><path id="_120" data-name="120" class="cls-23" d="M206.56,17a.34.34,0,0,1,.21.39.26.26,0,0,1-.33.21.34.34,0,0,1-.21-.39A.26.26,0,0,1,206.56,17Z"/><path id="_119" data-name="119" class="cls-24" d="M213.95,26.49c0,6.63,0,9.13-.36,9.48S203,36,203,37.87s8.4,3.79,10.92,3.79q5,0,5-5.69V26.49Z"/><path id="_118" data-name="118" class="cls-14" d="M213.95,28.39v.95a13.52,13.52,0,0,0,5,0v-.95A13.52,13.52,0,0,1,213.95,28.39Z"/><path id="_117" data-name="117" class="cls-14" d="M213.95,26.49v.95a13.54,13.54,0,0,0,5,0v-.95A13.54,13.54,0,0,1,213.95,26.49Z"/><path id="_116" data-name="116" class="cls-14" d="M213.95,27.44v.95a13.52,13.52,0,0,0,5,0v-.95A13.54,13.54,0,0,1,213.95,27.44Z"/><path id="_115" data-name="115" class="cls-14" d="M213.95,29.34v.95a13.56,13.56,0,0,0,5,0v-.95A13.52,13.52,0,0,1,213.95,29.34Z"/><ellipse id="_114" data-name="114" class="cls-25" cx="214.18" cy="27.98" rx="0.23" ry="0.2"/><ellipse id="_113" data-name="113" class="cls-25" cx="215.1" cy="28.08" rx="0.23" ry="0.2"/><ellipse id="_112" data-name="112" class="cls-26" cx="216.01" cy="28.18" rx="0.23" ry="0.2"/><ellipse id="_111" data-name="111" class="cls-26" cx="216.93" cy="28.18" rx="0.23" ry="0.2"/><ellipse id="_110" data-name="110" class="cls-25" cx="217.85" cy="28.08" rx="0.23" ry="0.2"/><ellipse id="_109" data-name="109" class="cls-25" cx="218.76" cy="27.98" rx="0.23" ry="0.2"/><path id="_108" data-name="108" class="cls-14" d="M213.95,31.23l5,5.12"/><path id="_107" data-name="107" class="cls-14" d="M214.45,31.23,219,35.78"/><path id="_106" data-name="106" class="cls-14" d="M215.13,31.42,219,35.21"/><path id="_105" data-name="105" class="cls-14" d="M215.63,31.42,219,34.64"/><path id="_104" data-name="104" class="cls-14" d="M216.13,31.42,219,34.08"/><path id="_103" data-name="103" class="cls-14" d="M216.64,31.42,219,33.51"/><path id="_102" data-name="102" class="cls-14" d="M217.14,31.42,219,32.94"/><path id="_101" data-name="101" class="cls-14" d="M217.65,31.42,219,32.56"/><path id="_100" data-name="100" class="cls-14" d="M218.15,31.42l.84.76"/><path id="_99" data-name="99" class="cls-14" d="M218.66,31.42l.34.38"/><path id="_98" data-name="98" class="cls-14" d="M213.95,31.8l5,5.12"/><path id="_97" data-name="97" class="cls-14" d="M219,31.23l-5.55,5.69"/><path id="_96" data-name="96" class="cls-14" d="M218.49,31.23l-4.87,4.93"/><path id="_95" data-name="95" class="cls-14" d="M217.82,31.42l-3.87,3.79"/><path id="_94" data-name="94" class="cls-14" d="M217.31,31.42l-3.36,3.22"/><path id="_93" data-name="93" class="cls-14" d="M216.81,31.42l-2.86,2.65"/><path id="_92" data-name="92" class="cls-14" d="M216.3,31.42l-2.35,2.09"/><path id="_91" data-name="91" class="cls-14" d="M215.8,31.42l-1.85,1.52"/><path id="_90" data-name="90" class="cls-14" d="M215.29,31.42l-1.34,1.14"/><path id="_89" data-name="89" class="cls-14" d="M214.79,31.42l-.84.76"/><path id="_88" data-name="88" class="cls-14" d="M214.29,31.42l-.34.38"/><path id="_87" data-name="87" class="cls-14" d="M219,31.8l-5.55,5.69"/><path id="_86" data-name="86" class="cls-14" d="M219,32.37l-5.55,5.69"/><path id="_85" data-name="85" class="cls-14" d="M219,32.94l-5.55,5.69"/><path id="_84" data-name="84" class="cls-14" d="M219,33.51l-5.55,5.69"/><path id="_83" data-name="83" class="cls-14" d="M219,34.08l-5.55,5.69"/><path id="_82" data-name="82" class="cls-14" d="M219,34.64l-5.55,5.69"/><path id="_81" data-name="81" class="cls-14" d="M219,35.21l-5.55,5.69"/><path id="_80" data-name="80" class="cls-14" d="M219,35.78l-5.55,5.69"/><path id="_79" data-name="79" class="cls-14" d="M219,36.35l-5.21,5.31"/><path id="_78" data-name="78" class="cls-14" d="M219,36.92l-4.71,4.74"/><path id="_77" data-name="77" class="cls-14" d="M218.82,37.68l-3.7,3.79"/><path id="_76" data-name="76" class="cls-14" d="M218.66,38.43l-3,3"/><path id="_75" data-name="75" class="cls-14" d="M218.32,39.38l-1.51,1.52"/><path id="_74" data-name="74" class="cls-14" d="M213.95,32.37l4.87,4.93"/><path id="_73" data-name="73" class="cls-14" d="M213.95,32.94l4.87,4.93"/><path id="_72" data-name="72" class="cls-14" d="M213.95,33.51l4.71,4.74"/><path id="_71" data-name="71" class="cls-14" d="M213.95,34.08l4.71,4.74"/><path id="_70" data-name="70" class="cls-14" d="M213.95,34.64l4.54,4.55"/><path id="_69" data-name="69" class="cls-14" d="M213.78,35l4.54,4.55"/><path id="_68" data-name="68" class="cls-14" d="M213.78,35.59l4.2,4.17"/><path id="_67" data-name="67" class="cls-14" d="M213.61,36l4.2,4.17"/><path id="_66" data-name="66" class="cls-14" d="M213.45,36.35l4,4"/><path id="_65" data-name="65" class="cls-14" d="M213.45,36.92l3.86,3.79"/><path id="_64" data-name="64" class="cls-14" d="M213.45,37.49l3.36,3.41"/><path id="_63" data-name="63" class="cls-14" d="M213.95,30.28v.95a13.56,13.56,0,0,0,5,0v-.95A13.56,13.56,0,0,1,213.95,30.28Z"/><path id="_62" data-name="62" class="cls-14" d="M213.45,38.05l3,3"/><path id="_61" data-name="61" class="cls-14" d="M213.45,38.62l2.69,2.65"/><path id="_60" data-name="60" class="cls-14" d="M213.45,39.19l2.35,2.27"/><path id="_59" data-name="59" class="cls-14" d="M213.45,39.76l1.68,1.71"/><path id="_58" data-name="58" class="cls-14" d="M213.45,40.33l1.34,1.33"/><path id="_57" data-name="57" class="cls-14" d="M213.45,40.9l.84.76"/><ellipse id="_56" data-name="56" class="cls-25" cx="214.18" cy="30.82" rx="0.23" ry="0.2"/><ellipse id="_55" data-name="55" class="cls-25" cx="215.1" cy="30.93" rx="0.23" ry="0.2"/><ellipse id="_54" data-name="54" class="cls-26" cx="216.01" cy="31.03" rx="0.23" ry="0.2"/><ellipse id="_53" data-name="53" class="cls-26" cx="216.93" cy="31.03" rx="0.23" ry="0.2"/><ellipse id="_52" data-name="52" class="cls-25" cx="217.85" cy="30.93" rx="0.23" ry="0.2"/><ellipse id="_51" data-name="51" class="cls-25" cx="218.76" cy="30.82" rx="0.23" ry="0.2"/><path id="_50" data-name="50" class="cls-14" d="M206.72,40.14l6.05-4"/><path id="_49" data-name="49" class="cls-14" d="M206.39,39.95l5.71-3.79"/><path id="_48" data-name="48" class="cls-14" d="M206.22,39.57l5.21-3.41"/><path id="_47" data-name="47" class="cls-14" d="M206.05,39.19l4.54-3"/><path id="_46" data-name="46" class="cls-14" d="M205.71,38.81l4.2-2.65"/><path id="_45" data-name="45" class="cls-14" d="M205.88,38.25l2.86-1.9"/><path id="_44" data-name="44" class="cls-14" d="M205.71,37.87l2.18-1.52"/><path id="_43" data-name="43" class="cls-14" d="M205.71,37.3l1.51-.95"/><path id="_42" data-name="42" class="cls-14" d="M207.23,40.33l5.71-3.79"/><path id="_41" data-name="41" class="cls-14" d="M207.73,40.52l5.38-3.6"/><path id="_40" data-name="40" class="cls-14" d="M208.24,40.71l5-3.41"/><path id="_39" data-name="39" class="cls-14" d="M208.74,40.9l4.2-2.84"/><path id="_38" data-name="38" class="cls-14" d="M209.41,40.9l3.7-2.46"/><path id="_37" data-name="37" class="cls-14" d="M209.92,41.09,213.11,39"/><path id="_36" data-name="36" class="cls-14" d="M210.42,41.28l2.52-1.7"/><path id="_35" data-name="35" class="cls-14" d="M211.09,41.28l2-1.33"/><path id="_34" data-name="34" class="cls-14" d="M211.76,41.47l1.34-.95"/><path id="_33" data-name="33" class="cls-14" d="M212.44,41.47l.84-.57"/><path id="_32" data-name="32" class="cls-14" d="M213.61,36h-.84a19.37,19.37,0,0,0,0,5.69h.84A19.25,19.25,0,0,1,213.61,36Z"/><path id="_31" data-name="31" class="cls-14" d="M203.7,38.62l2-1.9"/><path id="_30" data-name="30" class="cls-14" d="M203.7,37.3l2,2.27"/><path id="_29" data-name="29" class="cls-27" d="M206.72,36.35l-1,.19a8.74,8.74,0,0,0,0,3.41l1,.38a11.86,11.86,0,0,1,0-4Z"/><path id="_28" data-name="28" class="cls-28" d="M219,26.87v-1a1.19,1.19,0,0,1-1.26-1.14h-2.52a1.2,1.2,0,0,1-1.26,1.14v.95Z"/><rect id="_27" data-name="27" class="cls-29" x="215.39" y="23.65" width="2.16" height="1.14"/><rect id="_26" data-name="26" class="cls-29" x="215.57" y="22.51" width="1.8" height="1.14"/><rect id="_25" data-name="25" class="cls-29" x="215.57" y="21.38" width="1.8" height="1.14"/><rect id="_24" data-name="24" class="cls-29" x="215.75" y="19.86" width="1.44" height="1.52"/><rect id="_23" data-name="23" class="cls-30" x="215.69" y="18.53" width="1.56" height="1.33"/><ellipse id="_22" data-name="22" class="cls-13" cx="216.55" cy="17.3" rx="2.08" ry="1.8"/><path id="_21" data-name="21" class="cls-31" d="M217.6,17.21a3.55,3.55,0,0,0,.52,1.33,2.54,2.54,0,0,1-1.56.57,1.89,1.89,0,0,1-1.56-.57,3.55,3.55,0,0,0,.52-1.33,2.38,2.38,0,0,0-.52-1.14,2.43,2.43,0,0,1,3.13,0A2.38,2.38,0,0,0,217.6,17.21Z"/><path id="_20" data-name="20" class="cls-31" d="M217.25,17.21a5.09,5.09,0,0,0,.52,1.52,1.52,1.52,0,0,1-1.22.38c-.57,0-.94.05-1.22-.38a5.08,5.08,0,0,0,.52-1.52,3.55,3.55,0,0,0-.52-1.33,2.14,2.14,0,0,1,2.43,0A3.55,3.55,0,0,0,217.25,17.21Z"/><ellipse id="_19" data-name="19" class="cls-13" cx="214.47" cy="17.4" rx="0.52" ry="0.57"/><ellipse id="_18" data-name="18" class="cls-13" cx="218.64" cy="17.4" rx="0.52" ry="0.57"/><ellipse id="_17" data-name="17" class="cls-13" cx="216.55" cy="17.4" rx="0.52" ry="0.57"/><ellipse id="_16" data-name="16" class="cls-13" cx="216.55" cy="15.5" rx="0.52" ry="0.57"/><ellipse id="_15" data-name="15" class="cls-13" cx="215.03" cy="26.3" rx="0.54" ry="0.57"/><ellipse id="_14" data-name="14" class="cls-13" cx="217.91" cy="26.3" rx="0.54" ry="0.57"/><path id="_13" data-name="13" class="cls-32" d="M215.21,24.79h2.52l-1.26,1.71Z"/><ellipse id="_12" data-name="12" class="cls-13" cx="216.47" cy="26.12" rx="0.72" ry="0.76"/><path id="_11" data-name="11" class="cls-16" d="M213.91,31.8h3.45a.21.21,0,0,1,.21.2v.73a.21.21,0,0,1-.21.2h-3.45a.21.21,0,0,1-.21-.2V32A.21.21,0,0,1,213.91,31.8Z"/><path id="_10" data-name="10" class="cls-16" d="M218.74,30.86a.92.92,0,0,0-.84,1v.86a.85.85,0,1,0,1.68,0v-.86A.92.92,0,0,0,218.74,30.86Zm0,.38c-.28,0-.51.35-.51.79v.5c0,.44.23.79.51.79s.5-.35.5-.79V32C219.24,31.59,219,31.23,218.74,31.23Z"/><path id="_9" data-name="9" class="cls-16" d="M214.37,31c-.28,0-.5.35-.5.79v.88c0,.44.22.79.5.79s.5-.35.5-.79v-.88C214.87,31.4,214.65,31,214.37,31Zm0-.38a.92.92,0,0,0-.84,1V32.9a.85.85,0,1,0,1.68,0V31.66A.92.92,0,0,0,214.37,30.67Z"/><path id="_8" data-name="8" class="cls-16" d="M213,31.42c-.28,0-.5.35-.5.79v.21c0,.44.23.79.5.79s.5-.35.5-.79v-.21C213.53,31.78,213.31,31.42,213,31.42Zm0-.38a.92.92,0,0,0-.84,1v.57a.85.85,0,1,0,1.68,0V32A.92.92,0,0,0,213,31Z"/><path id="_7" data-name="7" class="cls-16" d="M211,30.9a.89.89,0,0,0-.91.89v1a.91.91,0,0,0,1.81,0v-1A.89.89,0,0,0,211,30.9Zm0-.42c-.84,0-1.51.5-1.51,1.11V33c0,.61.67,1.11,1.51,1.11s1.51-.49,1.51-1.11V31.58C212.52,31,211.85,30.48,211,30.48Z"/><path id="_6" data-name="6" class="cls-16" d="M221.93,31.09A.9.9,0,0,0,221,32v1a.91.91,0,0,0,1.82,0V32A.9.9,0,0,0,221.93,31.09Zm0-.42c-.84,0-1.51.49-1.51,1.11v1.39c0,.61.67,1.11,1.51,1.11s1.51-.49,1.51-1.11V31.77C223.44,31.16,222.77,30.67,221.93,30.67Z"/><path id="_5" data-name="5" class="cls-16" d="M219.18,31.8H221c.06,0,.11.09.11.2v.73c0,.11,0,.2-.11.2h-1.8c-.06,0-.11-.09-.11-.2V32C219.08,31.89,219.12,31.8,219.18,31.8Z"/><path id="_4" data-name="4" class="cls-16" d="M217.29,31.61h1s.06.12.06.27v1c0,.15,0,.27-.06.27h-1s-.06-.12-.06-.27v-1C217.23,31.73,217.26,31.61,217.29,31.61Z"/><path id="_3" data-name="3" class="cls-16" d="M211.75,31.61h1s.06.12.06.27v1c0,.15,0,.27-.06.27h-1s-.06-.12-.06-.27v-1C211.68,31.73,211.71,31.61,211.75,31.61Z"/><path id="_2" data-name="2" class="cls-16" d="M208.11,31.42h2.1c.07,0,.13.15.13.34V33c0,.19-.06.34-.13.34h-2.1c-.07,0-.13-.15-.13-.34V31.76C208,31.57,208,31.42,208.11,31.42Z"/><path id="_1" data-name="1" class="cls-16" d="M222.72,31.61h1.95c.07,0,.12.15.12.34v1.23c0,.19-.05.34-.12.34h-1.95c-.07,0-.12-.15-.12-.34V31.95C222.6,31.76,222.66,31.61,222.72,31.61Z"/></g></g></svg>