<?xml version="1.0" encoding="UTF-8"?>
<svg width="30px" height="20px" viewBox="0 0 30 20" version="1.1" xmlns="http://www.w3.org/2000/svg" xmlns:xlink="http://www.w3.org/1999/xlink">
    <!-- Generator: sketchtool 64 (101010) - https://sketch.com -->
    <title>488015D0-5C85-4F6D-8AFE-49F1D28C78BE</title>
    <desc>Created with sketchtool.</desc>
    <g id="Contact-US-Modal" stroke="none" stroke-width="1" fill="none" fill-rule="evenodd">
        <g id="ScnSoft-COM-ContactUs-Page-US-1440-empty" transform="translate(-135.000000, -813.000000)" fill-rule="nonzero">
            <g id="Group-2" transform="translate(135.000000, 736.000000)">
                <g id="Contacts" transform="translate(0.000000, 75.000000)">
                    <g id="united-states" transform="translate(0.000000, 2.000000)">
                        <path d="M29.4826768,20 L0.517264615,20 C0.231620641,20 0,19.7643159 0,19.4736607 L0,0.526339324 C0,0.235684113 0.231620641,0 0.517264615,0 L29.4827354,0 C29.7683794,0 30,0.235684113 30,0.526339324 L30,19.4736607 C30,19.7643755 29.7683208,20 29.4826768,20 Z" id="Path" fill="#FFFFFF"></path>
                        <g id="Group" fill="#FF4B55">
                            <path d="M30.0000586,1.55244048 L0,1.55244048 L0,0.541904762 C0,0.25172619 0.231621094,0.0164285714 0.517265625,0.0164285714 L29.482793,0.0164285714 C29.7684375,0.0164285714 30.0000586,0.25172619 30.0000586,0.541904762 L30.0000586,1.55244048 L30.0000586,1.55244048 Z" id="Path"></path>
                            <rect id="Rectangle" x="0" y="6.16017857" width="30" height="1.53595238"></rect>
                            <rect id="Rectangle" x="0" y="3.08815476" width="30" height="1.53595238"></rect>
                            <path d="M30,10.7680357 L0.517265625,10.7680357 C0.231621094,10.7680357 0,10.5327381 0,10.2425595 L0,9.23202381 L30,9.23202381 L30,10.7680357 Z" id="Path"></path>
                            <rect id="Rectangle" x="0" y="15.37625" width="30" height="1.53595238"></rect>
                            <path d="M29.4827344,19.983631 L0.517265625,19.983631 C0.231621094,19.983631 0,19.7483333 0,19.4581548 L0,18.4476786 L30,18.4476786 L30,19.4582143 C30,19.7483929 29.7683789,19.983631 29.4827344,19.983631 Z" id="Path"></path>
                            <rect id="Rectangle" x="0" y="12.3042262" width="30" height="1.53595238"></rect>
                        </g>
                        <path d="M13.481401,0 L0.518540273,0 C0.232191856,0 0,0.240675433 0,0.537561246 L0,10.4623779 C0,10.7592637 0.232191856,11 0.518540273,11 L13.4814597,11 C13.7678081,11 14,10.7592637 14,10.4623779 L14,0.537561246 C14,0.240675433 13.7677494,0 13.481401,0 Z" id="Path" fill="#41479B"></path>
                        <g id="Group" transform="translate(1.000000, 1.000000)" fill="#F5F5F5">
                            <path d="M0.613592417,0.0967972028 L0.724720379,0.465608392 L1.07601896,0.468566434 C1.12151659,0.469006993 1.14034123,0.533202797 1.10377251,0.563097902 L0.821175355,0.794076923 L0.927184834,1.16471329 C0.940947867,1.21267133 0.891526066,1.25244755 0.85450237,1.22311888 L0.568720379,0.997111888 L0.282938389,1.22318182 C0.245914692,1.25244755 0.196606635,1.21273427 0.210255924,1.16477622 L0.316265403,0.79413986 L0.0336682464,0.563160839 C-0.00290047393,0.533202797 0.0159241706,0.46906993 0.0614218009,0.468629371 L0.412720379,0.465671329 L0.523848341,0.0968601399 C0.538180095,0.049027972 0.599146919,0.049027972 0.613592417,0.0967972028 Z" id="Path"></path>
                            <path d="M0.613592417,2.02606993 L0.724720379,2.39488112 L1.07601896,2.39783916 C1.12151659,2.39827972 1.14034123,2.46247552 1.10377251,2.49237063 L0.821175355,2.72334965 L0.927184834,3.09398601 C0.940947867,3.14194406 0.891526066,3.18172028 0.85450237,3.15239161 L0.568720379,2.92638462 L0.282938389,3.15245455 C0.245914692,3.18172028 0.196606635,3.14200699 0.210255924,3.09404895 L0.316265403,2.72341259 L0.0336682464,2.49243357 C-0.00290047393,2.46247552 0.0159241706,2.39834266 0.0614218009,2.3979021 L0.412720379,2.39494406 L0.523848341,2.02613287 C0.538180095,1.97836364 0.599146919,1.97836364 0.613592417,2.02606993 Z" id="Path"></path>
                            <path d="M0.613592417,3.95534266 L0.724720379,4.32415385 L1.07601896,4.32711189 C1.12151659,4.32755245 1.14034123,4.39174825 1.10377251,4.42164336 L0.821175355,4.65262238 L0.927184834,5.02325874 C0.940947867,5.07121678 0.891526066,5.11099301 0.85450237,5.08166434 L0.568720379,4.85565734 L0.282938389,5.08172727 C0.245914692,5.11099301 0.196606635,5.07127972 0.210255924,5.02332168 L0.316265403,4.65268531 L0.0336682464,4.42170629 C-0.00290047393,4.39174825 0.0159241706,4.32761538 0.0614218009,4.32717483 L0.412720379,4.32421678 L0.523848341,3.95540559 C0.538180095,3.90763636 0.599146919,3.90763636 0.613592417,3.95534266 Z" id="Path"></path>
                            <path d="M0.613592417,5.88467832 L0.724720379,6.25348951 L1.07601896,6.25644755 C1.12151659,6.25688811 1.14034123,6.32108392 1.10377251,6.35097902 L0.821175355,6.58195804 L0.927184834,6.95259441 C0.940947867,7.00055245 0.891526066,7.04032867 0.85450237,7.011 L0.568720379,6.78499301 L0.282938389,7.01106294 C0.245914692,7.04032867 0.196606635,7.00061538 0.210255924,6.95265734 L0.316265403,6.58202098 L0.0336682464,6.35104196 C-0.00290047393,6.32108392 0.0159241706,6.25695105 0.0614218009,6.25651049 L0.412720379,6.25355245 L0.523848341,5.88474126 C0.538180095,5.83690909 0.599146919,5.83690909 0.613592417,5.88467832 Z" id="Path"></path>
                            <path d="M0.613592417,7.81395105 L0.724720379,8.18276224 L1.07601896,8.18572028 C1.12151659,8.18616084 1.14034123,8.25035664 1.10377251,8.28025175 L0.821175355,8.51123077 L0.927184834,8.88186713 C0.940947867,8.92982517 0.891526066,8.9696014 0.85450237,8.94027273 L0.568720379,8.71426573 L0.282938389,8.94033566 C0.245914692,8.9696014 0.196606635,8.92988811 0.210255924,8.88193007 L0.316265403,8.51129371 L0.0336682464,8.28031469 C-0.00290047393,8.25035664 0.0159241706,8.18622378 0.0614218009,8.18578322 L0.412720379,8.18282517 L0.523848341,7.81401399 C0.538180095,7.76611888 0.599146919,7.76611888 0.613592417,7.81395105 Z" id="Path"></path>
                            <path d="M1.96674882,1.04267832 L2.07787678,1.41148951 L2.42917536,1.41444755 C2.47467299,1.41488811 2.49349763,1.47908392 2.45692891,1.50897902 L2.17433175,1.73995804 L2.28034123,2.11059441 C2.29410427,2.15855245 2.24468246,2.19832867 2.20765877,2.169 L1.92187678,1.94293007 L1.63609479,2.169 C1.59907109,2.19826573 1.54976303,2.15855245 1.56341232,2.11059441 L1.6694218,1.73995804 L1.38682464,1.50897902 C1.35025592,1.47902098 1.36908057,1.41488811 1.4145782,1.41444755 L1.76587678,1.41148951 L1.87700474,1.04267832 C1.89127962,0.994972028 1.95236019,0.994972028 1.96674882,1.04267832 Z" id="Path"></path>
                            <path d="M1.96674882,2.97201399 L2.07787678,3.34082517 L2.42917536,3.34378322 C2.47467299,3.34422378 2.49349763,3.40841958 2.45692891,3.43831469 L2.17433175,3.66929371 L2.28034123,4.03993007 C2.29410427,4.08788811 2.24468246,4.12766434 2.20765877,4.09833566 L1.92187678,3.87226573 L1.63609479,4.09833566 C1.59907109,4.1276014 1.54976303,4.08795105 1.56341232,4.03993007 L1.6694218,3.66929371 L1.38682464,3.43831469 C1.35025592,3.40835664 1.36908057,3.34422378 1.4145782,3.34378322 L1.76587678,3.34082517 L1.87700474,2.97201399 C1.89127962,2.92424476 1.95236019,2.92424476 1.96674882,2.97201399 Z" id="Path"></path>
                            <path d="M1.96674882,4.90128671 L2.07787678,5.2700979 L2.42917536,5.27305594 C2.47467299,5.2734965 2.49349763,5.33769231 2.45692891,5.36758741 L2.17433175,5.59856643 L2.28034123,5.9692028 C2.29410427,6.01716084 2.24468246,6.05693706 2.20765877,6.02760839 L1.92187678,5.80153846 L1.63609479,6.02760839 C1.59907109,6.05687413 1.54976303,6.01716084 1.56341232,5.9692028 L1.6694218,5.59856643 L1.38682464,5.36758741 C1.35025592,5.33762937 1.36908057,5.2734965 1.4145782,5.27305594 L1.76587678,5.2700979 L1.87700474,4.90128671 C1.89127962,4.85351748 1.95236019,4.85351748 1.96674882,4.90128671 Z" id="Path"></path>
                            <path d="M1.96674882,6.83055944 L2.07787678,7.19937063 L2.42917536,7.20232867 C2.47467299,7.20276923 2.49349763,7.26696503 2.45692891,7.29686014 L2.17433175,7.52783916 L2.28034123,7.89847552 C2.29410427,7.94643357 2.24468246,7.98620979 2.20765877,7.95688112 L1.92187678,7.73081119 L1.63609479,7.95688112 C1.59907109,7.98614685 1.54976303,7.94643357 1.56341232,7.89847552 L1.6694218,7.52783916 L1.38682464,7.29686014 C1.35025592,7.2669021 1.36908057,7.20276923 1.4145782,7.20232867 L1.76587678,7.19937063 L1.87700474,6.83055944 C1.89127962,6.78285315 1.95236019,6.78285315 1.96674882,6.83055944 Z" id="Path"></path>
                            <path d="M3.31990521,0.0967972028 L3.43103318,0.465608392 L3.78233175,0.468566434 C3.82782938,0.469006993 3.84665403,0.533202797 3.81008531,0.563097902 L3.52748815,0.794076923 L3.63349763,1.16471329 C3.64726066,1.21267133 3.59783886,1.25244755 3.56081517,1.22311888 L3.27503318,0.997048951 L2.98925118,1.22311888 C2.95222749,1.25238462 2.90291943,1.21267133 2.91656872,1.16471329 L3.0225782,0.794076923 L2.73998104,0.563097902 C2.70341232,0.53313986 2.72223697,0.469006993 2.7677346,0.468566434 L3.11903318,0.465608392 L3.23016114,0.0967972028 C3.24449289,0.049027972 3.30551659,0.049027972 3.31990521,0.0967972028 Z" id="Path"></path>
                            <path d="M3.31990521,2.02606993 L3.43103318,2.39488112 L3.78233175,2.39783916 C3.82782938,2.39827972 3.84665403,2.46247552 3.81008531,2.49237063 L3.52748815,2.72334965 L3.63349763,3.09398601 C3.64726066,3.14194406 3.59783886,3.18172028 3.56081517,3.15239161 L3.27503318,2.92632168 L2.98925118,3.15239161 C2.95222749,3.18165734 2.90291943,3.14194406 2.91656872,3.09398601 L3.0225782,2.72334965 L2.73998104,2.49237063 C2.70341232,2.46241259 2.72223697,2.39827972 2.7677346,2.39783916 L3.11903318,2.39488112 L3.23016114,2.02606993 C3.24449289,1.97836364 3.30551659,1.97836364 3.31990521,2.02606993 Z" id="Path"></path>
                            <path d="M3.31990521,3.95534266 L3.43103318,4.32415385 L3.78233175,4.32711189 C3.82782938,4.32755245 3.84665403,4.39174825 3.81008531,4.42164336 L3.52748815,4.65262238 L3.63349763,5.02325874 C3.64726066,5.07121678 3.59783886,5.11099301 3.56081517,5.08166434 L3.27503318,4.85559441 L2.98925118,5.08166434 C2.95222749,5.11093007 2.90291943,5.07121678 2.91656872,5.02325874 L3.0225782,4.65262238 L2.73998104,4.42164336 C2.70341232,4.39168531 2.72223697,4.32755245 2.7677346,4.32711189 L3.11903318,4.32415385 L3.23016114,3.95534266 C3.24449289,3.90763636 3.30551659,3.90763636 3.31990521,3.95534266 Z" id="Path"></path>
                            <path d="M3.31990521,5.88467832 L3.43103318,6.25348951 L3.78233175,6.25644755 C3.82782938,6.25688811 3.84665403,6.32108392 3.81008531,6.35097902 L3.52748815,6.58195804 L3.63349763,6.95259441 C3.64726066,7.00055245 3.59783886,7.04032867 3.56081517,7.011 L3.27503318,6.78493007 L2.98925118,7.011 C2.95222749,7.04026573 2.90291943,7.00055245 2.91656872,6.95259441 L3.0225782,6.58195804 L2.73998104,6.35097902 C2.70341232,6.32102098 2.72223697,6.25688811 2.7677346,6.25644755 L3.11903318,6.25348951 L3.23016114,5.88467832 C3.24449289,5.83690909 3.30551659,5.83690909 3.31990521,5.88467832 Z" id="Path"></path>
                            <path d="M3.31990521,7.81395105 L3.43103318,8.18276224 L3.78233175,8.18572028 C3.82782938,8.18616084 3.84665403,8.25035664 3.81008531,8.28025175 L3.52748815,8.51123077 L3.63349763,8.88186713 C3.64726066,8.92982517 3.59783886,8.9696014 3.56081517,8.94027273 L3.27503318,8.7142028 L2.98925118,8.94027273 C2.95222749,8.96953846 2.90291943,8.92982517 2.91656872,8.88186713 L3.0225782,8.51123077 L2.73998104,8.28025175 C2.70341232,8.25029371 2.72223697,8.18616084 2.7677346,8.18572028 L3.11903318,8.18276224 L3.23016114,7.81395105 C3.24449289,7.76611888 3.30551659,7.76611888 3.31990521,7.81395105 Z" id="Path"></path>
                            <path d="M4.67311848,1.04267832 L4.78424645,1.41148951 L5.13554502,1.41444755 C5.18104265,1.41488811 5.1998673,1.47908392 5.16329858,1.50897902 L4.88070142,1.73995804 L4.9867109,2.11059441 C5.00047393,2.15855245 4.95105213,2.19832867 4.91402844,2.169 L4.62824645,1.94293007 L4.34246445,2.169 C4.30544076,2.19826573 4.2561327,2.15855245 4.26978199,2.11059441 L4.37579147,1.73995804 L4.09319431,1.50897902 C4.05662559,1.47902098 4.07545024,1.41488811 4.12094787,1.41444755 L4.47224645,1.41148951 L4.58337441,1.04267832 C4.59764929,0.994972028 4.65872986,0.994972028 4.67311848,1.04267832 Z" id="Path"></path>
                            <path d="M4.67311848,2.97201399 L4.78424645,3.34082517 L5.13554502,3.34378322 C5.18104265,3.34422378 5.1998673,3.40841958 5.16329858,3.43831469 L4.88070142,3.66929371 L4.9867109,4.03993007 C5.00047393,4.08788811 4.95105213,4.12766434 4.91402844,4.09833566 L4.62824645,3.87226573 L4.34246445,4.09833566 C4.30544076,4.1276014 4.2561327,4.08795105 4.26978199,4.03993007 L4.37579147,3.66929371 L4.09319431,3.43831469 C4.05662559,3.40835664 4.07545024,3.34422378 4.12094787,3.34378322 L4.47224645,3.34082517 L4.58337441,2.97201399 C4.59764929,2.92424476 4.65872986,2.92424476 4.67311848,2.97201399 Z" id="Path"></path>
                            <path d="M4.67311848,4.90128671 L4.78424645,5.2700979 L5.13554502,5.27305594 C5.18104265,5.2734965 5.1998673,5.33769231 5.16329858,5.36758741 L4.88070142,5.59856643 L4.9867109,5.9692028 C5.00047393,6.01716084 4.95105213,6.05693706 4.91402844,6.02760839 L4.62824645,5.80153846 L4.34246445,6.02760839 C4.30544076,6.05687413 4.2561327,6.01716084 4.26978199,5.9692028 L4.37579147,5.59856643 L4.09319431,5.36758741 C4.05662559,5.33762937 4.07545024,5.2734965 4.12094787,5.27305594 L4.47224645,5.2700979 L4.58337441,4.90128671 C4.59764929,4.85351748 4.65872986,4.85351748 4.67311848,4.90128671 Z" id="Path"></path>
                            <path d="M4.67311848,6.83055944 L4.78424645,7.19937063 L5.13554502,7.20232867 C5.18104265,7.20276923 5.1998673,7.26696503 5.16329858,7.29686014 L4.88070142,7.52783916 L4.9867109,7.89847552 C5.00047393,7.94643357 4.95105213,7.98620979 4.91402844,7.95688112 L4.62824645,7.73081119 L4.34246445,7.95688112 C4.30544076,7.98614685 4.2561327,7.94643357 4.26978199,7.89847552 L4.37579147,7.52783916 L4.09319431,7.29686014 C4.05662559,7.2669021 4.07545024,7.20276923 4.12094787,7.20232867 L4.47224645,7.19937063 L4.58337441,6.83055944 C4.59764929,6.78285315 4.65872986,6.78285315 4.67311848,6.83055944 Z" id="Path"></path>
                            <path d="M6.02627488,0.0967972028 L6.13740284,0.465608392 L6.48870142,0.468566434 C6.53419905,0.469006993 6.5530237,0.533202797 6.51645498,0.563097902 L6.23385782,0.794076923 L6.3398673,1.16471329 C6.35363033,1.21267133 6.30420853,1.25244755 6.26718483,1.22311888 L5.98134597,0.997048951 L5.69556398,1.22311888 C5.65854028,1.25238462 5.60923223,1.21267133 5.62288152,1.16471329 L5.728891,0.794076923 L5.44629384,0.563097902 C5.40972512,0.53313986 5.42854976,0.469006993 5.47404739,0.468566434 L5.82534597,0.465608392 L5.93647393,0.0967972028 C5.95086256,0.049027972 6.01188626,0.049027972 6.02627488,0.0967972028 Z" id="Path"></path>
                            <path d="M6.02627488,2.02606993 L6.13740284,2.39488112 L6.48870142,2.39783916 C6.53419905,2.39827972 6.5530237,2.46247552 6.51645498,2.49237063 L6.23385782,2.72334965 L6.3398673,3.09398601 C6.35363033,3.14194406 6.30420853,3.18172028 6.26718483,3.15239161 L5.98134597,2.92632168 L5.69556398,3.15239161 C5.65854028,3.18165734 5.60923223,3.14194406 5.62288152,3.09398601 L5.728891,2.72334965 L5.44629384,2.49237063 C5.40972512,2.46241259 5.42854976,2.39827972 5.47404739,2.39783916 L5.82534597,2.39488112 L5.93647393,2.02606993 C5.95086256,1.97836364 6.01188626,1.97836364 6.02627488,2.02606993 Z" id="Path"></path>
                            <path d="M6.02627488,3.95534266 L6.13740284,4.32415385 L6.48870142,4.32711189 C6.53419905,4.32755245 6.5530237,4.39174825 6.51645498,4.42164336 L6.23385782,4.65262238 L6.3398673,5.02325874 C6.35363033,5.07121678 6.30420853,5.11099301 6.26718483,5.08166434 L5.98134597,4.85559441 L5.69556398,5.08166434 C5.65854028,5.11093007 5.60923223,5.07121678 5.62288152,5.02325874 L5.728891,4.65262238 L5.44629384,4.42164336 C5.40972512,4.39168531 5.42854976,4.32755245 5.47404739,4.32711189 L5.82534597,4.32415385 L5.93647393,3.95534266 C5.95086256,3.90763636 6.01188626,3.90763636 6.02627488,3.95534266 Z" id="Path"></path>
                            <path d="M6.02627488,5.88467832 L6.13740284,6.25348951 L6.48870142,6.25644755 C6.53419905,6.25688811 6.5530237,6.32108392 6.51645498,6.35097902 L6.23385782,6.58195804 L6.3398673,6.95259441 C6.35363033,7.00055245 6.30420853,7.04032867 6.26718483,7.011 L5.98134597,6.78493007 L5.69556398,7.011 C5.65854028,7.04026573 5.60923223,7.00055245 5.62288152,6.95259441 L5.728891,6.58195804 L5.44629384,6.35097902 C5.40972512,6.32102098 5.42854976,6.25688811 5.47404739,6.25644755 L5.82534597,6.25348951 L5.93647393,5.88467832 C5.95086256,5.83690909 6.01188626,5.83690909 6.02627488,5.88467832 Z" id="Path"></path>
                            <path d="M6.02627488,7.81395105 L6.13740284,8.18276224 L6.48870142,8.18572028 C6.53419905,8.18616084 6.5530237,8.25035664 6.51645498,8.28025175 L6.23385782,8.51123077 L6.3398673,8.88186713 C6.35363033,8.92982517 6.30420853,8.9696014 6.26718483,8.94027273 L5.98134597,8.7142028 L5.69556398,8.94027273 C5.65854028,8.96953846 5.60923223,8.92982517 5.62288152,8.88186713 L5.728891,8.51123077 L5.44629384,8.28025175 C5.40972512,8.25029371 5.42854976,8.18616084 5.47404739,8.18572028 L5.82534597,8.18276224 L5.93647393,7.81395105 C5.95086256,7.76611888 6.01188626,7.76611888 6.02627488,7.81395105 Z" id="Path"></path>
                            <path d="M7.37943128,1.04267832 L7.49055924,1.41148951 L7.84185782,1.41444755 C7.88735545,1.41488811 7.90618009,1.47908392 7.86961137,1.50897902 L7.58701422,1.73995804 L7.6930237,2.11059441 C7.70678673,2.15855245 7.65736493,2.19832867 7.62034123,2.169 L7.33455924,1.94293007 L7.04877725,2.169 C7.01175355,2.19826573 6.9624455,2.15855245 6.97609479,2.11059441 L7.08210427,1.73995804 L6.79950711,1.50897902 C6.76293839,1.47902098 6.78176303,1.41488811 6.82726066,1.41444755 L7.17855924,1.41148951 L7.2896872,1.04267832 C7.30407583,0.994972028 7.36504265,0.994972028 7.37943128,1.04267832 Z" id="Path"></path>
                            <path d="M7.37943128,2.97201399 L7.49055924,3.34082517 L7.84185782,3.34378322 C7.88735545,3.34422378 7.90618009,3.40841958 7.86961137,3.43831469 L7.58701422,3.66929371 L7.6930237,4.03993007 C7.70678673,4.08788811 7.65736493,4.12766434 7.62034123,4.09833566 L7.33455924,3.87226573 L7.04877725,4.09833566 C7.01175355,4.1276014 6.9624455,4.08795105 6.97609479,4.03993007 L7.08210427,3.66929371 L6.79950711,3.43831469 C6.76293839,3.40835664 6.78176303,3.34422378 6.82726066,3.34378322 L7.17855924,3.34082517 L7.2896872,2.97201399 C7.30407583,2.92424476 7.36504265,2.92424476 7.37943128,2.97201399 Z" id="Path"></path>
                            <path d="M7.37943128,4.90128671 L7.49055924,5.2700979 L7.84185782,5.27305594 C7.88735545,5.2734965 7.90618009,5.33769231 7.86961137,5.36758741 L7.58701422,5.59856643 L7.6930237,5.9692028 C7.70678673,6.01716084 7.65736493,6.05693706 7.62034123,6.02760839 L7.33455924,5.80153846 L7.04877725,6.02760839 C7.01175355,6.05687413 6.9624455,6.01716084 6.97609479,5.9692028 L7.08210427,5.59856643 L6.79950711,5.36758741 C6.76293839,5.33762937 6.78176303,5.2734965 6.82726066,5.27305594 L7.17855924,5.2700979 L7.2896872,4.90128671 C7.30407583,4.85351748 7.36504265,4.85351748 7.37943128,4.90128671 Z" id="Path"></path>
                            <path d="M7.37943128,6.83055944 L7.49055924,7.19937063 L7.84185782,7.20232867 C7.88735545,7.20276923 7.90618009,7.26696503 7.86961137,7.29686014 L7.58701422,7.52783916 L7.6930237,7.89847552 C7.70678673,7.94643357 7.65736493,7.98620979 7.62034123,7.95688112 L7.33455924,7.73081119 L7.04877725,7.95688112 C7.01175355,7.98614685 6.9624455,7.94643357 6.97609479,7.89847552 L7.08210427,7.52783916 L6.79950711,7.29686014 C6.76293839,7.2669021 6.78176303,7.20276923 6.82726066,7.20232867 L7.17855924,7.19937063 L7.2896872,6.83055944 C7.30407583,6.78285315 7.36504265,6.78285315 7.37943128,6.83055944 Z" id="Path"></path>
                            <path d="M8.73264455,0.0967972028 L8.84377251,0.465608392 L9.19507109,0.468566434 C9.24056872,0.469006993 9.25939336,0.533202797 9.22282464,0.563097902 L8.94022749,0.794076923 L9.04623697,1.16471329 C9.06,1.21267133 9.0105782,1.25244755 8.9735545,1.22311888 L8.68777251,0.997048951 L8.40199052,1.22311888 C8.36496682,1.25238462 8.31565877,1.21267133 8.32930806,1.16471329 L8.43531754,0.794076923 L8.15272038,0.563097902 C8.11615166,0.53313986 8.1349763,0.469006993 8.18047393,0.468566434 L8.53177251,0.465608392 L8.64290047,0.0967972028 C8.65717536,0.049027972 8.71825592,0.049027972 8.73264455,0.0967972028 Z" id="Path"></path>
                            <path d="M8.73264455,2.02606993 L8.84377251,2.39488112 L9.19507109,2.39783916 C9.24056872,2.39827972 9.25939336,2.46247552 9.22282464,2.49237063 L8.94022749,2.72334965 L9.04623697,3.09398601 C9.06,3.14194406 9.0105782,3.18172028 8.9735545,3.15239161 L8.68777251,2.92632168 L8.40199052,3.15239161 C8.36496682,3.18165734 8.31565877,3.14194406 8.32930806,3.09398601 L8.43531754,2.72334965 L8.15272038,2.49237063 C8.11615166,2.46241259 8.1349763,2.39827972 8.18047393,2.39783916 L8.53177251,2.39488112 L8.64290047,2.02606993 C8.65717536,1.97836364 8.71825592,1.97836364 8.73264455,2.02606993 Z" id="Path"></path>
                            <path d="M8.73264455,3.95534266 L8.84377251,4.32415385 L9.19507109,4.32711189 C9.24056872,4.32755245 9.25939336,4.39174825 9.22282464,4.42164336 L8.94022749,4.65262238 L9.04623697,5.02325874 C9.06,5.07121678 9.0105782,5.11099301 8.9735545,5.08166434 L8.68777251,4.85559441 L8.40199052,5.08166434 C8.36496682,5.11093007 8.31565877,5.07121678 8.32930806,5.02325874 L8.43531754,4.65262238 L8.15272038,4.42164336 C8.11615166,4.39168531 8.1349763,4.32755245 8.18047393,4.32711189 L8.53177251,4.32415385 L8.64290047,3.95534266 C8.65717536,3.90763636 8.71825592,3.90763636 8.73264455,3.95534266 Z" id="Path"></path>
                            <path d="M8.73264455,5.88467832 L8.84377251,6.25348951 L9.19507109,6.25644755 C9.24056872,6.25688811 9.25939336,6.32108392 9.22282464,6.35097902 L8.94022749,6.58195804 L9.04623697,6.95259441 C9.06,7.00055245 9.0105782,7.04032867 8.9735545,7.011 L8.68777251,6.78493007 L8.40199052,7.011 C8.36496682,7.04026573 8.31565877,7.00055245 8.32930806,6.95259441 L8.43531754,6.58195804 L8.15272038,6.35097902 C8.11615166,6.32102098 8.1349763,6.25688811 8.18047393,6.25644755 L8.53177251,6.25348951 L8.64290047,5.88467832 C8.65717536,5.83690909 8.71825592,5.83690909 8.73264455,5.88467832 Z" id="Path"></path>
                            <path d="M8.73264455,7.81395105 L8.84377251,8.18276224 L9.19507109,8.18572028 C9.24056872,8.18616084 9.25939336,8.25035664 9.22282464,8.28025175 L8.94022749,8.51123077 L9.04623697,8.88186713 C9.06,8.92982517 9.0105782,8.9696014 8.9735545,8.94027273 L8.68777251,8.7142028 L8.40199052,8.94027273 C8.36496682,8.96953846 8.31565877,8.92982517 8.32930806,8.88186713 L8.43531754,8.51123077 L8.15272038,8.28025175 C8.11615166,8.25029371 8.1349763,8.18616084 8.18047393,8.18572028 L8.53177251,8.18276224 L8.64290047,7.81395105 C8.65717536,7.76611888 8.71825592,7.76611888 8.73264455,7.81395105 Z" id="Path"></path>
                            <path d="M10.0858009,1.04267832 L10.1969289,1.41148951 L10.5482275,1.41444755 C10.5937251,1.41488811 10.6125498,1.47908392 10.575981,1.50897902 L10.2933839,1.73995804 L10.3993934,2.11059441 C10.4131564,2.15855245 10.3637346,2.19832867 10.3267109,2.169 L10.0409289,1.94293007 L9.75514692,2.169 C9.71812322,2.19826573 9.66881517,2.15855245 9.68246445,2.11059441 L9.78847393,1.73995804 L9.50587678,1.50897902 C9.46930806,1.47902098 9.4881327,1.41488811 9.53363033,1.41444755 L9.88492891,1.41148951 L9.99605687,1.04267832 C10.0103886,0.994972028 10.0714692,0.994972028 10.0858009,1.04267832 Z" id="Path"></path>
                            <path d="M10.0858009,2.97201399 L10.1969289,3.34082517 L10.5482275,3.34378322 C10.5937251,3.34422378 10.6125498,3.40841958 10.575981,3.43831469 L10.2933839,3.66929371 L10.3993934,4.03993007 C10.4131564,4.08788811 10.3637346,4.12766434 10.3267109,4.09833566 L10.0409289,3.87226573 L9.75514692,4.09833566 C9.71812322,4.1276014 9.66881517,4.08795105 9.68246445,4.03993007 L9.78847393,3.66929371 L9.50587678,3.43831469 C9.46930806,3.40835664 9.4881327,3.34422378 9.53363033,3.34378322 L9.88492891,3.34082517 L9.99605687,2.97201399 C10.0103886,2.92424476 10.0714692,2.92424476 10.0858009,2.97201399 Z" id="Path"></path>
                            <path d="M10.0858009,4.90128671 L10.1969289,5.2700979 L10.5482275,5.27305594 C10.5937251,5.2734965 10.6125498,5.33769231 10.575981,5.36758741 L10.2933839,5.59856643 L10.3993934,5.9692028 C10.4131564,6.01716084 10.3637346,6.05693706 10.3267109,6.02760839 L10.0409289,5.80153846 L9.75514692,6.02760839 C9.71812322,6.05687413 9.66881517,6.01716084 9.68246445,5.9692028 L9.78847393,5.59856643 L9.50587678,5.36758741 C9.46930806,5.33762937 9.4881327,5.2734965 9.53363033,5.27305594 L9.88492891,5.2700979 L9.99605687,4.90128671 C10.0103886,4.85351748 10.0714692,4.85351748 10.0858009,4.90128671 Z" id="Path"></path>
                            <path d="M10.0858009,6.83055944 L10.1969289,7.19937063 L10.5482275,7.20232867 C10.5937251,7.20276923 10.6125498,7.26696503 10.575981,7.29686014 L10.2933839,7.52783916 L10.3993934,7.89847552 C10.4131564,7.94643357 10.3637346,7.98620979 10.3267109,7.95688112 L10.0409289,7.73081119 L9.75514692,7.95688112 C9.71812322,7.98614685 9.66881517,7.94643357 9.68246445,7.89847552 L9.78847393,7.52783916 L9.50587678,7.29686014 C9.46930806,7.2669021 9.4881327,7.20276923 9.53363033,7.20232867 L9.88492891,7.19937063 L9.99605687,6.83055944 C10.0103886,6.78285315 10.0714692,6.78285315 10.0858009,6.83055944 Z" id="Path"></path>
                            <path d="M11.4390142,0.0967972028 L11.5501422,0.465608392 L11.9014408,0.468566434 C11.9469384,0.469006993 11.965763,0.533202797 11.9291943,0.563097902 L11.6465972,0.794076923 L11.7526066,1.16471329 C11.7663697,1.21267133 11.7169479,1.25244755 11.6799242,1.22311888 L11.3941422,0.997048951 L11.1083602,1.22311888 C11.0713365,1.25238462 11.0220284,1.21267133 11.0356777,1.16471329 L11.1416872,0.794076923 L10.85909,0.563097902 C10.8225213,0.53313986 10.841346,0.469006993 10.8868436,0.468566434 L11.2381422,0.465608392 L11.3492701,0.0967972028 C11.3636019,0.049027972 11.4245687,0.049027972 11.4390142,0.0967972028 Z" id="Path"></path>
                            <path d="M11.4390142,2.02606993 L11.5501422,2.39488112 L11.9014408,2.39783916 C11.9469384,2.39827972 11.965763,2.46247552 11.9291943,2.49237063 L11.6465972,2.72334965 L11.7526066,3.09398601 C11.7663697,3.14194406 11.7169479,3.18172028 11.6799242,3.15239161 L11.3941422,2.92632168 L11.1083602,3.15239161 C11.0713365,3.18165734 11.0220284,3.14194406 11.0356777,3.09398601 L11.1416872,2.72334965 L10.85909,2.49237063 C10.8225213,2.46241259 10.841346,2.39827972 10.8868436,2.39783916 L11.2381422,2.39488112 L11.3492701,2.02606993 C11.3636019,1.97836364 11.4245687,1.97836364 11.4390142,2.02606993 Z" id="Path"></path>
                            <path d="M11.4390142,3.95534266 L11.5501422,4.32415385 L11.9014408,4.32711189 C11.9469384,4.32755245 11.965763,4.39174825 11.9291943,4.42164336 L11.6465972,4.65262238 L11.7526066,5.02325874 C11.7663697,5.07121678 11.7169479,5.11099301 11.6799242,5.08166434 L11.3941422,4.85559441 L11.1083602,5.08166434 C11.0713365,5.11093007 11.0220284,5.07121678 11.0356777,5.02325874 L11.1416872,4.65262238 L10.85909,4.42164336 C10.8225213,4.39168531 10.841346,4.32755245 10.8868436,4.32711189 L11.2381422,4.32415385 L11.3492701,3.95534266 C11.3636019,3.90763636 11.4245687,3.90763636 11.4390142,3.95534266 Z" id="Path"></path>
                            <path d="M11.4390142,5.88467832 L11.5501422,6.25348951 L11.9014408,6.25644755 C11.9469384,6.25688811 11.965763,6.32108392 11.9291943,6.35097902 L11.6465972,6.58195804 L11.7526066,6.95259441 C11.7663697,7.00055245 11.7169479,7.04032867 11.6799242,7.011 L11.3941422,6.78493007 L11.1083602,7.011 C11.0713365,7.04026573 11.0220284,7.00055245 11.0356777,6.95259441 L11.1416872,6.58195804 L10.85909,6.35097902 C10.8225213,6.32102098 10.841346,6.25688811 10.8868436,6.25644755 L11.2381422,6.25348951 L11.3492701,5.88467832 C11.3636019,5.83690909 11.4245687,5.83690909 11.4390142,5.88467832 Z" id="Path"></path>
                            <path d="M11.4390142,7.81395105 L11.5501422,8.18276224 L11.9014408,8.18572028 C11.9469384,8.18616084 11.965763,8.25035664 11.9291943,8.28025175 L11.6465972,8.51123077 L11.7526066,8.88186713 C11.7663697,8.92982517 11.7169479,8.9696014 11.6799242,8.94027273 L11.3941422,8.7142028 L11.1083602,8.94027273 C11.0713365,8.96953846 11.0220284,8.92982517 11.0356777,8.88186713 L11.1416872,8.51123077 L10.85909,8.28025175 C10.8225213,8.25029371 10.841346,8.18616084 10.8868436,8.18572028 L11.2381422,8.18276224 L11.3492701,7.81395105 C11.3636019,7.76611888 11.4245687,7.76611888 11.4390142,7.81395105 Z" id="Path"></path>
                        </g>
                    </g>
                </g>
            </g>
        </g>
    </g>
</svg>