<?xml version="1.0" encoding="utf-8"?>
<!-- Generator: Adobe Illustrator 16.2.0, SVG Export Plug-In . SVG Version: 6.00 Build 0)  -->
<!DOCTYPE svg PUBLIC "-//W3C//DTD SVG 1.1//EN" "http://www.w3.org/Graphics/SVG/1.1/DTD/svg11.dtd">
<svg version="1.1" id="Layer_1" xmlns:sketch="http://www.bohemiancoding.com/sketch/ns"
	 xmlns="http://www.w3.org/2000/svg" xmlns:xlink="http://www.w3.org/1999/xlink" x="0px" y="0px" width="84px" height="84px"
	 viewBox="0 0 84 84" enable-background="new 0 0 84 84" xml:space="preserve">
<g sketch:type="MSShapeGroup">
	<g id="path-1">
		<path fill="#EEEEEE" d="M41.007,81.75c-21.37,0-38.756-17.386-38.756-38.756v-1.988c0-21.37,17.386-38.756,38.756-38.756h1.988
			c21.37,0,38.756,17.386,38.756,38.756v1.988c0,21.37-17.386,38.756-38.756,38.756H41.007z"/>
		<path fill="#FFFFFF" d="M42.995,3.25c20.817,0,37.756,16.938,37.756,37.756v1.988c0,20.818-16.938,37.756-37.756,37.756h-1.988
			c-20.819,0-37.756-16.938-37.756-37.756v-1.988c0-20.819,16.938-37.756,37.756-37.756H42.995 M42.995,1.25h-1.988
			c-21.956,0-39.756,17.8-39.756,39.756v1.988c0,21.957,17.8,39.756,39.756,39.756h1.988c21.957,0,39.756-17.799,39.756-39.756
			v-1.988C82.751,19.05,64.952,1.25,42.995,1.25L42.995,1.25z"/>
	</g>
</g>
<g>
	<path id="path-1_1_" fill="none" stroke="#F2EDED" d="M41.007,1.25h1.988c21.957,0,39.756,17.8,39.756,39.756v1.988
		c0,21.957-17.799,39.756-39.756,39.756h-1.988c-21.956,0-39.756-17.799-39.756-39.756v-1.988C1.251,19.05,19.051,1.25,41.007,1.25z
		"/>
</g>
<g>
	<g>
		<path fill="#005EB8" d="M47.097,17.242c-2.369,0-4.296,1.926-4.296,4.295v9.878c-0.638-0.375-1.381-0.593-2.173-0.593
			c-1.289,0-2.448,0.573-3.236,1.474c-0.788-0.901-1.945-1.474-3.234-1.474c-1.29,0-2.447,0.573-3.234,1.474
			c-0.788-0.901-1.946-1.474-3.235-1.474c-2.369,0-4.295,1.928-4.295,4.296v4.792c0,0.064,0.001,0.127,0.005,0.192
			c-0.004,0.031-0.005,0.063-0.005,0.095v9.682c0,4.384,2.024,8.303,5.188,10.871v5.81c0,0.586,0.476,1.061,1.061,1.061h15.5
			c0.586,0,1.06-0.475,1.06-1.061v-5.81c3.164-2.568,5.189-6.487,5.189-10.871V21.537C51.392,19.168,49.465,17.242,47.097,17.242z
			 M38.453,35.119c0-1.199,0.975-2.174,2.174-2.174c1.199,0,2.173,0.975,2.173,2.174v6.29c0,0.345-0.08,0.677-0.232,0.976
			l-3.558-1.267c-0.185-0.066-0.371-0.118-0.557-0.157V35.119z M31.984,35.119c0-1.199,0.975-2.174,2.173-2.174
			c1.199,0,2.174,0.975,2.174,2.174v5.935c-1.193,0.359-2.218,1.232-2.726,2.456c-0.932-0.247-1.622-1.093-1.622-2.101V35.119z
			 M25.515,35.119c0-1.199,0.976-2.174,2.174-2.174s2.173,0.975,2.173,2.174v4.792c0,1.199-0.975,2.175-2.173,2.175
			s-2.174-0.976-2.174-2.175V35.119z M49.271,49.881c0,4.682-3.604,9.369-5.188,9.923c0.511-0.229-0.479,0.262,0,0V65.5H30.703
			v-5.438c0,0-5.188-5.338-5.188-10.182v-6.268c0.638,0.377,1.381,0.593,2.174,0.593c0.985,0,1.894-0.334,2.62-0.894
			c0.58,1.167,1.676,2.036,2.989,2.305c0.172,1.589,1.227,3.021,2.83,3.593l6.356,2.264c0.118,0.041,0.238,0.063,0.355,0.063
			c0.438,0,0.846-0.271,1-0.706c0.197-0.551-0.092-1.158-0.644-1.354l-6.354-2.265c-1.129-0.4-1.722-1.646-1.319-2.776
			c0.402-1.129,1.647-1.722,2.777-1.318l10.972,3.907V49.881z M49.271,44.772l-4.698-1.674c0.229-0.532,0.35-1.106,0.35-1.69V21.537
			c0-1.2,0.975-2.174,2.175-2.174c1.198,0,2.174,0.975,2.174,2.174V44.772z"/>
	</g>
	<circle fill="#005EB8" cx="47.165" cy="21.805" r="0.935"/>
</g>
<g>
	<g>
		<path fill="#005EB8" d="M58.068,17.678l-2.696,4.702c-0.567,0.995-0.61,2.259,0,3.324c0.917,1.601,2.958,2.153,4.56,1.236
			c1.6-0.918,2.151-2.959,1.234-4.56l-2.695-4.702C58.381,17.522,58.157,17.522,58.068,17.678L58.068,17.678z M58.068,17.678"/>
	</g>
</g>
</svg>
