<?xml version="1.0" encoding="utf-8"?>
<!-- Generator: Adobe Illustrator 16.2.0, SVG Export Plug-In . SVG Version: 6.00 Build 0)  -->
<!DOCTYPE svg PUBLIC "-//W3C//DTD SVG 1.1//EN" "http://www.w3.org/Graphics/SVG/1.1/DTD/svg11.dtd">
<svg version="1.1" id="Layer_1" xmlns:sketch="http://www.bohemiancoding.com/sketch/ns"
	 xmlns="http://www.w3.org/2000/svg" xmlns:xlink="http://www.w3.org/1999/xlink" x="0px" y="0px" width="84px" height="84px"
	 viewBox="0 0 84 84" enable-background="new 0 0 84 84" xml:space="preserve">
<g sketch:type="MSShapeGroup">
	<g id="path-1">
		<path fill="#EEEEEE" d="M41.007,81.75c-21.37,0-38.756-17.386-38.756-38.756v-1.988c0-21.37,17.386-38.756,38.756-38.756h1.988
			c21.37,0,38.756,17.386,38.756,38.756v1.988c0,21.37-17.386,38.756-38.756,38.756H41.007z"/>
		<path fill="#FFFFFF" d="M42.995,3.25c20.817,0,37.756,16.938,37.756,37.756v1.988c0,20.818-16.938,37.756-37.756,37.756h-1.988
			c-20.819,0-37.756-16.938-37.756-37.756v-1.988c0-20.819,16.938-37.756,37.756-37.756H42.995 M42.995,1.25h-1.988
			c-21.956,0-39.756,17.8-39.756,39.756v1.988c0,21.957,17.8,39.756,39.756,39.756h1.988c21.957,0,39.756-17.799,39.756-39.756
			v-1.988C82.751,19.05,64.952,1.25,42.995,1.25L42.995,1.25z"/>
	</g>
</g>
<g>
	<path id="path-1_1_" fill="none" stroke="#F2EDED" d="M41.007,1.25h1.988c21.957,0,39.756,17.8,39.756,39.756v1.988
		c0,21.957-17.799,39.756-39.756,39.756h-1.988c-21.956,0-39.756-17.799-39.756-39.756v-1.988C1.251,19.05,19.051,1.25,41.007,1.25z
		"/>
</g>
<g>
	<g>
		<rect x="41.151" y="35.189" fill="#005EB8" width="1.725" height="8.143"/>
	</g>
	<g>
		
			<rect x="36.927" y="41.859" transform="matrix(0.5385 0.8426 -0.8426 0.5385 56.5245 -10.4357)" fill="#005EB8" width="1.725" height="9.054"/>
	</g>
	<g>
		
			<rect x="41.819" y="45.524" transform="matrix(0.8426 0.5385 -0.5385 0.8426 32.2723 -17.6576)" fill="#005EB8" width="9.055" height="1.725"/>
	</g>
	<g>
		<path fill="#005EB8" d="M42.014,18.055c-4.97,0-8.998,4.028-8.998,8.999c0,4.969,4.028,8.998,8.998,8.998s8.999-4.029,8.999-8.998
			C51.013,22.083,46.983,18.055,42.014,18.055z M42.033,21.453c1.263,0,2.257,1.031,2.257,2.292c0,1.225-0.994,2.256-2.257,2.256
			s-2.294-1.031-2.294-2.256C39.739,22.484,40.771,21.453,42.033,21.453z M46.181,31.432c-4.671,2.638-8.333,0-8.333,0v-0.56
			c0-2.293,1.873-4.166,4.166-4.166c2.296,0,4.167,1.873,4.167,4.166C46.181,31.432,46.181,31.432,46.181,31.432z"/>
	</g>
	<g>
		<path fill="#005EB8" d="M26.146,43.948c-4.97,0-8.999,4.028-8.999,8.999c0,4.969,4.029,8.998,8.999,8.998s8.998-4.029,8.998-8.998
			C35.144,47.977,31.115,43.948,26.146,43.948z M26.575,47.347c1.263,0,2.256,1.032,2.256,2.292c0,1.225-0.993,2.256-2.256,2.256
			s-2.295-1.031-2.295-2.256C24.28,48.379,25.313,47.347,26.575,47.347z M30.724,57.325c-4.673,2.638-8.334,0-8.334,0v-0.56
			c0-2.294,1.873-4.166,4.166-4.166c2.295,0,4.168,1.872,4.168,4.166C30.724,57.325,30.724,57.325,30.724,57.325z"/>
	</g>
	<g>
		<path fill="#005EB8" d="M57.855,43.948c-4.969,0-8.998,4.028-8.998,8.999c0,4.969,4.029,8.998,8.998,8.998s9-4.029,9-8.998
			C66.855,47.977,62.824,43.948,57.855,43.948z M58.18,47.347c1.264,0,2.256,1.032,2.256,2.292c0,1.225-0.992,2.256-2.256,2.256
			c-1.262,0-2.293-1.031-2.293-2.256C55.887,48.379,56.918,47.347,58.18,47.347z M62.328,57.325c-4.672,2.638-8.334,0-8.334,0v-0.56
			c0-2.294,1.873-4.166,4.166-4.166c2.297,0,4.168,1.872,4.168,4.166C62.328,57.325,62.328,57.325,62.328,57.325z"/>
	</g>
	<g>
		<circle fill="#005EB8" cx="42.014" cy="44.194" r="3.037"/>
	</g>
</g>
</svg>
