<?xml version="1.0" encoding="utf-8"?>
<!-- Generator: Adobe Illustrator 16.2.0, SVG Export Plug-In . SVG Version: 6.00 Build 0)  -->
<!DOCTYPE svg PUBLIC "-//W3C//DTD SVG 1.1//EN" "http://www.w3.org/Graphics/SVG/1.1/DTD/svg11.dtd">
<svg version="1.1" id="Layer_1" xmlns:sketch="http://www.bohemiancoding.com/sketch/ns"
	 xmlns="http://www.w3.org/2000/svg" xmlns:xlink="http://www.w3.org/1999/xlink" x="0px" y="0px" width="84px" height="84px"
	 viewBox="0 0 84 84" enable-background="new 0 0 84 84" xml:space="preserve">
<g id="Rectangle-290">
	<g sketch:type="MSShapeGroup">
		<path id="path-1" fill="#EEEEEE" stroke="#FFFFFF" stroke-width="4" d="M41,1h2c22.092,0,40,17.909,40,40v2
			c0,22.092-17.908,40-40,40h-2C18.909,83,1,65.092,1,43v-2C1,18.909,18.909,1,41,1z"/>
	</g>
	<g>
		<path id="path-1_1_" fill="none" stroke="#F2EDED" d="M41,1h2c22.092,0,40,17.909,40,40v2c0,22.092-17.908,40-40,40h-2
			C18.909,83,1,65.092,1,43v-2C1,18.909,18.909,1,41,1z"/>
	</g>
</g>
<g>
	<path fill="#005EB8" d="M45.314,58.669c3.021,0,5.946-1.079,8.243-3.032c0.248-0.21,0.373-0.417,0.373-0.631
		c0-0.411-0.353-0.623-1.048-0.623h-7.127c-0.246,0-0.587-0.199-0.704-0.409l-4.408-7.625c-0.056-0.098-0.092-0.251-0.092-0.413
		c0-0.153,0.036-0.305,0.092-0.404l4.408-7.626c0.117-0.213,0.458-0.409,0.704-0.409h7.233c0.796,0,0.853-0.476,0.853-0.623
		c0-0.359-0.32-0.667-0.456-0.777c-2.266-1.859-5.134-2.882-8.071-2.882c-4.751,0-8.905,2.617-11.088,6.492
		c-0.204,0.352-0.543,1.089-1.567,1.089H16.586c-0.667,0-1.209,0.54-1.209,1.208v7.874c0,0.664,0.542,1.208,1.209,1.208h16.072
		c1.024,0,1.317,0.636,1.488,0.948C36.308,55.983,40.506,58.669,45.314,58.669"/>
	<path fill="#005EB8" d="M53.979,51.189l2.653-4.585c0.109-0.185,0.162-0.422,0.162-0.669c0-0.244-0.053-0.481-0.162-0.662
		l-2.653-4.586c-0.214-0.381-0.712-0.666-1.146-0.666H47.57c-0.438,0-0.937,0.284-1.154,0.666l-2.647,4.586
		c-0.104,0.181-0.162,0.418-0.162,0.662c0,0.247,0.059,0.484,0.162,0.669l2.647,4.585c0.218,0.382,0.717,0.668,1.154,0.668h5.263
		C53.268,51.857,53.766,51.571,53.979,51.189 M47.606,45.936c0-1.426,1.16-2.593,2.593-2.593c1.432,0,2.595,1.167,2.595,2.593
		c0,1.437-1.163,2.601-2.595,2.601C48.767,48.536,47.606,47.372,47.606,45.936"/>
	<path fill="#005EB8" d="M63.474,36.433l2.653-4.586c0.109-0.184,0.163-0.421,0.163-0.668c0-0.244-0.054-0.481-0.163-0.661
		l-2.653-4.587c-0.214-0.38-0.712-0.665-1.146-0.665h-5.261c-0.439,0-0.938,0.284-1.155,0.665l-2.648,4.587
		c-0.103,0.18-0.161,0.417-0.161,0.661c0,0.248,0.059,0.485,0.161,0.668l2.648,4.586c0.218,0.381,0.716,0.667,1.155,0.667h5.261
		C62.762,37.099,63.26,36.813,63.474,36.433 M57.101,31.178c0-1.425,1.16-2.592,2.594-2.592c1.432,0,2.595,1.167,2.595,2.592
		c0,1.437-1.163,2.6-2.595,2.6C58.261,33.777,57.101,32.615,57.101,31.178"/>
	<path fill="#005EB8" d="M50.252,29.57l2.653-4.586c0.109-0.183,0.163-0.42,0.163-0.668c0-0.243-0.054-0.481-0.163-0.661
		l-2.653-4.586c-0.214-0.381-0.712-0.665-1.146-0.665h-5.262c-0.438,0-0.937,0.284-1.154,0.665l-2.648,4.586
		c-0.103,0.18-0.162,0.418-0.162,0.661c0,0.248,0.059,0.486,0.162,0.668l2.648,4.586c0.218,0.381,0.716,0.667,1.154,0.667h5.262
		C49.54,30.237,50.038,29.951,50.252,29.57 M43.879,24.315c0-1.425,1.16-2.592,2.594-2.592c1.431,0,2.595,1.167,2.595,2.592
		c0,1.437-1.164,2.6-2.595,2.6C45.039,26.915,43.879,25.752,43.879,24.315"/>
</g>
</svg>
