<?xml version="1.0" encoding="utf-8"?>
<!-- Generator: Adobe Illustrator 16.2.0, SVG Export Plug-In . SVG Version: 6.00 Build 0)  -->
<!DOCTYPE svg PUBLIC "-//W3C//DTD SVG 1.1//EN" "http://www.w3.org/Graphics/SVG/1.1/DTD/svg11.dtd">
<svg version="1.1" id="Layer_1" xmlns:sketch="http://www.bohemiancoding.com/sketch/ns"
	 xmlns="http://www.w3.org/2000/svg" xmlns:xlink="http://www.w3.org/1999/xlink" x="0px" y="0px" width="84px" height="84px"
	 viewBox="0 0 84 84" enable-background="new 0 0 84 84" xml:space="preserve">
<g sketch:type="MSShapeGroup">
	<g id="path-1">
		<path fill="#EEEEEE" d="M41.007,81.75c-21.37,0-38.756-17.386-38.756-38.756v-1.988c0-21.37,17.386-38.756,38.756-38.756h1.988
			c21.37,0,38.756,17.386,38.756,38.756v1.988c0,21.37-17.386,38.756-38.756,38.756H41.007z"/>
		<path fill="#FFFFFF" d="M42.995,3.25c20.817,0,37.756,16.938,37.756,37.756v1.988c0,20.818-16.938,37.756-37.756,37.756h-1.988
			c-20.819,0-37.756-16.938-37.756-37.756v-1.988c0-20.819,16.938-37.756,37.756-37.756H42.995 M42.995,1.25h-1.988
			c-21.956,0-39.756,17.8-39.756,39.756v1.988c0,21.957,17.8,39.756,39.756,39.756h1.988c21.957,0,39.756-17.799,39.756-39.756
			v-1.988C82.751,19.05,64.952,1.25,42.995,1.25L42.995,1.25z"/>
	</g>
</g>
<g>
	<path id="path-1_1_" fill="none" stroke="#F2EDED" d="M41.007,1.25h1.988c21.957,0,39.756,17.8,39.756,39.756v1.988
		c0,21.957-17.799,39.756-39.756,39.756h-1.988c-21.956,0-39.756-17.799-39.756-39.756v-1.988C1.251,19.05,19.051,1.25,41.007,1.25z
		"/>
</g>
<g>
	<path fill="#005EB8" d="M62.173,23.406H46.6c-0.899,0-1.63,0.638-1.63,1.422v1.193v1.166v8.534l-3.027,4.167l5.789-1.456h14.441
		c0.898,0,1.63-0.731,1.63-1.631v-9.615v-1.166v-1.193C63.803,24.044,63.071,23.406,62.173,23.406z M62.637,36.802
		c0,0.256-0.208,0.465-0.464,0.465H47.659l-2.888,0.708l1.363-1.875v-9.206h16.502V36.802z"/>
	<path fill="#005EB8" d="M35.195,41.565c3.577,0,6.488-2.911,6.488-6.488c0-3.577-2.911-6.487-6.488-6.487
		c-3.578,0-6.488,2.91-6.488,6.487C28.708,38.655,31.617,41.565,35.195,41.565z"/>
	<path fill="#005EB8" d="M49.104,31.623h1.167c0.524,0,0.952-0.427,0.952-0.952v-1.167c0-0.526-0.428-0.953-0.952-0.953h-1.167
		c-0.526,0-0.953,0.427-0.953,0.953v1.167C48.15,31.196,48.577,31.623,49.104,31.623z"/>
	<path fill="#005EB8" d="M49.104,35.716h1.167c0.524,0,0.952-0.427,0.952-0.952v-1.167c0-0.525-0.428-0.952-0.952-0.952h-1.167
		c-0.526,0-0.953,0.426-0.953,0.952v1.167C48.15,35.29,48.577,35.716,49.104,35.716z"/>
	<rect x="52.933" y="29.419" fill="#005EB8" width="7.767" height="1.335"/>
	<rect x="52.933" y="33.514" fill="#005EB8" width="7.767" height="1.335"/>
	<path fill="#005EB8" d="M33.445,42.872l1.146,2.075l-2.679,4.326l3.375,9.269l3.183-9.269l-2.578-4.315l1.194-2.087
		c9.092,0.945,11.173,8.794,11.249,15.496c-3.993,1.566-8.533,2.396-13.14,2.396c-4.605,0-9.146-0.829-13.14-2.395
		C22.161,51.289,25.243,43.8,33.445,42.872z"/>
</g>
</svg>
