<?xml version="1.0" encoding="utf-8"?>
<!-- Generator: Adobe Illustrator 16.2.0, SVG Export Plug-In . SVG Version: 6.00 Build 0)  -->
<!DOCTYPE svg PUBLIC "-//W3C//DTD SVG 1.1//EN" "http://www.w3.org/Graphics/SVG/1.1/DTD/svg11.dtd">
<svg version="1.1" id="Layer_1" xmlns:sketch="http://www.bohemiancoding.com/sketch/ns"
	 xmlns="http://www.w3.org/2000/svg" xmlns:xlink="http://www.w3.org/1999/xlink" x="0px" y="0px" width="84px" height="84px"
	 viewBox="0 0 84 84" enable-background="new 0 0 84 84" xml:space="preserve">
<g sketch:type="MSShapeGroup">
	<g id="path-1">
		<path fill="#EEEEEE" d="M41.007,81.75c-21.37,0-38.756-17.386-38.756-38.756v-1.988c0-21.37,17.386-38.756,38.756-38.756h1.988
			c21.37,0,38.756,17.386,38.756,38.756v1.988c0,21.37-17.386,38.756-38.756,38.756H41.007z"/>
		<path fill="#FFFFFF" d="M42.995,3.25c20.817,0,37.756,16.938,37.756,37.756v1.988c0,20.818-16.938,37.756-37.756,37.756h-1.988
			c-20.819,0-37.756-16.938-37.756-37.756v-1.988c0-20.819,16.938-37.756,37.756-37.756H42.995 M42.995,1.25h-1.988
			c-21.956,0-39.756,17.8-39.756,39.756v1.988c0,21.957,17.8,39.756,39.756,39.756h1.988c21.957,0,39.756-17.799,39.756-39.756
			v-1.988C82.751,19.05,64.952,1.25,42.995,1.25L42.995,1.25z"/>
	</g>
</g>
<g>
	<path id="path-1_1_" fill="none" stroke="#F2EDED" d="M41.007,1.25h1.988c21.957,0,39.756,17.8,39.756,39.756v1.988
		c0,21.957-17.799,39.756-39.756,39.756h-1.988c-21.956,0-39.756-17.799-39.756-39.756v-1.988C1.251,19.05,19.051,1.25,41.007,1.25z
		"/>
</g>
<g>
	<path fill="#005EB8" d="M51.076,51.185c0,0,0,0,0-1.22c0-4.992-4.08-9.069-9.074-9.069l0,0c-4.994,0-9.073,4.077-9.073,9.069v1.22
		C32.93,51.185,40.903,56.927,51.076,51.185z"/>
	<path fill="#005EB8" d="M46.955,35.04c0,2.666-2.164,4.911-4.913,4.911c-2.747,0-4.993-2.245-4.993-4.911
		c0-2.744,2.247-4.989,4.993-4.989C44.791,30.051,46.955,32.296,46.955,35.04L46.955,35.04z"/>
	<g>
		<g>
			<path fill="none" stroke="#005EB8" stroke-width="2.7672" stroke-miterlimit="10" d="M41.341,61.808
				c-10.636-0.348-19.151-9.08-19.151-19.803c0-1.377,0.141-2.721,0.408-4.02"/>
			<g>
				<polygon fill="#005EB8" points="26.28,40.515 24.67,32.395 18.442,37.848 				"/>
			</g>
		</g>
	</g>
	<g>
		<g>
			<path fill="none" stroke="#005EB8" stroke-width="2.7672" stroke-miterlimit="10" d="M59.534,32.773
				c1.455,2.756,2.278,5.897,2.278,9.231c0,8.498-5.348,15.746-12.86,18.562"/>
			<g>
				<polygon fill="#005EB8" points="49.14,56.107 43.118,61.788 51.048,64.164 				"/>
			</g>
		</g>
	</g>
	<g>
		<g>
			<path fill="none" stroke="#005EB8" stroke-width="2.7672" stroke-miterlimit="10" d="M25.431,31.142
				c3.54-5.39,9.639-8.95,16.572-8.95c5.055,0,9.669,1.895,13.169,5.013"/>
			<g>
				<polygon fill="#005EB8" points="51.139,29.131 58.979,31.79 57.362,23.671 				"/>
			</g>
		</g>
	</g>
</g>
</svg>
