<?xml version="1.0" encoding="utf-8"?>
<!-- Generator: Adobe Illustrator 16.2.0, SVG Export Plug-In . SVG Version: 6.00 Build 0)  -->
<!DOCTYPE svg PUBLIC "-//W3C//DTD SVG 1.1//EN" "http://www.w3.org/Graphics/SVG/1.1/DTD/svg11.dtd">
<svg version="1.1" id="Layer_1" xmlns:sketch="http://www.bohemiancoding.com/sketch/ns"
	 xmlns="http://www.w3.org/2000/svg" xmlns:xlink="http://www.w3.org/1999/xlink" x="0px" y="0px" width="84px" height="84px"
	 viewBox="0 0 84 84" enable-background="new 0 0 84 84" xml:space="preserve">
<g sketch:type="MSShapeGroup">
	<g id="path-1">
		<path fill="#EEEEEE" d="M41.007,81.75c-21.37,0-38.756-17.386-38.756-38.756v-1.988c0-21.37,17.386-38.756,38.756-38.756h1.988
			c21.37,0,38.756,17.386,38.756,38.756v1.988c0,21.37-17.386,38.756-38.756,38.756H41.007z"/>
		<path fill="#FFFFFF" d="M42.995,3.25c20.818,0,37.756,16.938,37.756,37.756v1.988c0,20.818-16.938,37.756-37.756,37.756h-1.988
			c-20.819,0-37.756-16.938-37.756-37.756v-1.988c0-20.819,16.938-37.756,37.756-37.756H42.995 M42.995,1.25h-1.988
			c-21.956,0-39.756,17.8-39.756,39.756v1.988c0,21.957,17.8,39.756,39.756,39.756h1.988c21.957,0,39.756-17.799,39.756-39.756
			v-1.988C82.751,19.05,64.952,1.25,42.995,1.25L42.995,1.25z"/>
	</g>
</g>
<g>
	<path id="path-1_1_" fill="none" stroke="#F2EDED" d="M41.007,1.25h1.988c21.957,0,39.756,17.8,39.756,39.756v1.988
		c0,21.957-17.799,39.756-39.756,39.756h-1.988c-21.956,0-39.756-17.799-39.756-39.756v-1.988C1.251,19.05,19.051,1.25,41.007,1.25z
		"/>
</g>
<g id="ic_x5F_settings_x5F_white_x5F_24px-_x2B_-ic_x5F_settings_x5F_white_x5F_24px-copy" transform="translate(25.000000, 22.000000)" sketch:type="MSShapeGroup">
	
		<path id="Shape" fill="#005EB8" stroke="#005EB8" stroke-width="2" stroke-linecap="round" stroke-linejoin="round" stroke-miterlimit="10" d="
		M21.229,14.572c0.048-0.389,0.086-0.777,0.086-1.191c0-0.413-0.038-0.802-0.086-1.19l2.565-2.004
		c0.231-0.182,0.292-0.51,0.146-0.777l-2.433-4.204c-0.145-0.267-0.473-0.364-0.74-0.267l-3.027,1.215
		c-0.632-0.486-1.313-0.887-2.054-1.19l-0.46-3.219c-0.037-0.292-0.292-0.51-0.596-0.51H9.768c-0.303,0-0.558,0.219-0.595,0.51
		L8.71,4.963C7.969,5.267,7.29,5.68,6.656,6.153L3.63,4.938c-0.28-0.109-0.595,0-0.741,0.267L0.457,9.409
		c-0.158,0.267-0.084,0.595,0.146,0.777l2.565,2.004c-0.049,0.389-0.086,0.79-0.086,1.19c0,0.401,0.037,0.802,0.086,1.191
		l-2.565,2.004c-0.23,0.183-0.292,0.51-0.146,0.777l2.432,4.204c0.146,0.269,0.475,0.365,0.741,0.269l3.026-1.217
		c0.634,0.486,1.313,0.888,2.055,1.19l0.462,3.22c0.037,0.292,0.292,0.511,0.595,0.511h4.863c0.304,0,0.559-0.219,0.596-0.511
		l0.46-3.22c0.742-0.303,1.422-0.716,2.054-1.19l3.027,1.217c0.279,0.108,0.596,0,0.74-0.269l2.433-4.204
		c0.146-0.267,0.085-0.595-0.146-0.777L21.229,14.572L21.229,14.572z M12.2,17.634c-2.346,0-4.254-1.907-4.254-4.252
		c0-2.344,1.908-4.251,4.254-4.251c2.345,0,4.253,1.908,4.253,4.251C16.453,15.727,14.545,17.634,12.2,17.634L12.2,17.634z"/>
	
		<path id="Shape_1_" fill="#005EB8" stroke="#005EB8" stroke-width="2" stroke-linecap="round" stroke-linejoin="round" stroke-miterlimit="10" d="
		M32.573,31.84c0.035-0.274,0.062-0.551,0.062-0.843s-0.026-0.567-0.062-0.843l1.818-1.42c0.163-0.13,0.206-0.362,0.103-0.552
		l-1.722-2.978c-0.104-0.189-0.336-0.257-0.525-0.189l-2.145,0.86c-0.448-0.344-0.93-0.628-1.454-0.843l-0.328-2.279
		c-0.024-0.207-0.205-0.361-0.421-0.361h-3.444c-0.214,0-0.396,0.154-0.422,0.361l-0.327,2.279
		c-0.526,0.215-1.008,0.509-1.455,0.843l-2.144-0.86c-0.198-0.077-0.422,0-0.525,0.189l-1.722,2.978
		c-0.112,0.189-0.061,0.422,0.104,0.552l1.815,1.42c-0.033,0.275-0.06,0.559-0.06,0.843s0.026,0.568,0.06,0.843l-1.815,1.42
		c-0.164,0.13-0.207,0.362-0.104,0.551l1.722,2.979c0.104,0.189,0.337,0.258,0.525,0.189l2.144-0.861
		c0.447,0.345,0.929,0.629,1.455,0.843l0.327,2.28c0.026,0.207,0.208,0.361,0.422,0.361h3.444c0.216,0,0.396-0.154,0.421-0.361
		l0.328-2.28c0.524-0.214,1.006-0.508,1.454-0.843l2.145,0.861c0.197,0.076,0.421,0,0.525-0.189l1.722-2.979
		c0.104-0.188,0.061-0.421-0.103-0.551L32.573,31.84L32.573,31.84z M26.177,34.01c-1.662,0-3.014-1.352-3.014-3.013
		s1.352-3.012,3.014-3.012s3.013,1.351,3.013,3.012S27.839,34.01,26.177,34.01L26.177,34.01z"/>
</g>
</svg>
