<?xml version="1.0" encoding="utf-8"?>
<!-- Generator: Adobe Illustrator 16.2.0, SVG Export Plug-In . SVG Version: 6.00 Build 0)  -->
<!DOCTYPE svg PUBLIC "-//W3C//DTD SVG 1.1//EN" "http://www.w3.org/Graphics/SVG/1.1/DTD/svg11.dtd">
<svg version="1.1" id="Layer_1" xmlns:sketch="http://www.bohemiancoding.com/sketch/ns"
	 xmlns="http://www.w3.org/2000/svg" xmlns:xlink="http://www.w3.org/1999/xlink" x="0px" y="0px" width="84px" height="84px"
	 viewBox="0 0 84 84" enable-background="new 0 0 84 84" xml:space="preserve">
<g sketch:type="MSShapeGroup">
	<g id="path-1">
		<path fill="#EEEEEE" d="M41.007,81.75c-21.37,0-38.756-17.386-38.756-38.756v-1.988c0-21.37,17.386-38.756,38.756-38.756h1.988
			c21.37,0,38.756,17.386,38.756,38.756v1.988c0,21.37-17.386,38.756-38.756,38.756H41.007z"/>
		<path fill="#FFFFFF" d="M42.995,3.25c20.818,0,37.756,16.938,37.756,37.756v1.988c0,20.818-16.938,37.756-37.756,37.756h-1.988
			c-20.819,0-37.756-16.938-37.756-37.756v-1.988c0-20.819,16.938-37.756,37.756-37.756H42.995 M42.995,1.25h-1.988
			c-21.956,0-39.756,17.8-39.756,39.756v1.988c0,21.957,17.8,39.756,39.756,39.756h1.988c21.957,0,39.756-17.799,39.756-39.756
			v-1.988C82.751,19.05,64.952,1.25,42.995,1.25L42.995,1.25z"/>
	</g>
</g>
<g>
	<path id="path-1_1_" fill="none" stroke="#F2EDED" d="M41.007,1.25h1.988c21.957,0,39.756,17.8,39.756,39.756v1.988
		c0,21.957-17.799,39.756-39.756,39.756h-1.988c-21.956,0-39.756-17.799-39.756-39.756v-1.988C1.251,19.05,19.051,1.25,41.007,1.25z
		"/>
</g>
<g>
	<path id="Shape" fill="#005EB8" d="M57.632,26.088H26.37c-1.722,0-3.124,1.416-3.124,3.156v20.58c0,1.739,1.402,3.156,3.124,3.156
		h10.073l-1.913,4.257c-0.197,0.439-0.16,0.952,0.1,1.357c0.259,0.405,0.704,0.651,1.183,0.651h12.377h0.002
		c0.777,0,1.406-0.637,1.406-1.421c0-0.235-0.057-0.459-0.158-0.655l-1.881-4.189h10.073c1.722,0,3.124-1.417,3.124-3.156v-20.58
		C60.756,27.504,59.354,26.088,57.632,26.088L57.632,26.088z M57.942,49.823c0,0.173-0.14,0.315-0.311,0.315H45.377h-6.752H26.37
		c-0.171,0-0.311-0.143-0.311-0.315v-20.58c0-0.173,0.14-0.314,0.311-0.314h31.262c0.171,0,0.311,0.142,0.311,0.314V49.823
		L57.942,49.823z"/>
	<path fill="#005EB8" d="M30.077,39.139c0.884,0.101,1.72-0.224,2.31-0.811l7.681,2.788c0.079,1.365,1.123,2.517,2.512,2.675
		c1.554,0.178,2.959-0.955,3.134-2.523c0.012-0.111,0.019-0.222,0.019-0.332l6.481-4.777c0.323,0.185,0.686,0.309,1.077,0.353
		c1.554,0.176,2.959-0.956,3.134-2.524c0.175-1.569-0.946-2.989-2.499-3.166c-1.554-0.177-2.958,0.956-3.133,2.524
		c-0.057,0.502,0.021,0.988,0.201,1.424l-5.911,4.356c-0.452-0.554-1.107-0.939-1.868-1.025c-1.076-0.122-2.082,0.385-2.656,1.229
		l-7.354-2.669c0.002-0.016,0.007-0.031,0.008-0.047c0.175-1.568-0.946-2.988-2.499-3.165c-1.553-0.177-2.959,0.955-3.134,2.524
		C27.402,37.542,28.524,38.962,30.077,39.139L30.077,39.139z"/>
	<path id="Shape_2_" fill="#005EB8" d="M53.609,38.069c-0.14,0-0.281-0.008-0.422-0.024c-0.3-0.034-0.589-0.103-0.867-0.207
		l-5.706,4.204c-0.238,1.889-1.825,3.305-3.716,3.305c-0.14,0-0.281-0.008-0.421-0.024c-1.606-0.181-2.884-1.365-3.234-2.909
		l-6.673-2.422c-0.633,0.457-1.386,0.705-2.175,0.705l0,0c-0.14,0-0.281-0.008-0.422-0.024C29,40.562,28.154,40.08,27.56,39.384
		v9.32h28.882V36.762C55.751,37.567,54.734,38.069,53.609,38.069L53.609,38.069z"/>
</g>
</svg>
