<?xml version="1.0" encoding="utf-8"?>
<!-- Generator: Adobe Illustrator 16.2.0, SVG Export Plug-In . SVG Version: 6.00 Build 0)  -->
<!DOCTYPE svg PUBLIC "-//W3C//DTD SVG 1.1//EN" "http://www.w3.org/Graphics/SVG/1.1/DTD/svg11.dtd">
<svg version="1.1" id="Layer_1" xmlns:sketch="http://www.bohemiancoding.com/sketch/ns"
	 xmlns="http://www.w3.org/2000/svg" xmlns:xlink="http://www.w3.org/1999/xlink" x="0px" y="0px" width="84px" height="84px"
	 viewBox="0 0 84 84" enable-background="new 0 0 84 84" xml:space="preserve">
<g id="Rectangle-290">
	<g sketch:type="MSShapeGroup">
		<path id="path-1" fill="#EEEEEE" stroke="#FFFFFF" stroke-width="4" d="M41,1h2c22.092,0,40,17.909,40,40v2
			c0,22.092-17.908,40-40,40h-2C18.909,83,1,65.092,1,43v-2C1,18.909,18.909,1,41,1z"/>
	</g>
	<g>
		<path id="path-1_1_" fill="none" stroke="#F2EDED" d="M41,1h2c22.092,0,40,17.909,40,40v2c0,22.092-17.908,40-40,40h-2
			C18.909,83,1,65.092,1,43v-2C1,18.909,18.909,1,41,1z"/>
	</g>
</g>
<g>
	<g>
		<path fill="#005EB8" d="M56.728,45.725c-0.532-0.416-6.093-6.586-7.595-7.458V22.253c0-1.628-1.317-2.936-2.936-2.936H31.075
			c-1.627,0-2.935,1.317-2.935,2.936v28.036c0,1.626,1.317,2.934,2.935,2.934h6.588l-0.272-2.305
			c-0.087-0.078-0.145-0.126-0.232-0.203h-2.906c0.098-0.388,0.126-0.813,0.049-1.251c-0.214-1.21-1.173-2.189-2.384-2.411
			c-0.445-0.088-0.88-0.059-1.278,0.038V25.266c0.174,0.029,0.358,0.048,0.542,0.048c1.647,0,2.974-1.337,2.974-2.974
			c0-0.175-0.019-0.35-0.048-0.523h9.028c-0.028,0.174-0.048,0.349-0.048,0.523c0,1.646,1.327,2.974,2.973,2.974
			c0.185,0,0.369-0.02,0.543-0.048V52.69c-1.026-0.755-2.17-3.119-2.17-3.119s-0.562-6.287-3.748-6.287
			c-0.087,0-0.166,0-0.252,0.009c0,0-2.412,0.203-0.417,7.101l0.892,7.665c0,0,0.998,4.154,3.748,7.031v0.854
			c0,0.454,0.369,0.832,0.834,0.832h8.961c0.426,0,0.774-0.318,0.823-0.736c0.319-2.983,1.559-14.075,2.286-15.761
			c0.117-0.272,0.213-0.542,0.253-0.834C57.978,48.496,58.035,46.752,56.728,45.725L56.728,45.725z M56.728,45.725"/>
	</g>
	<path fill="#005EB8" d="M40.743,27.096c0,0.985-0.798,1.783-1.782,1.783s-1.782-0.798-1.782-1.783c0-0.984,0.797-1.782,1.782-1.782
		S40.743,26.112,40.743,27.096L40.743,27.096z M40.743,27.096"/>
	<path fill="#005EB8" d="M32.199,36.474c0,3.071,2.151,5.638,5.027,6.288c0.088-0.166,0.174-0.311,0.281-0.465
		c0.95-1.385,2.238-1.638,2.674-1.676c0.174-0.02,0.348-0.03,0.523-0.03c0.62,0,1.463,0.117,2.334,0.582
		c1.249-1.173,2.034-2.848,2.034-4.699c0-3.556-2.887-6.442-6.441-6.442C35.076,30.032,32.199,32.918,32.199,36.474L32.199,36.474z
		 M34.776,35.902c0.387,0,0.397,0,0.455-0.387c0.049-0.3,0.136-0.581,0.252-0.862c0.067-0.155,0.174-0.213,0.328-0.164
		c0.242,0.067,0.476,0.135,0.718,0.212c0.223,0.068,0.251,0.145,0.154,0.358c-0.213,0.437-0.3,0.881-0.271,1.366
		c0.009,0.126,0.019,0.252,0.078,0.358c0.184,0.416,0.639,0.475,0.919,0.126c0.146-0.175,0.242-0.377,0.33-0.591
		c0.155-0.368,0.3-0.736,0.485-1.076c0.61-1.104,1.995-1.404,2.945-0.62c0.338,0.282,0.571,0.649,0.688,1.075
		c0.049,0.185,0.145,0.272,0.339,0.263c0.194-0.01,0.378,0,0.571,0c0.175,0,0.263,0.086,0.263,0.251
		c0.009,0.204,0.009,0.407,0,0.611c0,0.183-0.107,0.261-0.281,0.261h-0.417c-0.31,0-0.32,0.01-0.368,0.31
		c-0.058,0.377-0.145,0.747-0.309,1.094c-0.137,0.272-0.204,0.301-0.485,0.223c-0.214-0.058-0.427-0.115-0.631-0.184
		c-0.242-0.078-0.271-0.146-0.154-0.368c0.204-0.378,0.31-0.785,0.368-1.211c0.039-0.271,0.009-0.542-0.106-0.794
		c-0.203-0.475-0.756-0.552-1.085-0.145c-0.117,0.135-0.194,0.291-0.261,0.456c-0.185,0.416-0.32,0.852-0.553,1.239
		c-0.378,0.64-0.901,1.037-1.676,0.988c-0.872-0.048-1.424-0.551-1.714-1.346c-0.116-0.329-0.116-0.329-0.465-0.34h-0.349
		c-0.262-0.009-0.31-0.047-0.31-0.309v-0.242C34.224,35.912,34.224,35.912,34.776,35.902L34.776,35.902z M34.776,35.902"/>
</g>
</svg>
