<?xml version="1.0" encoding="utf-8"?>
<!-- Generator: Adobe Illustrator 16.2.0, SVG Export Plug-In . SVG Version: 6.00 Build 0)  -->
<!DOCTYPE svg PUBLIC "-//W3C//DTD SVG 1.1//EN" "http://www.w3.org/Graphics/SVG/1.1/DTD/svg11.dtd">
<svg version="1.1" id="Layer_1" xmlns:sketch="http://www.bohemiancoding.com/sketch/ns"
	 xmlns="http://www.w3.org/2000/svg" xmlns:xlink="http://www.w3.org/1999/xlink" x="0px" y="0px" width="84px" height="84px"
	 viewBox="0 0 84 84" enable-background="new 0 0 84 84" xml:space="preserve">
<g sketch:type="MSShapeGroup">
	<g id="path-1">
		<path fill="#EEEEEE" d="M41.007,81.75c-21.37,0-38.756-17.386-38.756-38.756v-1.988c0-21.37,17.386-38.756,38.756-38.756h1.988
			c21.37,0,38.756,17.386,38.756,38.756v1.988c0,21.37-17.386,38.756-38.756,38.756H41.007z"/>
		<path fill="#FFFFFF" d="M42.995,3.25c20.817,0,37.756,16.938,37.756,37.756v1.988c0,20.818-16.938,37.756-37.756,37.756h-1.988
			c-20.819,0-37.756-16.938-37.756-37.756v-1.988c0-20.819,16.938-37.756,37.756-37.756H42.995 M42.995,1.25h-1.988
			c-21.956,0-39.756,17.8-39.756,39.756v1.988c0,21.957,17.8,39.756,39.756,39.756h1.988c21.957,0,39.756-17.799,39.756-39.756
			v-1.988C82.751,19.05,64.952,1.25,42.995,1.25L42.995,1.25z"/>
	</g>
</g>
<g>
	<path id="path-1_1_" fill="none" stroke="#F2EDED" d="M41.007,1.25h1.988c21.957,0,39.756,17.8,39.756,39.756v1.988
		c0,21.957-17.799,39.756-39.756,39.756h-1.988c-21.956,0-39.756-17.799-39.756-39.756v-1.988C1.251,19.05,19.051,1.25,41.007,1.25z
		"/>
</g>
<g>
	<g>
		<g>
			<path fill="#005EB8" d="M66.676,54.146c0-0.155-0.151-0.155-0.151-0.155c-49.045,0-49.045,0-49.045,0
				c-0.155,0-0.155,0-0.155,0.155c-0.155,0-0.155,0-0.155,0.151c0,0,0.772,3.974,6.787,3.974c35.934,0,35.934,0,35.934,0
				c6.169,0,6.94-3.974,6.94-3.974C66.831,54.146,66.831,54.146,66.676,54.146L66.676,54.146z M45.856,56.591
				c-7.711,0-7.711,0-7.711,0c0-1.225,0-1.225,0-1.225c7.711,0,7.711,0,7.711,0V56.591z"/>
			<path fill="#005EB8" d="M23.802,52.31c36.398,0,36.398,0,36.398,0c0.462,0,0.925-0.458,0.925-1.067c0-24.76,0-24.76,0-24.76
				c0-0.611-0.463-1.07-0.925-1.07c-36.398,0-36.398,0-36.398,0c-0.462,0-0.925,0.458-0.925,1.07c0,24.76,0,24.76,0,24.76
				C22.877,51.852,23.34,52.31,23.802,52.31L23.802,52.31z M26.307,29.07c31.388,0,31.388,0,31.388,0c0,19.583,0,19.583,0,19.583
				c-31.388,0-31.388,0-31.388,0V29.07z"/>
		</g>
	</g>
	<path fill="#005EB8" d="M33.274,33.691l2.39,0.716l3.014,7.812c0.092,0.239,0.322,0.397,0.577,0.397h7.448
		c0.256,0,0.485-0.158,0.576-0.397l2.476-6.433c0.075-0.189,0.046-0.403-0.067-0.572c-0.115-0.168-0.307-0.268-0.512-0.268H38.118
		l-0.637-1.624c-0.082-0.21-0.23-0.39-0.422-0.508l-2.685-0.899c-0.492-0.303-1.136-0.151-1.439,0.338
		C32.632,32.744,32.784,33.389,33.274,33.691L33.274,33.691z M33.274,33.691"/>
	<circle fill="#005EB8" cx="40.798" cy="45.026" r="1.552"/>
	<circle fill="#005EB8" cx="45.048" cy="45.026" r="1.552"/>
</g>
</svg>
