<?xml version="1.0" encoding="utf-8"?>
<!-- Generator: Adobe Illustrator 16.2.0, SVG Export Plug-In . SVG Version: 6.00 Build 0)  -->
<!DOCTYPE svg PUBLIC "-//W3C//DTD SVG 1.1//EN" "http://www.w3.org/Graphics/SVG/1.1/DTD/svg11.dtd">
<svg version="1.1" id="Layer_1" xmlns:sketch="http://www.bohemiancoding.com/sketch/ns"
	 xmlns="http://www.w3.org/2000/svg" xmlns:xlink="http://www.w3.org/1999/xlink" x="0px" y="0px" width="84px" height="84px"
	 viewBox="0 0 84 84" enable-background="new 0 0 84 84" xml:space="preserve">
<g sketch:type="MSShapeGroup">
	<g id="path-1">
		<path fill="#EEEEEE" d="M41.006,81.75c-21.37,0-38.756-17.386-38.756-38.756v-1.988c0-21.37,17.386-38.756,38.756-38.756h1.988
			c21.371,0,38.756,17.386,38.756,38.756v1.988c0,21.37-17.385,38.756-38.756,38.756H41.006z"/>
		<path fill="#FFFFFF" d="M42.994,3.25c20.818,0,37.756,16.938,37.756,37.756v1.988c0,20.818-16.938,37.756-37.756,37.756h-1.988
			C20.188,80.75,3.25,63.813,3.25,42.994v-1.988C3.25,20.187,20.188,3.25,41.006,3.25H42.994 M42.994,1.25h-1.988
			C19.05,1.25,1.25,19.05,1.25,41.006v1.988c0,21.957,17.8,39.756,39.756,39.756h1.988c21.957,0,39.756-17.799,39.756-39.756v-1.988
			C82.75,19.05,64.951,1.25,42.994,1.25L42.994,1.25z"/>
	</g>
</g>
<g>
	<path id="path-1_1_" fill="none" stroke="#F2EDED" d="M41.007,1.25h1.988c21.957,0,39.756,17.8,39.756,39.756v1.988
		c0,21.957-17.799,39.756-39.756,39.756h-1.988c-21.956,0-39.756-17.799-39.756-39.756v-1.988C1.251,19.05,19.051,1.25,41.007,1.25z
		"/>
</g>
<g>
	<g>
		<rect x="40.638" y="32.069" fill="#005EB8" width="15.979" height="2.063"/>
	</g>
	<g>
		<rect x="40.638" y="36.963" fill="#005EB8" width="15.979" height="2.064"/>
	</g>
	<g>
		<rect x="40.638" y="41.856" fill="#005EB8" width="15.979" height="2.064"/>
	</g>
	<g>
		<rect x="27.513" y="46.75" fill="#005EB8" width="29.104" height="2.063"/>
	</g>
	<path fill="#005EB8" d="M61.925,25.178H22.077c-0.971,0-1.757,0.788-1.757,1.758v26.956c0,0.971,0.786,1.758,1.757,1.758h39.848
		c0.972,0,1.756-0.787,1.756-1.758V26.937C63.681,25.966,62.896,25.178,61.925,25.178z M60.262,52.234H23.74v-23.64h36.521V52.234z"
		/>
	<g>
		<path fill="#005EB8" d="M40.988,55.644c-1.65,0-3.972,0.937-5.16,2.082l-0.751,0.723c-1.188,1.146-0.81,2.082,0.84,2.082h12.164
			c1.65,0,2.028-0.937,0.84-2.082l-0.75-0.723c-1.188-1.146-3.51-2.082-5.16-2.082H40.988z"/>
	</g>
	<rect x="27.513" y="32.069" fill="#005EB8" width="10.143" height="11.209"/>
	<circle fill="#EEEEEE" cx="32.585" cy="35.601" r="1.986"/>
	<path fill="#EEEEEE" d="M36.005,42.101v-0.218c0-1.891-1.532-3.421-3.421-3.421c-1.89,0-3.422,1.53-3.422,3.421v0.218H36.005z"/>
</g>
</svg>
