<?xml version="1.0" encoding="utf-8"?>
<!-- Generator: Adobe Illustrator 16.2.0, SVG Export Plug-In . SVG Version: 6.00 Build 0)  -->
<!DOCTYPE svg PUBLIC "-//W3C//DTD SVG 1.1//EN" "http://www.w3.org/Graphics/SVG/1.1/DTD/svg11.dtd">
<svg version="1.1" id="Layer_1" xmlns:sketch="http://www.bohemiancoding.com/sketch/ns"
	 xmlns="http://www.w3.org/2000/svg" xmlns:xlink="http://www.w3.org/1999/xlink" x="0px" y="0px" width="84px" height="84px"
	 viewBox="0 0 84 84" enable-background="new 0 0 84 84" xml:space="preserve">
<g sketch:type="MSShapeGroup">
	<g id="path-1">
		<path fill="#EEEEEE" d="M41.007,81.75c-21.37,0-38.756-17.386-38.756-38.756v-1.988c0-21.37,17.386-38.756,38.756-38.756h1.988
			c21.37,0,38.756,17.386,38.756,38.756v1.988c0,21.37-17.386,38.756-38.756,38.756H41.007z"/>
		<path fill="#FFFFFF" d="M42.995,3.25c20.817,0,37.756,16.938,37.756,37.756v1.988c0,20.818-16.938,37.756-37.756,37.756h-1.988
			c-20.819,0-37.756-16.938-37.756-37.756v-1.988c0-20.819,16.938-37.756,37.756-37.756H42.995 M42.995,1.25h-1.988
			c-21.956,0-39.756,17.8-39.756,39.756v1.988c0,21.957,17.8,39.756,39.756,39.756h1.988c21.957,0,39.756-17.799,39.756-39.756
			v-1.988C82.751,19.05,64.952,1.25,42.995,1.25L42.995,1.25z"/>
	</g>
</g>
<g>
	<path id="path-1_1_" fill="none" stroke="#F2EDED" d="M41.007,1.25h1.988c21.957,0,39.756,17.8,39.756,39.756v1.988
		c0,21.957-17.799,39.756-39.756,39.756h-1.988c-21.956,0-39.756-17.799-39.756-39.756v-1.988C1.251,19.05,19.051,1.25,41.007,1.25z
		"/>
</g>
<g>
	<path fill="#005EB8" d="M52.273,40.848l-2.196-0.367c-0.16-0.652-0.392-1.276-0.695-1.858l1.405-1.743
		c0.299-0.369,0.286-0.898-0.029-1.253l-0.874-0.983c-0.315-0.355-0.841-0.431-1.241-0.177l-1.879,1.18
		c-0.825-0.577-1.761-1.003-2.771-1.251l-0.366-2.208c-0.078-0.467-0.482-0.81-0.957-0.81h-1.316c-0.474,0-0.88,0.343-0.956,0.81
		l-0.369,2.208c-0.835,0.205-1.617,0.534-2.332,0.969l-1.786-1.274c-0.385-0.275-0.914-0.232-1.25,0.103l-0.93,0.93
		c-0.334,0.336-0.378,0.865-0.102,1.25l1.278,1.789c-0.43,0.708-0.756,1.487-0.961,2.313l-2.22,0.371
		c-0.467,0.077-0.811,0.481-0.811,0.957v1.315c0,0.475,0.344,0.88,0.811,0.956l2.22,0.371c0.168,0.681,0.411,1.331,0.735,1.934
		l-1.399,1.732c-0.298,0.369-0.285,0.898,0.029,1.255l0.873,0.982c0.317,0.355,0.842,0.429,1.242,0.177l1.905-1.197
		c0.806,0.553,1.718,0.957,2.697,1.197l0.369,2.208c0.075,0.469,0.481,0.812,0.956,0.812h1.316c0.475,0,0.879-0.343,0.957-0.812
		l0.367-2.208c0.824-0.201,1.597-0.524,2.305-0.952l1.86,1.329c0.384,0.275,0.913,0.231,1.249-0.104l0.929-0.93
		c0.336-0.335,0.381-0.863,0.103-1.249l-1.324-1.857c0.432-0.711,0.76-1.489,0.962-2.321l2.197-0.366
		c0.467-0.076,0.81-0.481,0.81-0.956v-1.315C53.084,41.33,52.741,40.925,52.273,40.848L52.273,40.848z M42.035,46.619
		c-2.294,0-4.157-1.862-4.157-4.157s1.862-4.156,4.157-4.156s4.157,1.861,4.157,4.156S44.329,46.619,42.035,46.619L42.035,46.619z
		 M42.035,46.619"/>
</g>
<g>
	<g>
		<path fill="none" stroke="#005EB8" stroke-width="2" stroke-miterlimit="10" d="M36.869,23.669
			c-8.488,2.262-14.74,10.002-14.74,19.202c0,3.154,0.747,6.13,2.057,8.777"/>
		<g>
			<polygon fill="#005EB8" points="35.317,20.376 42,23 36.387,27.476 			"/>
		</g>
	</g>
</g>
<g>
	<g>
		<path fill="none" stroke="#005EB8" stroke-width="2" stroke-miterlimit="10" d="M61.18,48.053
			c0.449-1.651,0.691-3.388,0.691-5.182c0-10.653-8.384-19.348-18.912-19.848"/>
		<g>
			<polygon fill="#005EB8" points="64.78,48.319 59.185,52.817 58.087,45.723 			"/>
		</g>
	</g>
</g>
<g>
	<g>
		<path fill="none" stroke="#005EB8" stroke-width="2" stroke-miterlimit="10" d="M27.916,56.868
			c3.596,3.626,8.574,5.874,14.084,5.874c6.948,0,13.051-3.577,16.601-8.98"/>
		<g>
			<polygon fill="#005EB8" points="25.883,59.856 24.782,52.762 31.477,55.354 			"/>
		</g>
	</g>
</g>
</svg>
