<?xml version="1.0" encoding="utf-8"?>
<!-- Generator: Adobe Illustrator 16.2.0, SVG Export Plug-In . SVG Version: 6.00 Build 0)  -->
<!DOCTYPE svg PUBLIC "-//W3C//DTD SVG 1.1//EN" "http://www.w3.org/Graphics/SVG/1.1/DTD/svg11.dtd">
<svg version="1.1" id="Layer_1" xmlns:sketch="http://www.bohemiancoding.com/sketch/ns"
	 xmlns="http://www.w3.org/2000/svg" xmlns:xlink="http://www.w3.org/1999/xlink" x="0px" y="0px" width="84px" height="84px"
	 viewBox="0 0 84 84" enable-background="new 0 0 84 84" xml:space="preserve">
<g sketch:type="MSShapeGroup">
	<g id="path-1">
		<path fill="#EEEEEE" d="M41.007,81.75c-21.37,0-38.756-17.386-38.756-38.756v-1.988c0-21.37,17.386-38.756,38.756-38.756h1.988
			c21.37,0,38.756,17.386,38.756,38.756v1.988c0,21.37-17.386,38.756-38.756,38.756H41.007z"/>
		<path fill="#FFFFFF" d="M42.995,3.25c20.817,0,37.756,16.938,37.756,37.756v1.988c0,20.818-16.938,37.756-37.756,37.756h-1.988
			c-20.819,0-37.756-16.938-37.756-37.756v-1.988c0-20.819,16.938-37.756,37.756-37.756H42.995 M42.995,1.25h-1.988
			c-21.956,0-39.756,17.8-39.756,39.756v1.988c0,21.957,17.8,39.756,39.756,39.756h1.988c21.957,0,39.756-17.799,39.756-39.756
			v-1.988C82.751,19.05,64.952,1.25,42.995,1.25L42.995,1.25z"/>
	</g>
</g>
<g>
	<path id="path-1_1_" fill="none" stroke="#F2EDED" d="M41.007,1.25h1.988c21.957,0,39.756,17.8,39.756,39.756v1.988
		c0,21.957-17.799,39.756-39.756,39.756h-1.988c-21.956,0-39.756-17.799-39.756-39.756v-1.988C1.251,19.05,19.051,1.25,41.007,1.25z
		"/>
</g>
<g>
	<path fill="#005EB8" d="M51.859,33.183c-6.07,3.717-10.446,8.423-12.222,10.51l-4.56-3.571c-0.126-0.086-2.623,2.133-2.558,2.2
		l8.307,8.451c0.059,0.065,0.144,0.097,0.237,0.097c0.013,0,0.038,0,0.058-0.004c0.116-0.021,0.208-0.099,0.246-0.208
		c1.341-3.419,5.763-10.584,11.402-15.781c0.099-0.092,0.139-0.244,0.079-0.372C52.848,34.5,51.945,33.127,51.859,33.183
		L51.859,33.183z"/>
	<path fill="#005EB8" d="M57.308,25.705c-12.58,0-14.707-4.78-14.727-4.816c-0.094-0.241-0.318-0.394-0.576-0.4h-0.008
		c-0.252,0-0.482,0.159-0.583,0.383c-0.014,0.053-2.186,4.833-14.721,4.833c-0.351,0-0.63,0.286-0.63,0.625v21.4
		c0,8.755,15.045,15.448,15.682,15.731c0.086,0.038,0.167,0.051,0.26,0.051c0.079,0,0.173-0.013,0.251-0.051
		c0.644-0.283,15.683-6.977,15.683-15.731v-21.4C57.939,25.99,57.658,25.705,57.308,25.705z M54.479,46.483
		c0,6.852-11.778,12.097-12.284,12.314c-0.059,0.034-0.132,0.04-0.199,0.04c-0.065,0-0.132-0.006-0.199-0.04
		c-0.491-0.218-12.275-5.463-12.275-12.314V29.734c0-0.271,0.218-0.49,0.49-0.49c9.81,0,11.515-3.744,11.534-3.778
		c0.074-0.186,0.251-0.306,0.45-0.306h0.008c0.199,0,0.376,0.128,0.449,0.312c0.021,0.031,1.686,3.771,11.534,3.771
		c0.271,0,0.491,0.219,0.491,0.49V46.483z"/>
</g>
</svg>
