<?xml version="1.0" encoding="utf-8"?>
<!-- Generator: Adobe Illustrator 16.2.0, SVG Export Plug-In . SVG Version: 6.00 Build 0)  -->
<!DOCTYPE svg PUBLIC "-//W3C//DTD SVG 1.1//EN" "http://www.w3.org/Graphics/SVG/1.1/DTD/svg11.dtd">
<svg version="1.1" id="Layer_1" xmlns:sketch="http://www.bohemiancoding.com/sketch/ns"
	 xmlns="http://www.w3.org/2000/svg" xmlns:xlink="http://www.w3.org/1999/xlink" x="0px" y="0px" width="84px" height="84px"
	 viewBox="0 0 84 84" enable-background="new 0 0 84 84" xml:space="preserve">
<g sketch:type="MSShapeGroup">
	<g id="path-1">
		<path fill="#EEEEEE" d="M41.007,81.75c-21.37,0-38.756-17.386-38.756-38.756v-1.988c0-21.37,17.386-38.756,38.756-38.756h1.988
			c21.37,0,38.756,17.386,38.756,38.756v1.988c0,21.37-17.386,38.756-38.756,38.756H41.007z"/>
		<path fill="#FFFFFF" d="M42.995,3.25c20.817,0,37.756,16.938,37.756,37.756v1.988c0,20.818-16.938,37.756-37.756,37.756h-1.988
			c-20.819,0-37.756-16.938-37.756-37.756v-1.988c0-20.819,16.938-37.756,37.756-37.756H42.995 M42.995,1.25h-1.988
			c-21.956,0-39.756,17.8-39.756,39.756v1.988c0,21.957,17.8,39.756,39.756,39.756h1.988c21.957,0,39.756-17.799,39.756-39.756
			v-1.988C82.751,19.05,64.952,1.25,42.995,1.25L42.995,1.25z"/>
	</g>
</g>
<g>
	<path id="path-1_1_" fill="none" stroke="#F2EDED" d="M41.007,1.25h1.988c21.957,0,39.756,17.8,39.756,39.756v1.988
		c0,21.957-17.799,39.756-39.756,39.756h-1.988c-21.956,0-39.756-17.799-39.756-39.756v-1.988C1.251,19.05,19.051,1.25,41.007,1.25z
		"/>
</g>
<g>
	<path fill="none" stroke="#005EB8" stroke-width="3" stroke-miterlimit="10" d="M37.146,42c0-4.224,1.887-8,4.855-10.554
		c-2.438-2.098-5.604-3.375-9.072-3.375C25.237,28.072,19,34.308,19,42s6.236,13.927,13.928,13.927c3.468,0,6.634-1.275,9.072-3.375
		C39.032,50,37.146,46.225,37.146,42z"/>
	<path fill="none" stroke="#005EB8" stroke-width="3" stroke-miterlimit="10" d="M51.074,28.072c-3.469,0-6.635,1.276-9.074,3.375
		C44.971,34,46.857,37.777,46.857,42c0,4.224-1.887,8-4.857,10.552c2.439,2.1,5.605,3.375,9.074,3.375
		c7.69,0,13.928-6.234,13.928-13.927S58.765,28.072,51.074,28.072z"/>
	<path fill="#005EB8" d="M47.262,42c0-4.576-2.044-8.667-5.261-11.434c-3.216,2.767-5.26,6.858-5.26,11.434s2.044,8.666,5.26,11.433
		C45.218,50.666,47.262,46.576,47.262,42z"/>
</g>
</svg>
