<?xml version="1.0" encoding="utf-8"?>
<!-- Generator: Adobe Illustrator 21.0.2, SVG Export Plug-In . SVG Version: 6.00 Build 0)  -->
<svg version="1.1" id="Layer_1" xmlns:sketch="http://www.bohemiancoding.com/sketch/ns"
	 xmlns="http://www.w3.org/2000/svg" xmlns:xlink="http://www.w3.org/1999/xlink" x="0px" y="0px" viewBox="0 0 84 84"
	 style="enable-background:new 0 0 84 84;" xml:space="preserve">
<style type="text/css">
	.st0{fill:#EEEEEE;stroke:#FFFFFF;stroke-width:4;}
	.st1{fill:none;stroke:#F2EDED;}
	.st2{fill:#005EB8;}
</style>
<g id="Rectangle-290">
	<g sketch:type="MSShapeGroup">
		<path id="path-1" class="st0" d="M41,1h2c22.1,0,40,17.9,40,40v2c0,22.1-17.9,40-40,40h-2C18.9,83,1,65.1,1,43v-2
			C1,18.9,18.9,1,41,1z"/>
	</g>
	<g>
		<path id="path-1_1_" class="st1" d="M41,1h2c22.1,0,40,17.9,40,40v2c0,22.1-17.9,40-40,40h-2C18.9,83,1,65.1,1,43v-2
			C1,18.9,18.9,1,41,1z"/>
	</g>
</g>
<g>
	<g>
		<path class="st2" d="M31.8,34.3h20l-10-4.9L31.8,34.3z"/>
		<rect x="33.7" y="37.4" class="st2" width="1.6" height="6.7"/>
		<rect x="38.5" y="37.4" class="st2" width="1.6" height="6.7"/>
		<rect x="43.4" y="37.4" class="st2" width="1.6" height="6.7"/>
		<rect x="48.2" y="37.4" class="st2" width="1.6" height="6.7"/>
		<path class="st2" d="M50.7,36.7v-1.6H32.8v1.6h17H50.7z"/>
		<path class="st2" d="M50.4,46h-0.5v-1.1H33.7V46h-0.5c-0.5,0-0.9,0.4-0.9,0.9v1h19v-1C51.3,46.4,50.9,46,50.4,46L50.4,46z"/>
	</g>
	<g>
		<g>
			<path class="st2" d="M66.9,54.2c-0.1-0.1-0.1-0.1-0.2-0.1H16.8c-0.1,0-0.2,0-0.2,0.1c-0.1,0.1-0.1,0.1-0.1,0.2c0,0,0.8,4,6.9,4
				h36.6c6.1,0,6.9-4,6.9-4C67,54.4,67,54.3,66.9,54.2L66.9,54.2z M45.7,56.9h-7.9v-1.3h7.9V56.9z"/>
		</g>
		<path class="st2" d="M22.1,52.4h39.3c0.6,0,1-0.5,1-1V26c0-0.6-0.5-1-1-1H22.1c-0.6,0-1,0.5-1,1v25.4
			C21.1,51.9,21.6,52.4,22.1,52.4L22.1,52.4z M23.8,27.4h35.6v22.5H23.8V27.4z"/>
	</g>
</g>
</svg>
