<?xml version="1.0" encoding="utf-8"?>
<!-- Generator: Adobe Illustrator 16.2.0, SVG Export Plug-In . SVG Version: 6.00 Build 0)  -->
<!DOCTYPE svg PUBLIC "-//W3C//DTD SVG 1.1//EN" "http://www.w3.org/Graphics/SVG/1.1/DTD/svg11.dtd">
<svg version="1.1" id="Layer_1" xmlns:sketch="http://www.bohemiancoding.com/sketch/ns"
	 xmlns="http://www.w3.org/2000/svg" xmlns:xlink="http://www.w3.org/1999/xlink" x="0px" y="0px" width="84px" height="84px"
	 viewBox="0 0 84 84" enable-background="new 0 0 84 84" xml:space="preserve">
<g sketch:type="MSShapeGroup">
	<g id="path-1">
		<path fill="#EEEEEE" d="M41.007,81.75c-21.37,0-38.756-17.386-38.756-38.756v-1.988c0-21.37,17.386-38.756,38.756-38.756h1.988
			c21.37,0,38.756,17.386,38.756,38.756v1.988c0,21.37-17.386,38.756-38.756,38.756H41.007z"/>
		<path fill="#FFFFFF" d="M42.995,3.25c20.817,0,37.756,16.938,37.756,37.756v1.988c0,20.818-16.938,37.756-37.756,37.756h-1.988
			c-20.819,0-37.756-16.938-37.756-37.756v-1.988c0-20.819,16.938-37.756,37.756-37.756H42.995 M42.995,1.25h-1.988
			c-21.956,0-39.756,17.8-39.756,39.756v1.988c0,21.957,17.8,39.756,39.756,39.756h1.988c21.957,0,39.756-17.799,39.756-39.756
			v-1.988C82.751,19.05,64.952,1.25,42.995,1.25L42.995,1.25z"/>
	</g>
</g>
<g>
	<path id="path-1_1_" fill="none" stroke="#F2EDED" d="M41.007,1.25h1.988c21.957,0,39.756,17.8,39.756,39.756v1.988
		c0,21.957-17.799,39.756-39.756,39.756h-1.988c-21.956,0-39.756-17.799-39.756-39.756v-1.988C1.251,19.05,19.051,1.25,41.007,1.25z
		"/>
</g>
<g>
	<path fill="#005EB8" d="M50.266,26.388c-3.266,0-6.205,1.454-8.264,3.775c-2.059-2.321-4.999-3.775-8.264-3.775
		c-6.226,0-11.272,5.283-11.272,11.8c0,1.751,0.296,3.436,0.813,5.044c0,0,0.47,1.453,0.885,2.252
		c4.751,10.22,17.838,16.847,17.838,16.847s13.085-6.627,17.838-16.847c0,0,0.612-1.361,0.885-2.252
		c0.493-1.615,0.813-3.292,0.813-5.044C61.537,31.671,56.491,26.388,50.266,26.388L50.266,26.388z"/>
</g>
<g>
	<path fill="#EEEEEE" d="M34.986,51.912c0-3.276,0-2.157,0-2.157c0-4.003,3.097-7.093,7.106-7.093c3.826,0,6.923,3.09,6.923,7.093
		c0,1.038,0,2.157,0,2.157s-2.084,1.542-7.013,1.542C37.187,53.454,34.986,51.912,34.986,51.912z"/>
	<path fill="#EEEEEE" d="M45.917,37.498c0,2.182-1.821,3.822-3.827,3.822c-2.187,0-4.008-1.637-4.008-3.822
		c0-2.182,1.821-3.819,4.008-3.819C44.097,33.679,45.917,35.316,45.917,37.498L45.917,37.498z"/>
</g>
</svg>
