<?xml version="1.0" encoding="utf-8"?>
<!-- Generator: Adobe Illustrator 16.2.0, SVG Export Plug-In . SVG Version: 6.00 Build 0)  -->
<!DOCTYPE svg PUBLIC "-//W3C//DTD SVG 1.1//EN" "http://www.w3.org/Graphics/SVG/1.1/DTD/svg11.dtd">
<svg version="1.1" id="Layer_1" xmlns:sketch="http://www.bohemiancoding.com/sketch/ns"
	 xmlns="http://www.w3.org/2000/svg" xmlns:xlink="http://www.w3.org/1999/xlink" x="0px" y="0px" width="84px" height="84px"
	 viewBox="0 0 84 84" enable-background="new 0 0 84 84" xml:space="preserve">
<g sketch:type="MSShapeGroup">
	<g id="path-1">
		<path fill="#EEEEEE" d="M41.007,81.75c-21.37,0-38.756-17.386-38.756-38.756v-1.988c0-21.37,17.386-38.756,38.756-38.756h1.988
			c21.37,0,38.756,17.386,38.756,38.756v1.988c0,21.37-17.386,38.756-38.756,38.756H41.007z"/>
		<path fill="#FFFFFF" d="M42.995,3.25c20.817,0,37.756,16.938,37.756,37.756v1.988c0,20.818-16.938,37.756-37.756,37.756h-1.988
			c-20.819,0-37.756-16.938-37.756-37.756v-1.988c0-20.819,16.938-37.756,37.756-37.756H42.995 M42.995,1.25h-1.988
			c-21.956,0-39.756,17.8-39.756,39.756v1.988c0,21.957,17.8,39.756,39.756,39.756h1.988c21.957,0,39.756-17.799,39.756-39.756
			v-1.988C82.751,19.05,64.952,1.25,42.995,1.25L42.995,1.25z"/>
	</g>
</g>
<g>
	<path id="path-1_1_" fill="none" stroke="#F2EDED" d="M41.007,1.25h1.988c21.957,0,39.756,17.8,39.756,39.756v1.988
		c0,21.957-17.799,39.756-39.756,39.756h-1.988c-21.956,0-39.756-17.799-39.756-39.756v-1.988C1.251,19.05,19.051,1.25,41.007,1.25z
		"/>
</g>
<g>
	<path fill="#005EB8" d="M63.39,59.916c-6.382-6.384-3.592-3.595-3.592-3.595c-0.509-0.606-1.315-0.813-2.029-0.606
		c-1.518-1.521-1.518-1.521-1.518-1.521c2.532-3.343,2.333-8.208-0.811-11.248c-3.34-3.346-8.71-3.346-12.054,0
		c-3.342,3.342-3.342,8.815,0,12.158c3.041,3.043,7.802,3.344,11.146,0.813c1.52,1.521,1.52,1.521,1.52,1.521
		c-0.103,0.708,0.102,1.413,0.608,2.025c6.382,6.385,3.593,3.594,3.593,3.594c0.909,0.915,2.327,0.915,3.141,0
		C64.305,62.145,64.305,60.729,63.39,59.916L63.39,59.916z M44.842,53.653c-2.583-2.583-2.583-6.678,0-9.264
		c2.473-2.476,6.675-2.476,9.15,0c2.584,2.588,2.584,6.681,0,9.264C51.515,56.238,47.314,56.238,44.842,53.653L44.842,53.653z
		 M45.11,53.385L45.11,53.385"/>
	<path fill="#005EB8" d="M63.507,64.896L63.507,64.896"/>
</g>
<path fill="#005EB8" d="M39.92,52.629H24.986V25.246h27.39v14.031c0.891,0.283,1.744,0.688,2.532,1.219V24.48
	c0-0.977-0.792-1.767-1.767-1.767h-28.92c-0.976,0-1.766,0.79-1.766,1.767v28.918c0,0.977,0.79,1.767,1.766,1.767h17.207
	C40.792,54.378,40.287,53.523,39.92,52.629z"/>
<path fill="#005EB8" d="M39.235,47.727h-9.344V30.149h17.577v8.792c0.867-0.15,1.751-0.19,2.628-0.119v-9.468
	c0-1.01-0.819-1.834-1.834-1.834H29.096c-1.013,0-1.833,0.824-1.833,1.834v19.166c0,1.017,0.82,1.835,1.833,1.835h10.203
	C39.164,49.484,39.139,48.602,39.235,47.727z"/>
<path fill="#005EB8" d="M39.952,38.627c0,0.251,0.001,3.314,0.001,3.571c0,0.255-0.029,1.122,0.498,1.663
	c0.009,0.009,0.021,0.016,0.03,0.024c0.449-0.795,1.004-1.549,1.686-2.23c0.803-0.804,1.729-1.428,2.718-1.895
	c-0.967-1.645-2.78-3.465-3.825-3.465c-0.068,0-0.133,0.007-0.194,0.022c-0.381,0.098-0.613,0.353-0.748,0.646
	c0,0-0.317-0.165-0.317-0.366v-4.029c0-0.07-0.056-0.125-0.125-0.125h-1.082c-0.069,0-0.126,0.056-0.126,0.125v4.029
	c0,0.211-0.316,0.366-0.316,0.366c-0.135-0.293-0.368-0.548-0.748-0.646c-0.061-0.015-0.126-0.022-0.195-0.022
	c-1.085,0-3.01,1.966-3.942,3.657c-0.814,1.477-1.146,2.942-0.987,4.353c0.07,0.62,0.797,1.126,1.619,1.126
	c0.426,0,1.234-0.139,1.918-1.056c0.157,0.017,0.308,0.025,0.451,0.025c0.68,0,1.2-0.183,1.548-0.54
	c0.527-0.541,0.497-1.422,0.497-1.663c0-0.243,0.002-3.357,0.002-3.571c0-0.213,0.636-0.903,0.819-0.903
	C39.315,37.725,39.953,38.377,39.952,38.627z"/>
</svg>
