<?xml version="1.0" encoding="utf-8"?>
<!-- Generator: Adobe Illustrator 16.2.0, SVG Export Plug-In . SVG Version: 6.00 Build 0)  -->
<!DOCTYPE svg PUBLIC "-//W3C//DTD SVG 1.1//EN" "http://www.w3.org/Graphics/SVG/1.1/DTD/svg11.dtd">
<svg version="1.1" id="Layer_1" xmlns:sketch="http://www.bohemiancoding.com/sketch/ns"
	 xmlns="http://www.w3.org/2000/svg" xmlns:xlink="http://www.w3.org/1999/xlink" x="0px" y="0px" width="84px" height="84px"
	 viewBox="0 0 84 84" enable-background="new 0 0 84 84" xml:space="preserve">
<g sketch:type="MSShapeGroup">
	<g id="path-1">
		<path fill="#EEEEEE" d="M41.007,81.75c-21.37,0-38.756-17.386-38.756-38.756v-1.988c0-21.37,17.386-38.756,38.756-38.756h1.988
			c21.37,0,38.756,17.386,38.756,38.756v1.988c0,21.37-17.386,38.756-38.756,38.756H41.007z"/>
		<path fill="#FFFFFF" d="M42.995,3.25c20.817,0,37.756,16.938,37.756,37.756v1.988c0,20.818-16.938,37.756-37.756,37.756h-1.988
			c-20.819,0-37.756-16.938-37.756-37.756v-1.988c0-20.819,16.938-37.756,37.756-37.756H42.995 M42.995,1.25h-1.988
			c-21.956,0-39.756,17.8-39.756,39.756v1.988c0,21.957,17.8,39.756,39.756,39.756h1.988c21.957,0,39.756-17.799,39.756-39.756
			v-1.988C82.751,19.05,64.952,1.25,42.995,1.25L42.995,1.25z"/>
	</g>
</g>
<g>
	<path id="path-1_1_" fill="none" stroke="#F2EDED" d="M41.007,1.25h1.988c21.957,0,39.756,17.8,39.756,39.756v1.988
		c0,21.957-17.799,39.756-39.756,39.756h-1.988c-21.956,0-39.756-17.799-39.756-39.756v-1.988C1.251,19.05,19.051,1.25,41.007,1.25z
		"/>
</g>
<path fill="#005EB8" d="M50.759,20.285H33.242c-2.321,0-4.202,1.883-4.202,4.203v35.73c0,2.322,1.881,4.204,4.202,4.204h17.517
	c2.32,0,4.203-1.882,4.203-4.204V24.489C54.962,22.168,53.079,20.285,50.759,20.285z M37.588,22.852h8.825
	c0.322,0,0.583,0.261,0.583,0.583c0,0.321-0.261,0.583-0.583,0.583h-8.825c-0.322,0-0.583-0.261-0.583-0.583
	C37.006,23.113,37.266,22.852,37.588,22.852z M42.001,62.563c-0.804,0-1.457-0.651-1.457-1.455c0-0.807,0.653-1.458,1.457-1.458
	c0.805,0,1.457,0.651,1.457,1.458C43.458,61.912,42.806,62.563,42.001,62.563z M52.968,58.068H31.034V26.017h21.934V58.068z"/>
<g>
	<path fill-rule="evenodd" clip-rule="evenodd" fill="#005EB8" d="M49.684,35.39c-1.04-1.039-2.417-1.612-3.889-1.612
		c-1.437,0-2.647,0.516-3.761,1.629v0.005c-0.019-0.015-0.032-0.032-0.048-0.045c-1.076-1.07-2.282-1.59-3.688-1.59
		c-1.466,0-2.849,0.573-3.89,1.612c-1.035,1.035-1.607,2.419-1.607,3.885c0,1.467,0.573,3.442,1.607,4.481l6.396,6.448
		c0.327,0.329,0.78,0.521,1.242,0.521s0.916-0.192,1.243-0.521l6.395-6.448c1.04-1.039,1.608-3.014,1.608-4.481
		C51.292,37.809,50.724,36.425,49.684,35.39L49.684,35.39z M49.684,35.39"/>
</g>
<g>
	<path fill="#EEEEEE" d="M46.1,44.995c-0.016,0-0.031,0-0.047-0.001c-0.249-0.019-0.464-0.187-0.541-0.424L44,39.979l-0.742,1.666
		c-0.1,0.224-0.321,0.368-0.566,0.368h-1.591l-1.009,2.587c-0.092,0.236-0.318,0.393-0.572,0.395c-0.001,0-0.003,0-0.005,0
		c-0.251,0-0.478-0.151-0.574-0.384l-1.965-4.798l-0.849,1.839c-0.101,0.22-0.321,0.36-0.563,0.36h-3.641
		c-0.342,0-0.619-0.277-0.619-0.62c0-0.342,0.277-0.619,0.619-0.619h3.245l1.278-2.773c0.104-0.223,0.318-0.361,0.576-0.36
		c0.247,0.005,0.466,0.157,0.561,0.385l1.917,4.68l0.599-1.538c0.093-0.238,0.322-0.395,0.578-0.395h1.612l1.23-2.765
		c0.104-0.233,0.312-0.391,0.598-0.367c0.256,0.013,0.477,0.182,0.557,0.426l1.547,4.697l0.836-1.651
		c0.106-0.208,0.32-0.339,0.554-0.339h3.524c0.343,0,0.62,0.277,0.62,0.619c0,0.343-0.277,0.62-0.62,0.62h-3.143l-1.34,2.642
		C46.547,44.865,46.332,44.995,46.1,44.995z"/>
</g>
</svg>
