<?xml version="1.0" encoding="utf-8"?>
<!-- Generator: Adobe Illustrator 16.2.0, SVG Export Plug-In . SVG Version: 6.00 Build 0)  -->
<!DOCTYPE svg PUBLIC "-//W3C//DTD SVG 1.1//EN" "http://www.w3.org/Graphics/SVG/1.1/DTD/svg11.dtd">
<svg version="1.1" id="Layer_1" xmlns:sketch="http://www.bohemiancoding.com/sketch/ns"
	 xmlns="http://www.w3.org/2000/svg" xmlns:xlink="http://www.w3.org/1999/xlink" x="0px" y="0px" width="84px" height="84px"
	 viewBox="0 0 84 84" enable-background="new 0 0 84 84" xml:space="preserve">
<g sketch:type="MSShapeGroup">
	<g id="path-1">
		<path fill="#EEEEEE" d="M41.007,81.75c-21.37,0-38.756-17.386-38.756-38.756v-1.988c0-21.37,17.386-38.756,38.756-38.756h1.988
			c21.37,0,38.756,17.386,38.756,38.756v1.988c0,21.37-17.386,38.756-38.756,38.756H41.007z"/>
		<path fill="#FFFFFF" d="M42.995,3.25c20.817,0,37.756,16.938,37.756,37.756v1.988c0,20.818-16.938,37.756-37.756,37.756h-1.988
			c-20.819,0-37.756-16.938-37.756-37.756v-1.988c0-20.819,16.938-37.756,37.756-37.756H42.995 M42.995,1.25h-1.988
			c-21.956,0-39.756,17.8-39.756,39.756v1.988c0,21.957,17.8,39.756,39.756,39.756h1.988c21.957,0,39.756-17.799,39.756-39.756
			v-1.988C82.751,19.05,64.952,1.25,42.995,1.25L42.995,1.25z"/>
	</g>
</g>
<g>
	<path id="path-1_1_" fill="none" stroke="#F2EDED" d="M41.007,1.25h1.988c21.957,0,39.756,17.8,39.756,39.756v1.988
		c0,21.957-17.799,39.756-39.756,39.756h-1.988c-21.956,0-39.756-17.799-39.756-39.756v-1.988C1.251,19.05,19.051,1.25,41.007,1.25z
		"/>
</g>
<g>
	<path fill="#005EB8" d="M51.303,22.085c-16.826,0-18.601,0-18.601,0c-1.55,0-2.88,1.328-2.88,2.877c0,34.077,0,34.077,0,34.077
		c0,1.659,1.33,2.878,2.88,2.878c16.824,0,18.601,0,18.601,0c1.55,0,2.877-1.219,2.877-2.878c0-34.077,0-34.077,0-34.077
		C54.18,23.413,52.853,22.085,51.303,22.085L51.303,22.085z M38.202,23.855c8.191,0,8.191,0,8.191,0
		c0.222,0,0.443,0.332,0.443,0.665c0,0.442-0.222,0.774-0.443,0.774c-8.191,0-8.191,0-8.191,0c-0.221,0-0.442-0.332-0.442-0.774
		C37.76,24.187,37.981,23.855,38.202,23.855L38.202,23.855z M42.297,59.039c-0.995,0-1.883-0.775-1.883-1.77
		c0-1.105,0.888-1.882,1.883-1.882c0.998,0,1.883,0.776,1.883,1.882C44.18,58.264,43.295,59.039,42.297,59.039L42.297,59.039z
		 M51.967,52.732c-18.155,0-19.93,0-19.93,0c0-25.779,0-25.779,0-25.779c18.154,0,19.93,0,19.93,0V52.732z M51.967,52.732
		L51.967,52.732"/>
	<g>
		<path fill="#005EB8" d="M41.144,46.429c-1.308-0.061-2.567-0.354-3.78-0.878v-2.975c0.693,0.353,1.445,0.646,2.258,0.883
			c0.812,0.235,1.525,0.354,2.141,0.354c0.507,0,0.88-0.062,1.116-0.185c0.235-0.122,0.353-0.326,0.353-0.612
			c0-0.199-0.084-0.364-0.255-0.502c-0.169-0.138-0.454-0.293-0.851-0.466c-0.397-0.173-0.934-0.382-1.608-0.627
			c-0.758-0.28-1.37-0.595-1.836-0.945s-0.805-0.74-1.017-1.173c-0.212-0.434-0.318-0.973-0.318-1.617
			c0-0.985,0.316-1.756,0.949-2.311c0.633-0.556,1.582-0.898,2.849-1.03v-1.227h1.854v1.209c1.188,0.066,2.387,0.358,3.592,0.878
			l-1.065,2.552c-1.248-0.561-2.374-0.841-3.377-0.841c-0.478,0-0.813,0.059-1.007,0.175c-0.194,0.117-0.292,0.289-0.292,0.515
			c0,0.197,0.07,0.36,0.211,0.488c0.14,0.129,0.384,0.272,0.729,0.43c0.347,0.158,0.828,0.342,1.442,0.551
			c1.248,0.442,2.144,0.945,2.688,1.509c0.544,0.564,0.814,1.291,0.814,2.181c0,1.003-0.317,1.818-0.953,2.445
			s-1.563,1.016-2.782,1.165v1.728h-1.854V46.429z"/>
	</g>
</g>
</svg>
