<?xml version="1.0" encoding="utf-8"?>
<!-- Generator: Adobe Illustrator 16.2.0, SVG Export Plug-In . SVG Version: 6.00 Build 0)  -->
<!DOCTYPE svg PUBLIC "-//W3C//DTD SVG 1.1//EN" "http://www.w3.org/Graphics/SVG/1.1/DTD/svg11.dtd">
<svg version="1.1" id="Layer_1" xmlns:sketch="http://www.bohemiancoding.com/sketch/ns"
	 xmlns="http://www.w3.org/2000/svg" xmlns:xlink="http://www.w3.org/1999/xlink" x="0px" y="0px" width="84px" height="84px"
	 viewBox="0 0 84 84" enable-background="new 0 0 84 84" xml:space="preserve">
<g sketch:type="MSShapeGroup">
	<g id="path-1">
		<path fill="#EEEEEE" d="M41.007,81.75c-21.37,0-38.756-17.386-38.756-38.756v-1.988c0-21.37,17.386-38.756,38.756-38.756h1.988
			c21.37,0,38.756,17.386,38.756,38.756v1.988c0,21.37-17.386,38.756-38.756,38.756H41.007z"/>
		<path fill="#FFFFFF" d="M42.995,3.25c20.817,0,37.756,16.938,37.756,37.756v1.988c0,20.818-16.938,37.756-37.756,37.756h-1.988
			c-20.819,0-37.756-16.938-37.756-37.756v-1.988c0-20.819,16.938-37.756,37.756-37.756H42.995 M42.995,1.25h-1.988
			c-21.956,0-39.756,17.8-39.756,39.756v1.988c0,21.957,17.8,39.756,39.756,39.756h1.988c21.957,0,39.756-17.799,39.756-39.756
			v-1.988C82.751,19.05,64.952,1.25,42.995,1.25L42.995,1.25z"/>
	</g>
</g>
<g>
	<path id="path-1_1_" fill="none" stroke="#F2EDED" d="M41.007,1.25h1.988c21.957,0,39.756,17.8,39.756,39.756v1.988
		c0,21.957-17.799,39.756-39.756,39.756h-1.988c-21.956,0-39.756-17.799-39.756-39.756v-1.988C1.251,19.05,19.051,1.25,41.007,1.25z
		"/>
</g>
<g>
	<g>
		<path fill="#005EB8" d="M62.547,28.215L35.3,22.448c-1.153-0.243-2.297,0.501-2.54,1.653l-0.519,3.328l31.441,6.652l0.518-3.326
			C64.447,29.602,63.701,28.46,62.547,28.215L62.547,28.215z M62.547,28.215"/>
		<path fill="#005EB8" d="M51.091,34.788c-0.318-1.147-1.518-1.825-2.664-1.506l-5.172,1.435l-12.193-2.581l-1.345,6.336
			l-8.377,2.326c-1.146,0.318-1.825,1.516-1.505,2.663l4.723,17.016c0.317,1.146,1.513,1.825,2.659,1.508l27.089-7.519
			c1.147-0.318,1.824-1.516,1.508-2.662l-0.813-2.92l3.037,0.643c1.153,0.241,2.297-0.502,2.54-1.655l1.923-9.082l-10.944-2.314
			L51.091,34.788z M54.216,43.438l0.67-3.167c0.101-0.475,0.572-0.78,1.048-0.679l3.166,0.669c0.474,0.1,0.78,0.57,0.68,1.045
			l-0.671,3.165c-0.1,0.474-0.57,0.781-1.047,0.681l-3.162-0.671C54.421,44.381,54.118,43.911,54.216,43.438L54.216,43.438z
			 M21.811,42.498l7.497-2.081l17.688-4.908l1.901-0.529c0.037-0.009,0.069-0.014,0.103-0.014c0.154,0,0.335,0.101,0.391,0.293
			l0.222,0.803l0.702,2.524l-27.859,7.73l-0.924-3.328C21.475,42.781,21.603,42.555,21.811,42.498L21.811,42.498z M54.113,52.275
			c0.035,0.126-0.002,0.235-0.041,0.303c-0.038,0.066-0.108,0.152-0.236,0.189l-27.089,7.519c-0.034,0.008-0.068,0.012-0.104,0.012
			c-0.152,0-0.333-0.101-0.388-0.292L23.5,50.081l27.858-7.732l1.699,6.123L54.113,52.275z M54.113,52.275"/>
	</g>
	<path fill="#005EB8" d="M31.124,52.954c-0.131-0.468-0.617-0.744-1.084-0.612l-3.165,0.876c-0.467,0.13-0.742,0.619-0.611,1.085
		l0.876,3.165c0.13,0.466,0.619,0.743,1.087,0.612l3.161-0.878c0.47-0.13,0.746-0.617,0.617-1.085L31.124,52.954z M31.124,52.954"/>
</g>
</svg>
