<?xml version="1.0" encoding="utf-8"?>
<!-- Generator: Adobe Illustrator 16.2.0, SVG Export Plug-In . SVG Version: 6.00 Build 0)  -->
<!DOCTYPE svg PUBLIC "-//W3C//DTD SVG 1.1//EN" "http://www.w3.org/Graphics/SVG/1.1/DTD/svg11.dtd">
<svg version="1.1" id="Layer_1" xmlns:sketch="http://www.bohemiancoding.com/sketch/ns"
	 xmlns="http://www.w3.org/2000/svg" xmlns:xlink="http://www.w3.org/1999/xlink" x="0px" y="0px" width="84px" height="84px"
	 viewBox="0 0 84 84" enable-background="new 0 0 84 84" xml:space="preserve">
<g sketch:type="MSShapeGroup">
	<g id="path-1">
		<path fill="#EEEEEE" d="M41.007,81.75c-21.37,0-38.756-17.386-38.756-38.756v-1.988c0-21.37,17.386-38.756,38.756-38.756h1.988
			c21.37,0,38.756,17.386,38.756,38.756v1.988c0,21.37-17.386,38.756-38.756,38.756H41.007z"/>
		<path fill="#FFFFFF" d="M42.995,3.25c20.817,0,37.756,16.938,37.756,37.756v1.988c0,20.818-16.938,37.756-37.756,37.756h-1.988
			c-20.819,0-37.756-16.938-37.756-37.756v-1.988c0-20.819,16.938-37.756,37.756-37.756H42.995 M42.995,1.25h-1.988
			c-21.956,0-39.756,17.8-39.756,39.756v1.988c0,21.957,17.8,39.756,39.756,39.756h1.988c21.957,0,39.756-17.799,39.756-39.756
			v-1.988C82.751,19.05,64.952,1.25,42.995,1.25L42.995,1.25z"/>
	</g>
</g>
<g>
	<path id="path-1_1_" fill="none" stroke="#F2EDED" d="M41.007,1.25h1.988c21.957,0,39.756,17.8,39.756,39.756v1.988
		c0,21.957-17.799,39.756-39.756,39.756h-1.988c-21.956,0-39.756-17.799-39.756-39.756v-1.988C1.251,19.05,19.051,1.25,41.007,1.25z
		"/>
</g>
<g>
	<path fill="none" d="M58.922,52.05c-1.692,0-3.068,1.837-3.068,4.098s1.376,4.101,3.068,4.101c1.693,0,3.072-1.84,3.072-4.101
		S60.615,52.05,58.922,52.05z"/>
	<path fill="none" d="M39.226,52.05c-1.693,0-3.07,1.837-3.07,4.098s1.376,4.101,3.07,4.101c1.692,0,3.07-1.84,3.07-4.101
		S40.918,52.05,39.226,52.05z"/>
	<path fill="#005EB8" d="M30.4,19.624c-2.917,0-5.305,2.386-5.305,5.304v5.571c0,0.421,0.341,0.761,0.761,0.761h1.235v6.961
		c-0.716,0.338-1.214,1.065-1.214,1.912v20.129c0,1.167,0.947,2.113,2.115,2.113h0.155c1.168,0,2.115-0.946,2.115-2.113V40.133
		c0-0.846-0.497-1.573-1.213-1.912V31.26h1.234c0.421,0,0.762-0.34,0.762-0.761V20.27C31.045,19.912,30.756,19.624,30.4,19.624z"/>
	<path fill="#005EB8" d="M58.792,49.881c-1.57,0-2.979,0.859-3.919,2.207l-3.442-15.597l-1.433-15.754
		c-0.061-0.684-1.095-0.665-1.21,0.003c-0.187-0.62-1.148-0.687-1.21-0.001l-1.411,15.508l-3.498,15.841
		c-0.938-1.348-2.345-2.207-3.917-2.207c-2.821,0-5.115,2.764-5.115,6.161c0,3.396,2.293,6.162,5.115,6.162
		c2.469,0,4.536-2.121,5.01-4.928h3.422c0.549,0,0.995-0.449,0.995-0.997c0-0.549-0.446-0.993-0.995-0.993h-3.179l3.644-16.518
		h2.245l3.646,16.518h-3.178c-0.55,0-0.996,0.444-0.996,0.993c0,0.548,0.446,0.997,0.996,0.997h3.419
		c0.475,2.807,2.541,4.928,5.011,4.928c2.819,0,5.115-2.766,5.115-6.162C63.907,52.645,61.611,49.881,58.792,49.881z M38.751,60.214
		c-1.723,0-3.124-1.872-3.124-4.172c0-2.301,1.4-4.17,3.124-4.17c1.722,0,3.124,1.869,3.124,4.17
		C41.875,58.342,40.473,60.214,38.751,60.214z M58.792,60.214c-1.723,0-3.122-1.872-3.122-4.172c0-2.301,1.399-4.17,3.122-4.17
		s3.126,1.869,3.126,4.17C61.918,58.342,60.515,60.214,58.792,60.214z"/>
</g>
</svg>
