<?xml version="1.0" encoding="utf-8"?>
<!-- Generator: Adobe Illustrator 16.2.0, SVG Export Plug-In . SVG Version: 6.00 Build 0)  -->
<!DOCTYPE svg PUBLIC "-//W3C//DTD SVG 1.1//EN" "http://www.w3.org/Graphics/SVG/1.1/DTD/svg11.dtd">
<svg version="1.1" id="Layer_1" xmlns:sketch="http://www.bohemiancoding.com/sketch/ns"
	 xmlns="http://www.w3.org/2000/svg" xmlns:xlink="http://www.w3.org/1999/xlink" x="0px" y="0px" width="84px" height="84px"
	 viewBox="0 0 84 84" enable-background="new 0 0 84 84" xml:space="preserve">
<g sketch:type="MSShapeGroup">
	<g id="path-1">
		<path fill="#EEEEEE" d="M41.007,81.75c-21.37,0-38.756-17.386-38.756-38.756v-1.988c0-21.37,17.386-38.756,38.756-38.756h1.988
			c21.37,0,38.756,17.386,38.756,38.756v1.988c0,21.37-17.386,38.756-38.756,38.756H41.007z"/>
		<path fill="#FFFFFF" d="M42.995,3.25c20.817,0,37.756,16.938,37.756,37.756v1.988c0,20.818-16.938,37.756-37.756,37.756h-1.988
			c-20.819,0-37.756-16.938-37.756-37.756v-1.988c0-20.819,16.938-37.756,37.756-37.756H42.995 M42.995,1.25h-1.988
			c-21.956,0-39.756,17.8-39.756,39.756v1.988c0,21.957,17.8,39.756,39.756,39.756h1.988c21.957,0,39.756-17.799,39.756-39.756
			v-1.988C82.751,19.05,64.952,1.25,42.995,1.25L42.995,1.25z"/>
	</g>
</g>
<g>
	<path id="path-1_1_" fill="none" stroke="#F2EDED" d="M41.007,1.25h1.988c21.957,0,39.756,17.8,39.756,39.756v1.988
		c0,21.957-17.799,39.756-39.756,39.756h-1.988c-21.956,0-39.756-17.799-39.756-39.756v-1.988C1.251,19.05,19.051,1.25,41.007,1.25z
		"/>
</g>
<g>
	<path fill="#005EB8" d="M24.764,56.398c8.411-8.409,8.411-8.409,8.411-8.409c0.801-0.666,1.069-1.733,0.801-2.671
		c2.002-2.002,2.002-2.002,2.002-2.002c4.407,3.336,10.816,3.072,14.823-1.066c4.406-4.403,4.406-11.477,0-15.883
		c-4.406-4.403-11.619-4.403-16.024,0c-4.006,4.006-4.406,10.278-1.068,14.683c-2.003,2.001-2.003,2.001-2.003,2.001
		c-0.935-0.133-1.867,0.135-2.67,0.801c-8.412,8.409-8.412,8.409-8.412,8.409c-1.203,1.199-1.203,3.067,0,4.138
		C21.824,57.6,23.694,57.6,24.764,56.398L24.764,56.398z M36.602,28.194c3.456-3.454,8.928-3.454,12.384,0
		c3.311,3.309,3.311,8.922,0,12.23c-3.456,3.453-8.928,3.453-12.384,0C33.145,37.116,33.145,31.503,36.602,28.194L36.602,28.194z
		 M37.046,28.638L37.046,28.638"/>
	<path fill="#005EB8" d="M60.281,26.102c-4.273,0-4.273,0-4.273,0c0,5.072,0,5.072,0,5.072c0.268,1.066,0.4,2.135,0.4,3.336
		c0,1.202-0.135,2.269-0.4,3.337c0,23.088,0,23.088,0,23.088c4.273,0,4.273,0,4.273,0V26.102z M60.281,26.102L60.281,26.102"/>
	<path fill="#005EB8" d="M46.661,60.936c4.272,0,4.272,0,4.272,0c0-15.482,0-15.482,0-15.482c-1.336,0.938-2.807,1.604-4.272,2.136
		V60.936z M46.661,60.936L46.661,60.936"/>
	<path fill="#005EB8" d="M36.912,60.936c4.274,0,4.274,0,4.274,0c0-12.945,0-12.945,0-12.945c-0.802,0-1.469-0.133-2.271-0.401
		c-2.004,0-2.004,0-2.004,0L36.912,60.936L36.912,60.936z M36.912,60.936L36.912,60.936"/>
	<polygon fill="#005EB8" points="27.031,60.936 31.439,60.936 31.439,54.262 30.37,54.262 27.031,57.6 	"/>
	<polygon fill="#005EB8" points="27.031,60.936 31.439,60.936 31.439,54.262 30.37,54.262 27.031,57.6 	"/>
	<path fill="#005EB8" d="M27.031,60.936h4.408v-6.674H30.37L27.031,57.6V60.936 M27.031,60.936L27.031,60.936"/>
</g>
<g>
	<path fill="#005EB8" d="M42.125,39.185c-1.07-0.049-2.102-0.288-3.093-0.718v-2.434c0.567,0.289,1.183,0.529,1.847,0.722
		s1.249,0.29,1.752,0.29c0.415,0,0.72-0.05,0.912-0.15c0.193-0.1,0.29-0.268,0.29-0.502c0-0.161-0.07-0.298-0.209-0.411
		c-0.14-0.112-0.372-0.239-0.696-0.381c-0.325-0.142-0.764-0.313-1.316-0.513c-0.621-0.229-1.122-0.487-1.502-0.773
		c-0.381-0.286-0.659-0.606-0.832-0.96c-0.174-0.354-0.26-0.795-0.26-1.323c0-0.806,0.259-1.437,0.777-1.891
		s1.295-0.735,2.331-0.843v-1.004h1.518v0.99c0.972,0.054,1.952,0.293,2.938,0.718l-0.872,2.089
		c-1.021-0.459-1.942-0.689-2.763-0.689c-0.392,0-0.667,0.048-0.825,0.143c-0.159,0.095-0.238,0.236-0.238,0.421
		c0,0.161,0.058,0.294,0.172,0.399s0.314,0.223,0.597,0.352s0.677,0.28,1.181,0.451c1.021,0.362,1.754,0.773,2.198,1.235
		c0.445,0.462,0.667,1.057,0.667,1.785c0,0.821-0.26,1.488-0.78,2.001c-0.521,0.513-1.279,0.831-2.275,0.953v1.415h-1.518V39.185z"
		/>
</g>
</svg>
