<?xml version="1.0" encoding="utf-8"?>
<!-- Generator: Adobe Illustrator 16.2.0, SVG Export Plug-In . SVG Version: 6.00 Build 0)  -->
<!DOCTYPE svg PUBLIC "-//W3C//DTD SVG 1.1//EN" "http://www.w3.org/Graphics/SVG/1.1/DTD/svg11.dtd">
<svg version="1.1" id="Layer_1" xmlns:sketch="http://www.bohemiancoding.com/sketch/ns"
	 xmlns="http://www.w3.org/2000/svg" xmlns:xlink="http://www.w3.org/1999/xlink" x="0px" y="0px" width="84px" height="84px"
	 viewBox="0 0 84 84" enable-background="new 0 0 84 84" xml:space="preserve">
<g sketch:type="MSShapeGroup">
	<g id="path-1">
		<path fill="#EEEEEE" d="M41.007,81.75c-21.37,0-38.756-17.386-38.756-38.756v-1.988c0-21.37,17.386-38.756,38.756-38.756h1.988
			c21.37,0,38.756,17.386,38.756,38.756v1.988c0,21.37-17.386,38.756-38.756,38.756H41.007z"/>
		<path fill="#FFFFFF" d="M42.995,3.25c20.817,0,37.756,16.938,37.756,37.756v1.988c0,20.818-16.938,37.756-37.756,37.756h-1.988
			c-20.819,0-37.756-16.938-37.756-37.756v-1.988c0-20.819,16.938-37.756,37.756-37.756H42.995 M42.995,1.25h-1.988
			c-21.956,0-39.756,17.8-39.756,39.756v1.988c0,21.957,17.8,39.756,39.756,39.756h1.988c21.957,0,39.756-17.799,39.756-39.756
			v-1.988C82.751,19.05,64.952,1.25,42.995,1.25L42.995,1.25z"/>
	</g>
</g>
<g>
	<path id="path-1_1_" fill="none" stroke="#F2EDED" d="M41.007,1.25h1.988c21.957,0,39.756,17.8,39.756,39.756v1.988
		c0,21.957-17.799,39.756-39.756,39.756h-1.988c-21.956,0-39.756-17.799-39.756-39.756v-1.988C1.251,19.05,19.051,1.25,41.007,1.25z
		"/>
</g>
<g>
	<g>
		<path fill="#005EB8" d="M25.067,49.923c-2.298,0-4.162,1.864-4.162,4.162c0,2.3,1.864,4.164,4.162,4.164s4.164-1.864,4.164-4.164
			C29.23,51.787,27.365,49.923,25.067,49.923L25.067,49.923z M25.067,56.167c-1.149,0-2.082-0.932-2.082-2.082
			c0-1.148,0.933-2.08,2.082-2.08c1.149,0,2.082,0.932,2.082,2.08C27.148,55.235,26.216,56.167,25.067,56.167L25.067,56.167z
			 M57.096,45.892l-5.663,3.506c-0.104-0.243-0.163-0.509-0.163-0.79v-5.516c0-0.255,0.052-0.498,0.14-0.722L57.096,45.892z
			 M52.131,41.45c0.323-0.224,0.716-0.357,1.137-0.357h10.156c0.36,0,0.693,0.103,0.985,0.27l-6.208,3.843L52.131,41.45z
			 M59.305,45.892l5.914-3.662c0.127,0.262,0.204,0.552,0.204,0.862v5.516c0,0.335-0.09,0.646-0.237,0.926L59.305,45.892z
			 M50.251,51.613h10.598v2.12H50.69c-0.118-1.766-1.114-3.291-2.559-4.143v-0.005c0.008,0.006,0.018,0.01,0.026,0.016l-0.026-0.053
			V28.3h2.119V51.613z M64.336,50.374c-0.273,0.143-0.581,0.23-0.912,0.23H53.268c-0.395,0-0.759-0.117-1.068-0.313l6.002-3.716
			L64.336,50.374z M57.096,35.243l-5.663,3.506c-0.104-0.243-0.163-0.51-0.163-0.791v-5.515c0-0.255,0.052-0.498,0.14-0.723
			L57.096,35.243z M52.131,30.801c0.323-0.223,0.716-0.356,1.137-0.356h10.156c0.36,0,0.693,0.103,0.985,0.269l-6.208,3.845
			L52.131,30.801z M59.305,35.243l5.914-3.663c0.127,0.263,0.204,0.553,0.204,0.864v5.515c0,0.336-0.09,0.647-0.237,0.925
			L59.305,35.243z M64.336,39.727c-0.273,0.142-0.581,0.23-0.912,0.23H53.268c-0.395,0-0.759-0.117-1.068-0.314l6.002-3.715
			L64.336,39.727z M37.167,27.923c-0.542-1.069-1.638-1.742-2.836-1.742h-6.865c-1.17,0-2.118,0.949-2.118,2.119v11.127h-2.12
			c-1.463,0-2.649,1.186-2.649,2.649v9.341c0.911-1.531,2.581-2.554,4.488-2.554c2.761,0,5.029,2.151,5.214,4.869h9.993
			c0.186-2.718,2.447-4.869,5.212-4.869c0.967,0,1.873,0.266,2.646,0.722v-0.037L37.167,27.923z M41.18,43.688H29.195
			c-0.297,0-0.53-0.238-0.53-0.53V29.985c0-0.292,0.233-0.53,0.53-0.53h5.218c0.203,0,0.383,0.112,0.473,0.286l6.765,13.172
			C41.831,43.27,41.578,43.688,41.18,43.688L41.18,43.688z M45.485,49.923c-2.298,0-4.162,1.864-4.162,4.162
			c0,2.3,1.864,4.164,4.162,4.164c2.301,0,4.164-1.864,4.164-4.164C49.649,51.787,47.786,49.923,45.485,49.923L45.485,49.923z
			 M45.485,56.167c-1.148,0-2.079-0.932-2.079-2.082c0-1.148,0.931-2.08,2.079-2.08c1.151,0,2.082,0.932,2.082,2.08
			C47.567,55.235,46.637,56.167,45.485,56.167L45.485,56.167z M45.485,56.167"/>
	</g>
</g>
</svg>
