<?xml version="1.0" encoding="utf-8"?>
<!-- Generator: Adobe Illustrator 16.2.0, SVG Export Plug-In . SVG Version: 6.00 Build 0)  -->
<!DOCTYPE svg PUBLIC "-//W3C//DTD SVG 1.1//EN" "http://www.w3.org/Graphics/SVG/1.1/DTD/svg11.dtd">
<svg version="1.1" id="Layer_1" xmlns:sketch="http://www.bohemiancoding.com/sketch/ns"
	 xmlns="http://www.w3.org/2000/svg" xmlns:xlink="http://www.w3.org/1999/xlink" x="0px" y="0px" width="84px" height="84px"
	 viewBox="0 0 84 84" enable-background="new 0 0 84 84" xml:space="preserve">
<g sketch:type="MSShapeGroup">
	<g id="path-1">
		<path fill="#EEEEEE" d="M41.007,81.75c-21.37,0-38.756-17.386-38.756-38.756v-1.988c0-21.37,17.386-38.756,38.756-38.756h1.988
			c21.37,0,38.756,17.386,38.756,38.756v1.988c0,21.37-17.386,38.756-38.756,38.756H41.007z"/>
		<path fill="#FFFFFF" d="M42.995,3.25c20.817,0,37.756,16.938,37.756,37.756v1.988c0,20.818-16.938,37.756-37.756,37.756h-1.988
			c-20.819,0-37.756-16.938-37.756-37.756v-1.988c0-20.819,16.938-37.756,37.756-37.756H42.995 M42.995,1.25h-1.988
			c-21.956,0-39.756,17.8-39.756,39.756v1.988c0,21.957,17.8,39.756,39.756,39.756h1.988c21.957,0,39.756-17.799,39.756-39.756
			v-1.988C82.751,19.05,64.952,1.25,42.995,1.25L42.995,1.25z"/>
	</g>
</g>
<g>
	<path id="path-1_1_" fill="none" stroke="#F2EDED" d="M41.007,1.25h1.988c21.957,0,39.756,17.8,39.756,39.756v1.988
		c0,21.957-17.799,39.756-39.756,39.756h-1.988c-21.956,0-39.756-17.799-39.756-39.756v-1.988C1.251,19.05,19.051,1.25,41.007,1.25z
		"/>
</g>
<g>
	<g>
		<path fill="#005EB8" d="M47.924,40.271l2.571-2.571c1.858,0.738,3.955,0.691,5.783-0.137c0.449-0.204,0.557-0.793,0.208-1.143
			l-4.58-4.579c-0.556-0.556-0.556-1.458,0-2.016l4.575-4.574c0.352-0.351,0.244-0.945-0.209-1.149
			c-2.72-1.231-6.034-0.729-8.271,1.507c-2.101,2.101-2.666,5.173-1.697,7.798l-2.623,2.623L47.924,40.271z M47.924,40.271"/>
	</g>
	<g>
		<path fill="#005EB8" d="M56.814,60.554c-0.432,0-0.838-0.168-1.144-0.474L34.312,38.723l5.199-5.198l21.357,21.357
			c0.307,0.306,0.474,0.712,0.474,1.145c0,0.43-0.167,0.837-0.474,1.142l-2.912,2.912C57.652,60.386,57.245,60.554,56.814,60.554z
			 M36.184,38.723l20.423,20.422c0.054,0.055,0.129,0.086,0.208,0.086c0.044,0,0.13-0.012,0.205-0.085l2.913-2.912
			c0.074-0.076,0.087-0.163,0.087-0.207c0-0.047-0.013-0.134-0.087-0.209L39.511,35.396L36.184,38.723z"/>
	</g>
	<g>
		<path fill="#005EB8" d="M58.513,27.346l-3.754,3.752c-0.299,0.3-0.299,0.786,0,1.087l2.894,2.892
			c0.323,0.323,0.858,0.297,1.142-0.061c1.697-2.143,2.019-5.018,0.964-7.439C59.542,27.082,58.894,26.965,58.513,27.346
			L58.513,27.346z M58.513,27.346"/>
	</g>
	<g>
		<path fill="#005EB8" d="M28.177,47.307l4.504,4.505c0.547,0.546,0.547,1.434,0,1.979l-4.499,4.5
			c-0.345,0.346-0.239,0.929,0.206,1.131c2.675,1.21,5.933,0.716,8.132-1.485c2.059-2.056,2.619-5.064,1.68-7.64l2.786-2.787
			l-4.17-4.17l-2.721,2.719c-1.833-0.735-3.906-0.695-5.713,0.125C27.94,46.386,27.834,46.963,28.177,47.307L28.177,47.307z
			 M28.177,47.307"/>
	</g>
	<g>
		<path fill="#005EB8" d="M25.781,48.377c-1.79,2.259-2.127,5.29-1.016,7.842c0.226,0.521,0.91,0.645,1.312,0.243l3.955-3.956
			c0.316-0.316,0.316-0.828,0-1.145l-3.049-3.048C26.643,47.973,26.08,47.999,25.781,48.377L25.781,48.377z M25.781,48.377"/>
	</g>
	<g>
		<path fill="#005EB8" d="M28.159,41.021c0.473,0.474,1.241,0.474,1.715,0l0.228-0.228c0.474-0.474,0.474-1.242,0-1.715
			l-0.457-0.458l0.9-0.901l-4.229-4.229l-0.9,0.9l-0.457-0.457c-0.475-0.474-1.242-0.474-1.715,0l-0.23,0.229
			c-0.473,0.474-0.473,1.241,0,1.714L28.159,41.021z M28.159,41.021"/>
	</g>
	<g>
		<path fill="#005EB8" d="M34.701,25.358l4.176,4.176c4.815-3.208,7.505-0.517,3.805-4.219
			C40.123,22.756,36.89,23.967,34.701,25.358L34.701,25.358z M34.701,25.358"/>
	</g>
	<g>
		<path fill="#005EB8" d="M33.418,25.475c-0.238-0.236-0.547-0.355-0.858-0.355c-0.31,0-0.621,0.119-0.857,0.355l-5.144,5.145
			c-0.473,0.473-0.473,1.24,0,1.714l0.458,0.457l4.228,4.23l0.458,0.457c0.236,0.237,0.547,0.355,0.857,0.355
			c0.076,0,0.15-0.007,0.224-0.021c0.173-0.032,0.341-0.103,0.49-0.21c0.05-0.038,0.097-0.078,0.144-0.124l4.98-4.981l0.164-0.162
			c0.063-0.065,0.12-0.134,0.166-0.208c0.298-0.47,0.243-1.098-0.166-1.506l-0.498-0.5l-4.195-4.193L33.418,25.475z M33.418,25.475"
			/>
	</g>
</g>
</svg>
