<?xml version="1.0" encoding="utf-8"?>
<!-- Generator: Adobe Illustrator 16.2.0, SVG Export Plug-In . SVG Version: 6.00 Build 0)  -->
<!DOCTYPE svg PUBLIC "-//W3C//DTD SVG 1.1//EN" "http://www.w3.org/Graphics/SVG/1.1/DTD/svg11.dtd">
<svg version="1.1" id="Layer_1" xmlns:sketch="http://www.bohemiancoding.com/sketch/ns"
	 xmlns="http://www.w3.org/2000/svg" xmlns:xlink="http://www.w3.org/1999/xlink" x="0px" y="0px" width="84px" height="84px"
	 viewBox="0 0 84 84" enable-background="new 0 0 84 84" xml:space="preserve">
<g id="Rectangle-290">
	<g sketch:type="MSShapeGroup">
		<path id="path-1" fill="#EEEEEE" stroke="#FFFFFF" stroke-width="4" d="M41,1h2c22.092,0,40,17.909,40,40v2
			c0,22.092-17.908,40-40,40h-2C18.909,83,1,65.092,1,43v-2C1,18.909,18.909,1,41,1z"/>
	</g>
	<g>
		<path id="path-1_1_" fill="none" stroke="#F2EDED" d="M41,1h2c22.092,0,40,17.909,40,40v2c0,22.092-17.908,40-40,40h-2
			C18.909,83,1,65.092,1,43v-2C1,18.909,18.909,1,41,1z"/>
	</g>
</g>
<g>
	<path fill="#005EB8" d="M44.033,32.883c-14.003-3.555-19.045,2.777-20.547,4.23c-0.243,0.25-0.32,0.213-0.234-0.125
		c2.81-11.069,12.499-15.893,23.091-13.204C54.107,25.755,45.739,33.316,44.033,32.883L44.033,32.883z"/>
	<path fill="#005EB8" d="M42.912,39.378l16.759-7.368L48.455,17.548L42.912,39.378z"/>
	<path fill="#005EB8" d="M38.326,49.108c14.002,3.556,19.051-2.776,20.547-4.23c0.251-0.248,0.319-0.214,0.233,0.126
		c-2.811,11.069-12.501,15.892-23.09,13.203C28.25,56.235,36.622,48.677,38.326,49.108L38.326,49.108z"/>
	<path fill="#005EB8" d="M39.443,42.612l-16.746,7.372L33.9,64.452L39.443,42.612z"/>
</g>
</svg>
